<svg width="9" height="9" viewBox="0 0 9 9" fill="none" xmlns="http://www.w3.org/2000/svg">
<g id="add 2" clip-path="url(#clip0_1_5716)">
<path id="Vector" d="M8.19643 3.69643H5.46429C5.37553 3.69643 5.30357 3.62447 5.30357 3.53571V0.803571C5.30357 0.359802 4.94377 0 4.5 0C4.05623 0 3.69643 0.359802 3.69643 0.803571V3.53571C3.69643 3.62447 3.62447 3.69643 3.53571 3.69643H0.803571C0.359802 3.69643 0 4.05623 0 4.5C0 4.94377 0.359802 5.30357 0.803571 5.30357H3.53571C3.62447 5.30357 3.69643 5.37553 3.69643 5.46429V8.19643C3.69643 8.6402 4.05623 9 4.5 9C4.94377 9 5.30357 8.6402 5.30357 8.19643V5.46429C5.30357 5.37553 5.37553 5.30357 5.46429 5.30357H8.19643C8.6402 5.30357 9 4.94377 9 4.5C9 4.05623 8.6402 3.69643 8.19643 3.69643Z" fill="white"/>
</g>
<defs>
<clipPath id="clip0_1_5716">
<rect width="9" height="9" fill="white"/>
</clipPath>
</defs>
</svg>
