<svg width="290" height="238" viewBox="0 0 290 238" fill="none" xmlns="http://www.w3.org/2000/svg">
<path d="M11.5947 45.7817C11.5947 45.7817 -8.50557 82.4033 4.22405 125.778C16.9537 169.156 43.1367 188.961 126.236 192.066C208.71 195.147 283.286 178.756 288.648 114.403C294.007 50.0497 263.856 19.1144 222.315 19.471C180.773 19.8275 165.798 22.6374 114.775 4.53816C79.8408 -7.85619 30.3538 4.89472 11.5947 45.7817Z" fill="#DDFDD1"/>
<path d="M179.369 159.494C179.372 159.561 179.422 159.617 179.486 159.625C179.854 159.672 180.224 159.681 180.591 159.653C180.666 159.647 180.716 159.58 180.716 159.508C180.708 159.433 180.644 159.377 180.572 159.386C180.221 159.411 179.868 159.402 179.522 159.358C179.447 159.349 179.381 159.4 179.372 159.475C179.369 159.48 179.369 159.489 179.369 159.494Z" fill="#F8F0E9"/>
<path d="M179.306 158.167C179.308 158.231 179.353 158.287 179.417 158.298C179.815 158.365 180.224 158.396 180.627 158.385C180.703 158.382 180.761 158.321 180.761 158.245C180.758 158.17 180.694 158.115 180.622 158.115C180.235 158.126 179.843 158.098 179.464 158.034C179.389 158.02 179.319 158.07 179.308 158.142C179.306 158.151 179.306 158.159 179.306 158.167Z" fill="#F8F0E9"/>
<path d="M179.344 156.898C179.344 156.948 179.375 156.996 179.425 157.018C179.598 157.09 179.773 157.09 179.945 157.09H180.034C180.21 157.096 180.385 157.115 180.555 157.149C180.627 157.163 180.7 157.115 180.714 157.043C180.727 156.971 180.68 156.901 180.611 156.884C180.421 156.848 180.229 156.826 180.04 156.823H179.945C179.795 156.82 179.65 156.82 179.531 156.77C179.461 156.742 179.383 156.773 179.355 156.843C179.347 156.859 179.344 156.879 179.344 156.898Z" fill="#F8F0E9"/>
<path d="M179.216 155.746C179.216 155.791 179.241 155.832 179.28 155.857C179.417 155.938 179.567 155.932 179.689 155.927C179.962 155.916 180.24 155.913 180.513 155.91C180.588 155.91 180.647 155.849 180.647 155.777C180.647 155.704 180.586 155.64 180.513 155.64C180.235 155.643 179.957 155.649 179.678 155.66C179.589 155.663 179.486 155.668 179.419 155.626C179.355 155.59 179.272 155.61 179.236 155.674C179.222 155.696 179.216 155.721 179.216 155.746Z" fill="#F8F0E9"/>
<path d="M177.341 172.817C176.556 172.831 175.724 173.187 175.367 173.892C174.978 174.657 175.239 175.57 175.415 176.41C175.829 178.4 175.707 180.498 175.059 182.424C174.808 183.17 174.494 184.05 174.95 184.692C175.209 185.06 175.654 185.238 176.083 185.369C177.736 185.872 179.517 185.942 181.203 185.572C181.562 185.494 181.941 185.377 182.161 185.088C182.325 184.871 182.372 184.595 182.408 184.328C182.52 183.524 182.556 182.714 182.595 181.904C182.665 180.421 182.734 178.937 182.804 177.454C182.845 176.535 182.887 175.592 182.612 174.713C182.395 174.02 181.988 173.399 181.54 172.828C181.437 172.7 181.331 172.57 181.195 172.483C180.441 172.005 180.107 172.873 179.561 173.112C178.977 173.374 178.011 172.809 177.341 172.817Z" fill="#BF4D39"/>
<path d="M233.705 192.559C234.331 193.035 234.793 193.815 234.665 194.591C234.526 195.437 233.774 196.021 233.137 196.595C231.626 197.956 230.488 199.72 229.873 201.657C229.633 202.408 229.366 203.302 228.62 203.552C228.194 203.694 227.73 203.575 227.307 203.427C225.676 202.857 224.195 201.863 223.054 200.569C222.812 200.293 222.573 199.976 222.567 199.612C222.564 199.342 222.687 199.088 222.818 198.852C223.202 198.139 223.65 197.463 224.098 196.787C224.919 195.548 225.737 194.313 226.558 193.074C227.067 192.306 227.59 191.521 228.334 190.976C228.921 190.545 229.611 190.283 230.312 190.088C230.471 190.044 230.629 190.002 230.794 190.013C231.684 190.071 231.442 190.97 231.737 191.485C232.057 192.039 233.17 192.153 233.705 192.559Z" fill="#BF4D39"/>
<path d="M221.679 168.607C221.654 168.66 221.59 168.685 221.537 168.66C221.485 168.635 221.462 168.571 221.485 168.518C221.512 168.465 221.574 168.44 221.629 168.465C221.682 168.49 221.704 168.554 221.679 168.607Z" fill="#E35D47"/>
<path d="M221.165 168.367C221.142 168.419 221.078 168.445 221.025 168.419C220.97 168.394 220.947 168.33 220.972 168.278C220.998 168.225 221.062 168.2 221.114 168.225C221.167 168.25 221.19 168.314 221.165 168.367Z" fill="#E35D47"/>
<path d="M206.704 173.554C206.537 173.908 206.12 174.061 205.766 173.897C205.41 173.73 205.26 173.31 205.424 172.959C205.588 172.605 206.008 172.45 206.362 172.614C206.715 172.781 206.868 173.201 206.704 173.554Z" fill="#A64331"/>
<path d="M206.417 173.422C206.392 173.475 206.328 173.497 206.276 173.472C206.223 173.447 206.198 173.386 206.223 173.33C206.248 173.277 206.312 173.255 206.365 173.28C206.42 173.305 206.443 173.367 206.417 173.422Z" fill="#E35D47"/>
<path d="M205.902 173.181C205.877 173.234 205.813 173.256 205.76 173.231C205.708 173.206 205.685 173.145 205.71 173.089C205.735 173.036 205.797 173.014 205.852 173.039C205.905 173.064 205.927 173.126 205.902 173.181Z" fill="#E35D47"/>
<path d="M206.295 172.759C206.022 172.631 205.694 172.751 205.566 173.024C205.438 173.299 205.557 173.625 205.833 173.753C206.106 173.881 206.434 173.761 206.559 173.489C206.687 173.213 206.57 172.887 206.295 172.759ZM205.822 173.772C205.538 173.639 205.413 173.302 205.546 173.015C205.68 172.732 206.019 172.606 206.303 172.74C206.59 172.873 206.712 173.213 206.582 173.497C206.448 173.784 206.108 173.906 205.822 173.772Z" fill="#E35D47"/>
<path d="M204.909 180.662C204.745 181.015 204.325 181.168 203.971 181.004C203.618 180.84 203.465 180.42 203.629 180.066C203.793 179.713 204.213 179.56 204.567 179.724C204.92 179.888 205.073 180.308 204.909 180.662Z" fill="#A64331"/>
<path d="M204.622 180.529C204.597 180.584 204.533 180.607 204.48 180.582C204.428 180.557 204.405 180.493 204.43 180.44C204.453 180.387 204.519 180.362 204.57 180.387C204.625 180.412 204.647 180.476 204.622 180.529Z" fill="#E35D47"/>
<path d="M204.11 180.289C204.085 180.345 204.021 180.367 203.968 180.342C203.913 180.317 203.89 180.253 203.916 180.2C203.941 180.147 204.005 180.122 204.057 180.147C204.11 180.172 204.133 180.236 204.11 180.289Z" fill="#E35D47"/>
<path d="M204.5 179.868C204.227 179.74 203.899 179.86 203.771 180.132C203.646 180.405 203.762 180.734 204.038 180.862C204.311 180.99 204.639 180.87 204.767 180.597C204.895 180.322 204.775 179.996 204.5 179.868ZM204.03 180.881C203.743 180.747 203.62 180.408 203.754 180.124C203.885 179.837 204.224 179.715 204.508 179.846C204.795 179.979 204.92 180.319 204.787 180.606C204.653 180.889 204.313 181.015 204.03 180.881Z" fill="#E35D47"/>
<path d="M200.963 194.457C200.798 194.81 200.381 194.963 200.025 194.796C199.671 194.632 199.521 194.215 199.685 193.861C199.849 193.505 200.27 193.355 200.623 193.519C200.977 193.683 201.13 194.103 200.963 194.457Z" fill="#A64331"/>
<path d="M200.679 194.323C200.654 194.376 200.59 194.398 200.537 194.373C200.484 194.351 200.459 194.287 200.484 194.234C200.509 194.178 200.573 194.156 200.626 194.181C200.679 194.206 200.704 194.27 200.679 194.323Z" fill="#E35D47"/>
<path d="M200.164 194.084C200.139 194.137 200.075 194.159 200.022 194.134C199.969 194.112 199.944 194.048 199.972 193.995C199.994 193.939 200.058 193.917 200.111 193.942C200.167 193.967 200.189 194.031 200.164 194.084Z" fill="#E35D47"/>
<path d="M200.556 193.662C200.281 193.534 199.955 193.654 199.827 193.93C199.699 194.202 199.819 194.531 200.092 194.656C200.367 194.784 200.693 194.667 200.821 194.392C200.949 194.119 200.829 193.79 200.556 193.662ZM200.083 194.675C199.797 194.545 199.674 194.205 199.808 193.918C199.938 193.635 200.281 193.509 200.565 193.643C200.849 193.774 200.974 194.116 200.84 194.4C200.709 194.687 200.367 194.809 200.083 194.675Z" fill="#E35D47"/>
<path d="M203.278 186.827C203.114 187.18 202.694 187.331 202.34 187.167C201.987 187.002 201.834 186.585 201.998 186.229C202.162 185.875 202.582 185.722 202.936 185.889C203.289 186.053 203.442 186.474 203.278 186.827Z" fill="#A64331"/>
<path d="M202.992 186.692C202.966 186.745 202.902 186.767 202.85 186.742C202.797 186.72 202.774 186.653 202.799 186.6C202.822 186.547 202.889 186.525 202.941 186.55C202.994 186.575 203.017 186.639 202.992 186.692Z" fill="#E35D47"/>
<path d="M202.48 186.453C202.455 186.506 202.391 186.528 202.338 186.503C202.282 186.481 202.26 186.414 202.285 186.361C202.31 186.308 202.374 186.286 202.427 186.311C202.48 186.336 202.505 186.4 202.48 186.453Z" fill="#E35D47"/>
<path d="M202.869 186.031C202.596 185.903 202.268 186.023 202.143 186.296C202.015 186.571 202.132 186.897 202.407 187.025C202.683 187.153 203.008 187.033 203.136 186.76C203.264 186.485 203.145 186.159 202.869 186.031ZM202.399 187.044C202.112 186.913 201.99 186.571 202.12 186.287C202.254 186.003 202.593 185.878 202.88 186.012C203.164 186.143 203.286 186.485 203.156 186.769C203.022 187.055 202.683 187.178 202.399 187.044Z" fill="#E35D47"/>
<path d="M218.718 174.42L218.242 174.201C218.431 173.789 218.629 173.363 218.893 172.971C218.913 172.94 218.932 172.912 218.952 172.884C219.027 172.776 219.097 172.673 219.141 172.57C219.177 172.481 219.202 172.381 219.227 172.275C219.252 172.175 219.278 172.069 219.316 171.96C219.367 171.827 219.431 171.71 219.495 171.593L219.534 171.521C219.709 171.198 219.845 170.864 219.99 170.51C220.104 170.232 220.221 169.945 220.357 169.667C220.471 169.439 220.605 169.208 220.836 169.058L221.123 169.497C221.006 169.572 220.922 169.714 220.83 169.898C220.702 170.16 220.588 170.438 220.477 170.708C220.335 171.061 220.185 171.423 219.996 171.771L219.954 171.849C219.898 171.949 219.845 172.047 219.809 172.141C219.781 172.222 219.762 172.305 219.74 172.397C219.709 172.52 219.678 172.648 219.625 172.776C219.559 172.926 219.47 173.057 219.386 173.182C219.367 173.207 219.347 173.235 219.328 173.263C219.088 173.619 218.902 174.028 218.718 174.42Z" fill="#E35D47"/>
<mask id="mask0_5_1248" style="mask-type:luminance" maskUnits="userSpaceOnUse" x="136" y="168" width="103" height="62">
<path d="M136.856 168.065H238.024V229.205H136.856V168.065Z" fill="white"/>
</mask>
<g mask="url(#mask0_5_1248)">
<path d="M233.064 225.168L204.569 229.184L142.102 227.277L137.354 168.206H237.361L233.064 225.168Z" fill="#C98861"/>
<path d="M152.31 205.999V196.834H158.407V198.16H153.909V200.682H158.121V202.008H153.909V204.673H158.407V205.999H152.31ZM160.326 205.999V199.642H161.912V200.617C162.103 200.271 162.367 200.002 162.705 199.811C163.043 199.612 163.433 199.512 163.875 199.512C164.829 199.512 165.453 199.928 165.747 200.76C165.947 200.37 166.233 200.067 166.605 199.85C166.978 199.625 167.403 199.512 167.879 199.512C169.309 199.512 170.024 200.383 170.024 202.125V205.999H168.399V202.19C168.399 201.705 168.317 201.35 168.152 201.124C167.996 200.899 167.728 200.786 167.346 200.786C166.922 200.786 166.588 200.938 166.345 201.241C166.103 201.536 165.981 201.948 165.981 202.476V205.999H164.356V202.19C164.356 201.705 164.274 201.35 164.109 201.124C163.953 200.899 163.689 200.786 163.316 200.786C162.892 200.786 162.558 200.938 162.315 201.241C162.073 201.536 161.951 201.948 161.951 202.476V205.999H160.326ZM172.091 208.339V199.642H173.677V200.656C173.859 200.31 174.132 200.032 174.496 199.824C174.869 199.616 175.289 199.512 175.757 199.512C176.312 199.512 176.797 199.647 177.213 199.915C177.638 200.184 177.967 200.565 178.201 201.059C178.435 201.545 178.552 202.13 178.552 202.814C178.552 203.49 178.435 204.08 178.201 204.582C177.967 205.076 177.642 205.458 177.226 205.726C176.81 205.995 176.32 206.129 175.757 206.129C175.306 206.129 174.899 206.034 174.535 205.843C174.18 205.644 173.907 205.38 173.716 205.05V208.339H172.091ZM175.302 204.894C175.787 204.894 176.177 204.721 176.472 204.374C176.767 204.019 176.914 203.499 176.914 202.814C176.914 202.121 176.767 201.605 176.472 201.267C176.177 200.921 175.787 200.747 175.302 200.747C174.817 200.747 174.427 200.921 174.132 201.267C173.837 201.605 173.69 202.121 173.69 202.814C173.69 203.499 173.837 204.019 174.132 204.374C174.427 204.721 174.817 204.894 175.302 204.894ZM183.124 206.129C181.443 206.129 180.602 205.297 180.602 203.633V200.864H179.38V199.642H180.602V197.744H182.227V199.642H184.151V200.864H182.227V203.542C182.227 203.958 182.318 204.27 182.5 204.478C182.682 204.686 182.977 204.79 183.384 204.79C183.506 204.79 183.631 204.777 183.761 204.751C183.891 204.717 184.026 204.682 184.164 204.647L184.411 205.843C184.255 205.93 184.056 205.999 183.813 206.051C183.579 206.103 183.35 206.129 183.124 206.129ZM186.265 208.339L187.435 205.739L184.796 199.642H186.525L188.306 204.088L190.126 199.642H191.764L187.942 208.339H186.265Z" fill="#FFC19D"/>
</g>
<mask id="mask1_5_1248" style="mask-type:luminance" maskUnits="userSpaceOnUse" x="204" y="168" width="35" height="62">
<path d="M204.539 168.065H238.024V229.205H204.539V168.065Z" fill="white"/>
</mask>
<g mask="url(#mask1_5_1248)">
<path d="M205.758 168.206L204.917 229.184L233.054 225.338L237.362 168.206H205.758Z" fill="#B47753"/>
</g>
<path d="M205.758 168.206L197.3 181.559L138.796 186.148L137.354 168.206H205.758Z" fill="#B47753"/>
<path d="M137.354 168.206H205.758L196.112 179.48H128.304L137.354 168.206Z" fill="#E6A27A"/>
<path d="M205.758 168.206L210.728 181.559L236.173 183.98L237.362 168.206H205.758Z" fill="#9C6646"/>
<path d="M205.758 168.206H237.362L243 179.48H211.296L205.758 168.206Z" fill="#E6A27A"/>
<path d="M59.9282 215.247L56.4637 223.593L51.6451 221.615L53.5975 211.808L59.9282 215.247Z" fill="#FCA388"/>
<path d="M100.612 213.49L99.9104 224.245L94.83 224.041L93.6835 212.29L100.612 213.49Z" fill="#FCA388"/>
<path d="M56.3682 178.765C60.2937 166.689 61.2865 149.596 62.5203 144.927C63.7498 140.253 67.3306 128.194 69.823 121.265L104.887 120.007C104.887 120.007 115.862 173.481 103.736 211.183C103.2 212.857 103.188 214.697 101.647 215.271C101.659 215.499 101.647 215.773 101.609 216.106C102.017 218.856 98.9135 218.86 96.9944 218.831C95.8603 218.88 94.3815 219.682 93.4219 218.752C93.0065 217.962 92.8653 217.019 92.6202 216.097C91.4945 215.466 90.6055 214.216 89.5878 212.105C85.5418 203.702 85.6913 185.968 87.7974 178.371C89.8993 170.773 90.9835 153.218 86.5803 146.675C82.177 140.133 76.8599 178.528 74.3384 184.884C72.0454 190.675 71.8834 213.563 62.0176 214.556C62.0384 214.901 61.8639 215.362 61.4444 216.039C60.5803 218.901 57.469 217.526 55.5623 216.641C54.4033 216.185 52.5506 216.309 52.0189 214.972C51.9566 213.788 52.426 212.558 52.5465 211.287C52.156 210.793 51.8445 210.186 51.6201 209.413C49.3479 201.6 53.6141 187.231 56.3682 178.765Z" fill="#263238"/>
<path d="M86.7797 143.633C86.8212 143.633 86.8586 143.62 86.8918 143.591C88.3084 142.403 88.9232 140.509 89.4216 138.984C90.5224 135.607 91.6606 132.118 92.2464 128.541C92.3045 128.184 92.3585 127.822 92.4125 127.461C92.5953 126.206 92.7905 124.91 93.2184 123.71C93.2516 123.619 93.2018 123.515 93.1104 123.486C93.019 123.452 92.9193 123.498 92.8861 123.594C92.4458 124.827 92.2505 126.14 92.0636 127.411C92.0096 127.768 91.9556 128.13 91.8974 128.483C91.3159 132.03 90.1818 135.511 89.0852 138.876C88.6033 140.355 88.001 142.195 86.6634 143.321C86.5886 143.383 86.5803 143.495 86.6426 143.57C86.68 143.612 86.7298 143.633 86.7797 143.633Z" fill="#2B4054"/>
<path d="M55.1468 79.1999C55.2922 76.9692 54.5237 73.9367 55.3712 71.8847C55.8821 70.6551 56.4512 69.737 57.0951 68.8522C58.1668 67.3817 58.6653 65.5706 58.5033 63.7636C58.3994 62.6212 58.3911 61.4581 58.6196 60.4819C58.8771 59.3853 59.197 58.2429 59.9489 57.4453C61.0123 56.3154 62.6697 56.1617 63.8827 55.2271C65.806 53.7566 66.1466 50.8072 67.6379 48.8341C68.9797 47.052 71.1148 46.242 73.1752 45.7227C74.7995 45.3115 76.4984 44.7631 77.9233 43.7869C79.1778 42.9312 79.1612 41.8096 80.3243 40.8293C81.1343 40.148 82.7544 39.1261 83.7555 38.9392C85.9987 38.5197 86.2728 39.8074 87.2906 39.716C88.8774 39.5789 88.9522 38.4075 91.2369 39.1677C93.0854 39.7825 94.1862 40.8542 95.528 42.6114C96.9943 44.5222 99.3746 45.7393 101.028 47.5422C101.996 48.5973 102.839 49.7604 103.678 50.9235C104.717 52.3567 105.772 53.823 106.316 55.5096C107.317 58.6334 106.158 61.4166 105.431 64.4199C104.638 67.6808 104.43 71.1619 105.469 74.3937C106.382 77.2475 111.168 79.3453 111.762 82.278C112.235 84.6001 112.763 89.0864 111.733 91.2174C110.416 93.9549 103.819 95.4213 100.799 96.2272C97.4222 97.1244 94.2319 95.0391 90.8547 95.2302C87.4775 95.4213 83.3442 92.2352 79.9712 92.4262C76.7726 92.6049 75.0155 99.6833 71.8335 99.4258C69.5197 99.5587 63.7498 102.707 54.5944 93.3734C51.753 90.478 54.0294 86.5026 53.6057 84.6541C52.8414 81.2893 55.0181 81.1896 55.1468 79.1999Z" fill="#4D3932"/>
<path d="M63.8288 83.1955C63.8745 83.1789 63.9119 83.1332 63.916 83.0792C63.9949 81.7748 64.564 80.512 65.1165 79.2949C65.8227 77.733 66.5538 76.1129 66.2339 74.4181C66.1716 74.1023 66.0761 73.7908 65.9806 73.4917C65.9016 73.2258 65.8144 72.9517 65.7562 72.6817C65.5527 71.7304 65.6732 70.7293 65.8185 69.8736C65.9473 69.0885 66.1384 68.1787 66.5497 67.3479C67.206 66.0311 68.3733 65.0175 69.5405 64.1161C69.7067 63.9873 69.8729 63.8586 70.0432 63.7298C71.0651 62.9488 72.1202 62.1471 72.9219 61.1169C73.9936 59.7461 74.3966 58.1302 74.0019 56.8009C73.9812 56.7344 73.9106 56.6929 73.8399 56.7137C73.7735 56.7344 73.7361 56.8051 73.7527 56.8715C74.1224 58.126 73.7402 59.6505 72.7184 60.9591C71.9374 61.9602 70.8947 62.7536 69.8853 63.5262C69.7192 63.655 69.5488 63.7796 69.3827 63.9126C68.1905 64.8306 66.9983 65.8733 66.3212 67.2316C65.8933 68.0956 65.6981 69.0303 65.5652 69.832C65.4156 70.7085 65.291 71.7429 65.5028 72.7357C65.5652 73.0181 65.6524 73.2965 65.7355 73.5665C65.8269 73.8614 65.9224 74.1605 65.9764 74.4637C66.2879 76.0838 65.6025 77.5917 64.8797 79.1869C64.3189 80.4289 63.7374 81.7125 63.6585 83.0625C63.6543 83.1373 63.7083 83.1955 63.7789 83.1996C63.7955 83.1996 63.8122 83.1996 63.8288 83.1955Z" fill="#382924"/>
<path d="M102.091 53.0878C102.096 53.2332 102.091 53.3785 102.083 53.5239C102.075 53.5946 102.012 53.6486 101.942 53.6444C101.871 53.6361 101.817 53.5779 101.821 53.5073C101.896 52.4564 101.601 51.3098 100.995 50.2838C100.467 49.4032 99.6987 48.5599 98.7017 47.7914C98.4815 47.6169 97.929 47.2472 97.5801 47.5172C97.5261 47.5629 97.443 47.5505 97.4015 47.4923C97.3558 47.4383 97.3641 47.3552 97.4223 47.3137C97.8958 46.9481 98.5272 47.3303 98.8637 47.5879C99.8814 48.3771 100.675 49.2412 101.215 50.155C101.776 51.1021 102.075 52.1074 102.091 53.0878Z" fill="#382924"/>
<path d="M78.4301 52.3016C78.4717 52.2974 78.5049 52.2808 78.5257 52.2517C79.4146 51.0221 80.6234 50.0335 81.7907 49.078C82.9538 48.1268 84.1543 47.1464 85.0558 45.921L85.1181 45.8338C85.2884 45.6053 85.4421 45.3893 85.6622 45.2439C85.7204 45.2065 85.737 45.1234 85.6955 45.0653C85.6581 45.0071 85.575 44.9905 85.5169 45.0279C85.2635 45.2024 85.0848 45.4433 84.9104 45.6801L84.8481 45.7673C83.9633 46.9678 82.7752 47.9398 81.6287 48.8786C80.4448 49.8424 79.2277 50.8435 78.318 52.098C78.2764 52.1562 78.2889 52.2351 78.347 52.2766C78.372 52.2974 78.401 52.3057 78.4301 52.3016Z" fill="#382924"/>
<path d="M81.9569 63.4929C81.9569 63.4929 85.0766 74.0856 80.3452 78.2479L86.8337 83.1662L92.047 76.956C92.047 76.956 90.4394 73.8987 90.0946 71.2235C89.8371 69.2337 91.8933 64.1367 91.8933 64.1367L81.9569 63.4929Z" fill="#EE9075"/>
<path d="M91.5857 39.0172C92.429 37.6879 93.2889 36.3171 93.6337 34.7801C93.9826 33.2389 93.725 31.4693 92.5868 30.3768C91.7062 29.5294 90.4434 29.2054 89.2304 29.0725C86.4472 28.7651 83.3732 29.4089 81.5372 31.515C80.8518 32.3043 80.3533 33.3553 80.5651 34.3771C80.885 35.9183 82.5632 36.7034 83.61 37.8748C84.5198 38.8967 85.1719 40.4171 86.5303 40.6082C86.9665 40.6663 87.4068 40.5708 87.8471 40.5542C88.4287 40.5375 89.6209 41.2811 90.0321 41.169C90.6635 40.9986 91.2368 39.5697 91.5857 39.0172Z" fill="#4D3932"/>
<path d="M78.2682 58.9481C78.127 58.1962 78.3679 57.2491 79.0408 56.9251C79.7678 56.5762 80.0877 56.5554 81.0348 57.4651C81.0348 57.4651 81.0431 57.4361 81.0555 57.3862C83.818 55.7371 86.6718 54.5075 89.3511 52.1854C90.4104 51.2715 94.0161 47.5744 94.0867 46.8184C94.1157 46.8142 95.4035 48.1145 95.5572 48.2806C98.843 51.7907 99.2709 54.5739 99.1421 59.4092C99.0715 62.0179 98.5896 64.6391 97.5428 67.065C96.7079 68.9925 95.3121 70.6333 93.501 71.6303C90.5308 73.2628 86.3187 72.8059 81.5249 64.0409C81.5249 64.0409 79.639 66.3464 78.2682 58.9481Z" fill="#FCA388"/>
<path d="M89.3509 52.1854C90.4102 51.2715 94.0159 47.5745 94.0865 46.8184C94.099 46.8143 94.315 47.0262 94.5808 47.292C94.585 47.292 94.585 47.2962 94.5891 47.3003C94.6847 47.3959 94.7844 47.4914 94.8841 47.5911C94.8633 47.6202 94.8467 47.6451 94.8259 47.6742C96.2591 49.9672 97.5468 52.6216 97.4679 54.3954C96.7575 53.4898 97.6714 53.0869 94.7844 48.9785C94.6307 48.7584 94.4811 48.5465 94.3399 48.343C94.3358 48.343 94.3316 48.3471 94.3316 48.3513C93.4883 49.5975 92.5371 50.7772 91.4279 51.7991C90.7882 52.3848 90.0987 52.9207 89.3634 53.3776C88.7569 53.7556 88.1214 54.0755 87.4899 54.3995C86.6134 54.8482 85.737 55.2968 84.8605 55.7413C83.6184 56.3727 82.5757 56.9002 81.2008 57.299C83.9175 55.6914 86.7215 54.466 89.3509 52.1854Z" fill="#EE9075"/>
<path d="M94.452 46.4744C94.452 46.4744 94.3856 46.4911 94.3399 46.5035C94.3233 46.5077 94.3067 46.516 94.2983 46.5201C94.29 46.5243 94.2817 46.5326 94.2651 46.5409C94.2526 46.5534 94.2402 46.57 94.236 46.5741C94.2319 46.5824 94.2153 46.6032 94.2028 46.6198C94.182 46.6489 94.153 46.6904 94.1488 46.6988C94.0906 46.7943 94.0325 46.894 93.9785 46.9895C93.8788 47.1682 93.7168 47.2928 93.534 47.3634C92.8361 48.2108 91.8807 49.4446 90.6179 51.1643C87.6436 55.2062 86.9707 54.4751 86.3351 55.4346C89.2928 54.5872 93.4385 49.0167 94.693 46.7818C94.5891 46.6988 94.5102 46.5908 94.452 46.4744Z" fill="#4D3932"/>
<path d="M94.2985 46.5193C94.2902 46.5234 94.2818 46.5317 94.2652 46.5401C94.2528 46.5525 94.2403 46.5691 94.2362 46.5733C94.232 46.5816 94.2154 46.6024 94.2029 46.619C94.1821 46.6481 94.1531 46.6896 94.1489 46.6979C94.0908 46.7934 94.0326 46.8931 93.9786 46.9887C93.9329 47.0676 93.8748 47.1341 93.8124 47.1922C94.0991 47.6118 94.4148 48.0646 94.7554 48.5506C97.6424 52.6589 96.7327 53.0618 97.4389 53.9716C97.5261 52.0026 95.931 48.9494 94.3234 46.5068C94.3109 46.511 94.3026 46.5193 94.2985 46.5193Z" fill="#4D3932"/>
<path d="M79.4686 60.4065C79.5641 60.124 79.6846 59.8499 79.8217 59.5798C79.8591 59.5092 79.9505 59.3306 80.1125 59.26C80.0418 59.206 79.9671 59.1561 79.8965 59.1104C79.7012 58.9775 79.452 58.8155 79.1986 58.8114C79.1363 58.8114 79.0864 58.7574 79.0864 58.695C79.0864 58.6327 79.1404 58.5829 79.2027 58.5829C79.5226 58.5912 79.8009 58.7698 80.0211 58.9194C80.2246 59.0523 80.4739 59.2184 80.6109 59.4677C80.6857 59.6131 80.7231 59.7668 80.7522 59.908L81.0305 61.1542C81.043 61.2165 81.0014 61.2788 80.9391 61.2913C80.8768 61.3038 80.8186 61.2664 80.802 61.2041L80.5279 59.9537C80.5029 59.8249 80.4739 59.692 80.4116 59.5798C80.3825 59.53 80.3492 59.4843 80.316 59.4428C80.2952 59.4594 80.2703 59.4718 80.2412 59.476C80.1748 59.4802 80.1083 59.5508 80.0335 59.6962C79.9006 59.9496 79.7885 60.2196 79.6971 60.4896C79.6804 60.5311 79.6472 60.5602 79.6098 60.5685C79.5891 60.5727 79.5641 60.5727 79.5434 60.5643C79.4811 60.5394 79.4478 60.473 79.4686 60.4065Z" fill="#E9866A"/>
<path d="M96.5749 59.8493C96.5541 60.5305 96.1803 61.0747 95.7358 61.0664C95.2955 61.0539 94.9507 60.4931 94.9714 59.8119C94.9922 59.1265 95.3661 58.5823 95.8064 58.5948C96.2509 58.6031 96.5915 59.168 96.5749 59.8493Z" fill="#4A2C28"/>
<path d="M89.5255 59.5045C89.5047 60.1858 89.1308 60.73 88.6864 60.7217C88.246 60.7092 87.9012 60.1484 87.922 59.4672C87.9428 58.7859 88.3166 58.2417 88.7611 58.25C89.2015 58.2625 89.5462 58.8233 89.5255 59.5045Z" fill="#4A2C28"/>
<path d="M96.3505 55.7083C95.9642 55.5505 95.5654 55.3885 95.15 55.4134C94.7346 55.4383 94.3026 55.7083 94.2403 56.1196C94.5975 56.4187 95.1168 56.4062 95.5862 56.427C96.6538 56.4768 97.5676 56.8341 98.5355 57.237C99.2459 56.4062 96.9238 55.9493 96.3505 55.7083Z" fill="#4A2C28"/>
<path d="M88.4663 55.2099C88.7945 55.1393 89.1392 55.0687 89.4674 55.1476C89.7914 55.2265 90.0988 55.509 90.0905 55.8413C89.7582 56.0324 89.3469 55.9452 88.9689 55.8953C88.1132 55.779 87.3322 55.9327 86.5056 56.1113C86.057 55.3429 87.9761 55.3179 88.4663 55.2099Z" fill="#4A2C28"/>
<path d="M90.1153 65.4372L94.0284 65.8194C94.1115 65.8277 94.153 65.9482 94.099 66.0313C93.5673 66.8496 91.3698 69.8197 89.999 65.6242C89.9699 65.5328 90.0322 65.4289 90.1153 65.4372Z" fill="white"/>
<path d="M93.2351 63.4554C93.4718 63.3931 93.6505 63.281 93.7668 63.1231C94.1448 62.6205 93.8249 61.8645 93.5134 61.1334C93.4137 60.8883 93.314 60.6598 93.2517 60.4604C93.2143 60.3358 93.0897 60.261 92.9609 60.3026C92.8363 60.3441 92.7698 60.4729 92.8072 60.5975C92.8737 60.8177 92.9775 61.0627 93.0855 61.3161C93.3181 61.8686 93.6089 62.5582 93.3971 62.8407C93.2932 62.9777 92.9983 63.119 92.1841 63.0234C92.0553 63.0068 91.939 63.0982 91.9224 63.227C91.9058 63.3557 91.9972 63.4721 92.1259 63.4887C92.587 63.5427 92.9567 63.5302 93.2351 63.4554Z" fill="#E9866A"/>
<path d="M87.2907 62.8078C87.4153 62.9449 87.5399 63.0903 87.6022 63.2648C87.7434 63.6802 87.4984 64.1496 87.1286 64.3905C86.7631 64.6315 86.3103 64.6896 85.87 64.7104C85.6124 64.7228 85.3466 64.727 85.1015 64.6439C84.8066 64.5484 84.5656 64.3407 84.3496 64.1205C84.0713 63.838 83.8137 63.5182 83.66 63.1443C83.5064 62.7746 83.4565 62.3467 83.5936 61.9687C83.6434 61.8192 83.7224 61.678 83.847 61.5824C83.955 61.4993 84.0879 61.4495 84.2208 61.4163C85.4587 61.1047 86.5055 61.948 87.2907 62.8078Z" fill="#E68476"/>
<path d="M97.3473 63.9371C97.3889 63.7544 97.4927 63.5965 97.6007 63.447C97.9621 62.9526 98.3983 62.4542 98.9093 62.1177C98.7639 63.1313 98.5479 64.1365 98.2488 65.1169C98.1449 65.0919 98.0411 65.0546 97.9414 65.0006C97.5509 64.8053 97.2518 64.365 97.3473 63.9371Z" fill="#E68476"/>
<path d="M63.4548 100.281C63.9367 95.4707 63.8702 87.8273 67.4053 82.8716C67.7874 82.1903 68.2028 81.5257 68.6099 80.8652C70.4169 77.9491 72.9301 76.4993 76.3364 76.1794C77.2378 76.0922 78.6502 75.7391 79.5558 75.7474C80.2204 75.7516 81.2963 75.7682 81.558 76.4744C82.2891 78.4434 84.7815 80.1714 86.8045 80.1756C89.1972 80.1798 90.2149 79.2659 91.403 77.0144C92.1964 75.5065 92.2047 75.0039 93.9702 75.2614C96.8198 75.681 99.4825 76.5907 101.954 78.0446C102.71 78.4932 103.404 78.9876 104.031 79.5483C107.712 82.1114 110.532 86.336 113.32 93.1361C114.125 95.1134 114.753 96.8581 115.226 98.4034C115.226 98.4034 106.752 111.252 106.657 110.604C107.039 116.59 106.935 122.588 105.074 124.088C103.499 125.359 100.986 125.641 99.0796 125.629C96.2424 125.616 93.4675 126.364 90.6511 126.701C86.6799 127.17 82.6671 126.821 78.6793 126.576C76.5607 126.451 74.2469 126.559 72.1949 126.028C70.1635 125.924 68.1779 125.425 66.5412 124.241C60.4432 119.821 62.8276 106.483 63.4548 100.281Z" fill="#579540"/>
<path d="M76.6191 98.9221L76.6482 102.598L63.3969 100.829L63.7126 96.8742L76.6191 98.9221Z" fill="#094A28"/>
<path d="M86.5596 82.7632C86.8088 82.7508 87.0664 82.7342 87.3281 82.7134C88.3998 82.622 89.1974 82.4725 89.9202 82.2274C90.6887 81.9615 91.4198 81.5627 92.1592 81.1432C92.9277 80.707 93.6048 80.2916 94.0908 79.6519C94.4771 79.1409 94.7014 78.5428 94.9174 77.9612L95.6859 75.8842C95.7192 75.8011 95.6776 75.7097 95.5945 75.6765C95.5156 75.6474 95.4242 75.6848 95.3951 75.7679L94.6267 77.8449C94.419 78.4057 94.2029 78.9831 93.8457 79.4525C93.3929 80.0465 92.7449 80.4412 92.0055 80.8607C91.2536 81.2886 90.5682 81.6624 89.8205 81.92C89.1226 82.1609 88.3458 82.3063 87.3031 82.3935C85.5834 82.5389 84.2541 82.4185 83.1117 82.0197C81.6661 81.517 80.5487 80.5284 80.0419 79.3113C79.8758 78.9166 79.7719 78.4846 79.6681 78.0692L79.2817 76.4782C79.261 76.391 79.1737 76.337 79.0907 76.3619C79.0076 76.3827 78.9577 76.4699 78.9785 76.5572L79.369 78.144C79.4728 78.576 79.5767 79.0163 79.7553 79.4359C80.2953 80.7361 81.4834 81.7912 83.012 82.3229C84.0173 82.676 85.1597 82.8172 86.5596 82.7632Z" fill="#00421F"/>
<path d="M56.4845 220.426C55.9403 220.189 55.3795 220.019 54.7897 219.965C54.2372 219.915 53.6722 219.965 53.1114 219.961C52.8497 219.961 52.5673 219.994 52.3222 219.923C52.0355 219.84 51.8445 219.716 51.508 219.89C51.2131 220.044 50.9347 220.331 50.6855 220.65C50.3366 221.095 50.025 221.622 49.8298 222.212C49.5764 222.989 49.5473 223.807 49.377 224.605C48.8993 226.881 47.4578 228.601 46.7059 230.736C46.1452 232.336 45.5885 234.724 46.4318 235.837C46.7101 236.203 47.0757 236.398 47.4495 236.564C48.3676 236.967 49.3396 237.2 50.3241 237.366C50.8226 237.453 51.3335 237.52 51.8362 237.59C52.21 237.64 52.5963 237.744 52.9951 237.458C53.4313 237.15 53.8135 236.527 54.1125 235.962C55.1178 234.068 55.6163 231.825 56.0525 229.656C56.2394 228.722 56.6465 227.899 56.9788 227.019C57.3278 226.092 57.6435 225.153 57.9342 224.202C58.2458 223.155 58.4452 222.025 57.9218 221.344C57.7141 221.078 57.4565 220.92 57.1907 220.779C56.958 220.65 56.7254 220.534 56.4845 220.426Z" fill="#466988"/>
<path d="M49.2067 231.713L49.1112 231.356C49.215 231.265 49.3022 231.09 49.3853 230.92C50.0583 229.491 50.5028 227.946 50.8475 226.625C51.4291 224.402 51.8819 222.138 52.2101 219.891C52.2474 219.903 52.2807 219.912 52.3222 219.924C52.3721 219.941 52.4302 219.949 52.4801 219.953C52.1519 222.205 51.6991 224.469 51.1175 226.691C50.7645 228.045 50.3075 229.628 49.6096 231.103C49.5058 231.319 49.3812 231.564 49.2067 231.713Z" fill="#1F2845"/>
<path d="M56.2727 224.146L55.2508 227.145C54.9143 228.129 54.5654 229.143 54.2996 230.161C54.2705 230.281 54.2372 230.402 54.2082 230.526C54.1209 230.867 54.0337 231.22 53.9215 231.565C53.8717 231.718 53.8135 231.876 53.7595 232.034C53.61 232.454 53.4688 232.852 53.4272 233.251L53.1406 233.289C53.1904 232.807 53.3524 232.35 53.5103 231.909C53.5643 231.76 53.6141 231.61 53.664 231.461C53.7678 231.137 53.8551 230.796 53.9382 230.468C53.9672 230.343 54.0005 230.219 54.0337 230.094C54.3037 229.051 54.6568 228.025 54.9974 227.028L56.0193 224.029C56.2769 223.277 56.5967 222.339 57.1118 221.67C57.2863 221.445 57.4732 221.259 57.656 221.084C57.7391 221.146 57.818 221.221 57.8886 221.308C57.8554 221.342 57.8222 221.375 57.7889 221.408C57.6061 221.587 57.4275 221.761 57.2738 221.961C56.8169 222.555 56.5261 223.402 56.2727 224.146Z" fill="#1F2845"/>
<path d="M49.9502 228.598C49.8671 228.627 49.7674 228.644 49.7342 228.544C49.7176 228.494 49.7259 228.424 49.7384 228.366C49.7591 228.253 49.7882 228.125 49.8588 228.062C49.8921 228.033 49.9294 228.021 49.9627 228.008C50.0042 227.996 50.0458 227.983 50.079 228.004C50.1205 228.025 50.1413 228.087 50.1413 228.154C50.1455 228.224 50.133 228.295 50.1205 228.366C50.1081 228.424 50.0956 228.486 50.0624 228.532C50.0333 228.582 49.9502 228.598 49.9502 228.598Z" fill="#1F2845"/>
<path d="M50.4862 226.616C50.4031 226.641 50.3034 226.657 50.2701 226.562C50.2535 226.512 50.2618 226.441 50.2743 226.379C50.2909 226.267 50.3241 226.142 50.3948 226.076C50.428 226.047 50.4654 226.034 50.4986 226.026C50.5402 226.013 50.5817 226.001 50.6149 226.018C50.6565 226.043 50.6772 226.105 50.6772 226.171C50.6814 226.238 50.6689 226.308 50.6565 226.383C50.644 226.441 50.6315 226.504 50.5983 226.549C50.5692 226.599 50.4862 226.616 50.4862 226.616Z" fill="#1F2845"/>
<path d="M51.1798 223.468C51.1009 223.493 51.0012 223.509 50.968 223.414C50.9514 223.364 50.9597 223.298 50.968 223.231C50.9888 223.119 51.0178 222.994 51.0884 222.932C51.1217 222.899 51.1591 222.891 51.1923 222.878C51.2338 222.866 51.2754 222.853 51.3086 222.874C51.3502 222.895 51.3709 222.957 51.3751 223.023C51.3751 223.094 51.3626 223.165 51.3502 223.235C51.3377 223.293 51.3252 223.356 51.292 223.406C51.2629 223.451 51.1798 223.468 51.1798 223.468Z" fill="#1F2845"/>
<path d="M50.8641 225.121C50.781 225.146 50.6813 225.167 50.6523 225.067C50.6315 225.017 50.6398 224.951 50.6523 224.884C50.6689 224.772 50.7021 224.647 50.7727 224.585C50.806 224.552 50.8392 224.539 50.8766 224.531C50.9181 224.519 50.9555 224.506 50.9929 224.527C51.0344 224.548 51.051 224.61 51.0552 224.677C51.0594 224.747 51.0469 224.818 51.0344 224.888C51.022 224.947 51.0095 225.009 50.9763 225.059C50.9472 225.104 50.8641 225.121 50.8641 225.121Z" fill="#1F2845"/>
<path d="M51.5495 221.869C51.4664 221.898 51.3667 221.914 51.3335 221.815C51.3169 221.765 51.3252 221.698 51.3377 221.632C51.3543 221.524 51.3875 221.395 51.4581 221.333C51.4872 221.304 51.5246 221.291 51.562 221.279C51.5994 221.266 51.6409 221.254 51.6783 221.275C51.7157 221.295 51.7365 221.358 51.7406 221.428C51.7406 221.495 51.7281 221.565 51.7157 221.636C51.7074 221.694 51.6949 221.761 51.6617 221.806C51.6284 221.852 51.5495 221.869 51.5495 221.869Z" fill="#1F2845"/>
<path d="M54.6609 230.281C54.7149 230.347 54.7897 230.418 54.8645 230.351C54.9102 230.318 54.9351 230.256 54.96 230.197C55.0016 230.089 55.0431 229.969 55.0182 229.878C55.0057 229.832 54.9808 229.803 54.9559 229.774C54.9268 229.74 54.8977 229.707 54.8603 229.707C54.8146 229.703 54.7648 229.745 54.7274 229.799C54.69 229.853 54.6651 229.923 54.636 229.99C54.6152 230.044 54.5945 230.106 54.5945 230.164C54.5986 230.222 54.6609 230.281 54.6609 230.281Z" fill="#1F2845"/>
<path d="M55.2425 228.312C55.2965 228.378 55.3713 228.445 55.4502 228.383C55.4917 228.349 55.5166 228.287 55.5457 228.229C55.5873 228.125 55.6246 228 55.5997 227.909C55.5873 227.863 55.5623 227.834 55.5374 227.805C55.5125 227.772 55.4834 227.739 55.446 227.735C55.3962 227.735 55.3463 227.776 55.3089 227.83C55.2716 227.888 55.2466 227.955 55.2217 228.021C55.1968 228.075 55.176 228.137 55.1802 228.191C55.1802 228.25 55.2425 228.312 55.2425 228.312Z" fill="#1F2845"/>
<path d="M56.2976 225.271C56.3516 225.337 56.4264 225.408 56.5053 225.341C56.5468 225.308 56.5759 225.246 56.5967 225.188C56.6424 225.084 56.6798 224.959 56.6548 224.868C56.6424 224.822 56.6175 224.793 56.5925 224.764C56.5676 224.735 56.5385 224.702 56.497 224.698C56.4554 224.693 56.4014 224.735 56.3641 224.789C56.3267 224.847 56.3017 224.914 56.2768 224.98C56.2561 225.034 56.2311 225.096 56.2353 225.15C56.2353 225.208 56.2976 225.271 56.2976 225.271Z" fill="#1F2845"/>
<path d="M55.7035 226.841C55.7575 226.907 55.8323 226.978 55.9112 226.912C55.9527 226.878 55.9777 226.816 56.0067 226.758C56.0483 226.654 56.0857 226.529 56.0607 226.438C56.0483 226.392 56.0234 226.363 55.9984 226.334C55.9693 226.301 55.9444 226.272 55.9029 226.268C55.8572 226.264 55.8073 226.305 55.77 226.363C55.7326 226.417 55.7076 226.484 55.6827 226.55C55.662 226.608 55.637 226.666 55.637 226.725C55.6412 226.779 55.7035 226.841 55.7035 226.841Z" fill="#1F2845"/>
<path d="M56.8211 223.717C56.8751 223.788 56.954 223.855 57.0288 223.792C57.0703 223.759 57.0994 223.697 57.1243 223.639C57.1658 223.531 57.2032 223.41 57.1783 223.315C57.1658 223.269 57.1451 223.24 57.1201 223.215C57.0911 223.182 57.062 223.148 57.0246 223.144C56.9789 223.14 56.9291 223.186 56.8917 223.24C56.8501 223.294 56.8252 223.36 56.8003 223.431C56.7795 223.485 56.7546 223.547 56.7587 223.601C56.7587 223.659 56.8211 223.717 56.8211 223.717Z" fill="#1F2845"/>
<path d="M54.7937 230.076C54.7023 229.79 54.5943 229.524 54.4697 229.266C54.316 229.059 54.1457 228.855 53.9505 228.726L52.8206 227.908L51.699 227.094C51.5162 226.948 51.3418 226.799 51.1714 226.629C50.9762 226.504 50.756 226.363 50.511 226.433C50.7311 226.5 50.8807 226.695 51.0219 226.907C51.1922 227.081 51.3791 227.239 51.5619 227.38L52.6918 228.203L53.8134 229.013C54.0003 229.142 54.154 229.325 54.2994 229.528C54.4697 229.69 54.6276 229.889 54.7937 230.076Z" fill="#F3E1D2"/>
<path d="M55.9113 226.653C55.7909 226.375 55.6496 226.126 55.5084 225.872C55.3381 225.669 55.1636 225.47 54.985 225.278C54.6319 224.892 54.2497 224.551 53.8634 224.227C53.4605 223.966 53.1157 223.538 52.6546 223.355C52.4303 223.255 52.2101 223.176 51.9816 223.093C51.7407 223.068 51.4873 223.044 51.2339 223.139C51.4707 223.181 51.6826 223.28 51.8861 223.409C52.1104 223.488 52.3347 223.571 52.5466 223.667C52.9786 223.833 53.3109 224.252 53.7263 224.518C54.1085 224.838 54.4824 225.17 54.8313 225.553C55.0058 225.744 55.1802 225.935 55.3464 226.142C55.5375 226.3 55.7203 226.483 55.9113 226.653Z" fill="#F3E1D2"/>
<path d="M49.9128 228.337C50.1537 228.267 50.3905 228.205 50.6189 228.18C50.8516 228.101 51.0842 228.047 51.321 228.005C51.7821 227.926 52.2515 227.885 52.7126 227.847C53.1737 227.818 53.6347 227.81 54.0834 227.843C54.3077 227.86 54.532 227.885 54.7522 227.922C54.989 227.905 55.2174 227.914 55.45 227.914C55.2507 227.785 55.0388 227.694 54.8269 227.602C54.6026 227.561 54.3742 227.54 54.1457 227.523C53.6887 227.486 53.2235 227.498 52.7541 227.527C52.2847 227.561 51.8194 227.602 51.3459 227.685C51.105 227.727 50.864 227.785 50.6231 227.864C50.3822 227.997 50.1412 228.142 49.9128 228.337Z" fill="#F3E1D2"/>
<path d="M54.7855 230.082C54.5903 229.99 54.395 229.903 54.2081 229.795C54.0046 229.737 53.8093 229.671 53.6099 229.592C53.2195 229.442 52.829 229.259 52.4385 229.089C52.0439 228.915 51.6451 228.761 51.2463 228.62L50.6357 228.424C50.4155 228.416 50.1995 228.404 49.9752 228.416L50.5484 228.744L51.1508 228.935C51.5496 229.072 51.9442 229.23 52.3347 229.401C52.721 229.571 53.1115 229.754 53.5102 229.907C53.7096 229.986 53.9132 230.053 54.1209 230.115C54.341 230.119 54.5612 230.123 54.7855 230.082Z" fill="#F3E1D2"/>
<path d="M56.4846 225.092C56.3475 224.822 56.1938 224.573 56.0443 224.32C55.8656 224.116 55.687 223.908 55.4959 223.721C55.1221 223.323 54.6818 223.069 54.258 222.783C53.8302 222.517 53.394 222.276 52.9537 222.043L52.289 221.707C52.044 221.653 51.8072 221.59 51.5621 221.553L52.1769 222.018L52.8415 222.351C53.2777 222.583 53.7139 222.824 54.1376 223.086C54.553 223.368 54.9808 223.613 55.3464 224C55.5292 224.187 55.712 224.382 55.8864 224.594C56.0858 224.756 56.2811 224.934 56.4846 225.092Z" fill="#F3E1D2"/>
<path d="M55.4169 228.033C55.3006 227.775 55.1552 227.555 54.9973 227.343C54.8146 227.19 54.6235 227.048 54.4407 226.907C54.0668 226.629 53.693 226.355 53.3025 226.11C52.9203 225.848 52.4925 225.673 52.1228 225.433C51.94 225.308 51.7697 225.129 51.5744 224.996C51.3626 224.909 51.1424 224.839 50.9139 224.818C51.1009 224.963 51.2836 225.113 51.4456 225.295C51.6284 225.42 51.7987 225.599 51.9981 225.727C52.3928 225.989 52.7999 226.151 53.1779 226.409C53.5642 226.654 53.9339 226.928 54.3078 227.202C54.4947 227.343 54.6775 227.48 54.8519 227.634C55.0472 227.742 55.2341 227.883 55.4169 228.033Z" fill="#F3E1D2"/>
<path d="M55.8904 226.609C55.7242 226.405 55.5373 226.235 55.3462 226.081C55.1343 225.99 54.9142 225.907 54.694 225.84C54.4697 225.778 54.2454 225.724 54.0169 225.687L53.6597 225.653L53.29 225.691L51.8693 225.894C51.6325 225.928 51.3916 225.961 51.1506 226.006C50.9056 226.123 50.6605 226.235 50.4195 226.393C50.6563 226.405 50.8889 226.405 51.1216 226.434C51.3542 226.389 51.591 226.355 51.8277 226.322L53.2484 226.119L53.589 226.085L53.9172 226.114C54.1415 226.152 54.3575 226.202 54.5735 226.264C54.7896 226.326 55.0014 226.405 55.205 226.501L55.8904 226.609Z" fill="#F3E1D2"/>
<path d="M56.4804 225.122C56.281 224.96 56.0733 224.827 55.8614 224.702C55.6329 224.64 55.4003 224.582 55.1677 224.536C54.7024 224.44 54.2289 224.374 53.747 224.332C53.2693 224.295 52.7874 224.287 52.2973 224.307C52.0522 224.316 51.8071 224.332 51.562 224.361L51.1757 224.507C51.1051 224.532 51.0137 224.611 50.968 224.694C50.9223 224.773 50.8891 224.86 50.8226 224.889C50.8849 224.906 50.9555 224.827 51.0137 224.781C51.0677 224.727 51.1092 224.727 51.1591 224.731L51.508 224.785C51.7531 224.764 51.994 224.748 52.235 224.735C52.7168 224.719 53.1945 224.727 53.6681 224.764C54.1375 224.802 54.6027 224.868 55.0638 224.964C55.2923 225.009 55.5208 225.063 55.7451 225.126C55.986 225.126 56.2311 225.134 56.4804 225.122Z" fill="#F3E1D2"/>
<path d="M56.9871 223.482C56.7504 223.407 56.5343 223.303 56.3266 223.178L55.6288 222.979C55.1552 222.859 54.665 222.796 54.1707 222.784C53.6764 222.767 53.1779 222.792 52.6794 222.834L51.9275 222.9C51.67 222.996 51.4124 223.079 51.1549 223.187C51.3917 223.249 51.6368 223.278 51.8777 223.328L52.6213 223.257C53.1197 223.22 53.6099 223.195 54.0959 223.212C54.582 223.228 55.0555 223.286 55.5125 223.407L56.2062 223.606C56.4637 223.606 56.7254 223.586 56.9871 223.482Z" fill="#F3E1D2"/>
<path d="M46.0288 233.617C46.2406 233.202 46.465 232.807 46.7391 232.479C47.0008 232.168 47.2958 231.931 47.5907 231.715C48.3717 231.142 49.1734 230.68 49.9834 230.344C50.2036 230.253 50.4279 230.17 50.6397 230.153C50.8225 230.136 50.9928 230.165 51.1631 230.199C51.6949 230.315 52.21 230.502 52.696 230.755C53.1737 231.004 53.6389 231.333 53.9339 231.914C54.0917 232.234 54.1956 232.62 54.2703 233.023C54.3617 233.513 54.4157 234.024 54.4365 234.552C54.4448 234.797 54.4448 235.05 54.4365 235.3C54.3368 235.528 54.2288 235.748 54.1125 235.964C53.8134 236.529 53.4312 237.152 52.9951 237.46C52.5963 237.746 52.21 237.643 51.8361 237.593C51.3335 237.522 50.8225 237.456 50.324 237.368C49.3395 237.202 48.3675 236.97 47.4495 236.567C47.0756 236.401 46.7101 236.205 46.4317 235.84C46.0329 235.312 45.9499 234.498 46.0288 233.617Z" fill="#F8F0E9"/>
<path d="M49.3812 234.273C50.2577 234.501 51.1383 234.717 52.019 234.921C52.3887 235.008 52.7667 235.095 53.1613 235.041C53.3898 235.012 53.6224 234.937 53.8509 234.863C54.15 234.767 54.4449 234.667 54.7399 234.576C54.5571 235.054 54.3494 235.519 54.1126 235.963C53.8135 236.528 53.4313 237.152 52.9952 237.459C52.5964 237.746 52.2101 237.642 51.8362 237.592C51.3336 237.521 50.8226 237.455 50.3241 237.368C49.3396 237.201 48.3676 236.969 47.4496 236.566C47.0757 236.4 46.7102 236.204 46.4318 235.839C45.9334 235.183 45.9251 234.073 46.1203 232.948C47.1006 233.658 48.2471 233.982 49.3812 234.273Z" fill="#1F2845"/>
<path d="M46.6353 235.776C46.6478 235.781 46.6561 235.781 46.6686 235.776C46.7267 235.764 46.7807 235.681 46.7849 235.594C46.8223 235.037 46.9427 234.451 47.138 233.907C47.1671 233.824 47.1504 233.733 47.1006 233.708C47.0424 233.683 46.9801 233.729 46.951 233.816C46.7392 234.402 46.6063 235.037 46.5689 235.644C46.5647 235.714 46.5938 235.768 46.6353 235.776Z" fill="#466988"/>
<path d="M47.2294 235.984C47.2751 235.996 47.3291 235.955 47.3623 235.888C47.3956 235.805 47.3873 235.709 47.3416 235.676C47.3416 235.676 47.3457 235.643 47.3665 235.564L47.7403 234.218C47.7653 234.131 47.7403 234.048 47.6863 234.031C47.6282 234.019 47.5659 234.073 47.541 234.16L47.1671 235.51C47.0799 235.822 47.1546 235.934 47.2086 235.971C47.2169 235.979 47.2253 235.984 47.2294 235.984Z" fill="#466988"/>
<path d="M47.9147 236.13H47.9189C47.977 236.142 48.0393 236.076 48.0601 235.989C48.1681 235.532 48.2969 235.071 48.4464 234.626C48.4755 234.539 48.4589 234.452 48.4049 234.427C48.3509 234.402 48.2844 234.456 48.2553 234.539C48.1016 235.004 47.9646 235.478 47.8524 235.951C47.8358 236.039 47.8607 236.117 47.9147 236.13Z" fill="#466988"/>
<path d="M52.8082 237.28C52.858 237.297 52.9162 237.247 52.9453 237.168C52.9744 237.077 53.0284 236.989 53.0824 236.898C53.1031 236.865 53.1239 236.832 53.1447 236.794C53.3274 236.47 53.4479 236.092 53.5268 235.801C53.5642 235.681 53.5891 235.581 53.6265 235.498C53.6888 235.477 53.7345 235.394 53.7345 235.307C53.7345 235.245 53.7013 235.17 53.6639 235.17C53.6016 235.158 53.5351 235.212 53.5019 235.274C53.423 235.415 53.3773 235.573 53.3358 235.714C53.2568 236.005 53.1488 236.346 52.991 236.624L52.9328 236.724C52.8705 236.832 52.804 236.94 52.7542 237.077C52.7251 237.164 52.7417 237.251 52.7957 237.276C52.7999 237.28 52.804 237.28 52.8082 237.28Z" fill="#466988"/>
<path d="M52.0729 237.305L52.1269 237.33L52.2141 237.28C52.3512 237.118 52.4177 236.894 52.4759 236.699C52.5839 236.325 52.7085 235.972 52.8414 235.631C52.8746 235.548 52.858 235.457 52.8123 235.427C52.7542 235.398 52.6919 235.44 52.6586 235.523C52.5174 235.876 52.3928 236.246 52.2806 236.616C52.2391 236.773 52.1934 236.923 52.1269 237.018C52.0937 237.035 52.0605 237.072 52.0438 237.118C52.0189 237.205 52.0189 237.284 52.0729 237.305Z" fill="#466988"/>
<path d="M51.5454 237.172C51.5495 237.176 51.5537 237.176 51.5578 237.176C51.616 237.18 51.6783 237.109 51.6949 237.018C51.7863 236.507 51.9525 235.996 52.1726 235.535C52.2142 235.456 52.2059 235.36 52.1602 235.319C52.1145 235.282 52.0439 235.315 52.0065 235.394C51.7655 235.896 51.5869 236.453 51.4831 237.005C51.4664 237.089 51.4955 237.159 51.5454 237.172Z" fill="#466988"/>
<path d="M50.8101 237.06C50.8683 237.072 50.9306 237.006 50.9514 236.923C51.0843 236.387 51.2338 235.855 51.3958 235.336C51.4208 235.249 51.4 235.166 51.346 235.145C51.2961 235.116 51.2255 235.178 51.2006 235.261C51.0344 235.793 50.8849 236.337 50.7478 236.877C50.727 236.964 50.752 237.043 50.8101 237.06Z" fill="#466988"/>
<path d="M50.104 236.956C50.1497 236.968 50.2037 236.931 50.2328 236.856C50.2826 236.74 50.3076 236.619 50.3325 236.516C50.4322 236.054 50.5485 235.606 50.6814 235.166C50.7063 235.078 50.6856 234.995 50.6316 234.974C50.5817 234.962 50.5111 235.012 50.4862 235.099C50.3491 235.552 50.2286 236.013 50.1289 236.47C50.1082 236.578 50.0874 236.665 50.0583 236.736C50.0209 236.815 50.0334 236.91 50.0791 236.943C50.0874 236.952 50.0957 236.952 50.104 236.956Z" fill="#466988"/>
<path d="M49.2773 236.877C49.3313 236.893 49.3937 236.835 49.4186 236.748L49.8963 235.036C49.9212 234.949 49.8963 234.862 49.8381 234.845C49.7841 234.833 49.7218 234.891 49.6969 234.978L49.2192 236.69C49.1943 236.777 49.2233 236.86 49.2732 236.877C49.2773 236.877 49.2773 236.877 49.2773 236.877Z" fill="#466988"/>
<path d="M48.5503 236.503C48.6043 236.516 48.6666 236.462 48.6916 236.375L48.9616 235.457C49.0197 235.261 49.0779 235.062 49.1651 234.896C49.2108 234.821 49.2067 234.721 49.1651 234.676C49.1194 234.634 49.053 234.659 49.0114 234.738C48.8951 234.946 48.8245 235.187 48.7663 235.394L48.4963 236.312C48.4673 236.4 48.4922 236.483 48.5462 236.503C48.5503 236.503 48.5503 236.503 48.5503 236.503Z" fill="#466988"/>
<path d="M102.627 231.909C99.632 231.393 96.6619 230.758 93.696 230.114C92.3127 229.815 91.8433 229.208 91.9762 227.842C92.1673 225.893 92.7322 224.037 93.6503 222.288C93.7749 222.051 93.9327 221.839 94.2443 221.843C94.5766 221.847 94.5808 222.142 94.6888 222.342C95.4531 223.729 96.3545 224.298 97.4927 224.012C98.2031 223.829 98.8137 223.43 99.3662 222.965C99.7359 222.658 100.122 222.375 100.484 222.064C100.695 221.889 100.891 221.739 101.082 221.623C101.323 221.469 100.234 221.033 100.65 220.564C100.887 220.298 101.356 220.323 101.684 220.402C102.025 220.485 103.454 221.532 103.836 221.748C104.102 221.897 104.384 222.072 104.692 222.263C105.444 222.736 106.416 223.26 107.209 223.933C108.106 224.585 108.775 225.063 109.622 225.482C110.192 225.765 110.781 226.014 111.363 226.288C113.806 227.46 114.96 230.234 113.382 232.511C112.721 233.458 111.621 233.425 110.586 233.279C109.257 233.084 107.94 232.789 106.611 232.557C105.286 232.328 103.956 232.125 102.627 231.909Z" fill="#466988"/>
<path d="M113.382 232.511C113.577 232.233 113.727 231.942 113.843 231.651C113.806 231.747 111.882 231.215 111.695 231.165C110.977 230.966 110.262 230.733 109.564 230.467C108.26 229.973 106.947 229.387 105.768 228.644C105.381 228.403 105.011 228.133 104.675 227.83C104.239 227.435 103.848 226.97 103.329 226.696C102.702 226.367 101.946 226.347 101.256 226.509C101.186 226.525 101.111 226.546 101.057 226.604C100.986 226.675 100.978 226.787 100.986 226.887C101.028 227.315 101.352 227.647 101.589 228.004C101.659 228.112 101.726 228.237 101.697 228.361C101.676 228.461 101.597 228.536 101.518 228.598C100.812 229.13 99.927 228.806 99.2623 228.382C98.876 228.133 98.4772 227.896 98.0909 227.651C97.9372 227.556 97.688 227.323 97.5135 227.294C95.9516 226.355 94.0117 225.616 92.3376 226.334C92.2878 226.355 92.2379 226.38 92.1881 226.405C92.0925 226.878 92.0219 227.356 91.9762 227.842C91.8433 229.209 92.3127 229.815 93.696 230.114C96.6619 230.758 99.632 231.394 102.627 231.909C103.956 232.125 105.286 232.328 106.611 232.557C107.94 232.79 109.257 233.084 110.586 233.28C111.621 233.425 112.721 233.458 113.382 232.511Z" fill="#F8F0E9"/>
<path d="M103.367 230.53C100.928 230.002 98.5312 229.288 96.0596 228.964C95.0626 228.831 94.0324 228.76 93.1144 228.345C92.8402 228.199 92.4124 227.838 92.0053 227.589C91.9928 227.672 91.9845 227.759 91.9762 227.842C91.8433 229.209 92.3127 229.815 93.696 230.114C96.6619 230.758 99.632 231.394 102.627 231.909C103.956 232.125 105.286 232.329 106.611 232.557C107.94 232.79 109.257 233.085 110.586 233.28C111.621 233.425 112.721 233.458 113.382 232.511C113.548 232.27 113.681 232.025 113.789 231.776C110.287 231.635 106.789 231.269 103.367 230.53Z" fill="#1F2845"/>
<path d="M113.075 227.602C112.626 227.07 112.044 226.617 111.363 226.289C110.993 226.115 110.62 225.948 110.25 225.782C110.03 225.923 109.834 226.115 109.702 226.339C109.585 226.526 109.411 226.837 109.544 227.045C109.652 227.22 110.113 227.477 110.296 227.581C110.599 227.747 110.964 227.739 111.313 227.73C111.903 227.714 112.493 227.693 113.075 227.602Z" fill="#F8F0E9"/>
<path d="M113.149 227.692C113.079 227.605 113.008 227.518 112.929 227.435C112.044 227.705 111.06 227.68 110.204 227.327C109.876 227.19 109.56 227.007 109.253 226.832L109.228 226.816C108.41 226.346 107.562 225.856 106.731 225.366C104.958 224.319 103.608 223.472 102.374 222.624C102.017 222.379 101.668 222.134 101.335 221.893C101.261 221.835 101.165 221.781 101.069 221.719C101.049 221.706 101.028 221.694 101.007 221.681C100.912 221.735 100.82 221.802 100.729 221.868C100.787 221.91 100.849 221.947 100.903 221.98C100.999 222.039 101.086 222.093 101.153 222.142C101.485 222.383 101.838 222.633 102.199 222.882C103.441 223.729 104.791 224.581 106.578 225.636C107.404 226.122 108.252 226.612 109.074 227.086L109.095 227.098C109.415 227.281 109.739 227.468 110.088 227.613C110.383 227.734 110.69 227.821 111.006 227.871C111.716 227.987 112.464 227.921 113.149 227.692Z" fill="#1F2845"/>
<path d="M108.455 227.281C108.435 227.405 108.393 227.559 108.268 227.592C108.202 227.609 108.135 227.584 108.073 227.559C107.961 227.513 107.841 227.447 107.816 227.331C107.803 227.277 107.811 227.223 107.82 227.169C107.832 227.106 107.845 227.04 107.886 226.99C107.936 226.936 108.015 226.911 108.094 226.919C108.165 226.928 108.235 226.957 108.306 226.986C108.364 227.011 108.422 227.044 108.455 227.098C108.489 227.148 108.455 227.281 108.455 227.281Z" fill="#1F2845"/>
<path d="M106.59 226.364C106.569 226.493 106.528 226.647 106.403 226.676C106.337 226.696 106.266 226.671 106.208 226.647C106.096 226.601 105.979 226.534 105.95 226.418C105.938 226.364 105.946 226.306 105.959 226.252C105.967 226.19 105.979 226.127 106.021 226.077C106.071 226.019 106.15 225.999 106.225 226.007C106.299 226.011 106.37 226.04 106.441 226.073C106.495 226.098 106.557 226.127 106.59 226.181C106.623 226.235 106.59 226.364 106.59 226.364Z" fill="#1F2845"/>
<path d="M103.624 224.622C103.599 224.751 103.558 224.9 103.433 224.933C103.367 224.95 103.3 224.929 103.238 224.9C103.126 224.859 103.009 224.788 102.98 224.672C102.968 224.622 102.98 224.564 102.989 224.51C103.001 224.447 103.009 224.381 103.051 224.331C103.101 224.277 103.184 224.256 103.259 224.261C103.333 224.269 103.404 224.298 103.471 224.327C103.529 224.356 103.587 224.385 103.624 224.439C103.653 224.493 103.624 224.622 103.624 224.622Z" fill="#1F2845"/>
<path d="M105.107 225.507C105.091 225.636 105.045 225.789 104.92 225.823C104.858 225.839 104.787 225.814 104.725 225.789C104.613 225.744 104.497 225.677 104.467 225.561C104.455 225.507 104.463 225.453 104.476 225.399C104.484 225.337 104.497 225.27 104.538 225.22C104.588 225.166 104.671 225.141 104.746 225.15C104.816 225.154 104.891 225.187 104.958 225.216C105.016 225.241 105.078 225.27 105.107 225.328C105.14 225.378 105.107 225.507 105.107 225.507Z" fill="#1F2845"/>
<path d="M102.104 223.816C102.087 223.945 102.042 224.094 101.917 224.132C101.855 224.148 101.784 224.123 101.722 224.098C101.61 224.053 101.493 223.986 101.464 223.87C101.452 223.816 101.46 223.762 101.473 223.704C101.481 223.645 101.493 223.579 101.535 223.529C101.585 223.471 101.668 223.45 101.743 223.459C101.813 223.463 101.888 223.492 101.954 223.525C102.013 223.55 102.075 223.579 102.104 223.637C102.137 223.687 102.104 223.816 102.104 223.816Z" fill="#1F2845"/>
<path d="M93.0233 229.694C92.9734 229.685 92.9319 229.648 92.9236 229.594L92.8239 228.888C92.8114 228.813 92.7948 228.701 92.853 228.601C92.8862 228.543 92.9568 228.522 93.015 228.556C93.069 228.589 93.0898 228.659 93.0565 228.718C93.0358 228.747 93.0482 228.809 93.0565 228.855L93.1562 229.565C93.1645 229.627 93.123 229.685 93.0565 229.694C93.0482 229.698 93.0316 229.698 93.0233 229.694Z" fill="#466988"/>
<path d="M93.8581 229.911C93.8166 229.907 93.7834 229.878 93.7668 229.836C93.7211 229.703 93.746 229.57 93.7626 229.454L93.7668 229.425C93.7958 229.263 93.8083 229.097 93.8083 228.935C93.8083 228.872 93.8623 228.818 93.9246 228.818C93.9911 228.818 94.0409 228.872 94.0409 228.939C94.0409 229.113 94.0285 229.292 93.9994 229.466L93.9952 229.491C93.9745 229.591 93.962 229.682 93.9869 229.761C94.0077 229.819 93.9745 229.886 93.9163 229.907C93.8955 229.915 93.8789 229.915 93.8581 229.911Z" fill="#466988"/>
<path d="M94.8135 230.218C94.7595 230.206 94.718 230.156 94.718 230.102C94.7222 229.782 94.7554 229.462 94.8219 229.151C94.8385 229.088 94.9008 229.051 94.9631 229.064C95.0254 229.076 95.0669 229.134 95.0545 229.201C94.988 229.496 94.9548 229.799 94.9506 230.102C94.9506 230.164 94.8966 230.218 94.8343 230.218C94.8302 230.218 94.8219 230.218 94.8135 230.218Z" fill="#466988"/>
<path d="M95.9476 230.426C95.8936 230.417 95.8521 230.372 95.8479 230.313C95.8355 229.964 95.8604 229.611 95.9144 229.267C95.9269 229.204 95.9892 229.163 96.0473 229.171C96.1138 229.184 96.1553 229.242 96.147 229.304C96.093 229.636 96.0722 229.973 96.0805 230.305C96.0847 230.372 96.0307 230.426 95.9684 230.426C95.9601 230.426 95.9559 230.426 95.9476 230.426Z" fill="#466988"/>
<path d="M97.0401 230.543C96.9986 230.535 96.9612 230.506 96.9487 230.46C96.9072 230.302 96.9238 230.153 96.9446 230.007L96.957 229.928C96.9736 229.779 96.9778 229.625 96.9695 229.476C96.9653 229.413 97.011 229.355 97.0775 229.351C97.1398 229.347 97.1938 229.397 97.1979 229.459C97.2104 229.625 97.2063 229.791 97.1855 229.957L97.1772 230.036C97.1564 230.165 97.1439 230.29 97.173 230.398C97.1896 230.46 97.1523 230.522 97.0899 230.539C97.0733 230.543 97.0567 230.543 97.0401 230.543Z" fill="#466988"/>
<path d="M98.0121 230.787C97.9748 230.779 97.9415 230.754 97.9249 230.717C97.8709 230.592 97.8958 230.463 97.9124 230.359C97.954 230.127 97.9914 229.89 98.0246 229.657C98.0329 229.591 98.0911 229.549 98.1534 229.558C98.2157 229.566 98.2614 229.624 98.2531 229.687C98.2198 229.923 98.1825 230.164 98.1409 230.401C98.1285 230.48 98.1118 230.563 98.1368 230.625C98.1617 230.688 98.1368 230.754 98.0786 230.779C98.0578 230.787 98.0329 230.787 98.0121 230.787Z" fill="#466988"/>
<path d="M99.038 231.044C99.0172 231.04 99.0006 231.028 98.984 231.015C98.8178 230.878 98.8677 230.641 98.8926 230.517C98.9341 230.309 98.959 230.097 98.9549 229.885C98.9549 229.819 99.0047 229.769 99.0712 229.769C99.1335 229.769 99.1875 229.819 99.1875 229.885C99.1875 230.11 99.1667 230.342 99.121 230.563C99.0961 230.679 99.0837 230.795 99.1335 230.841C99.1834 230.878 99.1875 230.953 99.146 231.003C99.121 231.032 99.0795 231.049 99.038 231.044Z" fill="#466988"/>
<path d="M100.077 231.161C100.072 231.161 100.068 231.161 100.064 231.161C100.002 231.14 99.9644 231.078 99.9811 231.016C100.048 230.741 100.081 230.463 100.072 230.177C100.072 230.114 100.122 230.06 100.189 230.06C100.251 230.056 100.305 230.11 100.305 230.172C100.313 230.476 100.28 230.779 100.205 231.074C100.193 231.132 100.135 231.169 100.077 231.161Z" fill="#466988"/>
<path d="M101.107 231.556C101.107 231.556 101.103 231.556 101.103 231.551C101.04 231.543 100.999 231.481 101.011 231.419C101.074 231.086 101.124 230.75 101.157 230.417C101.165 230.351 101.223 230.305 101.286 230.314C101.348 230.318 101.398 230.376 101.389 230.438C101.356 230.779 101.306 231.124 101.24 231.46C101.227 231.522 101.165 231.564 101.107 231.556Z" fill="#466988"/>
<path d="M102.229 231.626C102.229 231.626 102.229 231.626 102.229 231.622C102.166 231.609 102.125 231.551 102.133 231.489C102.183 231.227 102.2 230.961 102.195 230.695C102.191 230.629 102.241 230.579 102.308 230.575C102.37 230.575 102.424 230.625 102.428 230.691C102.432 230.97 102.411 231.252 102.362 231.53C102.353 231.593 102.295 231.634 102.229 231.626Z" fill="#466988"/>
<path d="M103.246 231.805C103.221 231.801 103.192 231.789 103.176 231.764C103.105 231.676 103.126 231.568 103.134 231.519L103.23 231.012C103.238 230.97 103.246 230.916 103.267 230.871C103.292 230.812 103.363 230.783 103.421 230.812C103.479 230.837 103.504 230.904 103.479 230.966C103.466 230.987 103.462 231.02 103.458 231.053L103.363 231.56C103.354 231.602 103.354 231.614 103.358 231.622C103.4 231.672 103.387 231.743 103.338 231.784C103.313 231.805 103.279 231.809 103.246 231.805Z" fill="#466988"/>
<path d="M104.463 232.087C104.405 232.078 104.36 232.024 104.368 231.962C104.401 231.675 104.438 231.389 104.488 231.106C104.497 231.044 104.559 231.002 104.621 231.011C104.684 231.023 104.725 231.085 104.717 231.144C104.667 231.426 104.63 231.709 104.596 231.987C104.592 232.049 104.534 232.099 104.468 232.087H104.463Z" fill="#466988"/>
<path d="M105.759 232.192C105.718 232.184 105.68 232.154 105.668 232.113C105.639 232.013 105.647 231.914 105.655 231.835L105.705 231.286C105.709 231.22 105.768 231.174 105.83 231.178C105.892 231.187 105.942 231.241 105.934 231.307L105.888 231.855C105.88 231.922 105.876 231.992 105.888 232.046C105.909 232.109 105.871 232.171 105.809 232.188C105.793 232.196 105.776 232.196 105.759 232.192Z" fill="#466988"/>
<path d="M106.927 232.483C106.881 232.475 106.839 232.441 106.831 232.392C106.81 232.309 106.819 232.23 106.827 232.159L106.893 231.519C106.902 231.453 106.96 231.407 107.022 231.415C107.089 231.42 107.13 231.478 107.126 231.54L107.059 232.18C107.051 232.238 107.047 232.296 107.055 232.342C107.072 232.404 107.03 232.471 106.972 232.483C106.951 232.483 106.939 232.487 106.927 232.483Z" fill="#466988"/>
<path d="M107.924 232.707H107.92C107.857 232.695 107.816 232.636 107.828 232.574C107.886 232.263 107.924 231.943 107.944 231.627C107.953 231.561 108.007 231.515 108.073 231.519C108.136 231.523 108.185 231.577 108.177 231.644C108.156 231.968 108.115 232.292 108.057 232.612C108.044 232.674 107.986 232.72 107.924 232.707Z" fill="#466988"/>
<path d="M108.9 232.714H108.896C108.833 232.701 108.792 232.639 108.804 232.576C108.858 232.302 108.9 232.028 108.925 231.75C108.933 231.687 108.991 231.642 109.053 231.646C109.116 231.65 109.161 231.708 109.157 231.775C109.128 232.057 109.087 232.344 109.033 232.622C109.02 232.684 108.962 232.722 108.9 232.714Z" fill="#466988"/>
<path d="M109.814 232.911H109.809C109.747 232.898 109.706 232.836 109.718 232.774C109.739 232.691 109.76 232.607 109.78 232.524C109.843 232.279 109.905 232.051 109.876 231.818C109.872 231.756 109.917 231.698 109.98 231.689C110.042 231.685 110.1 231.727 110.109 231.793C110.138 232.067 110.071 232.329 110.005 232.582C109.984 232.661 109.967 232.74 109.947 232.823C109.934 232.882 109.876 232.923 109.814 232.911Z" fill="#466988"/>
<path d="M110.786 233.026C110.719 233.018 110.678 232.96 110.686 232.897L110.835 231.913C110.844 231.851 110.906 231.805 110.968 231.817C111.031 231.826 111.076 231.888 111.064 231.95L110.919 232.931C110.906 232.997 110.848 233.039 110.786 233.03V233.026Z" fill="#466988"/>
<path d="M111.716 233.105C111.658 233.097 111.612 233.038 111.621 232.976C111.633 232.901 111.666 232.839 111.695 232.789C111.708 232.768 111.716 232.752 111.729 232.731C111.754 232.681 111.762 232.619 111.774 232.548C111.799 232.37 111.82 232.187 111.837 232.008C111.841 231.946 111.899 231.896 111.961 231.904C112.028 231.909 112.074 231.963 112.069 232.029C112.053 232.216 112.032 232.399 112.003 232.582C111.99 232.669 111.978 232.752 111.936 232.831C111.924 232.856 111.912 232.881 111.895 232.906C111.874 232.947 111.858 232.976 111.849 233.005C111.841 233.068 111.787 233.113 111.72 233.105H111.716Z" fill="#466988"/>
<path d="M112.672 233.018C112.655 233.013 112.634 233.005 112.618 232.993C112.568 232.951 112.559 232.876 112.601 232.831C112.672 232.743 112.742 232.656 112.784 232.565C112.825 232.473 112.842 232.361 112.859 232.253L112.883 232.066C112.892 232.004 112.95 231.958 113.012 231.967C113.075 231.983 113.12 232.037 113.112 232.1L113.087 232.287C113.07 232.403 113.05 232.536 112.996 232.66C112.942 232.781 112.859 232.885 112.78 232.976C112.755 233.009 112.709 233.022 112.672 233.018Z" fill="#466988"/>
<path d="M109.706 225.523C109.685 225.54 109.664 225.561 109.643 225.577L109.506 225.685C109.328 225.831 109.141 225.972 108.958 226.125C108.912 226.163 108.867 226.2 108.821 226.242L108.692 226.358C108.651 226.391 108.609 226.429 108.568 226.466C108.63 226.308 108.688 226.15 108.746 225.988C108.821 225.768 108.896 225.548 108.966 225.324L109.016 225.153C108.879 225.075 108.746 224.991 108.613 224.904C108.314 225.004 108.023 225.12 107.741 225.253C107.45 225.399 107.163 225.556 106.893 225.735L106.694 225.876L106.623 225.926C106.673 225.839 106.719 225.756 106.765 225.664C106.906 225.382 107.022 225.079 107.097 224.771C107.159 224.51 107.23 224.26 107.309 224.007C107.276 223.978 107.242 223.957 107.209 223.932C107.176 223.907 107.143 223.882 107.109 223.853C107.072 223.99 107.026 224.123 106.989 224.26L106.873 224.713C106.798 225.008 106.694 225.286 106.557 225.561C106.491 225.698 106.42 225.831 106.341 225.963C106.295 226.113 106.245 226.263 106.204 226.42C106.353 226.35 106.499 226.275 106.644 226.204C106.765 226.109 106.893 226.017 107.026 225.93C107.284 225.756 107.558 225.598 107.841 225.465C108.123 225.328 108.418 225.212 108.717 225.116C108.742 225.108 108.767 225.104 108.792 225.095L108.746 225.253C108.676 225.473 108.601 225.693 108.526 225.914C108.451 226.13 108.368 226.346 108.281 226.557C108.239 226.665 108.198 226.773 108.148 226.881C108.148 226.898 108.144 226.919 108.144 226.944C108.14 226.948 108.14 226.952 108.14 226.956C108.131 226.985 108.123 227.019 108.119 227.052C108.111 227.118 108.111 227.181 108.119 227.243C108.16 227.197 108.202 227.152 108.248 227.114C108.268 227.098 108.289 227.077 108.314 227.06C108.335 227.044 108.36 227.027 108.368 227.002C108.43 226.915 108.505 226.836 108.588 226.761C108.667 226.682 108.759 226.607 108.846 226.533L108.979 226.416C109.02 226.379 109.062 226.341 109.108 226.304C109.282 226.159 109.469 226.017 109.652 225.868L109.789 225.756C109.83 225.714 109.888 225.689 109.918 225.635C109.918 225.631 109.922 225.627 109.922 225.623C109.851 225.59 109.78 225.556 109.706 225.523Z" fill="#F8F0E9"/>
<path d="M106.79 223.946C106.873 223.896 106.96 223.847 107.043 223.801C106.976 223.747 106.91 223.697 106.844 223.647C106.785 223.68 106.723 223.714 106.669 223.747C106.42 223.896 106.179 224.075 105.959 224.258C105.739 224.436 105.514 224.615 105.298 224.806C105.228 224.868 105.161 224.935 105.095 224.997L105.169 224.765C105.253 224.499 105.331 224.225 105.39 223.95C105.423 223.817 105.452 223.689 105.502 223.568C105.552 223.452 105.622 223.336 105.693 223.223C105.747 223.14 105.801 223.061 105.855 222.974C105.788 222.933 105.722 222.891 105.655 222.854C105.606 222.933 105.552 223.012 105.498 223.099C105.423 223.215 105.348 223.34 105.29 223.481C105.232 223.618 105.199 223.763 105.165 223.901C105.107 224.166 105.032 224.428 104.949 224.694C104.908 224.827 104.866 224.96 104.816 225.089C104.804 225.23 104.791 225.371 104.791 225.521C104.912 225.429 105.028 225.346 105.149 225.267C105.244 225.172 105.344 225.076 105.452 224.981C105.66 224.794 105.884 224.619 106.104 224.436C106.324 224.258 106.549 224.092 106.79 223.946Z" fill="#F8F0E9"/>
<path d="M104.247 223.849L104.53 223.563C104.717 223.38 104.912 223.205 105.128 223.06C105.236 222.989 105.344 222.923 105.464 222.877C105.498 222.848 105.535 222.823 105.568 222.794C105.493 222.753 105.427 222.711 105.352 222.665C105.232 222.728 105.111 222.79 104.999 222.869C104.767 223.023 104.559 223.209 104.364 223.401L104.081 223.687C103.99 223.779 103.89 223.87 103.79 223.961C103.753 224.003 103.711 224.04 103.67 224.078L103.732 223.928C103.828 223.679 103.923 223.425 104.006 223.164C104.094 222.906 104.164 222.64 104.218 222.37C104.239 222.25 104.26 222.125 104.272 222.005C104.193 221.955 104.114 221.909 104.035 221.859C103.94 221.913 103.844 221.963 103.745 222.017C103.475 222.154 103.213 222.304 102.96 222.478C102.706 222.645 102.469 222.836 102.249 223.047C102.137 223.151 102.033 223.263 101.933 223.38C101.859 223.521 101.801 223.666 101.759 223.816C101.879 223.72 101.992 223.621 102.112 223.534C102.203 223.421 102.303 223.317 102.411 223.214C102.619 223.014 102.847 222.836 103.088 222.669C103.333 222.503 103.587 222.358 103.848 222.221C103.902 222.196 103.965 222.167 104.023 222.138C104.01 222.2 104.002 222.262 103.99 222.329C103.936 222.586 103.869 222.84 103.786 223.093C103.703 223.347 103.608 223.596 103.512 223.845L103.362 224.219C103.346 224.356 103.329 224.493 103.325 224.634C103.441 224.551 103.549 224.476 103.666 224.406L103.952 224.132C104.048 224.04 104.148 223.949 104.247 223.849Z" fill="#F8F0E9"/>
<path d="M61.0996 214.566C61.2492 214.557 61.3946 214.532 61.54 214.487C61.6397 214.454 61.6937 214.346 61.6604 214.25C61.6313 214.15 61.5233 214.092 61.4236 214.13C60.8213 214.321 60.165 214.038 59.5336 213.764C59.3965 213.706 59.2636 213.644 59.1306 213.594C58.3497 213.274 57.4981 213.112 56.6798 212.954C55.4169 212.709 54.2247 212.476 53.2527 211.741C53.1696 211.683 53.0533 211.699 52.991 211.783C52.9287 211.861 52.9453 211.982 53.0284 212.044C54.0669 212.825 55.3588 213.079 56.605 213.32C57.4067 213.477 58.2417 213.639 58.9894 213.943C59.1223 213.992 59.2511 214.051 59.384 214.109C59.9407 214.35 60.5139 214.599 61.0996 214.566Z" fill="#2B4054"/>
<path d="M94.8219 216.809C95.0379 216.796 95.2664 216.771 95.5073 216.73C95.7898 216.684 96.0723 216.622 96.3548 216.56C96.7702 216.464 97.2022 216.373 97.63 216.327C97.8377 216.306 98.0454 216.298 98.2573 216.29C98.7392 216.269 99.2335 216.248 99.707 216.09C99.8774 216.032 100.044 215.957 100.206 215.887C100.534 215.737 100.841 215.596 101.169 215.613C101.273 215.617 101.36 215.538 101.369 215.434C101.373 215.33 101.294 215.243 101.19 215.239C100.775 215.214 100.405 215.38 100.048 215.542C99.8898 215.613 99.7403 215.683 99.5866 215.733C99.1629 215.874 98.7142 215.895 98.2407 215.916C98.0247 215.924 97.8045 215.932 97.5885 215.953C97.1399 215.999 96.6995 216.094 96.2717 216.19C95.9975 216.252 95.7233 216.315 95.4409 216.36C94.6059 216.506 93.9413 216.46 93.4096 216.227C93.314 216.186 93.206 216.231 93.1645 216.327C93.1229 216.423 93.1645 216.531 93.26 216.572C93.7003 216.767 94.2154 216.846 94.8219 216.809Z" fill="#2B4054"/>
<path d="M74.6041 126.322C79.8797 126.322 85.2426 123.884 85.3007 123.855C85.3879 123.818 85.4253 123.71 85.3879 123.622C85.3464 123.535 85.2384 123.494 85.1512 123.535C85.093 123.564 79.2608 126.219 73.819 125.949C73.7152 125.944 73.6363 126.019 73.6321 126.119C73.6279 126.214 73.7027 126.297 73.8024 126.302C74.0683 126.314 74.3341 126.322 74.6041 126.322Z" fill="#094A28"/>
<path d="M73.8151 111.069C77.6284 105.453 76.3033 96.2101 76.2908 96.1187C76.2784 96.019 76.3407 95.9318 76.4404 95.9193C76.5359 95.9027 76.6273 95.9692 76.6398 96.0647C76.6522 96.1603 77.9608 105.258 74.2803 111.007C75.4684 111.385 80.6152 113.217 83.1574 115.589C83.228 115.659 83.7058 116.195 83.7058 116.299L83.6517 116.444C80.8104 113.404 74.0103 111.347 73.9563 111.347C73.8898 111.343 73.8317 111.31 73.8026 111.252C73.7735 111.194 73.7777 111.123 73.8151 111.069Z" fill="#00421F"/>
<path d="M132.623 86.3192C119.571 76.7982 110.586 91.6779 110.582 91.6862C110.582 91.6862 102.561 76.3039 88.9771 85.0481C88.9771 85.0481 73.7319 93.8338 89.5005 111.962L107.911 131.083C108.318 131.502 108.879 131.681 109.427 131.639V131.644C109.436 131.648 109.448 131.639 109.461 131.644C109.473 131.639 109.481 131.648 109.494 131.648V131.639C110.038 131.714 110.607 131.573 111.039 131.174L130.534 113.154C147.328 95.9731 132.623 86.3192 132.623 86.3192Z" fill="#E35D47"/>
<path d="M79.5267 119.676C80.1374 119.372 80.9723 119.343 81.6328 119.156C82.3681 118.949 83.0909 118.691 83.7887 118.384C84.794 117.939 85.7411 117.362 86.7547 116.934C87.544 116.602 88.3706 116.377 89.1931 116.145C89.6126 116.028 90.0281 115.912 90.4393 115.779C90.8339 115.655 91.2369 115.605 91.6481 115.567C91.7146 115.559 91.7769 115.555 91.8392 115.547C92.454 115.493 93.0189 115.277 93.5756 115.036C93.9037 114.89 94.2153 114.695 94.5476 114.575C95.2953 114.309 96.0514 114.076 96.8032 113.831C97.0774 113.744 97.3516 113.706 97.6382 113.744C97.8501 113.777 97.9705 113.927 97.9456 114.138C97.9165 114.396 97.7088 114.496 97.5219 114.587C97.2685 114.712 96.9985 114.795 96.7368 114.899C96.4543 115.007 96.176 115.119 95.906 115.264C95.341 115.563 94.7844 115.879 94.1862 116.116C93.9577 116.211 93.7459 116.348 93.559 116.515C93.4676 116.593 93.451 116.697 93.4966 116.805C93.534 116.901 93.6254 116.917 93.7168 116.905C94.3191 116.809 94.9215 116.718 95.5197 116.573C95.7814 116.51 96.0472 116.452 96.3214 116.431C96.7908 116.394 97.2643 116.407 97.7337 116.332C98.1034 116.274 98.4732 116.253 98.847 116.278C98.9342 116.286 99.0007 116.319 99.0381 116.394C99.2375 116.772 99.2749 117.088 98.7182 117.192C98.6933 117.196 98.6725 117.204 98.6518 117.204C98.415 117.192 98.1865 117.241 97.9539 117.283C97.5717 117.349 97.1896 117.403 96.8115 117.482C96.4792 117.557 96.1552 117.661 95.8229 117.736C95.3161 117.848 94.7969 117.902 94.3025 118.081C94.099 118.155 93.9079 118.251 93.721 118.359C93.9328 118.355 94.1322 118.284 94.3441 118.255C94.7221 118.197 95.0959 118.147 95.4781 118.106C96.3588 118.018 97.2353 117.877 98.1076 117.736C98.2073 117.719 98.3028 117.727 98.3984 117.744C98.5604 117.781 98.6435 117.869 98.6684 118.022C98.7099 118.309 98.6269 118.459 98.3485 118.567C98.0993 118.662 97.8251 118.679 97.5676 118.77C97.148 118.916 96.6994 118.932 96.2674 119.028C95.8229 119.123 95.3867 119.248 94.9298 119.294C94.4853 119.335 94.0408 119.364 93.6005 119.41C93.3928 119.435 93.1768 119.468 92.9566 119.559C93.1269 119.605 93.2765 119.572 93.4177 119.588C93.7833 119.622 94.153 119.597 94.5227 119.622C94.8093 119.642 95.1084 119.63 95.3992 119.576C95.6484 119.526 95.8977 119.497 96.1469 119.464C96.4294 119.426 96.5872 119.547 96.6163 119.813C96.6329 119.983 96.5083 120.062 96.3878 120.141C96.0638 120.34 95.6858 120.386 95.3203 120.453C95.0046 120.515 94.6847 120.536 94.3607 120.552C93.8996 120.577 93.4385 120.61 92.9774 120.656C91.4986 120.81 89.9657 120.826 88.4786 120.731C87.465 120.66 86.3642 121.35 85.4503 121.724C84.3994 122.16 83.3526 122.6 82.3057 123.04C81.2423 123.489 80.183 123.934 79.1196 124.382C79.1196 124.37 79.1196 124.353 79.1196 124.337C79.1238 123.589 79.2318 122.841 79.3024 122.093L79.4187 120.851C79.4312 120.71 79.4312 119.721 79.5267 119.676Z" fill="#FCA388"/>
<path d="M97.9872 118.474C98.2239 118.462 98.4815 118.396 98.7266 118.283C98.8553 118.221 98.8886 118.113 98.847 117.98C98.7972 117.839 98.7016 117.777 98.5646 117.789C98.3361 117.814 98.1118 117.86 97.8875 117.918C97.7379 117.959 97.6964 118.018 97.713 118.18C97.7379 118.404 97.7836 118.458 97.9872 118.474Z" fill="#E68476"/>
<path d="M99.0589 116.378C98.9343 116.353 98.7931 116.382 98.656 116.416C98.4898 116.461 98.4441 116.524 98.4608 116.69C98.4649 116.74 98.4691 116.785 98.4774 116.831C98.5106 117.001 98.5521 117.03 98.7308 117.018C98.9011 117.01 99.0672 116.985 99.2292 116.931C99.3996 116.877 99.4494 116.81 99.437 116.669C99.4203 116.49 99.3414 116.407 99.1752 116.391C99.142 116.387 99.1129 116.387 99.0589 116.378Z" fill="#E68476"/>
<path d="M97.8377 113.731C97.6342 113.723 97.4472 113.785 97.2645 113.868C97.1855 113.91 97.1481 113.981 97.1772 114.076C97.2769 114.429 97.2811 114.471 97.6425 114.35C97.7463 114.317 97.8419 114.263 97.9457 114.222C98.0662 114.168 98.1451 114.093 98.1077 113.943C98.0786 113.823 97.9789 113.744 97.8377 113.731Z" fill="#E68476"/>
<path d="M95.9352 119.925C95.9227 120.074 95.9975 120.166 96.1221 120.153C96.3174 120.132 96.5001 120.066 96.6788 119.995C96.7784 119.954 96.8075 119.804 96.7577 119.68C96.7203 119.58 96.6372 119.605 96.5583 119.617C96.4254 119.642 96.2883 119.655 96.1512 119.684C96.0183 119.713 95.931 119.796 95.9352 119.925Z" fill="#E68476"/>
<path d="M86.2645 120.797C86.385 120.947 86.5304 121.092 86.7173 121.192C86.9333 121.304 87.1909 121.35 87.4152 121.45C87.6354 121.549 87.8306 121.744 87.7641 121.94C87.6894 122.156 87.3612 122.235 87.0829 122.28C86.4515 122.384 85.8159 122.488 85.172 122.463C84.5282 122.438 77.8278 125.516 77.3791 125.155C77.1382 124.96 76.5068 121.412 76.3697 121.163C75.7923 120.12 79.9588 115.867 80.4988 114.811C80.7646 114.288 83.2487 116.569 84.0338 116.54C84.5323 116.523 85.3964 116.444 85.791 116.756C86.2022 117.08 85.9613 117.458 85.8201 117.827C85.4379 118.82 85.5293 119.913 86.2645 120.797Z" fill="#F3E1D2"/>
<path d="M83.8427 116.685C83.8925 116.593 83.9797 116.539 84.0337 116.564C84.0877 116.585 84.0877 116.676 84.0421 116.764C82.7418 118.861 83.5103 121.894 84.9767 122.924C84.985 122.936 85.0266 122.961 85.039 122.97C85.4046 123.206 85.928 123.177 86.2644 122.903C86.3517 122.828 86.4348 122.737 86.5137 122.646L86.7131 122.417C86.8792 122.222 87.0205 122.047 87.0329 121.848C87.0412 121.744 87.008 121.636 86.9457 121.553C86.9125 121.503 86.9208 121.437 86.9706 121.399C87.0163 121.366 87.0828 121.379 87.116 121.424C87.2116 121.553 87.2531 121.707 87.2448 121.861C87.224 122.151 87.0205 122.384 86.8751 122.554L86.6757 122.783C86.5885 122.882 86.5012 122.982 86.3974 123.069C86.1772 123.248 85.8864 123.339 85.5998 123.339C85.3755 123.339 85.1678 123.31 84.9767 123.198C84.9518 123.194 84.9061 123.157 84.8853 123.136C83.3276 122.068 82.4926 118.886 83.8427 116.685Z" fill="#CDB49F"/>
<path d="M85.2884 117.84C85.2842 117.844 85.28 117.844 85.2759 117.844C85.226 117.857 85.1845 117.84 85.1679 117.795C84.8273 117.678 84.4576 117.624 84.0671 117.67C84.0048 117.674 83.9674 117.612 83.9882 117.52C84.0048 117.437 84.0754 117.358 84.1377 117.354C84.5656 117.329 84.9643 117.408 85.3257 117.562C85.3714 117.583 85.4047 117.637 85.3922 117.711C85.3839 117.765 85.3341 117.819 85.2884 117.84Z" fill="#CDB49F"/>
<path d="M83.9092 118.255C84.1252 118.222 84.3246 118.267 84.5156 118.309C84.6652 118.342 84.8106 118.38 84.9601 118.388C84.9726 118.388 84.9809 118.388 84.985 118.388C85.0307 118.342 85.0931 118.338 85.1304 118.38C85.172 118.421 85.1678 118.5 85.1263 118.554C85.1014 118.591 85.0681 118.612 85.0391 118.625C84.9892 118.645 84.9394 118.645 84.9186 118.645C84.7524 118.641 84.5946 118.616 84.4409 118.587C84.2498 118.554 84.0712 118.525 83.8801 118.562C83.8219 118.575 83.7762 118.517 83.7804 118.429C83.7887 118.342 83.8469 118.263 83.9092 118.255Z" fill="#CDB49F"/>
<path d="M83.8884 119.21C84.1335 119.169 84.3869 119.16 84.6319 119.181C84.7441 119.185 84.8313 119.189 84.8853 119.135C84.9352 119.09 84.9975 119.102 85.0307 119.152C85.064 119.206 85.0556 119.281 85.01 119.326C84.9892 119.343 84.9684 119.36 84.9476 119.372C84.8355 119.447 84.7067 119.443 84.607 119.443C84.3702 119.439 84.1293 119.459 83.8925 119.509C83.8344 119.522 83.7845 119.468 83.7804 119.38C83.7804 119.297 83.8302 119.218 83.8884 119.21Z" fill="#CDB49F"/>
<path d="M83.9798 120.407C83.9383 120.457 83.8718 120.449 83.8303 120.387C83.7929 120.324 83.7971 120.225 83.8428 120.175C83.9757 120.017 84.1294 119.971 84.2706 119.926C84.4991 119.851 84.7317 119.789 84.9643 119.739C85.0183 119.726 85.0765 119.772 85.0848 119.834C85.0931 119.88 85.0765 119.93 85.0433 119.955C85.0308 119.963 85.0183 119.971 85.0017 119.975C84.7733 120.038 84.5448 120.108 84.3205 120.196C84.2 120.245 84.0712 120.295 83.984 120.403C83.9798 120.403 83.9798 120.403 83.9798 120.407Z" fill="#CDB49F"/>
<path d="M85.3258 120.539C85.3424 120.581 85.3299 120.631 85.3008 120.66C85.2925 120.672 85.2842 120.68 85.2718 120.685C84.9311 120.842 84.6113 121.063 84.3371 121.357C84.2956 121.403 84.225 121.391 84.1876 121.324C84.146 121.258 84.1502 121.166 84.1917 121.125C84.4867 120.83 84.8314 120.614 85.1887 120.473C85.2427 120.452 85.305 120.481 85.3258 120.539Z" fill="#CDB49F"/>
<path d="M85.5501 121.57C85.2926 121.777 85.0309 121.989 84.765 122.193C84.7235 122.23 84.6487 122.205 84.6113 122.139C84.5698 122.068 84.5781 121.985 84.6279 121.952C84.8938 121.769 85.1596 121.574 85.4213 121.383C85.467 121.35 85.5335 121.362 85.5667 121.416C85.5958 121.453 85.5958 121.503 85.575 121.541C85.5667 121.553 85.5584 121.561 85.5501 121.57Z" fill="#CDB49F"/>
<path d="M131.149 113.284C131.381 113.271 131.614 113.234 131.842 113.196C131.901 113.188 131.955 113.176 132.009 113.151C132.162 113.063 132.187 112.839 132.341 112.748C132.445 112.681 132.578 112.698 132.702 112.698C132.981 112.69 133.251 112.553 133.421 112.332C133.591 112.112 133.649 111.813 133.587 111.547C133.57 111.477 133.546 111.41 133.554 111.344C133.575 111.182 133.753 111.107 133.87 110.995C134.077 110.8 134.09 110.476 134.002 110.206C133.915 109.94 133.745 109.711 133.616 109.462C133.338 108.934 133.23 108.299 132.798 107.883C132.648 107.734 132.465 107.626 132.287 107.514C131.863 107.252 131.456 106.965 131.053 106.67C130.812 106.496 130.53 106.313 130.243 106.38C130.185 106.392 130.131 106.417 130.094 106.463C130.015 106.562 129.973 106.77 130.031 106.891C130.127 107.082 130.26 107.215 130.409 107.414C130.214 107.36 130.006 107.331 129.803 107.327C129.678 107.327 129.545 107.339 129.446 107.41C129.317 107.497 129.267 107.659 129.275 107.813C129.284 107.962 129.346 108.108 129.408 108.241C129.246 108.22 129.051 108.207 128.93 108.324C128.839 108.415 128.822 108.561 128.831 108.689C128.86 109.026 129.055 109.341 129.342 109.52C129.205 109.416 128.993 109.545 128.955 109.711C128.918 109.877 129.001 110.048 129.092 110.193C129.3 110.509 129.578 110.779 129.811 111.082C130.314 111.747 130.484 112.486 130.559 113.3C130.737 113.329 130.962 113.296 131.149 113.284Z" fill="#FCA388"/>
<path d="M131.311 112.918C131.423 112.59 131.527 112.253 131.523 111.896C131.523 111.717 131.493 111.535 131.423 111.369C131.356 111.202 131.248 111.057 131.132 110.924C131.012 110.795 130.883 110.679 130.758 110.554C130.634 110.434 130.509 110.309 130.376 110.193C130.239 110.081 130.089 109.989 129.94 109.902C129.786 109.815 129.637 109.728 129.483 109.645C129.624 109.744 129.774 109.836 129.919 109.935C130.064 110.031 130.21 110.126 130.339 110.239C130.459 110.363 130.588 110.48 130.708 110.608C130.829 110.733 130.958 110.853 131.07 110.982C131.186 111.107 131.294 111.244 131.361 111.398C131.423 111.555 131.456 111.726 131.464 111.896C131.477 112.237 131.39 112.582 131.311 112.918Z" fill="#E9866A"/>
<path d="M132.528 112.315C132.524 112.09 132.536 111.866 132.573 111.646C132.603 111.43 132.665 111.206 132.657 110.977C132.652 110.74 132.549 110.52 132.411 110.337C132.279 110.155 132.121 109.993 131.959 109.831C131.639 109.515 131.294 109.22 130.92 108.971C130.542 108.721 130.135 108.514 129.707 108.381C130.127 108.543 130.517 108.763 130.883 109.021C131.248 109.278 131.589 109.573 131.905 109.889C132.063 110.047 132.225 110.204 132.353 110.383C132.486 110.558 132.586 110.761 132.594 110.977C132.611 111.197 132.557 111.417 132.532 111.642C132.507 111.866 132.507 112.09 132.528 112.315Z" fill="#E9866A"/>
<path d="M133.487 111.093C133.566 110.677 133.604 110.254 133.591 109.826C133.583 109.718 133.558 109.606 133.5 109.51C133.45 109.415 133.379 109.332 133.313 109.248C133.18 109.082 133.035 108.929 132.873 108.787C132.553 108.505 132.196 108.268 131.818 108.073C131.631 107.977 131.435 107.89 131.24 107.811C131.045 107.732 130.846 107.657 130.642 107.595C131.037 107.753 131.423 107.927 131.793 108.127C132.158 108.335 132.511 108.563 132.819 108.845C132.977 108.983 133.126 109.132 133.255 109.294C133.321 109.377 133.388 109.456 133.438 109.548C133.492 109.631 133.517 109.73 133.529 109.834C133.546 110.038 133.541 110.254 133.533 110.461C133.529 110.669 133.512 110.881 133.487 111.093Z" fill="#E9866A"/>
<path d="M129.724 109.029C129.794 108.995 129.844 108.929 129.882 108.858C129.927 108.775 129.956 108.676 129.923 108.588C129.89 108.514 129.815 108.464 129.749 108.422C129.57 108.314 129.391 108.206 129.213 108.102C129.184 108.086 129.159 108.069 129.13 108.065C129.092 108.061 129.055 108.073 129.022 108.09C128.864 108.173 128.797 108.389 128.876 108.547C128.93 108.655 129.034 108.725 129.134 108.792C129.279 108.887 129.533 109.132 129.724 109.029Z" fill="#E68476"/>
<path d="M130.189 108.049C130.26 108.011 130.305 107.949 130.347 107.878C130.393 107.795 130.422 107.695 130.384 107.608C130.355 107.533 130.28 107.484 130.21 107.442C130.035 107.334 129.857 107.226 129.678 107.122C129.649 107.106 129.62 107.089 129.591 107.085C129.558 107.081 129.52 107.093 129.487 107.11C129.329 107.193 129.259 107.409 129.342 107.567C129.392 107.675 129.5 107.745 129.599 107.812C129.745 107.907 129.998 108.152 130.189 108.049Z" fill="#E68476"/>
<path d="M130.787 107.097C130.85 107.064 130.899 107.002 130.937 106.935C130.978 106.861 131.007 106.765 130.97 106.682C130.941 106.611 130.87 106.566 130.808 106.528C130.642 106.424 130.476 106.321 130.305 106.225C130.281 106.208 130.251 106.192 130.227 106.192C130.189 106.188 130.156 106.196 130.127 106.213C129.977 106.292 129.911 106.495 129.986 106.645C130.04 106.744 130.135 106.811 130.231 106.873C130.368 106.965 130.605 107.197 130.787 107.097Z" fill="#E68476"/>
<path d="M129.537 110.13C129.595 110.105 129.637 110.055 129.67 110.001C129.711 109.939 129.736 109.86 129.716 109.79C129.695 109.727 129.637 109.686 129.583 109.648C129.45 109.553 129.309 109.461 129.171 109.37C129.151 109.357 129.13 109.341 129.109 109.337C129.076 109.333 129.047 109.341 129.022 109.353C128.893 109.407 128.827 109.578 128.885 109.711C128.922 109.798 129.005 109.856 129.08 109.914C129.192 109.993 129.379 110.205 129.537 110.13Z" fill="#E68476"/>
</svg>
