<svg width="320" height="268" viewBox="0 0 320 268" fill="none" xmlns="http://www.w3.org/2000/svg">
<g clip-path="url(#clip0_10_5)">
<path d="M14.8693 254.549C19.308 262.781 28.7286 266.315 28.7286 266.315C28.7286 266.315 30.9525 256.502 26.5138 248.27C22.0751 240.039 12.6545 236.505 12.6545 236.505C12.6545 236.505 10.4306 246.317 14.8693 254.549Z" fill="#844031"/>
<path d="M17.9202 251.841C25.9339 256.662 29.0202 266.239 29.0202 266.239C29.0202 266.239 19.1138 267.998 11.1001 263.177C3.08634 258.356 0 248.779 0 248.779C0 248.779 9.90647 247.02 17.9202 251.841Z" fill="#F6D3C1"/>
<path d="M197.589 12.8242H147.589V13.5385H197.589V12.8242Z" fill="#F2F2F2"/>
<path d="M184.017 13.3599H183.303V19.9671H184.017V13.3599Z" fill="#F2F2F2"/>
<path d="M162.232 13.3599H161.517V19.9671H162.232V13.3599Z" fill="#F2F2F2"/>
<path d="M222.946 47.1099H172.946V47.8242H222.946V47.1099Z" fill="#F2F2F2"/>
<path d="M187.232 40.6814H186.517V47.2885H187.232V40.6814Z" fill="#F2F2F2"/>
<path d="M209.017 40.6814H208.303V47.2885H209.017V40.6814Z" fill="#F2F2F2"/>
<path d="M289.374 63.1814H239.374V63.8956H289.374V63.1814Z" fill="#F2F2F2"/>
<path d="M253.66 56.7528H252.946V63.3599H253.66V56.7528Z" fill="#F2F2F2"/>
<path d="M275.446 56.7528H274.732V63.3599H275.446V56.7528Z" fill="#F2F2F2"/>
<path d="M284.374 228.896H234.374V229.61H284.374V228.896Z" fill="#F2F2F2"/>
<path d="M248.66 222.467H247.946V229.074H248.66V222.467Z" fill="#F2F2F2"/>
<path d="M270.446 222.467H269.732V229.074H270.446V222.467Z" fill="#F2F2F2"/>
<path d="M199.017 114.253H149.017V114.967H199.017V114.253Z" fill="#F2F2F2"/>
<path d="M163.303 107.824H162.589V114.431H163.303V107.824Z" fill="#F2F2F2"/>
<path d="M185.089 107.824H184.374V114.431H185.089V107.824Z" fill="#F2F2F2"/>
<path d="M214.732 200.324H164.732V201.038H214.732V200.324Z" fill="#F2F2F2"/>
<path d="M179.017 193.896H178.303V200.503H179.017V193.896Z" fill="#F2F2F2"/>
<path d="M200.803 193.896H200.089V200.503H200.803V193.896Z" fill="#F2F2F2"/>
<path d="M294.732 174.253H244.732V174.967H294.732V174.253Z" fill="#F2F2F2"/>
<path d="M259.017 167.824H258.303V174.431H259.017V167.824Z" fill="#F2F2F2"/>
<path d="M280.803 167.824H280.089V174.431H280.803V167.824Z" fill="#F2F2F2"/>
<path d="M129.307 250.78H44.7407V250.172H128.699V220.665H51.85L48.1168 212.887L48.6654 212.624L52.2329 220.056H129.307V250.78Z" fill="#844031"/>
<path d="M55.9959 265.686C59.524 265.686 62.384 262.826 62.384 259.298C62.384 255.769 59.524 252.909 55.9959 252.909C52.4678 252.909 49.6078 255.769 49.6078 259.298C49.6078 262.826 52.4678 265.686 55.9959 265.686Z" fill="#F6D3C1"/>
<path d="M118.964 265.686C122.493 265.686 125.353 262.826 125.353 259.298C125.353 255.769 122.493 252.909 118.964 252.909C115.436 252.909 112.576 255.769 112.576 259.298C112.576 262.826 115.436 265.686 118.964 265.686Z" fill="#F6D3C1"/>
<path d="M193.188 127.581C195.372 127.581 197.143 125.81 197.143 123.626C197.143 121.442 195.372 119.672 193.188 119.672C191.004 119.672 189.234 121.442 189.234 123.626C189.234 125.81 191.004 127.581 193.188 127.581Z" fill="#F6D3C1"/>
<path d="M138.352 210.626H43.2988L22.7316 143.399H159.533L159.409 143.794L138.352 210.626ZM43.7489 210.018H137.906L158.704 144.007H23.5539L43.7489 210.018Z" fill="#844031"/>
<path d="M130.932 207.128H47.4436L29.3786 147.505H149.536L149.427 147.856L130.932 207.128Z" fill="#F6D3C1"/>
<path d="M161.237 137.393L160.649 137.237L164.664 122.105H188.017V122.714H165.132L161.237 137.393Z" fill="#844031"/>
<path d="M152.697 163.78H29.378V164.388H152.697V163.78Z" fill="#844031"/>
<path d="M145.635 186.194H36.2353V186.803H145.635V186.194Z" fill="#844031"/>
<path d="M91.4347 143.703H90.8263V210.322H91.4347V143.703Z" fill="#844031"/>
<path d="M118.674 143.684L114.306 210.301L114.913 210.341L119.281 143.724L118.674 143.684Z" fill="#844031"/>
<path d="M63.6002 143.683L62.993 143.723L67.3349 210.342L67.9421 210.302L63.6002 143.683Z" fill="#844031"/>
<path d="M320 266.071H0V266.786H320V266.071Z" fill="#844031"/>
<path d="M212.647 22.0986C212.647 22.0986 217.868 36.958 214.655 39.244C211.442 41.5301 225.498 60.1995 225.498 60.1995L242.365 55.6274L233.129 40.006C233.129 40.006 231.924 24.3846 231.924 22.0986C231.924 19.8125 212.647 22.0986 212.647 22.0986Z" fill="#F6D3C1"/>
<path opacity="0.1" d="M212.647 22.0986C212.647 22.0986 217.868 36.958 214.655 39.244C211.442 41.5301 225.498 60.1995 225.498 60.1995L242.365 55.6274L233.129 40.006C233.129 40.006 231.924 24.3846 231.924 22.0986C231.924 19.8125 212.647 22.0986 212.647 22.0986Z" fill="#B26A70"/>
<path d="M203.883 128.019C203.883 128.019 202.359 147.07 203.883 156.976C205.407 166.882 207.694 194.315 207.694 194.315C207.694 194.315 207.694 246.132 216.076 246.894C224.458 247.656 230.554 248.418 231.316 245.37C232.078 242.322 227.506 240.798 229.792 239.274C232.078 237.75 232.84 232.416 229.792 226.32C226.744 220.224 229.792 158.5 229.792 158.5L244.27 197.363C244.27 197.363 245.795 229.368 247.319 233.94C248.843 238.512 245.795 246.894 251.129 247.656C256.463 248.418 262.559 243.846 265.607 242.322C268.655 240.798 261.035 240.798 262.559 240.036C264.083 239.274 268.655 236.988 267.131 236.226C265.607 235.464 264.083 198.887 264.083 198.887C264.083 198.887 259.892 120.78 254.558 117.732C249.224 114.684 245.795 119.934 245.795 119.934L203.883 128.019Z" fill="#844031"/>
<path d="M217.6 243.846V249.942C217.6 249.942 210.742 266.514 217.6 266.514C224.458 266.514 229.792 268.231 229.792 265.945V245.37L217.6 243.846Z" fill="#F6D3C1"/>
<path d="M262.559 243.835V249.932C262.559 249.932 269.417 266.503 262.559 266.503C255.701 266.503 250.367 268.22 250.367 265.934V245.36L262.559 243.835Z" fill="#F6D3C1"/>
<path d="M223.315 33.1479C230.89 33.1479 237.031 27.0068 237.031 19.4315C237.031 11.8562 230.89 5.71515 223.315 5.71515C215.74 5.71515 209.599 11.8562 209.599 19.4315C209.599 27.0068 215.74 33.1479 223.315 33.1479Z" fill="#FEEAE0"/>
<path d="M219.124 44.9592C219.124 44.9592 222.934 56.3894 229.03 54.1034L235.126 51.8173L245.795 124.971C245.795 124.971 237.412 137.164 225.22 129.543C213.028 121.923 219.124 44.9592 219.124 44.9592Z" fill="#F6D3C1"/>
<path d="M229.792 42.6731L233.221 35.4339C233.221 35.4339 253.415 44.9592 256.463 48.0072C259.511 51.0553 259.511 55.6274 259.511 55.6274L254.177 74.6779C254.177 74.6779 255.701 116.589 255.701 118.113C255.701 119.637 261.035 128.019 257.225 124.971C253.415 121.923 252.653 118.875 249.605 123.447C246.557 128.019 239.698 133.353 239.698 133.353L229.792 42.6731Z" fill="#F6D3C1"/>
<path d="M256.463 97.5385L254.177 118.875C254.177 118.875 240.46 131.067 243.508 131.829C246.557 132.591 248.081 129.543 248.081 129.543C248.081 129.543 253.415 134.877 256.463 131.829C259.511 128.781 267.131 99.8246 267.131 99.8246L256.463 97.5385Z" fill="#FEEAE0"/>
<path d="M223.607 0.0463825C220.566 -0.062321 217.312 -0.116093 214.749 1.52253C213.569 2.34488 212.534 3.35769 211.687 4.5195C209.19 7.6761 207.033 11.6478 207.96 15.5643L209.037 15.1441C209.037 16.1896 208.805 17.2219 208.357 18.1665C208.509 17.7254 209.017 18.4385 208.881 18.8847L207.694 22.7778C209.645 22.0626 212.071 23.5106 212.368 25.5669C212.504 21.0451 212.973 15.8599 216.641 13.2122C218.491 11.8769 220.832 11.4693 223.085 11.1074C225.163 10.7734 227.341 10.455 229.331 11.1391C231.322 11.8232 233.017 13.8587 232.565 15.9144C233.483 15.5983 234.509 16.2379 234.963 17.0961C235.417 17.9542 235.44 18.9666 235.454 19.9371C236.432 20.6285 237.546 19.2556 237.944 18.126C238.88 15.4745 239.712 12.652 239.208 9.88567C238.704 7.11938 236.449 4.47577 233.638 4.46639C233.979 4.09151 234.161 3.59857 234.145 3.09184L231.828 2.89602C232.416 2.81271 232.957 2.52743 233.358 2.08904C232.428 3.11294 225.112 0.100172 223.607 0.0463825Z" fill="#844031"/>
<path d="M222.934 40.387C222.934 40.387 216.731 34.3082 214.498 34.6805C212.266 35.0529 209.218 40.387 209.218 40.387C209.218 40.387 190.929 46.4832 191.691 52.5794C192.453 58.6755 200.835 88.3943 200.835 88.3943C200.835 88.3943 207.694 124.209 201.597 128.019C195.501 131.829 230.554 141.736 231.316 137.164C232.078 132.591 233.602 86.8702 231.316 80.0121C229.03 73.1539 222.934 40.387 222.934 40.387Z" fill="#F6D3C1"/>
<path d="M249.605 52.5794H259.027C259.027 52.5794 265.607 81.5361 266.369 84.5842C267.131 87.6323 268.655 102.111 267.893 102.111C267.131 102.111 251.891 99.0626 251.891 101.349L249.605 52.5794Z" fill="#F6D3C1"/>
<path d="M249.286 124.286H213.214C209.694 108.093 209.4 92.4477 213.214 77.5H249.286C243.465 92.1788 243.101 107.717 249.286 124.286Z" fill="#F2F2F2"/>
<path d="M198.549 104.397L209.218 108.969C209.218 108.969 229.792 112.017 229.792 103.635C229.792 95.2525 209.218 99.8246 209.218 99.8246L202.359 97.6317L198.549 104.397Z" fill="#FEEAE0"/>
<path d="M200.835 48.0072L191.691 50.2933L184.833 90.6803C184.833 90.6803 182.547 101.349 186.357 102.111C190.167 102.873 200.835 108.969 200.835 108.969C200.835 108.969 202.359 97.5385 205.407 97.5385L197.787 91.4424L202.359 64.7717L200.835 48.0072Z" fill="#F6D3C1"/>
<path d="M71.5173 126.038H21.5173V126.753H71.5173V126.038Z" fill="#F2F2F2"/>
<path d="M35.803 119.61H35.0887V126.217H35.803V119.61Z" fill="#F2F2F2"/>
<path d="M57.5888 119.61H56.8745V126.217H57.5888V119.61Z" fill="#F2F2F2"/>
<path d="M89.0173 20.3242H39.0173V21.0385H89.0173V20.3242Z" fill="#F2F2F2"/>
<path d="M75.4459 20.8599H74.7316V27.4671H75.4459V20.8599Z" fill="#F2F2F2"/>
<path d="M53.6602 20.8599H52.9459V27.4671H53.6602V20.8599Z" fill="#F2F2F2"/>
<path d="M139.374 90.6814H89.3745V91.3956H139.374V90.6814Z" fill="#F2F2F2"/>
<path d="M125.803 91.2171H125.089V97.8242H125.803V91.2171Z" fill="#F2F2F2"/>
<path d="M104.017 91.2171H103.303V97.8242H104.017V91.2171Z" fill="#F2F2F2"/>
<path d="M54.3745 90.3242H4.37446V91.0385H54.3745V90.3242Z" fill="#F2F2F2"/>
<path d="M40.803 90.8599H40.0887V97.4671H40.803V90.8599Z" fill="#F2F2F2"/>
<path d="M19.0173 90.8599H18.303V97.4671H19.0173V90.8599Z" fill="#F2F2F2"/>
<path d="M114.374 54.6099H64.3745V55.3242H114.374V54.6099Z" fill="#F2F2F2"/>
<path d="M78.6602 48.1814H77.9459V54.7885H78.6602V48.1814Z" fill="#F2F2F2"/>
<path d="M100.446 48.1814H99.7316V54.7885H100.446V48.1814Z" fill="#F2F2F2"/>
</g>
<defs>
<clipPath id="clip0_10_5">
<rect width="320" height="267.133" fill="white"/>
</clipPath>
</defs>
</svg>
