<svg width="250" height="185" viewBox="0 0 250 185" fill="none" xmlns="http://www.w3.org/2000/svg">
<rect x="5.27954" y="176.866" width="238.902" height="7.9194" rx="3" fill="#EFFFEA"/>
<rect x="84.9735" y="0.5" width="79.5139" height="94.0328" rx="6.55882" fill="white" stroke="#589441"/>
<path d="M31.1686 70.8289H219.294V150.239C219.294 158.902 212.271 165.925 203.608 165.925H46.8549C38.1916 165.925 31.1686 158.902 31.1686 150.239V70.8289Z" fill="white" stroke="#589441"/>
<rect x="19.7985" y="50.1561" width="210.866" height="24.8077" rx="4.70588" fill="#EFFFEA" stroke="#589441"/>
<rect x="67.8472" y="92.002" width="11.549" height="17.8235" rx="5.77451" fill="#DDFFD0" fill-opacity="0.8" stroke="#589441"/>
<rect x="102.254" y="92.002" width="11.549" height="17.8235" rx="5.77451" fill="#DDFFD0" fill-opacity="0.8" stroke="#589441"/>
<rect x="136.661" y="92.002" width="11.549" height="17.8235" rx="5.77451" fill="#DDFFD0" fill-opacity="0.8" stroke="#589441"/>
<rect x="171.068" y="92.002" width="11.549" height="17.8235" rx="5.77451" fill="#DDFFD0" fill-opacity="0.8" stroke="#589441"/>
<rect x="84.3851" y="125.08" width="11.549" height="17.8235" rx="5.77451" fill="#DDFFD0" fill-opacity="0.8" stroke="#589441"/>
<rect x="109.483" y="125.08" width="11.549" height="17.8235" rx="5.77451" fill="#DDFFD0" fill-opacity="0.8" stroke="#589441"/>
<rect x="134.581" y="125.08" width="11.549" height="17.8235" rx="5.77451" fill="#DDFFD0" fill-opacity="0.8" stroke="#589441"/>
<rect x="49.7352" y="54.8229" width="12.7474" height="70.9095" rx="5.77451" transform="rotate(43.7427 49.7352 54.8229)" fill="#EFFFEA" stroke="#589441"/>
<rect x="0.0155159" y="-0.706937" width="12.7474" height="70.9095" rx="5.77451" transform="matrix(0.722452 -0.691421 -0.691421 -0.722452 239.584 114.366)" fill="#EFFFEA" stroke="#589441"/>
<path d="M114.331 25.0779C114.331 26.9886 112.782 28.5376 110.871 28.5376C108.961 28.5376 107.412 26.9886 107.412 25.0779C107.412 23.1671 108.961 21.6182 110.871 21.6182C112.782 21.6182 114.331 23.1671 114.331 25.0779Z" fill="#589441" stroke="#589441"/>
<path d="M143.369 25.0779C143.369 26.9886 141.82 28.5376 139.91 28.5376C137.999 28.5376 136.45 26.9886 136.45 25.0779C136.45 23.1671 137.999 21.6182 139.91 21.6182C141.82 21.6182 143.369 23.1671 143.369 25.0779Z" fill="#589441" stroke="#589441"/>
<path d="M128.77 36.2174C129.382 36.8293 129.811 37.59 130.022 38.4145C130.066 38.5881 130.019 38.7435 129.902 38.8693C129.78 39.0018 129.58 39.097 129.35 39.097C129.138 39.097 128.926 39.0075 128.712 38.8244C128.496 38.6392 128.302 38.3772 128.146 38.0917C128.004 37.8314 127.824 37.5904 127.611 37.3769C127.022 36.788 126.223 36.4573 125.391 36.4573C124.558 36.4573 123.759 36.788 123.171 37.3769C122.957 37.5904 122.777 37.8314 122.635 38.0917C122.479 38.3772 122.286 38.6392 122.07 38.8244C121.856 39.0075 121.644 39.097 121.431 39.097C121.201 39.097 121.002 39.0018 120.879 38.8693C120.763 38.7435 120.715 38.5881 120.76 38.4145C120.97 37.59 121.399 36.8293 122.011 36.2174C122.907 35.321 124.123 34.8175 125.391 34.8175C126.658 34.8175 127.874 35.321 128.77 36.2174Z" fill="#DDFFD0" fill-opacity="0.8" stroke="#589441"/>
</svg>
