<svg xmlns="http://www.w3.org/2000/svg" width="26" height="26" viewBox="0 0 26 26" fill="none">
  <g clip-path="url(#clip0_417_11123)">
    <path d="M23.8842 14.7136L21.9249 7.66411C21.3506 5.5989 20.1025 3.78493 18.3789 2.51052C16.6553 1.23611 14.5551 0.574404 12.4123 0.630585C10.2695 0.686766 8.20691 1.45761 6.55246 2.82059C4.89801 4.18356 3.74663 6.06045 3.28134 8.15291L1.7644 14.9745C1.59684 15.7282 1.60072 16.51 1.77574 17.2621C1.95076 18.0141 2.29246 18.7173 2.77561 19.3196C3.25876 19.9219 3.87102 20.4081 4.56719 20.7421C5.26336 21.0761 6.02567 21.2495 6.79783 21.2495H7.94662C8.1833 22.4151 8.81566 23.463 9.73656 24.2157C10.6575 24.9684 11.8103 25.3796 12.9996 25.3796C14.189 25.3796 15.3418 24.9684 16.2627 24.2157C17.1836 23.463 17.816 22.4151 18.0527 21.2495H18.9168C19.7117 21.2496 20.4958 21.0658 21.208 20.7127C21.9201 20.3595 22.5409 19.8465 23.022 19.2137C23.503 18.5809 23.8312 17.8455 23.981 17.0648C24.1307 16.2842 24.098 15.4795 23.8853 14.7136H23.8842ZM12.9996 23.312C12.3621 23.3093 11.7409 23.1098 11.2211 22.7406C10.7013 22.3714 10.3082 21.8506 10.0957 21.2495H15.9036C15.6911 21.8506 15.298 22.3714 14.7782 22.7406C14.2584 23.1098 13.6372 23.3093 12.9996 23.312ZM21.3794 17.965C21.092 18.3463 20.7197 18.6552 20.2921 18.8673C19.8644 19.0795 19.3932 19.1889 18.9158 19.1871H6.79783C6.33458 19.187 5.87727 19.0829 5.45965 18.8824C5.04202 18.6819 4.67474 18.3903 4.38492 18.0289C4.0951 17.6675 3.89014 17.2456 3.78516 16.7944C3.68018 16.3433 3.67787 15.8742 3.77839 15.422L5.2943 8.59943C5.65972 6.95587 6.56405 5.48162 7.86356 4.41105C9.16306 3.34047 10.7831 2.73502 12.4663 2.69092C14.1494 2.64683 15.7989 3.16663 17.1527 4.1677C18.5065 5.16877 19.4868 6.59364 19.9377 8.21582L21.8971 15.2653C22.0265 15.7246 22.0472 16.2077 21.9573 16.6763C21.8674 17.145 21.6696 17.5862 21.3794 17.965Z" fill="#FB9F14"/>
  </g>
  <defs>
    <clipPath id="clip0_417_11123">
      <rect width="24.7495" height="24.7495" fill="white" transform="translate(0.625 0.625)"/>
    </clipPath>
  </defs>
</svg>