<svg width="20" height="20" viewBox="0 0 20 20" fill="none" xmlns="http://www.w3.org/2000/svg">
<g id="Hicon / Linear / Delete 2">
<g id="Delete 2">
<path id="Vector" d="M15.431 10.6495L16.1739 10.7529L15.431 10.6495ZM15.2124 12.2204L15.9553 12.3238L15.2124 12.2204ZM4.78765 12.2204L5.5305 12.117L4.78765 12.2204ZM4.56904 10.6495L3.8262 10.7529L4.56904 10.6495ZM7.65308 18.114L7.36149 18.805L7.65308 18.114ZM5.39594 15.4669L6.09993 15.2082L5.39594 15.4669ZM14.6041 15.4669L15.3081 15.7255H15.3081L14.6041 15.4669ZM12.347 18.114L12.0554 17.423L12.347 18.114ZM4.91334 7.42902C4.87417 7.01666 4.50812 6.71414 4.09577 6.75332C3.68341 6.7925 3.38089 7.15854 3.42007 7.5709L4.91334 7.42902ZM16.58 7.5709C16.6192 7.15854 16.3167 6.7925 15.9043 6.75332C15.492 6.71414 15.1259 7.01666 15.0867 7.42902L16.58 7.5709ZM16.6667 6.58329C17.0809 6.58329 17.4167 6.24751 17.4167 5.83329C17.4167 5.41908 17.0809 5.08329 16.6667 5.08329V6.58329ZM3.33337 5.08329C2.91916 5.08329 2.58337 5.41908 2.58337 5.83329C2.58337 6.24751 2.91916 6.58329 3.33337 6.58329V5.08329ZM7.58337 15C7.58337 15.4142 7.91916 15.75 8.33337 15.75C8.74759 15.75 9.08337 15.4142 9.08337 15H7.58337ZM9.08337 8.33329C9.08337 7.91908 8.74759 7.58329 8.33337 7.58329C7.91916 7.58329 7.58337 7.91908 7.58337 8.33329H9.08337ZM10.9167 15C10.9167 15.4142 11.2525 15.75 11.6667 15.75C12.0809 15.75 12.4167 15.4142 12.4167 15H10.9167ZM12.4167 8.33329C12.4167 7.91908 12.0809 7.58329 11.6667 7.58329C11.2525 7.58329 10.9167 7.91908 10.9167 8.33329H12.4167ZM13.3334 5.83329V6.58329H14.0834V5.83329H13.3334ZM6.66671 5.83329H5.91671V6.58329H6.66671V5.83329ZM14.6882 10.5462L14.4696 12.117L15.9553 12.3238L16.1739 10.7529L14.6882 10.5462ZM5.5305 12.117L5.31188 10.5462L3.8262 10.7529L4.04481 12.3238L5.5305 12.117ZM10 17.5833C8.71451 17.5833 8.29093 17.5691 7.94467 17.423L7.36149 18.805C8.05464 19.0975 8.84925 19.0833 10 19.0833V17.5833ZM4.04481 12.3238C4.277 13.9922 4.4053 14.9453 4.69195 15.7255L6.09993 15.2082C5.8828 14.6173 5.7735 13.8632 5.5305 12.117L4.04481 12.3238ZM7.94467 17.423C7.2166 17.1158 6.52161 16.356 6.09993 15.2082L4.69195 15.7255C5.21236 17.142 6.14586 18.292 7.36149 18.805L7.94467 17.423ZM14.4696 12.117C14.2266 13.8632 14.1173 14.6173 13.9002 15.2082L15.3081 15.7255C15.5948 14.9453 15.7231 13.9922 15.9553 12.3238L14.4696 12.117ZM10 19.0833C11.1508 19.0833 11.9454 19.0975 12.6386 18.805L12.0554 17.423C11.7092 17.5691 11.2856 17.5833 10 17.5833V19.0833ZM13.9002 15.2082C13.4785 16.356 12.7835 17.1158 12.0554 17.423L12.6386 18.805C13.8542 18.292 14.7877 17.142 15.3081 15.7255L13.9002 15.2082ZM5.31188 10.5462C5.12663 9.21502 4.98888 8.22399 4.91334 7.42902L3.42007 7.5709C3.49941 8.40593 3.64273 9.43454 3.8262 10.7529L5.31188 10.5462ZM16.1739 10.7529C16.3574 9.43454 16.5007 8.40592 16.58 7.5709L15.0867 7.42902C15.0112 8.22398 14.8734 9.21502 14.6882 10.5462L16.1739 10.7529ZM16.6667 5.08329H3.33337V6.58329H16.6667V5.08329ZM9.08337 15V8.33329H7.58337V15H9.08337ZM12.4167 15V8.33329H10.9167V15H12.4167ZM12.5834 4.99996V5.83329H14.0834V4.99996H12.5834ZM13.3334 5.08329H6.66671V6.58329H13.3334V5.08329ZM7.41671 5.83329V4.99996H5.91671V5.83329H7.41671ZM10 2.41663C11.4268 2.41663 12.5834 3.57322 12.5834 4.99996H14.0834C14.0834 2.7448 12.2552 0.916626 10 0.916626V2.41663ZM10 0.916626C7.74488 0.916626 5.91671 2.7448 5.91671 4.99996H7.41671C7.41671 3.57322 8.57331 2.41663 10 2.41663V0.916626Z" fill="#F5ACA4"/>
</g>
</g>
</svg>
