<svg width="325" height="408" viewBox="0 0 325 408" fill="none" xmlns="http://www.w3.org/2000/svg">
<g clip-path="url(#clip0_4_6)">
<path d="M324.386 269.526H12.1949V279.597H60.8837V375.268L71.267 374.752L70.9544 279.597H260.591V375.268L270.407 377.853L270.661 279.597H324.386V269.526Z" fill="#E6E6E6"/>
<path d="M325 239.397H12.8095V249.468H325V239.397Z" fill="#E6E6E6"/>
<path d="M325 214.22H12.8095V224.291H325V214.22Z" fill="#E6E6E6"/>
<path d="M325 189.044H12.8095V199.114H325V189.044Z" fill="#E6E6E6"/>
<path d="M324.386 269.526H12.1949V279.597H60.8837V375.268L71.267 374.752L70.9544 279.597H260.591V375.268L270.407 377.853L270.661 279.597H324.386V269.526Z" fill="#E6E6E6"/>
<path d="M325 239.397H12.8095V249.468H325V239.397Z" fill="#E6E6E6"/>
<path d="M325 214.22H12.8095V224.291H325V214.22Z" fill="#E6E6E6"/>
<path d="M325 189.044H12.8095V199.114H325V189.044Z" fill="#E6E6E6"/>
<path d="M92.5712 163.254L51.7854 172.588L34.553 140.086L69.4278 126.47L92.5712 163.254Z" fill="#85454B"/>
<path d="M236.1 186.034H119.222V190.5H236.1V186.034Z" fill="#A9706E"/>
<path d="M215.256 171.145H213.164C213.559 170.467 213.767 169.696 213.767 168.911V161.467C213.767 160.88 213.651 160.299 213.427 159.758C213.202 159.216 212.873 158.723 212.459 158.308C212.044 157.894 211.552 157.565 211.01 157.34C210.468 157.116 209.887 157 209.3 157H207.552C207.723 156.522 207.81 156.019 207.811 155.511V148.067C207.811 147.48 207.696 146.899 207.471 146.357C207.247 145.816 206.918 145.323 206.503 144.908C206.088 144.494 205.596 144.165 205.054 143.94C204.512 143.716 203.931 143.6 203.345 143.6H152.722C152.136 143.6 151.555 143.716 151.013 143.94C150.471 144.165 149.978 144.494 149.564 144.908C149.149 145.323 148.82 145.816 148.595 146.357C148.371 146.899 148.255 147.48 148.255 148.067V155.511C148.256 156.019 148.344 156.522 148.515 157H146.767C146.18 157 145.599 157.116 145.057 157.34C144.515 157.565 144.023 157.894 143.608 158.308C143.193 158.723 142.864 159.216 142.64 159.758C142.415 160.299 142.3 160.88 142.3 161.467V168.911C142.3 169.696 142.508 170.467 142.902 171.145H140.811C140.224 171.145 139.644 171.26 139.102 171.485C138.56 171.709 138.067 172.038 137.652 172.453C137.238 172.868 136.909 173.36 136.684 173.902C136.46 174.444 136.344 175.025 136.344 175.611V183.056C136.344 183.642 136.46 184.223 136.684 184.765C136.909 185.307 137.238 185.8 137.652 186.214C138.067 186.629 138.56 186.958 139.102 187.183C139.644 187.407 140.224 187.523 140.811 187.523H215.256C215.842 187.523 216.423 187.407 216.965 187.183C217.507 186.958 217.999 186.629 218.414 186.214C218.829 185.8 219.158 185.307 219.383 184.765C219.607 184.223 219.723 183.642 219.723 183.056V175.611C219.723 175.025 219.607 174.444 219.383 173.902C219.158 173.36 218.829 172.868 218.414 172.453C217.999 172.038 217.507 171.709 216.965 171.485C216.423 171.26 215.842 171.145 215.256 171.145Z" fill="#F5ACA4"/>
<path d="M206.322 144.717C206.322 142.867 193.657 141.367 178.033 141.367C162.41 141.367 149.744 142.867 149.744 144.717C149.744 145.636 152.872 146.468 157.933 147.074V150.114C157.934 150.361 158.032 150.597 158.207 150.771C158.381 150.946 158.617 151.044 158.864 151.045H159.236C159.483 151.044 159.719 150.946 159.893 150.771C160.068 150.597 160.166 150.361 160.167 150.114V147.314C161.333 147.426 162.579 147.528 163.889 147.617V150.114C163.89 150.361 163.988 150.597 164.162 150.771C164.337 150.946 164.573 151.044 164.819 151.045H165.192C165.438 151.044 165.675 150.946 165.849 150.771C166.023 150.597 166.122 150.361 166.122 150.114V147.755C169.537 147.943 173.319 148.053 177.308 148.065C177.296 148.127 177.289 148.19 177.289 148.253V151.603C177.29 151.85 177.388 152.086 177.562 152.26C177.737 152.435 177.973 152.533 178.22 152.534H178.592C178.838 152.533 179.075 152.435 179.249 152.26C179.423 152.086 179.522 151.85 179.522 151.603V148.253C179.522 148.189 179.516 148.125 179.502 148.062C182.932 148.042 186.2 147.948 189.2 147.795V150.858C189.201 151.105 189.299 151.341 189.474 151.516C189.648 151.69 189.884 151.788 190.131 151.789H190.503C190.75 151.788 190.986 151.69 191.16 151.516C191.335 151.341 191.433 151.105 191.434 150.858V147.668C194.566 147.468 197.34 147.2 199.623 146.881V149.37C199.623 149.616 199.721 149.852 199.896 150.027C200.07 150.201 200.307 150.299 200.553 150.3H200.925C201.172 150.299 201.408 150.201 201.583 150.027C201.757 149.852 201.855 149.616 201.856 149.37V146.522C204.679 146.001 206.322 145.382 206.322 144.717Z" fill="#E6E6E6"/>
<path d="M207.811 156.256H148.255V157.745H207.811V156.256Z" fill="#A9706E"/>
<path d="M213.022 170.4H143.044V171.889H213.022V170.4Z" fill="#A9706E"/>
<path d="M218.978 183.8H137.833V185.289H218.978V183.8Z" fill="#A9706E"/>
<path d="M178.778 131.689H176.544V144.345H178.778V131.689Z" fill="#E6E6E6"/>
<path d="M180.836 130.105C180.836 132.642 179.421 132.689 177.677 132.689C175.932 132.689 173.068 132.187 174.518 130.105C176.048 127.908 178.671 123.722 177.677 123.5C177.677 123.5 180.836 127.567 180.836 130.105Z" fill="#F9A825"/>
<path opacity="0.5" d="M178.789 131.666C178.789 132.67 178.23 132.689 177.539 132.689C176.849 132.689 175.715 132.49 176.289 131.666C176.894 130.797 177.933 129.139 177.539 129.052C177.539 129.052 178.789 130.662 178.789 131.666Z" fill="#FF6584"/>
<path d="M191.433 132.433H189.2V145.089H191.433V132.433Z" fill="#E6E6E6"/>
<path d="M193.491 130.849C193.491 133.387 192.077 133.433 190.333 133.433C188.588 133.433 185.724 132.931 187.174 130.849C188.703 128.653 191.327 124.466 190.333 124.244C190.333 124.244 193.491 128.312 193.491 130.849Z" fill="#F9A825"/>
<path opacity="0.5" d="M191.445 132.41C191.445 133.415 190.885 133.433 190.195 133.433C189.504 133.433 188.371 133.235 188.944 132.41C189.55 131.541 190.588 129.884 190.195 129.796C190.195 129.796 191.445 131.406 191.445 132.41Z" fill="#FF6584"/>
<path d="M166.867 132.433H164.633V145.089H166.867V132.433Z" fill="#E6E6E6"/>
<path d="M168.925 130.849C168.925 133.387 167.51 133.433 165.766 133.433C164.021 133.433 161.157 132.931 162.607 130.849C164.136 128.653 166.76 124.466 165.766 124.244C165.766 124.244 168.925 128.312 168.925 130.849Z" fill="#F9A825"/>
<path opacity="0.5" d="M166.878 132.41C166.878 133.415 166.319 133.433 165.628 133.433C164.937 133.433 163.804 133.235 164.378 132.41C164.983 131.541 166.021 129.884 165.628 129.796C165.628 129.796 166.878 131.406 166.878 132.41Z" fill="#FF6584"/>
<path d="M302.999 172.406L263.834 165.332C261.097 154.464 257.325 142.982 263.374 133.151C265.143 125.727 273.091 123.604 281.15 121.769C289.239 119.929 297.805 122.836 302.705 129.53C306.188 134.29 307.116 139.06 305.704 144.99C309.588 150.761 307.732 164.886 302.999 172.406Z" fill="#85454B"/>
<path d="M244.359 397.022L227.308 385.367L249.73 307.181L273.383 268.099L229.571 294.749L231.856 346.796L209.784 357.99L203.879 293.43C203.511 289.404 204.307 285.357 206.174 281.77C208.04 278.184 210.897 275.209 214.406 273.2L250.516 252.527L253.371 222.833L293.216 216.717C308.621 236.581 316.804 254.81 309.73 269.586L273.815 315.871L244.359 397.022Z" fill="#85454B"/>
<path d="M235.993 388.576C235.993 388.576 232.947 382.444 229.78 384.393C226.612 386.342 218.204 395.153 218.204 395.153C218.204 395.153 202.731 399.578 213.411 403.924C224.091 408.271 227.909 407.378 228.112 406.525C228.315 405.672 230.63 403.52 230.63 403.52L234.691 405.389L241.067 405.105C241.067 405.105 247.368 390.002 244.665 390C241.962 389.998 236.236 391.338 235.993 388.576Z" fill="#85454B"/>
<path d="M220.558 350.52C220.558 350.52 213.757 349.725 213.662 353.443C213.566 357.162 216.363 369.015 216.363 369.015C216.363 369.015 211.627 384.396 221.098 377.818C230.568 371.24 231.903 367.554 231.299 366.918C230.695 366.282 230.155 363.168 230.155 363.168L233.937 360.785L237.178 355.287C237.178 355.287 227.96 341.765 226.483 344.029C225.007 346.293 223.005 351.823 220.558 350.52Z" fill="#85454B"/>
<path d="M277.846 156.113C286.005 156.113 292.62 149.499 292.62 141.34C292.62 133.181 286.005 126.566 277.846 126.566C269.687 126.566 263.073 133.181 263.073 141.34C263.073 149.499 269.687 156.113 277.846 156.113Z" fill="#A0616A"/>
<path d="M286.243 189.322L250.01 189.128C253.979 178.794 258.231 169.288 265.714 169.245C271.615 163.762 270.971 156.356 268.169 148.315L286.609 150.599C285.752 155.914 286.979 160.306 291.626 163.184C286.942 172.188 284.324 180.984 286.243 189.322Z" fill="#A0616A"/>
<path d="M305.148 234.547L254.898 238.269L251.09 214.697C240.596 204.675 241.859 194.58 251.55 184.433L255.087 171.354L262.825 168.979C261.95 170.328 261.494 171.906 261.515 173.513C261.537 175.121 262.034 176.686 262.944 178.012C263.855 179.337 265.137 180.363 266.631 180.959C268.124 181.556 269.76 181.697 271.333 181.364L274.167 180.764C275.217 180.542 276.212 180.114 277.096 179.506C277.98 178.897 278.735 178.119 279.317 177.217L289.516 161.416L294.829 162.074C295.431 162.148 295.995 162.409 296.442 162.819C296.889 163.229 297.197 163.769 297.322 164.363L302.25 187.651C296.063 196.767 305.188 222.153 305.148 234.547Z" fill="#F6D3C1"/>
<path d="M260.362 260.778L265.414 269.924C265.908 270.818 266.206 271.806 266.29 272.823C266.373 273.841 266.24 274.864 265.898 275.826C265.557 276.788 265.015 277.667 264.309 278.404C263.603 279.141 262.748 279.72 261.801 280.102C260.692 280.55 259.489 280.715 258.3 280.583C257.112 280.45 255.974 280.024 254.991 279.343C254.008 278.662 253.209 277.747 252.668 276.68C252.126 275.614 251.858 274.429 251.887 273.234L252.13 263.458L241.66 225.95L242.766 200.058L253.734 201.827L253.503 225.818L260.362 260.778Z" fill="#A0616A"/>
<path d="M289.554 253.103L284.829 262.422C284.367 263.332 284.104 264.331 284.057 265.35C284.01 266.37 284.179 267.388 284.555 268.337C284.93 269.286 285.503 270.145 286.235 270.857C286.967 271.568 287.841 272.117 288.801 272.465C289.925 272.873 291.133 272.996 292.317 272.821C293.5 272.647 294.621 272.181 295.58 271.465C296.538 270.749 297.304 269.806 297.807 268.721C298.311 267.636 298.537 266.443 298.465 265.249L297.875 255.488L307.008 217.632L304.984 191.796L294.085 193.953L295.167 217.921L289.554 253.103Z" fill="#A0616A"/>
<path d="M256.547 204.185L239.781 200.191L245.948 179.535C246.607 177.328 247.854 175.342 249.555 173.79C251.256 172.238 253.348 171.178 255.606 170.723L259.65 169.91L256.547 204.185Z" fill="#F6D3C1"/>
<path d="M289.748 198.585L290.083 185.597L293.237 164.425C293.339 163.739 293.682 163.113 294.205 162.657C294.727 162.202 295.394 161.948 296.087 161.94C296.673 161.933 297.248 162.104 297.736 162.429L311.675 194.88C309.119 200.796 293.037 191.537 289.748 198.585Z" fill="#F6D3C1"/>
<path d="M126.463 394.088L141.748 380.198L108.783 305.84L79.9786 270.384L127.04 290.753L131.937 342.62L155.34 350.671L152.306 285.912C152.117 281.874 150.772 277.975 148.43 274.679C146.088 271.383 142.848 268.83 139.097 267.323L100.486 251.814L93.5735 222.795L53.2649 222.219C40.7392 244.013 35.1423 263.195 44.1815 276.857L86.123 317.761L126.463 394.088Z" fill="#85454B"/>
<path d="M133.588 384.572C133.588 384.572 135.76 378.079 139.166 379.573C142.572 381.068 152.112 388.639 152.112 388.639C152.112 388.639 168.046 390.893 158.066 396.667C148.085 402.442 144.181 402.083 143.863 401.266C143.544 400.449 140.955 398.636 140.955 398.636L137.19 401.045L130.835 401.642C130.835 401.642 122.516 387.549 125.193 387.175C127.871 386.801 133.727 387.341 133.588 384.572Z" fill="#85454B"/>
<path d="M143.64 344.754C143.64 344.754 150.267 343.031 150.873 346.701C151.479 350.371 150.34 362.496 150.34 362.496C150.34 362.496 157.146 377.079 146.861 371.867C136.576 366.654 134.746 363.186 135.257 362.474C135.768 361.761 135.874 358.602 135.874 358.602L131.801 356.762L127.834 351.762C127.834 351.762 135.104 337.1 136.878 339.14C138.652 341.18 141.396 346.381 143.64 344.754Z" fill="#85454B"/>
<path d="M58.1196 160.217C66.2787 160.217 72.893 153.603 72.893 145.444C72.893 137.285 66.2787 130.67 58.1196 130.67C49.9605 130.67 43.3462 137.285 43.3462 145.444C43.3462 153.603 49.9605 160.217 58.1196 160.217Z" fill="#FFB9B9"/>
<path d="M56.4035 194.125L92.2656 188.948C86.9121 179.259 81.3927 170.428 73.9749 171.415C67.3757 166.796 66.9951 159.371 68.6642 151.022L50.7141 155.82C52.2935 160.967 51.6826 165.487 47.4759 168.976C53.3537 177.25 57.1575 185.602 56.4035 194.125Z" fill="#FFB9B9"/>
<path d="M53.6932 225.575C66.4361 242.167 79.5044 248.722 93.5544 225.005L94.7127 214.422C103.729 203.052 101.088 193.227 90.0939 184.509L84.7909 172.042L76.8003 170.753C77.8526 171.969 78.521 173.469 78.7212 175.065C78.9213 176.66 78.6441 178.279 77.9247 179.717C77.2052 181.155 76.0758 182.347 74.679 183.144C73.2822 183.94 71.6807 184.305 70.0769 184.191L67.1878 183.987C66.1171 183.912 65.072 183.625 64.1127 183.144C63.1533 182.662 62.2987 181.996 61.5981 181.183L49.3225 166.934L44.1506 168.317C43.5644 168.474 43.0418 168.809 42.6556 169.277C42.2693 169.745 42.0388 170.322 41.996 170.927L40.3191 194.672C47.7014 202.851 51.9486 213.305 53.6932 225.575Z" fill="#F5ACA4"/>
<path d="M47.9888 215.467L19.7654 209.736L38.5106 192.294L31.3763 179.392L1.07798 211.618C0.557612 212.21 0.2096 212.933 0.0718271 213.709C-0.0659453 214.485 0.011798 215.284 0.2966 216.019C0.581403 216.754 1.06235 217.397 1.68709 217.878C2.31183 218.358 3.05642 218.658 3.83982 218.745L44.8729 223.289L46.5567 230.715C46.7806 231.703 47.2391 232.622 47.8933 233.395C48.5476 234.168 49.3783 234.773 50.3154 235.157C51.2524 235.542 52.2683 235.695 53.277 235.604C54.2857 235.513 55.2577 235.18 56.1108 234.634C56.9005 234.129 57.5676 233.454 58.0637 232.658C58.5598 231.863 58.8724 230.967 58.9787 230.035C59.0851 229.104 58.9825 228.16 58.6784 227.274C58.3744 226.387 57.8766 225.579 57.2212 224.909L47.9888 215.467Z" fill="#FFB9B9"/>
<path d="M91.8688 261.341L88.1227 271.096C87.7567 272.048 87.5971 273.068 87.6544 274.087C87.7118 275.107 87.9848 276.102 88.4553 277.008C88.9259 277.914 89.5834 278.709 90.3842 279.342C91.1851 279.975 92.1112 280.431 93.1013 280.679C94.2615 280.971 95.4759 280.969 96.6352 280.674C97.7945 280.379 98.8623 279.801 99.7425 278.991C100.623 278.181 101.288 277.165 101.678 276.034C102.068 274.903 102.17 273.693 101.976 272.512L100.391 262.863L105.601 224.271L100.944 198.778L90.3235 202.039L93.8526 225.77L91.8688 261.341Z" fill="#FFB9B9"/>
<path d="M87.8614 204.761L103.919 198.498L94.969 178.888C94.0128 176.793 92.5045 174.997 90.6058 173.694C88.7071 172.39 86.4895 171.628 84.1906 171.489L80.073 171.239L87.8614 204.761Z" fill="#F5ACA4"/>
<path d="M34.9666 196.76L52.087 190.963L46.0508 170.427C45.8553 169.762 45.4294 169.188 44.8494 168.809C44.2694 168.43 43.5732 168.27 42.8858 168.357C42.3044 168.432 41.7588 168.679 41.3204 169.068L23.8312 184.585C27.177 190.093 30.7392 190.231 34.9666 196.76Z" fill="#F5ACA4"/>
<path d="M67.9342 121.459C67.9342 121.459 76.9692 123.158 79.0587 134.427C79.3855 136.327 79.4451 138.264 79.2356 140.181C79.027 142.35 79.3296 146.931 84.0393 152.325C87.1124 155.824 89.9759 159.501 92.6147 163.338L83.1739 165.852L78.9558 150.21C76.9107 142.626 73.7603 135.385 69.6057 128.72L69.519 128.581C69.519 128.581 66.3834 136.959 57.9791 138.107L60.5704 134.696C60.5704 134.696 50.7458 140.375 45.1795 142.11C44.5443 142.308 43.9752 142.676 43.5334 143.173C43.0917 143.671 42.7941 144.28 42.6727 144.934C42.5513 145.588 42.6106 146.263 42.8444 146.886C43.0782 147.509 43.4775 148.057 43.9994 148.47C44.0389 148.501 44.0791 148.532 44.12 148.563C48.2141 151.672 56.5664 159.092 53.2667 166.27C49.967 173.447 53.8149 174.756 53.8149 174.756L46.7193 172.057L43.4717 170.666L43.7998 173.067L27.9458 173.399C27.9458 173.399 23.6616 173.373 31.2715 161.938C31.2715 161.938 33.1077 157.65 31.6002 154.374C30.3904 151.893 29.7881 149.16 29.8429 146.4C30.3222 134.871 35.1791 111.415 67.9342 121.459Z" fill="#85454B"/>
<path d="M264.824 129.704L278.472 138.389L279.713 135.907C287.953 141.861 286.184 157.087 282.194 174.371C282.194 174.371 296.612 179.661 298.324 174.371C301.37 164.956 298.944 142.732 298.944 142.732L293.981 129.704L285.916 125.361L279.092 124.741C279.092 124.741 272.889 121.639 264.824 129.704Z" fill="#85454B"/>
<path d="M285.916 148.935C286.944 148.935 287.778 147.824 287.778 146.454C287.778 145.083 286.944 143.972 285.916 143.972C284.889 143.972 284.055 145.083 284.055 146.454C284.055 147.824 284.889 148.935 285.916 148.935Z" fill="#A0616A"/>
<path d="M142.073 39.1783C143.127 39.1783 143.981 38.3239 143.981 37.2698C143.981 36.2158 143.127 35.3613 142.073 35.3613C141.019 35.3613 140.164 36.2158 140.164 37.2698C140.164 38.3239 141.019 39.1783 142.073 39.1783Z" fill="#E6E6E6"/>
<path d="M170.223 99.2961C171.277 99.2961 172.132 98.4416 172.132 97.3876C172.132 96.3335 171.277 95.4791 170.223 95.4791C169.169 95.4791 168.315 96.3335 168.315 97.3876C168.315 98.4416 169.169 99.2961 170.223 99.2961Z" fill="#E6E6E6"/>
<path d="M162.589 56.3548C163.643 56.3548 164.498 55.5004 164.498 54.4463C164.498 53.3923 163.643 52.5378 162.589 52.5378C161.535 52.5378 160.681 53.3923 160.681 54.4463C160.681 55.5004 161.535 56.3548 162.589 56.3548Z" fill="#E6E6E6"/>
<path d="M131.576 76.3941C132.63 76.3941 133.484 75.5396 133.484 74.4856C133.484 73.4315 132.63 72.5771 131.576 72.5771C130.522 72.5771 129.667 73.4315 129.667 74.4856C129.667 75.5396 130.522 76.3941 131.576 76.3941Z" fill="#E6E6E6"/>
<path d="M151.509 37.6305C152.67 38.6658 153.581 39.9503 154.175 41.3877C154.768 42.8251 155.029 44.3782 154.937 45.9307C154.846 47.4832 154.404 48.9948 153.645 50.3524C152.886 51.7099 151.83 52.8781 150.556 53.7695C149.585 54.4549 150.514 56.0694 151.495 55.3766C152.983 54.3357 154.225 52.983 155.137 51.4128C156.048 49.8426 156.607 48.0925 156.773 46.2845C156.907 44.4327 156.622 42.5746 155.938 40.8484C155.255 39.1222 154.191 37.5724 152.825 36.3145C151.946 35.5039 150.626 36.8167 151.509 37.6305Z" fill="#E6E6E6"/>
<path d="M168.686 61.9638C169.846 62.9992 170.757 64.2836 171.351 65.7211C171.945 67.1585 172.206 68.7116 172.114 70.2641C172.022 71.8166 171.58 73.3282 170.821 74.6857C170.063 76.0432 169.007 77.2115 167.732 78.1029C166.761 78.7883 167.69 80.4028 168.671 79.7099C170.159 78.6691 171.402 77.3164 172.314 75.7462C173.225 74.1759 173.783 72.4259 173.949 70.6178C174.084 68.7661 173.798 66.9079 173.115 65.1817C172.431 63.4555 171.367 61.9058 170.002 60.6479C169.122 59.8372 167.803 61.1501 168.686 61.9638Z" fill="#E6E6E6"/>
<path d="M139.431 83.0727C138.066 84.331 137.003 85.8809 136.319 87.607C135.636 89.3331 135.35 91.191 135.484 93.0427C135.649 94.8509 136.207 96.6012 137.119 98.1716C138.03 99.7419 139.273 101.094 140.762 102.135C141.742 102.827 142.673 101.214 141.701 100.528C140.427 99.6363 139.37 98.4681 138.612 97.1106C137.853 95.753 137.411 94.2414 137.319 92.6889C137.227 91.1364 137.488 89.5833 138.082 88.1459C138.676 86.7085 139.587 85.424 140.747 84.3887C141.63 83.5752 140.311 82.2617 139.431 83.0727Z" fill="#E6E6E6"/>
<path d="M154.499 70.858C152.084 70.5955 149.084 70.6332 147.745 73.0747C146.691 74.9972 147.97 77.9391 150.406 77.6798C150.627 77.6725 150.838 77.5872 151.002 77.439C151.166 77.2909 151.272 77.0894 151.302 76.8703C151.332 76.6513 151.283 76.4288 151.164 76.2424C151.045 76.056 150.864 75.9176 150.653 75.8519C148.914 75.3137 147.381 76.9793 147.406 78.6565C147.434 80.5833 149.323 81.7313 150.898 82.353L151.392 80.5584C150.815 80.4421 150.219 80.4484 149.644 80.5768C149.069 80.7053 148.527 80.9531 148.054 81.3042C147.58 81.6552 147.186 82.1018 146.896 82.6149C146.606 83.128 146.427 83.6963 146.371 84.2829C146.209 86.8891 148.783 88.778 151.208 88.4395C152.389 88.2745 151.886 86.481 150.713 86.6448C150.395 86.6896 150.072 86.6639 149.766 86.5697C149.459 86.4754 149.177 86.3149 148.94 86.0995C148.702 85.8841 148.515 85.6191 148.392 85.3232C148.268 85.0274 148.212 84.708 148.225 84.3877C148.239 84.0675 148.323 83.7542 148.472 83.47C148.62 83.1859 148.829 82.938 149.084 82.7438C149.339 82.5496 149.634 82.4139 149.948 82.3464C150.261 82.2788 150.585 82.2811 150.898 82.353C151.132 82.4086 151.379 82.371 151.587 82.2481C151.794 82.1252 151.946 81.9267 152.01 81.6942C152.074 81.4617 152.046 81.2135 151.931 81.0016C151.815 80.7898 151.622 80.6309 151.392 80.5584C150.632 80.2581 149.692 79.7901 149.357 78.9891C149.141 78.4745 149.462 77.4311 150.158 77.6465L150.406 75.8186C150.133 75.8497 149.859 75.7757 149.638 75.6118C149.418 75.4478 149.269 75.2062 149.22 74.936C149.176 74.6374 149.215 74.3324 149.332 74.0545C149.45 73.7765 149.642 73.5363 149.887 73.3603C151.139 72.2927 152.994 72.5555 154.499 72.7191C155.688 72.8484 155.679 70.9863 154.499 70.858Z" fill="#E6E6E6"/>
<path d="M126.825 57.9756C124.411 57.7131 121.411 57.7509 120.072 60.1923C119.018 62.1148 120.297 65.0567 122.733 64.7974C122.954 64.7901 123.165 64.7048 123.329 64.5566C123.493 64.4085 123.599 64.207 123.629 63.988C123.658 63.7689 123.609 63.5465 123.491 63.36C123.372 63.1736 123.191 63.0352 122.98 62.9695C121.241 62.4313 119.708 64.0969 119.733 65.7741C119.761 67.7009 121.649 68.8489 123.224 69.4706L123.719 67.676C123.141 67.5597 122.546 67.566 121.971 67.6944C121.395 67.8229 120.854 68.0707 120.38 68.4218C119.907 68.7729 119.513 69.2194 119.223 69.7325C118.933 70.2456 118.754 70.8139 118.698 71.4005C118.535 74.0068 121.11 75.8956 123.534 75.5571C124.715 75.3922 124.213 73.5986 123.04 73.7624C122.722 73.8072 122.399 73.7816 122.092 73.6873C121.786 73.5931 121.504 73.4325 121.267 73.2171C121.029 73.0017 120.842 72.7367 120.719 72.4409C120.595 72.145 120.538 71.8256 120.552 71.5054C120.566 71.1851 120.65 70.8718 120.798 70.5877C120.947 70.3035 121.156 70.0556 121.411 69.8614C121.666 69.6672 121.961 69.5315 122.274 69.464C122.588 69.3965 122.912 69.3987 123.224 69.4706C123.459 69.5261 123.706 69.4885 123.914 69.3656C124.121 69.2427 124.273 69.0442 124.337 68.8118C124.401 68.5793 124.372 68.3311 124.257 68.1193C124.142 67.9074 123.949 67.7485 123.719 67.676C122.959 67.3757 122.019 66.9077 121.684 66.1067C121.468 65.5921 121.789 64.5487 122.485 64.7641L122.733 62.9362C122.46 62.9673 122.185 62.8933 121.965 62.7294C121.745 62.5655 121.595 62.3238 121.547 62.0536C121.503 61.755 121.541 61.45 121.659 61.1721C121.777 60.8941 121.969 60.654 122.214 60.4779C123.466 59.4103 125.32 59.6731 126.825 59.8367C128.014 59.966 128.005 58.1039 126.825 57.9756Z" fill="#E6E6E6"/>
<path d="M180.692 101.255C183.106 101.518 186.107 101.48 187.445 99.0386C188.499 97.1161 187.22 94.1742 184.785 94.4336C184.564 94.4408 184.353 94.5261 184.189 94.6743C184.025 94.8225 183.918 95.0239 183.889 95.243C183.859 95.462 183.908 95.6845 184.027 95.8709C184.145 96.0573 184.326 96.1957 184.537 96.2614C186.277 96.7996 187.809 95.134 187.785 93.4568C187.757 91.53 185.868 90.3821 184.293 89.7603L183.798 91.555C184.376 91.6713 184.972 91.665 185.547 91.5365C186.122 91.408 186.664 91.1602 187.137 90.8091C187.61 90.4581 188.005 90.0115 188.295 89.4984C188.584 88.9853 188.763 88.4171 188.82 87.8305C188.982 85.2242 186.408 83.3353 183.983 83.6739C182.802 83.8388 183.305 85.6323 184.478 85.4685C184.795 85.4237 185.119 85.4494 185.425 85.5436C185.732 85.6379 186.013 85.7984 186.251 86.0138C186.488 86.2292 186.675 86.4943 186.799 86.7901C186.922 87.0859 186.979 87.4053 186.965 87.7256C186.952 88.0459 186.867 88.3592 186.719 88.6433C186.571 88.9274 186.361 89.1753 186.106 89.3695C185.851 89.5637 185.557 89.6994 185.243 89.767C184.93 89.8345 184.605 89.8322 184.293 89.7603C184.058 89.7048 183.811 89.7424 183.604 89.8653C183.396 89.9882 183.245 90.1867 183.181 90.4192C183.117 90.6516 183.145 90.8999 183.26 91.1117C183.375 91.3235 183.568 91.4824 183.798 91.555C184.559 91.8552 185.498 92.3232 185.834 93.1243C186.049 93.6388 185.729 94.6822 185.032 94.4668L184.785 96.2947C185.058 96.2636 185.332 96.3376 185.552 96.5015C185.773 96.6655 185.922 96.9071 185.971 97.1773C186.015 97.4759 185.976 97.7809 185.858 98.0589C185.741 98.3368 185.549 98.577 185.303 98.753C184.052 99.8206 182.197 99.5578 180.692 99.3942C179.503 99.2649 179.512 101.127 180.692 101.255Z" fill="#E6E6E6"/>
<path d="M196.045 3.817C197.099 3.817 197.954 2.96254 197.954 1.9085C197.954 0.854466 197.099 0 196.045 0C194.991 0 194.137 0.854466 194.137 1.9085C194.137 2.96254 194.991 3.817 196.045 3.817Z" fill="#E6E6E6"/>
<path d="M224.196 63.9347C225.25 63.9347 226.104 63.0803 226.104 62.0262C226.104 60.9722 225.25 60.1177 224.196 60.1177C223.142 60.1177 222.287 60.9722 222.287 62.0262C222.287 63.0803 223.142 63.9347 224.196 63.9347Z" fill="#E6E6E6"/>
<path d="M216.562 20.9935C217.616 20.9935 218.47 20.139 218.47 19.085C218.47 18.031 217.616 17.1765 216.562 17.1765C215.508 17.1765 214.653 18.031 214.653 19.085C214.653 20.139 215.508 20.9935 216.562 20.9935Z" fill="#E6E6E6"/>
<path d="M185.549 41.0327C186.603 41.0327 187.457 40.1783 187.457 39.1242C187.457 38.0702 186.603 37.2157 185.549 37.2157C184.494 37.2157 183.64 38.0702 183.64 39.1242C183.64 40.1783 184.494 41.0327 185.549 41.0327Z" fill="#E6E6E6"/>
<path d="M205.482 2.26914C206.642 3.30445 207.554 4.58892 208.147 6.02635C208.741 7.46378 209.002 9.0169 208.91 10.5694C208.818 12.1219 208.376 13.6335 207.618 14.991C206.859 16.3485 205.803 17.5168 204.528 18.4082C203.557 19.0936 204.486 20.7081 205.468 20.0152C206.955 18.9743 208.198 17.6217 209.11 16.0514C210.021 14.4812 210.579 12.7311 210.745 10.9231C210.88 9.0714 210.594 7.21323 209.911 5.48702C209.227 3.76081 208.163 2.21105 206.798 0.95314C205.918 0.142531 204.599 1.45535 205.482 2.26914Z" fill="#E6E6E6"/>
<path d="M222.658 26.6025C223.819 27.6378 224.73 28.9223 225.324 30.3597C225.917 31.7972 226.178 33.3503 226.086 34.9028C225.995 36.4553 225.553 37.9669 224.794 39.3244C224.035 40.6819 222.979 41.8502 221.705 42.7416C220.734 43.427 221.663 45.0415 222.644 44.3486C224.132 43.3077 225.375 41.9551 226.286 40.3848C227.198 38.8146 227.756 37.0645 227.922 35.2565C228.056 33.4048 227.771 31.5466 227.087 29.8204C226.404 28.0942 225.34 26.5444 223.974 25.2865C223.095 24.4759 221.775 25.7887 222.658 26.6025Z" fill="#E6E6E6"/>
<path d="M193.404 47.7114C192.039 48.9697 190.975 50.5195 190.292 52.2456C189.608 53.9717 189.323 55.8297 189.456 57.6814C189.622 59.4896 190.18 61.2399 191.091 62.8102C192.003 64.3806 193.246 65.7331 194.734 66.7735C195.714 67.4656 196.645 65.8526 195.673 65.1664C194.399 64.275 193.343 63.1068 192.584 61.7492C191.825 60.3917 191.384 58.8801 191.292 57.3276C191.2 55.7751 191.461 54.222 192.054 52.7846C192.648 51.3471 193.559 50.0627 194.72 49.0274C195.603 48.2139 194.284 46.9004 193.404 47.7114Z" fill="#E6E6E6"/>
<path d="M208.471 35.4967C206.057 35.2342 203.057 35.2719 201.718 37.7134C200.664 39.6358 201.943 42.5778 204.378 42.3184C204.599 42.3111 204.811 42.2258 204.975 42.0777C205.139 41.9295 205.245 41.7281 205.274 41.509C205.304 41.29 205.255 41.0675 205.137 40.8811C205.018 40.6946 204.837 40.5563 204.626 40.4905C202.886 39.9524 201.354 41.618 201.378 43.2952C201.406 45.222 203.295 46.3699 204.87 46.9917L205.365 45.197C204.787 45.0807 204.192 45.087 203.616 45.2155C203.041 45.344 202.5 45.5918 202.026 45.9428C201.553 46.2939 201.159 46.7405 200.869 47.2536C200.579 47.7667 200.4 48.3349 200.344 48.9215C200.181 51.5278 202.755 53.4166 205.18 53.0781C206.361 52.9132 205.859 51.1197 204.685 51.2835C204.368 51.3283 204.044 51.3026 203.738 51.2084C203.432 51.1141 203.15 50.9536 202.912 50.7382C202.675 50.5228 202.488 50.2577 202.364 49.9619C202.241 49.6661 202.184 49.3467 202.198 49.0264C202.212 48.7061 202.296 48.3928 202.444 48.1087C202.593 47.8246 202.802 47.5766 203.057 47.3824C203.312 47.1882 203.607 47.0526 203.92 46.985C204.233 46.9175 204.558 46.9198 204.87 46.9917C205.105 47.0472 205.352 47.0096 205.559 46.8867C205.767 46.7639 205.919 46.5653 205.983 46.3328C206.047 46.1004 206.018 45.8521 205.903 45.6403C205.788 45.4285 205.595 45.2696 205.365 45.197C204.604 44.8968 203.665 44.4288 203.329 43.6277C203.114 43.1131 203.435 42.0698 204.131 42.2852L204.378 40.4573C204.106 40.4883 203.831 40.4144 203.611 40.2505C203.391 40.0865 203.241 39.8449 203.193 39.5746C203.148 39.2761 203.187 38.9711 203.305 38.6931C203.423 38.4152 203.615 38.175 203.86 37.999C205.112 36.9314 206.966 37.1942 208.471 37.3578C209.66 37.4871 209.651 35.625 208.471 35.4967Z" fill="#E6E6E6"/>
<path d="M180.798 22.6143C178.384 22.3518 175.383 22.3895 174.045 24.831C172.991 26.7535 174.27 29.6954 176.705 29.4361C176.926 29.4288 177.137 29.3435 177.301 29.1953C177.465 29.0472 177.572 28.8457 177.601 28.6266C177.631 28.4076 177.582 28.1851 177.463 27.9987C177.344 27.8123 177.164 27.6739 176.953 27.6082C175.213 27.07 173.681 28.7356 173.705 30.4128C173.733 32.3396 175.622 33.4876 177.197 34.1093L177.692 32.3147C177.114 32.1984 176.518 32.2047 175.943 32.3331C175.368 32.4616 174.826 32.7094 174.353 33.0605C173.88 33.4115 173.485 33.8581 173.195 34.3712C172.906 34.8843 172.727 35.4526 172.67 36.0392C172.508 38.6454 175.082 40.5343 177.507 40.1958C178.688 40.0308 178.185 38.2373 177.012 38.4011C176.695 38.4459 176.371 38.4202 176.065 38.326C175.758 38.2318 175.477 38.0712 175.239 37.8558C175.002 37.6404 174.815 37.3754 174.691 37.0795C174.568 36.7837 174.511 36.4643 174.525 36.144C174.538 35.8238 174.623 35.5105 174.771 35.2264C174.92 34.9422 175.129 34.6943 175.384 34.5001C175.639 34.3059 175.933 34.1702 176.247 34.1027C176.56 34.0351 176.885 34.0374 177.197 34.1093C177.432 34.1649 177.679 34.1273 177.886 34.0044C178.094 33.8815 178.246 33.683 178.31 33.4505C178.374 33.218 178.345 32.9698 178.23 32.7579C178.115 32.5461 177.922 32.3872 177.692 32.3147C176.931 32.0144 175.992 31.5464 175.656 30.7453C175.441 30.2308 175.762 29.1874 176.458 29.4028L176.705 27.5749C176.432 27.606 176.158 27.532 175.938 27.3681C175.718 27.2041 175.568 26.9625 175.519 26.6923C175.475 26.3937 175.514 26.0887 175.632 25.8108C175.749 25.5328 175.941 25.2926 176.187 25.1166C177.439 24.049 179.293 24.3118 180.798 24.4754C181.987 24.6047 181.978 22.7426 180.798 22.6143Z" fill="#E6E6E6"/>
<path d="M234.665 65.894C237.079 66.1564 240.079 66.1187 241.418 63.6773C242.472 61.7548 241.193 58.8129 238.757 59.0722C238.536 59.0795 238.325 59.1648 238.161 59.313C237.997 59.4611 237.891 59.6626 237.861 59.8816C237.832 60.1007 237.881 60.3231 237.999 60.5096C238.118 60.696 238.299 60.8344 238.51 60.9001C240.249 61.4383 241.782 59.7727 241.757 58.0955C241.729 56.1687 239.841 55.0207 238.266 54.399L237.771 56.1936C238.349 56.3099 238.944 56.3036 239.519 56.1752C240.095 56.0467 240.636 55.7989 241.11 55.4478C241.583 55.0967 241.977 54.6502 242.267 54.1371C242.557 53.624 242.736 53.0557 242.792 52.4691C242.955 49.8628 240.38 47.974 237.956 48.3125C236.775 48.4774 237.277 50.271 238.45 50.1072C238.768 50.0624 239.091 50.088 239.398 50.1823C239.704 50.2765 239.986 50.437 240.223 50.6525C240.461 50.8679 240.648 51.1329 240.771 51.4287C240.895 51.7246 240.952 52.044 240.938 52.3642C240.924 52.6845 240.84 52.9978 240.692 53.2819C240.543 53.5661 240.334 53.814 240.079 54.0082C239.824 54.2024 239.529 54.3381 239.216 54.4056C238.902 54.4732 238.578 54.4709 238.266 54.399C238.031 54.3434 237.784 54.3811 237.576 54.5039C237.369 54.6268 237.217 54.8254 237.153 55.0578C237.089 55.2903 237.118 55.5385 237.233 55.7504C237.348 55.9622 237.541 56.1211 237.771 56.1936C238.531 56.4939 239.471 56.9619 239.806 57.7629C240.022 58.2775 239.701 59.3209 239.005 59.1055L238.757 60.9333C239.03 60.9023 239.305 60.9763 239.525 61.1402C239.745 61.3041 239.895 61.5458 239.943 61.816C239.987 62.1146 239.949 62.4196 239.831 62.6975C239.713 62.9755 239.521 63.2156 239.276 63.3917C238.024 64.4593 236.17 64.1965 234.665 64.0328C233.476 63.9036 233.485 65.7657 234.665 65.894Z" fill="#E6E6E6"/>
<path d="M300.451 128.951L297.883 123.264L295.846 118.747L292.89 112.198L290.847 107.68L288.075 101.531C288.029 101.431 287.959 101.345 287.87 101.282C287.781 101.218 287.677 101.179 287.569 101.168C287.46 101.158 287.35 101.175 287.251 101.22C287.151 101.265 287.065 101.335 287.001 101.423L284.14 105.409L281.926 108.486L278.718 112.948L276.509 116.032L273.302 120.493L271.093 123.571L269.45 125.857C269.383 125.944 269.343 126.048 269.333 126.157C269.323 126.265 269.34 126.374 269.382 126.474C269.427 126.574 269.498 126.66 269.587 126.723C269.676 126.787 269.78 126.826 269.889 126.836L299.828 129.824C299.921 129.835 300.015 129.824 300.103 129.792C300.191 129.759 300.27 129.706 300.333 129.637C300.356 129.616 300.377 129.593 300.396 129.569C300.457 129.479 300.496 129.376 300.507 129.268C300.519 129.159 300.5 129.049 300.451 128.951Z" fill="#F5ACA4"/>
<path d="M292.889 112.198L281.926 108.486L284.141 105.409L290.847 107.68L292.889 112.198Z" fill="#E6E6E6"/>
<path d="M297.883 123.264L276.509 116.032L278.718 112.948L295.846 118.746L297.883 123.264Z" fill="#E6E6E6"/>
<path d="M300.333 129.637C300.27 129.706 300.191 129.759 300.103 129.792C300.015 129.824 299.921 129.835 299.828 129.824L285.272 128.371L271.093 123.571L273.302 120.493L300.333 129.637Z" fill="#E6E6E6"/>
<path d="M287.815 103.662C290.556 103.662 292.778 101.44 292.778 98.6991C292.778 95.9581 290.556 93.7361 287.815 93.7361C285.074 93.7361 282.852 95.9581 282.852 98.6991C282.852 101.44 285.074 103.662 287.815 103.662Z" fill="#F5ACA4"/>
<path d="M70.7148 122.569L67.5944 117.166L65.1191 112.873L61.5271 106.651L59.0456 102.358L55.6769 96.5137C55.622 96.4193 55.5432 96.341 55.4485 96.2866C55.3538 96.2322 55.2465 96.2035 55.1372 96.2035C55.028 96.2035 54.9207 96.2322 54.826 96.2866C54.7313 96.341 54.6525 96.4193 54.5975 96.5137L52.147 100.763L50.2487 104.045L47.5004 108.803L45.6083 112.091L42.86 116.85L40.9679 120.131L39.5596 122.569C39.5018 122.662 39.4717 122.77 39.4728 122.88C39.4733 122.988 39.501 123.095 39.5534 123.19C39.6079 123.285 39.6866 123.363 39.7814 123.418C39.8762 123.472 39.9838 123.501 40.0931 123.5H70.1813C70.2749 123.502 70.3677 123.482 70.4519 123.441C70.5361 123.4 70.6093 123.339 70.6652 123.264C70.6862 123.241 70.7049 123.216 70.721 123.19C70.7734 123.095 70.8011 122.988 70.8016 122.88C70.8027 122.77 70.7726 122.662 70.7148 122.569Z" fill="#F5ACA4"/>
<path d="M61.527 106.65L50.2489 104.045L52.147 100.763L59.0457 102.357L61.527 106.65Z" fill="#E6E6E6"/>
<path d="M67.5942 117.166L45.6082 112.091L47.5007 108.803L65.1189 112.873L67.5942 117.166Z" fill="#E6E6E6"/>
<path d="M70.6652 123.264C70.6093 123.339 70.5362 123.4 70.452 123.441C70.3678 123.482 70.275 123.502 70.1813 123.5H55.5529L40.9679 120.131L42.8601 116.85L70.6652 123.264Z" fill="#E6E6E6"/>
<path d="M55.1372 98.685C57.8782 98.685 60.1002 96.463 60.1002 93.722C60.1002 90.981 57.8782 88.759 55.1372 88.759C52.3963 88.759 50.1743 90.981 50.1743 93.722C50.1743 96.463 52.3963 98.685 55.1372 98.685Z" fill="#F5ACA4"/>
</g>
<defs>
<clipPath id="clip0_4_6">
<rect width="325" height="407.23" fill="white"/>
</clipPath>
</defs>
</svg>
