<svg width="23" height="23" viewBox="0 0 23 23" fill="none" xmlns="http://www.w3.org/2000/svg">
<path d="M7.75 17.9952C8.89014 18.6535 10.1835 19 11.5 19C12.8165 19 14.1099 18.6535 15.25 17.9952C16.3901 17.3369 17.3369 16.3901 17.9952 15.25C18.6535 14.1099 19 12.8165 19 11.5C19 10.1835 18.6535 8.89014 17.9952 7.75C17.3369 6.60986 16.3901 5.66307 15.25 5.00481C14.1099 4.34655 12.8165 4 11.5 4C10.1835 4 8.89014 4.34655 7.75 5.00481" stroke="white" stroke-width="2"/>
<path d="M2 12L1.21913 11.3753L0.719375 12L1.21913 12.6247L2 12ZM11 13C11.5523 13 12 12.5523 12 12C12 11.4477 11.5523 11 11 11V13ZM5.21913 6.3753L1.21913 11.3753L2.78087 12.6247L6.78087 7.6247L5.21913 6.3753ZM1.21913 12.6247L5.21913 17.6247L6.78087 16.3753L2.78087 11.3753L1.21913 12.6247ZM2 13H11V11H2V13Z" fill="white"/>
</svg>
