<svg width="88" height="98" viewBox="0 0 88 98" fill="none" xmlns="http://www.w3.org/2000/svg">
<path d="M75.7204 97.3404C77.783 97.3404 79.455 95.6729 79.455 93.6161C79.455 91.5592 77.783 89.8918 75.7204 89.8918C73.6579 89.8918 71.9859 91.5592 71.9859 93.6161C71.9859 95.6729 73.6579 97.3404 75.7204 97.3404Z" fill="#094A28"/>
<path d="M11.3755 97.3404C13.438 97.3404 15.11 95.6729 15.11 93.6161C15.11 91.5592 13.438 89.8918 11.3755 89.8918C9.31293 89.8918 7.64091 91.5592 7.64091 93.6161C7.64091 95.6729 9.31293 97.3404 11.3755 97.3404Z" fill="#094A28"/>
<path d="M81.874 0H6.22556C2.84231 0 0.0996513 2.73511 0.0996513 6.10904V87.5043C0.0996513 90.8783 2.84231 93.6134 6.22556 93.6134H81.874C85.2573 93.6134 87.9999 90.8783 87.9999 87.5043V6.10904C87.9999 2.73511 85.2573 0 81.874 0Z" fill="#589441"/>
<path d="M44.0518 86.214C62.2811 86.214 77.0588 71.4769 77.0588 53.2977C77.0588 35.1186 62.2811 20.3815 44.0518 20.3815C25.8224 20.3815 11.0447 35.1186 11.0447 53.2977C11.0447 71.4769 25.8224 86.214 44.0518 86.214Z" fill="white"/>
<path d="M75.721 10.7874C76.8285 10.7874 77.7262 9.89214 77.7262 8.78775C77.7262 7.68336 76.8285 6.78807 75.721 6.78807C74.6136 6.78807 73.7158 7.68336 73.7158 8.78775C73.7158 9.89214 74.6136 10.7874 75.721 10.7874Z" fill="#094A28"/>
<path d="M66.3121 10.6994C67.4195 10.6994 68.3172 9.80411 68.3172 8.69972C68.3172 7.59533 67.4195 6.70004 66.3121 6.70004C65.2046 6.70004 64.3069 7.59533 64.3069 8.69972C64.3069 9.80411 65.2046 10.6994 66.3121 10.6994Z" fill="#094A28"/>
<path d="M29.2538 7.6139H8.77162V10.0344H29.2538V7.6139Z" fill="#094A28"/>
<path d="M87.9996 14.1411H0V15.5412H87.9996V14.1411Z" fill="#094A28"/>
<path d="M19.1993 69.2574C16.6316 66.2812 14.9299 62.6608 14.2788 58.7887C13.9723 56.8532 13.9038 54.8876 14.0746 52.9355C14.2289 50.9831 14.5857 49.052 15.1393 47.173C17.3458 39.6666 22.3602 32.9662 29.0764 28.8458C32.4482 26.7949 36.2009 25.4449 40.1091 24.8768C42.0559 24.5983 44.025 24.5061 45.9895 24.6017C46.9714 24.6457 47.9478 24.753 48.9214 24.8768C49.4069 24.9593 49.8923 25.0335 50.3722 25.1298C50.8521 25.2261 51.3348 25.3196 51.8092 25.4516C55.6261 26.3908 59.2419 28.0083 62.4834 30.2266C65.7087 32.4445 68.5179 35.2106 70.7827 38.3986C66.1104 32.1741 59.2756 27.5998 51.7099 25.8615C47.9325 24.9747 44.0215 24.8039 40.1808 25.3581C36.3473 25.9337 32.6698 27.2753 29.3687 29.3024C26.06 31.3231 23.1599 33.9437 20.8184 37.0288C18.4728 40.1125 16.687 43.5821 15.542 47.2803C14.9685 49.1268 14.5877 51.0274 14.4056 52.952C14.2142 54.8754 14.2559 56.8147 14.5297 58.7282C14.6097 59.204 14.6704 59.6854 14.7863 60.1558L14.9435 60.8626L15.1338 61.564C15.4064 62.4937 15.7428 63.4035 16.1405 64.2871C16.9512 66.0631 17.9786 67.7325 19.1993 69.2574V69.2574Z" fill="#094A28"/>
<path d="M14.6874 60.9361C15.8634 65.0671 17.9032 68.9031 20.6727 72.1914C29.8684 83.0342 43.4 83.0425 44.484 83.0232C54.5734 82.861 61.4137 77.6624 63.4575 75.9735C68.168 72.0599 71.621 66.8517 73.3869 60.9966C71.0066 65.0179 66.5742 67.2294 62.2466 66.594C57.1688 65.8486 54.6589 61.5384 54.3583 60.9966C53.2387 62.8249 51.6498 64.3218 49.7557 65.3324C47.8617 66.3431 45.7313 66.8309 43.5848 66.7453C37.4093 66.4702 34.1877 61.4257 33.9312 60.9966C33.5423 61.4972 30.158 65.6918 24.3245 65.6863C18.4909 65.6808 15.0681 61.4312 14.6874 60.9361Z" fill="#094A28"/>
<path d="M55.3325 71.9665C56.4399 71.9665 57.3377 71.0712 57.3377 69.9668C57.3377 68.8625 56.4399 67.9672 55.3325 67.9672C54.225 67.9672 53.3273 68.8625 53.3273 69.9668C53.3273 71.0712 54.225 71.9665 55.3325 71.9665Z" fill="#589441"/>
<path d="M45.8077 75.8254C46.5663 75.8254 47.1813 75.2121 47.1813 74.4556C47.1813 73.6991 46.5663 73.0858 45.8077 73.0858C45.0491 73.0858 44.4341 73.6991 44.4341 74.4556C44.4341 75.2121 45.0491 75.8254 45.8077 75.8254Z" fill="#589441"/>
<path d="M53.3287 78.5643C54.0873 78.5643 54.7023 77.951 54.7023 77.1945C54.7023 76.438 54.0873 75.8247 53.3287 75.8247C52.5701 75.8247 51.9551 76.438 51.9551 77.1945C51.9551 77.951 52.5701 78.5643 53.3287 78.5643Z" fill="#589441"/>
<path d="M49.0432 33.3095C47.3773 35.3633 45.6865 37.396 43.9709 39.4076C42.2554 41.4192 40.526 43.4179 38.7828 45.4039C37.0341 47.3861 35.2744 49.3592 33.5037 51.3231C31.7329 53.287 29.9328 55.2253 28.1032 57.1378C29.7581 55.0822 31.4488 53.0496 33.1755 51.0398C34.9021 49.03 36.6314 47.0313 38.3636 45.0435C40.1123 43.0604 41.8665 41.0827 43.6455 39.127C45.4245 37.1714 47.2173 35.2239 49.0432 33.3095Z" fill="#094A28"/>
<path d="M57.3392 43.5581C56.0631 45.1736 54.7603 46.7653 53.4309 48.3331C52.107 49.9064 50.7582 51.4578 49.404 53.0091C48.0497 54.5604 46.6789 56.087 45.2888 57.6026C43.8986 59.1181 42.492 60.6282 41.055 62.0943C42.3311 60.4788 43.6348 58.8871 44.966 57.3193C46.29 55.7459 47.636 54.1946 48.9902 52.6433C50.3445 51.0919 51.7181 49.5654 53.1082 48.0498C54.4983 46.5342 55.8995 45.0324 57.3392 43.5581Z" fill="#094A28"/>
</svg>
