<svg width="120" height="162" viewBox="0 0 120 162" fill="none" xmlns="http://www.w3.org/2000/svg">
<path d="M6.51447 14.1678C6.51447 26.4957 6.62654 28.7371 7.63518 32.5475C9.76454 40.6727 11.1654 42.634 23.1571 54.7937L31.8426 63.5353L26.0149 66.5052C12.5663 73.3976 5.50583 81.4107 1.41522 94.523C-0.433958 100.519 -0.489994 111.166 1.35918 118.338C5.05754 132.571 7.85933 138.231 15.4241 146.188C21.8122 153.024 28.9848 157.283 38.735 160.141C43.0498 161.43 43.8903 161.486 62.8304 161.486C79.6971 161.486 83.0032 161.374 86.6455 160.477C98.8053 157.563 107.491 153.248 116.793 145.516C118.698 143.947 120.155 142.378 119.987 142.153C119.482 141.313 97.1242 130.498 94.4905 129.77C91.2405 128.873 82.5549 128.873 79.4169 129.77C74.1496 131.282 70.7314 133.356 66.4727 137.671C62.9424 141.257 61.5415 143.33 57.507 150.727C54.9293 155.602 52.6879 159.356 52.6319 159.132C52.5198 158.852 55.0414 148.429 58.1794 135.989C63.839 113.295 63.895 113.295 63.895 106.291C63.895 100.631 63.6709 98.4455 62.6062 94.8032C60.4208 87.1263 57.3389 82.0271 51.343 76.0312C46.636 71.3242 45.2351 70.3156 39.1273 67.1216L32.2909 63.5353L41.7609 53.8411C50.1663 45.2676 51.5111 43.6426 53.5284 39.496C57.0587 32.4355 57.563 28.9612 57.3949 13.3833L57.2268 0.102844L44.4506 12.7109L31.7305 25.3189L19.1225 12.7109L6.51447 0.102844V14.1678Z" fill="url(#paint0_linear_218_1631)"/>
<defs>
<linearGradient id="paint0_linear_218_1631" x1="60" y1="161.486" x2="60.8546" y2="0.0950178" gradientUnits="userSpaceOnUse">
<stop stop-color="#FDA39A"/>
<stop offset="1" stop-color="#FBC2A5"/>
</linearGradient>
</defs>
</svg>
