<svg width="328" height="266" viewBox="0 0 328 266" fill="none" xmlns="http://www.w3.org/2000/svg">
<path d="M164 265.969C254.575 265.969 328 226.743 328 178.356C328 129.968 254.575 90.7427 164 90.7427C73.4253 90.7427 0 129.968 0 178.356C0 226.743 73.4253 265.969 164 265.969Z" fill="#F5F5F5"/>
<path d="M98.002 227.125L45.7134 196.723L134.157 145.61L98.002 227.125Z" fill="#E0E0E0"/>
<path d="M22.5262 194.857L43.8325 207.141C44.2754 207.366 44.765 207.483 45.2615 207.483C45.7581 207.483 46.2477 207.366 46.6905 207.141L76.0786 189.993C76.2515 189.936 76.4019 189.826 76.5086 189.678C76.6152 189.53 76.6726 189.353 76.6726 189.17C76.6726 188.988 76.6152 188.811 76.5086 188.663C76.4019 188.515 76.2515 188.405 76.0786 188.348L54.7722 176.056C54.3294 175.831 53.8398 175.714 53.3432 175.714C52.8467 175.714 52.3571 175.831 51.9142 176.056L22.5262 193.204C22.3542 193.263 22.2049 193.375 22.0993 193.523C21.9937 193.671 21.9369 193.849 21.9369 194.03C21.9369 194.212 21.9937 194.39 22.0993 194.538C22.2049 194.686 22.3542 194.798 22.5262 194.857Z" fill="#E0E0E0"/>
<path d="M24.8329 192.947C23.3635 190.581 18.8304 187.98 12.8793 186.695C6.92821 185.409 0.947745 183.837 2.31429 180.361C3.78369 176.637 9.32334 176.453 14.7381 178.672C20.6524 181.096 25.0239 187.091 25.1047 190.868L24.8329 192.947Z" fill="#094A28"/>
<g opacity="0.1">
<path d="M24.8329 192.947C23.3635 190.581 18.8304 187.98 12.8793 186.695C6.92821 185.409 0.947745 183.837 2.31429 180.361C3.78369 176.637 9.32334 176.453 14.7381 178.672C20.6524 181.096 25.0239 187.091 25.1047 190.868L24.8329 192.947Z" fill="#094A28"/>
</g>
<path d="M25.2957 191.874C25.212 191.874 25.1302 191.849 25.06 191.803C24.9897 191.758 24.9338 191.693 24.899 191.617C20.1748 181.846 9.22044 180.266 5.79674 180.802C5.67992 180.819 5.56117 180.789 5.46625 180.719C5.37134 180.649 5.30793 180.544 5.28979 180.428C5.28037 180.37 5.28242 180.312 5.29582 180.255C5.30921 180.198 5.3337 180.145 5.36785 180.098C5.402 180.051 5.44515 180.011 5.4948 179.98C5.54445 179.95 5.59963 179.93 5.65714 179.921C9.28657 179.362 20.7846 181.001 25.7292 191.235C25.78 191.341 25.7869 191.464 25.7484 191.575C25.7099 191.686 25.6291 191.778 25.5235 191.83C25.4522 191.863 25.3741 191.878 25.2957 191.874Z" fill="white"/>
<path d="M24.8329 192.947C24.8329 192.947 21.9896 181.684 14.7821 175.63C12.6442 173.83 10.3739 171.574 8.76494 170.024C5.34123 166.689 6.7739 163.052 11.5127 163.125C18.5659 163.221 23.7235 169.157 25.9569 176.923C28.1904 184.689 24.8329 192.947 24.8329 192.947Z" fill="#094A28"/>
<path d="M25.9569 188.575C25.8453 188.576 25.7376 188.535 25.6547 188.46C25.5718 188.385 25.5198 188.282 25.5088 188.171C24.1863 173.845 13.254 166.645 10.2784 165.881C10.1644 165.851 10.0667 165.778 10.0068 165.677C9.94685 165.575 9.9296 165.455 9.95883 165.341C9.98806 165.227 10.0614 165.129 10.1626 165.069C10.2639 165.009 10.3848 164.992 10.4988 165.021C14.1136 165.947 25.0386 173.419 26.3978 188.091C26.408 188.208 26.3713 188.325 26.2956 188.416C26.2199 188.507 26.1114 188.564 25.9937 188.575H25.9569Z" fill="white"/>
<path d="M44.5527 205.334L24.4807 193.74L24.4734 150.687L44.5527 162.281V205.334Z" fill="#263238"/>
<path d="M44.5527 162.281L73.2354 145.72V188.774L44.5527 205.334V162.281Z" fill="#37474F"/>
<path d="M73.2353 145.721L44.5525 162.281L24.4731 150.687L53.1632 134.127L73.2353 145.721Z" fill="#579540"/>
<path d="M56.9471 161.752L60.8484 159.496C61.3553 159.202 61.7668 159.334 61.7668 159.797C61.7295 160.079 61.6271 160.347 61.4677 160.582C61.3082 160.817 61.0962 161.011 60.8484 161.149L56.9471 163.405C56.4402 163.699 56.0288 163.566 56.0288 163.103C56.066 162.822 56.1684 162.553 56.3279 162.319C56.4873 162.084 56.6994 161.89 56.9471 161.752Z" fill="#263238"/>
<path d="M46.8964 184.116L69.8412 170.869L70.3701 171.17L69.8412 186.812L70.3701 187.121L47.4254 200.367L46.8964 200.059V184.116Z" fill="#263238"/>
<path d="M47.4255 184.417L70.3702 171.17V187.121L47.4255 200.368V184.417Z" fill="#579540"/>
<path d="M56.4181 181.926L60.3194 179.678C60.8263 179.384 61.2377 179.517 61.2377 179.972C61.201 180.255 61.0989 180.524 60.9394 180.76C60.78 180.996 60.5677 181.192 60.3194 181.331L56.4181 183.587C55.9112 183.881 55.4997 183.741 55.4997 183.286C55.5375 183.004 55.6401 182.734 55.7995 182.498C55.9588 182.263 56.1705 182.067 56.4181 181.926Z" fill="#263238"/>
<path d="M46.8964 164.279L69.8412 151.032L70.3701 151.334L69.8412 166.975L70.3701 167.284L47.4254 180.531L46.8964 180.222V164.279Z" fill="#263238"/>
<path d="M47.4255 164.58L70.3702 151.334V167.284L47.4255 180.531V164.58Z" fill="#579540"/>
<path d="M56.4181 162.089L60.3194 159.841C60.8263 159.547 61.2377 159.68 61.2377 160.135C61.201 160.418 61.0989 160.688 60.9394 160.923C60.78 161.159 60.5677 161.355 60.3194 161.494L56.4181 163.75C55.9112 164.044 55.4997 163.904 55.4997 163.449C55.5375 163.167 55.6401 162.897 55.7995 162.661C55.9588 162.426 56.1705 162.23 56.4181 162.089Z" fill="#263238"/>
<path d="M44.5525 160.451L24.4805 148.858L24.4731 105.797L44.5525 117.391V160.451Z" fill="#263238"/>
<path d="M44.5525 117.391L73.2352 100.83V143.891L44.5525 160.451V117.391Z" fill="#37474F"/>
<path d="M73.235 100.83L44.5523 117.39L24.4729 105.797L53.163 89.2366L73.235 100.83Z" fill="#579540"/>
<path d="M47.4253 119.044L70.37 105.797L70.899 106.106V122.049L47.9542 135.303L47.4253 134.994V119.044Z" fill="#263238"/>
<path d="M56.9469 116.862L60.8482 114.606C61.3551 114.312 61.7665 114.452 61.7665 114.907C61.7287 115.189 61.6261 115.459 61.4668 115.695C61.3075 115.93 61.0957 116.126 60.8482 116.266L56.9469 118.515C56.44 118.809 56.0285 118.676 56.0285 118.221C56.0652 117.938 56.1674 117.668 56.3268 117.432C56.4863 117.197 56.6986 117.001 56.9469 116.862Z" fill="#263238"/>
<path d="M46.8962 139.226L69.8409 125.979V141.93L70.3699 142.231L47.4252 155.477L46.8962 155.176V139.226Z" fill="#263238"/>
<path d="M47.4253 139.535L70.37 126.28V142.231L47.4253 155.478V139.535Z" fill="#579540"/>
<path d="M56.4179 137.044L60.3191 134.788C60.8261 134.494 61.2375 134.627 61.2375 135.089C61.2002 135.371 61.0978 135.639 60.9384 135.874C60.7789 136.109 60.5669 136.303 60.3191 136.441L56.4179 138.697C55.9109 138.991 55.4995 138.858 55.4995 138.396C55.5367 138.114 55.6392 137.846 55.7986 137.611C55.958 137.376 56.1701 137.182 56.4179 137.044Z" fill="#263238"/>
<path d="M47.4253 119.044L70.37 105.797V121.747L47.4253 134.994V119.044Z" fill="#263238"/>
<path d="M81.8459 113.673L69.2825 106.429V120.476L81.8459 127.728V113.673Z" fill="#263238"/>
<path d="M56.0285 137.264V117.391L60.951 114.54L61.7665 115.737L76.1079 107.45V125.671L56.0285 137.264Z" fill="#094A28"/>
<g opacity="0.2">
<path d="M56.0285 137.264V117.391L60.951 114.54L61.7665 115.737L76.1079 107.45V125.671L56.0285 137.264Z" fill="#094A28"/>
</g>
<path d="M56.0285 137.264L57.4612 119.874L77.5406 108.28L76.1079 125.671L56.0285 137.264Z" fill="#094A28"/>
<path d="M58.894 126.927L47.9469 120.609V134.656L58.894 140.974V126.927Z" fill="#37474F"/>
<path d="M58.8939 125.671L81.846 112.424V128.367L58.8939 141.621V125.671Z" fill="#579540"/>
<path d="M67.8939 123.18L71.7952 120.924C72.3021 120.631 72.7136 120.77 72.7136 121.226C72.6757 121.508 72.5731 121.777 72.4138 122.013C72.2545 122.249 72.0428 122.444 71.7952 122.585L67.8939 124.833C67.387 125.127 66.9755 124.995 66.9755 124.539C67.0134 124.257 67.116 123.988 67.2753 123.752C67.4346 123.516 67.6463 123.32 67.8939 123.18Z" fill="#263238"/>
<path d="M58.8939 125.671L58.1298 125.23V141.18L58.8939 141.621V125.671Z" fill="#263238"/>
<path d="M58.1298 125.23L81.0818 111.983L81.8459 112.424L58.8939 125.671L58.1298 125.23Z" fill="#37474F"/>
<path d="M250.57 10.6676L247.587 8.9337L95.3641 96.804V224.076C95.3234 224.47 95.3877 224.868 95.5502 225.229C95.7128 225.591 95.9679 225.902 96.2898 226.133L99.2727 227.867C99.6345 228.034 100.034 228.101 100.43 228.062C100.827 228.023 101.205 227.88 101.528 227.647L247.366 143.428C248.292 142.824 249.063 142.01 249.615 141.053C250.168 140.096 250.487 139.022 250.548 137.918L250.57 10.6676Z" fill="#E6E6E6"/>
<path d="M98.347 225.81C98.347 227.838 99.765 228.661 101.528 227.647L247.366 143.428C248.292 142.824 249.063 142.01 249.615 141.053C250.168 140.096 250.487 139.022 250.548 137.918V10.6676L98.347 98.5452V225.81Z" fill="#FAFAFA"/>
<path d="M249.835 11.9166V137.933C249.775 138.908 249.489 139.856 249.001 140.702C248.513 141.549 247.835 142.27 247.021 142.811L101.183 227.008C100.865 227.209 100.501 227.325 100.125 227.346C99.1993 227.346 99.1037 226.273 99.1037 225.81V98.964L249.835 11.9166ZM250.57 10.6455L98.347 98.5452V225.81C98.347 227.28 99.0817 228.08 100.103 228.08C100.607 228.061 101.098 227.911 101.528 227.647L247.366 143.428C248.292 142.824 249.063 142.01 249.615 141.053C250.168 140.096 250.487 139.022 250.548 137.918V10.6676L250.57 10.6455Z" fill="#E0E0E0"/>
<path d="M98.347 98.5452V112.321L250.548 24.4432V10.6676L98.347 98.5452Z" fill="#094A28"/>
<path d="M193.843 48.806V51.7448C193.843 52.3473 194.277 52.5971 194.799 52.2958L241.592 25.2735V20.1306L194.799 47.1823C194.525 47.3616 194.297 47.6013 194.132 47.8829C193.966 48.1644 193.867 48.4803 193.843 48.806Z" fill="#FAFAFA"/>
<path d="M246.61 17.2432C247.139 16.9346 247.565 17.1844 247.565 17.7942V20.733C247.547 21.0644 247.452 21.387 247.286 21.6743C247.12 21.9616 246.888 22.2056 246.61 22.3861L241.592 25.2808V20.1379L246.61 17.2432Z" fill="#579540"/>
<path d="M246.242 21.306L245.677 21.1297C245.739 20.8897 245.771 20.6429 245.772 20.395C245.797 20.169 245.763 19.9404 245.673 19.7317C245.583 19.5229 245.44 19.3413 245.258 19.2048C245.134 19.1317 244.994 19.0932 244.85 19.0932C244.707 19.0932 244.566 19.1317 244.442 19.2048C244.086 19.4781 243.8 19.8313 243.606 20.2359C243.412 20.6405 243.316 21.0852 243.326 21.5338C243.299 21.7599 243.332 21.989 243.423 22.198C243.513 22.407 243.657 22.5884 243.84 22.724C243.946 22.7887 244.068 22.8218 244.193 22.8195C244.353 22.8161 244.51 22.7705 244.648 22.6873C245.076 22.3953 245.394 21.9686 245.552 21.475L246.117 21.6513H246.162C246.205 21.6521 246.248 21.639 246.283 21.6139C246.319 21.5888 246.346 21.553 246.36 21.5117C246.363 21.4697 246.353 21.4276 246.332 21.391C246.311 21.3544 246.28 21.3248 246.242 21.306ZM244.442 22.3787C244.386 22.4215 244.319 22.4477 244.249 22.4542C244.179 22.4607 244.108 22.4472 244.046 22.4154C243.932 22.3119 243.845 22.1822 243.792 22.0375C243.74 21.8929 243.723 21.7376 243.744 21.5852C243.737 21.2101 243.814 20.8382 243.971 20.4973C244.127 20.1564 244.359 19.8552 244.648 19.6162C244.726 19.5681 244.814 19.5403 244.905 19.5354C244.957 19.5352 245.009 19.5506 245.052 19.5795C245.164 19.6841 245.25 19.814 245.303 19.9583C245.355 20.1026 245.372 20.2573 245.353 20.4097C245.359 20.7853 245.281 21.1573 245.123 21.4983C244.965 21.8392 244.732 22.1401 244.442 22.3787Z" fill="#FAFAFA"/>
<path d="M246.661 0.227577C246.299 0.0502575 245.895 -0.0243209 245.494 0.011951C245.092 0.0482229 244.708 0.19396 244.384 0.433298L98.5454 84.6521C97.6184 85.2549 96.8471 86.0683 96.2943 87.0259C95.7414 87.9835 95.4227 89.0582 95.3641 90.1623V96.8261L98.347 98.5673L250.57 10.6677V4.00395C250.614 3.61132 250.553 3.2139 250.391 2.85327C250.23 2.49265 249.974 2.1821 249.651 1.95413C249.1 1.63086 247.183 0.543498 246.661 0.227577Z" fill="#263238"/>
<path d="M98.347 91.8815C98.4044 90.7771 98.7226 89.702 99.2756 88.7442C99.8285 87.7864 100.601 86.9732 101.528 86.3713L247.366 2.16719C249.122 1.1533 250.548 1.97617 250.548 4.00394V10.6677L98.347 98.5453V91.8815Z" fill="#37474F"/>
<path d="M249.659 1.96875C249.295 1.78749 248.889 1.7101 248.485 1.7451C248.08 1.7801 247.693 1.92615 247.366 2.16713L101.528 86.3639C100.589 86.95 99.8145 87.767 99.28 88.737L96.2824 87.0104C96.8196 86.038 97.5959 85.2187 98.538 84.63L244.383 0.425882C244.709 0.187717 245.093 0.043289 245.495 0.00831378C245.896 -0.0266614 246.3 0.0491521 246.661 0.22751C247.183 0.543432 249.093 1.63814 249.6 1.94671L249.659 1.96875Z" fill="#579540"/>
<path d="M232.643 14.1207C232.213 14.4066 231.856 14.7895 231.6 15.2387C231.345 15.6879 231.199 16.1908 231.174 16.7068C231.174 17.6546 231.842 18.044 232.643 17.5664C233.073 17.2805 233.431 16.8975 233.686 16.4483C233.941 15.9991 234.087 15.4963 234.112 14.9803C234.134 14.0178 233.466 13.6284 232.643 14.1207Z" fill="#094A28"/>
<path d="M237.867 11.101C237.436 11.3853 237.079 11.767 236.824 12.215C236.569 12.663 236.423 13.1648 236.397 13.6798C236.397 14.6349 237.066 15.017 237.867 14.5468C238.296 14.26 238.653 13.8769 238.908 13.4279C239.163 12.9788 239.31 12.4764 239.336 11.9606C239.358 11.0055 238.69 10.6235 237.867 11.101Z" fill="#094A28"/>
<path d="M243.083 8.08878C242.653 8.37468 242.296 8.75765 242.04 9.20684C241.785 9.65604 241.639 10.1589 241.614 10.6749C241.614 11.63 242.282 12.0121 243.083 11.5345C243.515 11.2499 243.873 10.8673 244.128 10.4178C244.383 9.96832 244.529 9.4648 244.552 8.94838C244.582 8.00062 243.913 7.61123 243.083 8.08878Z" fill="#094A28"/>
<path d="M101.528 227.647L128.191 212.255V95.0848L98.347 112.321V225.81C98.347 227.838 99.765 228.654 101.528 227.647Z" fill="#F5F5F5"/>
<path d="M127.456 96.3559V211.829L101.161 227.008C100.843 227.209 100.479 227.325 100.103 227.346C99.1772 227.346 99.0817 226.273 99.0817 225.81V112.74L127.456 96.3559ZM128.191 95.0848L98.347 112.321V225.81C98.347 227.28 99.0817 228.08 100.103 228.08C100.607 228.061 101.098 227.911 101.528 227.647L128.191 212.255V95.0848Z" fill="#E0E0E0"/>
<path d="M108.251 113.489L122.533 105.224C123.055 104.915 123.481 105.165 123.481 105.775V107.016C123.463 107.347 123.368 107.668 123.203 107.955C123.039 108.242 122.809 108.487 122.533 108.669L108.251 116.92C107.722 117.229 107.296 116.979 107.296 116.369V115.142C107.315 114.811 107.412 114.49 107.578 114.203C107.743 113.916 107.974 113.671 108.251 113.489Z" fill="#E0E0E0"/>
<path d="M104.313 116.869V118.11C104.295 118.442 104.199 118.764 104.033 119.051C103.867 119.338 103.636 119.582 103.358 119.763L102.285 120.381C101.756 120.689 101.33 120.439 101.33 119.83V118.588C101.348 118.257 101.444 117.934 101.61 117.647C101.776 117.36 102.007 117.116 102.285 116.935L103.358 116.318C103.887 116.009 104.313 116.244 104.313 116.869Z" fill="#094A28"/>
<path d="M108.251 120.358L122.533 112.108C123.055 111.799 123.481 112.049 123.481 112.651V113.893C123.463 114.224 123.368 114.547 123.203 114.835C123.039 115.123 122.809 115.369 122.533 115.553L108.251 123.804C107.722 124.105 107.296 123.863 107.296 123.253V122.012C107.314 121.68 107.41 121.358 107.576 121.071C107.742 120.784 107.973 120.54 108.251 120.358Z" fill="#E0E0E0"/>
<path d="M104.313 123.731V124.972C104.295 125.304 104.2 125.626 104.034 125.914C103.868 126.201 103.636 126.445 103.358 126.625L102.285 127.25C101.756 127.551 101.33 127.309 101.33 126.699V125.457C101.347 125.126 101.443 124.803 101.609 124.516C101.775 124.229 102.007 123.985 102.285 123.804L103.358 123.18C103.887 122.856 104.313 123.121 104.313 123.731Z" fill="#094A28"/>
<path d="M108.251 127.221L122.533 118.97C123.055 118.669 123.481 118.911 123.481 119.521V120.763C123.464 121.093 123.369 121.415 123.205 121.702C123.04 121.99 122.81 122.234 122.533 122.416L108.251 130.666C107.722 130.975 107.296 130.725 107.296 130.123V128.874C107.316 128.543 107.413 128.222 107.578 127.935C107.744 127.648 107.974 127.403 108.251 127.221Z" fill="#E0E0E0"/>
<path d="M104.313 130.6V131.842C104.295 132.173 104.2 132.496 104.034 132.783C103.868 133.071 103.636 133.314 103.358 133.495L102.285 134.12C101.756 134.421 101.33 134.171 101.33 133.568V132.319C101.349 131.989 101.445 131.667 101.611 131.38C101.777 131.092 102.008 130.848 102.285 130.666L103.358 130.049C103.887 129.748 104.313 129.99 104.313 130.6Z" fill="#094A28"/>
<path d="M108.251 149.996L122.533 141.738C123.055 141.437 123.481 141.679 123.481 142.289V143.531C123.464 143.862 123.369 144.183 123.205 144.471C123.04 144.758 122.81 145.002 122.533 145.184L108.251 153.442C107.722 153.743 107.296 153.501 107.296 152.891V151.649C107.314 151.318 107.41 150.996 107.576 150.709C107.742 150.422 107.973 150.178 108.251 149.996Z" fill="#E0E0E0"/>
<path d="M104.313 153.369V154.61C104.295 154.942 104.2 155.264 104.034 155.551C103.868 155.839 103.636 156.083 103.358 156.263L102.285 156.888C101.756 157.189 101.33 156.947 101.33 156.337V155.095C101.347 154.764 101.443 154.441 101.609 154.154C101.775 153.867 102.007 153.623 102.285 153.442L103.358 152.818C103.887 152.516 104.313 152.759 104.313 153.369Z" fill="#094A28"/>
<path d="M108.251 156.072L122.533 147.836C123.055 147.535 123.481 147.777 123.481 148.387V149.629C123.464 149.96 123.369 150.281 123.205 150.569C123.04 150.856 122.81 151.1 122.533 151.282L108.251 159.518C107.722 159.827 107.296 159.577 107.296 158.967V157.725C107.316 157.395 107.413 157.073 107.578 156.786C107.744 156.499 107.974 156.255 108.251 156.072Z" fill="#E0E0E0"/>
<path d="M104.313 159.452V160.694C104.295 161.025 104.2 161.347 104.034 161.635C103.868 161.922 103.636 162.166 103.358 162.347L102.285 162.964C101.756 163.272 101.33 163.023 101.33 162.413V161.171C101.349 160.84 101.445 160.518 101.611 160.231C101.777 159.944 102.008 159.7 102.285 159.518L103.358 158.901C103.887 158.6 104.313 158.857 104.313 159.452Z" fill="#094A28"/>
<path d="M108.251 162.156L122.533 153.905C123.055 153.596 123.481 153.846 123.481 154.456V155.698C123.463 156.028 123.368 156.349 123.203 156.636C123.039 156.923 122.809 157.168 122.533 157.351L108.251 165.601C107.722 165.91 107.296 165.66 107.296 165.05V163.809C107.315 163.478 107.412 163.156 107.578 162.869C107.743 162.582 107.974 162.338 108.251 162.156Z" fill="#E0E0E0"/>
<path d="M104.313 165.535V166.777C104.295 167.108 104.199 167.43 104.033 167.718C103.867 168.005 103.636 168.249 103.358 168.43L102.285 169.047C101.756 169.356 101.33 169.106 101.33 168.496V167.254C101.348 166.923 101.444 166.601 101.61 166.314C101.776 166.026 102.007 165.782 102.285 165.601L103.358 164.984C103.887 164.676 104.313 164.925 104.313 165.535Z" fill="#094A28"/>
<path d="M107.296 134.722V136.86L109.154 134.722H107.296Z" fill="#094A28"/>
<path d="M110.286 134.274C110.286 134.678 110.565 134.832 110.918 134.626L122.849 127.764C123.034 127.643 123.187 127.48 123.297 127.289C123.407 127.097 123.47 126.883 123.481 126.662C123.481 126.258 123.202 126.096 122.849 126.302L110.918 133.186C110.734 133.305 110.581 133.465 110.472 133.654C110.362 133.843 110.298 134.056 110.286 134.274Z" fill="#E0E0E0"/>
<path d="M107.296 138.16V140.306L109.154 138.16H107.296Z" fill="#094A28"/>
<path d="M110.286 137.72C110.286 138.116 110.565 138.278 110.918 138.072L122.849 131.203C123.034 131.084 123.188 130.922 123.298 130.732C123.408 130.542 123.471 130.328 123.481 130.108C123.481 129.704 123.202 129.542 122.849 129.748L110.918 136.632C110.734 136.751 110.581 136.911 110.472 137.1C110.362 137.289 110.298 137.501 110.286 137.72Z" fill="#E0E0E0"/>
<path d="M107.296 141.606V143.751L109.154 141.606H107.296Z" fill="#094A28"/>
<path d="M110.286 141.165C110.286 141.562 110.565 141.724 110.918 141.518L122.849 134.648C123.034 134.529 123.188 134.368 123.298 134.178C123.408 133.987 123.471 133.773 123.481 133.554C123.481 133.15 123.202 132.988 122.849 133.194L110.918 140.078C110.734 140.197 110.581 140.357 110.472 140.546C110.362 140.735 110.298 140.947 110.286 141.165Z" fill="#E0E0E0"/>
<path d="M107.296 145.052V147.197L109.154 145.052H107.296Z" fill="#094A28"/>
<path d="M110.286 144.611C110.286 145.008 110.565 145.169 110.918 144.964L122.849 138.094C123.034 137.975 123.188 137.814 123.298 137.623C123.408 137.433 123.471 137.219 123.481 136.999C123.481 136.595 123.202 136.434 122.849 136.639L110.918 143.524C110.734 143.642 110.581 143.803 110.472 143.992C110.362 144.181 110.298 144.393 110.286 144.611Z" fill="#E0E0E0"/>
<path d="M137.139 99.1918V117.148C137.139 117.883 137.668 118.206 138.322 117.831L158.063 106.429C158.408 106.206 158.695 105.905 158.901 105.55C159.106 105.195 159.225 104.796 159.246 104.386V89.626C159.246 88.8913 158.717 88.568 158.063 88.9427L146.609 95.555C145.956 95.9297 145.427 95.6285 145.427 94.8791V94.4089C145.427 93.6742 144.905 93.3509 144.251 93.7256L138.322 97.142C137.978 97.3666 137.691 97.6693 137.486 98.0255C137.28 98.3816 137.161 98.7812 137.139 99.1918Z" fill="#579540"/>
<path d="M141.026 120.535V121.688C141.026 122.247 141.422 122.474 141.907 122.195L156.719 113.643C156.976 113.476 157.19 113.25 157.343 112.985C157.496 112.719 157.584 112.421 157.601 112.115V110.962C157.601 110.403 157.204 110.175 156.719 110.455L141.907 119.007C141.65 119.174 141.437 119.4 141.284 119.665C141.13 119.931 141.042 120.229 141.026 120.535Z" fill="#E0E0E0"/>
<path d="M164.61 83.4324V101.388C164.61 102.123 165.139 102.439 165.785 102.064L185.527 90.6692C185.87 90.4453 186.156 90.1437 186.361 89.789C186.567 89.4342 186.686 89.036 186.709 88.6267V73.8592C186.709 73.1245 186.18 72.8013 185.527 73.176L174.073 79.7883C173.419 80.163 172.897 79.8544 172.897 79.105V78.6348C172.897 77.9001 172.368 77.5842 171.714 77.9589L165.785 81.3826C165.442 81.6076 165.156 81.9105 164.952 82.2667C164.748 82.6229 164.63 83.0223 164.61 83.4324Z" fill="#579540"/>
<path d="M168.474 104.776V105.958C168.474 106.524 168.871 106.752 169.356 106.473L184.167 97.8767C184.424 97.7073 184.638 97.4803 184.791 97.2136C184.944 96.947 185.032 96.6482 185.049 96.3412V95.195C185.049 94.6293 184.652 94.4016 184.167 94.6881L169.356 103.24C169.099 103.409 168.886 103.636 168.733 103.903C168.58 104.17 168.491 104.469 168.474 104.776Z" fill="#E0E0E0"/>
<path d="M137.139 135.266V153.222C137.139 153.956 137.668 154.28 138.322 153.905L158.063 142.502C158.403 142.282 158.687 141.985 158.893 141.636C159.098 141.286 159.219 140.894 159.246 140.489V125.722C159.246 124.987 158.717 124.671 158.063 125.046L146.609 131.658C145.956 132.033 145.427 131.732 145.427 130.982V130.512C145.427 129.777 144.905 129.454 144.251 129.829L138.322 133.253C137.982 133.473 137.698 133.77 137.493 134.119C137.287 134.469 137.166 134.861 137.139 135.266Z" fill="#579540"/>
<path d="M141.026 156.609V157.762C141.026 158.32 141.422 158.548 141.907 158.269L156.719 149.717C156.975 149.549 157.188 149.323 157.341 149.058C157.494 148.792 157.583 148.495 157.601 148.189V147.035C157.601 146.477 157.204 146.249 156.719 146.529L141.907 155.08C141.65 155.248 141.437 155.473 141.284 155.739C141.13 156.004 141.042 156.302 141.026 156.609Z" fill="#E0E0E0"/>
<path d="M164.61 119.499V137.455C164.61 138.19 165.139 138.513 165.785 138.138L185.527 126.736C185.87 126.514 186.157 126.214 186.362 125.86C186.568 125.506 186.687 125.109 186.709 124.701V109.933C186.709 109.198 186.18 108.875 185.527 109.25L174.073 115.862C173.419 116.237 172.897 115.928 172.897 115.179V114.709C172.897 113.974 172.368 113.651 171.714 114.033L165.785 117.456C165.442 117.68 165.157 117.982 164.953 118.337C164.748 118.692 164.631 119.09 164.61 119.499Z" fill="#579540"/>
<path d="M168.474 140.849V141.995C168.474 142.561 168.871 142.789 169.356 142.502L184.167 133.958C184.424 133.788 184.638 133.561 184.791 133.295C184.944 133.028 185.032 132.729 185.049 132.422V131.276C185.049 130.71 184.652 130.483 184.167 130.762L169.356 139.314C169.099 139.483 168.886 139.71 168.733 139.977C168.58 140.243 168.491 140.542 168.474 140.849Z" fill="#E0E0E0"/>
<path d="M192.367 66.7988V84.7549C192.367 85.4896 192.896 85.8129 193.542 85.4382L213.291 74.0356C213.633 73.8113 213.918 73.5095 214.123 73.1547C214.327 72.7999 214.445 72.402 214.466 71.9931V57.233C214.466 56.4983 213.938 56.175 213.291 56.5497L201.83 63.162C201.183 63.5441 200.654 63.2355 200.654 62.4861V62.0159C200.654 61.2812 200.125 60.9579 199.471 61.3326L193.542 64.7637C193.2 64.9868 192.916 65.2873 192.711 65.6409C192.507 65.9944 192.389 66.3911 192.367 66.7988Z" fill="#579540"/>
<path d="M195.923 89.0087V90.1622C195.923 90.7206 196.319 90.9484 196.812 90.6692L211.631 82.1173C211.889 81.9512 212.105 81.726 212.259 81.4603C212.414 81.1946 212.503 80.896 212.52 80.5891V79.4429C212.52 78.8772 212.123 78.6495 211.631 78.9287L196.826 87.4806C196.565 87.645 196.347 87.8694 196.189 88.1352C196.032 88.401 195.941 88.7005 195.923 89.0087Z" fill="#E0E0E0"/>
<path d="M219.492 51.9064V69.8625C219.492 70.5972 220.021 70.9131 220.675 70.5384L240.416 59.1432C240.759 58.9189 241.044 58.6171 241.248 58.2623C241.452 57.9075 241.57 57.5095 241.592 57.1007V42.3332C241.592 41.5985 241.07 41.2753 240.416 41.65L228.962 48.2623C228.308 48.637 227.779 48.3284 227.779 47.579V47.1088C227.779 46.3741 227.258 46.0582 226.604 46.4329L220.675 49.8566C220.329 50.0799 220.042 50.3823 219.836 50.7387C219.63 51.0951 219.512 51.4954 219.492 51.9064Z" fill="#579540"/>
<path d="M223.386 73.2494V74.3662C223.386 74.9319 223.775 75.1596 224.267 74.8804L239.079 66.3285C239.335 66.1599 239.548 65.934 239.701 65.6687C239.854 65.4034 239.943 65.1061 239.961 64.8003V63.6469C239.961 63.0812 239.564 62.8534 239.079 63.1399L224.267 71.6845C224.006 71.8558 223.79 72.0874 223.636 72.3597C223.483 72.632 223.397 72.9371 223.386 73.2494Z" fill="#E0E0E0"/>
<path d="M195.923 125.061V126.214C195.923 126.772 196.319 127 196.812 126.721L211.631 118.176C211.889 118.01 212.105 117.785 212.259 117.52C212.414 117.254 212.503 116.955 212.52 116.648V115.509C212.52 114.951 212.123 114.723 211.631 115.003L196.826 123.554C196.568 123.717 196.351 123.938 196.194 124.199C196.037 124.461 195.944 124.756 195.923 125.061Z" fill="#E0E0E0"/>
<path d="M196.297 99.831L211.63 90.9631C212.328 90.559 212.902 90.8897 212.902 91.6978V109.434C212.878 109.875 212.75 110.304 212.529 110.687C212.309 111.07 212.001 111.396 211.63 111.638L196.297 120.505C195.563 120.91 195.026 120.586 195.026 119.771V102.035C195.051 101.594 195.178 101.164 195.399 100.782C195.62 100.399 195.928 100.073 196.297 99.831Z" fill="#FAFAFA"/>
<path d="M195.724 121.049C195.544 121.051 195.367 121.005 195.21 120.917C195.024 120.793 194.875 120.621 194.778 120.419C194.681 120.218 194.64 119.994 194.659 119.771V102.035C194.685 101.528 194.831 101.035 195.087 100.596C195.343 100.158 195.7 99.787 196.128 99.5151L211.491 90.6473C211.674 90.5198 211.888 90.4442 212.111 90.4287C212.333 90.4132 212.556 90.4582 212.755 90.5591C212.94 90.6823 213.09 90.8527 213.188 91.0529C213.286 91.253 213.329 91.4756 213.313 91.6979V109.434C213.287 109.94 213.141 110.434 212.885 110.872C212.629 111.311 212.272 111.682 211.844 111.954L196.481 120.829C196.252 120.967 195.991 121.043 195.724 121.049ZM212.226 91.1615C212.089 91.1669 211.957 91.2101 211.844 91.2864L196.481 100.154C196.166 100.362 195.904 100.64 195.715 100.966C195.526 101.293 195.416 101.659 195.394 102.035V119.771C195.394 120.028 195.46 120.212 195.577 120.278C195.667 120.307 195.763 120.315 195.856 120.299C195.95 120.284 196.038 120.246 196.114 120.19L211.476 111.322C211.79 111.112 212.052 110.832 212.24 110.505C212.429 110.177 212.539 109.811 212.564 109.434V91.6979C212.575 91.6043 212.563 91.5093 212.53 91.4211C212.497 91.3329 212.443 91.2539 212.373 91.1909C212.327 91.1692 212.276 91.1591 212.226 91.1615Z" fill="#EBEBEB"/>
<path d="M213.467 93.3583L210.044 95.3346C209.672 95.5755 209.363 95.9007 209.141 96.2837C208.918 96.6667 208.79 97.0967 208.765 97.5387V101.491C208.765 102.307 209.338 102.638 210.044 102.226L213.467 100.25C213.837 100.008 214.145 99.6825 214.366 99.2996C214.587 98.9167 214.714 98.4871 214.738 98.0457V94.093C214.738 93.2848 214.165 92.9542 213.467 93.3583Z" fill="#579540"/>
<path d="M197.466 101.749L205.165 97.3403C205.511 97.142 205.797 97.3036 205.797 97.715V97.9575C205.784 98.1775 205.72 98.3916 205.611 98.5828C205.501 98.774 205.349 98.9372 205.165 99.0595L197.466 103.468C197.113 103.673 196.826 103.512 196.834 103.1V102.851C196.845 102.63 196.908 102.415 197.018 102.224C197.128 102.033 197.281 101.87 197.466 101.749Z" fill="#EBEBEB"/>
<path d="M197.466 105.224L205.165 100.815C205.511 100.61 205.797 100.779 205.797 101.183V101.425C205.786 101.646 205.723 101.86 205.613 102.052C205.503 102.243 205.35 102.406 205.165 102.527L197.466 106.935C197.113 107.141 196.826 106.935 196.834 106.568V106.311C196.847 106.093 196.911 105.881 197.021 105.693C197.131 105.504 197.283 105.343 197.466 105.224Z" fill="#EBEBEB"/>
<path d="M197.466 108.633L205.165 104.224C205.511 104.026 205.797 104.188 205.797 104.592V104.842C205.784 105.062 205.72 105.276 205.611 105.467C205.501 105.658 205.349 105.821 205.165 105.944L197.466 110.352C197.113 110.558 196.826 110.396 196.834 109.984V109.735C196.844 109.514 196.907 109.299 197.017 109.108C197.127 108.916 197.281 108.753 197.466 108.633Z" fill="#EBEBEB"/>
<path d="M197.466 112.071L210.249 104.724C210.602 104.526 210.889 104.724 210.889 105.091V105.341C210.876 105.562 210.811 105.777 210.7 105.968C210.589 106.16 210.435 106.323 210.249 106.443L197.466 113.79C197.113 113.989 196.826 113.827 196.834 113.423V113.166C196.846 112.947 196.91 112.733 197.019 112.543C197.129 112.353 197.282 112.191 197.466 112.071Z" fill="#EBEBEB"/>
<path d="M197.466 115.51L210.249 108.162C210.602 107.957 210.889 108.162 210.889 108.53V108.772C210.876 108.993 210.812 109.208 210.701 109.4C210.59 109.592 210.435 109.754 210.249 109.874L197.466 117.221C197.113 117.427 196.826 117.258 196.834 116.854V116.604C196.844 116.385 196.907 116.171 197.017 115.98C197.127 115.79 197.281 115.629 197.466 115.51Z" fill="#EBEBEB"/>
<path d="M222.783 109.566V110.712C222.783 111.278 223.18 111.505 223.665 111.226L238.477 102.674C238.734 102.506 238.948 102.279 239.101 102.012C239.254 101.745 239.342 101.446 239.358 101.139V99.9925C239.358 99.4268 238.969 99.199 238.477 99.4782L223.665 108.03C223.408 108.199 223.195 108.427 223.042 108.693C222.889 108.96 222.8 109.259 222.783 109.566Z" fill="#E0E0E0"/>
<path d="M223.158 84.3287L238.513 75.4609C239.248 75.0495 239.792 75.3801 239.792 76.1956V93.9313C239.766 94.3731 239.637 94.8026 239.415 95.1854C239.193 95.5682 238.884 95.8936 238.513 96.1354L223.158 105.003C222.423 105.407 221.88 105.077 221.88 104.269V86.5328C221.904 86.0907 222.032 85.6604 222.254 85.2774C222.476 84.8943 222.786 84.5692 223.158 84.3287Z" fill="#FAFAFA"/>
<path d="M222.585 105.54C222.405 105.541 222.228 105.496 222.071 105.407C221.885 105.284 221.735 105.114 221.637 104.914C221.539 104.713 221.496 104.491 221.512 104.268V86.5328C221.537 86.0246 221.683 85.5297 221.939 85.0899C222.194 84.65 222.552 84.2781 222.982 84.0054L238.337 75.1376C238.516 74.9975 238.733 74.9141 238.959 74.8982C239.186 74.8823 239.412 74.9346 239.609 75.0484C239.806 75.1622 239.964 75.3322 240.063 75.5367C240.163 75.7411 240.199 75.9706 240.166 76.1956V93.9313C240.141 94.4383 239.995 94.932 239.739 95.3705C239.483 95.8091 239.126 96.1798 238.697 96.4513L223.342 105.319C223.113 105.457 222.852 105.533 222.585 105.54ZM223.32 84.6446C223.003 84.8527 222.739 85.1317 222.549 85.4595C222.359 85.7872 222.248 86.1547 222.225 86.5328V104.268C222.214 104.362 222.225 104.457 222.259 104.545C222.292 104.634 222.346 104.712 222.416 104.775C222.506 104.805 222.603 104.812 222.696 104.796C222.79 104.779 222.878 104.739 222.952 104.68L238.308 95.8121C238.624 95.6051 238.887 95.3274 239.077 95.001C239.267 94.6745 239.378 94.3082 239.402 93.9313V76.1956C239.442 76.0997 239.446 75.9925 239.412 75.8942C239.378 75.7959 239.31 75.7133 239.22 75.6619C239.13 75.6105 239.024 75.5937 238.922 75.6149C238.82 75.6361 238.73 75.6936 238.668 75.7768L223.32 84.6446Z" fill="#EBEBEB"/>
<path d="M240.321 77.8561L236.897 79.8324C236.527 80.0742 236.219 80.3997 235.998 80.7826C235.777 81.1656 235.65 81.5951 235.626 82.0365V85.9892C235.626 86.7974 236.199 87.128 236.897 86.7239L240.321 84.7476C240.691 84.5058 241 84.1804 241.222 83.7976C241.444 83.4148 241.573 82.9853 241.599 82.5435V78.5908C241.599 77.7753 241.019 77.4446 240.321 77.8561Z" fill="#579540"/>
<path d="M224.326 86.2389L232.018 81.8307C232.371 81.625 232.658 81.8307 232.658 82.1981V82.4479C232.647 82.6692 232.583 82.8848 232.472 83.0765C232.361 83.2682 232.205 83.4306 232.018 83.5499L224.326 87.9581C223.973 88.1638 223.687 87.9949 223.687 87.5908V87.3336C223.701 87.1139 223.766 86.9005 223.877 86.7104C223.988 86.5203 224.142 86.3589 224.326 86.2389Z" fill="#EBEBEB"/>
<path d="M224.326 89.6848L232.018 85.2766C232.371 85.0782 232.658 85.2766 232.658 85.6439V85.8937C232.645 86.1147 232.581 86.3296 232.47 86.521C232.359 86.7124 232.204 86.8751 232.018 86.9958L224.326 91.404C223.973 91.6097 223.687 91.448 223.687 91.0366V90.7868C223.699 90.5657 223.763 90.3506 223.874 90.1591C223.985 89.9675 224.14 89.805 224.326 89.6848Z" fill="#EBEBEB"/>
<path d="M224.326 93.1231L232.018 88.7149C232.371 88.5092 232.658 88.7149 232.658 89.0822V89.3247C232.646 89.5458 232.581 89.7609 232.47 89.9524C232.359 90.144 232.204 90.3065 232.018 90.4268L224.326 94.835C223.973 95.0333 223.687 94.8717 223.687 94.4676V94.2031C223.703 93.986 223.769 93.7755 223.88 93.5881C223.991 93.4007 224.143 93.2416 224.326 93.1231Z" fill="#EBEBEB"/>
<path d="M224.326 96.5689L237.11 89.2219C237.463 89.0161 237.749 89.1851 237.749 89.5892V89.7949C237.737 90.0159 237.672 90.2308 237.561 90.4222C237.45 90.6137 237.295 90.7763 237.11 90.897L224.326 98.244C223.973 98.4497 223.687 98.2807 223.687 97.8766V97.6268C223.705 97.4131 223.771 97.2064 223.882 97.0228C223.993 96.8393 224.145 96.6839 224.326 96.5689Z" fill="#EBEBEB"/>
<path d="M224.326 100.007L237.11 92.6603C237.463 92.4619 237.749 92.6235 237.749 93.0276V93.2774C237.737 93.4984 237.672 93.7133 237.561 93.9047C237.45 94.0962 237.295 94.2588 237.11 94.3795L224.326 101.727C223.973 101.925 223.687 101.763 223.687 101.359V101.102C223.701 100.882 223.766 100.669 223.877 100.479C223.988 100.289 224.142 100.127 224.326 100.007Z" fill="#EBEBEB"/>
<path d="M195.923 161.671V162.824C195.923 163.383 196.319 163.61 196.812 163.331L211.631 154.779C211.889 154.613 212.105 154.388 212.259 154.122C212.414 153.857 212.503 153.558 212.52 153.251V152.098C212.52 151.539 212.123 151.311 211.631 151.591L196.826 160.143C196.565 160.307 196.347 160.531 196.189 160.797C196.032 161.063 195.941 161.362 195.923 161.671Z" fill="#E0E0E0"/>
<path d="M196.297 136.434L211.63 127.566C212.328 127.162 212.901 127.493 212.901 128.301V146.036C212.876 146.478 212.748 146.907 212.528 147.289C212.307 147.672 212 147.998 211.63 148.24L196.268 157.108C195.533 157.512 194.997 157.189 194.997 156.374V138.638C195.023 138.194 195.155 137.762 195.381 137.379C195.607 136.996 195.921 136.672 196.297 136.434Z" fill="#FAFAFA"/>
<path d="M195.724 157.652C195.544 157.654 195.367 157.608 195.21 157.52C195.025 157.394 194.876 157.222 194.78 157.021C194.683 156.82 194.641 156.596 194.659 156.374V138.638C194.684 138.131 194.831 137.638 195.087 137.199C195.343 136.761 195.7 136.39 196.128 136.118L211.476 127.265C211.655 127.128 211.87 127.047 212.094 127.032C212.319 127.017 212.543 127.07 212.738 127.182C212.933 127.294 213.09 127.462 213.19 127.664C213.29 127.865 213.327 128.092 213.298 128.315V146.051C213.273 146.558 213.126 147.051 212.87 147.49C212.615 147.928 212.257 148.299 211.829 148.571L196.466 157.439C196.241 157.571 195.986 157.645 195.724 157.652ZM212.226 127.757C212.09 127.765 211.958 127.808 211.844 127.882L196.481 136.757C196.165 136.964 195.903 137.242 195.714 137.568C195.525 137.895 195.415 138.261 195.394 138.638V156.374C195.354 156.47 195.35 156.577 195.384 156.675C195.418 156.773 195.486 156.856 195.576 156.907C195.666 156.959 195.772 156.975 195.874 156.954C195.976 156.933 196.066 156.876 196.128 156.792L211.491 147.925C211.805 147.714 212.066 147.435 212.255 147.107C212.443 146.78 212.554 146.413 212.578 146.036V128.301C212.589 128.207 212.578 128.112 212.545 128.024C212.511 127.936 212.457 127.857 212.387 127.794C212.338 127.767 212.282 127.754 212.226 127.757Z" fill="#EBEBEB"/>
<path d="M213.467 129.961L210.044 131.937C209.672 132.178 209.363 132.503 209.141 132.886C208.918 133.269 208.79 133.699 208.765 134.141V138.094C208.765 138.91 209.338 139.233 210.044 138.829L213.467 136.853C213.837 136.611 214.145 136.285 214.366 135.902C214.587 135.519 214.714 135.09 214.738 134.648V130.696C214.738 129.888 214.165 129.557 213.467 129.961Z" fill="#579540"/>
<path d="M197.466 138.351L205.165 133.943C205.511 133.745 205.797 133.906 205.797 134.31V134.56C205.784 134.78 205.72 134.994 205.611 135.186C205.501 135.377 205.349 135.54 205.165 135.662L197.466 140.071C197.113 140.276 196.826 140.115 196.834 139.703V139.453C196.844 139.233 196.907 139.018 197.017 138.826C197.127 138.635 197.281 138.472 197.466 138.351Z" fill="#EBEBEB"/>
<path d="M197.466 141.79L205.165 137.381C205.511 137.176 205.797 137.345 205.797 137.749V137.991C205.785 138.212 205.722 138.426 205.612 138.617C205.502 138.809 205.349 138.972 205.165 139.093L197.466 143.502C197.113 143.7 196.826 143.538 196.834 143.134V142.877C196.847 142.659 196.911 142.447 197.021 142.259C197.131 142.07 197.283 141.909 197.466 141.79Z" fill="#EBEBEB"/>
<path d="M197.466 145.235L205.165 140.827C205.511 140.629 205.797 140.791 205.797 141.195V141.444C205.784 141.664 205.72 141.879 205.611 142.07C205.501 142.261 205.349 142.424 205.165 142.546L197.466 146.955C197.113 147.16 196.826 146.991 196.834 146.587V146.367C196.838 146.141 196.899 145.92 197.009 145.723C197.119 145.525 197.276 145.358 197.466 145.235Z" fill="#EBEBEB"/>
<path d="M197.466 148.674L210.249 141.327C210.602 141.129 210.889 141.29 210.889 141.694V141.959C210.876 142.18 210.811 142.395 210.7 142.586C210.589 142.777 210.435 142.94 210.249 143.061L197.466 150.408C197.113 150.606 196.826 150.445 196.834 150.04V149.783C196.844 149.562 196.906 149.345 197.016 149.153C197.126 148.96 197.28 148.796 197.466 148.674Z" fill="#EBEBEB"/>
<path d="M197.466 152.12L210.249 144.773C210.602 144.567 210.889 144.729 210.889 145.14V145.382C210.876 145.603 210.811 145.818 210.7 146.01C210.589 146.201 210.435 146.364 210.249 146.485L197.466 153.832C197.113 154.037 196.826 153.868 196.834 153.464V153.214C196.844 152.995 196.907 152.781 197.017 152.591C197.127 152.4 197.281 152.239 197.466 152.12Z" fill="#EBEBEB"/>
<path d="M222.783 146.161V147.315C222.783 147.88 223.18 148.108 223.665 147.822L238.477 139.277C238.734 139.109 238.948 138.882 239.101 138.615C239.254 138.348 239.342 138.049 239.358 137.742V136.595C239.358 136.03 238.969 135.802 238.477 136.081L223.665 144.633C223.409 144.802 223.196 145.028 223.043 145.293C222.89 145.558 222.801 145.855 222.783 146.161Z" fill="#E0E0E0"/>
<path d="M223.158 120.932L238.513 112.064C239.248 111.652 239.792 111.983 239.792 112.798V130.527C239.768 130.969 239.639 131.399 239.417 131.782C239.195 132.165 238.885 132.49 238.513 132.731L223.158 141.606C222.423 142.01 221.88 141.68 221.88 140.871V123.136C221.904 122.694 222.032 122.263 222.254 121.88C222.476 121.497 222.786 121.172 223.158 120.932Z" fill="#FAFAFA"/>
<path d="M222.585 142.142C222.405 142.144 222.228 142.099 222.071 142.01C221.885 141.887 221.735 141.717 221.637 141.516C221.539 141.316 221.496 141.094 221.512 140.871V123.136C221.536 122.627 221.682 122.132 221.938 121.692C222.194 121.252 222.552 120.881 222.982 120.608L238.337 111.74C238.516 111.6 238.733 111.517 238.959 111.501C239.186 111.485 239.412 111.537 239.609 111.651C239.806 111.765 239.964 111.935 240.063 112.14C240.163 112.344 240.199 112.573 240.166 112.798V130.527C240.143 131.035 239.997 131.53 239.741 131.97C239.485 132.41 239.127 132.782 238.697 133.054L223.342 141.959C223.109 142.084 222.849 142.147 222.585 142.142ZM223.32 121.248C223.003 121.456 222.739 121.735 222.549 122.062C222.359 122.39 222.248 122.758 222.225 123.136V140.871C222.212 140.964 222.223 141.058 222.257 141.146C222.29 141.233 222.345 141.31 222.416 141.371C222.506 141.402 222.602 141.411 222.695 141.396C222.789 141.38 222.878 141.341 222.952 141.283L238.33 132.408C238.646 132.2 238.91 131.921 239.1 131.593C239.29 131.265 239.401 130.898 239.424 130.519V112.798C239.464 112.703 239.468 112.595 239.434 112.497C239.4 112.399 239.332 112.316 239.242 112.265C239.152 112.213 239.046 112.197 238.944 112.218C238.842 112.239 238.752 112.297 238.69 112.38L223.32 121.248Z" fill="#EBEBEB"/>
<path d="M240.321 114.459L236.897 116.435C236.527 116.677 236.219 117.002 235.998 117.385C235.777 117.768 235.65 118.198 235.626 118.639V122.592C235.626 123.4 236.199 123.731 236.897 123.327L240.321 121.35C240.691 121.109 241 120.783 241.222 120.4C241.444 120.018 241.573 119.588 241.599 119.146V115.194C241.599 114.378 241.019 114.04 240.321 114.459Z" fill="#094A28"/>
<path d="M224.326 122.856L232.018 118.448C232.371 118.243 232.658 118.412 232.658 118.816V119.058C232.646 119.279 232.581 119.494 232.47 119.686C232.359 119.877 232.204 120.04 232.018 120.16L224.326 124.568C223.973 124.767 223.687 124.568 223.687 124.201V123.944C223.702 123.725 223.767 123.513 223.878 123.325C223.989 123.136 224.143 122.976 224.326 122.856Z" fill="#EBEBEB"/>
<path d="M224.326 126.287L232.018 121.879C232.371 121.681 232.658 121.879 232.658 122.247V122.496C232.645 122.717 232.581 122.932 232.47 123.124C232.359 123.315 232.204 123.478 232.018 123.598L224.326 128.007C223.973 128.212 223.687 128.043 223.687 127.639V127.39C223.698 127.168 223.761 126.953 223.873 126.761C223.984 126.569 224.139 126.407 224.326 126.287Z" fill="#EBEBEB"/>
<path d="M224.326 129.726L232.018 125.318C232.371 125.112 232.658 125.274 232.658 125.685V125.927C232.645 126.148 232.581 126.363 232.47 126.555C232.359 126.746 232.204 126.909 232.018 127.03L224.326 131.438C223.973 131.636 223.687 131.474 223.687 131.07V130.813C223.702 130.595 223.767 130.383 223.878 130.194C223.989 130.005 224.143 129.845 224.326 129.726Z" fill="#EBEBEB"/>
<path d="M224.326 133.142L237.11 125.795C237.463 125.59 237.749 125.751 237.749 126.163V126.405C237.737 126.626 237.672 126.841 237.561 127.032C237.45 127.224 237.295 127.386 237.11 127.507L224.326 134.854C223.973 135.06 223.687 134.891 223.687 134.487V134.237C223.699 134.017 223.763 133.803 223.874 133.612C223.985 133.422 224.14 133.261 224.326 133.142Z" fill="#EBEBEB"/>
<path d="M224.326 136.61L237.11 129.263C237.463 129.057 237.749 129.226 237.749 129.63V129.873C237.738 130.094 237.675 130.31 237.563 130.502C237.452 130.693 237.297 130.856 237.11 130.975L224.326 138.322C223.973 138.52 223.687 138.359 223.687 137.955V137.697C223.702 137.479 223.767 137.267 223.878 137.078C223.989 136.89 224.143 136.729 224.326 136.61Z" fill="#EBEBEB"/>
<path d="M141.026 193.388V194.534C141.026 195.1 141.422 195.327 141.915 195.048L156.719 186.496C156.977 186.33 157.192 186.104 157.347 185.839C157.501 185.573 157.591 185.275 157.608 184.968V183.837C157.608 183.271 157.211 183.043 156.719 183.33L141.915 191.874C141.659 192.04 141.446 192.263 141.291 192.526C141.137 192.789 141.046 193.084 141.026 193.388Z" fill="#E0E0E0"/>
<path d="M141.4 168.151L156.763 159.283C157.498 158.879 158.034 159.202 158.034 160.018V177.753C158.009 178.194 157.88 178.623 157.66 179.006C157.439 179.389 157.132 179.715 156.763 179.958L141.4 188.825C140.666 189.229 140.129 188.899 140.129 188.091V170.355C140.152 169.913 140.279 169.483 140.5 169.1C140.721 168.717 141.03 168.392 141.4 168.151Z" fill="#FAFAFA"/>
<path d="M140.827 189.362C140.647 189.363 140.47 189.318 140.313 189.229C140.128 189.106 139.98 188.935 139.883 188.735C139.786 188.535 139.744 188.312 139.762 188.091V170.355C139.788 169.848 139.934 169.355 140.19 168.916C140.446 168.478 140.803 168.107 141.231 167.835L156.594 158.967C156.772 158.826 156.988 158.742 157.214 158.726C157.44 158.709 157.665 158.761 157.862 158.874C158.058 158.987 158.216 159.157 158.315 159.361C158.414 159.565 158.449 159.793 158.416 160.018V177.753C158.391 178.26 158.244 178.754 157.988 179.192C157.732 179.631 157.375 180.001 156.947 180.273L141.584 189.141C141.355 189.279 141.094 189.355 140.827 189.362ZM141.584 168.467C141.269 168.676 141.007 168.955 140.818 169.283C140.629 169.61 140.519 169.977 140.497 170.355V188.091C140.457 188.187 140.453 188.294 140.487 188.392C140.521 188.49 140.589 188.573 140.679 188.624C140.769 188.676 140.875 188.692 140.977 188.671C141.079 188.65 141.169 188.593 141.231 188.509L156.594 179.634C156.908 179.426 157.169 179.147 157.358 178.821C157.547 178.495 157.657 178.129 157.681 177.753V160.018C157.721 159.922 157.725 159.815 157.691 159.716C157.657 159.618 157.589 159.535 157.499 159.484C157.409 159.433 157.303 159.416 157.201 159.437C157.099 159.458 157.009 159.516 156.947 159.599L141.584 168.467Z" fill="#EBEBEB"/>
<path d="M158.57 161.678L155.147 163.654C154.775 163.895 154.465 164.22 154.243 164.603C154.021 164.986 153.892 165.416 153.868 165.858V169.811C153.868 170.619 154.441 170.95 155.147 170.546L158.57 168.57C158.94 168.327 159.247 168.001 159.468 167.618C159.688 167.236 159.816 166.807 159.841 166.365V162.413C159.841 161.597 159.268 161.274 158.57 161.678Z" fill="#579540"/>
<path d="M142.569 170.068L150.268 165.66C150.614 165.454 150.9 165.623 150.9 166.028V166.27C150.889 166.49 150.826 166.705 150.716 166.897C150.606 167.088 150.453 167.251 150.268 167.372L142.569 171.78C142.216 171.986 141.937 171.78 141.937 171.413V171.163C141.947 170.944 142.01 170.73 142.12 170.539C142.23 170.349 142.384 170.187 142.569 170.068Z" fill="#EBEBEB"/>
<path d="M142.569 173.507L150.268 169.099C150.614 168.9 150.9 169.062 150.9 169.473V169.716C150.887 169.936 150.823 170.15 150.714 170.341C150.604 170.532 150.452 170.695 150.268 170.818L142.569 175.226C142.216 175.424 141.937 175.226 141.937 174.859V174.602C141.949 174.382 142.013 174.169 142.122 173.979C142.232 173.789 142.385 173.627 142.569 173.507Z" fill="#EBEBEB"/>
<path d="M142.569 176.953L150.268 172.544C150.614 172.339 150.9 172.508 150.9 172.912V173.154C150.889 173.375 150.826 173.589 150.716 173.781C150.606 173.972 150.453 174.135 150.268 174.256L142.569 178.694C142.216 178.9 141.937 178.694 141.937 178.326V178.069C141.944 177.846 142.005 177.628 142.115 177.433C142.225 177.239 142.381 177.074 142.569 176.953Z" fill="#EBEBEB"/>
<path d="M142.569 180.391L155.352 173.044C155.705 172.838 155.992 173.044 155.992 173.411V173.654C155.981 173.875 155.917 174.091 155.806 174.282C155.695 174.474 155.539 174.636 155.352 174.756L142.569 182.103C142.216 182.309 141.937 182.147 141.937 181.735V181.486C141.949 181.266 142.013 181.053 142.122 180.863C142.232 180.673 142.385 180.511 142.569 180.391Z" fill="#EBEBEB"/>
<path d="M142.569 183.837L155.352 176.49C155.705 176.291 155.992 176.49 155.992 176.857V177.107C155.979 177.328 155.915 177.543 155.803 177.734C155.692 177.926 155.538 178.088 155.352 178.209L142.569 185.556C142.216 185.754 141.937 185.593 141.937 185.189V184.931C141.949 184.712 142.013 184.499 142.122 184.309C142.232 184.119 142.385 183.957 142.569 183.837Z" fill="#EBEBEB"/>
<path d="M167.886 177.878V179.032C167.886 179.59 168.283 179.825 168.768 179.539L183.58 170.987C183.838 170.821 184.052 170.595 184.206 170.33C184.359 170.064 184.447 169.765 184.461 169.459V168.312C184.461 167.747 184.072 167.519 183.58 167.798L168.768 176.35C168.512 176.518 168.299 176.744 168.146 177.009C167.993 177.275 167.904 177.572 167.886 177.878Z" fill="#E0E0E0"/>
<path d="M168.283 152.641L183.638 143.773C184.373 143.369 184.917 143.7 184.917 144.508V162.244C184.893 162.686 184.764 163.116 184.542 163.499C184.32 163.882 184.01 164.207 183.638 164.448L168.283 173.316C167.548 173.727 167.005 173.397 167.005 172.581V154.845C167.031 154.404 167.16 153.974 167.382 153.591C167.604 153.208 167.912 152.883 168.283 152.641Z" fill="#FAFAFA"/>
<path d="M167.688 173.859C167.508 173.861 167.331 173.816 167.174 173.727C166.988 173.602 166.838 173.43 166.74 173.229C166.642 173.028 166.599 172.804 166.615 172.581V154.845C166.642 154.339 166.789 153.845 167.044 153.407C167.3 152.969 167.657 152.598 168.085 152.325L183.433 143.428C183.611 143.289 183.827 143.206 184.053 143.19C184.279 143.174 184.504 143.225 184.701 143.338C184.897 143.451 185.055 143.62 185.155 143.823C185.255 144.026 185.292 144.254 185.262 144.479V162.214C185.238 162.722 185.092 163.216 184.836 163.655C184.581 164.093 184.222 164.464 183.793 164.734L168.437 173.61C168.214 173.757 167.955 173.843 167.688 173.859ZM184.189 143.972C184.05 143.976 183.915 144.019 183.8 144.097L168.445 152.979C168.129 153.186 167.865 153.464 167.675 153.79C167.485 154.117 167.374 154.483 167.35 154.86V172.596C167.337 172.69 167.348 172.785 167.381 172.874C167.414 172.962 167.469 173.041 167.541 173.103C167.631 173.132 167.727 173.14 167.82 173.124C167.913 173.109 168.002 173.071 168.077 173.015L183.433 164.147C183.749 163.938 184.012 163.659 184.202 163.331C184.392 163.004 184.503 162.637 184.527 162.259V144.508C184.538 144.415 184.527 144.32 184.494 144.231C184.46 144.143 184.406 144.064 184.336 144.001C184.29 143.98 184.24 143.97 184.189 143.972Z" fill="#EBEBEB"/>
<path d="M185.424 146.169L182 148.145C181.631 148.388 181.324 148.714 181.103 149.096C180.883 149.479 180.755 149.908 180.729 150.349V154.302C180.729 155.117 181.302 155.448 182 155.036L185.424 153.06C185.796 152.82 186.105 152.495 186.327 152.111C186.55 151.728 186.678 151.298 186.702 150.856V146.903C186.702 146.095 186.129 145.765 185.424 146.169Z" fill="#579540"/>
<path d="M169.429 154.559L177.122 150.151C177.474 149.952 177.761 150.114 177.761 150.525V150.775C177.748 150.996 177.684 151.211 177.573 151.402C177.462 151.594 177.307 151.757 177.122 151.877L169.429 156.285C169.077 156.484 168.79 156.322 168.79 155.911V155.661C168.803 155.44 168.867 155.225 168.978 155.034C169.089 154.842 169.244 154.68 169.429 154.559Z" fill="#EBEBEB"/>
<path d="M169.429 158.005L177.122 153.596C177.474 153.391 177.761 153.56 177.761 153.964V154.206C177.75 154.428 177.686 154.643 177.575 154.835C177.464 155.027 177.308 155.189 177.122 155.308L169.429 159.717C169.077 159.922 168.79 159.753 168.79 159.349V159.092C168.803 158.873 168.868 158.661 168.979 158.472C169.09 158.283 169.244 158.123 169.429 158.005Z" fill="#EBEBEB"/>
<path d="M169.429 161.443L177.122 157.035C177.474 156.836 177.761 156.998 177.761 157.402V157.652C177.748 157.873 177.684 158.088 177.573 158.279C177.462 158.471 177.307 158.633 177.122 158.754L169.429 163.162C169.077 163.368 168.79 163.206 168.79 162.795V162.53C168.805 162.312 168.87 162.1 168.981 161.911C169.092 161.722 169.246 161.562 169.429 161.443Z" fill="#EBEBEB"/>
<path d="M169.429 164.881L182.213 157.534C182.566 157.336 182.852 157.498 182.852 157.902V158.122C182.84 158.343 182.775 158.558 182.664 158.749C182.553 158.941 182.399 159.103 182.213 159.224L169.429 166.571C169.077 166.77 168.79 166.608 168.79 166.204V165.947C168.808 165.732 168.875 165.525 168.986 165.34C169.097 165.155 169.248 164.998 169.429 164.881Z" fill="#EBEBEB"/>
<path d="M169.429 168.327L182.213 160.98C182.566 160.774 182.852 160.943 182.852 161.347V161.59C182.84 161.811 182.776 162.026 182.665 162.218C182.554 162.409 182.399 162.572 182.213 162.692L169.429 170.039C169.077 170.245 168.79 170.039 168.79 169.672V169.422C168.802 169.202 168.866 168.988 168.977 168.797C169.089 168.607 169.243 168.446 169.429 168.327Z" fill="#EBEBEB"/>
<path d="M98.347 98.5452L95.3641 96.8039V110.594L98.347 112.321V98.5452Z" fill="#094A28"/>
<path opacity="0.1" d="M98.347 98.5452L95.3641 96.8039V110.594L98.347 112.321V98.5452Z" fill="#094A28"/>
<path d="M274.617 155.528C274.277 155.374 273.902 155.312 273.531 155.348C273.16 155.385 272.804 155.518 272.501 155.734C271.634 156.297 270.911 157.056 270.39 157.949C269.87 158.842 269.566 159.845 269.503 160.877C269.464 161.248 269.523 161.623 269.675 161.964C269.828 162.304 270.067 162.598 270.37 162.817L307.561 186.327C308.295 186.841 309.405 186.812 310.617 186.114C311.835 185.325 312.85 184.26 313.579 183.005C314.308 181.75 314.731 180.341 314.812 178.892C314.812 177.496 314.298 176.534 313.475 176.129L274.617 155.528Z" fill="#094A28"/>
<path opacity="0.15" d="M269.503 160.906C269.503 162.809 270.833 163.588 272.486 162.64C273.353 162.077 274.076 161.318 274.596 160.425C275.117 159.532 275.421 158.529 275.483 157.497C275.483 155.595 274.154 154.816 272.501 155.764C271.634 156.327 270.911 157.085 270.39 157.979C269.87 158.872 269.566 159.875 269.503 160.906Z" fill="#094A28"/>
<path d="M261.274 150.584C260.747 150.926 260.307 151.387 259.992 151.931C259.677 152.475 259.494 153.086 259.46 153.714C259.436 153.937 259.472 154.163 259.564 154.368C259.656 154.573 259.799 154.75 259.981 154.882L271.208 161.399C271.411 161.493 271.637 161.532 271.86 161.51C272.084 161.488 272.297 161.406 272.479 161.274C273.012 160.932 273.456 160.468 273.773 159.919C274.09 159.371 274.271 158.755 274.301 158.122C274.327 157.897 274.292 157.67 274.201 157.463C274.109 157.256 273.963 157.078 273.779 156.946L262.553 150.43C262.345 150.339 262.117 150.306 261.893 150.333C261.668 150.36 261.455 150.447 261.274 150.584Z" fill="#263238"/>
<path opacity="0.1" d="M273.889 161.421L312.153 184.931C311.699 185.401 311.185 185.809 310.624 186.144C309.412 186.842 308.325 186.878 307.561 186.357L270.377 162.846C270.715 163.002 271.089 163.066 271.46 163.03C271.83 162.993 272.185 162.859 272.486 162.64C273.02 162.317 273.495 161.905 273.889 161.421Z" fill="#094A28"/>
<path d="M280.31 127.948C280.31 127.632 280.31 127.331 280.266 127.022C280.222 126.713 280.23 126.412 280.193 126.111C280.156 125.81 280.156 125.714 280.134 125.516C280.083 124.987 280.002 124.473 279.921 123.98C279.877 123.76 279.84 123.525 279.796 123.304C279.752 123.084 279.708 122.886 279.664 122.673C279.532 122.107 279.399 121.549 279.238 121.02C279.15 120.77 279.076 120.513 278.988 120.285C278.973 120.246 278.961 120.207 278.951 120.167C278.856 119.918 278.775 119.682 278.679 119.433C278.58 119.163 278.467 118.898 278.341 118.639C278.261 118.446 278.171 118.257 278.07 118.073C278.017 117.935 277.951 117.802 277.871 117.677C277.798 117.515 277.71 117.353 277.621 117.199L277.555 117.089C277.482 116.949 277.394 116.817 277.313 116.677C277.232 116.538 277.195 116.501 277.144 116.413C276.748 115.793 276.306 115.204 275.821 114.65C275.733 114.562 275.652 114.466 275.572 114.378C275.491 114.29 275.432 114.231 275.366 114.157L275.094 113.893C274.844 113.63 274.576 113.385 274.293 113.158C274.165 113.045 274.03 112.939 273.889 112.842C273.75 112.732 273.61 112.629 273.463 112.534C273.244 112.371 273.016 112.221 272.78 112.086L272.596 111.968H272.559L264.478 107.273L264.419 107.237C262.327 106.07 259.966 105.472 257.571 105.503C254.001 105.503 249.975 106.678 245.706 109.139C231.012 117.603 219.154 138.19 219.154 155.132C219.154 163.573 222.093 169.51 226.883 172.294H226.927L235.009 176.982H235.053L235.185 177.055C235.398 177.173 235.604 177.283 235.817 177.386C236.03 177.489 236.346 177.628 236.618 177.738C236.89 177.849 237.103 177.93 237.352 178.003C237.482 178.052 237.614 178.092 237.749 178.121C237.884 178.176 238.025 178.217 238.168 178.245L238.601 178.356C238.705 178.385 238.811 178.407 238.917 178.422L239.49 178.525H239.623L240.313 178.613C244.273 179.032 248.873 177.915 253.795 175.079C268.489 166.608 280.347 146.014 280.347 129.087C280.332 128.734 280.325 128.352 280.31 127.948ZM262.523 115.972C263.098 118.079 263.38 120.254 263.361 122.438C263.361 137.374 252.429 156.3 239.498 163.764C237.61 164.888 235.572 165.737 233.444 166.284C232.869 164.176 232.587 161.998 232.606 159.812C232.606 144.875 243.531 125.949 256.469 118.485C258.357 117.362 260.395 116.516 262.523 115.972Z" fill="#094A28"/>
<path opacity="0.1" d="M234.627 176.798L226.839 172.287C222.063 169.495 219.11 163.551 219.11 155.124C219.11 147.572 221.476 139.299 225.392 131.695L233.473 136.389C229.55 143.986 227.184 152.266 227.184 159.819C227.214 168.077 229.998 173.933 234.627 176.798Z" fill="#094A28"/>
<path opacity="0.4" d="M280.31 127.948C280.31 127.632 280.31 127.331 280.266 127.022C280.222 126.713 280.23 126.412 280.193 126.111C280.156 125.81 280.156 125.714 280.134 125.516C280.083 124.987 280.002 124.473 279.921 123.98C279.877 123.76 279.84 123.525 279.796 123.304C279.752 123.084 279.708 122.886 279.664 122.673C279.532 122.107 279.399 121.548 279.238 121.019C279.15 120.77 279.076 120.513 278.988 120.285C278.973 120.246 278.961 120.207 278.951 120.167C278.856 119.917 278.775 119.682 278.679 119.433C278.58 119.163 278.467 118.898 278.341 118.639C278.261 118.446 278.171 118.257 278.07 118.073C278.017 117.935 277.951 117.802 277.871 117.677C277.798 117.515 277.71 117.353 277.621 117.199L277.555 117.089C277.482 116.949 277.394 116.817 277.313 116.677C277.232 116.538 277.195 116.501 277.144 116.413C276.748 115.793 276.306 115.203 275.821 114.65C275.733 114.561 275.652 114.466 275.572 114.378C275.491 114.29 275.432 114.231 275.366 114.157L275.094 113.893C274.844 113.63 274.576 113.385 274.293 113.158C274.165 113.045 274.03 112.939 273.889 112.842C273.75 112.732 273.61 112.629 273.463 112.534C273.244 112.371 273.016 112.221 272.78 112.086C267.96 109.147 261.025 109.22 253.78 113.797C239.226 122.966 227.294 143.296 227.221 159.79C227.184 168.371 230.263 174.359 235.178 177.085C235.391 177.202 235.597 177.312 235.81 177.415C236.023 177.518 236.339 177.658 236.61 177.768C236.882 177.878 237.095 177.959 237.345 178.032C237.474 178.082 237.607 178.121 237.742 178.15C237.877 178.205 238.017 178.247 238.161 178.275L238.594 178.385C238.698 178.414 238.803 178.436 238.91 178.451L239.483 178.554H239.615L240.306 178.642C244.266 179.061 248.865 177.944 253.788 175.108C268.482 166.637 280.34 146.043 280.34 129.116C280.332 128.734 280.325 128.352 280.31 127.948ZM251.084 170.487C247.793 172.39 244.626 173.389 241.915 173.389C236.831 173.389 234.494 169.921 233.444 166.284C232.869 164.176 232.587 161.998 232.606 159.812C232.606 144.875 243.531 125.949 256.469 118.485C258.357 117.362 260.395 116.516 262.523 115.972C263.543 115.722 264.589 115.592 265.638 115.583C274.043 115.583 274.94 125.075 274.94 129.16C274.94 144.096 264.022 163.022 251.084 170.487Z" fill="white"/>
<path opacity="0.1" d="M274.94 129.16C274.94 144.089 264.022 163.022 251.084 170.487C247.793 172.39 244.626 173.389 241.922 173.389C240.741 173.437 239.563 173.214 238.48 172.74C237.397 172.265 236.436 171.55 235.67 170.649C235.538 170.494 235.413 170.333 235.288 170.171C235.163 170.009 235.045 169.84 234.943 169.664C234.86 169.544 234.784 169.419 234.715 169.289C234.663 169.209 234.612 169.128 234.568 169.047C234.524 168.966 234.465 168.841 234.406 168.738C234.348 168.636 234.311 168.547 234.267 168.452C234.223 168.356 234.171 168.261 234.127 168.158L233.907 167.629C233.819 167.409 233.738 167.188 233.664 166.96C233.591 166.733 233.51 166.512 233.451 166.285C235.579 165.737 237.617 164.888 239.505 163.764C252.436 156.3 263.368 137.374 263.368 122.438C263.387 120.254 263.105 118.079 262.531 115.972C263.55 115.722 264.596 115.592 265.646 115.583C266.056 115.584 266.465 115.609 266.873 115.656L267.255 115.715C274.154 116.861 274.94 125.354 274.94 129.16Z" fill="#094A28"/>
<path opacity="0.7" d="M270.297 126.53C270.297 141.466 259.379 160.392 246.441 167.857C243.149 169.76 239.983 170.796 237.272 170.796C236.733 170.798 236.194 170.753 235.663 170.663C235.53 170.509 235.406 170.347 235.281 170.186C235.156 170.024 235.038 169.855 234.935 169.679C234.853 169.558 234.777 169.433 234.708 169.304C234.656 169.223 234.605 169.142 234.561 169.062C234.517 168.981 234.458 168.856 234.399 168.753C234.34 168.65 234.304 168.562 234.259 168.467C234.215 168.371 234.164 168.275 234.12 168.173L233.899 167.644C233.811 167.423 233.73 167.203 233.657 166.975C233.584 166.747 233.503 166.527 233.444 166.299C235.572 165.752 237.61 164.903 239.498 163.779C252.429 156.315 263.361 137.389 263.361 122.452C263.38 120.269 263.098 118.093 262.523 115.987C263.543 115.737 264.589 115.606 265.639 115.597C266.049 115.599 266.458 115.623 266.866 115.671L267.248 115.73C269.907 118.845 270.297 123.863 270.297 126.53Z" fill="white"/>
</svg>
