<svg width="325" height="332" viewBox="0 0 325 332" fill="none" xmlns="http://www.w3.org/2000/svg">
<g clip-path="url(#clip0_4_85)">
<path d="M214.711 133.602C214.408 133.602 214.118 133.722 213.904 133.936C213.69 134.15 213.57 134.44 213.57 134.743V213.089C213.57 213.391 213.69 213.681 213.904 213.895C214.118 214.109 214.408 214.229 214.711 214.23H323.859C324.161 214.229 324.451 214.109 324.665 213.895C324.879 213.681 325 213.391 325 213.089V134.743C325 134.44 324.879 134.15 324.665 133.936C324.451 133.722 324.161 133.602 323.859 133.602H214.711Z" fill="#E6E6E6"/>
<path d="M317.831 140.609V196.288C317.831 196.659 317.683 197.015 317.421 197.278C317.158 197.54 316.802 197.688 316.431 197.688H221.914C221.848 197.689 221.782 197.683 221.717 197.671C221.383 197.624 221.078 197.458 220.857 197.204C220.636 196.95 220.514 196.624 220.514 196.288V140.609C220.514 140.237 220.661 139.881 220.924 139.619C221.187 139.356 221.543 139.208 221.914 139.208H316.431C316.802 139.208 317.158 139.356 317.421 139.619C317.683 139.881 317.831 140.237 317.831 140.609Z" fill="white"/>
<path d="M298.241 164.688C301.045 164.688 303.319 162.415 303.319 159.611C303.319 156.806 301.045 154.533 298.241 154.533C295.437 154.533 293.163 156.806 293.163 159.611C293.163 162.415 295.437 164.688 298.241 164.688Z" fill="#FF6584"/>
<path d="M216.831 138.091C217.756 138.091 218.505 137.342 218.505 136.417C218.505 135.492 217.756 134.743 216.831 134.743C215.907 134.743 215.157 135.492 215.157 136.417C215.157 137.342 215.907 138.091 216.831 138.091Z" fill="#094A28"/>
<path d="M321.515 138.091C322.44 138.091 323.189 137.342 323.189 136.417C323.189 135.492 322.44 134.743 321.515 134.743C320.591 134.743 319.841 135.492 319.841 136.417C319.841 137.342 320.591 138.091 321.515 138.091Z" fill="#094A28"/>
<path d="M216.831 213.089C217.756 213.089 218.505 212.339 218.505 211.414C218.505 210.49 217.756 209.74 216.831 209.74C215.907 209.74 215.157 210.49 215.157 211.414C215.157 212.339 215.907 213.089 216.831 213.089Z" fill="#094A28"/>
<path d="M321.515 213.089C322.44 213.089 323.189 212.339 323.189 211.414C323.189 210.49 322.44 209.74 321.515 209.74C320.591 209.74 319.841 210.49 319.841 211.414C319.841 212.339 320.591 213.089 321.515 213.089Z" fill="#094A28"/>
<path d="M251.654 179.544C255.019 179.544 257.746 176.816 257.746 173.452C257.746 170.087 255.019 167.36 251.654 167.36C248.289 167.36 245.562 170.087 245.562 173.452C245.562 176.816 248.289 179.544 251.654 179.544Z" fill="#589441"/>
<path d="M252.241 191.801H250.994L251.562 172.534L252.241 191.801Z" fill="#094A28"/>
<path d="M251.672 176.186L253.012 174.332L251.654 176.644L251.507 176.388L251.672 176.186Z" fill="#094A28"/>
<path d="M251.525 178.058L250.186 176.204L251.544 178.516L251.691 178.259L251.525 178.058Z" fill="#094A28"/>
<path d="M307.537 179.544C310.902 179.544 313.629 176.816 313.629 173.452C313.629 170.087 310.902 167.36 307.537 167.36C304.173 167.36 301.445 170.087 301.445 173.452C301.445 176.816 304.173 179.544 307.537 179.544Z" fill="#589441"/>
<path d="M308.124 191.801H306.877L307.446 172.534L308.124 191.801Z" fill="#094A28"/>
<path d="M307.556 176.186L308.895 174.332L307.538 176.644L307.391 176.388L307.556 176.186Z" fill="#094A28"/>
<path d="M307.409 178.058L306.069 176.204L307.427 178.516L307.574 178.259L307.409 178.058Z" fill="#094A28"/>
<path d="M269.302 177.135C274.271 177.135 278.299 173.106 278.299 168.137C278.299 163.168 274.271 159.14 269.302 159.14C264.332 159.14 260.304 163.168 260.304 168.137C260.304 173.106 264.332 177.135 269.302 177.135Z" fill="#589441"/>
<path d="M270.169 195.238H268.326L269.166 166.782L270.169 195.238Z" fill="#094A28"/>
<path d="M269.329 172.175L271.307 169.438L269.302 172.853L269.085 172.473L269.329 172.175Z" fill="#094A28"/>
<path d="M269.112 174.94L267.134 172.202L269.139 175.617L269.356 175.238L269.112 174.94Z" fill="#094A28"/>
<path d="M291.244 173.698C296.213 173.698 300.241 169.67 300.241 164.7C300.241 159.731 296.213 155.703 291.244 155.703C286.274 155.703 282.246 159.731 282.246 164.7C282.246 169.67 286.274 173.698 291.244 173.698Z" fill="#589441"/>
<path d="M292.111 191.801H290.268L291.108 163.345L292.111 191.801Z" fill="#094A28"/>
<path d="M291.271 168.738L293.249 166.001L291.243 169.416L291.027 169.036L291.271 168.738Z" fill="#094A28"/>
<path d="M291.054 171.503L289.075 168.765L291.081 172.18L291.298 171.801L291.054 171.503Z" fill="#094A28"/>
<path d="M234.332 173.698C239.301 173.698 243.329 169.67 243.329 164.7C243.329 159.731 239.301 155.703 234.332 155.703C229.363 155.703 225.334 159.731 225.334 164.7C225.334 169.67 229.363 173.698 234.332 173.698Z" fill="#589441"/>
<path d="M235.199 191.801H233.356L234.196 163.345L235.199 191.801Z" fill="#094A28"/>
<path d="M234.359 168.738L236.337 166.001L234.332 169.416L234.115 169.036L234.359 168.738Z" fill="#094A28"/>
<path d="M234.142 171.503L232.164 168.765L234.169 172.18L234.386 171.801L234.142 171.503Z" fill="#094A28"/>
<path d="M269.804 197.688H221.914C221.848 197.689 221.782 197.683 221.717 197.671C221.383 197.624 221.078 197.458 220.857 197.204C220.636 196.95 220.514 196.624 220.514 196.287V184.331C225.02 183.58 229.581 183.21 234.15 183.223C251.15 183.223 265.37 188.095 268.936 194.616C269.474 195.553 269.772 196.608 269.804 197.688Z" fill="#094A28"/>
<path d="M317.831 193.577V196.287C317.831 196.659 317.683 197.015 317.421 197.278C317.158 197.54 316.802 197.688 316.431 197.688H263.446C265.15 196.454 266.992 195.423 268.936 194.616C275.428 191.832 284.583 190.097 294.726 190.097C303.542 190.097 311.606 191.403 317.831 193.577Z" fill="#094A28"/>
<path d="M275.439 0C275.253 0.000257824 275.069 0.0463632 274.905 0.134256L178.541 51.3926C178.274 51.5351 178.075 51.7777 177.987 52.067C177.898 52.3563 177.928 52.6688 178.07 52.9361L214.863 122.105C215.005 122.372 215.248 122.572 215.537 122.66C215.826 122.748 216.139 122.718 216.407 122.577L312.77 71.3183C313.037 71.1758 313.236 70.9334 313.325 70.644C313.413 70.3547 313.383 70.0421 313.241 69.7748L276.448 0.606037C276.378 0.473412 276.283 0.356005 276.167 0.260616C276.051 0.165228 275.918 0.0937558 275.774 0.0503428C275.666 0.0170872 275.553 0.000121406 275.439 0Z" fill="#E6E6E6"/>
<path d="M272.875 9.15086L299.022 58.306C299.108 58.4685 299.162 58.6465 299.18 58.8297C299.197 59.013 299.179 59.1979 299.125 59.374C299.071 59.55 298.983 59.7138 298.866 59.8558C298.749 59.9979 298.605 60.1154 298.443 60.2019L214.999 104.588C214.94 104.62 214.878 104.647 214.814 104.669C214.497 104.783 214.15 104.779 213.835 104.658C213.521 104.537 213.261 104.306 213.103 104.009L186.956 54.8536C186.869 54.6911 186.816 54.5131 186.798 54.3299C186.78 54.1467 186.799 53.9617 186.853 53.7857C186.907 53.6096 186.994 53.4459 187.112 53.3038C187.229 53.1618 187.373 53.0442 187.535 52.9578L270.979 8.57161C271.142 8.4851 271.32 8.43146 271.503 8.41375C271.686 8.39605 271.871 8.41462 272.047 8.46841C272.223 8.52221 272.387 8.61017 272.529 8.72727C272.671 8.84436 272.789 8.9883 272.875 9.15086Z" fill="white"/>
<path d="M217.103 73.0946C223.895 73.0946 229.401 67.5888 229.401 60.797C229.401 54.0053 223.895 48.4995 217.103 48.4995C210.311 48.4995 204.805 54.0053 204.805 60.797C204.805 67.5888 210.311 73.0946 217.103 73.0946Z" fill="#FF6584"/>
<path d="M268.947 76.1443L215.685 104.476C215.619 104.512 215.549 104.542 215.478 104.566L217.458 47.533C217.467 47.1795 217.57 46.8347 217.756 46.534C217.942 46.2332 218.205 45.9872 218.517 45.8212C218.829 45.6551 219.18 45.5749 219.533 45.5887C219.887 45.6025 220.23 45.7099 220.528 45.8999L253.01 66.1886L254.565 67.1588L268.947 76.1443Z" fill="#094A28"/>
<path opacity="0.2" d="M268.947 76.1445L250.762 85.8173L252.792 68.1024L252.937 66.8264L253.01 66.1885L254.565 67.159L268.947 76.1445Z" fill="black"/>
<path d="M298.603 60.3696L252.536 84.874L254.565 67.1588L254.711 65.883L257.355 42.7973C257.528 41.2841 259.326 40.2393 260.737 40.7299C260.833 40.7638 260.926 40.8039 261.016 40.8497L298.603 60.3696Z" fill="#094A28"/>
<path d="M181.736 54.5564C182.66 54.5564 183.41 53.8069 183.41 52.8824C183.41 51.9578 182.66 51.2083 181.736 51.2083C180.811 51.2083 180.062 51.9578 180.062 52.8824C180.062 53.8069 180.811 54.5564 181.736 54.5564Z" fill="#094A28"/>
<path d="M274.158 5.39452C275.082 5.39452 275.832 4.64502 275.832 3.72047C275.832 2.79592 275.082 2.04642 274.158 2.04642C273.233 2.04642 272.484 2.79592 272.484 3.72047C272.484 4.64502 273.233 5.39452 274.158 5.39452Z" fill="#094A28"/>
<path d="M216.956 120.769C217.881 120.769 218.63 120.02 218.63 119.095C218.63 118.171 217.881 117.421 216.956 117.421C216.032 117.421 215.282 118.171 215.282 119.095C215.282 120.02 216.032 120.769 216.956 120.769Z" fill="#094A28"/>
<path d="M309.378 71.6073C310.303 71.6073 311.052 70.8579 311.052 69.9333C311.052 69.0087 310.303 68.2592 309.378 68.2592C308.454 68.2592 307.704 69.0087 307.704 69.9333C307.704 70.8579 308.454 71.6073 309.378 71.6073Z" fill="#094A28"/>
<path d="M298.772 331.302C299.065 331.38 299.376 331.338 299.638 331.186C299.899 331.034 300.09 330.785 300.168 330.493L320.309 254.78C320.387 254.488 320.346 254.176 320.194 253.914C320.042 253.652 319.792 253.462 319.5 253.384L214.02 225.324C213.727 225.247 213.416 225.288 213.154 225.44C212.892 225.592 212.701 225.842 212.623 226.134L192.483 301.846C192.444 301.991 192.435 302.142 192.455 302.291C192.474 302.439 192.523 302.583 192.599 302.712C192.674 302.842 192.774 302.956 192.893 303.047C193.012 303.138 193.148 303.204 193.293 303.243L298.772 331.302Z" fill="#E6E6E6"/>
<path d="M311.873 258.606L297.56 312.413C297.464 312.772 297.23 313.078 296.909 313.265C296.587 313.451 296.205 313.502 295.846 313.407L204.506 289.109C204.442 289.093 204.38 289.07 204.32 289.041C204.01 288.91 203.757 288.671 203.609 288.369C203.461 288.067 203.427 287.721 203.513 287.395L217.827 233.588C217.922 233.229 218.156 232.923 218.478 232.736C218.799 232.55 219.181 232.499 219.54 232.594L310.88 256.892C311.239 256.988 311.545 257.222 311.731 257.543C311.918 257.865 311.969 258.247 311.873 258.606Z" fill="white"/>
<path d="M299.593 304.77L297.56 312.413C297.464 312.772 297.23 313.078 296.909 313.265C296.587 313.451 296.205 313.502 295.846 313.407L204.506 289.109C204.442 289.093 204.38 289.07 204.32 289.041C204.01 288.91 203.757 288.671 203.609 288.369C203.461 288.067 203.427 287.721 203.513 287.395L205.546 279.752L299.593 304.77Z" fill="#094A28"/>
<path d="M259.235 298.924L244.704 295.058L244.262 296.719L258.793 300.585L259.235 298.924Z" fill="#CCCCCC"/>
<path d="M225.813 290.033L211.281 286.168L210.84 287.828L225.371 291.694L225.813 290.033Z" fill="#CCCCCC"/>
<path d="M292.657 307.815L278.126 303.949L277.684 305.61L292.215 309.476L292.657 307.815Z" fill="#CCCCCC"/>
<path d="M215.345 230.264C216.27 230.264 217.019 229.515 217.019 228.59C217.019 227.666 216.27 226.916 215.345 226.916C214.421 226.916 213.671 227.666 213.671 228.59C213.671 229.515 214.421 230.264 215.345 230.264Z" fill="#094A28"/>
<path d="M316.511 257.176C317.436 257.176 318.185 256.426 318.185 255.502C318.185 254.577 317.436 253.828 316.511 253.828C315.587 253.828 314.837 254.577 314.837 255.502C314.837 256.426 315.587 257.176 316.511 257.176Z" fill="#094A28"/>
<path d="M196.065 302.741C196.99 302.741 197.739 301.992 197.739 301.067C197.739 300.143 196.99 299.393 196.065 299.393C195.141 299.393 194.391 300.143 194.391 301.067C194.391 301.992 195.141 302.741 196.065 302.741Z" fill="#094A28"/>
<path d="M297.231 329.653C298.156 329.653 298.905 328.903 298.905 327.979C298.905 327.054 298.156 326.305 297.231 326.305C296.307 326.305 295.557 327.054 295.557 327.979C295.557 328.903 296.307 329.653 297.231 329.653Z" fill="#094A28"/>
<path d="M277.131 301.283L285.206 303.436L285.548 302.154L277.473 300.001L277.131 301.283Z" fill="#094A28"/>
<path d="M219.002 284.755L220.565 285.584L283.885 302.464L284.808 301.289C286.406 299.277 287.414 296.861 287.719 294.309C287.933 292.404 287.734 290.402 286.392 289.198L288.561 269.732L253.541 260.349L237.077 267.676C237.077 267.676 230.714 265.861 226.089 269.261C224.408 270.536 223.15 272.287 222.479 274.287L221.743 276.5L219.002 284.755Z" fill="#589441"/>
<path d="M232.994 296.234C237.463 296.234 241.086 292.611 241.086 288.142C241.086 283.673 237.463 280.05 232.994 280.05C228.525 280.05 224.902 283.673 224.902 288.142C224.902 292.611 228.525 296.234 232.994 296.234Z" fill="#094A28"/>
<path d="M232.994 292.401C235.346 292.401 237.253 290.494 237.253 288.142C237.253 285.79 235.346 283.883 232.994 283.883C230.642 283.883 228.735 285.79 228.735 288.142C228.735 290.494 230.642 292.401 232.994 292.401Z" fill="#CCCCCC"/>
<path d="M271.576 306.519C276.045 306.519 279.668 302.897 279.668 298.427C279.668 293.958 276.045 290.336 271.576 290.336C267.107 290.336 263.484 293.958 263.484 298.427C263.484 302.897 267.107 306.519 271.576 306.519Z" fill="#094A28"/>
<path d="M271.576 302.686C273.928 302.686 275.835 300.78 275.835 298.427C275.835 296.075 273.928 294.169 271.576 294.169C269.224 294.169 267.317 296.075 267.317 298.427C267.317 300.78 269.224 302.686 271.576 302.686Z" fill="#CCCCCC"/>
<path d="M242.803 267.831L261.718 272.872L264.027 273.486L267.925 274.526L268.001 274.241L268.916 270.814L269.942 266.965L267.349 266.275L265.04 265.658L260.95 264.567L258.641 263.953L253.92 262.694L242.803 267.831Z" fill="white"/>
<path d="M271.002 275.347L280.999 278.012L281.523 276.051L282.435 272.623L283.016 270.451L281.552 270.062L279.243 269.445L273.017 267.786L271.002 275.347Z" fill="white"/>
<path d="M264.492 282.263L265.774 282.604L266.423 280.169L265.141 279.827L264.492 282.263Z" fill="#094A28"/>
<path d="M247.007 272.658L247.349 271.376L244.913 270.727L244.572 272.008L247.007 272.658Z" fill="#094A28"/>
<path d="M246.301 271.701L246.16 271.663C245.45 271.474 244.844 271.01 244.475 270.373C244.107 269.737 244.006 268.98 244.195 268.27C244.385 267.559 244.849 266.953 245.485 266.585C246.121 266.216 246.878 266.116 247.588 266.305L247.729 266.343L246.301 271.701Z" fill="#094A28"/>
<path d="M221.743 276.5C222.685 276.864 223.724 276.883 224.678 276.555C225.633 276.228 226.441 275.573 226.96 274.708C227.479 273.843 227.677 272.822 227.518 271.826C227.358 270.83 226.853 269.921 226.089 269.261C224.408 270.536 223.15 272.287 222.479 274.287L221.743 276.5Z" fill="#094A28"/>
<path d="M265.04 265.658L268.001 274.241L268.916 270.814L267.349 266.275L265.04 265.658Z" fill="#F2F2F2"/>
<path d="M279.243 269.445L281.523 276.051L282.435 272.623L281.552 270.062L279.243 269.445Z" fill="#F2F2F2"/>
<path d="M258.641 263.953L261.718 272.872L264.027 273.486L260.95 264.567L258.641 263.953Z" fill="#F2F2F2"/>
<path d="M17.1919 133.317C20.0392 133.317 22.3474 131.009 22.3474 128.161C22.3474 125.314 20.0392 123.006 17.1919 123.006C14.3447 123.006 12.0365 125.314 12.0365 128.161C12.0365 131.009 14.3447 133.317 17.1919 133.317Z" fill="#589441"/>
<path opacity="0.2" d="M19.368 123.493C20.2822 124.32 20.8688 125.449 21.0212 126.673C21.1736 127.896 20.8817 129.134 20.1985 130.161C19.5154 131.188 18.4864 131.935 17.2987 132.267C16.111 132.599 14.8436 132.494 13.7269 131.971C14.2756 132.471 14.9259 132.846 15.6332 133.071C16.3406 133.297 17.0882 133.366 17.825 133.276C18.5618 133.185 19.2703 132.936 19.902 132.547C20.5337 132.157 21.0736 131.635 21.4848 131.017C21.8961 130.399 22.1688 129.699 22.2845 128.966C22.4001 128.233 22.3559 127.483 22.1549 126.768C21.9539 126.054 21.6007 125.391 21.1197 124.826C20.6387 124.26 20.0412 123.805 19.368 123.493Z" fill="black"/>
<path d="M149.73 138.902C156.729 138.902 162.403 136.594 162.403 133.746C162.403 130.899 156.729 128.591 149.73 128.591C142.73 128.591 137.056 130.899 137.056 133.746C137.056 136.594 142.73 138.902 149.73 138.902Z" fill="#094A28"/>
<path opacity="0.2" d="M149.73 128.591C149.294 128.591 148.865 128.6 148.441 128.617C154.835 128.88 159.826 131.076 159.826 133.746C159.826 136.417 154.835 138.613 148.441 138.875C148.865 138.893 149.294 138.902 149.73 138.902C156.729 138.902 162.403 136.594 162.403 133.746C162.403 130.899 156.729 128.591 149.73 128.591Z" fill="black"/>
<path d="M166.27 133.746H102.686V126.872C102.686 126.531 102.55 126.203 102.309 125.961C102.067 125.719 101.739 125.584 101.397 125.584H66.1686C65.8267 125.584 65.4989 125.719 65.2572 125.961C65.0155 126.203 64.8797 126.531 64.8797 126.872V133.746H27.9324V129.45C27.9324 129.108 27.7967 128.78 27.5549 128.539C27.3132 128.297 26.9854 128.161 26.6436 128.161H7.74032C7.3985 128.161 7.07068 128.297 6.82897 128.539C6.58726 128.78 6.45146 129.108 6.45146 129.45V133.746H1.29603C1.12671 133.746 0.959015 133.779 0.802542 133.844C0.646068 133.909 0.503898 134.004 0.384171 134.123C0.264445 134.243 0.169514 134.385 0.104823 134.542C0.040132 134.698 0.00694657 134.866 0.00717278 135.035V219.67C0.00694657 219.84 0.040132 220.007 0.104823 220.164C0.169514 220.32 0.264445 220.462 0.384171 220.582C0.503898 220.702 0.646068 220.797 0.802542 220.861C0.959015 220.926 1.12671 220.959 1.29603 220.959H166.27C166.439 220.959 166.607 220.926 166.763 220.861C166.92 220.797 167.062 220.702 167.182 220.582C167.302 220.462 167.396 220.32 167.461 220.164C167.526 220.007 167.559 219.84 167.559 219.67V135.035C167.559 134.866 167.526 134.698 167.461 134.542C167.396 134.385 167.302 134.243 167.182 134.123C167.062 134.004 166.92 133.909 166.763 133.844C166.607 133.779 166.439 133.746 166.27 133.746Z" fill="#094A28"/>
<path opacity="0.2" d="M166.263 214.647H1.28886C1.11954 214.647 0.951844 214.614 0.79537 214.549C0.638896 214.485 0.49672 214.39 0.376993 214.27C0.257267 214.15 0.162343 214.008 0.0976515 213.852C0.0329604 213.695 -0.000225062 213.528 1.14873e-06 213.358V219.373C-0.000225062 219.542 0.0329604 219.71 0.0976515 219.866C0.162343 220.023 0.257267 220.165 0.376993 220.285C0.49672 220.405 0.638896 220.499 0.79537 220.564C0.951844 220.629 1.11954 220.662 1.28886 220.662H166.263C166.432 220.662 166.6 220.629 166.756 220.564C166.913 220.499 167.055 220.405 167.175 220.285C167.294 220.165 167.389 220.023 167.454 219.866C167.519 219.71 167.552 219.542 167.552 219.373V213.358C167.552 213.528 167.519 213.695 167.454 213.852C167.389 214.008 167.294 214.15 167.175 214.27C167.055 214.39 166.913 214.485 166.756 214.549C166.6 214.614 166.432 214.647 166.263 214.647Z" fill="black"/>
<path opacity="0.2" d="M167.559 173.271H0.00715637V189.597H167.559V173.271Z" fill="black"/>
<path opacity="0.2" d="M167.559 165.109H0.00715637V181.434H167.559V165.109Z" fill="black"/>
<path d="M167.559 168.975H0.00715637V185.301H167.559V168.975Z" fill="#589441"/>
<path d="M83.783 209.789C101.816 209.789 116.434 195.171 116.434 177.138C116.434 159.105 101.816 144.487 83.783 144.487C65.7503 144.487 51.1319 159.105 51.1319 177.138C51.1319 195.171 65.7503 209.789 83.783 209.789Z" fill="#589441"/>
<path opacity="0.2" d="M108.933 156.317C113.087 163.393 114.423 171.774 112.677 179.792C110.931 187.809 106.23 194.875 99.5092 199.584C92.7888 204.292 84.5421 206.297 76.4103 205.2C68.2785 204.102 60.8579 199.984 55.6255 193.663C57.9075 197.551 60.97 200.925 64.6203 203.572C68.2706 206.218 72.4294 208.08 76.8348 209.04C81.2401 209.999 85.7965 210.036 90.2168 209.148C94.6371 208.26 98.8256 206.466 102.518 203.879C106.211 201.292 109.328 197.968 111.672 194.117C114.017 190.266 115.538 185.971 116.141 181.502C116.744 177.034 116.414 172.49 115.174 168.155C113.933 163.82 111.808 159.79 108.933 156.317Z" fill="black"/>
<path d="M83.783 201.436C97.2026 201.436 108.081 190.558 108.081 177.138C108.081 163.718 97.2026 152.839 83.783 152.839C70.3633 152.839 59.4845 163.718 59.4845 177.138C59.4845 190.558 70.3633 201.436 83.783 201.436Z" fill="#094A28"/>
<path d="M102.686 177.138C102.69 179.704 102.168 182.244 101.152 184.6C100.609 185.871 99.924 187.078 99.1118 188.196C97.5105 190.418 95.4458 192.265 93.0603 193.61C90.6748 194.954 88.0257 195.765 85.2961 195.985C82.5666 196.205 79.8218 195.829 77.2518 194.884C74.6817 193.938 72.3478 192.446 70.4114 190.509C68.4751 188.573 66.9826 186.239 66.0372 183.669C65.0918 181.099 64.7161 178.354 64.9361 175.625C65.1561 172.895 65.9665 170.246 67.3113 167.861C68.6561 165.475 70.5031 163.41 72.7246 161.809C73.8433 160.997 75.0495 160.312 76.3205 159.768C79.1961 158.533 82.3333 158.032 85.4507 158.308C88.568 158.584 91.568 159.63 94.1814 161.352C96.7948 163.074 98.9399 165.417 100.424 168.173C101.909 170.928 102.686 174.008 102.686 177.138Z" fill="white"/>
<path opacity="0.2" d="M102.484 174.384C101.78 169.578 99.2486 165.228 95.4181 162.241C97.078 164.84 98.0768 167.805 98.3275 170.879C98.5781 173.953 98.0731 177.041 96.8563 179.875C96.3123 181.146 95.6278 182.352 94.8156 183.47C93.3283 185.534 91.4396 187.276 89.2629 188.591C87.0861 189.907 84.6661 190.77 82.1479 191.127C79.6297 191.485 77.0651 191.331 74.608 190.674C72.1509 190.016 69.8519 188.869 67.8487 187.302C69.5065 189.904 71.7764 192.061 74.46 193.583C77.1435 195.106 80.1591 195.948 83.2432 196.036C86.3273 196.124 89.3861 195.456 92.1523 194.089C94.9185 192.723 97.3079 190.699 99.1118 188.196C99.924 187.078 100.609 185.871 101.152 184.6C102.533 181.384 102.994 177.847 102.484 174.384Z" fill="black"/>
</g>
<defs>
<clipPath id="clip0_4_85">
<rect width="325" height="331.341" fill="white"/>
</clipPath>
</defs>
</svg>
