<svg width="325" height="257" viewBox="0 0 325 257" fill="none" xmlns="http://www.w3.org/2000/svg">
<g clip-path="url(#clip0_3_6)">
<path d="M204.36 234.133L199.447 234.133L197.11 215.183L204.361 215.183L204.36 234.133Z" fill="#9E616A"/>
<path d="M205.613 238.896L189.772 238.895V238.695C189.772 237.059 190.421 235.491 191.578 234.335C192.734 233.178 194.302 232.529 195.938 232.529H195.938L205.613 232.529L205.613 238.896Z" fill="#85454B"/>
<path d="M186.728 234.133L181.815 234.133L179.478 215.183L186.729 215.183L186.728 234.133Z" fill="#9E616A"/>
<path d="M187.981 238.896L172.139 238.895V238.695C172.139 237.059 172.789 235.491 173.945 234.335C175.102 233.178 176.67 232.529 178.305 232.529H178.306L187.981 232.529L187.981 238.896Z" fill="#85454B"/>
<path d="M129.508 101.346C129.901 101.886 130.407 102.334 130.991 102.657C131.576 102.98 132.224 103.171 132.89 103.217C133.556 103.262 134.224 103.161 134.847 102.921C135.469 102.681 136.032 102.307 136.495 101.825L146.216 105.621L149.964 100.276L136.16 95.1082C135.3 94.3846 134.204 94.0017 133.08 94.032C131.957 94.0623 130.883 94.5038 130.063 95.2727C129.243 96.0417 128.734 97.0846 128.632 98.2041C128.529 99.3235 128.841 100.442 129.508 101.346Z" fill="#9E616A"/>
<path d="M186.666 133.731L173.866 137.906L178.142 228.551L188.02 228.795L193.076 164.871L194.224 228.543L206.438 229.216L210.941 133.731H186.666Z" fill="#85454B"/>
<path d="M178.03 80.2967L210.88 73.1591L214.533 101.445L211.491 114.961L212.71 135.5C212.71 135.5 186.734 148.428 173.866 137.906C173.866 137.906 184.209 110.74 178.214 98.0229L178.03 80.2967Z" fill="#E4E4E4"/>
<path d="M183.719 84.2976L178.03 80.2967C178.03 80.2967 177.694 79.8313 172.953 85.3738C168.212 90.9162 158.594 99.7325 158.594 99.7325L142.564 93.7214L139.644 104.511L158.274 113.193L184.648 95.5784L183.719 84.2976Z" fill="#E4E4E4"/>
<path d="M212.716 146.103C213.319 145.818 213.853 145.404 214.279 144.89C214.706 144.376 215.014 143.775 215.183 143.129C215.352 142.483 215.377 141.808 215.257 141.151C215.137 140.495 214.874 139.872 214.487 139.328L220.028 130.484L215.475 125.806L207.826 138.405C206.955 139.116 206.374 140.121 206.195 141.23C206.015 142.34 206.249 143.477 206.852 144.426C207.454 145.375 208.384 146.07 209.465 146.379C210.546 146.688 211.702 146.59 212.716 146.103Z" fill="#9E616A"/>
<path d="M205.756 78.7314L210.88 73.1591C210.88 73.1591 216.589 71.171 221.253 81.4444C225.918 91.7177 231.127 112.556 231.127 112.556L218.947 136.018L209.488 131.791L218.947 112.39L208.937 98.0229L205.756 78.7314Z" fill="#E4E4E4"/>
<path d="M197.068 70.8391C202.235 68.0143 204.135 61.5352 201.31 56.3677C198.485 51.2003 192.006 49.3011 186.838 52.1259C181.671 54.9507 179.772 61.4298 182.597 66.5972C185.421 71.7647 191.9 73.6639 197.068 70.8391Z" fill="#9E616A"/>
<path d="M200.945 51.9471C200.441 49.8297 198.675 48.1584 196.645 47.3747C194.614 46.591 192.353 46.5985 190.207 46.9632C186.645 47.5684 183.318 49.1045 180.041 50.6251L182.567 51.8337L179.081 52.0337L181.775 53.4268C181.056 53.9742 180.508 54.7165 180.198 55.5656C179.888 56.4146 179.828 57.3349 180.025 58.2171C180.164 58.7944 180.534 59.4306 181.128 59.4505C181.845 59.4746 182.219 58.6387 182.722 58.1258C183.39 57.4436 184.445 57.2922 185.391 57.4208C186.337 57.5493 187.234 57.9134 188.168 58.1146C189.348 58.3605 190.567 58.347 191.742 58.0748C192.916 57.8027 194.018 57.2786 194.969 56.5387L198.328 64.6271C198.297 64.3221 198.336 64.0139 198.443 63.7265C198.55 63.4391 198.722 63.1804 198.946 62.9706C199.17 62.7607 199.439 62.6054 199.732 62.5168C200.026 62.4281 200.336 62.4085 200.639 62.4595C200.941 62.5105 201.227 62.6307 201.476 62.8107C201.724 62.9907 201.927 63.2257 202.07 63.4973C202.212 63.7689 202.29 64.0697 202.297 64.3763C202.304 64.6829 202.24 64.987 202.11 65.2648C203.564 63.0715 204.734 60.5797 204.774 57.9485C204.814 55.3173 203.509 52.5454 201.12 51.4413" fill="#85454B"/>
<path d="M77.3666 215.339L72.8244 222.48L75.4701 213.184C69.884 207.355 62.1508 203.091 62.1508 203.091C62.1508 203.091 52.6284 218.741 55.1914 228.368C57.7543 237.995 64.3722 239.833 71.4319 237.953C78.4916 236.074 83.3197 231.189 80.7568 221.562C80.1863 219.419 78.9471 217.316 77.3666 215.339Z" fill="#F2F2F2"/>
<path d="M71.3569 223.192L71.4832 223.667C72.9235 229.19 73.139 233.741 72.1204 237.258C72.1065 237.309 72.0895 237.359 72.0756 237.41L71.8381 237.34L71.6106 237.27C72.7643 233.459 72.2494 228.642 70.9944 223.825C70.9555 223.669 70.916 223.511 70.8717 223.354C70.3224 221.319 69.6495 219.292 68.9169 217.344C68.8616 217.193 68.8032 217.04 68.7449 216.887C67.7647 214.32 66.6937 211.903 65.7015 209.82C65.632 209.673 65.5602 209.526 65.489 209.381C63.795 205.863 62.359 203.37 62.0364 202.819C61.9982 202.751 61.9758 202.715 61.9709 202.706L62.1772 202.583L62.179 202.58L62.3876 202.457C62.3924 202.465 62.468 202.589 62.6001 202.82C63.0991 203.683 64.4245 206.035 65.9526 209.195C66.0208 209.338 66.0926 209.485 66.1621 209.632C66.9691 211.322 67.8247 213.222 68.6385 215.24C68.8437 215.746 69.04 216.247 69.2274 216.743C69.2881 216.896 69.3464 217.049 69.4018 217.2C70.1939 219.306 70.8456 221.303 71.3569 223.192Z" fill="white"/>
<path d="M65.9526 209.195C65.8008 209.258 65.6467 209.322 65.489 209.381C65.0609 209.544 64.6247 209.684 64.1822 209.802C62.297 210.307 60.3227 210.382 58.4046 210.022C58.339 210.173 58.2735 210.324 58.2063 210.478C60.229 210.875 62.3159 210.805 64.3073 210.272C64.7797 210.146 65.245 209.996 65.7015 209.821C65.8568 209.762 66.0109 209.698 66.1621 209.632C67.4117 209.1 68.5732 208.381 69.6069 207.5C69.4715 207.398 69.339 207.297 69.2096 207.199C68.2281 208.021 67.1306 208.694 65.9526 209.195Z" fill="white"/>
<path d="M69.2274 216.743C69.0678 216.796 68.907 216.844 68.7449 216.887C68.6962 216.902 68.6445 216.916 68.5952 216.929C66.5517 217.473 64.4071 217.515 62.344 217.051C60.2809 216.587 58.3605 215.631 56.7467 214.265C56.6896 214.428 56.6326 214.592 56.5785 214.757C58.247 216.13 60.2186 217.086 62.3301 217.546C64.4416 218.005 66.6321 217.955 68.7203 217.399C68.786 217.381 68.8518 217.364 68.917 217.344C69.0808 217.298 69.2416 217.25 69.4018 217.2C71.8758 216.404 74.0681 214.912 75.7166 212.902C75.6045 212.784 75.4924 212.665 75.378 212.547C73.7797 214.515 71.6422 215.973 69.2274 216.743Z" fill="white"/>
<path d="M71.3569 223.192C71.1962 223.25 71.0343 223.303 70.8717 223.354C70.6974 223.408 70.5225 223.46 70.3463 223.507C67.5996 224.234 64.6911 224.053 62.0561 222.99C59.4212 221.926 57.2016 220.038 55.7297 217.607C55.6746 217.826 55.6189 218.042 55.5686 218.259C57.1365 220.657 59.4203 222.501 62.0956 223.527C64.7709 224.553 67.7016 224.711 70.4714 223.976C70.6475 223.93 70.8231 223.88 70.9944 223.825C71.16 223.775 71.3219 223.722 71.4832 223.667C74.7355 222.523 77.4314 220.185 79.0251 217.128C78.9295 216.968 78.8275 216.811 78.7248 216.652C77.2127 219.707 74.5699 222.053 71.3569 223.192Z" fill="white"/>
<path d="M254.542 216.084L250.066 223.121L252.673 213.96C247.168 208.216 239.547 204.014 239.547 204.014C239.547 204.014 230.163 219.436 232.689 228.923C235.215 238.41 241.736 240.222 248.693 238.369C255.651 236.517 260.409 231.703 257.883 222.216C257.321 220.105 256.1 218.032 254.542 216.084Z" fill="#F2F2F2"/>
<path d="M248.62 223.823L248.744 224.29C250.163 229.733 250.376 234.219 249.372 237.684C249.358 237.735 249.342 237.784 249.328 237.834L249.094 237.765L248.87 237.696C250.007 233.94 249.499 229.194 248.262 224.446C248.224 224.293 248.185 224.137 248.141 223.982C247.6 221.977 246.937 219.98 246.215 218.06C246.16 217.91 246.103 217.76 246.045 217.609C245.08 215.08 244.024 212.698 243.046 210.645C242.978 210.5 242.907 210.355 242.837 210.213C241.168 206.745 239.752 204.288 239.434 203.746C239.397 203.679 239.375 203.643 239.37 203.634L239.573 203.513L239.575 203.51L239.781 203.388C239.785 203.397 239.86 203.518 239.99 203.747C240.482 204.597 241.788 206.915 243.294 210.029C243.361 210.17 243.432 210.315 243.5 210.46C244.295 212.125 245.139 213.998 245.941 215.986C246.143 216.485 246.336 216.979 246.521 217.467C246.581 217.618 246.638 217.768 246.693 217.917C247.473 219.993 248.116 221.961 248.62 223.823Z" fill="white"/>
<path d="M243.294 210.029C243.144 210.091 242.992 210.154 242.837 210.213C242.415 210.373 241.985 210.511 241.549 210.627C239.691 211.125 237.746 211.199 235.855 210.844C235.791 210.993 235.726 211.141 235.66 211.293C237.653 211.684 239.71 211.615 241.672 211.09C242.138 210.966 242.596 210.818 243.046 210.645C243.199 210.587 243.351 210.524 243.5 210.46C244.732 209.936 245.876 209.227 246.895 208.359C246.762 208.258 246.631 208.159 246.503 208.062C245.536 208.872 244.455 209.535 243.294 210.029Z" fill="white"/>
<path d="M246.521 217.467C246.364 217.519 246.205 217.566 246.046 217.609C245.998 217.624 245.947 217.638 245.898 217.651C243.884 218.187 241.771 218.228 239.738 217.771C237.704 217.314 235.812 216.372 234.222 215.025C234.165 215.186 234.109 215.348 234.056 215.51C235.7 216.864 237.643 217.806 239.724 218.258C241.805 218.711 243.963 218.661 246.021 218.114C246.086 218.096 246.151 218.079 246.215 218.06C246.376 218.014 246.535 217.967 246.693 217.917C249.131 217.133 251.291 215.663 252.916 213.682C252.805 213.566 252.695 213.449 252.582 213.333C251.007 215.271 248.901 216.708 246.521 217.467Z" fill="white"/>
<path d="M248.62 223.823C248.461 223.88 248.302 223.932 248.141 223.982C247.97 224.036 247.797 224.086 247.624 224.133C244.917 224.85 242.051 224.671 239.454 223.623C236.857 222.575 234.67 220.714 233.219 218.319C233.165 218.534 233.11 218.747 233.061 218.961C234.606 221.325 236.856 223.141 239.493 224.153C242.129 225.164 245.017 225.319 247.747 224.596C247.92 224.549 248.093 224.501 248.262 224.446C248.425 224.398 248.585 224.345 248.744 224.29C251.949 223.163 254.606 220.86 256.176 217.847C256.082 217.689 255.982 217.534 255.88 217.378C254.39 220.389 251.786 222.7 248.62 223.823Z" fill="white"/>
<path d="M161.901 41.2475C161.901 24.4141 150.165 10.768 135.688 10.768C121.212 10.768 109.476 24.4141 109.476 41.2475C109.476 56.5146 119.13 69.1597 131.726 71.3806V74.253C131.726 74.7956 131.942 75.316 132.325 75.6997C132.709 76.0834 133.229 76.2989 133.772 76.299H137.605C138.147 76.2989 138.668 76.0834 139.051 75.6997C139.435 75.316 139.651 74.7956 139.651 74.253V71.3807C152.247 69.1597 161.901 56.5147 161.901 41.2475Z" fill="#F5ACA4"/>
<path d="M131.096 73.8378C131.916 73.0676 132.893 72.484 133.96 72.1271C135.027 71.7701 136.159 71.6484 137.277 71.7701C138.405 71.9007 139.486 72.2914 140.437 72.9113C141.387 73.5311 142.181 74.3633 142.755 75.3421C143.329 76.2919 143.69 77.3553 143.812 78.4584C143.934 79.5616 143.815 80.6781 143.463 81.7305C142.774 83.8295 141.309 85.5762 139.808 87.1505C138.232 88.8022 136.519 90.3254 135.038 92.066C132.596 94.9533 130.891 98.3898 130.069 102.081C129.247 105.772 129.333 109.607 130.318 113.258C131.617 117.885 134.3 122.005 138.007 125.064C138.477 125.449 138.962 125.815 139.461 126.163C140.038 126.567 140.584 125.621 140.012 125.22C135.988 122.373 133.014 118.28 131.55 113.573C130.44 109.905 130.298 106.012 131.138 102.273C131.978 98.5335 133.77 95.0752 136.342 92.234C137.904 90.5093 139.653 88.9654 141.215 87.2402C142.711 85.5875 144.075 83.7229 144.659 81.5394C144.955 80.4293 145.028 79.2716 144.875 78.133C144.721 76.9944 144.344 75.8975 143.765 74.9052C143.189 73.8908 142.409 73.0064 141.475 72.3074C140.541 71.6084 139.473 71.1099 138.337 70.8431C136.052 70.3465 133.663 70.76 131.678 71.9959C131.192 72.3061 130.738 72.6645 130.324 73.0655C129.816 73.554 130.589 74.3258 131.096 73.8378Z" fill="#A9706E"/>
<path d="M60.8917 28.4841C52.8713 10.0464 33.5154 0.691313 17.6591 7.58884C1.80266 14.4864 -4.54962 35.0246 3.47075 53.4622C10.7449 70.1843 27.3433 79.4349 42.1984 75.8659L43.567 79.012C43.8255 79.6063 44.3095 80.0736 44.9126 80.311C45.5156 80.5485 46.1883 80.5367 46.7826 80.2781L50.9808 78.4519C51.5751 78.1934 52.0424 77.7093 52.2798 77.1063C52.5172 76.5032 52.5054 75.8305 52.2469 75.2362L50.8783 72.0901C63.6171 63.6558 68.1658 45.2062 60.8917 28.4841Z" fill="#F5ACA4"/>
<path d="M42.5986 78.7637C43.1197 77.5632 43.8872 76.4855 44.8514 75.6005C45.8156 74.7156 46.9549 74.043 48.1956 73.6265C49.4139 73.2162 50.7072 73.0772 51.9848 73.2192C53.2625 73.3611 54.4937 73.7806 55.5922 74.4482C56.7239 75.1187 57.6997 76.0227 58.4545 77.1C59.2093 78.1773 59.7258 79.4032 59.9695 80.6958C60.5293 83.6915 59.621 86.7429 58.5889 89.532C57.507 92.4557 56.1587 95.2952 55.4064 98.3314C54.3595 102.599 54.3383 107.053 55.3447 111.33C56.351 115.607 58.3563 119.585 61.1961 122.938C64.7729 127.082 69.4836 130.091 74.7483 131.592C75.3941 131.774 76.0466 131.93 76.7042 132.063C77.3905 132.202 77.684 131.149 76.9946 131.01C71.5168 129.882 66.5248 127.08 62.709 122.992C58.664 118.618 56.2204 113.003 55.7769 107.063C55.5394 104.053 55.8153 101.025 56.5927 98.1074C57.4226 95.0289 58.8274 92.1466 59.8864 89.1471C60.897 86.2849 61.6131 83.2113 60.9782 80.1824C60.3945 77.5155 58.7762 75.1893 56.4787 73.7147C55.3776 72.9886 54.1432 72.4887 52.8472 72.2438C51.5512 71.999 50.2194 72.0142 48.9294 72.2885C46.2948 72.8853 43.9865 74.4634 42.4743 76.7018C42.1064 77.2599 41.7953 77.8534 41.5454 78.4734C41.2769 79.1222 42.3331 79.405 42.5986 78.7637Z" fill="#A9706E"/>
<path d="M284.933 251.185L290.82 251.184L293.621 228.477L284.932 228.477L284.933 251.185Z" fill="#FFB6B6"/>
<path d="M283.431 249.262L295.025 249.262H295.026C296.985 249.262 298.864 250.04 300.25 251.426C301.635 252.812 302.414 254.691 302.414 256.65V256.89L283.432 256.891L283.431 249.262Z" fill="#85454B"/>
<path d="M250.088 246.178L255.701 247.953L265.22 227.148L256.936 224.528L250.088 246.178Z" fill="#FFB6B6"/>
<path d="M249.236 243.893L260.29 247.389L260.29 247.389C262.159 247.98 263.716 249.289 264.619 251.028C265.522 252.767 265.697 254.794 265.106 256.662L265.034 256.891L246.935 251.166L249.236 243.893Z" fill="#85454B"/>
<path d="M263.343 147.477L260.077 156.691L259.984 206.433L250.719 240.49L262.092 243.663L274.655 211.551L278.684 183.345L283.994 211.715L283.263 245.435H295.195L296.096 193.473C296.349 178.879 293.795 164.374 288.574 150.744L263.343 147.477Z" fill="#85454B"/>
<path d="M259.453 110.154H278.74L286.798 118.213L289.206 151.524L260.077 156.212L250.719 124.428L255.815 110.92L259.453 110.154Z" fill="#E4E4E4"/>
<path d="M252.517 124.746L222.822 113.573L222.049 108.955L240.776 93.1082L247.009 97.7835L235.712 110.154L255.815 110.92L252.517 124.746Z" fill="#E4E4E4"/>
<path d="M244.378 99.5897C247.03 99.5897 249.18 97.4398 249.18 94.7878C249.18 92.1357 247.03 89.9858 244.378 89.9858C241.726 89.9858 239.576 92.1357 239.576 94.7878C239.576 97.4398 241.726 99.5897 244.378 99.5897Z" fill="#FFB6B6"/>
<path d="M255.514 100.837L257.684 91.0527C258.065 89.3295 258.781 87.6982 259.792 86.2519C260.803 84.8057 262.09 83.5729 263.578 82.6241C265.066 81.6753 266.726 81.0291 268.464 80.7224C270.202 80.4156 271.983 80.4544 273.706 80.8365C275.429 81.2185 277.059 81.9364 278.505 82.9491C279.95 83.9617 281.181 85.2493 282.129 86.7381C283.076 88.227 283.721 89.888 284.026 91.6261C284.331 93.3643 284.29 95.1455 283.907 96.868L281.737 106.652C281.633 107.119 281.348 107.526 280.944 107.783C280.541 108.04 280.052 108.126 279.585 108.023L256.885 102.989C256.418 102.885 256.012 102.6 255.755 102.197C255.498 101.793 255.411 101.304 255.514 100.837Z" fill="#85454B"/>
<path d="M270.463 104.525C275.686 103.012 278.694 97.5509 277.18 92.3278C275.667 87.1048 270.206 84.0975 264.983 85.6109C259.76 87.1243 256.752 92.5854 258.266 97.8084C259.779 103.031 265.24 106.039 270.463 104.525Z" fill="#FFB6B6"/>
<path d="M254.409 91.1476C255.022 88.3986 256.7 86.0049 259.076 84.4917C261.451 82.9785 264.33 82.4694 267.08 83.0761L269.037 83.5101C271.786 84.123 274.18 85.8014 275.693 88.1769C277.206 90.5525 277.715 93.4313 277.109 96.1817L277.065 96.3774L272.93 95.4603L272.395 91.1977L271.237 95.0849L269.1 94.6109L268.83 92.4603L268.246 94.4215L254.365 91.3433L254.409 91.1476Z" fill="#85454B"/>
<path d="M264.351 105.799C264.215 105.493 264.168 105.155 264.216 104.824C264.264 104.492 264.404 104.181 264.621 103.926C267.57 100.442 272.09 93.7974 269.232 88.4479L269.027 88.0635L280.216 90.5448L276.49 107.343L265.929 106.882C265.822 106.877 265.715 106.863 265.611 106.84C265.333 106.779 265.075 106.652 264.855 106.471C264.636 106.29 264.463 106.06 264.351 105.799Z" fill="#85454B"/>
<path d="M277.973 110.356L309.384 114.822L311.14 119.163L296.295 138.694L289.197 135.482L297.542 120.956L277.751 124.568L277.973 110.356Z" fill="#E4E4E4"/>
<path d="M325 47.0355C325 26.929 310.982 10.6294 293.691 10.6294C276.399 10.6294 262.382 26.929 262.382 47.0355C262.382 65.2712 273.912 80.375 288.958 83.0278V86.4587C288.958 87.1068 289.215 87.7284 289.674 88.1867C290.132 88.645 290.754 88.9025 291.402 88.9025H295.98C296.628 88.9025 297.25 88.645 297.708 88.1867C298.166 87.7284 298.424 87.1068 298.424 86.4587V83.0278C313.469 80.375 325 65.2712 325 47.0355Z" fill="#F5ACA4"/>
<path d="M288.13 85.8877C289.124 84.9534 290.309 84.2462 291.604 83.8151C292.898 83.384 294.27 83.2393 295.626 83.3909C296.958 83.5479 298.237 84.0058 299.366 84.7301C300.494 85.4544 301.443 86.4261 302.141 87.5715C302.851 88.7019 303.307 89.9727 303.479 91.2965C303.651 92.6202 303.534 93.9655 303.136 95.2397C302.364 97.741 300.668 99.8352 298.901 101.712C297.016 103.715 294.95 105.546 293.148 107.627C290.209 111.042 288.144 115.119 287.13 119.509C286.116 123.898 286.183 128.468 287.326 132.826C288.854 138.427 292.084 143.416 296.569 147.103C297.114 147.546 297.674 147.969 298.251 148.371C298.828 148.775 299.374 147.828 298.802 147.428C293.999 144.033 290.441 139.157 288.675 133.547C287.333 129.168 287.143 124.517 288.123 120.043C289.102 115.569 291.219 111.423 294.267 108.005C296.12 105.936 298.207 104.094 300.081 102.045C301.876 100.083 303.524 97.8811 304.261 95.289C304.632 93.9797 304.74 92.6099 304.578 91.2588C304.417 89.9076 303.989 88.6019 303.319 87.4172C302.652 86.2057 301.742 85.1451 300.646 84.3018C299.55 83.4585 298.292 82.8507 296.95 82.5166C294.223 81.8897 291.359 82.3647 288.981 83.8383C288.397 84.2072 287.854 84.6352 287.358 85.1154C286.851 85.6047 287.624 86.3764 288.13 85.8877Z" fill="#A9706E"/>
<path d="M291.917 144.248C294.569 144.248 296.719 142.098 296.719 139.446C296.719 136.794 294.569 134.644 291.917 134.644C289.265 134.644 287.115 136.794 287.115 139.446C287.115 142.098 289.265 144.248 291.917 144.248Z" fill="#FFB6B6"/>
<path d="M241.878 96.1359C241.626 96.5341 241.015 96.4762 240.673 96.2272C240.197 95.8816 240.351 95.2159 240.678 94.8225C241.72 93.5723 243.442 94.8922 243.675 96.1338C243.761 96.7392 243.668 97.3566 243.407 97.9095C243.145 98.4624 242.728 98.9265 242.205 99.2441C241.017 99.9482 239.473 99.5951 238.452 98.7524C236.321 96.9944 236.901 93.4746 239.268 92.2028C240.779 91.3912 242.688 91.7474 244.177 92.4273C245.852 93.1927 247.292 94.3658 248.841 95.3436C252.241 97.4713 256.086 98.7843 260.076 99.1799C260.775 99.2511 260.77 98.1584 260.076 98.0877C257.865 97.8591 255.694 97.3363 253.621 96.5333C251.57 95.7019 249.623 94.6334 247.82 93.3495C245.996 92.0992 244.09 90.8847 241.833 90.6781C240.922 90.5717 239.999 90.7084 239.158 91.0743C238.317 91.4402 237.588 92.0223 237.045 92.7614C236.562 93.4227 236.239 94.1869 236.101 94.9941C235.962 95.8013 236.013 96.6296 236.248 97.414C236.532 98.2343 237.028 98.9647 237.685 99.531C238.343 100.097 239.139 100.479 239.992 100.638C240.814 100.793 241.663 100.688 242.422 100.337C243.181 99.9868 243.812 99.408 244.226 98.6819C245.057 97.245 245.03 95.3147 243.775 94.1234C243.415 93.7577 242.965 93.4941 242.47 93.3595C241.975 93.2249 241.453 93.2241 240.958 93.3572C240.501 93.5113 240.1 93.7952 239.802 94.174C239.504 94.5528 239.324 95.0101 239.282 95.49C239.161 97.3553 241.809 98.2881 242.821 96.6871C243.197 96.0912 242.253 95.5426 241.878 96.1359Z" fill="#A9706E"/>
<path d="M23.3712 154.832L21.9288 156.642L16.8269 153.623L18.2693 151.813L23.3712 154.832Z" fill="#E4E4E4"/>
<path d="M28.6949 162.608L29.9691 164.51L24.6094 167.176L23.3352 165.274L28.6949 162.608Z" fill="#E4E4E4"/>
<path d="M34.2432 154.342L36.7894 154.432L36.5361 159.759L33.9898 159.669L34.2432 154.342Z" fill="#E4E4E4"/>
<path d="M83.4413 10.6637L81.9989 12.4735L76.8969 9.45539L78.3394 7.64528L83.4413 10.6637Z" fill="#E4E4E4"/>
<path d="M88.765 18.44L90.0392 20.3415L84.6795 23.0076L83.4053 21.1061L88.765 18.44Z" fill="#E4E4E4"/>
<path d="M94.3132 10.1737L96.8595 10.2636L96.6061 15.5913L94.0599 15.5013L94.3132 10.1737Z" fill="#E4E4E4"/>
<path d="M225.061 29.5949L223.619 31.4046L218.517 28.3866L219.959 26.5764L225.061 29.5949Z" fill="#E4E4E4"/>
<path d="M230.385 37.3712L231.659 39.2727L226.299 41.9387L225.025 40.0372L230.385 37.3712Z" fill="#E4E4E4"/>
<path d="M235.933 29.1048L238.479 29.1948L238.226 34.5224L235.68 34.4325L235.933 29.1048Z" fill="#E4E4E4"/>
<path d="M181.738 3.01843L180.295 4.82818L175.193 1.81011L176.636 0L181.738 3.01843Z" fill="#E4E4E4"/>
<path d="M187.061 10.7948L188.336 12.6963L182.976 15.3623L181.702 13.4608L187.061 10.7948Z" fill="#E4E4E4"/>
<path d="M192.61 2.5284L195.156 2.61833L194.903 7.94599L192.356 7.85607L192.61 2.5284Z" fill="#E4E4E4"/>
<path d="M225.784 139.071L224.341 141.172L229.443 144.675L230.886 142.575L225.784 139.071Z" fill="#E4E4E4"/>
<path d="M230.85 154.695L232.124 156.902L237.484 153.808L236.21 151.601L230.85 154.695Z" fill="#E4E4E4"/>
<path d="M241.504 148.19L244.051 148.294L244.304 142.11L241.758 142.006L241.504 148.19Z" fill="#E4E4E4"/>
<path d="M117.555 234.408L121.965 233.726L118.942 198.485L109.112 200.305L117.555 234.408Z" fill="#FFB6B6"/>
<path d="M116.207 233.142L124.894 231.799C126.362 231.572 127.86 231.937 129.059 232.815C130.258 233.693 131.059 235.01 131.286 236.479L131.313 236.659L117.091 238.858L116.207 233.142Z" fill="#85454B"/>
<path d="M71.1965 233.971L75.6555 234.161L81.0793 202.853L71.2496 202.854L71.1965 233.971Z" fill="#FFB6B6"/>
<path d="M70.1209 232.467L78.9028 232.841H78.9032C80.3874 232.904 81.7857 233.555 82.7905 234.649C83.7953 235.743 84.3243 237.192 84.2611 238.676L84.2534 238.858L69.8748 238.245L70.1209 232.467Z" fill="#85454B"/>
<path d="M79.976 131.969C79.7655 131.91 79.5501 131.869 79.3325 131.849L82.1124 109.095L91.5448 89.1195C92.1382 87.8629 92.2331 86.4281 91.8102 85.1043C91.3873 83.7806 90.4782 82.6665 89.2661 81.9867C88.0541 81.3069 86.6294 81.1121 85.2794 81.4414C83.9293 81.7708 82.7544 82.5998 81.9916 83.7614C79.5194 87.5254 77.6494 91.652 76.4489 95.9923L72.486 110.321L75.3838 134.892C75.2726 135.585 75.364 136.294 75.6469 136.936C75.9297 137.578 76.392 138.125 76.9782 138.51C77.5643 138.895 78.2493 139.103 78.9507 139.108C79.6521 139.113 80.3401 138.916 80.9318 138.539C81.5235 138.162 81.9937 137.623 82.286 136.985C82.5782 136.347 82.68 135.639 82.579 134.945C82.478 134.251 82.1786 133.6 81.7168 133.072C81.255 132.544 80.6505 132.161 79.976 131.969Z" fill="#FFB6B6"/>
<path d="M85.703 111.021L73.7859 97.3879L79.6896 83.502C80.4626 81.6836 81.9157 80.2394 83.7387 79.4775C85.5618 78.7156 87.6104 78.6964 89.4475 79.4239C91.2845 80.1514 92.7645 81.5681 93.5715 83.3717C94.3785 85.1752 94.4487 87.2227 93.7671 89.0773L85.703 111.021Z" fill="#85454B"/>
<path d="M105.513 67.5602C108.38 62.3153 106.452 55.7392 101.208 52.8721C95.9627 50.005 89.3866 51.9326 86.5195 57.1775C83.6524 62.4224 85.5799 68.9985 90.8248 71.8656C96.0697 74.7327 102.646 72.8051 105.513 67.5602Z" fill="#FFB6B6"/>
<path d="M97.826 49.2198H90.8345C86.2511 49.2198 82.5355 53.4 82.5355 58.5564L82.859 71.0635C87.8115 71.6796 92.6555 72.9752 97.2543 74.9137L97.9069 72.127L99.1941 75.797C100.339 76.3517 101.474 76.9582 102.599 77.6166C101.286 71.4454 100.745 65.2885 101.647 60.5057H104.015V57.9143L104.819 60.5057H109.112C109.112 59.0237 108.82 57.5561 108.253 56.1868C107.686 54.8175 106.854 53.5734 105.806 52.5254C104.758 51.4774 103.514 50.6461 102.145 50.0789C100.776 49.5118 99.3081 49.2198 97.826 49.2198Z" fill="#85454B"/>
<path d="M120.622 200.399L119.61 200.643L118.76 184.833L112.57 137.505L105.471 119.484L108.93 106.924C108.93 106.924 112.935 98.186 102.923 91.4509L94.9135 77.9807C89.381 74.3632 84.829 76.7285 82.4025 82.8773C80.2882 88.2348 78.6469 95.0127 79.623 102.009C81.8096 117.68 83.6276 119.484 83.6276 119.484C83.6276 119.484 69.9753 134.592 72.8878 153.887L71.2647 203.845L69.7796 203.784L69.617 207.752L82.5907 208.284L82.7534 204.316L81.6772 204.272L86.3581 184.468L93.2753 158.256L105.289 190.293L109.33 203.119L107.999 203.44L108.929 207.301L121.552 204.26L120.622 200.399Z" fill="#85454B"/>
<path d="M129.538 110.689C129.391 110.851 129.259 111.026 129.143 111.211L110.029 98.5577L96.3729 81.1941C95.5139 80.1017 94.2726 79.3758 92.8994 79.1627C91.5262 78.9496 90.1233 79.2651 88.9736 80.0457C87.8239 80.8263 87.013 82.0138 86.7044 83.3687C86.3959 84.7237 86.6126 86.1452 87.3109 87.3467C89.5738 91.2401 92.43 94.7569 95.7766 97.7702L106.824 107.717L130.101 116.104C130.671 116.513 131.347 116.748 132.048 116.782C132.749 116.816 133.444 116.646 134.051 116.294C134.657 115.942 135.149 115.422 135.467 114.796C135.785 114.171 135.916 113.467 135.843 112.77C135.77 112.072 135.498 111.41 135.058 110.864C134.618 110.318 134.03 109.91 133.363 109.69C132.697 109.47 131.982 109.448 131.303 109.625C130.625 109.802 130.012 110.172 129.538 110.689Z" fill="#FFB6B6"/>
<path d="M113.356 96.2061L95.8353 100.776L86.0503 89.2902C84.769 87.7862 84.1262 85.8409 84.2591 83.8695C84.392 81.8982 85.2902 80.0568 86.7618 78.7384C88.2335 77.42 90.1622 76.729 92.1363 76.8128C94.1103 76.8966 95.9735 77.7487 97.3281 79.1871L113.356 96.2061Z" fill="#85454B"/>
</g>
<defs>
<clipPath id="clip0_3_6">
<rect width="325" height="256.891" fill="white"/>
</clipPath>
</defs>
</svg>
