<?xml version="1.0" ?><svg id="Layer_1" style="enable-background:new 0 0 4000 4000;" version="1.1" viewBox="0 0 4000 4000" xml:space="preserve" xmlns="http://www.w3.org/2000/svg" xmlns:xlink="http://www.w3.org/1999/xlink"><style type="text/css">
	.st0{fill:none;}
	.st1{fill:#D0D5D8;}
	.st2{fill:#C1BEBC;}
	.st3{fill:#FFC727;}
	.st4{fill:#1A1A1A;}
	.st5{fill:#EFF0F1;}
	.st6{fill:#FFFFFF;}
</style><g><path class="st0" d="M1091.4,2999.7c-3.2-1.1-8.3-2.1-14.8-2.8c-13-1.5-31.5-2.1-53-2.1c-77.9,0-194.3,8-231.1,10.7   c15.5,7.1,35,12.4,56.4,16c26.5,4.4,56.1,6.3,85.3,6.3c50.5,0,100.1-5.7,130.9-13.7c10.2-2.7,18.4-5.6,23.6-8.5   c2.9-1.6,4.9-3.2,5.8-4.4C1094.1,3000.8,1093,3000.2,1091.4,2999.7z"/><path class="st0" d="M2517.7,2322.8c2.6-15.6,7.1-31.2,13.2-46.6c-17.6-0.7-34.7-3.5-51.1-8.7c-22.4-7.3-43.6-21-63.5-38.9h-8.9   C2452.4,2265.1,2490.5,2298.3,2517.7,2322.8z"/><path class="st0" d="M721.5,2668.7c1.3-80.5,11.4-174.1,11.4-174.1c0.1-0.6,0.3-1.2,0.7-1.7c3-3.7,6.3-6.4,9.9-8.1   c3.6-1.8,7.3-2.6,11.1-2.6c4.3,0,8.6,1,12.7,2.8c4.1,1.8,8.1,4.2,11.8,7.1c7.5,5.9,14.1,13.6,18.8,21.5   c15.6,25.9,36.5,65.9,53.6,99.4c14.2,27.9,25.7,51.3,29.2,58.4c19.2-2.9,152.6-23.2,324-52.8c41.8-7.2,85.9-15,131.2-23.3   c40.6-60.8,178.6-264,316.1-429.3c25.2-30.3,50.3-59.2,74.8-85.9h-224.5c0,1.8-1.5,3.3-3.3,3.3h-132.3c-1.8,0-3.3-1.5-3.3-3.3   h-239.2c0,1.8-1.5,3.3-3.3,3.3H634.7c6.1,21.4,11.7,43.3,16,65c0,0,0,0,0,0c5.8,29.1,9.5,57.7,9.5,83.7c0,12.9-0.9,25.1-2.9,36.5   c-6.8,38.9-28.5,66.9-54.9,86.7c-26.4,19.9-57.4,31.8-83.7,38.9l0,0c-25.8,7-46.9,9.4-54.5,10.1l-8.6,282.9   c5.2,2.2,19.8,8.4,38.2,17.2c3.1,1.5,6.3,3.1,9.6,4.7C561.8,2671.1,639.2,2641.4,721.5,2668.7z M1280.2,2209c0,1.8-1.5,3.3-3.3,3.3   h-59.1c-1.8,0-3.3-1.5-3.3-3.3c0-1.8,1.5-3.3,3.3-3.3h59.1C1278.8,2205.7,1280.2,2207.2,1280.2,2209z M1054.8,2145.8h191.4   c1.8,0,3.3,1.5,3.3,3.3c0,1.8-1.5,3.3-3.3,3.3h-191.4c-1.8,0-3.3-1.5-3.3-3.3C1051.5,2147.3,1052.9,2145.8,1054.8,2145.8z"/><path class="st0" d="M1909.4,2245.3c-3,3.7-6.8,8-11.3,12.7c-9,9.5-20.8,21-34.7,33.9c-27.8,25.8-64.2,57.5-103.7,90.5   c-77.4,64.6-166.9,134.4-228.1,175.8c84-16.8,166.7-34.4,241.6-52.3c2.1-9.9,4-19.8,5.4-29.8c0.2-1.3,1.2-2.4,2.5-2.8   c69.9-17.2,156.5-38.5,244-59.4c-40.3-53.8-77.9-112.4-112-173.5C1912,2242,1910.8,2243.6,1909.4,2245.3z"/><path class="st0" d="M3415.1,2652.5l-130.7-272.6c-29,64.2-65,129.5-106.2,186.8l30,62.5   C3272.7,2633.9,3344.7,2641.1,3415.1,2652.5z"/><path class="st0" d="M511.6,1914.7h-78.9h-9.2H410c-7.1,61.4-57.5,110.5-121.3,114.1c-2.5,0.1-4.9,0.2-7.3,0.2   c-11.7,0-23.1-1.6-34-4.6c-13,37.2-25.9,79.8-34.5,121.4h295.2v-201.5C508.1,1934.3,509.3,1924.3,511.6,1914.7z"/><path class="st0" d="M564.8,2080.1c0,0,18.6-19.6,48.2-44c-20.9-61.8-42.8-111.3-47.4-121.4h-40.3c-2.6,9.6-3.9,19.6-3.9,29.7   l0,201.5h122.1c-4.5-21.9-10.3-44.1-16.6-65.6H564.8z"/><path class="st0" d="M3137,2624.9l-1.8-3.7c-1,1.2-2,2.3-3.1,3.5C3133.8,2624.7,3135.4,2624.8,3137,2624.9z"/><path class="st1" d="M2653,1384.4c-0.6,0.2-0.9,0.8-0.8,1.4c0.2,0.6,0.8,0.9,1.4,0.8l0,0c186.5-49.6,360.5-97.4,510.1-131.5   c2.3-1.3,4.6-2.6,6.9-3.8C3019.2,1285.4,2842.5,1334,2653,1384.4z"/><path class="st1" d="M3489,1205.5c0.6,0,1.1-0.5,1.1-1.1c0-0.6-0.5-1.1-1.1-1.1c-81.7,1-187.7,18.7-310.9,46.3   c-2.3,1.3-4.5,2.5-6.8,3.8C3297.5,1224.9,3406,1206.4,3489,1205.5z"/><path class="st1" d="M3163.6,1255.1c-115.4,63.2-236.3,109.3-359.6,142.8c-0.6,0.2-0.9,0.8-0.8,1.4c0.2,0.6,0.8,0.9,1.4,0.8l0,0   c125.7-34.2,249.1-81.6,366.7-146.7c2.3-1.3,4.5-2.5,6.8-3.8c110.1-61.8,215-139.2,311.7-236.4c0.4-0.4,0.4-1.1,0-1.6   c-0.4-0.4-1.1-0.4-1.6,0c-98.5,99-205.5,177.4-317.8,239.7C3168.2,1252.5,3165.9,1253.9,3163.6,1255.1z"/><path class="st2" d="M721.5,2668.7c-82.3-27.3-159.8,2.3-217.9,40.4c18.7,9.2,39.9,20.5,59,32.7c51.2-2.3,99.9-3.7,142.6-3.7   c6.3,0,12.4,0,18.3,0.1c-1.5-15.3-2.2-33.4-2.2-52.8C721.4,2680,721.4,2674.4,721.5,2668.7z"/><path class="st2" d="M3132.2,2624.6c-8.1,9.2-16.4,18-24.9,26.4c-48.8,48.6-102.4,82.9-159,91.7l0,0c-50,9.2-96.2,12.6-137.2,12.6   c-10.9,0-21.5-0.2-31.6-0.7c9.2,2,17.9,4,26.4,6.1c48.3,11.6,88.8,23.1,152.9,23.1c19.1,0,40.3-1,64.5-3.4   c69.8-6.8,126.7-15.1,177.3-22.7l-63.7-132.9C3135.4,2624.8,3133.8,2624.7,3132.2,2624.6z"/><path class="st2" d="M3555.6,2772.4c6,5.4,11.4,10.9,17.2,16.1c7.7,6.9,16.1,13.1,27.9,18.2c15.7,6.7,37.6,11.2,71.9,11.2   c3.3,0,6.6,0,10.2-0.1c27-0.7,52.7-0.9,76.7-0.9c2.1,0,4.1,0,6.2,0c-26.2-75.3-140.9-121.7-274.6-150.3l43.1,90   C3542.6,2761.5,3549.5,2766.9,3555.6,2772.4z"/><path class="st2" d="M3208.2,2629.2l57,119c50.2-7.1,96.4-12.1,146.8-12.1c14.2,0,28.6,0.4,43.6,1.2c0.1,0,0.1,0,0.2,0l-40.7-85   C3344.7,2641.1,3272.7,2633.9,3208.2,2629.2z"/><path class="st3" d="M1579.7,1882.4c0-25.6-10.4-48.8-27.1-65.5c-16.8-16.8-39.9-27.1-65.5-27.1c-25.6,0-48.8,10.4-65.5,27.1   c-16.8,16.8-27.1,39.9-27.1,65.5c0,1.6,0,3.2,0.1,4.7c51.7,15.7,106.2,37.6,157.8,61.1c0.1-0.1,0.2-0.2,0.3-0.3   C1569.4,1931.1,1579.7,1908,1579.7,1882.4z"/><path class="st4" d="M1394.5,1887.1c-0.1-1.6-0.1-3.1-0.1-4.7c0-25.6,10.4-48.8,27.1-65.5c16.8-16.8,39.9-27.1,65.5-27.1   c25.6,0,48.8,10.4,65.5,27.1c16.8,16.8,27.1,39.9,27.1,65.5c0,25.6-10.4,48.8-27.1,65.5c-0.1,0.1-0.2,0.2-0.3,0.3   c2.1,1,4.3,1.9,6.4,2.9c17.1-17.8,27.7-42.1,27.7-68.8c0-54.9-44.5-99.3-99.3-99.3c-54.9,0-99.3,44.5-99.3,99.3   c0,0.9,0,1.8,0.1,2.7C1390,1885.8,1392.3,1886.4,1394.5,1887.1z"/><path class="st2" d="M730.3,2076.8c21.1-12.4,99.8-58,194.7-103.9c-50.9-20.9-102-34.6-139.7-28.1   c-62.2,10.8-124.5,52.5-166.9,86.7c4.9,14.5,9.8,29.7,14.4,45.2H730.3z"/><path class="st2" d="M564.8,2080.1h62.1c-4.4-15.1-9.1-29.9-13.9-44C583.4,2060.5,564.8,2080.1,564.8,2080.1z"/><path class="st5" d="M937.5,1703.1c0,0,2.1-1.1,5.8-2.3c-1.1-1.4-2.2-2.5-3.2-3.5c-1.4,2.9-2.4,4.8-2.8,5.5   C937.4,1702.9,937.4,1703,937.5,1703.1z"/><path class="st5" d="M950.4,1779.5c-19-29.8-11.1-73.6-11.1-73.6l-1.8-2.9c-1.3,0.5-2.7,0.8-4.1,1.1c0,6.6-0.6,23.6-5.3,41.9   c4.2,42.9,18.8,113.1,66,194.9c6.7-3,13.5-5.9,20.3-8.8C986.8,1894.5,960.4,1843.5,950.4,1779.5z"/><path class="st5" d="M946.5,1711.1c0-0.3,0-0.6,0-0.9c-3.3-1.9-5.6-3.2-6.6-3.8C940.9,1707,943.3,1708.5,946.5,1711.1z"/><path class="st5" d="M933.5,1693.6c-0.6,0-1.1,0-1.6,0.2c1.3,2.1,2.7,4.3,4,6.6C935.3,1698.8,934.4,1696.5,933.5,1693.6z"/><path class="st5" d="M939.3,1706c0,0-7.9,43.7,11.1,73.6c8.9,14,23.6,24.9,47.8,26.9c-11.5-57-38.7-84.9-51.7-95.3   c-3.2-2.6-5.6-4.1-6.6-4.7C939.5,1706.1,939.3,1706,939.3,1706z"/><path class="st5" d="M1007.3,1705.8c23.3,0.8,46.8-0.5,58.8-7c-55.3-74.6-123.7,0.8-123.7,0.8s1.1,0.2,3.1,0.5   C957,1696.7,980,1693.1,1007.3,1705.8z"/><path class="st5" d="M937.3,1702.8c0.4-0.7,1.4-2.6,2.8-5.5c8.5-17.1,31.4-67.9,18.7-95.4c-36.9,34.8-30.8,74-25.3,91.7   c0.9,2.9,1.8,5.2,2.4,6.8C936.4,1701.2,936.9,1702,937.3,1702.8z"/><path class="st5" d="M939.3,1706c0,0,0.2,0.1,0.6,0.4c1,0.6,3.3,1.9,6.6,3.8c21.3,12,84.2,45.5,111.3,37.8   c-17.4-21.8-34.7-34.7-50.5-42.1c-27.3-12.8-50.3-9.2-61.9-5.7c-0.8,0.2-1.5,0.4-2.1,0.7c-3.8,1.3-5.8,2.3-5.8,2.3L939.3,1706z"/><path class="st5" d="M929.3,1703.1c2.5-1.3,4-1.8,4-1.8s0,1.1,0,3c1.5-0.3,2.9-0.6,4.1-1.1c-0.1-0.1-0.1-0.2-0.2-0.3   c-0.5-0.8-0.9-1.6-1.4-2.4c-1.3-2.3-2.7-4.5-4-6.6c-47.3-74.1-106.7-36.6-106.7-36.6s48,33.6,83.9,44.3   C919.8,1701.5,927.7,1702.8,929.3,1703.1z"/><path class="st5" d="M929.3,1703.1c-1.6-0.3-9.5-1.6-20.1-1.7c-27.4-0.2-72.7,7.6-73.1,61.7c17.2-2.5,46.4-22.7,67.5-39   C912.7,1712.6,923.6,1706,929.3,1703.1z"/><path class="st5" d="M933.4,1704.2c0-1.9,0-3,0-3s-1.5,0.6-4,1.8c-5.7,2.9-16.6,9.5-25.7,21.1c-11.9,15.3-20.6,39.2-10.4,75.1   c19.7-11.8,29.7-33.3,34.9-53.2C932.8,1727.8,933.4,1710.8,933.4,1704.2z"/><path class="st5" d="M1120.9,2076.8c1.8,0,3.3,1.5,3.3,3.3h239.2c0-1.8,1.5-3.3,3.3-3.3h132.3c1.8,0,3.3,1.5,3.3,3.3h224.5   c8.8-9.6,17.6-18.9,26.2-27.8c-44.4-25.6-115.9-65-194.5-101.2c-2.1-1-4.3-2-6.4-2.9c-51.6-23.5-106-45.5-157.8-61.1   c-2.2-0.7-4.5-1.3-6.7-2c-45.4-13.3-88.4-21.6-125.5-21.6c-66.3,0-158.5,30.5-248,68.7c-6.8,2.9-13.6,5.8-20.3,8.8   c-23.6,10.4-46.7,21.2-69,32c-94.9,45.9-173.6,91.4-194.7,103.9H1120.9z"/><path class="st6" d="M3313.2,2311c-7.6,19.8-15.9,40-24.9,60.3c-0.1,0.2-0.2,0.4-0.3,0.6l175.4,366.1c24.8,2,42.9,6.3,57,12   c1.4,0.6,2.7,1.1,4,1.7L3313.2,2311z"/><path class="st4" d="M3313.2,2311l211.2,440.7c3.5,1.6,6.7,3.2,9.7,4.9l-43.1-90l-174.5-364.2   C3315.4,2305.2,3314.3,2308.1,3313.2,2311z"/><path class="st4" d="M3288,2371.9c-1.2,2.6-2.4,5.3-3.6,7.9l130.7,272.6l40.7,85c2.6,0.1,5.1,0.3,7.6,0.5L3288,2371.9z"/><path d="M3450.7,2072.8c3.9-3.9,5.8-9,5.9-14.1c0-5.1-1.9-10.2-5.9-14.1l-6.4-6.4c-3.9-3.9-9-5.8-14.1-5.9   c-5.1,0-10.2,1.9-14.1,5.9l-60.4,60.4h43.6c1.4,0,2.6,0.8,3.1,2.1c0.5,1.3,0.1,2.7-0.9,3.7c0,0-20.5,18.5-40.4,33.5   c-1.2,9.2-2.8,19.1-4.9,29.5L3450.7,2072.8z"/><path d="M3355.6,2098.5l60.4-60.4c3.9-3.9,9-5.8,14.1-5.9c5.1,0,10.2,1.9,14.1,5.9l6.4,6.4c3.9,3.9,5.8,9,5.9,14.1   c0,5.1-1.9,10.2-5.9,14.1l-94.4,94.4c-0.8,3.9-1.6,7.8-2.4,11.8l101.6-101.6c5.2-5.2,7.8-12,7.8-18.8c0-6.8-2.6-13.6-7.8-18.8   l-6.4-6.4c-5.2-5.2-12-7.8-18.8-7.8c-6.8,0-13.6,2.6-18.8,7.8l-65.1,65.1H3355.6z"/><path class="st6" d="M1523.9,2555.4c31.4-21.1,71-50.2,112.8-82.6c83.6-64.7,176.2-142.2,229.8-192.9   c15.3-14.5,27.5-26.8,35.3-35.9c3.8-4.5,6.6-8.2,8.1-10.8c1.7-43.8,8.2-86.8,24-127.6c8.6-24.9,19.4-50,33.3-72.7l-19.5-58.6   c-13.5-2.2-26.6-3.3-39.2-3.3c-18.5,0-35.8,2.5-51.6,7.7c-15.9,5.3-30.3,13.3-43.1,24.6c-44.9,39.5-95.5,94.2-146.5,154.9   c-51,60.6-102.4,127.2-149.2,190.3c-78.7,106.1-144.4,202.6-173.1,245.4c55.5-10.1,112.7-20.9,169.5-32.1   C1517.6,2559.6,1520.7,2557.5,1523.9,2555.4z"/><path class="st4" d="M1863.4,2291.9c13.9-12.9,25.7-24.4,34.7-33.9c4.5-4.8,8.3-9,11.3-12.7c1.4-1.7,2.6-3.3,3.7-4.8   c-0.9-1.6-1.8-3.2-2.7-4.8c-0.3-0.5-0.4-1.1-0.4-1.7c0-0.3,0-0.5,0-0.8c-1.5,2.6-4.3,6.3-8.1,10.8c-7.8,9.1-19.9,21.4-35.3,35.9   c-53.7,50.7-146.2,128.2-229.8,192.9c-41.8,32.4-81.4,61.6-112.8,82.6c-3.2,2.2-6.3,4.2-9.4,6.2c5.7-1.1,11.4-2.3,17.1-3.4   c61.2-41.4,150.7-111.2,228.1-175.8C1799.3,2349.4,1835.6,2317.7,1863.4,2291.9z"/><path class="st4" d="M1652.1,2166c-137.5,165.4-275.5,368.6-316.1,429.3c3-0.5,6.1-1.1,9.1-1.7c28.7-42.8,94.4-139.3,173.1-245.4   c46.8-63.1,98.3-129.7,149.2-190.3c51-60.6,101.5-115.4,146.5-154.9c12.8-11.3,27.3-19.3,43.1-24.6c15.9-5.3,33.2-7.7,51.6-7.7   c12.6,0,25.7,1.2,39.2,3.3l-2.4-7.1c-12.6-1.9-24.9-2.9-36.8-2.9c-19.1,0-37.1,2.5-53.7,8.1c-16.6,5.5-31.9,14-45.4,25.9   c-18,15.8-36.9,34.1-56.3,54.1c-8.6,8.9-17.4,18.2-26.2,27.8C1702.4,2106.8,1677.2,2135.8,1652.1,2166z"/><path class="st3" d="M1940.2,2107.9c-15.4,39.9-21.8,82.1-23.5,125.4c35,63.1,73.9,123.7,115.5,179c25-5.9,49.9-11.8,74.6-17.6   c113.3-26.4,219.3-49.3,281.9-58.3c17.9-2.6,32.3-4,42.4-4c0.9,0,1.7,0,2.5,0c27.6,0.7,55.6,4.1,83.4,9.5c-0.3-1.2-0.7-2.5-1-3.7   c-0.1-0.4-0.1-0.7-0.1-1.1c0.2-2.2,0.5-4.4,0.7-6.5c-18.4-16.6-42.3-37.7-70.2-61.3c-15.3-13-31.9-26.7-49.4-40.9h-99   c0,0,0,0-0.1,0c-0.3,0-0.5,0-0.7-0.1c0,0-0.1,0-0.1,0c-0.2-0.1-0.4-0.1-0.5-0.2l-288.4-138.3c-1.4-0.7-2.2-2.3-1.8-3.8l4.4-16.9   h-29c-1.4,0-2.7-0.9-3.1-2.3l-8.6-25.7c-12.2,20.9-21.9,43.7-29.8,66.6L1940.2,2107.9z"/><path class="st4" d="M2517.7,2322.8c-27.2-24.4-65.3-57.7-110.3-94.2h-10.5c17.5,14.2,34.1,27.9,49.4,40.9   c27.9,23.6,51.8,44.7,70.2,61.3C2516.9,2328,2517.3,2325.4,2517.7,2322.8z"/><path class="st4" d="M1910,2233.1c0,0.3,0,0.5,0,0.8c0,0.6,0.1,1.2,0.4,1.7c0.9,1.6,1.8,3.2,2.7,4.8c34,61.1,71.7,119.7,112,173.5   c2.4-0.6,4.7-1.1,7.1-1.7c-41.6-55.4-80.5-115.9-115.5-179c1.7-43.3,8.1-85.5,23.5-125.4l0-0.1c7.9-22.9,17.6-45.7,29.8-66.6   l-2.8-8.3c-13.9,22.8-24.7,47.8-33.3,72.7C1918.2,2146.3,1911.8,2189.3,1910,2233.1z"/><path class="st6" d="M1728.3,2678.6c9.7-57.9,30.8-110.9,43.4-165.5c-358.4,85.3-892.2,165.3-892.3,165.3c-1.4,0.2-2.8-0.5-3.5-1.8   c0,0-0.8-1.7-2.3-4.7c-1.5-3.1-3.7-7.5-6.4-13c-5.4-10.9-13-26.1-21.5-42.8c-17-33.5-37.9-73.4-53.3-99   c-3.3-5.5-7.6-10.9-12.3-15.5c-4.8-4.6-10.1-8.3-15.3-10.5c-3.5-1.5-6.9-2.3-10.1-2.3c-2.8,0-5.5,0.6-8.1,1.9c-2.4,1.2-4.8,3-7,5.7   c-0.1,0.8-0.2,2-0.4,3.7c-0.3,3.1-0.8,7.6-1.3,13.3c-1.1,11.3-2.5,27.3-4,45.9c-2.9,37.2-5.7,84.7-5.7,126.2   c0,15.2,0.4,29.5,1.3,42.2c0.3,3.7,0.6,7.3,0.9,10.7c38,0.6,70,2.5,93,6.2c89.7,14.7,215.5,23.1,331.5,23.1   c88.1,0,170.7-4.8,227.4-15.3c41-7.5,98-10.2,160.7-10.2c57.8,0,120.4,2.3,179.6,5.2C1722.6,2723.8,1724.7,2700.4,1728.3,2678.6   L1728.3,2678.6z"/><path class="st4" d="M1728.3,2678.6L1728.3,2678.6c-3.6,21.9-5.7,45.2-5.8,68.8c0,0,0,0,0,0   C1722.6,2723.8,1724.7,2700.4,1728.3,2678.6L1728.3,2678.6z"/><path class="st4" d="M728,2685.5c0-41.5,2.9-89.1,5.7-126.2c1.4-18.6,2.9-34.6,4-45.9c0.5-5.7,1-10.2,1.3-13.3   c0.2-1.7,0.3-2.9,0.4-3.7c2.3-2.6,4.6-4.5,7-5.7c2.6-1.3,5.3-1.9,8.1-1.9c3.2,0,6.7,0.8,10.1,2.3c5.2,2.2,10.5,5.9,15.3,10.5   c4.8,4.6,9.1,10,12.3,15.5c15.4,25.6,36.3,65.5,53.3,99c8.5,16.7,16.1,31.9,21.5,42.8c2.7,5.5,4.9,9.9,6.4,13   c1.5,3.1,2.3,4.7,2.3,4.7c0.6,1.3,2,2,3.5,1.8c0.1,0,533.9-80,892.3-165.3c0.6-2.4,1.1-4.8,1.6-7.2   c-74.9,17.9-157.6,35.5-241.6,52.3c-5.7,1.1-11.4,2.3-17.1,3.4c-56.8,11.2-114,22-169.5,32.1c-3,0.6-6.1,1.1-9.1,1.7   c-45.3,8.2-89.4,16-131.2,23.3c-171.5,29.6-304.8,49.9-324,52.8c-3.5-7.1-15-30.5-29.2-58.4c-17.1-33.5-38-73.5-53.6-99.4   c-4.8-7.9-11.4-15.7-18.8-21.5c-3.7-2.9-7.7-5.4-11.8-7.1c-4.1-1.7-8.4-2.8-12.7-2.8c-3.7,0-7.5,0.8-11.1,2.6   c-3.6,1.8-6.9,4.5-9.9,8.1c-0.4,0.5-0.7,1.1-0.7,1.7c0,0.1-10.1,93.6-11.4,174.1c-0.1,5.7-0.1,11.3-0.1,16.7   c0,19.4,0.6,37.5,2.2,52.8c2.2,0,4.5,0.1,6.7,0.1c-0.4-3.4-0.7-7-0.9-10.7C728.4,2715,728,2700.6,728,2685.5z"/><path class="st3" d="M2672.6,2522.4c-39.3-13.5-78.1-37.3-108.7-78.1c-18.7-24.9-34.3-56.2-45.2-95.1c-28.5-5.7-57.3-9.3-85.5-10   c-0.7,0-1.5,0-2.3,0c-9.6,0-23.7,1.4-41.5,3.9c-17.7,2.5-39.1,6.2-63.1,10.8c-48.1,9.2-107.1,21.9-170.2,36.3   c-125.3,28.6-266.8,63.5-371.4,89.1c-10,68.5-38.5,131.3-50,200.4l0,0c-3.5,21.6-5.6,44.8-5.7,68.1c83.3,4.2,159.2,9.6,204.5,11.6   c13.5,0.6,29.2,0.9,46.7,0.9c125.4,0,346.4-13.6,565.6-21.3l201.2-201.2C2723.3,2535.6,2697.9,2531.1,2672.6,2522.4z    M2404.9,2432.7L2404.9,2432.7c0.2-1.8,1.9-3.1,3.7-2.9c1.8,0.2,3.1,1.9,2.9,3.7v0l0,0.1l0,0.2c0,0.2-0.1,0.6-0.1,1   c-0.1,0.9-0.1,2.2-0.1,3.8c0,5.8,0.8,15.6,5,25.5c4.2,9.9,11.6,19.7,25.3,26.2c9.1,4.3,21.2,7.1,37,7.1c1.8,0,3.3,1.5,3.3,3.3   c0,1.8-1.5,3.3-3.3,3.3c-24.9,0-41.8-6.7-53-16.2c-11.2-9.5-16.5-21.6-18.9-32c-1.6-6.9-2-13-2-17.3   C2404.6,2435,2404.9,2432.8,2404.9,2432.7z"/><path class="st3" d="M2639.1,2733.9l-3.9,3.9c6.7,0.2,13.2,0.4,19.4,0.7c0.4-0.1,0.7-0.2,1.1-0.4   C2649.2,2736.6,2643.6,2735.1,2639.1,2733.9z"/><path class="st4" d="M2654.6,2738.5c1.1,0.1,2.2,0.1,3.3,0.2c-0.7-0.2-1.5-0.3-2.2-0.5C2655.4,2738.2,2655,2738.4,2654.6,2738.5z"/><path class="st4" d="M1734.8,2679.6L1734.8,2679.6c11.5-69,39.9-131.9,50-200.4c104.6-25.7,246-60.6,371.4-89.1   c63.1-14.4,122.1-27.1,170.2-36.3c24.1-4.6,45.4-8.3,63.1-10.8c17.7-2.5,31.9-3.9,41.5-3.9c0.8,0,1.6,0,2.3,0   c28.2,0.7,57,4.3,85.5,10c-0.7-2.3-1.3-4.7-1.9-7.1c-27.8-5.4-55.8-8.8-83.4-9.5c-0.8,0-1.6,0-2.5,0c-10.2,0-24.5,1.4-42.4,4   c-62.6,8.9-168.6,31.9-281.9,58.3c-24.6,5.7-49.6,11.6-74.6,17.6c-2.4,0.6-4.7,1.1-7.1,1.7c-87.4,20.9-174.1,42.2-244,59.4   c-1.3,0.3-2.3,1.4-2.5,2.8c-1.4,10-3.3,19.9-5.4,29.8c-0.5,2.4-1,4.8-1.6,7.2c-12.6,54.6-33.7,107.5-43.4,165.5l0,0   c-3.6,21.9-5.7,45.2-5.8,68.8c2.2,0.1,4.4,0.2,6.6,0.3C1729.2,2724.4,1731.3,2701.3,1734.8,2679.6z"/><path class="st6" d="M3152.2,1849.7c-11.8-2.8-24.8-7.7-37.9-16c-5.2-3.3-9-6.7-11.5-10.4c-2.5-3.6-3.7-7.6-3.7-11.4   c0-4,1.2-7.8,2.9-11.6c1.7-3.7,4-7.4,6.5-11.1c5-7.4,10.7-14.9,14.4-22.8c2.5-5.2,4-10.5,4-16c0-4.1-0.8-8.2-2.9-12.7   c-1.6-3.6-3.2-6.2-4.5-8.1c-1.3-1.9-2.5-2.9-3.2-3.3c-0.5-0.3-0.8-0.3-1-0.3c-0.3,0-0.5,0.1-1,0.3c-0.5,0.2-1,0.7-1.7,1.4   c-1.3,1.3-2.8,3.5-4.3,6.2c-3,5.3-6.2,12.2-9.8,18.2c-2.5,4-5.1,7.6-8.6,10.1c-2,1.4-4.2,2.4-6.8,2.6c-0.7,0.1-1.4,0.1-2.1,0.1   c-2.8,0-5.5-0.5-7.8-1.7c-2.3-1.2-4.3-3.2-5.3-5.7c-0.7-1.7-1.1-3.6-1.1-5.6c0-3.4,0.9-7.1,2.7-11.3c1.8-4.2,4.6-9,8.4-14.4   c6.6-9.2,16.4-20.1,30.2-33c-2.5-2.3-4.9-4.7-7.3-7.1c-37.6-16-63.3-38.4-79.9-57.8c-4.8-5.5-8.8-10.8-12.1-15.6   c-2.5,3.1-4.9,6.3-7.2,9.6c-24.5,35.2-39.7,80.4-39.7,119.4c0,19.5,3.8,37.4,11.9,51.8c8.2,14.4,20.5,25.3,38.3,31.2l0,0   c9.9,2.8,16.9,7.8,21.2,14.2c4.3,6.4,6,13.9,6,21.5c0,14.2-5.4,29.1-10.7,40.7c-2,4.4-4.1,8.4-5.8,11.5   c34.7,3.2,74.4,12.1,118.5,30.2c0-0.5,0-0.9,0-1.4C3141.4,1907.6,3145.8,1877.3,3152.2,1849.7z"/><path class="st4" d="M3152.2,1849.7c-6.4,27.6-10.8,57.9-10.8,91.8c0,0.5,0,0.9,0,1.4c2.2,0.9,4.4,1.8,6.7,2.8   c0-1.4-0.1-2.8-0.1-4.2c0-33.4,4.3-63.2,10.7-90.4C3156.6,1850.7,3154.4,1850.2,3152.2,1849.7z"/><path class="st4" d="M3022.9,1912.7c1.7-3.2,3.8-7.1,5.8-11.5c5.3-11.6,10.7-26.5,10.7-40.7c0-7.6-1.6-15.2-6-21.5   c-4.3-6.4-11.3-11.3-21.2-14.2l0,0c-17.8-5.9-30.2-16.8-38.3-31.2c-8.1-14.4-11.9-32.3-11.9-51.8c0-39,15.2-84.2,39.7-119.4   c2.3-3.3,4.7-6.5,7.2-9.6c-1.4-2-2.7-4-3.9-5.8c-9.8,12.2-18.5,26-25.7,40.5c-15,30.2-23.9,63.8-23.9,94.3c0,20.4,3.9,39.4,12.8,55   c8.8,15.7,22.7,27.8,42,34.2l0.1,0c8.8,2.5,14.2,6.6,17.6,11.6c3.4,5,4.8,11.1,4.8,17.8c0,12.5-5,26.8-10.1,37.9   c-2.6,5.6-5.1,10.3-7,13.7c0,0,0,0,0,0C3018,1912.2,3020.4,1912.4,3022.9,1912.7z"/><path class="st6" d="M2522.5,2337.3c10.8,43.1,27.1,76.7,46.8,103c19.8,26.4,43,45.4,67.7,59.1c38,21.1,79.3,29.4,116.4,32.1   l229.2-229.2l-0.9-2c-1.5-3.1-2.2-6.4-2.2-9.6c0-8.3,4.7-16.3,12.7-20.1l15.9-7.6c3.1-1.5,6.4-2.2,9.6-2.2c1.9,0,3.9,0.3,5.7,0.8   l172.1-172.1c4.9-18.1,7.6-35.2,7.6-50.9c0-19.3-4-36.5-12.9-50.9c-8.8-14.4-22.4-26.2-42.1-34.8c-61.2-26.6-114-35.1-156.6-35.1   c-32.9,0-59.6,5.1-79.2,10.7l-51.9,208.3c0.7,0.2,1.4,0.6,1.8,1.2c1.1,1.5,0.8,3.5-0.6,4.6c-0.2,0.1-98.1,75.1-209,112.8   c-37,12.6-75.4,21-112.2,21c-0.8,0-1.6,0-2.4,0C2529.9,2296.6,2524.4,2316.9,2522.5,2337.3z"/><path class="st4" d="M2912.8,1921.5c1.8-0.2,3.5,1.1,3.7,2.9c0.2,1.8-1.1,3.5-2.9,3.7c-0.4,0-0.8,0.1-1.2,0.2l-0.1,0.2   c19.6-5.6,46.3-10.7,79.2-10.7c42.6,0,95.4,8.4,156.6,35.1c19.7,8.6,33.3,20.4,42.1,34.8c8.8,14.4,12.9,31.5,12.9,50.9   c0,15.7-2.7,32.8-7.6,50.9l9.1-9.1c3.3-14.6,5.1-28.6,5.1-41.8c0-20.2-4.2-38.7-13.8-54.3c-9.6-15.7-24.4-28.4-45.1-37.4   c-0.9-0.4-1.8-0.7-2.6-1.1c-2.2-1-4.5-1.9-6.7-2.8c-44.1-18.1-83.9-27-118.5-30.2c-2.4-0.2-4.9-0.4-7.3-0.6   c-8.4-0.6-16.4-0.9-24.2-0.9c-32.4,0-59,4.8-78.9,10.3C2912.6,1921.5,2912.7,1921.5,2912.8,1921.5L2912.8,1921.5z"/><path class="st4" d="M2516.6,2330.6c-0.3,2.2-0.5,4.4-0.7,6.5c0,0.4,0,0.7,0.1,1.1c0.3,1.3,0.6,2.5,1,3.7c0.6,2.4,1.3,4.8,1.9,7.1   c10.9,39,26.5,70.2,45.2,95.1c30.6,40.8,69.3,64.6,108.7,78.1c25.3,8.7,50.8,13.2,74.6,15.2l6.1-6.1c-37-2.7-78.4-11-116.4-32.1   c-24.7-13.7-47.9-32.7-67.7-59.1c-19.7-26.3-36-60-46.8-103c2-20.3,7.4-40.7,15.5-60.9c-2.4,0-4.7-0.1-7.1-0.2   c-6,15.4-10.5,31-13.2,46.6C2517.3,2325.4,2516.9,2328,2516.6,2330.6z"/><path d="M3089.7,1722.1c-7.2,8.6-11.7,15.7-14,21.2c-1.6,3.7-2.2,6.6-2.2,8.7c0,1.3,0.2,2.2,0.5,3c0.3,0.7,0.7,1.3,1.3,1.8   c1.1,0.9,3,1.6,5.8,1.6c0.5,0,1,0,1.6-0.1c1.3-0.1,2.7-0.7,4.3-2.1c1.6-1.3,3.2-3.3,4.8-5.7c3.2-4.8,6.2-11.1,9.2-16.8   c2-3.8,4-7.2,6.4-9.9c1.4-1.5,2.9-2.8,4.8-3.6c1-0.4,2.1-0.7,3.3-0.7c1.5,0,2.9,0.4,4.3,1.2c1.3,0.7,2.5,1.8,3.7,3   c2.3,2.6,4.5,6.2,6.9,11.3c2.5,5.3,3.5,10.5,3.5,15.5c0,5.1-1.1,9.9-2.8,14.4c-1.7,4.5-4,8.8-6.5,12.8c-5,8.1-10.9,15.5-14.6,22.1   c-2.5,4.4-3.9,8.5-3.9,12.1c0,2.6,0.7,5,2.5,7.7c1.8,2.7,4.9,5.5,9.6,8.5c24.2,15.3,48.1,18.4,63.8,18.4c8.2,0,14.1-0.9,16.5-1.3   c0.3-0.4,0.6-0.9,1-1.5c1.1-1.7,2.7-4.3,4.7-7.5c3.9-6.5,9.1-15.9,14.3-27.2c6-13,11.9-28.6,15.9-45.3   c-35.2-7.4-66.8-23.4-94.9-44.2c-9.1-6.7-17.8-14-26.1-21.6C3103.2,1707,3095.5,1715,3089.7,1722.1z"/><path d="M3002.5,1546.6c-2.1,6.9-3.3,14.5-3.3,22.3c0,5.6,0.6,11.4,1.9,17.2c0,0.1,0.1,0.2,0.2,0.4c0.2,0.5,0.5,1.2,1,2.2   c0.9,1.9,2.3,4.7,4.3,8.2c4,6.9,10.3,16.6,19.4,27.2c13.7,16,33.8,34.2,62.2,48.8c-15.7-17.2-29.8-35.4-42.4-53.6   C3028.3,1594,3013.9,1568.7,3002.5,1546.6z"/><path d="M3008.9,1612.8c3.3,4.8,7.4,10.1,12.1,15.6c16.6,19.3,42.3,41.8,79.9,57.8c-4.3-4.3-8.6-8.8-12.7-13.3   c-28.3-14.6-48.4-32.8-62.2-48.8c-9.1-10.6-15.4-20.2-19.4-27.2c-2-3.5-3.4-6.3-4.3-8.2c-0.5-1-0.8-1.7-1-2.2   c-0.1-0.2-0.1-0.3-0.2-0.4c-1.3-5.8-1.9-11.5-1.9-17.2c0-7.8,1.2-15.4,3.3-22.3c-1.4-2.8-2.8-5.5-4.1-8.2   c-3.7,9.2-5.8,19.6-5.8,30.5c0,6.2,0.7,12.5,2.1,18.9l0.2,0.5c0.1,0.2,3.1,7.6,10.2,18.7   C3006.2,1608.9,3007.5,1610.8,3008.9,1612.8z"/><path d="M3234,1763.7c-4,16.8-9.9,32.3-15.9,45.3c-5.2,11.3-10.4,20.6-14.3,27.2c-1.9,3.3-3.6,5.8-4.7,7.5c-0.4,0.6-0.7,1.1-1,1.5   c-2.4,0.4-8.3,1.3-16.5,1.3c-15.6,0-39.5-3.2-63.8-18.4c-4.7-3-7.8-5.8-9.6-8.5c-1.8-2.7-2.5-5.1-2.5-7.7c0-3.6,1.4-7.6,3.9-12.1   c3.7-6.7,9.6-14,14.6-22.1c2.5-4.1,4.8-8.3,6.5-12.8c1.7-4.5,2.8-9.3,2.8-14.4c0-5-1.1-10.2-3.5-15.5c-2.4-5.1-4.5-8.7-6.9-11.3   c-1.2-1.3-2.4-2.3-3.7-3c-1.3-0.7-2.8-1.2-4.3-1.2c-1.2,0-2.3,0.3-3.3,0.7c-1.9,0.8-3.4,2.1-4.8,3.6c-2.4,2.7-4.4,6.1-6.4,9.9   c-3,5.6-6,12-9.2,16.8c-1.6,2.4-3.2,4.4-4.8,5.7c-1.6,1.3-3,2-4.3,2.1c-0.5,0-1.1,0.1-1.6,0.1c-2.8,0-4.7-0.7-5.8-1.6   c-0.6-0.5-1-1-1.3-1.8c-0.3-0.7-0.5-1.7-0.5-3c0-2.1,0.6-5,2.2-8.7c2.4-5.5,6.8-12.6,14-21.2c5.9-7,13.6-15.1,23.4-24.2   c-1.6-1.5-3.3-3-4.9-4.5c-13.8,12.9-23.6,23.8-30.2,33c-3.8,5.4-6.6,10.1-8.4,14.4c-1.8,4.2-2.7,8-2.7,11.3c0,2,0.3,3.9,1.1,5.6   c1.1,2.5,3,4.5,5.3,5.7c2.3,1.2,5,1.7,7.8,1.7c0.7,0,1.4,0,2.1-0.1c2.5-0.2,4.8-1.2,6.8-2.6c3.4-2.5,6.1-6.1,8.6-10.1   c3.7-6,6.8-12.9,9.8-18.2c1.5-2.6,3-4.8,4.3-6.2c0.6-0.7,1.2-1.1,1.7-1.4c0.5-0.2,0.8-0.3,1-0.3c0.2,0,0.5,0,1,0.3   c0.7,0.4,1.9,1.4,3.2,3.3c1.3,1.9,2.9,4.5,4.5,8.1c2.1,4.5,2.9,8.7,2.9,12.7c0,5.5-1.6,10.7-4,16c-3.7,7.8-9.5,15.4-14.4,22.8   c-2.5,3.7-4.8,7.4-6.5,11.1c-1.7,3.7-2.9,7.6-2.9,11.6c0,3.9,1.1,7.8,3.7,11.4c2.5,3.7,6.3,7.1,11.5,10.4   c13.1,8.3,26.1,13.1,37.9,16c2.2,0.5,4.4,1,6.5,1.4c8.6,1.6,16.4,2.1,22.9,2.1c11.7,0,19-1.7,19.2-1.7c0.8-0.2,1.5-0.7,2-1.3   c0.1-0.1,10.7-15.2,21.3-38.3c6.2-13.4,12.3-29.5,16.4-46.9C3238.3,1764.6,3236.2,1764.2,3234,1763.7z"/><path class="st3" d="M3274.8,1700.2c-5.5,3.1-11.1,5-16.6,5c-3.4,0-6.7-0.7-9.7-2.3c-6.4-3.3-17.8-8.2-31.9-14.7   c-14.1-6.4-31-14.4-48.6-24c-35.2-19.2-73.5-44.7-98.7-77.3c-16.8-21.7-27.8-46.8-27.8-75c0-3,0.1-6,0.4-9.1c0.1-1,0.6-1.9,1.4-2.5   c0,0,18-12.2,43.9-27.7c1.8-1.1,3.7-2.2,5.6-3.3c-19.8-7.3-39.2-11.5-57.3-11.5c-21.2,0-40.5,5.6-57.3,18.2c0.4,1.1,1,2.7,1.8,4.7   c1.7,4.5,4.3,11,7.8,19.1c6.9,16.2,17.3,38.6,31.2,63.6c27.7,50,69.2,110.1,124.1,150.8c36.6,27.2,79.1,45.8,127.5,47.3   c1.5,0,2.9,0.1,4.3,0.1c14.1,0,24.8-2.3,32.6-6.4c7.8-4.1,12.8-9.7,15.7-16.9c1.9-4.8,2.9-10.3,2.9-16.5c0-15-5.7-33.8-16-54.2   c-2,2.5-4,4.9-6.1,7.2C3294.4,1685.6,3284.5,1694.8,3274.8,1700.2z"/><path class="st4" d="M3002.5,1546.6c11.3,22.1,25.7,47.3,43.2,72.7c12.5,18.2,26.7,36.4,42.4,53.6c4.1,4.5,8.4,8.9,12.7,13.3   c2.4,2.4,4.8,4.7,7.3,7.1c1.6,1.5,3.2,3,4.9,4.5c8.3,7.6,17,14.9,26.1,21.6c28,20.8,59.7,36.9,94.9,44.2c2.2,0.5,4.3,0.8,6.5,1.2   c9.7,1.7,19.6,2.8,29.8,3.1c1.5,0,3,0.1,4.5,0.1c9.9,0,18.4-1.1,25.6-3.2c10.9-3.1,19.1-8.7,24.4-16.2c5.3-7.5,7.7-16.7,7.7-27   c0-11.2-2.8-23.7-7.8-37.1c-2.8-7.4-6.2-15-10.3-22.8c-1.5,1.9-3,3.8-4.5,5.7c10.3,20.4,16,39.2,16,54.2c0,6.2-1,11.7-2.9,16.5   c-2.9,7.2-7.9,12.8-15.7,16.9c-7.8,4-18.6,6.4-32.6,6.4c-1.4,0-2.8,0-4.3-0.1c-48.4-1.6-90.9-20.1-127.5-47.3   c-54.9-40.7-96.4-100.9-124.1-150.8c-13.9-25-24.3-47.4-31.2-63.6c-3.5-8.1-6.1-14.6-7.8-19.1c-0.8-2-1.3-3.5-1.8-4.7   c16.8-12.6,36.1-18.2,57.3-18.2c18.1,0,37.5,4.1,57.3,11.5c2.4-1.4,4.9-2.9,7.4-4.3c-22.1-8.7-44-13.8-64.7-13.8   c-23.1,0-44.8,6.4-63.3,21c-1.1,0.9-1.5,2.4-1.1,3.7c0,0.1,9.1,26.1,27.3,62.5C2999.7,1541.1,3001.1,1543.9,3002.5,1546.6z"/><path class="st3" d="M3048.5,1504.9C3048.4,1504.9,3048.4,1504.9,3048.5,1504.9c-0.2,2.4-0.3,4.7-0.3,7c0,23.2,7.8,44.1,20.6,63   c12.8,18.9,30.5,35.7,50.1,50.4c39.1,29.4,85.5,50.2,113.6,62.8c8,3.6,14.6,6.5,19.1,8.9c2.1,1.1,4.3,1.6,6.7,1.6   c3.2,0,6.8-0.9,10.7-2.8c3.9-1.8,8.1-4.6,12.4-8.1c8.6-6.9,17.5-16.7,26-27.5c17-21.6,32.3-47.6,39.8-64.1   c2.2-4.7,3.7-8.6,4.5-11.3c0.4-1.4,0.6-2.5,0.6-2.9c0-1.5-0.4-4.8-1.3-9.2c-0.9-4.4-2.4-10-4.4-16.4c-4-12.8-10.3-29-19.3-46.1   c-18-34.1-46.9-71.8-90.5-95c-14.4,1.2-32.4,6.6-51.4,14.3c-19.4,7.9-40,18.1-59.1,28.4C3088,1478.7,3055.5,1500.2,3048.5,1504.9z"/><path class="st4" d="M3092.8,1469.3c-1.9,1.1-3.7,2.2-5.6,3.3c-25.9,15.5-43.9,27.7-43.9,27.7c-0.8,0.6-1.4,1.5-1.4,2.5   c-0.3,3.1-0.4,6.1-0.4,9.1c0,28.2,11,53.3,27.8,75c25.2,32.6,63.5,58.1,98.7,77.3c17.6,9.6,34.5,17.6,48.6,24   c14.1,6.4,25.5,11.4,31.9,14.7c3.1,1.6,6.4,2.3,9.7,2.3c5.5,0,11-1.9,16.6-5c9.7-5.4,19.6-14.6,29.2-25.5c2-2.3,4.1-4.7,6.1-7.2   c1.5-1.9,3-3.8,4.5-5.7c10.4-13.5,19.9-28.2,27.5-41.4c5-8.8,9.2-16.8,12.1-23.4c1.5-3.3,2.6-6.2,3.4-8.6c0.4-1.2,0.7-2.4,1-3.4   c0.2-1,0.4-2,0.4-3c0-2.4-0.5-5.9-1.5-10.6c-3.4-16.2-13.1-46.2-31.8-77.5c-18.8-31.3-46.7-63.9-86.7-85c-0.5-0.3-1.2-0.4-1.8-0.4   c-16.8,1.2-37.1,7.7-58.3,16.5c-26.8,11.2-55,26.3-78.7,40C3097.7,1466.5,3095.2,1467.9,3092.8,1469.3z M3185.3,1429.6   c19-7.7,37-13.1,51.4-14.3c43.6,23.2,72.5,61,90.5,95c9.1,17.1,15.3,33.3,19.3,46.1c2,6.4,3.4,12,4.4,16.4c0.9,4.4,1.3,7.7,1.3,9.2   c0,0.4-0.1,1.4-0.6,2.9c-0.8,2.7-2.3,6.6-4.5,11.3c-7.6,16.5-22.8,42.5-39.8,64.1c-8.5,10.8-17.5,20.6-26,27.5   c-4.3,3.5-8.5,6.2-12.4,8.1c-3.9,1.9-7.5,2.8-10.7,2.8c-2.4,0-4.6-0.5-6.7-1.6c-4.6-2.3-11.1-5.3-19.1-8.9   c-28.1-12.6-74.4-33.4-113.6-62.8c-19.6-14.7-37.3-31.5-50.1-50.4c-12.8-18.9-20.6-39.8-20.6-63c0-2.3,0.1-4.6,0.3-6.9   c0,0,0.1,0,0.1-0.1c7.1-4.7,39.6-26.2,77.8-46.9C3145.3,1447.6,3165.8,1437.4,3185.3,1429.6z"/><path class="st3" d="M2644.5,2728.5c8.2,2.2,19.3,4.9,32.9,7.6c32,6.3,77.9,12.7,133.8,12.7c40.6,0,86.5-3.3,136-12.5l0.1,0   c40.9-6.3,80.7-26.7,118.4-56.7c23-18.3,45.2-40.3,66.4-64.8L3011,2361.9L2644.5,2728.5z M2872.5,2619.7c-0.9,0.8-2.3,0.7-3.1-0.2   c-0.8-0.9-0.7-2.3,0.2-3.1c6.5-5.7,13.2-11.6,19.9-17.7c0.9-0.8,2.3-0.7,3.1,0.2c0.8,0.9,0.7,2.3-0.2,3.1   C2885.7,2608.1,2879,2614,2872.5,2619.7L2872.5,2619.7z M2789.5,2687.1c-1,0.7-2.4,0.5-3.1-0.4c-0.7-1-0.5-2.4,0.4-3.1   c6.7-5,13.8-10.4,21.1-16.2c1-0.8,2.4-0.6,3.1,0.4s0.6,2.4-0.4,3.1C2803.3,2676.6,2796.2,2682.1,2789.5,2687.1L2789.5,2687.1z    M2852.2,2637.1c-7.1,5.9-13.9,11.6-20.6,17h0c-0.9,0.8-2.3,0.6-3.1-0.3c-0.8-0.9-0.6-2.3,0.3-3.1c6.6-5.4,13.5-11.1,20.5-17   c0.9-0.8,2.3-0.7,3.1,0.3C2853.2,2635,2853.1,2636.3,2852.2,2637.1z M2723.7,2733c-7.3,4.7-11.3,7-11.3,7l0,0   c-1.1,0.6-2.4,0.3-3-0.8c-0.6-1.1-0.3-2.4,0.8-3c0,0,0.2-0.1,0.7-0.4c0.5-0.3,1.2-0.7,2.1-1.3c1.9-1.2,4.7-2.9,8.3-5.2   c1-0.7,2.4-0.4,3.1,0.7C2725.1,2731,2724.8,2732.4,2723.7,2733z M2743,2717.7c-0.7-1-0.4-2.4,0.6-3.1c6.5-4.4,13.8-9.5,21.8-15.3   c1-0.7,2.4-0.5,3.1,0.5c0.7,1,0.5,2.4-0.5,3.1c-8.1,5.8-15.4,10.9-21.9,15.4l0,0C2745,2719,2743.7,2718.7,2743,2717.7z    M2912.1,2583.9c-0.9,0.8-2.3,0.8-3.1-0.1c-0.8-0.9-0.8-2.3,0.1-3.1c6.4-5.9,12.8-12.1,19.3-18.3c0.9-0.8,2.3-0.8,3.1,0.1   c0.8,0.9,0.8,2.3-0.1,3.1C2925,2571.8,2918.5,2578,2912.1,2583.9L2912.1,2583.9z M2950.6,2546.8c-0.9,0.9-2.3,0.9-3.1,0   c-0.9-0.9-0.9-2.3,0-3.1c6.2-6.2,12.4-12.5,18.7-19c0.9-0.9,2.2-0.9,3.1,0c0.9,0.9,0.9,2.2,0,3.1   C2963,2534.3,2956.8,2540.6,2950.6,2546.8L2950.6,2546.8z M2984.6,2505.5c6-6.4,12-12.9,18.1-19.6c0.8-0.9,2.2-1,3.1-0.1   c0.9,0.8,1,2.2,0.1,3.1c-6.1,6.7-12.1,13.2-18.1,19.6c-0.8,0.9-2.2,0.9-3.1,0.1C2983.8,2507.7,2983.7,2506.3,2984.6,2505.5z    M3041,2445.7c0.9,0.8,1,2.2,0.2,3.1c-5.8,6.9-11.7,13.6-17.5,20.2l0,0c-0.8,0.9-2.2,1-3.1,0.2c-0.9-0.8-1-2.2-0.2-3.1   c5.8-6.6,11.6-13.3,17.4-20.1C3038.7,2445,3040.1,2444.9,3041,2445.7z"/><path class="st3" d="M3089.7,2381.9c4.9-6.3,9.8-12.8,14.6-19.3c0.7-1,2.1-1.2,3.1-0.5c1,0.7,1.2,2.1,0.5,3.1   c-5.3,7.1-10.7,14.2-16,21.1l83.1,173.4c63.3-88.9,114.3-196.9,145.9-289.5c16.5-48.2,27.7-92.2,32.7-127   c-5.4,3.8-10.5,7.2-15.1,9.6c-0.5,0.3-1.1,0.4-1.7,0.4c-29.9-1.6-53.5-2.1-71.6-2.1c-8.8,0-16.3,0.1-22.6,0.3   c-2,3.8-4,7.5-5.9,11.2h0c-0.6,1.1-1.9,1.5-3,0.9c-1.1-0.6-1.5-1.9-0.9-3c1.6-3,3.2-6,4.8-9c-7.8,0.3-13.4,0.7-17.1,1l-162.6,162.6   L3089.7,2381.9z M3139.1,2321.9c-5.1,7.4-10.3,14.6-15.4,21.8l0,0c-0.7,1-2.1,1.2-3.1,0.5c-1-0.7-1.2-2.1-0.5-3.1   c5.1-7.1,10.3-14.4,15.4-21.7c0.7-1,2.1-1.2,3.1-0.6C3139.5,2319.5,3139.8,2320.9,3139.1,2321.9z M3206.9,2207   c4.4-7.6,8.8-15.4,13.1-23.2c0.6-1.1,1.9-1.5,3-0.9c1.1,0.6,1.5,1.9,0.9,3c-4.4,7.8-8.7,15.6-13.2,23.2l0,0c-0.6,1.1-2,1.4-3,0.8   C3206.6,2209.4,3206.3,2208.1,3206.9,2207z M3179.5,2252.7c4.7-7.5,9.3-15.1,13.9-22.7c0.6-1,2-1.4,3-0.8c1,0.6,1.4,2,0.8,3   c-4.6,7.7-9.3,15.3-14,22.8l0,0c-0.6,1-2,1.4-3,0.7C3179.1,2255.1,3178.8,2253.7,3179.5,2252.7z M3168.2,2274.5   c1,0.7,1.3,2,0.7,3.1c-4.9,7.5-9.8,15-14.7,22.3h0c-0.7,1-2.1,1.3-3.1,0.6c-1-0.7-1.3-2.1-0.6-3.1c4.9-7.3,9.8-14.7,14.7-22.2   C3165.8,2274.1,3167.2,2273.8,3168.2,2274.5z"/><path class="st4" d="M2948.4,2742.8L2948.4,2742.8c56.5-8.8,110.1-43.1,159-91.7c8.4-8.4,16.7-17.2,24.9-26.4c1-1.2,2-2.3,3.1-3.5   l-3.1-6.5c-21.2,24.5-43.4,46.5-66.4,64.8c-37.7,30.1-77.5,50.4-118.4,56.7l-0.1,0c-49.5,9.1-95.4,12.5-136,12.5   c-55.9,0-101.9-6.3-133.8-12.7c-13.6-2.7-24.7-5.4-32.9-7.6l-5.4,5.4c4.5,1.3,10.1,2.7,16.6,4.3c0.7,0.2,1.4,0.3,2.2,0.5   c50.9,2.6,88.9,8.9,121.7,16c10.1,0.4,20.7,0.7,31.6,0.7C2852.2,2755.3,2898.4,2752,2948.4,2742.8z"/><path class="st4" d="M3356.2,2167.3c2-10.4,3.7-20.3,4.9-29.5c-1,0.8-2.1,1.6-3.1,2.3c-1.5,1.1-2.9,2.1-4.3,3.1   c-5,34.8-16.3,78.8-32.7,127c-31.7,92.6-82.7,200.6-145.9,289.5l3.3,6.9c41.2-57.3,77.2-122.6,106.2-186.8c1.2-2.6,2.4-5.3,3.6-7.9   c0.1-0.2,0.2-0.4,0.3-0.6c9-20.4,17.3-40.6,24.9-60.3c1.1-2.9,2.2-5.7,3.2-8.6c9.9-26.4,18.3-52,25.3-75.9   c4.8-16.6,8.8-32.5,12.1-47.4C3354.7,2175.1,3355.5,2171.1,3356.2,2167.3z"/><path class="st4" d="M2721.4,2729.3c-3.6,2.3-6.5,4.1-8.3,5.2c-0.9,0.6-1.7,1-2.1,1.3c-0.5,0.3-0.7,0.4-0.7,0.4   c-1.1,0.6-1.4,2-0.8,3c0.6,1.1,2,1.4,3,0.8l0,0c0,0,4-2.3,11.3-7c1-0.7,1.3-2,0.7-3.1C2723.8,2729,2722.4,2728.7,2721.4,2729.3z"/><path class="st4" d="M3207.7,2210c1.1,0.6,2.4,0.3,3-0.8l0,0c4.4-7.7,8.8-15.4,13.2-23.2c0.6-1.1,0.2-2.4-0.9-3   c-1.1-0.6-2.4-0.2-3,0.9c-4.3,7.8-8.7,15.5-13.1,23.2C3206.3,2208.1,3206.6,2209.4,3207.7,2210z"/><path class="st4" d="M3180.2,2255.7c1,0.6,2.4,0.3,3-0.7l0,0c4.7-7.5,9.3-15.1,14-22.8c0.6-1,0.3-2.4-0.8-3c-1-0.6-2.4-0.3-3,0.8   c-4.6,7.7-9.2,15.2-13.9,22.7C3178.8,2253.7,3179.1,2255.1,3180.2,2255.7z"/><path class="st4" d="M3107.4,2362.2c-1-0.7-2.4-0.5-3.1,0.5c-4.9,6.5-9.7,12.9-14.6,19.3l2.1,4.5c5.3-6.9,10.7-14,16-21.1   C3108.6,2364.3,3108.4,2362.9,3107.4,2362.2z"/><path class="st4" d="M2767.9,2703c1-0.7,1.2-2.1,0.5-3.1c-0.7-1-2.1-1.2-3.1-0.5c-8,5.8-15.3,10.9-21.8,15.3   c-1,0.7-1.3,2.1-0.6,3.1c0.7,1,2.1,1.3,3.1,0.6l0,0C2752.5,2713.9,2759.9,2708.8,2767.9,2703z"/><path class="st4" d="M2987.8,2508.5c6-6.4,12.1-12.9,18.1-19.6c0.8-0.9,0.8-2.3-0.1-3.1c-0.9-0.8-2.3-0.8-3.1,0.1   c-6.1,6.7-12.1,13.2-18.1,19.6c-0.8,0.9-0.8,2.3,0.1,3.1C2985.6,2509.4,2987,2509.4,2987.8,2508.5z"/><path class="st4" d="M2811.1,2667.7c-0.8-1-2.1-1.1-3.1-0.4c-7.4,5.8-14.4,11.2-21.1,16.2c-1,0.7-1.2,2.1-0.4,3.1   c0.7,1,2.1,1.2,3.1,0.4h0c6.7-5.1,13.8-10.5,21.2-16.3C2811.7,2670.1,2811.8,2668.7,2811.1,2667.7z"/><path class="st4" d="M2931.6,2562.4c-0.8-0.9-2.2-0.9-3.1-0.1c-6.5,6.3-13,12.4-19.3,18.3c-0.9,0.8-0.9,2.2-0.1,3.1   c0.8,0.9,2.2,0.9,3.1,0.1h0c6.4-6,12.8-12.1,19.4-18.4C2932.4,2564.7,2932.4,2563.3,2931.6,2562.4z"/><path class="st4" d="M2849.3,2633.8c-7,5.9-13.9,11.6-20.5,17c-0.9,0.8-1.1,2.2-0.3,3.1c0.8,0.9,2.2,1.1,3.1,0.3h0   c6.7-5.4,13.5-11.1,20.6-17c0.9-0.8,1.1-2.2,0.3-3.1C2851.7,2633.1,2850.3,2633,2849.3,2633.8z"/><path class="st4" d="M3135.5,2319.4c-5.1,7.3-10.2,14.6-15.4,21.7c-0.7,1-0.5,2.4,0.5,3.1c1,0.7,2.4,0.5,3.1-0.5l0,0   c5.2-7.2,10.3-14.4,15.4-21.8c0.7-1,0.4-2.4-0.6-3.1C3137.5,2318.1,3136.2,2318.4,3135.5,2319.4z"/><path class="st4" d="M2892.6,2598.9c-0.8-0.9-2.2-1-3.1-0.2c-6.8,6.1-13.4,12-19.9,17.7c-0.9,0.8-1,2.2-0.2,3.1   c0.8,0.9,2.2,1,3.1,0.2h0c6.5-5.7,13.2-11.6,20-17.7C2893.4,2601.2,2893.4,2599.8,2892.6,2598.9z"/><path class="st4" d="M3020.6,2469.2c0.9,0.8,2.3,0.7,3.1-0.2l0,0c5.8-6.6,11.6-13.3,17.5-20.2c0.8-0.9,0.7-2.3-0.2-3.1   c-0.9-0.8-2.3-0.7-3.1,0.2c-5.8,6.8-11.6,13.5-17.4,20.1C3019.6,2467,3019.7,2468.4,3020.6,2469.2z"/><path class="st4" d="M2969.3,2524.7c-0.9-0.9-2.3-0.8-3.1,0c-6.3,6.5-12.5,12.8-18.7,19c-0.9,0.9-0.9,2.3,0,3.1   c0.9,0.9,2.3,0.9,3.1,0h0c6.2-6.2,12.5-12.5,18.8-19C2970.2,2526.9,2970.2,2525.5,2969.3,2524.7z"/><path class="st4" d="M3150.5,2297.4c-0.7,1-0.4,2.4,0.6,3.1c1,0.7,2.4,0.4,3.1-0.6h0c4.9-7.3,9.8-14.8,14.7-22.3   c0.7-1,0.4-2.4-0.7-3.1c-1-0.7-2.4-0.4-3.1,0.7C3160.3,2282.7,3155.4,2290.1,3150.5,2297.4z"/><path class="st4" d="M3233.6,2163.6c1.1,0.6,2.4,0.2,3-0.9h0c2-3.7,4-7.5,5.9-11.2c-1.8,0.1-3.5,0.1-5.1,0.2c-1.6,3-3.2,6-4.8,9   C3232.1,2161.7,3232.5,2163,3233.6,2163.6z"/><path class="st6" d="M3336.2,2146.6c4.5-2.5,9.8-5.9,15.3-10c5.9-4.2,12-9,17.9-13.7c8.3-6.7,16-13.2,21.1-17.7h-122.7l-40.3,40.3   c8.3-0.5,20.7-1,37.7-1C3283.3,2144.5,3306.7,2145,3336.2,2146.6z"/><path class="st4" d="M3267.8,2105.2h122.7c-5.1,4.5-12.7,11-21.1,17.7c-5.8,4.7-12,9.5-17.9,13.7c-5.6,4-10.9,7.5-15.3,10   c-29.5-1.5-52.9-2.1-71-2.1c-17.1,0-29.4,0.5-37.7,1l-7.2,7.2c3.7-0.3,9.4-0.7,17.1-1c1.6-0.1,3.3-0.1,5.1-0.2   c6.3-0.2,13.8-0.3,22.6-0.3c18.1,0,41.7,0.5,71.6,2.1c0.6,0,1.2-0.1,1.7-0.4c4.5-2.4,9.7-5.8,15.1-9.6c1.4-1,2.9-2.1,4.3-3.1   c1-0.8,2.1-1.5,3.1-2.3c19.9-15,40.3-33.4,40.4-33.5c1-0.9,1.4-2.4,0.9-3.7c-0.5-1.3-1.7-2.1-3.1-2.1h-43.6h-9.4h-71.8   L3267.8,2105.2z"/><path d="M3037.7,2273.4l17,35.4l223.7-223.7c3.9-3.9,5.8-9,5.9-14.1c0-5.1-1.9-10.2-5.9-14.1l-6.4-6.4c-3.9-3.9-9-5.8-14.1-5.9   c-5.1,0-10.2,1.9-14.1,5.8l-213.9,213.9C3033.1,2266.6,3035.9,2269.6,3037.7,2273.4z"/><path d="M3008,2355.6l-22.5-46.9l-429.8,429.8c3.3-0.1,6.7-0.2,10-0.3c14.9-0.5,29-0.7,42.3-0.7c6.2,0,12.1,0.1,18,0.1L3008,2355.6   z"/><path d="M3195.4,2089.4l-172.1,172.1c2.3,0.6,4.5,1.6,6.5,2.9l213.9-213.9c3.9-3.9,9-5.8,14.1-5.8c5.1,0,10.2,1.9,14.1,5.9l6.4,6.4   c3.9,3.9,5.8,9,5.9,14.1c0,5.1-1.9,10.2-5.9,14.1l-223.7,223.7l3,6.3l162.6-162.6l7.2-7.2l40.3-40.3l6.6-6.6l8.7-8.7   c5.2-5.2,7.8-12,7.8-18.8c0-6.8-2.6-13.6-7.8-18.8l-6.4-6.4c-5.2-5.2-12-7.8-18.8-7.8c-6.8,0-13.6,2.6-18.8,7.8l-34.4,34.4   L3195.4,2089.4z"/><path d="M2644.5,2728.5l366.5-366.5l-3-6.3l-382,382c3.1,0.1,6.2,0.1,9.2,0.2l3.9-3.9L2644.5,2728.5z"/><path d="M2985.5,2308.7l-3-6.3l-229.2,229.2l-6.1,6.1L2546,2738.8c3.2-0.1,6.5-0.2,9.7-0.3L2985.5,2308.7z"/><path class="st6" d="M3031.8,2276.3c-2.7-5.6-8.3-8.9-14.2-8.9c-2.3,0-4.6,0.5-6.8,1.5l-15.9,7.6c-5.6,2.7-8.9,8.3-8.9,14.2   c0,2.3,0.5,4.6,1.5,6.8l220.1,459.2c11.1-1.7,21.9-3.3,32.4-4.9c6.2-0.9,12.3-1.8,18.3-2.7L3031.8,2276.3z M3021.6,2321.2   c-7.7,0-13.9-6.2-14-14c0-7.7,6.2-13.9,14-13.9c7.7,0,13.9,6.2,13.9,13.9C3035.6,2315,3029.3,2321.2,3021.6,2321.2z"/><path class="st4" d="M3178.2,2566.7l-3.3-6.9l-83.1-173.4l-2.1-4.5l-32-66.7l-3-6.3l-17-35.4c-1.8-3.8-4.6-6.9-7.9-9   c-2-1.3-4.2-2.3-6.5-2.9c-1.9-0.5-3.8-0.8-5.7-0.8c-3.2,0-6.5,0.7-9.6,2.2l-15.9,7.6c-8,3.8-12.7,11.8-12.7,20.1   c0,3.2,0.7,6.5,2.2,9.6l0.9,2l3,6.3l22.5,46.9l3,6.3l121.1,252.7l3.1,6.5l1.8,3.7l63.7,132.9c2.3-0.3,4.6-0.7,6.9-1l-220.1-459.2   c-1.1-2.2-1.5-4.5-1.5-6.8c0-5.9,3.3-11.5,8.9-14.2l15.9-7.6c2.2-1.1,4.5-1.5,6.8-1.5c5.9,0,11.5,3.3,14.2,8.9l226.6,472.9   c2.3-0.3,4.6-0.7,6.9-1l-57-119L3178.2,2566.7z"/><path d="M3029,2307.2c0-2-0.8-3.8-2.1-5.2c-1.3-1.3-3.1-2.1-5.2-2.1c-4,0-7.3,3.3-7.3,7.3c0,4,3.3,7.3,7.3,7.3   C3025.7,2314.6,3029,2311.3,3029,2307.2z"/><path d="M3035.6,2307.2c0-7.7-6.2-13.9-13.9-13.9c-7.7,0-13.9,6.2-14,13.9c0,7.7,6.2,13.9,14,14   C3029.3,2321.2,3035.6,2315,3035.6,2307.2z M3021.6,2314.6c-4,0-7.3-3.3-7.3-7.3c0-4,3.3-7.3,7.3-7.3c2,0,3.8,0.8,5.2,2.1   c1.3,1.3,2.1,3.1,2.1,5.2C3029,2311.3,3025.7,2314.6,3021.6,2314.6z"/><path class="st6" d="M609.2,2780.9c4.9,6.6,8.1,13.2,8.7,20l0,0.3c0,1.1-0.5,2.1-1,2.7c-0.5,0.7-1.1,1.1-1.6,1.4   c-1.1,0.7-2.4,1.2-3.9,1.6c-3,0.9-7.1,1.7-12.3,2.4c-10.4,1.4-25,2.6-42.5,3.6c-35,1.9-81.7,2.8-128.3,2.8   c-35.9,0-71.8-0.6-102.4-1.7c-30.6-1.1-55.9-2.8-70.8-5.1c-4.3-0.7-7.7-1.4-10.3-2.2c-1.4-0.4-2.6-0.9-3.6-1.6   c-0.5-0.4-1.1-0.8-1.6-1.4c-0.5-0.6-1-1.6-1-2.7l0-0.3c0.5-6.8,3.8-13.4,8.7-20c3-4,6.7-8.1,10.9-12.1   c-99.7,8.2-177.3,15.9-196.7,17.8c-0.2,0-0.4,0-0.6,0.1c0.9,1.9,2.3,3.8,4.2,5.8c3.1,3.3,7.6,6.7,13.4,10.1   c11.7,6.8,28.6,13.6,50.3,20.2c43.4,13.2,105.7,25.6,183.8,37.2c156.2,23.2,375.6,43.1,633.5,59.2   c515.8,32.3,1186,49.8,1814.5,49.8c368.4,0,622.4-12.6,797.2-30.4c174.9-17.8,270.6-40.8,322.6-61.4c34.6-13.7,49.6-26.5,55.7-35.4   c3.5-5.1,4.2-8.9,4.2-11.4c0-0.6,0-1.1-0.1-1.5c-0.3,0-0.6,0-1-0.1c-2.2-0.2-5.5-0.4-9.8-0.6c-8.6-0.5-21.2-1.2-37.2-1.9   c-32-1.4-77.8-2.8-132.8-2.8c-23.9,0-49.5,0.3-76.5,0.9c-3.6,0.1-7,0.1-10.3,0.1c-29.4,0-50.3-3.3-66.2-8.6   c-15.9-5.3-26.8-12.8-36-20.7c-6.1-5.3-11.6-10.8-17.3-16.1c-7.7-7.1-16-13.8-27.5-19.6c-15.4-7.7-36.8-13.6-70.3-15.5   c-14.9-0.8-29.2-1.2-43.2-1.2c-58.1,0-110.7,6.7-171,15.6c-60.3,8.9-128.3,20-216.9,28.7c-24.3,2.4-45.8,3.4-65.1,3.4   c-65,0-106.4-11.7-154.5-23.3c-48.1-11.6-103.1-23.1-196.5-23.1c-13.2,0-27.2,0.2-42.1,0.7c-225.5,7.6-456.1,22-585.6,22   c-17.6,0-33.4-0.3-47-0.9c-78.8-3.4-249.3-17.1-390.5-17.1c-62.5,0-119.2,2.7-159.5,10.1c-57.5,10.6-140.3,15.4-228.6,15.4   c-116.4,0-242.3-8.4-332.6-23.2c-27.1-4.5-68-6.3-116.9-6.3c-40,0-85.5,1.2-133.2,3.3C587.5,2758.7,600.8,2769.8,609.2,2780.9z    M3180.2,2812.4c119.7-2.4,198.5,24.4,88.7,79.9c-109.9,55.4-555,13.9-1059.2,20.2c-504.2,6.3-686.9-69.3-686.9-69.3   c-12.6-59.9,545.1,6.3,715.6-30.9c170.5-37.2,340-22.4,473,0.1C2844.2,2835,3060.5,2814.8,3180.2,2812.4z"/><path class="st4" d="M3945.7,2824.3c-0.5-1-1.5-1.7-2.7-1.8c-0.1,0-70.8-5.4-177.5-5.6c-2.1,0-4.1,0-6.2,0   c-23.9,0-49.6,0.3-76.7,0.9c-3.5,0.1-6.9,0.1-10.2,0.1c-34.3,0-56.2-4.5-71.9-11.2c-11.8-5-20.2-11.3-27.9-18.2   c-5.8-5.1-11.2-10.6-17.2-16.1c-6.1-5.5-13-10.9-21.5-15.8c-3-1.7-6.2-3.4-9.7-4.9c-1.3-0.6-2.6-1.2-4-1.7c-14.1-5.7-32.2-10-57-12   c-2.5-0.2-5-0.4-7.6-0.5c-0.1,0-0.1,0-0.2,0c-15-0.9-29.5-1.2-43.6-1.2c-50.3,0-96.5,5-146.8,12.1c-2.3,0.3-4.6,0.6-6.9,1   c-6,0.9-12.1,1.7-18.3,2.7c-10.6,1.6-21.4,3.2-32.4,4.9c-2.3,0.3-4.6,0.7-6.9,1c-50.6,7.6-107.5,15.9-177.3,22.7   c-24.2,2.4-45.4,3.4-64.5,3.4c-64.1,0-104.6-11.5-152.9-23.1c-8.5-2.1-17.3-4.1-26.4-6.1c-32.8-7.1-70.8-13.5-121.7-16   c-1.1-0.1-2.2-0.1-3.3-0.2c-6.3-0.3-12.8-0.5-19.4-0.7c-3-0.1-6.1-0.1-9.2-0.2c-5.8-0.1-11.8-0.1-18-0.1c-13.3,0-27.4,0.2-42.3,0.7   c-3.3,0.1-6.7,0.2-10,0.3c-3.2,0.1-6.5,0.2-9.7,0.3c-219.2,7.7-440.3,21.3-565.6,21.3c-17.6,0-33.2-0.3-46.7-0.9   c-45.3-2-121.2-7.4-204.5-11.6c-2.2-0.1-4.4-0.2-6.6-0.3c0,0,0,0,0,0c-59.2-2.9-121.9-5.2-179.6-5.2c-62.7,0-119.7,2.7-160.7,10.2   c-56.8,10.4-139.3,15.3-227.4,15.3c-116,0-241.8-8.4-331.5-23.1c-22.9-3.8-54.9-5.7-93-6.2c-2.2,0-4.4-0.1-6.7-0.1   c-6-0.1-12.1-0.1-18.3-0.1c-42.7,0-91.5,1.4-142.6,3.7c2.7,1.7,5.3,3.4,7.9,5.2c0.5,0.3,1,0.7,1.5,1c47.8-2.1,93.2-3.3,133.2-3.3   c48.9,0,89.8,1.9,116.9,6.3c90.3,14.8,216.2,23.2,332.6,23.2c88.4,0,171.1-4.8,228.6-15.4c40.2-7.4,97-10.1,159.5-10.1   c141.2,0,311.7,13.7,390.5,17.1c13.6,0.6,29.4,0.9,47,0.9c129.6,0,360.1-14.5,585.6-22c14.8-0.5,28.8-0.7,42.1-0.7   c93.3,0,148.4,11.5,196.5,23.1c48.1,11.6,89.5,23.3,154.5,23.3c19.4,0,40.8-1,65.1-3.4c88.7-8.7,156.6-19.8,216.9-28.7   c60.3-8.9,112.9-15.6,171-15.6c14,0,28.4,0.4,43.2,1.2c33.6,1.9,54.9,7.8,70.3,15.5c11.6,5.8,19.8,12.5,27.5,19.6   c5.8,5.3,11.2,10.8,17.3,16.1c9.2,8,20.1,15.4,36,20.7c15.9,5.3,36.8,8.6,66.2,8.6c3.3,0,6.8,0,10.3-0.1c27-0.6,52.6-0.9,76.5-0.9   c55,0,100.8,1.4,132.8,2.8c16,0.7,28.6,1.4,37.2,1.9c4.3,0.3,7.6,0.5,9.8,0.6c0.4,0,0.7,0,1,0.1c0.1,0.4,0.1,0.9,0.1,1.5   c0,2.5-0.7,6.3-4.2,11.4c-6.1,8.9-21.1,21.6-55.7,35.4c-51.9,20.6-147.7,43.6-322.6,61.4c-174.9,17.8-428.8,30.4-797.2,30.4   c-628.6,0-1298.7-17.5-1814.5-49.8c-257.9-16.2-477.3-36-633.5-59.2c-78.1-11.6-140.5-24.1-183.8-37.2   c-21.7-6.6-38.6-13.4-50.3-20.2c-5.8-3.4-10.3-6.8-13.4-10.1c-1.9-2-3.3-3.9-4.2-5.8c0.2,0,0.4,0,0.6-0.1   c19.4-1.9,97-9.6,196.7-17.8c2.6-2.5,5.4-4.9,8.3-7.3c-120.1,9.8-210.4,19-210.4,19c-0.9,0.1-1.8,0.6-2.3,1.3   c-0.6,0.8-0.8,1.7-0.6,2.6c0.9,4.5,3.4,8.7,7.1,12.6c7.2,7.6,19.1,14.5,35.6,21.2c30.8,12.6,77.4,24.4,138,35.5   c211.9,38.9,593.7,69.3,1047.5,90.1c453.8,20.8,979.7,31.8,1479.3,31.8c561.7,0,857.5-29.2,1013.3-61.6   c77.9-16.2,120.8-33.2,144.5-48c11.9-7.4,19-14.3,23.1-20.4c4.2-6.1,5.4-11.4,5.4-15.1C3947,2826.9,3945.9,2824.7,3945.7,2824.3z"/><path d="M546.9,1872.4l115.3-141.8c2.3-2.8,1.9-7-1-9.3c-2.8-2.3-7-1.9-9.3,1l0,0l-115.3,141.8c-10.6,13.1-18.5,28-23.2,44h13.9   C531.6,1895.2,538.2,1883.1,546.9,1872.4z"/><path d="M525.3,1914.7h-13.7c-2.3,9.7-3.5,19.6-3.5,29.7v201.5h13.3l0-201.5C521.3,1934.2,522.7,1924.3,525.3,1914.7z"/><path class="st6" d="M404,1892.7L404,1892.7c-3.6-65.4-57.8-115.9-122.5-115.9c-2.3,0-4.6,0.1-6.9,0.2   c-65.4,3.6-115.9,57.8-115.9,122.5c0,2.3,0.1,4.6,0.2,6.9c2.9,52,37.7,94.5,84.3,109.8c1.6-4.4,3.1-8.8,4.7-13.1   c-41.6-13.5-72.6-51.3-75.2-97.5c-0.1-2.1-0.2-4.1-0.2-6.2c0-57.4,44.9-105.4,102.8-108.6c2.1-0.1,4.1-0.2,6.2-0.2   c57.4,0,105.4,44.9,108.6,102.8l-3.3,0.2l3.3-0.2c0.1,2.1,0.2,4.1,0.2,6.2c0,2.8-0.1,5.6-0.4,8.4h13.9c0.2-2.8,0.3-5.6,0.3-8.4   C404.2,1897.4,404.2,1895.1,404,1892.7z"/><path class="st6" d="M288.3,2022.1c60.2-3.4,107.9-49.6,115-107.5h-14c-7,50.5-48.9,90.7-101.8,93.6c-2.1,0.1-4.1,0.2-6.2,0.2   c-9.3,0-18.4-1.2-27.1-3.4c-1.6,4.3-3.1,8.6-4.7,13.1c10.2,2.7,20.8,4.2,31.7,4.2C283.6,2022.3,286,2022.3,288.3,2022.1z"/><path class="st4" d="M288.7,2028.8c63.8-3.6,114.2-52.7,121.3-114.1h-6.7c-7.1,57.8-54.7,104.1-115,107.5c-2.3,0.1-4.6,0.2-6.9,0.2   c-11,0-21.6-1.5-31.7-4.2c-0.7,2.1-1.5,4.2-2.2,6.3c10.9,3,22.2,4.6,34,4.6C283.8,2029,286.2,2028.9,288.7,2028.8z"/><path class="st4" d="M243.2,2016.2c-46.6-15.3-81.5-57.9-84.3-109.8c-0.1-2.3-0.2-4.6-0.2-6.9c0-64.7,50.6-118.8,115.9-122.5   c2.3-0.1,4.6-0.2,6.9-0.2c64.7,0,118.8,50.6,122.5,115.9l0,0c0.1,2.3,0.2,4.6,0.2,6.9c0,2.8-0.1,5.6-0.3,8.4h6.6   c0.2-2.8,0.3-5.6,0.3-8.4c0-2.4-0.1-4.9-0.2-7.3l-3.3,0.2l3.3-0.2c-3.8-68.9-60.9-122.2-129.1-122.2c-2.4,0-4.9,0.1-7.3,0.2   c-68.9,3.8-122.2,60.9-122.2,129.1c0,2.4,0.1,4.9,0.2,7.3c3.1,54.7,39.7,99.6,88.8,115.7C241.8,2020.4,242.5,2018.3,243.2,2016.2z"/><path class="st6" d="M179.2,1899.2c0,0.1,0,0.2,0,0.3c0,1.9,0.1,3.8,0.2,5.8c1.9,34.8,21.1,64.6,48.7,81.5l51.4-86.1L179.2,1899.2z   "/><path class="st6" d="M383.7,1900c0-0.1,0-0.2,0-0.3c0-1.9-0.1-3.8-0.2-5.8l0,0c-1.9-34.8-21.1-64.6-48.7-81.5l-51.4,86.1   L383.7,1900z"/><path class="st6" d="M230.7,1810.8c-30.2,17.3-50.5,49.6-51.4,86.2l100.3,1.5L230.7,1810.8z"/><path class="st6" d="M332.9,1811.2c-15.2-8.9-32.8-13.9-51.4-13.9c-1.9,0-3.8,0.1-5.8,0.2c-15.6,0.9-30.3,5.2-43.2,12.3l48.9,87.6   L332.9,1811.2z"/><path class="st6" d="M230,1987.9c6.3,3.7,13.1,6.7,20.2,9c18.9-51,35.4-86.9,35.5-87c0-0.1,0.1-0.2,0.2-0.3l-4.4-7.9L230,1987.9z"/><path class="st6" d="M287.2,2001.7c15.6-0.9,30.3-5.2,43.2-12.3l-40.5-72.6c-0.2,0.4-0.4,0.9-0.6,1.4c-1.6,3.6-3.9,8.8-6.7,15.5   c-5.7,13.3-13.5,32.3-22,54.8c-1.3,3.4-2.6,6.8-3.9,10.3c8,2,16.3,3.1,24.8,3.1C283.3,2001.8,285.2,2001.8,287.2,2001.7z"/><path class="st6" d="M382.6,1914.7h-91.5l41.1,73.7C359,1973,378,1946,382.6,1914.7z"/><path class="st6" d="M283.4,1900.7l4.2,7.5c0.3-0.1,0.7-0.2,1.1-0.2h94.7c0.2-1.9,0.3-3.9,0.3-5.9L283.4,1900.7z"/><path class="st4" d="M287.5,2008.3c52.8-3,94.8-43.1,101.8-93.6h-6.7c-4.6,31.3-23.6,58.3-50.4,73.7l1.6,2.9l-1.9,1.1l-1.6-2.9   c-12.9,7-27.5,11.4-43.2,12.3c-1.9,0.1-3.9,0.2-5.8,0.2c-8.5,0-16.8-1.1-24.8-3.1c-0.8,2.1-1.5,4.1-2.3,6.2   c8.7,2.2,17.7,3.4,27.1,3.4C283.4,2008.5,285.5,2008.4,287.5,2008.3z"/><path class="st4" d="M390.2,1893.5l-3.3,0.2L390.2,1893.5c-3.2-58-51.3-102.8-108.6-102.8c-2,0-4.1,0.1-6.2,0.2   c-58,3.2-102.8,51.3-102.8,108.6c0,2,0.1,4.1,0.2,6.2c2.6,46.2,33.6,84.1,75.2,97.5c0.8-2.1,1.5-4.2,2.3-6.2   c-7.1-2.3-13.9-5.3-20.2-9l-1.7,2.9l-1.9-1.1l1.7-2.9c-27.6-16.9-46.8-46.7-48.7-81.5c-0.1-1.9-0.2-3.9-0.2-5.8c0-0.1,0-0.2,0-0.3   l-3.3,0l0-2.2l3.4,0c0.9-36.6,21.2-68.8,51.4-86.2l-1.6-2.9l1.9-1.1l1.6,2.9c12.9-7,27.5-11.4,43.2-12.3c1.9-0.1,3.9-0.2,5.8-0.2   c18.6,0,36.2,5,51.4,13.9l1.7-2.9l1.9,1.1l-1.7,2.9c27.6,16.9,46.8,46.7,48.7,81.5l0,0c0.1,1.9,0.2,3.9,0.2,5.8c0,0.1,0,0.2,0,0.3   l3.3,0l0,2.2l-3.4,0c0,2-0.1,3.9-0.3,5.9h6.6c0.2-2.8,0.4-5.6,0.4-8.4C390.4,1897.6,390.3,1895.6,390.2,1893.5z"/><polygon points="282.1,1898.5 283.4,1898.5 334.8,1812.3 336.5,1809.5 334.6,1808.3 332.9,1811.2 281.5,1897.4  "/><polygon points="281.5,1898.5 282.1,1898.5 281.5,1897.4 232.6,1809.7 231,1806.8 229,1807.9 230.7,1810.8 279.6,1898.4  "/><polygon points="280.5,1899 281.5,1899.6 281.5,1898.5 279.6,1898.4 179.2,1897 175.9,1896.9 175.9,1899.1 179.2,1899.2    279.5,1900.6  "/><polygon points="280.5,1900.1 281.5,1899.6 280.5,1899 279.5,1900.6 228.1,1986.8 226.4,1989.7 228.3,1990.8 230,1987.9    281.4,1901.8  "/><path d="M281.4,1900.7l0-1.1l-1,0.5l0.9,1.7l4.4,7.9c0.4-0.7,1-1.2,1.7-1.4l-4.2-7.5L281.4,1900.7z"/><path d="M331.9,1992.3l1.9-1.1l-1.6-2.9l-41.1-73.7h-0.4c-0.3,0.6-0.6,1.3-1,2.2l40.5,72.6L331.9,1992.3z"/><polygon points="282.1,1898.5 281.5,1898.5 281.5,1899.6 281.4,1900.7 283.4,1900.7 383.7,1902.2 387,1902.2 387.1,1900    383.7,1900 283.4,1898.5  "/><path d="M208.8,2145.8h4.1c8.6-41.6,21.6-84.2,34.5-121.4c0.7-2.1,1.5-4.2,2.2-6.3c1.6-4.4,3.1-8.8,4.7-13.1   c0.8-2.1,1.5-4.2,2.3-6.2c1.3-3.5,2.6-7,3.9-10.3c8.5-22.5,16.3-41.5,22-54.8c2.8-6.7,5.1-11.9,6.7-15.5c0.2-0.5,0.4-1,0.6-1.4   c0.4-0.9,0.7-1.6,1-2.2h0.4h91.5h6.7h14h6.7h13.6h9.2h78.9h13.7h40.3c4.6,10.1,26.6,59.6,47.4,121.4c4.8,14.1,9.5,28.9,13.9,44   c6.3,21.5,12.1,43.7,16.6,65.6h4.1c1.6,0,2.9,1.1,3.3,2.7l0,0c0,0,0,0,0,0c-4.3-21.7-9.9-43.6-16-65h-2.2c-1.8,0-3.3-1.5-3.3-3.3   c0-1.8,1.5-3.3,3.3-3.3h0.3c-4.6-15.5-9.4-30.7-14.4-45.2c-23.3-68.7-47.7-121.6-47.8-121.7c-0.5-1.2-1.7-1.9-3-1.9h-40.4h-13.9   h-80.6h-9.2h-13h-6.6H390h-6.6h-94.7c-0.4,0-0.7,0.1-1.1,0.2c-0.7,0.3-1.3,0.8-1.7,1.4c-0.1,0.1-0.1,0.2-0.2,0.3   c0,0.1-16.6,35.9-35.5,87c-0.8,2.1-1.5,4.1-2.3,6.2c-1.6,4.3-3.1,8.6-4.7,13.1c-0.7,2.1-1.5,4.2-2.2,6.3   c-13.4,38.5-26.8,82.8-35.5,126C205.9,2146.9,207.2,2145.8,208.8,2145.8z"/><path class="st6" d="M395.2,2397.9l0.3,0c1.7,0.1,3.1,1.5,3.1,3.2l8.7,288.2c0,1.4-0.8,2.6-2.1,3.2c0,0-0.3,0.1-0.8,0.3   c-0.5,0.2-1.3,0.5-2.2,0.9c-1.9,0.8-4.8,2-8.3,3.6c-7.1,3.1-17.1,7.6-28.6,13.1c-23,11-51.9,26-75.7,42.1   c-15.8,10.7-29.3,21.9-37.1,32.3c-4.1,5.4-6.5,10.5-7.2,15.1c0.4,0.2,1,0.4,1.7,0.6c2.4,0.7,6.3,1.5,11.3,2.2   c10,1.4,24.5,2.6,41.9,3.5c34.8,1.9,81.4,2.8,127.9,2.8c36.1,0,72.2-0.6,102.9-1.7c30.6-1.1,55.9-2.8,70-5.1c4-0.6,7.1-1.3,9-2   c0.4-0.1,0.7-0.3,1-0.4c-0.6-4.3-2.8-9-6.4-14c-3.9-5.5-9.6-11.3-16.3-17.2c-13.6-11.7-31.7-23.4-50.3-34   c-37.3-21.2-76.4-37.9-85.1-41.6c-1.2-0.5-1.8-0.7-1.8-0.7c-1.3-0.5-2.1-1.8-2.1-3.2l8.7-288.2c0.1-1.7,1.4-3.1,3.1-3.2l0.3,0   c0.2,0,0.5,0,0.8-0.1c0.7-0.1,1.8-0.2,3.2-0.3c2.8-0.3,6.8-0.7,11.9-1.5c3.3-0.5,7-1.1,11.1-1.8h-120   C383.1,2397,393.4,2397.8,395.2,2397.9z"/><path class="st4" d="M258.1,2768.8c-4.2,4-7.9,8-10.9,12.1c-4.9,6.6-8.1,13.2-8.7,20l0,0.3c0,1.1,0.5,2.1,1,2.7   c0.5,0.6,1,1.1,1.6,1.4c1.1,0.7,2.2,1.1,3.6,1.6c2.6,0.8,6,1.5,10.3,2.2c14.9,2.3,40.2,3.9,70.8,5.1c30.6,1.1,66.5,1.7,102.4,1.7   c46.6,0,93.3-0.9,128.3-2.8c17.5-0.9,32.1-2.1,42.5-3.6c5.2-0.7,9.3-1.5,12.3-2.4c1.5-0.5,2.8-0.9,3.9-1.6c0.6-0.4,1.1-0.8,1.6-1.4   c0.5-0.6,1-1.6,1-2.7l0-0.3c-0.5-6.8-3.8-13.4-8.7-20c-8.3-11.1-21.7-22.2-37.2-32.8c-0.5-0.3-1-0.7-1.5-1   c-2.6-1.7-5.2-3.5-7.9-5.2c-19.1-12.2-40.3-23.5-59-32.7c-3.3-1.6-6.5-3.2-9.6-4.7c-18.4-8.8-32.9-15-38.2-17.2l8.6-282.9   c7.6-0.7,28.7-3.1,54.5-10.1c-0.3,0.1-0.6,0.1-0.9,0.1h-29.8c-4,0.7-7.8,1.3-11.1,1.8c-5.1,0.7-9.1,1.2-11.9,1.5   c-1.4,0.1-2.5,0.2-3.2,0.3c-0.4,0-0.6,0-0.8,0.1l-0.3,0c-1.7,0.1-3.1,1.5-3.1,3.2l-8.7,288.2c0,1.4,0.8,2.6,2.1,3.2   c0,0,0.6,0.2,1.8,0.7c8.6,3.6,47.8,20.3,85.1,41.6c18.6,10.6,36.8,22.3,50.3,34c6.8,5.8,12.4,11.6,16.3,17.2c3.6,5,5.7,9.7,6.4,14   c-0.3,0.1-0.6,0.3-1,0.4c-1.9,0.6-5,1.3-9,2c-14.1,2.2-39.3,3.9-70,5.1c-30.7,1.1-66.8,1.7-102.9,1.7c-46.5,0-93.1-0.9-127.9-2.8   c-17.4-0.9-31.9-2.1-41.9-3.5c-5-0.7-8.9-1.5-11.3-2.2c-0.7-0.2-1.3-0.4-1.7-0.6c0.7-4.6,3.1-9.7,7.2-15.1   c7.8-10.4,21.3-21.6,37.1-32.3c23.7-16.1,52.7-31.1,75.7-42.1c11.5-5.5,21.5-10,28.6-13.1c3.6-1.6,6.4-2.8,8.3-3.6   c1-0.4,1.7-0.7,2.2-0.9c0.5-0.2,0.8-0.3,0.8-0.3c1.3-0.5,2.1-1.8,2.1-3.2l-8.7-288.2c-0.1-1.7-1.4-3.1-3.1-3.2l-0.3,0   c-1.7-0.1-12-0.9-27-3.6h-29.8c-0.3,0-0.6,0-0.9-0.1c0,0,0,0,0,0s0,0,0,0c25.8,7,46.9,9.4,54.5,10.1l8.6,282.9   c-8.7,3.7-43.1,18.4-77.9,37.6c-20.1,11.1-40.4,23.7-56.1,36.5c0,0-0.1,0.1-0.1,0.1C263.5,2763.9,260.7,2766.3,258.1,2768.8z"/><path class="st3" d="M257.8,2350c25.2,19,55.4,30.7,81,37.7h178.7c19.2-5.3,40.9-13.1,61.2-24.7c20.4-11.7,39.4-27.2,53-47.6   c9.1-13.6,15.8-29.5,19.1-48c1.9-10.9,2.8-22.7,2.8-35.3c0-24.6-3.4-51.8-8.9-79.7H211.5c-5.5,27.9-8.9,55.1-8.9,79.7   c0,12.6,0.9,24.4,2.8,35.3c3.3,18.5,10,34.3,19.1,48C233.7,2329,245.1,2340.4,257.8,2350z"/><path class="st4" d="M338.4,2394.3h29.8h120H518c0.3,0,0.6,0,0.9-0.1l0,0c26.3-7.2,57.3-19.1,83.7-38.9   c26.4-19.8,48-47.8,54.9-86.7c2-11.4,2.9-23.6,2.9-36.5c0-26-3.7-54.6-9.5-83.7l0,0c-0.3-1.6-1.7-2.7-3.3-2.7h-4.1H521.3h-13.3   H212.9h-4.1c-1.6,0-2.9,1.1-3.3,2.7c-5.8,29.1-9.5,57.7-9.5,83.7c0,12.9,0.9,25.1,2.9,36.5c6.8,38.9,28.5,66.9,54.9,86.7   c26.4,19.9,57.4,31.8,83.7,38.9c0,0,0,0,0,0C337.8,2394.3,338.1,2394.3,338.4,2394.3z M205.5,2267.4c-1.9-10.9-2.8-22.7-2.8-35.3   c0-24.6,3.4-51.8,8.9-79.7h433.3c5.5,27.9,8.9,55.1,8.9,79.7c0,12.6-0.9,24.4-2.8,35.3c-3.3,18.5-10,34.3-19.1,48   c-13.6,20.4-32.6,35.9-53,47.6c-20.3,11.6-42,19.5-61.2,24.7H338.8c-25.6-7-55.8-18.7-81-37.7c-12.7-9.6-24.1-21-33.2-34.6   C215.5,2301.7,208.7,2285.9,205.5,2267.4z"/><path d="M1096.7,2994.7c-2.7-1.4-6.3-2.3-10.8-3.2c-6.8-1.2-15.7-2-26.2-2.6c-10.5-0.5-22.7-0.8-36-0.8   c-94.1,0-243.2,11.6-243.2,11.6c-1.4,0.1-2.6,1.1-3,2.6c-0.3,1.4,0.3,2.9,1.5,3.6c17.9,10.5,41.9,17.6,68.9,22.1   c27,4.5,56.9,6.4,86.4,6.4c38.9,0,77.1-3.3,107.1-8.5c15-2.6,27.9-5.7,37.9-9.1c5-1.7,9.3-3.5,12.7-5.4c3.5-1.9,6.2-3.9,8-6.4l0,0   c0.8-1.1,1.4-2.4,1.4-4c0-1.1-0.3-2.1-0.8-3C1099.6,2996.5,1098.2,2995.5,1096.7,2994.7z M1088.8,3005.6   c-5.2,2.9-13.4,5.8-23.6,8.5c-30.8,8-80.4,13.7-130.9,13.7c-29.2,0-58.8-1.9-85.3-6.3c-21.5-3.6-40.9-8.8-56.4-16   c36.8-2.7,153.2-10.7,231.1-10.7c21.5,0,40,0.6,53,2.1c6.5,0.7,11.6,1.7,14.8,2.8c1.6,0.5,2.7,1.1,3.1,1.5   C1093.7,3002.4,1091.7,3004,1088.8,3005.6z"/><path d="M1326.8,3008H1236c-1.8,0-3.3,1.5-3.3,3.3c0,1.8,1.5,3.3,3.3,3.3h90.8c1.8,0,3.3-1.5,3.3-3.3   C1330.1,3009.5,1328.6,3008,1326.8,3008z"/><path d="M2013.1,2060.6c0-0.1,0.1-0.1,0.1-0.2c0.2-0.2,0.4-0.5,0.6-0.7c0,0,0.1-0.1,0.1-0.1c0.2-0.2,0.4-0.3,0.6-0.4   c0.1,0,0.1,0,0.2-0.1c0.1,0,0.2-0.1,0.2-0.1c0.3-0.1,0.7-0.2,1-0.2c0,0,0,0,0,0h283c-0.8-1.7-1.7-3.4-2.5-5.1h-300.2   c-1.4,0-2.7-0.9-3.1-2.3l-121.5-364.9l-6.6,18.3l119,357.5h28.3l0.3-1.1C2012.8,2061.1,2013,2060.8,2013.1,2060.6z"/><path d="M1870.8,1673.4c0.1,0,0.1,0,0.2-0.1C1870.9,1673.3,1870.9,1673.4,1870.8,1673.4z"/><path d="M1869.9,1673.9c0.1-0.1,0.2-0.1,0.3-0.2C1870,1673.8,1870,1673.8,1869.9,1673.9z"/><path d="M1869.2,1674.5c0.1-0.1,0.1-0.1,0.2-0.2C1869.3,1674.4,1869.2,1674.5,1869.2,1674.5z"/><path d="M1947.8,1974.2l19.5,58.6l2.8,8.3l8.6,25.7c0.5,1.4,1.7,2.3,3.1,2.3h29l1.7-6.6h-28.3l-119-357.5l6.6-18.3l-3-9.1   c-0.2-0.7-0.2-1.5,0.1-2.2c0,0,0,0,0,0.1l-10.2,28.5c-0.2,0.7-0.3,1.5,0,2.2l86.9,261.1L1947.8,1974.2z"/><polygon class="st6" points="2013.5,2085.1 2296.2,2220.7 2304.7,2198.9 2018.2,2066.9  "/><path class="st4" d="M2297.9,2228.5c-0.3,0-0.5,0-0.7-0.1C2297.4,2228.5,2297.7,2228.5,2297.9,2228.5z"/><path class="st4" d="M2008.1,2089.9l288.4,138.3c0.2,0.1,0.4,0.1,0.5,0.2c-0.7-0.2-1.4-0.7-1.9-1.3c-0.6-0.9-0.8-2.1-0.4-3.1   l9.8-25.1l-290.1-133.6c-1.4-0.7-2.2-2.2-1.9-3.7c0.1-0.3,0.2-0.7,0.4-1c-0.2,0.3-0.3,0.5-0.4,0.8l-0.3,1.1l-1.7,6.6l-4.4,16.9   C2006,2087.6,2006.7,2089.2,2008.1,2089.9z M2304.7,2198.9l-8.5,21.8l-282.7-135.6l4.7-18.2L2304.7,2198.9z"/><path class="st4" d="M2015,2059.1c0.3-0.1,0.6-0.2,1-0.2C2015.6,2058.9,2015.3,2059,2015,2059.1z"/><path class="st4" d="M2014.5,2059.3c-0.2,0.1-0.4,0.2-0.6,0.4c0.3-0.2,0.5-0.3,0.8-0.5C2014.7,2059.2,2014.6,2059.2,2014.5,2059.3z   "/><path class="st4" d="M2013.2,2060.4c0.2-0.2,0.4-0.5,0.6-0.7C2013.6,2059.9,2013.4,2060.1,2013.2,2060.4z"/><path class="st6" d="M2031.1,2065.6l278.6,128.3h73.7c-0.9-1.1-1.8-2.2-2.7-3.3c-16.4-20.1-31.7-42.6-45.8-65.9l-138.5,5   l-104.4-49.6h217.8c-2.1-4.1-4.2-8.1-6.3-12.2c-0.4-0.8-0.8-1.6-1.2-2.4H2031.1z"/><path class="st4" d="M2016,2058.9C2016,2058.9,2016,2058.9,2016,2058.9c-0.3,0-0.7,0.1-1,0.2c-0.1,0-0.2,0-0.2,0.1   c-0.3,0.1-0.6,0.3-0.8,0.5c0,0-0.1,0.1-0.1,0.1c-0.2,0.2-0.4,0.4-0.6,0.7c0,0.1-0.1,0.1-0.1,0.2c-0.2,0.3-0.3,0.6-0.4,1   c-0.3,1.5,0.4,3.1,1.9,3.7l290.1,133.6l1.1-2.9c0.5-1.3,1.7-2.1,3.1-2.1h74.5c0,0,0,0,0,0h-73.7l-278.6-128.3h271.2   c-1.1-2.2-2.2-4.4-3.3-6.6H2016z"/><path class="st2" d="M2092,2080.1l104.4,49.6l138.5-5c-8.9-14.7-17.2-29.7-25.1-44.6H2092z"/><path d="M2311.2,2200.5l-8.3,21.4h106.4c-6.9-6.7-13.6-13.8-20.2-21.4H2311.2z"/><path d="M2308.9,2193.9c-1.4,0-2.6,0.8-3.1,2.1l-1.1,2.9l-9.8,25.1c-0.4,1-0.3,2.2,0.4,3.1c0.4,0.7,1.1,1.1,1.9,1.3   c0,0,0.1,0,0.1,0c0.2,0.1,0.5,0.1,0.7,0.1c0,0,0,0,0.1,0h99h10.5h8.9c-2.4-2.2-4.8-4.4-7.1-6.6h-106.4l8.3-21.4h77.9   c-1.9-2.2-3.8-4.4-5.6-6.6H2308.9z"/><path class="st6" d="M2009.1,2036.1c-1.4,0-2.7-0.9-3.1-2.3l-40.9-122.8l-71.9-215.8c-0.3-1-0.2-2.1,0.5-3c0.6-0.9,1.6-1.4,2.7-1.4   h389.3c1.4,0,2.7,0.9,3.1,2.3l54.7,164.4c1.6,2.2,3,4.7,3.9,7.5c12.2,35.5,25.6,65.2,40.1,89.8l-91.6-275h-419.6l122.3,367.3h294.6   c-1.8-3.7-3.5-7.4-5.2-11.1H2009.1z"/><path class="st4" d="M1868.7,1677.6l3,9.1l121.5,364.9c0.5,1.4,1.7,2.3,3.1,2.3h300.2c-1.1-2.2-2.2-4.4-3.2-6.6h-294.6   l-122.3-367.3H2296l91.6,275c4.7,8,9.5,15.5,14.5,22.4l-100.5-301.8c-0.5-1.4-1.7-2.3-3.1-2.3h-426.6c-0.3,0-0.5,0-0.8,0.1   c-0.1,0-0.1,0-0.2,0.1c-0.2,0.1-0.5,0.2-0.7,0.3c-0.1,0.1-0.2,0.1-0.3,0.2c-0.2,0.1-0.4,0.3-0.5,0.5c-0.1,0.1-0.1,0.1-0.2,0.2   c0,0,0,0-0.1,0.1c-0.2,0.2-0.3,0.5-0.4,0.8C1868.5,1676.1,1868.4,1676.9,1868.7,1677.6z"/><path class="st6" d="M1900.9,1697.5l69.4,208.4c30.7-9.4,63.2-16.8,95-16.8c7.1,0,14.1,0.4,21,1.2c7.4,0.9,14.7,2.2,21.9,4.1   c0.3,0.1,0.6,0.2,0.8,0.2c5.4,1.5,10.7,3.3,16,5.4c1.6,0.7,3.2,1.3,4.8,2.1c3.3,1.5,6.7,3.2,9.9,5v0c21.5,11.7,43,23,64.9,31.3   c15.4,5.8,31.1,10.2,47.1,12.2c-10.8-28.2-16.6-46.4-16.6-46.5c-0.3-1.1-0.1-2.3,0.6-3.2c3.3-3.9,6.8-7.7,10.4-11.3   c-6.5-7.6-14.2-17.9-22.9-31.8c-4.5-7.2-7.6-13.5-9.5-19c-2-5.5-2.8-10.4-2.8-14.7c0-3.6,0.6-6.9,1.6-9.8c1-2.9,2.4-5.5,4-7.8   c3.1-4.6,6.6-8.4,9.2-12.3c1.7-2.6,2.9-5.2,3.5-8.2c0.1-0.6,0.2-1.3,0.2-1.9c0-2.2-0.7-4.3-2.1-6.6c-1.4-2.3-3.5-4.7-6-7   c-5-4.7-11.5-9.2-17.1-13.6c-3.7-3-6.9-5.8-9.1-9.1c-1.2-1.9-2.1-4-2.1-6.4c0-1.4,0.3-2.9,1-4.2c1.8-3.6,4.5-6.3,7.7-8   c3.2-1.7,6.9-2.4,10.8-2.4c5.2,0,10.8,1.2,16.6,3.4c5.8,2.1,11.8,5.1,17.7,8.7c11.8,7.2,23.2,16.8,31.5,26.9   c5.6,6.8,12.2,16,18.8,26c6.7,10,13.5,20.8,19.6,30.7c6.7,10.9,12.6,20.8,16.5,27.5c0.3,0.1,0.6,0.2,0.9,0.3l-50.9-152.8H1900.9z"/><path class="st4" d="M2285.7,1690.9h-389.3c-1.1,0-2.1,0.5-2.7,1.4c-0.6,0.9-0.8,2-0.5,3l71.9,215.8c-0.3-0.8-0.2-1.8,0.2-2.6   c0.4-0.8,1.1-1.4,2-1.7c1-0.3,2.1-0.6,3.1-1l-69.4-208.4h382.4l50.9,152.8c1.2,0.5,2.4,1.1,3.6,1.8c2.2,1.4,4.2,3.2,5.9,5.4   l-54.7-164.4C2288.4,1691.8,2287.1,1690.9,2285.7,1690.9z"/><path class="st4" d="M2086.3,1890.3c7.4,0.9,14.7,2.2,21.9,4.1C2101.1,1892.5,2093.7,1891.1,2086.3,1890.3z"/><path class="st4" d="M2139.8,1907.1c21.5,11.7,43,23,64.9,31.3c15.4,5.8,31.1,10.2,47.2,12.2l0,0c-16.1-2.1-31.7-6.4-47.1-12.2   C2182.8,1930.1,2161.3,1918.8,2139.8,1907.1z"/><path class="st4" d="M2109.1,1894.6c5.4,1.5,10.7,3.3,16,5.4C2119.8,1897.9,2114.5,1896.1,2109.1,1894.6z"/><path class="st4" d="M2139.8,1907.1c-3.3-1.8-6.6-3.5-9.9-5C2133.2,1903.6,2136.5,1905.2,2139.8,1907.1L2139.8,1907.1z"/><path d="M2136.6,1912.9L2136.6,1912.9c-20.7-11.6-43.2-16.5-66.6-17.1c-1.6,0-3.1-0.1-4.7-0.1c-30.6,0-62.5,7.2-92.9,16.5l39,117.3   H2285c-12.3-26.7-22.5-51.5-30.4-71.9c-18-1.9-35.3-6.7-52.2-13.1C2179.9,1936.1,2158.2,1924.7,2136.6,1912.9z"/><path d="M2139.8,1907.1L2139.8,1907.1L2139.8,1907.1c-3.3-1.8-6.6-3.5-9.9-5c-1.6-0.7-3.2-1.4-4.8-2.1c-5.2-2.1-10.6-3.9-16-5.4   c-0.3-0.1-0.6-0.2-0.8-0.2c-7.2-1.9-14.5-3.2-21.9-4.1c-7-0.8-14-1.2-21-1.2c-31.7,0-64.3,7.4-95,16.8c-1,0.3-2.1,0.6-3.1,1   c-0.8,0.3-1.6,0.9-2,1.7c-0.4,0.8-0.5,1.7-0.2,2.6l40.9,122.8c0.5,1.4,1.7,2.3,3.1,2.3h279c-1-2.2-2.1-4.4-3.1-6.6h-273.5   l-39-117.3c30.3-9.3,62.2-16.5,92.9-16.5c1.6,0,3.1,0,4.7,0.1c23.4,0.6,46,5.5,66.6,17.1l0,0c21.6,11.8,43.3,23.2,65.7,31.7   c16.9,6.4,34.2,11.1,52.2,13.1c-0.9-2.4-1.8-4.8-2.7-7c-16.1-2.1-31.7-6.4-47.2-12.2C2182.8,1930.1,2161.3,1918.8,2139.8,1907.1z"/><path class="st6" d="M2319.6,1839.9c-7.8-13-18-29.6-27.9-44.5c-6.6-9.9-13-19-18.4-25.5c-5.8-7-13.4-14-21.5-19.9   c-8.1-5.9-16.8-10.8-24.8-13.6c-5.3-1.9-10.2-3-14.3-3c-3.1,0-5.7,0.6-7.7,1.6c-2,1.1-3.6,2.7-4.9,5.1c-0.2,0.5-0.3,0.9-0.3,1.3   c0,0.4,0.1,1,0.4,1.6c0.3,0.7,0.8,1.5,1.5,2.3c1.4,1.7,3.5,3.7,6.1,5.8c5.1,4.2,11.8,8.7,17.4,13.8c3.7,3.4,7.1,7.1,9.1,11.4   c1.2,2.4,1.9,5.1,1.9,7.9c0,1-0.1,2.1-0.3,3.1l0,0c-0.6,3.1-1.7,5.8-3,8.2c-1.4,2.4-2.9,4.6-4.5,6.7c-3.2,4.1-6.4,7.8-8.4,12.1   c-1.3,2.8-2.1,5.9-2.2,9.8c0,3.4,0.7,7.5,2.5,12.5c1.8,5,4.6,10.8,8.9,17.8c8.4,13.5,15.8,23.4,22,30.7c5.5-5.2,11.3-9.9,17.1-14.2   c11.4-8.4,23-14.8,33.8-18.7c7.2-2.6,14.1-4,20.4-4c0.8,0,1.6,0,2.3,0.1C2323,1845.7,2321.4,1842.9,2319.6,1839.9z"/><path class="st4" d="M2297.2,1791.8c-6.7-10-13.2-19.2-18.8-26c-8.3-10.1-19.7-19.7-31.5-26.9c-5.9-3.6-11.9-6.6-17.7-8.7   c-5.8-2.1-11.4-3.3-16.6-3.4c-3.9,0-7.6,0.7-10.8,2.4c-3.2,1.7-5.9,4.4-7.7,8c-0.7,1.3-1,2.8-1,4.2c0,2.4,0.9,4.5,2.1,6.4   c2.1,3.3,5.4,6.2,9.1,9.1c5.5,4.4,12.1,8.9,17.1,13.6c2.5,2.3,4.6,4.7,6,7c1.4,2.3,2.1,4.5,2.1,6.6c0,0.6-0.1,1.2-0.2,1.9   c-0.6,3-1.8,5.6-3.5,8.2c-2.5,3.9-6.1,7.6-9.2,12.3c-1.5,2.3-2.9,4.9-4,7.8c-1,2.9-1.6,6.1-1.6,9.8c0,4.3,0.9,9.2,2.8,14.7   c2,5.5,5.1,11.8,9.5,19c8.7,14,16.3,24.2,22.9,31.8c1.6-1.6,3.2-3.1,4.8-4.6c-6.2-7.3-13.6-17.2-22-30.7   c-4.3-6.9-7.2-12.8-8.9-17.8c-1.8-5-2.5-9-2.5-12.5c0-3.8,0.8-6.9,2.2-9.8c2-4.3,5.2-8,8.4-12.1c1.6-2.1,3.2-4.2,4.5-6.7   c1.4-2.4,2.5-5.1,3-8.2l0,0c0.2-1,0.3-2.1,0.3-3.1c0-2.8-0.7-5.4-1.9-7.9c-2.1-4.3-5.4-7.9-9.1-11.4c-5.6-5.1-12.3-9.7-17.4-13.8   c-2.5-2.1-4.7-4-6.1-5.8c-0.7-0.9-1.2-1.7-1.5-2.3c-0.3-0.7-0.4-1.2-0.4-1.6c0-0.4,0.1-0.8,0.3-1.3c1.2-2.4,2.8-4,4.9-5.1   c2-1.1,4.6-1.6,7.7-1.6c4.1,0,9.1,1,14.3,3c7.9,2.9,16.6,7.7,24.8,13.6c8.1,5.9,15.7,12.9,21.5,19.9c5.4,6.5,11.8,15.6,18.4,25.5   c9.9,14.8,20.1,31.5,27.9,44.5c1.8,3,3.4,5.7,4.9,8.2c3.1,0.2,6,0.8,8.8,1.8c-3.9-6.7-9.8-16.6-16.5-27.5   C2310.7,1812.5,2303.9,1801.8,2297.2,1791.8z"/><path class="st6" d="M2912.3,1928.2c-19.8,2.5-44,12.1-70.9,25.3c-27.4,13.4-57.8,30.5-89.7,47.3c-63.9,33.6-134.1,66.2-201.3,66.3   c-40.7,0-80.3-12.1-116-43.3c-35.7-31.2-67.4-81.1-93.3-156.5c-1.6-4.5-4-7.5-7.1-9.5c-3.1-2-7.1-3-11.9-3   c-5.3,0-11.5,1.2-18.1,3.6c-6.7,2.4-13.9,5.9-21.1,10.4c-14.1,8.7-28.6,20.9-40.9,35.1c0,0.1,0,0.1,0.1,0.2   c0.4,1.3,1.1,3.3,1.9,5.8c1.7,5,4.3,12.4,7.6,21.5c6.7,18.3,16.5,43.8,29.1,72.6c25.1,57.7,61.3,128.8,105,182.4   c29.1,35.8,61.6,63.6,96.1,74.7c18.5,6,38.2,8.6,58.5,8.6c69.4,0,146.2-31,206.7-63.1c60.6-32.1,104.9-65.2,110-69   c0.3-0.2,0.5-0.4,0.5-0.4c0.8-0.6,1.9-0.8,2.8-0.6l51.9-208.3L2912.3,1928.2z"/><path class="st4" d="M2387.6,1954.9c-14.5-24.6-27.9-54.3-40.1-89.8c-1-2.8-2.3-5.3-3.9-7.5c-1.7-2.2-3.6-4-5.9-5.4   c-1.1-0.7-2.3-1.3-3.6-1.8c-0.3-0.1-0.6-0.2-0.9-0.3c-2.7-1-5.7-1.6-8.8-1.8c-0.8,0-1.5-0.1-2.3-0.1c-6.3,0-13.2,1.4-20.4,4   c-10.8,3.9-22.4,10.3-33.8,18.7c-5.8,4.3-11.5,9-17.1,14.2c-1.6,1.5-3.2,3.1-4.8,4.6c-3.6,3.6-7.1,7.4-10.4,11.3   c-0.7,0.9-1,2.1-0.6,3.2c0,0,5.8,18.2,16.6,46.5l0,0c0.9,2.3,1.8,4.6,2.7,7c7.9,20.4,18.2,45.2,30.4,71.9c1,2.2,2,4.4,3.1,6.6   c1.7,3.7,3.5,7.3,5.2,11.1c1.1,2.2,2.1,4.4,3.2,6.6c0.8,1.7,1.7,3.4,2.5,5.1c1.1,2.2,2.2,4.4,3.3,6.6c0.4,0.8,0.8,1.6,1.2,2.4   c2.1,4,4.2,8.1,6.3,12.2c7.8,14.9,16.2,29.9,25.1,44.6c14.1,23.3,29.4,45.7,45.8,65.9c0.9,1.1,1.8,2.2,2.7,3.3c0,0,0,0,0,0   c1.9,2.2,3.7,4.5,5.6,6.6c6.6,7.6,13.3,14.7,20.2,21.4c2.4,2.3,4.7,4.5,7.1,6.6c19.9,17.9,41.1,31.6,63.5,38.9   c16.3,5.3,33.5,8,51.1,8.7c2.4,0.1,4.7,0.2,7.1,0.2c0.8,0,1.6,0,2.4,0c36.8,0,75.3-8.4,112.2-21c110.9-37.7,208.8-112.7,209-112.8   c1.5-1.1,1.7-3.2,0.6-4.6c-0.5-0.6-1.1-1-1.8-1.2c-0.9-0.2-2-0.1-2.8,0.6c0,0-0.2,0.1-0.5,0.4c-5.1,3.8-49.4,36.9-110,69   c-60.5,32.1-137.3,63.1-206.7,63.1c-20.3,0-40-2.6-58.5-8.6c-34.4-11.1-66.9-39-96.1-74.7c-43.7-53.6-79.9-124.8-105-182.4   c-12.6-28.8-22.4-54.3-29.1-72.6c-3.3-9.1-5.9-16.5-7.6-21.5c-0.9-2.5-1.5-4.5-1.9-5.8c0-0.1,0-0.1-0.1-0.2   c12.3-14.2,26.8-26.4,40.9-35.1c7.3-4.5,14.4-8,21.1-10.4c6.7-2.4,12.9-3.6,18.1-3.6c4.8,0,8.8,1,11.9,3c3.1,2,5.5,5,7.1,9.5   c25.9,75.4,57.6,125.4,93.3,156.5c35.7,31.2,75.3,43.3,116,43.3c67.2,0,137.4-32.7,201.3-66.3c31.9-16.8,62.3-33.9,89.7-47.3   c26.9-13.2,51-22.7,70.9-25.3c0.4-0.1,0.8-0.1,1.2-0.2c1.8-0.2,3.1-1.9,2.9-3.7c-0.2-1.8-1.9-3.1-3.7-2.9l0,0c-0.1,0-0.2,0-0.3,0   c-21.5,2.6-46.4,12.6-74,26c-41.5,20.3-89.1,48.6-138.5,71.7c-49.5,23.2-100.8,41.1-149.5,41.1c-39.4,0-77.1-11.6-111.6-41.7   c-12.8-11.1-25.1-24.8-36.8-41.4C2397.1,1970.4,2392.3,1962.9,2387.6,1954.9z"/><path d="M2425.5,2487.9c11.2,9.5,28.1,16.2,53,16.2c1.8,0,3.3-1.5,3.3-3.3c0-1.8-1.5-3.3-3.3-3.3c-15.8,0-27.9-2.8-37-7.1   c-13.7-6.5-21.1-16.4-25.3-26.2c-4.2-9.9-5-19.7-5-25.5c0-1.6,0.1-2.9,0.1-3.8c0-0.4,0.1-0.8,0.1-1l0-0.2l0-0.1v0   c0.2-1.8-1.1-3.5-2.9-3.7c-1.8-0.2-3.5,1.1-3.7,2.9h0c0,0.1-0.3,2.3-0.3,5.9c0,4.2,0.4,10.4,2,17.3   C2409,2466.3,2414.3,2478.4,2425.5,2487.9z"/><path class="st5" d="M2959,1133.5c0,0,2.3-105.7-114.3-82.1c39.4-108.6-196.7-116.4-172.4-10.9c-63.9-39.4-238-1.6-183.3,93H2959z"/><path class="st5" d="M1026.4,1783.7c0,5.7,0.5,10.2,1.2,10.2c0.7,0,1.2-4.6,1.2-10.2c0-5.7-0.5-10.2-1.2-10.2   C1026.9,1773.5,1026.4,1778.1,1026.4,1783.7z"/><path d="M1124.3,2080.1c0-1.8-1.5-3.3-3.3-3.3H730.3h-97.5h-0.3c-1.8,0-3.3,1.5-3.3,3.3c0,1.8,1.5,3.3,3.3,3.3h2.2h486.2   C1122.8,2083.5,1124.3,2082,1124.3,2080.1z"/><path d="M1366.7,2083.5h132.3c1.8,0,3.3-1.5,3.3-3.3c0-1.8-1.5-3.3-3.3-3.3h-132.3c-1.8,0-3.3,1.5-3.3,3.3   C1363.4,2082,1364.9,2083.5,1366.7,2083.5z"/><path d="M1054.8,2152.4h191.4c1.8,0,3.3-1.5,3.3-3.3c0-1.8-1.5-3.3-3.3-3.3h-191.4c-1.8,0-3.3,1.5-3.3,3.3   C1051.5,2150.9,1052.9,2152.4,1054.8,2152.4z"/><path d="M1214.5,2209c0,1.8,1.5,3.3,3.3,3.3h59.1c1.8,0,3.3-1.5,3.3-3.3c0-1.8-1.5-3.3-3.3-3.3h-59.1   C1216,2205.7,1214.5,2207.2,1214.5,2209z"/><path class="st5" d="M1959.4,1327.5c0.2-2,0.3-3.9,0.3-5.9c0-42.3-45.2-76.7-100.9-76.7c-7.6,0-14.9,0.7-22,1.9   c1.2-4,1.8-8.1,1.8-12.4c0-31.2-33.3-56.6-74.4-56.6c-37.6,0-68.7,21.2-73.7,48.7c-5.1-0.5-10.4-0.8-15.7-0.8   c-64.8,0-117.4,39.9-117.4,89.2c0,4.3,0.4,8.5,1.2,12.6H1959.4z"/><path class="st5" d="M1583.1,1390.5c-12.1-14.2-106,6.3-106,6.3S1595.2,1404.7,1583.1,1390.5z"/><path class="st5" d="M2092,1358.2c0,0-130.2-21.3-132.3,0C1957.6,1379.5,2092,1358.2,2092,1358.2z"/><path class="st5" d="M2551.6,1189c0,0-138.3-22.2-128.6,4.6C2432.6,1220.3,2551.6,1189,2551.6,1189z"/><path class="st5" d="M2919.5,1172.1c1.6,13.4,122.1,0,122.1,0S2917.9,1158.7,2919.5,1172.1z"/><path class="st5" d="M2711.3,2812.4c-132.9-22.5-302.5-37.3-473-0.1c-170.5,37.2-728.2-29-715.6,30.9c0,0,182.8,75.6,686.9,69.3   c504.2-6.3,949.4,35.2,1059.2-20.2c109.9-55.4,31.1-82.2-88.7-79.9C3060.5,2814.8,2844.2,2835,2711.3,2812.4z"/><polygon class="st1" points="334.9,1328.3 334.9,1328.3 334.9,1328.3  "/><path class="st1" d="M1151.3,1601.6c69,6.3,142.3,9.9,220.1,9.9c20.2,0,40.7-0.2,61.6-0.7c170.7-4.1,352.3-28,535.5-62.3   c0.6-0.1,1-0.7,0.9-1.3s-0.7-1-1.3-0.9c-183.1,34.3-364.6,58.2-535.1,62.3c-20.8,0.5-41.3,0.7-61.5,0.7c-77.7,0-151-3.6-219.9-9.9   c-101.3-9.3-193.1-24.6-275.5-43.4c-2.5,0.2-4.9,0.4-7.4,0.6C952.8,1576.1,1047,1592,1151.3,1601.6z"/><path class="st1" d="M539.7,1444.2c-67.9-31-118.8-60.4-152.7-82c-16.9-10.8-29.7-19.7-38.1-25.9c-4.2-3.1-7.4-5.5-9.5-7.1   c-1.1-0.8-1.8-1.4-2.4-1.9c-0.5-0.4-0.8-0.6-0.8-0.6c-0.5-0.4-1.2-0.3-1.6,0.2c-0.4,0.5-0.3,1.2,0.2,1.6   c0.1,0.1,175.3,144,526.6,226.6c2.4-0.2,4.9-0.4,7.3-0.6C733.2,1523,623.5,1482.4,539.7,1444.2z"/><path class="st1" d="M229.9,1558L229.9,1558c0,0,127.1,10.7,310.9,10.7c96.9,0,209.6-3,327.7-12.1c2.5-0.2,4.9-0.4,7.4-0.6   c122-9.6,249.6-25.7,371.6-51.8c0.6-0.1,1-0.7,0.8-1.3c-0.1-0.6-0.7-1-1.3-0.8c-124.3,26.6-254.3,42.8-378.4,52.3   c-2.4,0.2-4.9,0.4-7.3,0.6c-115.6,8.6-225.7,11.5-320.6,11.5c-91.9,0-169.6-2.7-224.3-5.3c-27.4-1.3-49-2.7-63.7-3.7   c-7.4-0.5-13.1-0.9-16.9-1.2c-3.8-0.3-5.8-0.5-5.8-0.5c-0.6-0.1-1.1,0.4-1.2,1C228.9,1557.4,229.3,1557.9,229.9,1558z"/></g></svg>