<svg width="22" height="22" viewBox="0 0 22 22" fill="none" xmlns="http://www.w3.org/2000/svg">
<g id="Icon- Outline">
<path id="Union" fill-rule="evenodd" clip-rule="evenodd" d="M6.41671 1.83337C6.92297 1.83337 7.33337 2.24378 7.33337 2.75004V3.66671H14.6667V2.75004C14.6667 2.24378 15.0771 1.83337 15.5834 1.83337C16.0896 1.83337 16.5 2.24378 16.5 2.75004V3.66671H17.4167C18.9355 3.66671 20.1667 4.89792 20.1667 6.41671V17.4167C20.1667 18.9355 18.9355 20.1667 17.4167 20.1667H4.58337C3.06459 20.1667 1.83337 18.9355 1.83337 17.4167V6.41671C1.83337 4.89792 3.06459 3.66671 4.58337 3.66671H5.50004V2.75004C5.50004 2.24378 5.91045 1.83337 6.41671 1.83337ZM14.6667 5.50004V6.41671C14.6667 6.92297 15.0771 7.33337 15.5834 7.33337C16.0896 7.33337 16.5 6.92297 16.5 6.41671V5.50004H17.4167C17.923 5.50004 18.3334 5.91045 18.3334 6.41671V9.16671H3.66671V6.41671C3.66671 5.91045 4.07711 5.50004 4.58337 5.50004H5.50004V6.41671C5.50004 6.92297 5.91045 7.33337 6.41671 7.33337C6.92297 7.33337 7.33337 6.92297 7.33337 6.41671V5.50004H14.6667ZM3.66671 11V17.4167C3.66671 17.923 4.07711 18.3334 4.58337 18.3334H17.4167C17.923 18.3334 18.3334 17.923 18.3334 17.4167V11H3.66671Z" fill="#6F767E"/>
</g>
</svg>
