<svg width="24" height="25" viewBox="0 0 24 25" fill="none" xmlns="http://www.w3.org/2000/svg">
<g id="fi-rr-camera" clip-path="url(#clip0_898_9843)">
<path id="Vector" d="M18.8567 4.87444H18.3626L16.2383 2.11984C15.9645 1.76755 15.6141 1.48218 15.2137 1.28534C14.8133 1.08851 14.3734 0.985382 13.9272 0.983765L10.1688 0.983765C9.72265 0.985382 9.28271 1.08851 8.8823 1.28534C8.4819 1.48218 8.13153 1.76755 7.85775 2.11984L5.73344 4.87444H5.23933C3.94996 4.87599 2.71385 5.38887 1.80212 6.30059C0.890404 7.21231 0.377521 8.44843 0.375977 9.73779L0.375977 19.4645C0.377521 20.7539 0.890404 21.99 1.80212 22.9017C2.71385 23.8134 3.94996 24.3263 5.23933 24.3278H18.8567C20.1461 24.3263 21.3822 23.8134 22.2939 22.9017C23.2056 21.99 23.7185 20.7539 23.7201 19.4645V9.73779C23.7185 8.44843 23.2056 7.21231 22.2939 6.30059C21.3822 5.38887 20.1461 4.87599 18.8567 4.87444ZM9.39846 3.30845C9.48958 3.19081 9.60632 3.09549 9.73981 3.02976C9.8733 2.96403 10.02 2.9296 10.1688 2.9291H13.9272C14.076 2.92974 14.2227 2.96423 14.3561 3.02996C14.4896 3.09568 14.6064 3.19091 14.6976 3.30845L15.9056 4.87444H8.19041L9.39846 3.30845ZM21.7747 19.4645C21.7747 20.2384 21.4673 20.9806 20.9201 21.5278C20.3728 22.0751 19.6306 22.3825 18.8567 22.3825H5.23933C4.46542 22.3825 3.72322 22.0751 3.17598 21.5278C2.62875 20.9806 2.32132 20.2384 2.32132 19.4645V9.73779C2.32132 8.96389 2.62875 8.22168 3.17598 7.67445C3.72322 7.12722 4.46542 6.81979 5.23933 6.81979H18.8567C19.6306 6.81979 20.3728 7.12722 20.9201 7.67445C21.4673 8.22168 21.7747 8.96389 21.7747 9.73779V19.4645Z" fill="#589441"/>
<path id="Vector_2" d="M12.0479 8.76501C10.8937 8.76501 9.76535 9.10729 8.80562 9.74856C7.84589 10.3898 7.09787 11.3013 6.65616 12.3677C6.21444 13.4341 6.09887 14.6075 6.32405 15.7396C6.54924 16.8717 7.10507 17.9115 7.92125 18.7277C8.73743 19.5439 9.77731 20.0997 10.9094 20.3249C12.0415 20.5501 13.2149 20.4345 14.2813 19.9928C15.3477 19.5511 16.2591 18.8031 16.9004 17.8434C17.5417 16.8836 17.884 15.7553 17.884 14.601C17.8824 13.0537 17.2671 11.5702 16.1729 10.4761C15.0788 9.38192 13.5953 8.76656 12.0479 8.76501ZM12.0479 18.4917C11.2784 18.4917 10.5262 18.2635 9.88639 17.836C9.24657 17.4085 8.74789 16.8009 8.45342 16.0899C8.15894 15.379 8.08189 14.5967 8.23201 13.842C8.38214 13.0873 8.75269 12.394 9.29681 11.8499C9.84093 11.3058 10.5342 10.9352 11.2889 10.7851C12.0436 10.635 12.8259 10.712 13.5368 11.0065C14.2478 11.301 14.8554 11.7997 15.2829 12.4395C15.7104 13.0793 15.9386 13.8315 15.9386 14.601C15.9386 15.6329 15.5287 16.6225 14.7991 17.3522C14.0694 18.0818 13.0798 18.4917 12.0479 18.4917Z" fill="#589441"/>
</g>
<defs>
<clipPath id="clip0_898_9843">
<rect width="23.3441" height="23.3441" fill="white" transform="translate(0.375977 0.983765)"/>
</clipPath>
</defs>
</svg>
