<svg xmlns="http://www.w3.org/2000/svg" width="24" height="24" viewBox="0 0 24 24" fill="none">
<g id="vuesax/bold/category-2">
<g id="category-2">
<path id="Vector" d="M18.6699 2H16.7699C14.5899 2 13.4399 3.15 13.4399 5.33V7.23C13.4399 9.41 14.5899 10.56 16.7699 10.56H18.6699C20.8499 10.56 21.9999 9.41 21.9999 7.23V5.33C21.9999 3.15 20.8499 2 18.6699 2Z" fill="#2C2B46"/>
<path id="Vector_2" d="M7.24 13.43H5.34C3.15 13.43 2 14.58 2 16.76V18.66C2 20.85 3.15 22 5.33 22H7.23C9.41 22 10.56 20.85 10.56 18.67V16.77C10.57 14.58 9.42 13.43 7.24 13.43Z" fill="#2C2B46"/>
<path id="Vector_3" d="M6.29 10.58C8.6593 10.58 10.58 8.6593 10.58 6.29C10.58 3.9207 8.6593 2 6.29 2C3.9207 2 2 3.9207 2 6.29C2 8.6593 3.9207 10.58 6.29 10.58Z" fill="#2C2B46"/>
<path id="Vector_4" d="M17.7099 22C20.0792 22 21.9999 20.0793 21.9999 17.71C21.9999 15.3407 20.0792 13.42 17.7099 13.42C15.3406 13.42 13.4199 15.3407 13.4199 17.71C13.4199 20.0793 15.3406 22 17.7099 22Z" fill="#2C2B46"/>
</g>
</g>
</svg>