<svg xmlns="http://www.w3.org/2000/svg" width="28" height="28" viewBox="0 0 28 28" fill="none">
  <path d="M2.11223 11.3488C2.4404 11.0207 2.88544 10.8364 3.34948 10.8364C3.81352 10.8364 4.25856 11.0207 4.58673 11.3488L10.7747 17.5368L23.1472 5.16252C23.3097 4.99993 23.5026 4.87093 23.715 4.78289C23.9273 4.69485 24.1549 4.6495 24.3847 4.64941C24.6146 4.64933 24.8422 4.69453 25.0546 4.78242C25.267 4.8703 25.46 4.99917 25.6226 5.16164C25.7852 5.32412 25.9142 5.51703 26.0022 5.72937C26.0903 5.9417 26.1356 6.16929 26.1357 6.39915C26.1358 6.62901 26.0906 6.85664 26.0027 7.06903C25.9148 7.28142 25.786 7.47443 25.6235 7.63702L10.7747 22.4858L2.11223 13.8233C1.78416 13.4951 1.59985 13.0501 1.59985 12.586C1.59985 12.122 1.78416 11.6769 2.11223 11.3488Z" fill="black"/>
</svg>