<svg width="20" height="21" viewBox="0 0 20 21" fill="none" xmlns="http://www.w3.org/2000/svg">
<g id="UI icon/close/light">
<path id="Union" d="M5.58921 4.53766C5.26378 4.21222 4.73614 4.21222 4.4107 4.53766C4.08527 4.86309 4.08527 5.39073 4.4107 5.71617L8.82146 10.1269L4.41073 14.5377C4.08529 14.8631 4.08529 15.3907 4.41073 15.7162C4.73616 16.0416 5.2638 16.0416 5.58924 15.7162L9.99997 11.3054L14.4107 15.7162C14.7361 16.0416 15.2638 16.0416 15.5892 15.7162C15.9147 15.3907 15.9147 14.8631 15.5892 14.5377L11.1785 10.1269L15.5892 5.71617C15.9147 5.39073 15.9147 4.86309 15.5892 4.53766C15.2638 4.21222 14.7362 4.21222 14.4107 4.53766L9.99997 8.94842L5.58921 4.53766Z" fill="#33383F"/>
</g>
</svg>
