<svg width="31" height="31" viewBox="0 0 31 31" fill="none" xmlns="http://www.w3.org/2000/svg">
<g id="UI icon/star/filled">
<path id="Star 3" d="M13.4551 4.93113C14.2334 2.69223 17.3997 2.69223 18.1779 4.93113L19.3598 8.33133C19.7032 9.319 20.6249 9.98868 21.6703 10.01L25.2693 10.0833C27.6391 10.1316 28.6176 13.143 26.7288 14.575L23.8602 16.7498C23.027 17.3815 22.6749 18.4651 22.9777 19.4659L24.0201 22.9114C24.7065 25.1802 22.1448 27.0413 20.1992 25.6874L17.2445 23.6313C16.3862 23.0341 15.2469 23.0341 14.3886 23.6313L11.4338 25.6874C9.4882 27.0413 6.92658 25.1802 7.61296 22.9114L8.65537 19.4659C8.95816 18.4651 8.60609 17.3815 7.77285 16.7498L4.9043 14.575C3.01546 13.143 3.99391 10.1316 6.36372 10.0833L9.96273 10.01C11.0082 9.98868 11.9299 9.319 12.2732 8.33133L13.4551 4.93113Z" fill="#D8DDEB"/>
</g>
</svg>
