<svg width="29" height="31" viewBox="0 0 29 31" fill="none" xmlns="http://www.w3.org/2000/svg">
<g clip-path="url(#clip0_900_4035)">
<path d="M14.7788 7.95508C13.8448 7.95508 12.9318 8.2542 12.1552 8.81462C11.3786 9.37504 10.7733 10.1716 10.4159 11.1035C10.0584 12.0355 9.96492 13.061 10.1471 14.0503C10.3294 15.0397 10.7791 15.9484 11.4396 16.6617C12.1 17.375 12.9415 17.8608 13.8575 18.0576C14.7736 18.2543 15.7231 18.1533 16.586 17.7673C17.449 17.3813 18.1865 16.7276 18.7054 15.8889C19.2243 15.0501 19.5013 14.064 19.5013 13.0553C19.5013 11.7026 19.0037 10.4054 18.1181 9.4489C17.2325 8.49242 16.0313 7.95508 14.7788 7.95508ZM14.7788 15.6054C14.3118 15.6054 13.8553 15.4559 13.467 15.1757C13.0787 14.8955 12.7761 14.4972 12.5974 14.0312C12.4186 13.5652 12.3719 13.0525 12.463 12.5578C12.5541 12.0631 12.779 11.6088 13.1092 11.2521C13.4394 10.8955 13.8602 10.6526 14.3182 10.5542C14.7762 10.4558 15.251 10.5063 15.6824 10.6993C16.1139 10.8923 16.4827 11.2192 16.7421 11.6385C17.0016 12.0579 17.1401 12.5509 17.1401 13.0553C17.1401 13.7316 16.8913 14.3803 16.4485 14.8585C16.0057 15.3368 15.4051 15.6054 14.7788 15.6054Z" fill="#FB9F14"/>
<path d="M14.7788 30.9067C13.7846 30.9122 12.8037 30.6604 11.9182 30.1723C11.0327 29.6843 10.2683 28.9742 9.68914 28.1016C5.18983 21.3986 2.90771 16.3596 2.90771 13.1235C2.90771 9.72319 4.15841 6.46219 6.38466 4.05784C8.61091 1.65349 11.6304 0.302734 14.7788 0.302734C17.9271 0.302734 20.9466 1.65349 23.1728 4.05784C25.3991 6.46219 26.6498 9.72319 26.6498 13.1235C26.6498 16.3596 24.3677 21.3986 19.8684 28.1016C19.2892 28.9742 18.5248 29.6843 17.6393 30.1723C16.7538 30.6604 15.7729 30.9122 14.7788 30.9067V30.9067ZM14.7788 3.08619C12.3141 3.08923 9.95126 4.14796 8.2085 6.03014C6.46575 7.91231 5.48544 10.4642 5.48263 13.126C5.48263 15.6889 7.71752 20.4283 11.7741 26.4708C12.1185 26.9831 12.5703 27.4 13.0925 27.6875C13.6147 27.975 14.1926 28.1249 14.7788 28.1249C15.3649 28.1249 15.9428 27.975 16.465 27.6875C16.9872 27.4 17.439 26.9831 17.7834 26.4708C21.84 20.4283 24.0749 15.6889 24.0749 13.126C24.0721 10.4642 23.0918 7.91231 21.349 6.03014C19.6062 4.14796 17.2434 3.08923 14.7788 3.08619V3.08619Z" fill="#FB9F14"/>
</g>
<defs>
<clipPath id="clip0_900_4035">
<rect width="28.3347" height="30.6014" fill="white" transform="translate(0.611328 0.304688)"/>
</clipPath>
</defs>
</svg>
