<svg width="36" height="36" viewBox="0 0 36 36" fill="none" xmlns="http://www.w3.org/2000/svg">
<g id="Group 7799">
<g id="Vector">
<path d="M28.8842 19.7136L26.9249 12.6641C26.3506 10.5989 25.1025 8.78492 23.3789 7.51051C21.6553 6.2361 19.5551 5.5744 17.4123 5.63058C15.2695 5.68676 13.2069 6.45761 11.5525 7.82058C9.89801 9.18356 8.74663 11.0604 8.28134 13.1529L6.7644 19.9745C6.59684 20.7282 6.60072 21.51 6.77574 22.2621C6.95076 23.0141 7.29246 23.7173 7.77561 24.3196C8.25875 24.9219 8.87102 25.4081 9.56719 25.7421C10.2634 26.0761 11.0257 26.2495 11.7978 26.2495H12.9466C13.1833 27.4151 13.8157 28.463 14.7366 29.2157C15.6575 29.9684 16.8103 30.3796 17.9996 30.3796C19.189 30.3796 20.3418 29.9684 21.2627 29.2157C22.1836 28.463 22.816 27.4151 23.0526 26.2495H23.9168C24.7117 26.2496 25.4958 26.0658 26.208 25.7127C26.9201 25.3595 27.5409 24.8465 28.022 24.2137C28.503 23.5809 28.8312 22.8455 28.981 22.0648C29.1307 21.2842 29.098 20.4795 28.8853 19.7136H28.8842ZM17.9996 28.312C17.3621 28.3093 16.7409 28.1098 16.2211 27.7406C15.7013 27.3714 15.3082 26.8506 15.0957 26.2495H20.9036C20.6911 26.8506 20.298 27.3714 19.7782 27.7406C19.2584 28.1098 18.6372 28.3093 17.9996 28.312ZM26.3794 22.965C26.092 23.3463 25.7197 23.6552 25.2921 23.8673C24.8644 24.0795 24.3932 24.1889 23.9158 24.187H11.7978C11.3346 24.187 10.8773 24.0829 10.4596 23.8824C10.042 23.6819 9.67474 23.3903 9.38492 23.0289C9.0951 22.6675 8.89013 22.2456 8.78516 21.7944C8.68018 21.3432 8.67787 20.8742 8.77839 20.422L10.2943 13.5994C10.6597 11.9559 11.5641 10.4816 12.8636 9.41105C14.1631 8.34047 15.7831 7.73501 17.4663 7.69092C19.1494 7.64683 20.7989 8.16663 22.1527 9.1677C23.5065 10.1688 24.4868 11.5936 24.9377 13.2158L26.8971 20.2653C27.0265 20.7246 27.0472 21.2077 26.9573 21.6763C26.8674 22.145 26.6696 22.5862 26.3794 22.965Z" fill="#FB9F14"/>
<path d="M30.3748 12.4999C30.3748 15.5374 27.9124 17.9998 24.8749 17.9998C21.8374 17.9998 19.375 15.5374 19.375 12.4999C19.375 9.46238 21.8374 7 24.8749 7C27.9124 7 30.3748 9.46238 30.3748 12.4999Z" fill="#FB9F14"/>
</g>
</g>
</svg>
