<svg width="16" height="16" viewBox="0 0 16 16" fill="none" xmlns="http://www.w3.org/2000/svg">
<g id="Icon/16px/Search">
<g id="Icon/">
<path id="Union" fill-rule="evenodd" clip-rule="evenodd" d="M2.5 7.43889C2.5 4.71122 4.71122 2.5 7.43889 2.5C10.1666 2.5 12.3778 4.71122 12.3778 7.43889C12.3778 8.76806 11.8527 9.9746 10.9987 10.8624C10.9735 10.8819 10.9493 10.9031 10.9262 10.9262C10.9031 10.9493 10.8819 10.9735 10.8624 10.9987C9.9746 11.8527 8.76806 12.3778 7.43889 12.3778C4.71122 12.3778 2.5 10.1666 2.5 7.43889ZM11.4307 12.4914C10.3335 13.3595 8.94669 13.8778 7.43889 13.8778C3.88279 13.8778 1 10.995 1 7.43889C1 3.88279 3.88279 1 7.43889 1C10.995 1 13.8778 3.88279 13.8778 7.43889C13.8778 8.94669 13.3595 10.3335 12.4914 11.4307L15.0802 14.0195C15.3731 14.3124 15.3731 14.7873 15.0802 15.0802C14.7873 15.3731 14.3124 15.3731 14.0195 15.0802L11.4307 12.4914Z" fill="white"/>
</g>
</g>
</svg>
