<svg width="125" height="125" viewBox="0 0 125 125" fill="none" xmlns="http://www.w3.org/2000/svg">
<path d="M39.66 112.53C49.4686 112.53 57.42 107.94 57.42 102.277C57.42 96.6152 49.4686 92.025 39.66 92.025C29.8514 92.025 21.9 96.6152 21.9 102.277C21.9 107.94 29.8514 112.53 39.66 112.53Z" fill="#599F79"/>
<path d="M80.7085 97.4857C93.0236 90.8436 100.327 80.491 97.0222 74.3626C93.7168 68.2343 81.054 68.6507 68.7388 75.2928C56.4237 81.9349 49.1198 92.2874 52.4252 98.4158C55.7305 104.544 68.3934 104.128 80.7085 97.4857Z" fill="#599F79"/>
<path d="M92.9625 82.9275C95.425 79.9925 99.2825 78.08 103.62 76.95C107.905 75.8375 108.672 73.2 105.832 72.3475C102.615 71.3775 98.6 73.1575 96.01 75.635C91.5 79.9525 90.9325 83.25 90.9325 83.25L92.9625 82.9275Z" fill="#1EC757"/>
<path opacity="0.15" d="M92.9625 82.9275C95.425 79.9925 99.2825 78.08 103.62 76.95C107.905 75.8375 108.672 73.2 105.832 72.3475C102.615 71.3775 98.6 73.1575 96.01 75.635C91.5 79.9525 90.9325 83.25 90.9325 83.25L92.9625 82.9275Z" fill="black"/>
<path d="M91.695 82.75C91.6769 82.7538 91.6581 82.7538 91.64 82.75C91.6252 82.7428 91.612 82.7327 91.6011 82.7204C91.5902 82.7081 91.5818 82.6938 91.5765 82.6782C91.5711 82.6626 91.5689 82.6462 91.5699 82.6297C91.571 82.6133 91.5752 82.5973 91.5825 82.5825C95.2375 75.0825 103.333 73.2375 105.293 73.3775C105.325 73.3801 105.356 73.3954 105.377 73.4202C105.399 73.445 105.41 73.4772 105.408 73.51C105.404 73.5429 105.388 73.5734 105.363 73.5948C105.338 73.6163 105.306 73.6271 105.273 73.625C103.353 73.48 95.405 75.3075 91.8075 82.6925C91.7952 82.7109 91.7784 82.7258 91.7587 82.7358C91.739 82.7459 91.7171 82.7508 91.695 82.75Z" fill="white"/>
<path d="M90.9325 83.7075C90.9327 83.8281 90.9648 83.9465 91.0256 84.0506C91.0863 84.1548 91.1736 84.2409 91.2785 84.3004C91.3835 84.3598 91.5023 84.3904 91.6228 84.389C91.7434 84.3876 91.8615 84.3543 91.965 84.2925C94.255 82.96 97.595 82.2225 103 83.7625C105.875 84.58 107.29 84.0325 107.895 82.8625C108.57 81.5625 107.145 80.305 105.52 79.7125C99.9875 77.69 94.995 79.07 90.9325 83.105V83.7075Z" fill="#1EC757"/>
<path d="M91.25 83.815C91.2323 83.8153 91.2146 83.8119 91.1983 83.805C91.1819 83.7981 91.1672 83.7879 91.155 83.775C91.1319 83.7512 91.119 83.7194 91.119 83.6862C91.119 83.6531 91.1319 83.6213 91.155 83.5975C95.9325 79.3275 103.333 80.16 106.133 81.825C106.161 81.8417 106.182 81.8689 106.19 81.9007C106.198 81.9326 106.194 81.9665 106.178 81.995C106.16 82.0236 106.133 82.0442 106.1 82.0527C106.068 82.0611 106.034 82.0565 106.005 82.04C103.255 80.4075 96.005 79.595 91.3225 83.79C91.3013 83.8052 91.2761 83.8139 91.25 83.815Z" fill="white"/>
<path d="M37.48 93.6625C35.38 90.4575 31.775 88.1025 27.6 86.47C23.48 84.86 23.0275 82.1525 25.9475 81.6375C29.2575 81.055 33.035 83.2975 35.315 86.0625C39.285 90.8825 39.4575 94.23 39.4575 94.23L37.48 93.6625Z" fill="#1EC757"/>
<path opacity="0.15" d="M37.48 93.6625C35.38 90.4575 31.775 88.1025 27.6 86.47C23.48 84.86 23.0275 82.1525 25.9475 81.6375C29.2575 81.055 33.035 83.2975 35.315 86.0625C39.285 90.8825 39.4575 94.23 39.4575 94.23L37.48 93.6625Z" fill="black"/>
<path d="M38.75 93.6425C38.7682 93.6461 38.7868 93.6461 38.805 93.6425C38.8362 93.6312 38.8618 93.6081 38.8762 93.5782C38.8907 93.5484 38.893 93.514 38.8825 93.4825C36.1325 85.605 28.3225 82.8175 26.3525 82.7325C26.3198 82.7311 26.2878 82.7427 26.2635 82.7647C26.2392 82.7866 26.2244 82.8173 26.2225 82.85C26.2218 82.8832 26.2338 82.9155 26.2561 82.9401C26.2784 82.9648 26.3094 82.98 26.3425 82.9825C28.2675 83.0625 35.9425 85.815 38.645 93.5725C38.6547 93.5924 38.6696 93.6094 38.688 93.6217C38.7065 93.634 38.7279 93.6412 38.75 93.6425Z" fill="white"/>
<path d="M39.475 94.0775C39.4554 94.2552 39.3903 94.4248 39.2861 94.57C39.1818 94.7152 39.0419 94.831 38.8799 94.9064C38.7178 94.9818 38.5391 95.0141 38.3608 95.0003C38.1826 94.9865 38.011 94.927 37.8625 94.8275C35.7425 93.4075 32.585 92.485 27.4125 93.3275C24.4625 93.8 23.1225 93.0775 22.6625 91.855C22.1475 90.485 23.7125 89.4075 25.395 89.01C31.1275 87.655 35.9225 89.615 39.48 94.0975L39.475 94.0775Z" fill="#1EC757"/>
<path d="M39.08 94.75C39.0974 94.7525 39.1152 94.7511 39.1321 94.7459C39.1489 94.7407 39.1644 94.7319 39.1775 94.72C39.2006 94.6962 39.2134 94.6644 39.2134 94.6312C39.2134 94.5981 39.2006 94.5663 39.1775 94.5425C34.9275 89.74 27.49 89.6925 24.5125 91.015C24.482 91.0286 24.4581 91.0537 24.4462 91.0849C24.4342 91.1161 24.4351 91.1507 24.4487 91.1812C24.4623 91.2117 24.4875 91.2356 24.5187 91.2476C24.5498 91.2595 24.5845 91.2586 24.615 91.245C27.5325 89.9475 34.8325 89.995 38.99 94.7075C39.0009 94.7209 39.0146 94.7316 39.0302 94.739C39.0457 94.7463 39.0628 94.7501 39.08 94.75Z" fill="white"/>
<path d="M95.205 36.5425L95.165 36.5225L85.635 31.0375L85.5775 31.01C81.125 28.76 75.185 29.4375 68.795 33.5675C55.96 41.8675 46.18 60.9725 46.95 76.24C47.3325 83.8475 50.2675 89.065 54.7 91.36L54.7375 91.38L64.27 96.8675L64.315 96.8925C68.7675 99.1425 74.7125 98.475 81.1075 94.34C93.9425 86.04 103.722 66.935 102.952 51.6675C102.575 44.055 99.64 38.8375 95.205 36.5425Z" fill="#37474F"/>
<path d="M63.9425 96.69L54.75 91.375L54.705 91.3475C50.2725 89.0475 47.34 83.83 46.955 76.2325C46.6125 69.4225 48.37 61.855 51.555 54.8275L51.6175 54.6725L61.0875 60.3125C57.8975 67.34 56.145 74.9075 56.4875 81.7175C56.85 89.165 59.6675 94.32 63.9425 96.69Z" fill="#263238"/>
<path d="M81.1125 94.335C93.9475 86.035 103.728 66.93 102.958 51.6625C102.188 36.395 91.1575 30.75 78.3225 39.05C65.4875 47.35 55.705 66.455 56.475 81.72C57.245 96.985 68.2775 102.635 81.1125 94.335Z" fill="#455A64"/>
<path d="M91.9825 35.3575L75.895 68.5L72.4325 64.75C71.4001 63.6751 69.9873 63.0479 68.4975 63.0033C67.0078 62.9586 65.5599 63.5 64.465 64.5112C63.37 65.5223 62.7153 66.9226 62.6415 68.4112C62.5676 69.8998 63.0805 71.3579 64.07 72.4725L73.1925 82.355C74.1956 83.4448 75.5858 84.0982 77.065 84.175C77.17 84.175 77.275 84.175 77.38 84.175C77.6561 84.1747 77.9318 84.1547 78.205 84.115C79.1233 83.9813 79.9949 83.6248 80.7436 83.0765C81.4923 82.5283 82.0953 81.8051 82.5 80.97L100.95 42.97C99.0575 38.75 95.9075 36.135 91.9825 35.3575Z" fill="#37474F"/>
<path d="M105.047 24.4425C104.947 24.385 104.842 24.33 104.737 24.28C103.558 23.7086 102.201 23.6283 100.962 24.0567C99.7242 24.4851 98.7065 25.3871 98.1325 26.565L77.6625 68.73L76.4975 67.48C76.1612 67.1126 75.7699 66.7997 75.3375 66.5525C74.7275 66.2025 72.1325 64.7 71.7125 64.4575C70.6888 63.8652 69.4866 63.6597 68.3243 63.8782C67.1619 64.0967 66.1165 64.7248 65.3777 65.6484C64.639 66.572 64.2559 67.7298 64.2981 68.9118C64.3402 70.0937 64.8048 71.2214 65.6075 72.09L74.73 81.97C75.072 82.3411 75.4692 82.6573 75.9075 82.9075C76.5025 83.245 79.0875 84.745 79.5125 84.99C80.1003 85.3304 80.752 85.546 81.4269 85.6233C82.1018 85.7006 82.7854 85.6379 83.435 85.4392C84.0846 85.2405 84.6862 84.91 85.2024 84.4684C85.7186 84.0268 86.1382 83.4835 86.435 82.8725L110.652 32.99C111.197 31.8657 111.296 30.5772 110.93 29.3828C110.565 28.1884 109.761 27.1765 108.68 26.55L105.047 24.4425Z" fill="#1EC757"/>
<path opacity="0.15" d="M105.047 24.4425C104.947 24.385 104.842 24.33 104.737 24.28C103.558 23.7086 102.201 23.6283 100.962 24.0567C99.7242 24.4851 98.7065 25.3871 98.1325 26.565L77.6625 68.73L76.4975 67.48C76.1612 67.1126 75.7699 66.7997 75.3375 66.5525C74.7275 66.2025 72.1325 64.7 71.7125 64.4575C70.6888 63.8652 69.4866 63.6597 68.3243 63.8782C67.1619 64.0967 66.1165 64.7248 65.3777 65.6484C64.639 66.572 64.2559 67.7298 64.2981 68.9118C64.3402 70.0937 64.8048 71.2214 65.6075 72.09L74.73 81.97C75.072 82.3411 75.4692 82.6573 75.9075 82.9075C76.5025 83.245 79.0875 84.745 79.5125 84.99C80.1003 85.3304 80.752 85.546 81.4269 85.6233C82.1018 85.7006 82.7854 85.6379 83.435 85.4392C84.0846 85.2405 84.6862 84.91 85.2024 84.4684C85.7186 84.0268 86.1382 83.4835 86.435 82.8725L110.652 32.99C111.197 31.8657 111.296 30.5772 110.93 29.3828C110.565 28.1884 109.761 27.1765 108.68 26.55L105.047 24.4425Z" fill="black"/>
<path opacity="0.15" d="M79.5 84.98C79.08 84.73 76.5 83.23 75.8975 82.8975C75.4593 82.6472 75.0621 82.331 74.72 81.96L65.5975 72.08C65.1953 71.6411 64.8759 71.1329 64.655 70.58L68.2825 72.6725C68.5024 73.227 68.8238 73.7357 69.23 74.1725L78.35 84.0525C78.6856 84.4166 79.0731 84.7292 79.5 84.98Z" fill="black"/>
<path opacity="0.15" d="M102.907 27.14C102.431 27.5677 102.042 28.0839 101.762 28.66L80.7075 72.03L77.6625 68.73L98.1325 26.565C98.4114 25.9879 98.8014 25.4714 99.28 25.045L102.907 27.14Z" fill="black"/>
<path d="M108.367 26.375C107.188 25.805 105.831 25.7254 104.593 26.1536C103.355 26.5819 102.337 27.4831 101.762 28.66L80.7075 72.03L76.5 67.47C75.5996 66.5553 74.3785 66.027 73.0954 65.9969C71.8122 65.9668 70.5677 66.4373 69.6254 67.3088C68.6831 68.1803 68.117 69.3843 68.0469 70.6659C67.9768 71.9474 68.4083 73.206 69.25 74.175L78.37 84.0575C78.916 84.6481 79.5978 85.0966 80.3564 85.364C81.115 85.6314 81.9273 85.7096 82.723 85.5918C83.5186 85.4741 84.2735 85.1639 84.9221 84.6883C85.5708 84.2127 86.0935 83.586 86.445 82.8625L110.662 32.98C111.233 31.7997 111.312 30.4411 110.882 29.2026C110.451 27.9642 109.547 26.9472 108.367 26.375Z" fill="#1EC757"/>
<path d="M39.3075 31.25C37.4 31.25 36.095 31.75 34.74 33.675C33.49 35.445 30.08 41.345 30.08 41.345C30.08 41.345 27.58 36.215 27.33 35.1925C27.08 34.17 27.095 33.715 27.33 33.27C27.6741 32.744 27.8899 32.1446 27.96 31.52C28.0575 30.29 28.3575 29.2375 28.0825 29.2025C27.32 29.16 27.29 30.14 26.89 30.7175C26.8392 30.7733 26.776 30.8162 26.7054 30.843C26.6349 30.8697 26.5591 30.8795 26.4841 30.8715C26.4091 30.8634 26.337 30.8378 26.2738 30.7967C26.2105 30.7557 26.1578 30.7002 26.12 30.635C25.9525 30.2925 26.0425 29.73 25.9625 29.325C25.9842 29.0996 26.0201 28.8758 26.07 28.655C26.3588 28.707 26.6537 28.7154 26.945 28.68C27.275 29.1975 27.5 29.415 27.96 29.205C28.02 29.11 27.7625 28.455 27.46 27.955C27.4146 27.8785 27.341 27.8229 27.255 27.8C26.7004 27.6596 26.1216 27.6433 25.56 27.7525C25.5175 27.7569 25.4764 27.7697 25.439 27.7903C25.4016 27.811 25.3688 27.8389 25.3425 27.8725C25.1314 28.1817 24.9632 28.5181 24.8425 28.8725C24.81 28.98 24.71 28.9775 24.685 28.885C24.435 27.6775 24.435 25.9625 24.435 25.16C24.435 24.5275 23.5125 24.4275 23.48 25.3325C23.4252 26.5468 23.446 27.7633 23.5425 28.975C23.5425 29.085 23.4325 29.1375 23.3875 29.0175C23.2275 28.59 22.835 27.2975 22.67 25.0675C22.625 24.4675 21.655 24.37 21.67 25.2125C21.708 26.7062 21.9024 28.1918 22.25 29.645C22.28 29.75 22.1825 29.8425 22.11 29.7225C21.6549 28.8455 21.2913 27.924 21.025 26.9725C20.8175 26.2475 19.85 26.4325 20.025 27.335C20.3275 28.9525 20.8075 30.9975 21.525 32.46C22.29 34.0225 22.95 34.805 23.33 36.0325C23.71 37.26 25.2825 44.2125 26.965 46.9225C28.2825 49.0475 29.79 48.85 31.4125 47.73C33.035 46.61 38.8325 38.5325 38.8325 38.5325L39.3075 31.25Z" fill="#FCC9C9"/>
<path d="M30.08 41.3425C30.08 41.3425 30.8925 42.72 31.0175 43.8225C31.224 42.752 31.0186 41.643 30.4425 40.7175L30.08 41.3425Z" fill="#E2E2E2"/>
<path d="M39.7125 31.25C38.7425 31.15 37.535 31.1175 36.19 31.965C34.845 32.8125 34.375 33.9925 33.7225 35.025C33.07 36.0575 30.815 39.715 30.815 39.715C30.815 39.715 31.6425 43.1875 34.9325 43.9025L39.86 37.2175L39.7125 31.25Z" fill="#455A64"/>
<path d="M44.13 92.3075C44.38 92.275 44.7125 93.1275 44.7175 93.405C44.7225 93.6825 44.4425 94.28 44.075 94.84C43.5838 95.5067 43.1766 96.2313 42.8625 96.9975C42.58 97.7675 42.32 98.2725 41.5325 99.28C40.6575 100.402 38.6025 102.28 35.4825 101.465C34.72 101.265 34.34 101.025 34.0625 100.747C33.9407 100.624 33.8558 100.47 33.8174 100.301C33.779 100.132 33.7885 99.9561 33.845 99.7925L44.13 92.3075Z" fill="#263238"/>
<path d="M38 91.3325V91.36C37.9642 91.5934 37.971 91.8314 38.02 92.0625C38.1057 92.7509 38.0447 93.4498 37.8409 94.1129C37.6371 94.7761 37.2951 95.3885 36.8375 95.91C36.4029 96.3637 35.9123 96.7602 35.3775 97.09C33.7975 98.09 33.6275 98.7725 33.85 99.7925C34.38 100.98 37.9625 101.702 40.0225 99.935C40.9114 99.245 41.5908 98.3214 41.985 97.2675C42.284 96.5125 42.6314 95.7777 43.025 95.0675C43.4225 94.3175 44.1775 93.4725 44.2 92.7C44.2125 92.275 43.7925 91.485 43.385 90.835C43.01 90.2375 42.6225 89.67 42.285 89.735L42.38 90.0725C42.0975 90.365 41.69 90.475 41.445 90.8225C41.14 91.245 41.15 91.8225 40.9625 92.2975C40.9564 92.3219 40.9449 92.3447 40.9289 92.3641C40.9129 92.3836 40.8928 92.3993 40.87 92.41C40.8436 92.4144 40.8165 92.4102 40.7926 92.3981C40.7688 92.3859 40.7494 92.3664 40.7375 92.3425C40.7171 92.2935 40.7077 92.2405 40.71 92.1875L40.6875 91.46C40.6988 91.3202 40.6617 91.1808 40.5825 91.065C40.3875 90.845 39.9075 90.87 39.64 90.86C39.2799 90.8628 38.9203 90.8845 38.5625 90.925C38.4385 90.9127 38.3142 90.9455 38.2125 91.0175C38.1103 91.0975 38.036 91.2078 38 91.3325Z" fill="#37474F"/>
<path d="M32.705 76.7975C33.5375 79.535 37.43 89.0125 37.6625 89.5825L38.4375 91.4625C38.9479 91.6303 39.4947 91.6537 40.0175 91.53C40.1 92.4375 40.2375 93.86 40.29 94.5775C40.31 95.41 40.3825 96.44 40.2025 97.2625C40.05 97.9625 39.8725 98.6975 39.74 99.4C39.6825 99.71 39.625 100.022 39.5775 100.335C39.4968 100.662 39.524 101.007 39.655 101.317C39.7347 101.453 39.84 101.572 39.965 101.668C40.5203 102.104 41.2221 102.31 41.925 102.243C42.2967 102.225 42.6563 102.105 42.965 101.897C43.57 101.465 43.7825 100.713 44.09 100.073C44.425 99.38 44.3175 99.3025 44.34 98.56C44.36 98.04 44.505 96.72 44.7125 95.34C44.92 93.96 45.815 89.11 46.245 84.2775C46.4203 82.1311 46.4203 79.9739 46.245 77.8275C49.66 68.55 51.18 63.0325 51.6275 59.9525C52.08 56.8225 51.8625 55.7025 51.805 53.905L35.1975 54.305C33.8675 62.89 31.5875 73.1275 32.705 76.7975Z" fill="#FCC9C9"/>
<path d="M32.445 69.9475C32.7875 66.7925 35.1475 54.665 35.1475 54.665H51.8775C51.8775 54.665 51.985 56.9925 51.955 58.0625C51.925 59.1325 51.58 61.085 50.9825 63.5625C50.385 66.04 48.17 73.0325 47.7325 74.0625C47.295 75.0925 46.4825 78.08 46.4825 78.08C46.8925 83.69 45.825 88.725 45.025 95.4175C45.025 95.4175 44.7925 96.32 42.4225 96.1425C40.1175 95.9675 39.6525 95.1175 39.6525 95.1175L39.5 89.345C39.5 89.345 38.25 89.73 37.5 89.555C37.5 89.555 32.5475 77.3275 32.3075 76.5925C32.0675 75.8575 32.1025 73.1025 32.445 69.9475Z" fill="#1EC757"/>
<path opacity="0.45" d="M32.445 69.9475C32.7875 66.7925 35.1475 54.665 35.1475 54.665H51.8775C51.8775 54.665 51.985 56.9925 51.955 58.0625C51.925 59.1325 51.58 61.085 50.9825 63.5625C50.385 66.04 48.17 73.0325 47.7325 74.0625C47.295 75.0925 46.4825 78.08 46.4825 78.08C46.8925 83.69 45.825 88.725 45.025 95.4175C45.025 95.4175 44.7925 96.32 42.4225 96.1425C40.1175 95.9675 39.6525 95.1175 39.6525 95.1175L39.5 89.345C39.5 89.345 38.25 89.73 37.5 89.555C37.5 89.555 32.5475 77.3275 32.3075 76.5925C32.0675 75.8575 32.1025 73.1025 32.445 69.9475Z" fill="black"/>
<path opacity="0.2" d="M39.5425 62.57C37.1725 60.435 36.645 58.735 36.645 58.735C37.8365 60.0774 39.2474 61.2076 40.8175 62.0775C40.8175 62.0775 38.5675 73.9575 38.7325 76.4C38.8975 78.8425 39.5 89.345 39.5 89.345C39.5 89.445 37.905 78.2375 37.8575 77.345C37.75 74.9825 39.5425 62.57 39.5425 62.57Z" fill="black"/>
<path d="M44.75 101.365C44.9825 101.432 44.9525 102.127 44.8475 102.387C44.5873 102.841 44.2189 103.223 43.775 103.5C43.1245 103.943 42.582 104.527 42.1875 105.207C41.5456 106.189 40.6966 107.019 39.7 107.637C38.3726 108.391 36.8082 108.61 35.325 108.25C33.755 107.805 33.61 107.42 33.6225 106.827L44.75 101.365Z" fill="#263238"/>
<path d="M39.9 97.73C39.4875 99.73 38.77 101.2 37.1075 102.435C35.7825 103.42 34.8225 103.92 33.765 104.797C33.3175 105.172 33.28 105.97 33.6225 106.83C34.3375 107.402 35.3525 107.733 36.715 107.73C38.24 107.73 38.825 107.457 39.7 106.86C40.1298 106.566 40.53 106.231 40.895 105.86C41.6275 105.125 42.145 104.217 42.665 103.635C43.185 103.052 44.3375 102.457 44.665 101.755C44.845 101.37 44.77 100.477 44.65 99.7175C44.54 99.02 44.7525 97.795 44.4175 97.7175L44.37 98.2175C44.3425 98.33 44.2725 98.3875 44.0375 98.4675C43.8263 98.5133 43.6084 98.5192 43.395 98.485C43.3192 98.4575 43.2366 98.4546 43.159 98.4766C43.0814 98.4986 43.0127 98.5443 42.9625 98.6075C42.7375 98.8725 42.6775 99.2475 42.3875 99.4675C42.3688 99.4839 42.3465 99.4959 42.3225 99.5025C42.3113 99.5087 42.2987 99.5118 42.2859 99.5114C42.2731 99.5109 42.2607 99.507 42.25 99.5C42.2422 99.4879 42.2371 99.4743 42.235 99.4601C42.2328 99.4459 42.2337 99.4314 42.2375 99.4175L42.32 98.6675C42.33 98.5928 42.33 98.5172 42.32 98.4425C42.3043 98.3728 42.2739 98.3073 42.2308 98.2504C42.1876 98.1935 42.1328 98.1465 42.07 98.1125C41.8594 97.9899 41.6332 97.8966 41.3975 97.835C41.1522 97.7684 40.901 97.7257 40.6475 97.7075C40.3987 97.6756 40.1464 97.6832 39.9 97.73Z" fill="#455A64"/>
<path d="M50.3675 31.9675C50.3675 31.9675 51.055 32.9125 51.6175 34.86C52.3022 38.0584 52.6541 41.3191 52.6675 44.59C52.6675 49.0075 52.0725 56.165 52.0725 56.165C46.945 58.735 38.675 57.215 35.035 54.7075C35.1825 53.9125 35.3075 49.7325 35.595 46.975C35.7875 42.245 35.9475 39.7675 35.98 37.6625C36.0475 33.4575 38.14 31.285 39.73 31.2525L43.745 31.315L50.3675 31.9675Z" fill="#1EC757"/>
<path d="M51.6325 54.8675C50.87 55.495 49.3825 56.7 49.1 57.3075C48.785 58.0025 48.6 59.0575 48.3875 59.4525C48.175 59.8475 48.495 60.0475 48.935 59.905C49.375 59.7625 49.6375 59.39 49.9775 58.48C50.3175 57.57 51.2625 56.8575 51.2625 56.8575L51.6325 54.8675Z" fill="#E2E2E2"/>
<path d="M48.8475 63.05C49.03 63.4025 49.455 63.405 49.8475 63.435C50.326 63.4899 50.8107 63.4352 51.265 63.275C51.8109 63.1173 52.2897 62.7844 52.6275 62.3275C53.0125 61.7725 53.1125 61.0775 53.3325 60.44C53.7925 59.1025 55.1625 58.1375 55.3875 56.72C55.48 56.135 55.48 55.445 55.6375 55.0825C55.735 54.8675 57.9875 50.99 58.7925 49.31C59.5625 47.695 60.14 46.935 59.44 44.995C58.74 43.055 56.3575 36.2275 54.67 33.855C53.715 32.51 52.1975 32.125 50.3575 31.9675C48.9575 35.6125 50.585 39.38 50.585 39.38L54.3 46.525C54.3 46.525 52.86 51.445 51.96 54.18C51.71 54.93 51.21 55.41 50.6375 56.2525C50.3875 56.6175 49.8225 57.2525 49.6225 57.65C49.3725 58.15 49.3725 58.48 49.2475 59.1875C49.0525 60.315 48.75 62.8825 48.8475 63.05Z" fill="#FCC9C9"/>
<path d="M50.17 31.9475C51.1375 31.985 52.5275 32.15 53.3575 32.57C54.1875 32.99 54.765 33.5075 55.72 35.4225C56.675 37.3375 58.0725 41.0575 58.0725 41.0575C58.0725 41.0575 57.61 43.865 53.17 44.5925L50.17 39.06C50.17 39.06 48.8325 35.6125 50.17 31.9475Z" fill="#455A64"/>
<path d="M38.635 23.0125C38.7661 23.2497 38.8798 23.4962 38.975 23.75C39.1229 24.0815 39.3119 24.3931 39.5375 24.6775C40.1125 25.34 40.92 25.825 41.6575 26.295C42.1025 26.58 42.6125 26.8475 43.1575 26.77C43.7025 26.6925 44.31 26.81 44.8725 26.86L46.84 27.0375L46.73 29.105C46.73 29.105 46.98 28.5575 47.3075 27.9025C47.5925 27.34 48.7875 24.4875 48.7925 24.475C49.385 23.0625 50.0875 21.1775 49.38 19.6925C49.2191 19.3268 48.9505 19.0189 48.61 18.81C48.6785 18.5817 48.7006 18.342 48.675 18.105C48.6356 17.7686 48.5213 17.4452 48.3405 17.1588C48.1596 16.8724 47.9168 16.6302 47.63 16.45C47.0701 16.0716 46.4389 15.8113 45.775 15.685C44.8945 15.4825 43.9935 15.3826 43.09 15.3875C42.2047 15.4145 41.3233 15.5157 40.455 15.69C39.9706 15.7795 39.4799 15.8305 38.9875 15.8425C38.7754 15.8564 38.5623 15.8463 38.3525 15.8125C38.0916 15.7345 37.8354 15.6419 37.585 15.535C37.5632 15.5259 37.5398 15.5211 37.5162 15.5211C37.4926 15.5211 37.4692 15.5259 37.4475 15.535C37.4276 15.5482 37.4109 15.5655 37.3983 15.5858C37.3858 15.6061 37.3779 15.6288 37.375 15.6525C37.31 15.9646 37.3127 16.287 37.383 16.598C37.4533 16.909 37.5895 17.2012 37.7825 17.455C37.67 17.4397 37.5605 17.4076 37.4575 17.36C37.3405 17.3059 37.2277 17.2432 37.12 17.1725C36.9365 17.0495 36.7758 16.8955 36.645 16.7175C36.6269 16.6896 36.5994 16.6692 36.5675 16.66C36.5175 16.66 36.4775 16.695 36.4475 16.735C36.3126 16.9357 36.2207 17.1621 36.1776 17.4001C36.1346 17.638 36.1414 17.8823 36.1975 18.1175C36.3077 18.5896 36.5308 19.0279 36.8475 19.395C36.693 19.6446 36.6038 19.9291 36.588 20.2222C36.5723 20.5154 36.6306 20.8078 36.7575 21.0725C36.8687 21.3073 37.0182 21.5219 37.2 21.7075C37.425 21.9375 37.7 22.125 37.9275 22.34C38.1884 22.5363 38.4258 22.7619 38.635 23.0125Z" fill="#37474F"/>
<path d="M44.6275 19.5675C44.6202 19.9408 44.6682 20.3132 44.77 20.6725C44.8886 20.9881 45.0796 21.2715 45.3275 21.5C45.608 21.7379 45.8673 21.9998 46.1025 22.2825C46.3564 22.7226 46.5053 23.2154 46.5375 23.7225C46.5389 23.8719 46.5738 24.019 46.6396 24.1531C46.7053 24.2872 46.8003 24.4049 46.9175 24.4975C47.4525 24.83 47.7725 24.1875 48.0575 23.8725C48.425 23.5325 49.5175 23.1225 50.0225 24.2775C50.545 25.4775 49.58 27.0675 48.7025 27.3125C47.19 27.735 46.86 26.705 46.86 26.705L46.57 32.105C45.7175 33.7225 43.7125 34.2375 42.395 33.98C41.2575 33.7575 40.6325 32.96 41.7025 31.805L41.76 30.16C41.76 30.16 40.395 30.3225 39.7375 30.1975C38.64 29.9925 38.0975 29.06 37.8 27.8575C37.3275 25.925 37.11 23.8925 37.6975 19.54C37.965 19.3925 39.0475 20.235 40.6975 20.3475C42.0536 20.4431 43.4106 20.1738 44.6275 19.5675Z" fill="#FCC9C9"/>
<path d="M41.75 30.155C41.75 30.155 44.225 29.74 45.1 29.31C45.6134 29.0627 46.0404 28.6663 46.325 28.1725C46.1789 28.6711 45.934 29.1353 45.605 29.5375C44.95 30.32 41.7275 30.81 41.7275 30.81L41.75 30.155Z" fill="#E2E2E2"/>
<path d="M43.0375 21.5L44.19 21.8525C44.234 21.6951 44.2155 21.5267 44.1381 21.3827C44.0607 21.2386 43.9306 21.1302 43.775 21.08C43.699 21.0577 43.6193 21.051 43.5406 21.0602C43.4619 21.0694 43.3859 21.0943 43.3171 21.1335C43.2483 21.1727 43.1881 21.2253 43.14 21.2883C43.092 21.3513 43.0571 21.4233 43.0375 21.5Z" fill="#263238"/>
<path d="M42.6375 26.96L40.94 27.535C40.9731 27.6485 41.0286 27.7541 41.1032 27.8457C41.1779 27.9373 41.2702 28.013 41.3746 28.0683C41.4791 28.1235 41.5936 28.1572 41.7113 28.1674C41.829 28.1776 41.9476 28.164 42.06 28.1275C42.2884 28.0452 42.4761 27.8776 42.5837 27.66C42.6914 27.4424 42.7107 27.1915 42.6375 26.96Z" fill="#E2E2E2"/>
<path d="M42.5 27.375C42.2784 27.3752 42.0632 27.4489 41.8881 27.5847C41.713 27.7204 41.5879 27.9105 41.5325 28.125C41.7038 28.1813 41.8887 28.1813 42.06 28.125C42.2181 28.0691 42.358 27.9711 42.4646 27.8416C42.5712 27.7121 42.6405 27.5559 42.665 27.39C42.6106 27.3801 42.5553 27.3751 42.5 27.375Z" fill="#F28F8F"/>
<path d="M37.8925 21.6825L39.065 21.53C39.0561 21.4541 39.0321 21.3807 38.9944 21.3142C38.9567 21.2478 38.906 21.1895 38.8455 21.1429C38.7849 21.0963 38.7156 21.0623 38.6416 21.0429C38.5677 21.0235 38.4907 21.0191 38.415 21.03C38.2604 21.05 38.1196 21.1292 38.0222 21.2509C37.9248 21.3726 37.8783 21.5273 37.8925 21.6825Z" fill="#263238"/>
<path d="M45.1 22.1825L48.9675 23.5C48.7508 23.5025 48.5375 23.5547 48.3442 23.6527C48.1509 23.7507 47.9827 23.8917 47.8525 24.065L45.115 23.025L45.1 22.1825Z" fill="#263238"/>
<path d="M38.47 23.6925C38.4656 23.7547 38.4737 23.8172 38.4938 23.8762C38.5139 23.9353 38.5456 23.9897 38.5871 24.0363C38.6286 24.0829 38.6789 24.1207 38.7352 24.1475C38.7916 24.1744 38.8527 24.1897 38.915 24.1925C38.977 24.1932 39.0386 24.1816 39.0962 24.1585C39.1538 24.1353 39.2062 24.1011 39.2506 24.0577C39.2949 24.0142 39.3303 23.9625 39.3546 23.9054C39.379 23.8484 39.3918 23.7871 39.3925 23.725C39.3969 23.6628 39.3888 23.6003 39.3687 23.5413C39.3486 23.4822 39.3168 23.4278 39.2754 23.3812C39.2339 23.3346 39.1835 23.2968 39.1272 23.27C39.0709 23.2431 39.0098 23.2278 38.9475 23.225C38.8854 23.2243 38.8239 23.2359 38.7663 23.259C38.7087 23.2822 38.6562 23.3164 38.6119 23.3598C38.5676 23.4033 38.5322 23.455 38.5078 23.5121C38.4835 23.5691 38.4706 23.6305 38.47 23.6925Z" fill="#263238"/>
<path d="M42.8875 23.6925C42.888 23.7832 42.9152 23.8718 42.9657 23.9471C43.0162 24.0225 43.0877 24.0814 43.1714 24.1164C43.2551 24.1514 43.3472 24.1611 43.4364 24.1441C43.5255 24.1272 43.6077 24.0844 43.6726 24.0211C43.7376 23.9578 43.7826 23.8768 43.8019 23.7882C43.8212 23.6995 43.814 23.6072 43.7812 23.5226C43.7484 23.438 43.6915 23.3649 43.6175 23.3125C43.5435 23.26 43.4557 23.2304 43.365 23.2275C43.2401 23.2262 43.1198 23.2743 43.0303 23.3615C42.9408 23.4486 42.8895 23.5676 42.8875 23.6925Z" fill="#263238"/>
<path d="M36.1875 22.4625C36.2158 22.6647 36.3027 22.8541 36.4375 23.0075C36.4839 23.0645 36.5172 23.1311 36.535 23.2025C36.625 23.575 36.7025 24.28 36.88 24.675C37.0005 24.9934 37.2183 25.2657 37.5023 25.4533C37.7864 25.6408 38.1224 25.7342 38.4625 25.72C38.6436 25.7268 38.825 25.7117 39.0025 25.675H39.0425C39.1966 25.6387 39.3448 25.5806 39.4825 25.5025L39.5075 25.485L39.545 25.4625L39.5925 25.43L39.635 25.395L39.6825 25.3575C39.6992 25.3462 39.7143 25.3327 39.7275 25.3175C39.7577 25.2902 39.7861 25.261 39.8125 25.23C39.96 25.065 40.0791 24.8766 40.165 24.6725C40.395 24.1575 40.335 23.4375 40.71 23.3525H40.755H40.805C41.305 23.3525 41.26 24.145 41.555 24.705C41.85 25.265 42.305 25.8125 43.4225 25.8275H43.565C43.6033 25.8301 43.6417 25.8301 43.68 25.8275C43.77 25.822 43.8594 25.8095 43.9475 25.79L44.03 25.77C44.057 25.764 44.0838 25.7565 44.11 25.7475L44.1625 25.7325C44.2672 25.6956 44.3677 25.6479 44.4625 25.59C44.4973 25.5698 44.5307 25.5473 44.5625 25.5225C44.6246 25.4771 44.6823 25.426 44.735 25.37C44.8775 25.2181 44.9918 25.042 45.0725 24.85C45.245 24.4625 45.29 23.7575 45.375 23.39C45.3899 23.3145 45.4187 23.2424 45.46 23.1775C45.5935 23.0311 45.6805 22.8484 45.71 22.6525C45.716 22.5521 45.6889 22.4525 45.6329 22.369C45.5769 22.2855 45.4951 22.2226 45.4 22.19L45.1275 22.155C44.2525 22.0475 43.1125 22.0025 42.43 22.1875C41.575 22.42 41.2775 22.6875 40.8 22.6875C40.3225 22.6875 40.065 22.3925 39.2525 22.1275C38.6075 21.9175 37.54 21.925 36.725 22L36.475 22.025C36.3861 22.0568 36.3099 22.1167 36.2581 22.1957C36.2062 22.2746 36.1814 22.3682 36.1875 22.4625ZM41.8175 23C41.885 22.9163 41.9704 22.8488 42.0675 22.8025C42.0808 22.7928 42.095 22.7844 42.11 22.7775H42.135C42.1725 22.7575 42.2125 22.7375 42.255 22.72L42.3675 22.675C42.4868 22.6296 42.6087 22.5912 42.7325 22.56L42.8775 22.525C43.0025 22.5 43.1275 22.48 43.2525 22.4675C43.2824 22.4651 43.3125 22.4651 43.3425 22.4675C44.165 22.4 44.68 22.595 44.8675 22.7625C45.055 22.93 44.9725 23.7 44.895 24.0875V24.115C44.895 24.115 44.895 24.135 44.895 24.145C44.895 24.1925 44.875 24.245 44.86 24.3025C44.845 24.36 44.8425 24.365 44.8325 24.3975C44.815 24.45 44.7975 24.5025 44.7775 24.5575C44.7702 24.5763 44.7618 24.5946 44.7525 24.6125C44.749 24.6236 44.7448 24.6344 44.74 24.645L44.7225 24.6825L44.7 24.7275L44.6725 24.78C44.6725 24.7975 44.65 24.815 44.6375 24.8325C44.6273 24.8517 44.6156 24.8701 44.6025 24.8875C44.4735 25.0698 44.2997 25.2158 44.0978 25.3113C43.8959 25.4068 43.6727 25.4485 43.45 25.4325C43.2262 25.4447 43.0023 25.4096 42.7929 25.3295C42.5836 25.2494 42.3935 25.126 42.235 24.9675C42.0376 24.746 41.9007 24.4774 41.8375 24.1875C41.715 23.75 41.6575 23.235 41.8175 23ZM36.9725 22.5975C37.032 22.5447 37.0995 22.5016 37.1725 22.47H37.1875L37.2775 22.435L37.3325 22.4175H37.3775H37.4075H37.42H37.465C37.5225 22.4175 37.585 22.395 37.655 22.385H37.7575H38.09C38.21 22.385 38.34 22.4025 38.47 22.42C39.0575 22.505 39.6725 22.7775 39.8325 23.02C39.9925 23.2625 39.9575 23.77 39.88 24.1925C39.8632 24.2911 39.8381 24.3881 39.805 24.4825C39.8042 24.49 39.8042 24.4975 39.805 24.505C39.805 24.505 39.805 24.5225 39.805 24.5325V24.5525L39.79 24.5875L39.76 24.6575C39.76 24.6775 39.74 24.7 39.7275 24.72C39.7279 24.7267 39.7279 24.7333 39.7275 24.74L39.7025 24.7825L39.68 24.8175C39.5466 25.014 39.3618 25.1702 39.1458 25.2689C38.9298 25.3676 38.6909 25.4052 38.455 25.3775C38.2415 25.3729 38.0316 25.3217 37.84 25.2275C37.255 24.9325 37.105 24.275 37.0375 23.9775C36.9125 23.53 36.7975 22.7625 36.9725 22.595V22.5975Z" fill="#263238"/>
<path d="M40.94 23.365L40.8525 26.58L39.06 26.06L40.7325 23.3375C40.8029 23.3308 40.8738 23.3402 40.94 23.365Z" fill="#E2E2E2"/>
<path d="M89.905 23.33L88.5025 23.7525L87.49 20.37L88.8875 19.95L89.905 23.33Z" fill="#599F79"/>
<path d="M94.2825 20.3275C94.2942 20.4647 94.262 20.6021 94.1905 20.7198C94.1191 20.8375 94.0121 20.9295 93.885 20.9825C93.976 21.0859 94.0434 21.2079 94.0825 21.34C94.1625 21.59 93.95 21.9525 93.5275 22.09L90.32 23.055L89.3775 19.9125C89.3775 19.9125 89.92 18.525 89.9475 18.315C89.975 18.105 89.655 17.335 89.61 17.19C89.565 17.045 90.085 16.855 90.495 17.02C90.5903 17.0624 90.6756 17.1246 90.745 17.2025C90.8925 17.3596 91.0163 17.5373 91.1125 17.73C91.2486 18.0047 91.3155 18.3085 91.3075 18.615L93.25 18.0225C93.3841 17.974 93.5309 17.974 93.665 18.0225C93.7528 18.0572 93.8301 18.114 93.8894 18.1873C93.9488 18.2607 93.9882 18.3481 94.0038 18.4412C94.0194 18.5343 94.0107 18.6298 93.9785 18.7185C93.9463 18.8072 93.8917 18.8861 93.82 18.9475C93.9356 18.9391 94.0507 18.9698 94.1468 19.0346C94.2429 19.0994 94.3145 19.1947 94.35 19.305C94.3796 19.4333 94.364 19.5679 94.3056 19.6859C94.2473 19.8039 94.1499 19.8981 94.03 19.9525C94.1597 20.04 94.2502 20.1745 94.2825 20.3275Z" fill="#599F79"/>
<path d="M110 58.4025L108.202 57.97L109.25 53.635L111.047 54.0675L110 58.4025Z" fill="#599F79"/>
<path d="M116.692 57.915C116.618 58.072 116.495 58.2014 116.343 58.2845C116.19 58.3676 116.015 58.4001 115.842 58.3775C115.875 58.5481 115.871 58.7237 115.83 58.8925C115.75 59.23 115.292 59.4775 114.752 59.345L110.637 58.345L111.607 54.3175C111.607 54.3175 113.085 53.15 113.247 52.9375C113.41 52.725 113.55 51.6875 113.595 51.495C113.64 51.3025 114.327 51.4325 114.67 51.875C114.753 51.9825 114.811 52.1072 114.84 52.24C114.901 52.5046 114.923 52.7766 114.905 53.0475C114.878 53.4345 114.758 53.8093 114.555 54.14L117.04 54.74C117.216 54.7774 117.374 54.8756 117.485 55.0175C117.547 55.0985 117.59 55.1916 117.613 55.2907C117.636 55.3899 117.637 55.4927 117.617 55.5925C117.584 55.7239 117.515 55.8434 117.417 55.9375C117.32 56.0316 117.198 56.0965 117.065 56.125C117.196 56.1894 117.303 56.2962 117.366 56.4281C117.429 56.5601 117.447 56.7096 117.415 56.8525C117.364 57.0105 117.261 57.1464 117.122 57.2374C116.983 57.3284 116.818 57.369 116.652 57.3525C116.738 57.5277 116.753 57.7294 116.692 57.915Z" fill="#599F79"/>
<path d="M19.205 55.81L21.1675 56.4L22.5875 51.665L20.6275 51.075L19.205 55.81Z" fill="#599F79"/>
<path d="M13.0725 51.6025C13.0561 51.7948 13.1013 51.9873 13.2015 52.1522C13.3017 52.3171 13.4518 52.4459 13.63 52.52C13.504 52.6653 13.4103 52.8358 13.355 53.02C13.2425 53.3875 13.5425 53.88 14.13 54.055L18.63 55.4075L19.945 51C19.945 51 19.1825 49.055 19.145 48.75C19.1075 48.445 19.5575 47.38 19.6175 47.175C19.6675 47.01 18.9525 46.7075 18.3675 46.94C18.2284 46.9945 18.1036 47.08 18.0025 47.19C17.7948 47.4132 17.6212 47.666 17.4875 47.94C17.2959 48.3282 17.2016 48.7572 17.2125 49.19L14.5125 48.375C14.3221 48.3124 14.1156 48.3195 13.93 48.395C13.8069 48.4434 13.6986 48.5229 13.6154 48.6257C13.5322 48.7285 13.4771 48.8511 13.4555 48.9816C13.4338 49.112 13.4463 49.2458 13.4918 49.37C13.5373 49.4942 13.6142 49.6044 13.715 49.69C13.5518 49.676 13.3887 49.7179 13.2525 49.8087C13.1162 49.8996 13.0148 50.034 12.965 50.19C12.9234 50.37 12.9453 50.5589 13.0268 50.7246C13.1083 50.8904 13.2446 51.023 13.4125 51.1C13.2412 51.22 13.1202 51.3989 13.0725 51.6025Z" fill="#599F79"/>
</svg>
