<svg xmlns="http://www.w3.org/2000/svg" width="160" height="107" viewBox="0 0 160 107" fill="none">
<g id="failed">
<g id="freepik--Character--inject-16">
<path id="Vector" d="M134.768 32.7577C136.384 30.8131 138.001 28.8495 139.262 26.6571C140.523 24.4646 141.411 22.0148 141.476 19.4888C141.476 19.1051 141.321 16.448 140.95 16.3407C140.688 16.2645 140.506 18.6118 140.291 18.781C138.228 20.392 136.888 22.7822 136.117 25.2796C135.391 27.7147 134.938 30.2228 134.768 32.7577Z" fill="#263238"/>
<path id="Vector_2" d="M113.707 47.5375C114.352 45.8694 117.528 37.5286 117.512 37.5286C117.495 37.5286 112.041 34.688 113.93 28.9019C114.837 26.1066 117.175 20.504 119.348 15.4566C120.476 12.8416 122.549 10.7461 125.155 9.58699C127.761 8.42788 130.708 8.2901 133.411 9.20105L133.968 9.38931C139.857 11.7724 141.132 18.0804 138.584 23.8879L126.882 50.9358L116.628 47.7735L113.707 47.5375Z" fill="#FFBF9D"/>
<path id="Vector_3" d="M117.514 37.5334C117.514 37.5334 121.079 38.9633 125.779 37.848C125.779 37.848 122.527 41.5155 116.943 39.0562L117.514 37.5334Z" fill="#FF9A6C"/>
<path id="Vector_4" d="M119.339 21.0259C119.264 21.2396 119.276 21.474 119.372 21.6791C119.468 21.8842 119.64 22.044 119.852 22.1245C119.954 22.168 120.064 22.1907 120.175 22.1913C120.286 22.1919 120.396 22.1704 120.498 22.128C120.601 22.0856 120.694 22.0232 120.772 21.9444C120.85 21.8656 120.912 21.7721 120.953 21.6693C121.028 21.4555 121.016 21.2209 120.92 21.0156C120.824 20.8104 120.652 20.6507 120.439 20.5707C120.337 20.5268 120.228 20.5039 120.116 20.5031C120.005 20.5023 119.895 20.5238 119.793 20.5662C119.69 20.6087 119.597 20.6712 119.519 20.7501C119.441 20.8291 119.38 20.9228 119.339 21.0259Z" fill="#263238"/>
<path id="Vector_5" d="M119.764 18.2686C119.83 18.4116 120.611 18.159 121.497 18.4617C122.383 18.7643 122.885 19.4149 123.016 19.3482C123.081 19.3172 123.042 19.0884 122.827 18.7858C122.534 18.391 122.125 18.0971 121.657 17.9445C121.194 17.7849 120.692 17.7782 120.224 17.9255C119.881 18.0422 119.73 18.2043 119.764 18.2686Z" fill="#263238"/>
<path id="Vector_6" d="M127.121 24.1501C127.046 24.3635 127.058 24.5978 127.154 24.8027C127.25 25.0076 127.422 25.1668 127.635 25.2463C127.737 25.2901 127.846 25.3131 127.958 25.3139C128.069 25.3147 128.179 25.2932 128.281 25.2508C128.384 25.2083 128.477 25.1458 128.555 25.0668C128.633 24.9879 128.694 24.8941 128.736 24.7911C128.81 24.5773 128.798 24.343 128.702 24.1379C128.606 23.9327 128.434 23.773 128.222 23.6925C128.12 23.6491 128.01 23.6265 127.899 23.626C127.788 23.6256 127.678 23.6473 127.575 23.6899C127.472 23.7326 127.38 23.7952 127.302 23.8743C127.224 23.9533 127.162 24.0471 127.121 24.1501Z" fill="#263238"/>
<path id="Vector_7" d="M128.334 21.5549C128.399 21.6979 129.182 21.4477 130.068 21.7479C130.954 22.0482 131.453 22.7012 131.587 22.6368C131.649 22.6035 131.613 22.3747 131.398 22.0744C131.104 21.6791 130.694 21.3844 130.226 21.2308C129.763 21.0707 129.26 21.064 128.793 21.2117C128.458 21.3285 128.301 21.4906 128.334 21.5549Z" fill="#263238"/>
<path id="Vector_8" d="M122.849 27.2862C122.87 27.2385 122.35 26.9573 121.495 26.5427C121.278 26.4426 121.077 26.3258 121.091 26.1566C121.106 25.9874 121.27 25.7634 121.469 25.5394L122.722 24.0428C124.482 21.8981 125.839 20.1179 125.75 20.0464C125.662 19.9749 124.167 21.6526 122.407 23.7902C121.98 24.3193 121.569 24.8221 121.18 25.3059C121.008 25.5442 120.762 25.7825 120.762 26.1542C120.768 26.2448 120.795 26.3327 120.84 26.4115C120.885 26.4903 120.947 26.558 121.022 26.6094C121.137 26.6852 121.26 26.7468 121.39 26.7929C122.269 27.1432 122.827 27.3362 122.849 27.2862Z" fill="#263238"/>
<path id="Vector_9" d="M125.254 28.778C125.11 28.7232 124.776 29.6836 123.73 30.0863C122.684 30.489 121.684 30.041 121.631 30.1721C121.598 30.2269 121.798 30.4342 122.226 30.5939C122.788 30.7908 123.401 30.7849 123.959 30.5772C124.494 30.3757 124.93 29.975 125.175 29.4596C125.347 29.0735 125.321 28.7947 125.254 28.778Z" fill="#263238"/>
<path id="Vector_10" d="M129.598 17.9803C129.598 18.2496 130.529 18.4355 131.527 18.9097C132.525 19.3839 133.273 19.9535 133.483 19.7843C133.578 19.7009 133.509 19.4244 133.244 19.0694C132.889 18.6304 132.437 18.2784 131.924 18.0401C131.411 17.8017 130.851 17.6835 130.285 17.6943C129.856 17.7277 129.6 17.854 129.598 17.9803Z" fill="#263238"/>
<path id="Vector_11" d="M121.127 15.4495C121.216 15.7045 121.896 15.6878 122.634 15.9261C123.372 16.1644 123.947 16.5195 124.16 16.3574C124.258 16.2764 124.229 16.0429 124.021 15.7593C123.733 15.4082 123.347 15.1504 122.911 15.0185C122.476 14.8866 122.011 14.8865 121.576 15.0181C121.247 15.1492 121.091 15.3279 121.127 15.4495Z" fill="#263238"/>
<path id="Vector_12" d="M136.659 28.0011C136.774 28.0011 141.022 28.1655 139.565 32.0523C138.109 35.9391 134.486 33.6847 134.522 33.5704C134.558 33.456 136.659 28.0011 136.659 28.0011Z" fill="#FFBF9D"/>
<path id="Vector_13" d="M136.267 32.548C136.289 32.548 136.318 32.6219 136.413 32.7172C136.548 32.8473 136.729 32.9191 136.917 32.9174C137.395 32.9174 137.977 32.3955 138.259 31.6996C138.395 31.3692 138.454 31.0124 138.433 30.6559C138.444 30.5198 138.42 30.3834 138.364 30.2587C138.309 30.134 138.224 30.0248 138.116 29.9409C138.045 29.889 137.958 29.864 137.87 29.8706C137.783 29.8771 137.7 29.9148 137.638 29.9767C137.545 30.0672 137.54 30.153 137.519 30.153C137.497 30.153 137.459 30.0553 137.55 29.9147C137.607 29.8277 137.691 29.7616 137.789 29.7265C137.926 29.6858 138.075 29.7003 138.202 29.767C138.349 29.8596 138.47 29.988 138.553 30.1402C138.637 30.2924 138.68 30.4633 138.679 30.6368C138.718 31.0365 138.659 31.4396 138.507 31.8117C138.187 32.5862 137.512 33.1724 136.886 33.1247C136.77 33.1155 136.657 33.0805 136.556 33.0224C136.454 32.9643 136.367 32.8845 136.301 32.7887C136.239 32.6481 136.251 32.5504 136.267 32.548Z" fill="#FF9A6C"/>
<path id="Vector_14" d="M124.332 9.99223C123.835 9.406 126.507 8.08577 128.325 7.98569C131.071 7.82364 134.894 8.53856 136.814 9.97555C139.131 11.7033 140.79 13.8194 141.187 16.6768C141.583 19.5341 141.017 22.47 139.907 25.1343C139.568 25.9469 139.152 26.7691 138.445 27.2957C137.574 27.9463 136.322 28.0869 135.912 29.2904C135.844 29.5102 135.733 29.7143 135.585 29.891C135.438 30.0677 135.256 30.2135 135.052 30.3198C134.049 30.7965 133.452 29.7598 133.325 28.89C133.056 27.0407 133.657 25.1891 134.252 23.4089C134.675 22.1507 135.112 20.8662 135.924 19.8105C136.363 19.2362 136.903 18.7429 137.311 18.1423C137.719 17.5418 137.984 16.7911 137.789 16.0977C137.739 15.9447 137.674 15.7971 137.595 15.6568C137.234 14.9768 136.699 14.4048 136.043 13.9994C135.388 13.5941 134.636 13.3699 133.865 13.35C131.374 13.2856 127.179 13.0068 126.498 11.8915C125.502 10.2854 125.433 9.46081 125.433 9.46081L124.332 9.99223Z" fill="#263238"/>
<path id="Vector_15" d="M137.313 7.59724C137.564 7.72354 143.432 11.3411 143.393 16.6172C143.355 21.8933 142.388 23.1849 142.388 23.1849C142.585 23.4268 142.746 23.6957 142.866 23.9833C143.023 24.3836 142.123 25.742 141.352 25.2892C136.084 20.411 128.824 17.6085 120.542 15.042L114.295 12.809C112.466 12.411 112.01 11.7319 112.903 11.5484C113.588 11.4054 119.262 11.1194 119.262 11.1194L120.487 10.7429L124.308 8.04764C124.308 8.04764 124.16 7.43757 124.936 7.23978C125.712 7.04198 132.38 5.09501 137.313 7.59724Z" fill="#FF725E"/>
<path id="Vector_16" d="M120.482 10.7524C120.482 10.7524 120.566 10.7858 120.721 10.8382L121.438 11.0622C122.054 11.2457 122.93 11.5555 124.01 11.9511C126.802 13.0237 129.496 14.3378 132.06 15.8784C134.622 17.4254 137.094 19.117 139.463 20.9448C140.38 21.6383 141.108 22.215 141.612 22.613L142.197 23.0682C142.331 23.1706 142.405 23.2207 142.405 23.2207C142.405 23.2207 142.34 23.1587 142.209 23.0491L141.638 22.5725C141.139 22.1674 140.416 21.5811 139.506 20.8805C137.145 19.0311 134.673 17.328 132.103 15.7807C129.531 14.2344 126.823 12.927 124.012 11.8749C122.855 11.442 121.677 11.0674 120.482 10.7524Z" fill="#263238"/>
<g id="Group" opacity="0.3">
<path id="Vector_17" d="M142.171 12.392C142.171 12.392 135.694 8.93176 132.117 9.35119L132.537 9.29399L129.194 9.57043C128.628 9.61809 127.981 9.63477 127.594 9.2225C127.594 9.2225 129.621 8.36459 132.824 8.38128C136.026 8.39796 140.726 9.5323 142.171 12.392Z" fill="black"/>
</g>
<path id="Vector_18" d="M142.257 12.4492C142.113 12.2335 141.953 12.0287 141.779 11.8367C141.313 11.3052 140.785 10.8301 140.208 10.4212C139.353 9.81003 138.412 9.32822 137.416 8.99134C136.202 8.54525 134.906 8.36561 133.617 8.46468C132.955 8.53127 132.297 8.63951 131.649 8.78878C131.023 8.92938 130.414 9.02709 129.839 9.1939C129.311 9.36859 128.769 9.49775 128.22 9.57996C127.739 9.62742 127.253 9.56298 126.801 9.3917C125.108 8.83644 124.193 8.13344 124.308 8.05479C124.314 8.12326 124.346 8.18698 124.396 8.23352C124.534 8.36765 124.688 8.48377 124.855 8.57907C125.463 8.94211 126.108 9.23854 126.78 9.46319C127.242 9.6414 127.738 9.71151 128.232 9.66813C128.787 9.59061 129.336 9.46543 129.87 9.29399C130.433 9.13909 131.05 9.03424 131.675 8.89364C132.32 8.75046 132.972 8.64542 133.629 8.57907C134.903 8.48337 136.183 8.65798 137.385 9.09143C138.374 9.42146 139.31 9.89092 140.165 10.4855C140.742 10.8862 141.273 11.3489 141.748 11.8653C141.918 12.0488 142.044 12.1966 142.125 12.299C142.207 12.4015 142.257 12.4492 142.257 12.4492Z" fill="#263238"/>
<g id="Group_2" opacity="0.3">
<path id="Vector_19" d="M143.317 18.7977C142.09 18.3663 141.268 17.7301 140.139 17.0437C138.944 16.3145 137.724 15.6473 136.556 14.8608C135.67 14.2651 134.598 13.6359 134.204 12.7161C134.073 12.9392 134.003 13.1923 133.999 13.4508C133.995 13.7093 134.059 13.9643 134.183 14.1912C134.433 14.6678 135.496 15.5186 135.95 15.826C138.531 17.5776 140.325 18.7739 143.21 19.9916C143.271 19.5972 143.306 19.1991 143.315 18.8001" fill="black"/>
</g>
<path id="Vector_20" d="M143.379 16.0333C144.043 16.6362 144.442 17.0271 144.236 17.7015C144.067 18.2591 143.723 18.893 143.145 18.8048C142.974 18.7652 142.812 18.6941 142.667 18.5951L134.758 13.9743C134.472 13.8492 134.24 13.6261 134.104 13.3452C133.946 12.8972 134.343 12.4063 134.799 12.2824C135.255 12.1584 135.742 12.2824 136.196 12.4396C138.77 13.2713 141.118 14.5487 143.379 16.0309" fill="#FF725E"/>
<path id="Vector_21" d="M134.19 13.5168C134.117 13.379 134.082 13.2244 134.09 13.0688C134.107 12.8588 134.184 12.658 134.311 12.4895C134.437 12.3209 134.609 12.1913 134.806 12.1155C135.312 11.944 135.983 12.0584 136.642 12.3253C137.302 12.5922 138.044 12.8948 138.792 13.2404C140.09 13.815 141.334 14.504 142.51 15.2993C142.959 15.6067 143.305 15.8784 143.546 16.0667L143.819 16.2883C143.849 16.3156 143.883 16.3396 143.919 16.3598C143.919 16.3598 143.893 16.3264 143.833 16.2716L143.573 16.0333C143.334 15.8355 143.002 15.5567 142.555 15.235C141.387 14.4173 140.142 13.7157 138.837 13.1403C138.078 12.7923 137.344 12.4921 136.671 12.2276C135.998 11.963 135.307 11.8486 134.761 12.0417C134.553 12.1242 134.374 12.2644 134.245 12.4457C134.115 12.627 134.041 12.8416 134.03 13.064C134.027 13.1834 134.052 13.3019 134.104 13.4096C134.126 13.45 134.155 13.4863 134.19 13.5168Z" fill="#263238"/>
<path id="Vector_22" d="M123.109 8.90317L128.485 10.6214L127.518 11.9678L121.755 9.8564L123.109 8.90317Z" fill="white"/>
<path id="Vector_23" d="M129.557 16.3979C129.569 16.3693 127.307 15.2064 124.501 13.8194C121.696 12.4325 119.403 11.3101 119.403 11.3387C119.403 11.3673 121.653 12.5302 124.459 13.9172C127.264 15.3041 129.543 16.4241 129.557 16.3979Z" fill="#263238"/>
<path id="Vector_24" d="M130.911 45.3094L130.983 41.7872L118.904 46.265C118.904 46.265 116.671 39.0276 116.671 38.6868L113.994 40.355L109.545 38.4485L105.096 36.2561L96.0979 51.9844L86.6579 79.7567L108.896 94.5604L125.387 76.9256L135.417 61.6739L140.929 52.0177L130.911 45.3094Z" fill="#FF725E"/>
<path id="Vector_25" d="M117.829 46.2126C117.815 46.0956 117.809 45.9777 117.813 45.8599C117.813 45.6216 117.813 45.2832 117.798 44.8733L117.853 44.9066C116.526 45.5536 115.3 46.391 114.216 47.3922L114.121 47.4827V47.3517C114.121 47.1944 114.102 47.0276 114.092 46.8584C113.994 45.1306 113.913 43.5673 113.853 42.433C113.829 41.8801 113.81 41.4273 113.796 41.0913C113.796 40.9452 113.796 40.8236 113.796 40.7267C113.78 40.7238 113.766 40.715 113.756 40.7022C113.747 40.6894 113.742 40.6735 113.744 40.6575C113.745 40.6416 113.752 40.6267 113.764 40.6159C113.776 40.6051 113.792 40.5992 113.808 40.5992C113.824 40.5992 113.839 40.6051 113.851 40.6159C113.863 40.6267 113.87 40.6416 113.872 40.6575C113.873 40.6735 113.869 40.6894 113.859 40.7022C113.85 40.715 113.835 40.7238 113.82 40.7267C113.82 40.822 113.839 40.9436 113.853 41.089C113.877 41.425 113.908 41.8777 113.946 42.4282C114.023 43.5602 114.116 45.1235 114.214 46.8512C114.214 47.0204 114.233 47.1872 114.24 47.3445L114.137 47.3016C115.23 46.2934 116.474 45.462 117.824 44.8375L117.882 44.8137V44.8733C117.882 45.2832 117.865 45.6144 117.86 45.8599C117.859 45.978 117.848 46.0959 117.829 46.2126Z" fill="#263238"/>
<path id="Vector_26" d="M129.798 45.4786C129.755 45.5085 129.709 45.5333 129.66 45.5525L129.256 45.7455L127.761 46.4294L122.804 48.6409L120.449 49.6799L120.349 49.7228L120.368 49.6156C120.562 48.4983 120.653 47.3656 120.64 46.2316L120.695 46.265L119.58 46.806L119.281 46.9442C119.214 46.9751 119.179 46.9894 119.176 46.9847C119.205 46.9609 119.237 46.9409 119.272 46.9251L119.561 46.7678L120.661 46.1959L120.714 46.1673V46.2316C120.748 47.375 120.668 48.5189 120.475 49.6466L120.394 49.5822L122.746 48.5384L127.718 46.3579L129.232 45.7097L129.645 45.5405C129.694 45.5137 129.745 45.4929 129.798 45.4786Z" fill="#263238"/>
<path id="Vector_27" d="M108.681 27.8534H17.7194C15.7978 27.8534 14.24 29.4079 14.24 31.3255V94.1767C14.24 96.0943 15.7978 97.6488 17.7194 97.6488H108.681C110.602 97.6488 112.16 96.0943 112.16 94.1767V31.3255C112.16 29.4079 110.602 27.8534 108.681 27.8534Z" fill="#455A64"/>
<path id="Vector_28" d="M10.4119 93.14H116.501V95.006C116.501 96.131 116.054 97.2099 115.256 98.0054C114.459 98.8009 113.378 99.2479 112.251 99.2479H14.6627C13.5353 99.2479 12.4541 98.8009 11.657 98.0054C10.8598 97.2099 10.4119 96.131 10.4119 95.006V93.14Z" fill="#455A64"/>
<path id="Vector_29" d="M109.259 30.6273H16.8693V89.5678H109.259V30.6273Z" fill="#263238"/>
<path id="Vector_30" d="M53.5475 92.4871L54.8633 94.7439H73.3875L74.6101 92.4871H53.5475Z" fill="#263238"/>
<path id="Vector_31" d="M106.763 32.6219H19.551C19.1198 32.6219 18.7702 32.9708 18.7702 33.4012V88.5979C18.7702 89.0283 19.1198 89.3772 19.551 89.3772H106.763C107.194 89.3772 107.544 89.0283 107.544 88.5979V33.4012C107.544 32.9708 107.194 32.6219 106.763 32.6219Z" fill="#EBEBEB"/>
<path id="Vector_32" d="M107.451 89.4606H18.677L18.7702 36.8638H107.451V89.4606Z" fill="#FAFAFA"/>
<path id="Vector_33" d="M26.2304 34.8143C26.2234 34.9568 26.1747 35.0941 26.0903 35.2093C26.0058 35.3244 25.8894 35.4123 25.7554 35.462C25.6214 35.5118 25.4758 35.5212 25.3364 35.4892C25.1971 35.4571 25.0703 35.385 24.9717 35.2817C24.873 35.1785 24.8069 35.0486 24.7815 34.9082C24.7561 34.7678 24.7725 34.6231 24.8287 34.4919C24.8849 34.3607 24.9784 34.2489 25.0977 34.1702C25.217 34.0915 25.3567 34.0495 25.4997 34.0494C25.6982 34.0544 25.8866 34.1377 26.0235 34.2811C26.1605 34.4245 26.2349 34.6163 26.2304 34.8143Z" fill="#263238"/>
<path id="Vector_34" d="M21.7982 34.8143C21.7912 34.9568 21.7425 35.0941 21.658 35.2093C21.5736 35.3244 21.4572 35.4123 21.3232 35.462C21.1892 35.5118 21.0435 35.5212 20.9042 35.4892C20.7649 35.4571 20.6381 35.385 20.5394 35.2817C20.4408 35.1785 20.3747 35.0486 20.3492 34.9082C20.3238 34.7678 20.3402 34.6231 20.3964 34.4919C20.4527 34.3607 20.5462 34.2489 20.6655 34.1702C20.7847 34.0915 20.9245 34.0495 21.0675 34.0494C21.2659 34.0544 21.4543 34.1377 21.5913 34.2811C21.7283 34.4245 21.8027 34.6163 21.7982 34.8143Z" fill="#263238"/>
<path id="Vector_35" d="M24.0764 34.8143C24.0694 34.9568 24.0207 35.0941 23.9362 35.2093C23.8518 35.3244 23.7354 35.4123 23.6014 35.462C23.4674 35.5118 23.3217 35.5212 23.1824 35.4892C23.0431 35.4571 22.9163 35.385 22.8176 35.2817C22.719 35.1785 22.6529 35.0486 22.6274 34.9082C22.602 34.7678 22.6184 34.6231 22.6746 34.4919C22.7309 34.3607 22.8244 34.2489 22.9437 34.1702C23.0629 34.0915 23.2027 34.0495 23.3457 34.0494C23.5441 34.0544 23.7325 34.1377 23.8695 34.2811C24.0065 34.4245 24.0809 34.6163 24.0764 34.8143Z" fill="#263238"/>
<path id="Vector_36" d="M111.319 92.4871C111.319 92.5252 89.5881 92.5538 62.7821 92.5538C35.9761 92.5538 14.24 92.5252 14.24 92.4871C14.24 92.449 35.9713 92.418 62.7821 92.418C89.5928 92.418 111.319 92.449 111.319 92.4871Z" fill="#263238"/>
<path id="Vector_37" d="M53.6215 46.9465C55.0649 46.0771 56.6181 45.4039 58.24 44.9448L59.1952 40.3812L66.9182 40.2453L68.031 44.7732C69.6676 45.1765 71.2432 45.7951 72.7164 46.6129L76.6209 44.0606L82.1779 49.4154L79.7612 53.4023C80.6329 54.8433 81.3075 56.3941 81.7672 58.0135L86.3379 58.9668L86.474 66.6736L81.9367 67.7841C81.5317 69.4129 80.9109 70.9804 80.0907 72.4454L82.6507 76.3418L77.2848 81.8872L73.2943 79.4731C71.8504 80.343 70.2963 81.0162 68.6734 81.4749L67.7182 86.0385L59.9928 86.1719L58.8824 81.6441C57.25 81.245 55.6783 80.6303 54.209 79.8163L50.3045 82.3709L44.7475 77.0162L47.1666 73.0341C46.2941 71.5932 45.6187 70.0424 45.1582 68.4228L40.5875 67.4696L40.4513 59.7627L44.9887 58.6522C45.3924 57.0189 46.0123 55.4465 46.8322 53.9766L44.2746 50.0803L49.6406 44.5349L53.6215 46.9465ZM57.7385 57.2152C56.6002 58.3918 55.8372 59.8789 55.5458 61.4882C55.2544 63.0976 55.4477 64.7571 56.1014 66.2568C56.755 67.7565 57.8397 69.0292 59.2181 69.9138C60.5965 70.7984 62.2069 71.2552 63.8455 71.2266C65.4841 71.1979 67.0774 70.685 68.4239 69.7528C69.7704 68.8205 70.8097 67.5107 71.4103 65.9891C72.0109 64.4674 72.1459 62.8022 71.7982 61.204C71.4504 59.6058 70.6356 58.1464 69.4567 57.0103C68.6734 56.2563 67.7489 55.6637 66.736 55.2662C65.7232 54.8688 64.6418 54.6744 63.5536 54.6941C62.4654 54.7138 61.3918 54.9472 60.394 55.381C59.3963 55.8148 58.4939 56.4405 57.7385 57.2224V57.2152Z" fill="#E0E0E0"/>
<path id="Vector_38" d="M84.4776 49.8944C84.5834 49.3243 84.7641 48.7707 85.0149 48.2477L84.0597 46.9609L85.7887 44.94L87.2215 45.6883C87.6993 45.3597 88.2189 45.096 88.7666 44.9043L89.0054 43.3147L91.6585 43.1074L92.1361 44.6397C92.7078 44.7451 93.2627 44.9262 93.7863 45.1783L95.0758 44.2251L97.1009 45.9528L96.351 47.3827C96.6816 47.86 96.9466 48.3794 97.1391 48.9269L98.7295 49.1652L98.9373 51.8152L97.4018 52.2918C97.297 52.8624 97.1154 53.4163 96.8621 53.9385L97.8173 55.2277L96.0884 57.2462L94.6555 56.4979C94.1772 56.8278 93.6567 57.0923 93.1081 57.2843L92.8693 58.8738L90.2161 59.0812L89.7385 57.5465C89.167 57.4419 88.612 57.2616 88.0884 57.0103L86.7964 57.9635L84.7761 56.2167L85.526 54.7869C85.1959 54.3092 84.9309 53.79 84.7379 53.2426L83.1475 53.0043L82.9397 50.3543L84.4752 49.8777L84.4776 49.8944ZM88.0764 50.6975C88.0197 51.2935 88.1519 51.8922 88.4543 52.4092C88.7567 52.9262 89.2141 53.3355 89.7619 53.5793C90.3098 53.8232 90.9205 53.8893 91.5081 53.7684C92.0956 53.6475 92.6303 53.3457 93.0368 52.9054C93.4433 52.4651 93.7011 51.9087 93.7738 51.3144C93.8465 50.7202 93.7306 50.1182 93.4422 49.5932C93.1539 49.0683 92.7078 48.6468 92.1667 48.3883C91.6256 48.1298 91.0168 48.0473 90.4263 48.1524C89.8097 48.2621 89.2461 48.5703 88.8218 49.03C88.3974 49.4896 88.1356 50.0753 88.0764 50.6975Z" fill="#E0E0E0"/>
<path id="Vector_39" d="M26.3212 76.4967C26.3405 75.812 26.4522 75.1331 26.6531 74.4782L25.2991 73.1604L26.9564 70.4961L28.7522 71.1157C29.2538 70.646 29.816 70.2453 30.4239 69.9242L30.4096 68.0296L33.4711 67.3147L34.2997 69.0186C34.9858 69.0376 35.6662 69.1491 36.3224 69.3498L37.6573 67.9986L40.3272 69.6525L39.7063 71.4445C40.177 71.9451 40.5785 72.5061 40.9003 73.1127L42.7988 73.0984L43.5152 76.1511L41.8054 76.9733C41.7841 77.6579 41.6717 78.3367 41.4711 78.9917L42.8251 80.3215L41.1678 82.9882L39.3719 82.3686C38.8708 82.8388 38.3086 83.2396 37.7003 83.5601L37.7146 85.4546L34.6555 86.1696L33.8245 84.4657C33.1403 84.4419 32.4624 84.3265 31.809 84.1225L30.4764 85.4737L27.8042 83.8199L28.4251 82.0278C27.9544 81.5273 27.5528 80.9663 27.2311 80.3596L25.3206 80.3739L24.6042 77.3212L26.3116 76.4919L26.3212 76.4967ZM30.7463 77.3546C30.8997 78.0018 31.2419 78.5892 31.7296 79.0425C32.2173 79.4958 32.8287 79.7947 33.4866 79.9014C34.1445 80.0081 34.8193 79.9179 35.4258 79.6421C36.0323 79.3663 36.5433 78.9174 36.8943 78.352C37.2452 77.7865 37.4204 77.13 37.3977 76.4653C37.3749 75.8006 37.1553 75.1575 36.7665 74.6173C36.3777 74.077 35.8372 73.6639 35.2133 73.43C34.5893 73.1962 33.9099 73.1521 33.2609 73.3033C32.8282 73.404 32.4196 73.5889 32.0587 73.8477C31.6979 74.1064 31.3918 74.4337 31.1581 74.8108C30.9244 75.188 30.7677 75.6075 30.6971 76.0453C30.6264 76.483 30.6431 76.9304 30.7463 77.3617V77.3546Z" fill="#E0E0E0"/>
<path id="Vector_40" d="M31.8161 51.0407C31.8941 50.6103 32.0307 50.1926 32.2221 49.7991L31.5057 48.8268L32.8095 47.304L33.8842 47.8688C34.2447 47.6206 34.6366 47.421 35.0495 47.2754L35.2263 46.0839L37.2275 45.9266L37.5857 47.0824C38.0164 47.1624 38.4347 47.2986 38.8298 47.4875L39.8042 46.7726L41.3278 48.0737L40.7642 49.1461C41.0131 49.5054 41.2123 49.8966 41.3564 50.3091L42.5504 50.483L42.7081 52.4801L41.5522 52.828C41.4732 53.2578 41.3375 53.6753 41.1486 54.0696L41.8651 55.0395L40.5612 56.5623L39.4866 55.9975C39.1266 56.2466 38.7346 56.4462 38.3212 56.5909L38.1469 57.7824L36.1457 57.9373L35.7851 56.7815C35.3539 56.7033 34.9353 56.567 34.5409 56.3764L33.569 57.0913L32.043 55.7901L32.6066 54.7178C32.3576 54.3584 32.1584 53.9673 32.0143 53.5548L30.8203 53.3785L30.6651 51.3815L31.8233 51.024L31.8161 51.0407ZM34.5266 52.0106C34.5603 52.4331 34.7188 52.8361 34.982 53.1688C35.2451 53.5015 35.6011 53.7489 36.0051 53.8799C36.4091 54.0108 36.8428 54.0193 37.2517 53.9044C37.6605 53.7895 38.026 53.5563 38.3021 53.2343C38.5783 52.9122 38.7526 52.5157 38.803 52.0949C38.8535 51.674 38.7779 51.2477 38.5857 50.8697C38.3936 50.4917 38.0935 50.179 37.7234 49.9711C37.3533 49.7631 36.9298 49.6693 36.5063 49.7014C36.2241 49.7228 35.949 49.7995 35.6967 49.9273C35.4444 50.055 35.2198 50.2312 35.0359 50.4457C34.8519 50.6603 34.7123 50.9089 34.6249 51.1775C34.5375 51.446 34.5041 51.7291 34.5266 52.0106Z" fill="#EBEBEB"/>
<path id="Vector_41" d="M84.5779 72.5479C84.647 72.1784 84.7642 71.8195 84.9266 71.4803L84.3033 70.6462L85.4233 69.3379L86.3475 69.8145C86.6566 69.6007 86.9932 69.4291 87.3481 69.3046L87.4985 68.2751L89.2179 68.1416L89.526 69.1353C89.8965 69.2032 90.2564 69.3202 90.5958 69.4833L91.4316 68.8613L92.7427 69.979L92.2651 70.8988C92.4794 71.2082 92.6513 71.5448 92.7761 71.8997L93.8078 72.0498L93.9415 73.7657L92.9457 74.0731C92.8777 74.4429 92.7604 74.8019 92.597 75.1407L93.2203 75.9748L92.1003 77.2807L91.1785 76.8041C90.8679 77.017 90.5307 77.1885 90.1755 77.3141L90.0251 78.3412L88.3057 78.4746L87.9976 77.4833C87.6273 77.4143 87.2677 77.2974 86.9278 77.1353L86.0919 77.7573L84.7761 76.6397L85.2537 75.7198C85.0394 75.4112 84.8675 75.0754 84.7427 74.7213L83.7134 74.5711L83.5773 72.8553L84.5731 72.5479H84.5779ZM86.9063 73.3796C86.9345 73.7443 87.0706 74.0924 87.2974 74.3798C87.5241 74.6672 87.8313 74.881 88.1799 74.9939C88.5286 75.1069 88.903 75.114 89.2557 75.0144C89.6084 74.9147 89.9234 74.7128 90.161 74.4342C90.3986 74.1557 90.5479 73.813 90.59 73.4496C90.6321 73.0862 90.5652 72.7186 90.3977 72.3932C90.2301 72.0679 89.9696 71.7995 89.649 71.6221C89.3284 71.4447 88.9623 71.3664 88.597 71.3969C88.1097 71.437 87.6582 71.6682 87.3413 72.0398C87.0244 72.4114 86.868 72.8932 86.9063 73.3796Z" fill="#EBEBEB"/>
<path id="Vector_42" d="M63.4579 75.1335H51.5821C50.884 75.1318 50.1987 74.9473 49.5945 74.5984C48.9903 74.2495 48.4885 73.7485 48.1392 73.1454C47.7899 72.5423 47.6053 71.8582 47.6039 71.1617C47.6025 70.4651 47.7844 69.7803 48.1313 69.1759L54.0728 58.9072L60.0119 48.6385C60.3622 48.0344 60.8655 47.5328 61.4714 47.1841C62.0773 46.8354 62.7644 46.6518 63.4639 46.6518C64.1633 46.6518 64.8504 46.8354 65.4563 47.1841C66.0622 47.5328 66.5655 48.0344 66.9158 48.6385L72.8573 58.9072L78.7988 69.1759C79.1458 69.7805 79.3277 70.4655 79.3262 71.1623C79.3247 71.859 79.14 72.5432 78.7904 73.1464C78.4408 73.7496 77.9386 74.2506 77.3341 74.5993C76.7296 74.948 76.0439 75.1322 75.3457 75.1335H63.4579Z" fill="#FF725E"/>
<path id="Vector_43" d="M76.2484 70.3531C76.2484 70.3531 76.2794 70.4127 76.3391 70.5366C76.441 70.7849 76.48 71.0544 76.4525 71.3213C76.425 71.5882 76.3319 71.8442 76.1815 72.0665C76.0633 72.2421 75.9115 72.3928 75.7349 72.5098C75.5296 72.6402 75.2948 72.7172 75.0519 72.7338C73.0269 72.7552 70.1039 72.7505 66.4884 72.76L53.7886 72.7743H51.9737C51.65 72.7708 51.3353 72.6671 51.0731 72.4776C50.8109 72.2881 50.6141 72.0221 50.5098 71.7162C50.3992 71.4107 50.3784 71.0799 50.4501 70.763C50.4693 70.6843 50.4955 70.6057 50.5218 70.5247C50.5481 70.4437 50.591 70.3745 50.6269 70.3031L50.8657 69.886C51.1713 69.326 51.4818 68.7636 51.7922 68.194L55.6418 61.1425L59.5152 54.0958C60.1377 52.9567 60.7506 51.839 61.354 50.7428C61.5069 50.4711 61.6478 50.1971 61.8101 49.9278C61.9715 49.6527 62.202 49.4243 62.4788 49.2653C62.7501 49.1102 63.0546 49.022 63.3669 49.0079C63.6792 48.9938 63.9904 49.0542 64.2746 49.1843C64.5566 49.3116 64.8027 49.5064 64.991 49.7514C65.1541 49.9986 65.3017 50.2557 65.4328 50.5212C65.7122 51.0311 65.9892 51.534 66.2591 52.0296C66.8036 53.021 67.3297 53.983 67.8376 54.9155C68.8573 56.7767 69.8054 58.5116 70.6698 60.094C72.3988 63.2611 73.7958 65.8253 74.763 67.6006L75.871 69.6429C75.9952 69.8812 76.0907 70.0528 76.1552 70.1768C76.2197 70.3007 76.2507 70.3602 76.2507 70.3602C76.2507 70.3602 76.2125 70.3007 76.1457 70.1815L75.8495 69.6549L74.72 67.6221C73.7457 65.8515 72.3319 63.2968 70.5934 60.1369L67.7493 54.9632L66.1636 52.0821C65.8913 51.5864 65.6167 51.0836 65.3349 50.5736C65.2035 50.3162 65.0576 50.0663 64.8979 49.8253C64.7217 49.5965 64.4921 49.4141 64.2292 49.2939C63.9617 49.1713 63.6687 49.1143 63.3746 49.1275C63.0805 49.1408 62.7939 49.224 62.5385 49.3701C62.2797 49.5212 62.0642 49.7362 61.9128 49.9945C61.7552 50.2543 61.6119 50.5331 61.4615 50.8047L59.6227 54.1577C58.3761 56.4359 57.0818 58.7928 55.7588 61.2092L51.8925 68.256C51.5797 68.8255 51.2716 69.3903 50.9636 69.948C50.7957 70.2107 50.6632 70.4943 50.5695 70.7916C50.5014 71.0885 50.5205 71.3988 50.6245 71.6852C50.7189 71.969 50.9 72.2162 51.1425 72.3918C51.3849 72.5675 51.6765 72.663 51.9761 72.6647H53.791L66.4907 72.6766L75.0519 72.6885C75.2865 72.6748 75.5139 72.6027 75.7134 72.4788C75.8874 72.3661 76.0375 72.2203 76.1552 72.0498C76.3391 71.78 76.4373 71.4611 76.437 71.1347C76.4342 70.8633 76.3697 70.5961 76.2484 70.3531Z" fill="#263238"/>
<path id="Vector_44" d="M61.5331 68.1559C61.5331 67.105 62.3737 66.3209 63.5702 66.3209C64.7666 66.3209 65.5881 67.105 65.5881 68.1559C65.5881 69.2068 64.7666 70.0266 63.5702 70.0266C62.3737 70.0266 61.5331 69.1925 61.5331 68.1559ZM61.5522 57.3916H65.5881L64.9099 65.3224H62.2137L61.5522 57.3916Z" fill="white"/>
<path id="Vector_45" d="M64.0263 47.4518C63.7819 47.3694 63.5286 47.3166 63.2716 47.2945C62.6472 47.2811 62.0376 47.485 61.5475 47.8712C61.0689 48.2694 60.6834 48.7671 60.4179 49.3296C60.2006 49.7586 60.0979 50.0445 60.0788 50.0326C60.0853 49.9622 60.1022 49.8932 60.129 49.8277C60.1886 49.6451 60.2588 49.4661 60.3391 49.2915C60.5916 48.7011 60.9822 48.1798 61.4782 47.7711C61.9891 47.3664 62.6327 47.166 63.2836 47.2087C63.4786 47.2232 63.6698 47.2699 63.8495 47.3469C63.9666 47.4017 64.031 47.4446 64.0263 47.4518Z" fill="white"/>
<path id="Vector_46" d="M59.0591 51.808C59.1082 51.6024 59.1966 51.4082 59.3194 51.2361C59.4937 50.943 59.6585 50.719 59.6896 50.7356C59.6391 50.9382 59.5499 51.1292 59.4269 51.298C59.3383 51.4901 59.2135 51.6632 59.0591 51.808Z" fill="white"/>
<g id="Group_3" opacity="0.3">
<path id="Vector_47" d="M69.4185 52.9662L50.9134 64.343L48.511 68.4991L70.7248 55.223L69.4185 52.9662Z" fill="white"/>
</g>
<g id="Group_4" opacity="0.3">
<path id="Vector_48" d="M72.3319 58.0088L47.8042 72.4454C47.9025 72.8239 48.0845 73.1757 48.3367 73.4749L72.7642 58.7571L72.3319 58.0088Z" fill="white"/>
</g>
<path id="Vector_49" d="M132.948 84.9327C132.016 83.9073 130.807 83.1715 129.467 82.8131C128.126 82.4548 126.711 82.4891 125.39 82.9119L123.104 80.4097L122.787 80.0546L104.702 60.2536C105.21 59.0783 105.396 57.7892 105.24 56.5186C105.083 55.2481 104.591 54.042 103.813 53.0243C103.035 52.0066 101.999 51.2141 100.812 50.7281C99.6255 50.2421 98.3305 50.0802 97.0603 50.259L96.1767 50.6093L99.2502 52.6659L99.0854 56.0141L96.5994 58.2662L93.2442 58.1017L91.052 55.69L90.1469 56.0451C89.8866 58.0636 91.243 60.6087 92.7212 62.2411C93.652 63.2652 94.8584 64.0005 96.1964 64.3592C97.5345 64.718 98.9477 64.685 100.267 64.2643L118.656 84.3965L119.219 85.0233L120.962 86.9298C120.417 88.1981 120.249 89.5961 120.477 90.9574C120.705 92.3187 121.32 93.5858 122.25 94.608C123.721 96.2285 125.674 97.3104 127.706 97.2556L128.614 96.9029L126.419 94.4889L126.584 91.1526L129.07 88.9006L132.413 89.0626L133.698 91.8294L134.605 91.4743C134.885 90.3317 134.881 89.1382 134.592 87.9979C134.303 86.8576 133.738 85.8053 132.948 84.9327Z" fill="#E0E0E0"/>
<g id="Group_5" opacity="0.3">
<path id="Vector_50" d="M132.948 84.9327C132.016 83.9073 130.807 83.1715 129.467 82.8131C128.126 82.4548 126.711 82.4891 125.39 82.9119L123.104 80.4097L122.787 80.0546L104.702 60.2536C105.21 59.0783 105.396 57.7892 105.24 56.5186C105.083 55.2481 104.591 54.042 103.813 53.0243C103.035 52.0066 101.999 51.2141 100.812 50.7281C99.6255 50.2421 98.3305 50.0802 97.0603 50.259L96.1767 50.6093L99.2502 52.6659L99.0854 56.0141L96.5994 58.2662L93.2442 58.1017L91.052 55.69L90.1469 56.0451C89.8866 58.0636 91.243 60.6087 92.7212 62.2411C93.652 63.2652 94.8584 64.0005 96.1964 64.3592C97.5345 64.718 98.9477 64.685 100.267 64.2643L118.656 84.3965L119.219 85.0233L120.962 86.9298C120.417 88.1981 120.249 89.5961 120.477 90.9574C120.705 92.3187 121.32 93.5858 122.25 94.608C123.721 96.2285 125.674 97.3104 127.706 97.2556L128.614 96.9029L126.419 94.4889L126.584 91.1526L129.07 88.9006L132.413 89.0626L133.698 91.8294L134.605 91.4743C134.885 90.3317 134.881 89.1382 134.592 87.9979C134.303 86.8576 133.738 85.8053 132.948 84.9327Z" fill="black"/>
</g>
<path id="Vector_51" d="M132.041 85.2854C131.109 84.2601 129.9 83.5245 128.56 83.1665C127.22 82.8086 125.805 82.8434 124.485 83.267L122.197 80.7624L121.879 80.4073L103.795 60.6063C104.303 59.4312 104.489 58.142 104.333 56.8715C104.176 55.601 103.684 54.395 102.906 53.3774C102.127 52.3598 101.092 51.5675 99.9048 51.0818C98.7179 50.5961 97.4229 50.4347 96.1528 50.6141L98.3451 53.0258L98.1827 56.3621L95.6919 58.6236L92.3487 58.4616L90.1564 56.0499C89.8533 57.2932 89.8875 58.5946 90.2555 59.8203C90.6235 61.0461 91.312 62.1519 92.2502 63.024C93.1884 63.8962 94.3424 64.5033 95.5937 64.7829C96.8449 65.0624 98.1482 65.0044 99.3695 64.6147L117.758 84.7469L118.324 85.3736L120.067 87.2801C119.561 88.4548 119.377 89.7428 119.534 91.0118C119.692 92.2809 120.184 93.4853 120.962 94.5015C121.74 95.5177 122.775 96.309 123.961 96.7942C125.146 97.2795 126.44 97.4412 127.709 97.2628L125.514 94.8463L125.676 91.51L128.165 89.258L131.508 89.4224L133.7 91.8341C133.982 90.6904 133.978 89.4951 133.688 88.3533C133.399 87.2115 132.833 86.158 132.041 85.2854Z" fill="#E0E0E0"/>
<path id="Vector_52" d="M132.041 85.2854C132.041 85.2854 132.146 85.3998 132.344 85.631C132.626 85.9829 132.876 86.3593 133.091 86.7558C133.921 88.3129 134.151 90.1196 133.736 91.8341V91.8818L133.703 91.846L131.508 89.4368L131.527 89.4487L128.184 89.289H128.208L125.724 91.5434V91.5172C125.676 92.5562 125.621 93.6882 125.564 94.8654V94.8344L127.74 97.2294L127.797 97.2914L127.713 97.3033C126.503 97.4788 125.267 97.3456 124.121 96.916C122.976 96.4864 121.958 95.7744 121.163 94.8463C120.298 93.8434 119.727 92.621 119.515 91.3146C119.29 89.945 119.461 88.5397 120.007 87.2634V87.3206L99.3051 64.6599L99.3696 64.6766C98.0612 65.0892 96.6634 65.1288 95.3337 64.791C93.4815 64.3129 91.8922 63.1268 90.9092 61.489C89.9261 59.8512 89.6283 57.8931 90.08 56.038L90.1087 55.9236L90.1875 56.0094L92.3797 58.4211L92.3367 58.402L95.6919 58.564L95.6466 58.5807L98.1493 56.3263L98.1278 56.3692C98.1827 55.2397 98.2376 54.1268 98.2925 53.021L98.3069 53.0639L96.1146 50.6522L96.0406 50.5688L96.1505 50.5545C97.4711 50.3683 98.8176 50.5476 100.043 51.0729C101.269 51.5982 102.326 52.4493 103.1 53.5334C103.84 54.5676 104.294 55.7784 104.416 57.0436C104.528 58.2632 104.335 59.4916 103.854 60.6182V60.5611L124.523 83.2384H124.494C125.478 82.9249 126.518 82.825 127.543 82.9454C128.569 83.0659 129.557 83.4038 130.441 83.9366C130.89 84.2102 131.309 84.5297 131.692 84.8899C131.931 85.1448 132.06 85.2759 132.06 85.2759L131.682 84.8994C131.296 84.5411 130.875 84.2218 130.426 83.9462C129.545 83.4216 128.561 83.0903 127.541 82.9745C126.521 82.8586 125.488 82.9607 124.511 83.2741H124.494V83.2598L103.787 60.6206L103.764 60.5944L103.778 60.5634C104.251 59.4498 104.44 58.2362 104.327 57.0317C104.208 55.7856 103.76 54.5933 103.028 53.5763C102.266 52.5097 101.225 51.6725 100.019 51.1561C98.8133 50.6396 97.4881 50.4636 96.1887 50.6475L96.2245 50.5498L98.3881 52.9853L98.4048 53.0019V53.0282C98.3522 54.1307 98.2981 55.2428 98.2424 56.3645V56.3907L98.2233 56.4074L95.7373 58.6594L95.7182 58.676H95.6919L92.3487 58.5116H92.3224L92.3057 58.4925L90.111 56.0809L90.2185 56.0547C89.9187 57.2867 89.9526 58.5762 90.3167 59.7909C90.6809 61.0056 91.3622 62.1018 92.2908 62.9672C93.2194 63.8325 94.362 64.4358 95.6013 64.7153C96.8406 64.9947 98.132 64.9403 99.3433 64.5575H99.3791L99.4078 64.5861C106.925 72.8267 113.975 80.5407 120.096 87.2562L120.119 87.2825L120.105 87.3158C119.568 88.5711 119.398 89.9527 119.616 91.3003C119.825 92.5552 120.364 93.7322 121.178 94.7114C121.992 95.6906 123.051 96.4369 124.248 96.8743C125.353 97.2731 126.538 97.3958 127.701 97.2318L127.673 97.3057L125.483 94.894L125.471 94.8797V94.8463C125.528 93.6715 125.583 92.5395 125.636 91.51V91.4933V91.4814L128.127 89.2342H128.141L131.484 89.401C132.287 90.2875 133.024 91.1001 133.672 91.8174H133.629C134.046 90.1137 133.826 88.3163 133.01 86.7629C132.798 86.3664 132.553 85.9885 132.277 85.6334C132.139 85.407 132.041 85.2854 132.041 85.2854Z" fill="#263238"/>
<path id="Vector_53" d="M102.971 61.7621C102.954 61.8254 102.927 61.8857 102.892 61.9409C102.808 62.0959 102.715 62.2455 102.613 62.3889C101.935 63.3501 100.981 64.0824 99.8758 64.4884C99.7107 64.5504 99.5415 64.6014 99.3695 64.6409C99.308 64.6615 99.2434 64.6719 99.1785 64.6719C99.1785 64.6504 99.4388 64.5789 99.8448 64.4073C100.91 63.965 101.84 63.2518 102.543 62.3388C102.813 61.9885 102.952 61.7526 102.971 61.7621Z" fill="#263238"/>
<path id="Vector_54" d="M123.167 70.3626L116.299 67.1693L110.159 66.4043L112.413 68.3108C112.413 68.3108 104.475 71.0728 104.337 71.6948C104.198 72.3168 104.962 73.9897 106.362 73.6799C106.362 73.6799 105.576 74.6331 105.903 75.684C106.23 76.735 106.954 76.9328 108.291 76.6873C108.291 76.6873 107.384 78.0433 108.096 78.7344C108.807 79.4255 109.915 79.2515 109.915 79.2515C109.915 79.2515 109.93 80.903 110.804 81.0459C111.678 81.1889 114.113 81.0197 115.023 80.7409L119.644 79.3111L122.639 78.6414L123.167 70.3626Z" fill="#FFBF9D"/>
<path id="Vector_55" d="M110.524 72.4597C110.55 72.5503 109.636 72.8934 108.485 73.2295C107.334 73.5655 106.374 73.7609 106.347 73.6703C106.321 73.5798 107.236 73.2342 108.387 72.9006C109.538 72.567 110.498 72.3692 110.524 72.4597Z" fill="#FF9A6C"/>
<path id="Vector_56" d="M111.692 75.7174C111.718 75.808 110.995 76.1058 110.073 76.3847C109.151 76.6635 108.38 76.8112 108.351 76.7207C108.322 76.6301 109.051 76.3322 109.973 76.0558C110.894 75.7794 111.666 75.6292 111.692 75.7174Z" fill="#FF9A6C"/>
<path id="Vector_57" d="M112.74 78.427C112.757 78.5294 112.098 78.6653 111.324 78.8607C110.55 79.0561 109.946 79.3373 109.891 79.2396C109.836 79.1419 110.405 78.7487 111.229 78.5247C112.053 78.3007 112.728 78.3435 112.74 78.427Z" fill="#FF9A6C"/>
<path id="Vector_58" d="M113.607 68.0367C113.633 68.1297 112.733 68.4562 111.618 68.8398C110.503 69.2235 109.593 69.5166 109.555 69.4285C109.516 69.3403 110.381 68.9018 111.508 68.5157C112.635 68.1297 113.583 67.9462 113.607 68.0367Z" fill="#FF9A6C"/>
<path id="Vector_59" d="M121.872 69.7621L136.747 75.1383L135.878 85.3259L119.501 78.7367L121.872 69.7621Z" fill="#FFBF9D"/>
<path id="Vector_60" d="M140.958 51.9343C140.958 51.9343 142.897 53.9337 144.026 57.5298C145.156 61.1258 150.474 76.3704 150.345 81.2199C150.204 86.2363 146.82 89.8157 139.384 87.8329C134.947 86.6414 129.66 84.735 129.66 84.735L133.419 72.4049L136.358 73.1604L131.611 64.2667L140.958 51.9343Z" fill="#FF725E"/>
<path id="Vector_61" d="M137.552 57.7609C137.581 57.7824 135.522 60.7064 132.958 64.2929C130.393 67.8795 128.294 70.7773 128.265 70.7535C128.236 70.7296 130.295 67.808 132.86 64.2214C135.424 60.6349 137.526 57.7419 137.552 57.7609Z" fill="#263238"/>
<path id="Vector_62" d="M143.245 74.8285C143.245 74.8285 143.116 74.7666 142.885 74.6593C142.555 74.5124 142.214 74.3921 141.865 74.2995C141.423 74.1779 140.888 74.0612 140.294 73.9349L138.364 73.5107C136.996 73.2056 135.756 72.922 134.863 72.71L133.805 72.4526C133.674 72.4276 133.546 72.3909 133.421 72.343C133.554 72.3539 133.686 72.3754 133.815 72.4073L134.882 72.6242C135.783 72.8148 137.032 73.0841 138.393 73.3891L140.32 73.8252C140.912 73.9587 141.447 74.0826 141.889 74.2161C142.24 74.3176 142.58 74.4516 142.906 74.6164C142.994 74.6612 143.08 74.7114 143.162 74.7665C143.192 74.7835 143.22 74.8043 143.245 74.8285Z" fill="#263238"/>
<g id="Group_6" opacity="0.3">
<path id="Vector_63" d="M147.047 75.3719C147 75.0792 146.882 74.8024 146.704 74.565C146.526 74.3277 146.293 74.1368 146.025 74.0087C145.487 73.7549 144.908 73.5999 144.315 73.5512C141.643 73.1842 138.94 73.0746 136.244 72.9816L136.482 73.0889C139.813 73.7033 143.074 74.6518 146.214 75.92C146.386 76.015 146.588 76.039 146.777 75.9867C146.88 75.9238 146.96 75.8313 147.009 75.7214C147.057 75.6115 147.07 75.4896 147.047 75.3719Z" fill="black"/>
</g>
<g id="Group_7" opacity="0.3">
<path id="Vector_64" d="M85.7648 28.1012C83.2573 27.6746 80.2579 28.4015 77.7504 27.9749C77.3779 27.9129 76.9672 27.8534 76.6376 28.044C76.2412 28.2704 76.1051 28.7756 76.086 29.2355C76.0759 29.8666 76.1982 30.4928 76.445 31.0739C76.6917 31.655 77.0575 32.1782 77.5188 32.61C78.4577 33.4666 79.6305 34.0257 80.8884 34.2162C81.8889 34.3854 82.966 34.352 83.8567 33.8706C85.4233 33.0223 86.1755 29.8194 85.7648 28.1012Z" fill="black"/>
</g>
<path id="Vector_65" d="M76.0334 32.6791C76.0334 32.6791 74.5122 30.8989 74.2925 30.0792C74.1469 29.5358 74.2185 28.013 74.2925 27.0479C74.3094 26.7227 74.4212 26.4094 74.6143 26.1469C74.8074 25.8843 75.0732 25.6839 75.3791 25.5704C75.4687 25.526 75.5687 25.5068 75.6684 25.5148C75.7681 25.5228 75.8637 25.5576 75.9451 25.6157C76.1516 25.3361 76.3834 25.076 76.6376 24.8388C77.2346 24.2287 77.5188 23.8164 78.8322 24.1953C78.8322 24.1953 79.7994 23.1778 80.3558 23.254C80.7292 23.3092 81.0986 23.3888 81.4615 23.4923C81.4615 23.4923 83.5797 23.4018 84.0143 24.0738C84.2612 24.3772 84.5941 24.599 84.9696 24.7101C85.3009 24.8268 85.6053 25.0086 85.865 25.2448C86.1246 25.4809 86.3342 25.7667 86.4812 26.0851C86.7283 26.67 86.8714 27.2934 86.9039 27.9272L84.7546 28.013C84.7546 28.013 84.9075 32.9484 84.3654 33.3463C83.8233 33.7443 83.6179 33.6013 83.6179 33.6013C83.6179 33.6013 83.2048 34.7595 81.5928 33.904C81.5928 33.904 80.2555 34.3067 79.6824 33.7562C79.1093 33.2057 77.0125 27.9177 77.0125 27.9177L77.0722 30.5391C77.0722 30.5391 78.1779 32.2382 77.6358 32.6362C77.0937 33.0342 76.0334 32.6791 76.0334 32.6791Z" fill="#FFBF9D"/>
<path id="Vector_66" d="M78.7176 25.9898C78.7685 26.0888 78.8093 26.1925 78.8394 26.2996L79.1308 27.1575C79.3696 27.8724 79.6967 28.8924 80.0454 30.0053C80.394 31.1182 80.6854 32.15 81.0149 32.8268C81.1417 33.0995 81.2885 33.3623 81.4543 33.6133C81.5714 33.792 81.6454 33.8825 81.6382 33.8897C81.631 33.8968 81.6119 33.873 81.5737 33.8301C81.5177 33.7703 81.4651 33.7075 81.4161 33.6418C81.2326 33.3986 81.0727 33.1384 80.9385 32.865C80.5827 32.1763 80.2842 31.1539 79.9308 30.0434C79.5773 28.9329 79.2693 27.9177 79.0496 27.1837C78.9493 26.8334 78.8633 26.5427 78.7964 26.3139C78.7602 26.2085 78.7338 26.1 78.7176 25.9898Z" fill="#FF9A6C"/>
<path id="Vector_67" d="M81.3612 25.3797C81.4091 25.482 81.4459 25.589 81.471 25.6991L81.7266 26.5832C81.9343 27.3291 82.2042 28.3633 82.5194 29.5072C82.8346 30.6511 83.0901 31.6901 83.2764 32.4432C83.3648 32.8006 83.4364 33.1009 83.4937 33.3344C83.5258 33.4432 83.5466 33.555 83.5558 33.6681C83.5106 33.5648 83.4739 33.458 83.446 33.3487C83.3791 33.1104 83.2955 32.8197 83.1928 32.4646C82.9827 31.7187 82.7009 30.6845 82.4 29.5406C82.0991 28.3967 81.8292 27.3577 81.6406 26.6046C81.5546 26.2448 81.4806 25.9469 81.4257 25.711C81.3937 25.6029 81.3721 25.492 81.3612 25.3797Z" fill="#FF9A6C"/>
</g>
</g>
</svg>