<svg width="320" height="161" viewBox="0 0 320 161" fill="none" xmlns="http://www.w3.org/2000/svg">
<g clip-path="url(#clip0_1_7)">
<path d="M105.382 160.414C95.7266 160.414 86.0853 160.241 76.4584 159.896C62.7028 159.402 48.4788 158.891 35.2581 151.558C26.0096 146.429 17.8187 138.2 11.571 127.76C7.39514 120.684 4.33323 113.008 2.4928 105C-0.940315 90.4211 -0.823379 75.231 2.83377 60.7067C4.11538 55.7268 5.88216 50.8847 8.10876 46.2497C17.7501 26.2844 35.3351 12.8823 56.3551 9.48001C56.5287 9.45748 56.7043 9.45373 56.8787 9.46883C56.9732 9.47389 57.0674 9.47931 57.1635 9.47529L57.2872 9.43598C57.6042 9.32579 57.9299 9.24221 58.2608 9.18612C90.6791 4.35997 124.95 14.125 157.366 37.4247C182.43 55.4425 215.647 65.1447 258.915 67.0859L259.529 67.1181C271.574 67.81 283.225 72.7758 293.224 81.4793C303.093 90.0696 310.503 101.531 314.653 114.624C315.163 116.22 315.63 117.882 316.043 119.563C316.426 121.124 316.399 122.759 315.964 124.307C315.529 125.856 314.7 127.265 313.559 128.398V128.401L313.451 128.512C313.192 128.77 312.919 129.017 312.64 129.247L312.312 129.518C309.547 131.796 307.363 133.595 304.749 134.992C303.005 135.918 301.151 136.618 299.231 137.076C288.687 139.646 277.98 142.029 267.406 144.16C246.872 148.3 225.796 151.716 204.765 154.311C171.793 158.377 138.603 160.415 105.382 160.414ZM56.6328 10.176C56.5683 10.1753 56.5037 10.1797 56.4398 10.1891C35.6163 13.5596 18.1977 26.8301 8.65202 46.5977C6.44739 51.1868 4.69809 55.9809 3.42923 60.9114C-0.194594 75.3071 -0.310075 90.3622 3.0925 104.812C4.91491 112.743 7.94714 120.346 12.0827 127.354C18.2692 137.692 26.3764 145.838 35.5279 150.913C48.6299 158.18 62.7869 158.689 76.4779 159.18C119.298 160.71 162.173 158.844 204.698 153.6C225.716 151.006 246.778 147.592 267.299 143.455C277.866 141.326 288.566 138.944 299.102 136.375C300.976 135.929 302.786 135.247 304.487 134.343C307.048 132.974 309.211 131.192 311.95 128.936L312.278 128.666C312.518 128.467 312.753 128.256 312.979 128.035L313.043 127.968C315.294 125.699 316.169 122.707 315.444 119.757V119.757C315.037 118.094 314.574 116.45 314.069 114.87C305.592 88.1231 283.662 69.2208 259.499 67.8331L258.888 67.8009C239.124 66.914 221.829 64.4573 206.017 60.2897C187.141 55.3149 170.661 47.8261 157.037 38.0317C124.744 14.8213 90.6168 5.0926 58.34 9.89586C58.0385 9.94787 57.7418 10.0248 57.453 10.1258L57.2301 10.1882C57.1034 10.1938 56.9766 10.1923 56.8501 10.1836C56.7756 10.1798 56.7034 10.176 56.6328 10.176Z" fill="#F5ACA4"/>
<path d="M99.9549 52.2649C99.061 51.4073 98.1467 46.6247 97.0055 46.1392C97.8585 48.0246 97.2392 48.5237 97.2346 50.5928C97.2454 51.7677 97.1082 52.9393 96.8262 54.0799H77.4941V38.9926C77.4941 37.637 77.7611 36.2946 78.2798 35.0422C78.7986 33.7897 79.559 32.6517 80.5175 31.6931C81.4761 30.7346 82.6141 29.9742 83.8666 29.4554C85.119 28.9367 86.4614 28.6697 87.817 28.6697C88.3344 28.6798 88.8485 28.7551 89.3471 28.8937C91.0087 29.3424 92.5232 30.2201 93.7386 31.4388C94.954 32.6575 95.8275 34.1744 96.2715 35.8373C97.7453 41.2241 100.089 50.1908 99.9549 52.2649Z" fill="#844031"/>
<path d="M78.6285 70.8251L78.638 59.0654L71.7254 59.6832L74.165 67.1L73.0232 85.7423C72.4694 85.8665 71.9638 86.1492 71.5679 86.5559C71.1721 86.9626 70.9031 87.4757 70.7937 88.0326C70.6844 88.5895 70.7395 89.1662 70.9523 89.6923C71.1651 90.2184 71.5263 90.6713 71.992 90.9957C72.4577 91.3201 73.0077 91.5019 73.575 91.5191C74.1423 91.5363 74.7023 91.388 75.1868 91.0924C75.6713 90.7968 76.0593 90.3667 76.3035 89.8544C76.5477 89.3421 76.6376 88.7698 76.5622 88.2073L78.6285 70.8251Z" fill="#FFB6B6"/>
<path d="M92.2324 154.86L95.025 154.859L96.3536 144.088H92.2317L92.2324 154.86Z" fill="#FFB6B6"/>
<path d="M91.2865 153.482L95.7012 153.219V155.11L99.8984 158.009C100.106 158.152 100.262 158.358 100.344 158.596C100.426 158.834 100.43 159.092 100.355 159.333C100.28 159.573 100.13 159.783 99.9273 159.933C99.7244 160.082 99.479 160.162 99.2271 160.162H93.9712L93.0653 158.292L92.7115 160.162H90.7299L91.2865 153.482Z" fill="#844031"/>
<path d="M76.0844 154.86L78.8774 154.859L80.2057 144.088H76.084L76.0844 154.86Z" fill="#FFB6B6"/>
<path d="M75.1387 153.482L79.5535 153.219V155.11L83.7507 158.009C83.958 158.152 84.1141 158.358 84.1963 158.596C84.2784 158.834 84.2823 159.092 84.2073 159.333C84.1324 159.573 83.9825 159.783 83.7795 159.933C83.5766 160.082 83.3312 160.162 83.0793 160.162H77.8234L76.9175 158.292L76.5638 160.162H74.5821L75.1387 153.482Z" fill="#844031"/>
<path d="M89.7454 46.3661L83.9601 46.4795L79.8763 50.7902L76.6023 51.2704C75.1213 51.4876 73.7597 52.2066 72.7451 53.3071C71.7305 54.4077 71.1244 55.8231 71.0281 57.3169L71.5953 60.4324H74.9985L76.9672 71.9917C76.2017 73.9424 76.1496 75.4821 77.721 76.0869L82.5988 85.2754L97.0055 78.8094C97.7361 77.5534 97.9702 76.2917 97.2234 75.0649L98.2533 57.3696H101.716C101.716 54.06 100.597 51.2699 97.3078 50.9017C96.0017 50.7603 94.6892 50.6852 93.3754 50.6767L89.7454 46.3661Z" fill="#E6E6E6"/>
<path d="M97.0055 78.8094C97.0055 78.8094 82.9391 81.3051 77.721 76.0869C77.721 76.0869 77.1912 76.9863 76.3929 78.4778C76.1634 78.9068 75.72 79.1974 75.4522 79.7169C75.2089 80.1891 74.5829 80.7697 74.3178 81.3052C74.1045 81.7361 74.4467 82.2991 74.2248 82.7646C71.5525 88.3697 68.4303 96.2762 69.0997 101.497C69.5313 104.864 70.4228 112.698 71.3618 121.113C71.4351 121.77 70.8409 122.615 70.9147 123.277C70.9842 123.902 71.7217 124.345 71.7912 124.971C71.8374 125.387 71.3224 125.811 71.3684 126.227C71.419 126.682 72.0305 127.129 72.0808 127.583C73.367 139.201 74.5447 150.049 74.5447 150.049H81.1241L82.3655 125.275L81.351 116.244L83.7332 97.9805L87.0229 115.337L87.4461 125.105L90.9227 150.502H97.0055V125.916L97.4592 124.638L97.0055 123L97.4592 121.235L97.0055 119.313V78.8094Z" fill="#844031"/>
<path d="M91.5212 43.0111C90.625 44.2016 89.3501 45.0514 87.9065 45.4205C86.4628 45.7896 84.9365 45.6561 83.5789 45.0419C82.2213 44.4277 81.1133 43.3694 80.4375 42.0414C79.7616 40.7134 79.5582 39.1948 79.8607 37.7358C80.1632 36.2767 80.9536 34.9642 82.1017 34.0143C83.2498 33.0645 84.6872 32.5339 86.1771 32.5101C87.667 32.4863 89.1206 32.9705 90.2985 33.8831C91.4764 34.7958 92.3083 36.0824 92.6574 37.531C92.6762 37.6096 92.6921 37.6877 92.7076 37.7689C92.8919 38.6769 92.8815 39.6137 92.677 40.5173C92.4725 41.421 92.0785 42.271 91.5212 43.0111Z" fill="#FFB6B6"/>
<path d="M90.1538 39.2694C90.0147 38.5712 89.6628 37.9332 89.1465 37.443C89.1974 38.1121 89.1046 38.7844 88.8742 39.4146C87.1495 39.5673 85.417 39.2241 83.8807 38.4254C82.7236 37.6404 81.2512 37.7085 79.536 38.4254C79.5359 37.5912 79.7002 36.7651 80.0194 35.9943C80.3386 35.2235 80.8065 34.5232 81.3964 33.9333C81.9863 33.3434 82.6866 32.8754 83.4574 32.5562C84.2282 32.237 85.0543 32.0728 85.8886 32.0729H87.0229C88.7076 32.0732 90.3233 32.7426 91.5145 33.9338C92.7058 35.1251 93.3752 36.7407 93.3755 38.4254C92.3285 38.8009 91.2504 39.0834 90.1538 39.2694Z" fill="#844031"/>
<path d="M40.5253 120.235C50.6045 120.235 58.7752 112.064 58.7752 101.985C58.7752 91.9058 50.6045 83.7351 40.5253 83.7351C30.4461 83.7351 22.2753 91.9058 22.2753 101.985C22.2753 112.064 30.4461 120.235 40.5253 120.235Z" fill="#F6D3C1"/>
<path d="M156.824 36.4999C166.903 36.4999 175.074 28.3291 175.074 18.2499C175.074 8.17078 166.903 0 156.824 0C146.745 0 138.574 8.17078 138.574 18.2499C138.574 28.3291 146.745 36.4999 156.824 36.4999Z" fill="#F6D3C1"/>
<path d="M301.75 123.098C311.829 123.098 320 114.927 320 104.848C320 94.7686 311.829 86.5978 301.75 86.5978C291.671 86.5978 283.5 94.7686 283.5 104.848C283.5 114.927 291.671 123.098 301.75 123.098Z" fill="#F6D3C1"/>
<path d="M189.745 20.2402V61.6232C189.746 62.4828 189.406 63.3077 188.802 63.9187C188.197 64.5297 187.376 64.8775 186.516 64.8865C186.505 64.8877 186.493 64.8882 186.481 64.888H181.664C177.81 64.888 174.115 63.357 171.389 60.632C168.664 57.907 167.134 54.211 167.134 50.3572V20.2402C167.134 19.3743 167.477 18.5439 168.09 17.9317C168.702 17.3194 169.532 16.9754 170.398 16.9754H172.35C171.446 19.613 183.717 20.7234 184.391 16.9754H186.481C187.347 16.9755 188.177 17.3194 188.789 17.9317C189.402 18.5439 189.745 19.3743 189.745 20.2402Z" fill="#F5ACA4"/>
<path d="M175.452 13.881C175.452 13.7675 175.497 13.6588 175.578 13.5786C175.658 13.4984 175.767 13.4533 175.88 13.4531H178.789C178.903 13.4534 179.011 13.4987 179.091 13.5789C179.171 13.6591 179.216 13.7677 179.216 13.881C179.216 13.9942 179.171 14.1029 179.091 14.1831C179.011 14.2633 178.903 14.3085 178.789 14.3088H175.88C175.767 14.3087 175.658 14.2636 175.578 14.1834C175.497 14.1032 175.452 13.9944 175.452 13.881Z" fill="#A9706E"/>
<path d="M187.48 70.1371H169.081C167.654 70.1355 166.285 69.5677 165.276 68.5584C164.267 67.549 163.699 66.1805 163.697 64.753V35.8246C163.596 35.752 163.514 35.6564 163.457 35.5457C163.401 35.435 163.371 35.3124 163.371 35.1881V32.2787C163.371 32.1543 163.401 32.0317 163.457 31.921C163.514 31.8104 163.596 31.7148 163.697 31.6423V30.8614C163.596 30.7889 163.514 30.6934 163.457 30.5827C163.401 30.472 163.371 30.3494 163.371 30.2251V27.3155C163.371 27.1912 163.401 27.0686 163.457 26.9579C163.514 26.8472 163.596 26.7517 163.697 26.6792V25.2679C163.573 25.2009 163.468 25.1013 163.396 24.9796C163.323 24.858 163.285 24.719 163.286 24.5774V21.668C163.285 21.5264 163.323 21.3873 163.396 21.2656C163.468 21.144 163.573 21.0443 163.697 20.9773V17.1102C163.699 15.6827 164.267 14.3142 165.276 13.3049C166.285 12.2955 167.654 11.7278 169.081 11.7262H187.48C188.908 11.7278 190.276 12.2955 191.286 13.3049C192.295 14.3143 192.863 15.6828 192.864 17.1102V25.5396C192.961 25.6003 193.041 25.6846 193.097 25.7846C193.152 25.8846 193.181 25.9971 193.181 26.1115V31.6591C193.181 31.7735 193.152 31.886 193.097 31.986C193.041 32.0861 192.961 32.1704 192.864 32.2311V64.753C192.863 66.1804 192.295 67.549 191.286 68.5583C190.276 69.5677 188.908 70.1354 187.48 70.1371ZM169.081 12.4419C167.844 12.4432 166.657 12.9355 165.782 13.8107C164.907 14.6859 164.414 15.8725 164.413 17.1102V21.586L164.069 21.5993C164.051 21.6 164.034 21.6074 164.021 21.6202C164.009 21.633 164.002 21.6501 164.001 21.668V24.5773C164.002 24.5952 164.009 24.6123 164.021 24.6251C164.034 24.6378 164.051 24.6453 164.069 24.646L164.413 24.6591V27.1817L164.141 27.2488C164.126 27.2524 164.112 27.2609 164.102 27.273C164.093 27.2851 164.087 27.3 164.087 27.3155V30.2251C164.087 30.2406 164.093 30.2555 164.102 30.2676C164.112 30.2797 164.126 30.2882 164.141 30.2918L164.413 30.3589V32.1448L164.141 32.2119C164.126 32.2155 164.112 32.2241 164.102 32.2361C164.093 32.2482 164.087 32.2632 164.087 32.2787V35.188C164.087 35.2036 164.093 35.2186 164.102 35.2307C164.112 35.2428 164.126 35.2513 164.141 35.255L164.413 35.322V64.753C164.414 65.9907 164.907 67.1773 165.782 68.0525C166.657 68.9277 167.844 69.42 169.081 69.4214H187.48C188.718 69.42 189.905 68.9277 190.78 68.0525C191.655 67.1773 192.147 65.9907 192.149 64.753V31.6184H192.466V26.1524H192.149V17.1102C192.147 15.8725 191.655 14.6859 190.78 13.8107C189.905 12.9356 188.718 12.4433 187.48 12.4418L169.081 12.4419Z" fill="#A9706E"/>
<path d="M180.415 14.3088C180.652 14.3088 180.843 14.1173 180.843 13.881C180.843 13.6447 180.652 13.4531 180.415 13.4531C180.179 13.4531 179.987 13.6447 179.987 13.881C179.987 14.1173 180.179 14.3088 180.415 14.3088Z" fill="#A9706E"/>
<path d="M87.3422 96.7615H39.4675C38.7876 96.7598 38.1361 96.489 37.6553 96.0082C37.1745 95.5275 36.9036 94.876 36.9018 94.1962V70.8688C36.9035 70.1889 37.1744 69.5374 37.6551 69.0566C38.1358 68.5759 38.7873 68.3049 39.4671 68.3031H87.3418C88.0217 68.3048 88.6732 68.5757 89.154 69.0564C89.6347 69.5371 89.9057 70.1886 89.9075 70.8685V94.1958C89.9058 94.8757 89.6349 95.5272 89.1542 96.008C88.6735 96.4888 88.022 96.7597 87.3422 96.7615Z" fill="white"/>
<path d="M87.3422 96.7615H39.4675C38.7876 96.7598 38.1361 96.489 37.6553 96.0082C37.1745 95.5275 36.9036 94.876 36.9018 94.1962V70.8688C36.9035 70.1889 37.1744 69.5374 37.6551 69.0566C38.1358 68.5759 38.7873 68.3049 39.4671 68.3031H87.3418C88.0217 68.3048 88.6732 68.5757 89.154 69.0564C89.6347 69.5371 89.9057 70.1886 89.9075 70.8685V94.1958C89.9058 94.8757 89.6349 95.5272 89.1542 96.008C88.6735 96.4888 88.022 96.7597 87.3422 96.7615ZM39.4675 69.0188C38.9772 69.0202 38.5074 69.2157 38.1608 69.5624C37.8142 69.9091 37.6188 70.3789 37.6175 70.8692V94.1958C37.6189 94.6861 37.8143 95.1559 38.161 95.5025C38.5077 95.8492 38.9776 96.0445 39.4678 96.0458H87.3415C87.8318 96.0445 88.3017 95.8491 88.6484 95.5024C88.9951 95.1557 89.1905 94.6858 89.1918 94.1955V70.8688C89.1904 70.3786 88.995 69.9088 88.6482 69.5621C88.3015 69.2155 87.8317 69.0202 87.3415 69.0188L39.4675 69.0188Z" fill="#A9706E"/>
<path d="M65.9707 93.3141C56.5287 93.3141 46.6834 93.2239 43.01 93.1654C42.5267 93.1554 42.0664 92.9569 41.7275 92.6122C41.3885 92.2676 41.1978 91.804 41.1959 91.3206V72.0109C41.1961 71.8378 41.2648 71.6718 41.3871 71.5492C41.5093 71.4267 41.6751 71.3575 41.8482 71.3569H84.9595C85.1326 71.3571 85.2986 71.4259 85.4211 71.5481C85.5436 71.6703 85.6128 71.8361 85.6134 72.0092V85.1105C85.6053 87.2491 84.7594 89.2994 83.2571 90.8214C81.7547 92.3435 79.7157 93.2162 77.5774 93.2522C74.1538 93.2967 70.0998 93.3141 65.9707 93.3141Z" fill="#F5ACA4"/>
<path d="M82.4005 83.9068H43.446C43.1199 83.9059 42.8019 83.8046 42.5353 83.6167C42.2687 83.4287 42.0664 83.1633 41.956 82.8564L37.5469 70.487C37.4619 70.2485 37.4354 69.993 37.4697 69.7421C37.5039 69.4912 37.5978 69.2521 37.7436 69.045C37.8894 68.838 38.0827 68.6689 38.3074 68.552C38.532 68.4351 38.7814 68.3739 39.0347 68.3734L87.7271 68.3056C87.9585 68.3053 88.1872 68.3559 88.3971 68.4536C88.6069 68.5513 88.7927 68.6939 88.9414 68.8712C89.0902 69.0486 89.1982 69.2564 89.2579 69.48C89.3176 69.7037 89.3276 69.9377 89.287 70.1655L89.3246 70.1814L89.1848 70.5077L89.1834 70.511L83.8534 82.9479C83.7319 83.2326 83.5295 83.4753 83.2711 83.6458C83.0128 83.8163 82.71 83.9071 82.4005 83.9068ZM87.7293 69.0213L39.0361 69.089C38.8974 69.0893 38.7607 69.1228 38.6376 69.1868C38.5146 69.2508 38.4086 69.3435 38.3288 69.4569C38.2489 69.5703 38.1974 69.7013 38.1787 69.8387C38.1599 69.9762 38.1744 70.1161 38.221 70.2468L42.6299 82.6156C42.6905 82.7837 42.8014 82.9292 42.9475 83.0321C43.0936 83.1351 43.2678 83.1906 43.4465 83.1911H82.4005C82.5699 83.1913 82.7356 83.1416 82.8769 83.0482C83.0183 82.9549 83.1291 82.8221 83.1955 82.6663L88.5257 70.229C88.5822 70.0972 88.6051 69.9534 88.5924 69.8106C88.5796 69.6678 88.5316 69.5304 88.4527 69.4107C88.3738 69.291 88.2664 69.1928 88.1401 69.1248C88.0139 69.0568 87.8727 69.0212 87.7293 69.0213Z" fill="#A9706E"/>
<path d="M63.332 86.5993C65.0166 86.5993 66.3823 85.2337 66.3823 83.5491C66.3823 81.8644 65.0166 80.4988 63.332 80.4988C61.6474 80.4988 60.2818 81.8644 60.2818 83.5491C60.2818 85.2337 61.6474 86.5993 63.332 86.5993Z" fill="white"/>
<path d="M178.557 60.119C180.242 60.119 181.607 58.7533 181.607 57.0687C181.607 55.3841 180.242 54.0185 178.557 54.0185C176.873 54.0185 175.507 55.3841 175.507 57.0687C175.507 58.7533 176.873 60.119 178.557 60.119Z" fill="white"/>
<path d="M293.924 101.312L285.776 93.268C285.379 92.8733 284.909 92.5608 284.391 92.3483C283.873 92.1358 283.319 92.0276 282.759 92.0298H282.731C282.167 92.0315 281.609 92.1449 281.089 92.3636C280.57 92.5822 280.099 92.9018 279.703 93.3038C277.881 95.1476 276.845 97.6258 276.813 100.218C276.78 102.81 277.753 105.313 279.528 107.202C279.614 107.295 279.703 107.385 279.793 107.474C280.288 107.967 280.835 108.405 281.425 108.78C283.035 109.821 284.914 110.372 286.832 110.366H286.892C288.209 110.361 289.511 110.096 290.724 109.585C291.937 109.074 293.037 108.327 293.96 107.388C294.759 106.577 295.205 105.482 295.198 104.343C295.191 103.204 294.733 102.114 293.924 101.312ZM293.452 106.884C291.939 108.408 289.947 109.364 287.812 109.591C285.676 109.817 283.528 109.301 281.729 108.129C281.214 107.789 280.734 107.399 280.294 106.966C278.538 105.232 277.543 102.872 277.528 100.404C277.512 97.9367 278.478 95.5641 280.212 93.8083C280.541 93.4725 280.934 93.2055 281.368 93.0231C281.802 92.8406 282.267 92.7463 282.738 92.7455H282.759C283.225 92.7439 283.687 92.8341 284.118 93.0109C284.549 93.1877 284.941 93.4478 285.271 93.7761L293.419 101.824C294.094 102.491 294.476 103.399 294.482 104.347C294.488 105.296 294.118 106.208 293.452 106.884Z" fill="#A9706E"/>
<path d="M267.19 74.9107L259.042 66.8628C258.24 66.0671 257.155 65.6218 256.025 65.6247H256C255.435 65.6269 254.877 65.741 254.357 65.9602C253.836 66.1795 253.365 66.4996 252.969 66.9021C251.463 68.4318 250.486 70.4037 250.182 72.5287C249.878 74.6538 250.263 76.8204 251.28 78.7109L251.284 78.7145C251.703 79.4878 252.224 80.2014 252.833 80.8365C252.901 80.9152 252.98 80.994 253.058 81.0727C254.93 82.93 257.461 83.9698 260.097 83.964H260.162C261.478 83.9586 262.78 83.6923 263.994 83.1807C265.207 82.6691 266.306 81.9222 267.229 80.9832C267.625 80.5819 267.938 80.1065 268.151 79.5842C268.363 79.0618 268.471 78.5027 268.467 77.9388C268.463 77.3749 268.349 76.8172 268.13 76.2976C267.91 75.7781 267.591 75.3068 267.19 74.9107ZM266.717 80.4823C265.861 81.3536 264.84 82.0466 263.714 82.5214C262.589 82.9962 261.38 83.2433 260.158 83.2484H260.097C258.262 83.2477 256.469 82.7044 254.942 81.687C253.415 80.6695 252.223 79.2233 251.515 77.5301C250.808 75.8369 250.618 73.9725 250.967 72.1712C251.317 70.37 252.191 68.7123 253.481 67.4067C254.148 66.7322 255.055 66.35 256.004 66.344C256.953 66.338 257.865 66.7086 258.541 67.3745L266.689 75.4188C267.363 76.0871 267.744 76.9954 267.75 77.9446C267.755 78.8938 267.384 79.8064 266.717 80.4823Z" fill="#A9706E"/>
<path d="M294.445 103.841L285.462 94.9692C284.873 94.3887 284.078 94.0656 283.251 94.0707C282.424 94.0758 281.632 94.4088 281.051 94.9965C280.323 95.7318 279.747 96.6033 279.356 97.5612C278.965 98.5192 278.767 99.5448 278.773 100.579C278.779 101.614 278.989 102.637 279.39 103.591C279.792 104.544 280.377 105.409 281.114 106.136C281.85 106.863 282.722 107.438 283.68 107.827C284.638 108.217 285.664 108.414 286.699 108.407C287.733 108.4 288.756 108.189 289.709 107.787C290.662 107.384 291.527 106.798 292.253 106.061L294.445 103.841Z" fill="#F5ACA4"/>
<path d="M267.712 77.4383L258.729 68.5661C258.14 67.9856 257.345 67.6625 256.518 67.6676C255.691 67.6728 254.9 68.0057 254.318 68.5935C253.59 69.3288 253.014 70.2003 252.623 71.1582C252.233 72.1161 252.035 73.1417 252.04 74.1763C252.046 75.2108 252.256 76.2341 252.658 77.1875C253.059 78.141 253.645 79.0059 254.381 79.7329C255.117 80.4599 255.989 81.0347 256.947 81.4244C257.906 81.8141 258.931 82.0111 259.966 82.0041C261.001 81.9971 262.024 81.7863 262.977 81.3837C263.93 80.981 264.794 80.3945 265.52 79.6576L267.712 77.4383Z" fill="#F5ACA4"/>
<path d="M284.574 109.367L284.359 109.933C283.35 109.55 282.372 109.166 281.425 108.78C264.649 101.935 256.64 93.9228 251.284 78.7145L251.28 78.7109C251.026 77.9953 250.779 77.2629 250.539 76.5138L251.105 76.3313C251.294 77.0517 251.57 77.7463 251.928 78.3996C252.221 79.2334 252.523 80.0457 252.833 80.8365C257.868 93.6723 265.293 101.008 279.528 107.202C280.244 107.514 280.977 107.823 281.729 108.129C282.601 108.698 283.563 109.116 284.574 109.367Z" fill="#A9706E"/>
<path d="M258.892 83.3127L258.389 83.822L276.975 102.179L277.478 101.669L258.892 83.3127Z" fill="#A9706E"/>
<path d="M101.543 68.1026L101.553 56.3429L94.6399 56.9606L97.0795 64.3774L88.2239 77.8016C87.6702 77.9258 87.1645 78.2085 86.7687 78.6152C86.3728 79.0219 86.1038 79.535 85.9945 80.0919C85.8852 80.6488 85.9403 81.2255 86.153 81.7516C86.3658 82.2777 86.7271 82.7306 87.1928 83.055C87.6585 83.3793 88.2085 83.5612 88.7757 83.5784C89.343 83.5956 89.903 83.4473 90.3875 83.1518C90.872 82.8562 91.26 82.426 91.5042 81.9137C91.7484 81.4014 91.8383 80.8291 91.7629 80.2666L101.543 68.1026Z" fill="#FFB6B6"/>
</g>
<defs>
<clipPath id="clip0_1_7">
<rect width="320" height="160.414" fill="white"/>
</clipPath>
</defs>
</svg>
