<svg width="320" height="270" viewBox="0 0 320 270" fill="none" xmlns="http://www.w3.org/2000/svg">
<g clip-path="url(#clip0_7_2)">
<path d="M36.2145 265.215C36.2145 265.215 19.1868 230.91 22.8852 229.922C26.5836 228.934 34.3378 234.395 34.3378 234.395C34.3378 234.395 11.5838 176.722 17.4751 172.249C23.3664 167.776 34.3653 190.669 34.3653 190.669C34.3653 190.669 22.6171 155.344 23.9989 141.904C25.3806 128.464 40.3048 141.41 40.3048 141.41C40.3048 141.41 28.3503 93.1844 39.4524 90.6942C50.5544 88.2039 50.1832 145.877 50.1832 145.877C50.1832 145.877 53.8266 104.608 58.2743 116.046C62.7219 127.483 53.3729 165.76 53.3729 165.76C53.3729 165.76 59.4704 152.834 62.8594 164.765C66.2485 176.696 56.1226 224.922 56.1226 224.922C56.1226 224.922 64.7293 216.97 65.5336 226.912C66.3378 236.853 47.7153 267.679 47.7153 267.679L37.177 268.694L36.2145 265.215Z" fill="#B7CDAF"/>
<path opacity="0.6" d="M36.2145 265.215C36.2145 265.215 19.1868 230.91 22.8852 229.922C26.5836 228.934 34.3378 234.395 34.3378 234.395C34.3378 234.395 11.5838 176.722 17.4751 172.249C23.3664 167.776 34.3653 190.669 34.3653 190.669C34.3653 190.669 22.6171 155.344 23.9989 141.904C25.3806 128.464 40.3048 141.41 40.3048 141.41C40.3048 141.41 28.3503 93.1844 39.4524 90.6942C50.5544 88.2039 50.1832 145.877 50.1832 145.877C50.1832 145.877 53.8266 104.608 58.2743 116.046C62.7219 127.483 53.3729 165.76 53.3729 165.76C53.3729 165.76 59.4704 152.834 62.8594 164.765C66.2485 176.696 56.1226 224.922 56.1226 224.922C56.1226 224.922 64.7293 216.97 65.5336 226.912C66.3378 236.853 47.7153 267.679 47.7153 267.679L37.177 268.694L36.2145 265.215Z" fill="white"/>
<path d="M39.8447 266.743C39.8447 266.743 25.6561 242.881 28.2821 238.401C30.9081 233.921 38.793 244.37 38.793 244.37C38.793 244.37 20.9197 202.107 23.5526 198.134C26.1854 194.161 34.5927 211.561 34.5927 211.561C34.5927 211.561 31.4512 153.361 36.6894 155.344C41.9277 157.327 42.4501 185.175 42.4501 185.175C42.4501 185.175 39.3017 119.056 44.0312 121.046C48.7607 123.036 48.2383 196.612 48.2383 196.612C48.2383 196.612 57.6974 168.27 59.2372 181.196C60.7771 194.122 47.1521 228.928 47.1521 228.928C47.1521 228.928 60.3234 201.58 61.9251 216.028C63.5268 230.475 51.3867 257.263 51.3867 257.263C51.3867 257.263 56.1163 246.327 56.1163 252.289C56.1163 258.252 52.4385 265.716 52.4385 265.716" stroke="#094A28" stroke-linecap="round" stroke-linejoin="round"/>
<path d="M22.1207 238.433L13.0672 266.652H37.588L46.9164 238.583L22.1207 238.433Z" fill="#094A28" stroke="#094A28" stroke-linecap="round" stroke-linejoin="round"/>
<path d="M79.2949 266.606H28.198L22.1211 238.433H73.2179L79.2949 266.606Z" fill="white" stroke="#094A28" stroke-linecap="round" stroke-linejoin="round"/>
<path d="M74.0289 261.84H31.408L28.2252 247.1H70.8461L74.0289 261.84Z" stroke="#094A28" stroke-linecap="round" stroke-linejoin="round"/>
<path d="M31.889 247.158L35.0444 261.775" stroke="#094A28" stroke-linecap="round" stroke-linejoin="round"/>
<path d="M35.8 247.158L38.9554 261.775" stroke="#094A28" stroke-linecap="round" stroke-linejoin="round"/>
<path d="M39.712 247.158L42.8673 261.775" stroke="#094A28" stroke-linecap="round" stroke-linejoin="round"/>
<path d="M43.6173 247.158L46.7726 261.775" stroke="#094A28" stroke-linecap="round" stroke-linejoin="round"/>
<path d="M47.5283 247.158L50.6836 261.775" stroke="#094A28" stroke-linecap="round" stroke-linejoin="round"/>
<path d="M51.4402 247.158L54.5955 261.775" stroke="#094A28" stroke-linecap="round" stroke-linejoin="round"/>
<path d="M55.3445 247.158L58.4999 261.775" stroke="#094A28" stroke-linecap="round" stroke-linejoin="round"/>
<path d="M59.2555 247.158L62.4108 261.775" stroke="#094A28" stroke-linecap="round" stroke-linejoin="round"/>
<path d="M63.1608 247.158L66.3161 261.775" stroke="#094A28" stroke-linecap="round" stroke-linejoin="round"/>
<path d="M67.0718 247.158L70.2271 261.775" stroke="#094A28" stroke-linecap="round" stroke-linejoin="round"/>
<path d="M28.9534 250.013H71.3337" stroke="#094A28" stroke-linecap="round" stroke-linejoin="round"/>
<path d="M29.587 252.952H71.9672" stroke="#094A28" stroke-linecap="round" stroke-linejoin="round"/>
<path d="M30.2252 255.898H72.5986" stroke="#094A28" stroke-linecap="round" stroke-linejoin="round"/>
<path d="M30.8578 258.837H73.238" stroke="#094A28" stroke-linecap="round" stroke-linejoin="round"/>
<path d="M46.7927 244.552H27.8677L27.5652 243.122H46.4833L46.7927 244.552Z" fill="#094A28"/>
<path d="M305.05 194.571H243.414C240.514 194.636 237.734 195.679 235.576 197.513C233.418 199.347 232.024 201.85 231.646 204.571L224.084 267.79H296.264L305.05 194.571Z" fill="white" stroke="#094A28" stroke-linecap="round" stroke-linejoin="round"/>
<path d="M305.372 194.571C302.962 194.625 300.652 195.492 298.859 197.016C297.066 198.54 295.909 200.62 295.596 202.881L287.821 267.79H305.379L313.16 202.881C313.321 201.834 313.238 200.767 312.917 199.754C312.597 198.742 312.047 197.807 311.305 197.016C310.564 196.225 309.648 195.596 308.624 195.174C307.599 194.752 306.489 194.546 305.372 194.571V194.571Z" fill="#094A28" stroke="#094A28" stroke-linecap="round" stroke-linejoin="round"/>
<path d="M223.445 175.578C219.113 178.504 214.431 180.935 209.497 182.822C200.745 186.268 197.226 187.308 197.226 187.308L199.652 266.503H263.185C263.185 266.503 255.039 216.847 255.039 200.182C255.039 183.517 255.768 180.266 255.768 180.266L234.87 175.208L223.445 175.578Z" fill="#B7CDAF" stroke="#094A28" stroke-linecap="round" stroke-linejoin="round"/>
<path d="M216.514 178.914C214.533 192.364 213.358 205.91 212.994 219.486C212.63 239.831 216.761 266.951 216.761 266.951H170.215C176.004 256.595 180.143 245.486 182.5 233.986C185.937 217.516 188.687 189.597 189.415 189.252C190.144 188.907 214.816 180.266 216.514 178.914Z" fill="#094A28" stroke="#094A28" stroke-linecap="round" stroke-linejoin="round"/>
<path d="M195.376 266.958C195.376 266.958 190.632 236.613 190.873 229.487C191.114 222.361 192.31 198.225 192.31 198.225" stroke="#616161" stroke-linecap="round" stroke-linejoin="round"/>
<path d="M242.644 176.846C242.644 176.846 236.691 202.705 236.203 223.973C235.715 245.241 234.141 267.075 234.141 267.075H271.778C271.778 267.075 272.266 247.647 271.778 240.982C271.289 234.318 271.29 235.696 271.29 235.696L285.877 239.259C285.877 239.259 276.514 196.613 274.816 191.905C273.118 187.198 273.964 185.696 272.871 184.889C271.778 184.083 242.644 176.846 242.644 176.846Z" fill="#094A28" stroke="#094A28" stroke-linecap="round" stroke-linejoin="round"/>
<path d="M174.664 249.377C175.645 250.799 176.799 252.109 178.101 253.278C179.772 254.63 183.353 253.928 185.257 255.775C187.161 257.621 185.079 263.258 182.673 265.229C178.548 268.59 180.734 258.388 180.734 258.388C179.28 259.331 177.673 260.045 175.977 260.502C173.64 261.009 167.625 259.279 165.61 259.201C163.596 259.123 160.798 258.759 159.726 256.639C158.654 254.52 165.308 251.964 168.264 250.95C170.352 250.272 172.491 249.746 174.664 249.377Z" fill="white" stroke="#094A28" stroke-linecap="round" stroke-linejoin="round"/>
<path d="M161.933 252.367C161.297 252.207 160.626 252.226 160.001 252.423C159.377 252.619 158.827 252.984 158.42 253.473C157.045 255.183 154.295 262.907 155.1 264.396C155.904 265.885 157.987 263.798 158.977 261.347C159.399 260.165 159.962 259.033 160.654 257.972C160.654 257.972 161.74 258.473 162.503 257.133C163.266 255.794 164.036 253.785 161.933 252.367Z" fill="white" stroke="#094A28" stroke-linecap="round" stroke-linejoin="round"/>
<path d="M165.823 251.021C165.157 250.659 164.379 250.526 163.621 250.644C162.862 250.763 162.171 251.126 161.664 251.672C159.732 253.622 161.059 261.821 162.083 264.331C163.107 266.841 165.046 266.529 165.335 264.981C165.623 263.434 165.953 255.716 166.057 253.928C166.142 252.953 166.063 251.972 165.823 251.021V251.021Z" fill="white" stroke="#094A28" stroke-linecap="round" stroke-linejoin="round"/>
<path d="M169.948 250.137C169.291 249.746 168.504 249.596 167.738 249.716C166.972 249.835 166.278 250.217 165.789 250.787C163.871 252.849 165.287 261.522 166.339 264.188C167.391 266.854 169.329 266.542 169.604 264.884C169.879 263.226 170.127 255.079 170.209 253.18C170.279 252.159 170.191 251.134 169.948 250.137V250.137Z" fill="white" stroke="#094A28" stroke-linecap="round" stroke-linejoin="round"/>
<path d="M175.983 251.191C175.983 251.191 174.381 247.803 171.769 248.362C169.157 248.922 168.332 252.264 168.813 257.335C169.295 262.407 170.298 266.438 171.756 266.581C173.213 266.724 174.801 263.662 175.09 259.702C175.378 255.742 175.811 253.375 175.811 253.375" fill="white"/>
<path d="M175.983 251.191C175.983 251.191 174.381 247.803 171.769 248.362C169.157 248.922 168.332 252.264 168.813 257.335C169.295 262.407 170.298 266.438 171.756 266.581C173.213 266.724 174.801 263.662 175.09 259.702C175.378 255.742 175.811 253.375 175.811 253.375" stroke="#094A28" stroke-linecap="round" stroke-linejoin="round"/>
<path d="M209.572 215.748H193.369V239.272H209.572V215.748Z" fill="#B7CDAF" stroke="#094A28" stroke-linecap="round" stroke-linejoin="round"/>
<path d="M202.601 208.895H199.618V219.779H202.601V208.895Z" fill="white" stroke="#094A28" stroke-linecap="round" stroke-linejoin="round"/>
<path d="M204.306 222.335H197.342V230.937H204.306V222.335Z" fill="white" stroke="#094A28" stroke-linecap="round" stroke-linejoin="round"/>
<path d="M196.208 233.492H205.729" stroke="#094A28" stroke-linecap="round" stroke-linejoin="round"/>
<path d="M194.785 235.371H207.008" stroke="#094A28" stroke-linecap="round" stroke-linejoin="round"/>
<path d="M221.746 172.249C221.746 172.249 216.514 175.578 215.559 178.224C214.603 180.871 210.575 192.132 208.994 196.385C207.413 200.637 198.421 204.317 199.638 205.123C200.855 205.93 212.644 206.957 212.644 206.957C212.644 206.957 215.318 216.846 215.923 219.376C216.528 221.905 220.178 229.603 220.178 229.603C220.178 229.603 230.992 217.302 232.697 213.999C233.868 211.765 235.207 209.614 236.704 207.562C236.704 207.562 241.324 208.595 244.266 209.057C247.208 209.519 255.203 210.201 254.839 208.94C254.474 207.679 250.467 202.158 248.886 196.755C247.304 191.352 248.274 179.512 246.335 174.915C244.397 170.318 240.148 169.629 238.677 169.284C237.206 168.94 223.932 170.292 221.746 172.249Z" fill="#B7CDAF" stroke="#094A28" stroke-linecap="round" stroke-linejoin="round"/>
<path d="M220.042 168.686C220.042 168.686 221.623 177.074 221.417 183.855C221.21 190.637 218.619 205.813 218.742 213.628C218.866 218.82 219.311 224 220.076 229.142C220.076 229.142 231.989 213.628 236.361 200.982C240.733 188.335 241.95 177.535 241.95 176.729C241.95 175.923 242.191 157.191 242.191 157.191C242.191 157.191 229.521 169.72 220.042 168.686Z" fill="white" stroke="#094A28" stroke-linecap="round" stroke-linejoin="round"/>
<path d="M242.06 165.143C242.108 160.929 242.156 157.191 242.156 157.191C242.156 157.191 229.521 169.72 220.041 168.686C220.041 168.686 220.488 171.046 220.866 174.278C222.106 175.081 223.482 175.677 224.936 176.04C229.321 176.872 234.237 174.551 237.571 170.565C238.801 169.096 240.43 167.093 242.06 165.143Z" fill="#094A28" stroke="#094A28" stroke-linecap="round" stroke-linejoin="round"/>
<path d="M250.728 127.073C257.406 127.073 262.82 122.005 262.82 115.753C262.82 109.501 257.406 104.433 250.728 104.433C244.05 104.433 238.636 109.501 238.636 115.753C238.636 122.005 244.05 127.073 250.728 127.073Z" fill="#094A28" stroke="#094A28" stroke-linecap="round" stroke-linejoin="round"/>
<path d="M201.762 135.532C201.762 135.532 195.273 133.868 194.2 130.552C193.128 127.236 197.012 115.597 209.647 109.635C222.282 103.672 233.872 106.976 238.959 108.302C244.046 109.628 247.738 112.125 251.072 120.922C254.406 129.72 254.577 136.527 253.526 139.843C252.9 141.826 252.138 143.768 251.243 145.656C251.243 145.656 244.754 146.306 242.994 143.829C241.234 141.352 241.942 128.874 234.394 125.903C226.846 122.932 212.458 124.603 208.959 127.561C205.46 130.519 201.762 135.532 201.762 135.532Z" fill="#094A28" stroke="#094A28" stroke-linecap="round" stroke-linejoin="round"/>
<path d="M200.712 133.374C200.712 133.374 202.293 142.834 202.293 147.978C202.293 153.121 206.679 160.266 208.961 162.282C211.243 164.298 218.791 171.079 223.177 171.912C227.563 172.744 232.478 170.416 235.812 166.43C239.146 162.445 245.642 154.48 245.642 154.48C247.091 154.632 248.55 154.301 249.768 153.544C250.985 152.786 251.885 151.65 252.31 150.331C254.07 145.513 253.19 140.039 250.207 139.375C247.223 138.712 245.12 142.028 245.12 142.028C245.12 142.028 242.659 133.068 239.503 128.582L234.939 122.08L240.761 115.194C240.825 115.12 240.872 115.033 240.899 114.941C240.926 114.848 240.932 114.751 240.918 114.656C240.904 114.561 240.869 114.47 240.816 114.388C240.763 114.306 240.693 114.235 240.61 114.18V114.18C240.454 114.074 240.26 114.029 240.069 114.054C239.878 114.08 239.705 114.174 239.586 114.317L233.887 121.254C233.887 121.254 222.654 119.427 212.824 124.076C202.994 128.725 200.712 133.374 200.712 133.374Z" fill="white" stroke="#094A28" stroke-linecap="round" stroke-linejoin="round"/>
<path d="M236.774 142.717L235.193 144.713" stroke="#094A28" stroke-linecap="round" stroke-linejoin="round"/>
<path d="M215.105 154.122C215.105 154.122 215.455 155.117 217.737 155.617C218.802 155.852 219.916 155.788 220.944 155.435C221.971 155.082 222.868 154.454 223.526 153.628" stroke="#094A28" stroke-linecap="round" stroke-linejoin="round"/>
<path d="M217.746 159.46C219.91 159.922 222.164 159.843 224.286 159.232C226.408 158.621 228.326 157.499 229.851 155.975C229.851 155.975 228.277 162.282 225.115 163.446C221.953 164.609 221.781 161.449 221.781 161.449L217.746 159.46Z" stroke="#094A28" stroke-linecap="round" stroke-linejoin="round"/>
<path d="M224.056 146.82C225.511 145.525 227.281 144.59 229.209 144.097C231.137 143.605 233.165 143.571 235.11 143.998" stroke="#094A28" stroke-width="2" stroke-linecap="round" stroke-linejoin="round"/>
<path d="M212.644 146.489C212.644 146.489 208.788 142.834 204.746 144.824" stroke="#094A28" stroke-width="2" stroke-linecap="round" stroke-linejoin="round"/>
<path d="M203.522 143.998L205.447 145.825" stroke="#094A28" stroke-linecap="round" stroke-linejoin="round"/>
<path d="M222.825 137.854C222.825 137.854 228.057 132.151 235.618 137.522" stroke="#094A28" stroke-linecap="round" stroke-linejoin="round"/>
<path d="M212.295 137.684C212.295 137.684 207.558 134.199 202.815 138.185" stroke="#094A28" stroke-linecap="round" stroke-linejoin="round"/>
<path d="M228.188 145.929C228.194 146.091 228.149 146.252 228.058 146.389C227.967 146.526 227.835 146.635 227.678 146.7C227.52 146.765 227.346 146.783 227.178 146.753C227.009 146.723 226.854 146.646 226.733 146.531C226.612 146.417 226.53 146.27 226.498 146.111C226.466 145.951 226.486 145.787 226.555 145.638C226.624 145.489 226.738 145.364 226.883 145.278C227.029 145.192 227.198 145.149 227.37 145.156C227.584 145.164 227.787 145.248 227.939 145.391C228.09 145.534 228.179 145.727 228.188 145.929V145.929Z" fill="#094A28"/>
<path d="M208.121 145.234C208.122 145.393 208.073 145.55 207.981 145.683C207.888 145.817 207.755 145.921 207.6 145.983C207.444 146.045 207.272 146.062 207.106 146.032C206.941 146.001 206.788 145.925 206.668 145.813C206.548 145.7 206.467 145.556 206.433 145.4C206.4 145.243 206.416 145.081 206.48 144.933C206.545 144.785 206.654 144.659 206.794 144.57C206.935 144.481 207.1 144.434 207.269 144.434C207.493 144.434 207.709 144.518 207.869 144.668C208.029 144.818 208.119 145.021 208.121 145.234Z" fill="#094A28"/>
<path d="M249.595 129.044C249.595 129.044 250.2 136.515 248.743 142.145L251.053 142.835C251.053 142.835 252.874 134.213 252.022 129.388L249.595 129.044Z" fill="#B7CDAF" stroke="#094A28" stroke-linecap="round" stroke-linejoin="round"/>
<path d="M233.892 107.19C236.434 108.39 238.698 110.054 240.556 112.086C242.413 114.118 243.826 116.479 244.713 119.031C247.504 127.535 247.139 130.182 248.837 131.098C250.535 132.015 253.821 132.594 253.938 130.526C254.055 128.459 253.299 119.232 248.439 113.51C244.795 109.154 236.931 107.307 233.892 107.19Z" fill="#B7CDAF" stroke="#094A28" stroke-linecap="round" stroke-linejoin="round"/>
<path d="M250.557 140.5C247.057 139.486 243.215 141.8 241.964 145.643C240.809 149.2 242.28 152.828 245.263 154.167C243.073 159.432 239.815 164.24 235.674 168.322C234.867 168.228 234.053 168.423 233.391 168.868C232.14 169.668 231.59 170.975 232.175 171.794C232.759 172.613 234.237 172.626 235.495 171.833C236.753 171.04 237.2 169.883 236.801 169.089C241.036 164.909 244.358 159.979 246.576 154.583C249.917 155.234 253.451 152.971 254.626 149.31C255.877 145.461 254.056 141.514 250.557 140.5Z" fill="#B7CDAF" stroke="#094A28" stroke-linecap="round" stroke-linejoin="round"/>
<path d="M253.526 148.016C252.935 150.474 250.591 152.074 248.288 151.58C245.985 151.085 244.597 148.686 245.188 146.228C245.779 143.771 248.123 142.171 250.426 142.659C252.729 143.146 254.117 145.552 253.526 148.016Z" fill="#B7CDAF" stroke="#094A28" stroke-linecap="round" stroke-linejoin="round"/>
<path d="M252.852 188.57C252.852 188.57 249.449 180.527 248.727 179.031C248.005 177.536 253.952 168.686 254.914 167.419C255.876 166.151 257.705 163.517 257.705 162.939C257.705 162.36 250.782 155.923 249.318 154.889C247.854 153.855 245.434 156.19 245.434 156.19C245.434 156.19 239.117 164.122 239.117 165.039C239.117 165.956 242.148 168.829 242.148 168.829C242.148 168.829 237.412 175.266 238.024 177.796C238.636 180.325 241.062 182.51 241.062 182.51L244.465 194.922L252.852 188.57Z" fill="white" stroke="#094A28" stroke-linecap="round" stroke-linejoin="round"/>
<path d="M242.156 168.797C242.156 168.797 246.28 165.695 245.923 164.779C245.781 164.506 245.554 164.283 245.272 164.138C244.99 163.994 244.667 163.936 244.349 163.972" stroke="#094A28" stroke-linecap="round" stroke-linejoin="round"/>
<path d="M245.078 157.191C245.442 157.191 256.132 163.855 255.891 164.993C255.679 165.833 255.353 166.644 254.922 167.405" stroke="#094A28" stroke-linecap="round" stroke-linejoin="round"/>
<path d="M246.294 156.157C246.294 156.157 256.379 162.132 256.605 163.166C256.651 163.506 256.608 163.851 256.481 164.171C256.354 164.492 256.147 164.778 255.877 165.006" stroke="#094A28" stroke-linecap="round" stroke-linejoin="round"/>
<path d="M247.388 155.123C247.388 155.123 257.96 161.905 257.699 162.926C257.409 163.763 256.957 164.541 256.366 165.221" stroke="#094A28" stroke-linecap="round" stroke-linejoin="round"/>
<path d="M254.31 187.653L238.025 196.522C238.025 196.522 259.17 244.103 263.061 250.54C266.952 256.977 277.401 258.473 282.873 256.75C288.345 255.027 291.012 244.682 289.191 240.313C287.369 235.943 274.239 216.847 267.928 207.302C261.618 197.757 254.31 187.653 254.31 187.653Z" fill="#094A28" stroke="#094A28" stroke-linecap="round" stroke-linejoin="round"/>
<path d="M245.703 212.776C245.703 212.776 263.576 245.286 268.155 251.789" stroke="#616161" stroke-linecap="round" stroke-linejoin="round"/>
<path d="M255.781 191.509L280.989 227.92" stroke="#616161" stroke-linecap="round" stroke-linejoin="round"/>
<path d="M184.302 144.414V123.484C184.302 122.677 183.963 121.903 183.36 121.332C182.756 120.762 181.938 120.441 181.085 120.441H127.114C126.261 120.441 125.443 120.762 124.839 121.332C124.236 121.903 123.897 122.677 123.897 123.484V144.414C123.897 145.221 124.236 145.995 124.839 146.566C125.443 147.136 126.261 147.457 127.114 147.457H173.461L184.013 157.061L181.903 147.347C182.588 147.176 183.195 146.796 183.629 146.266C184.063 145.736 184.299 145.085 184.302 144.414V144.414Z" fill="white" stroke="#094A28" stroke-linecap="round" stroke-linejoin="round"/>
<path d="M143.44 135.819C144.772 135.819 145.853 134.797 145.853 133.537C145.853 132.276 144.772 131.254 143.44 131.254C142.107 131.254 141.027 132.276 141.027 133.537C141.027 134.797 142.107 135.819 143.44 135.819Z" fill="#094A28"/>
<path d="M154.096 135.819C155.429 135.819 156.509 134.797 156.509 133.537C156.509 132.276 155.429 131.254 154.096 131.254C152.763 131.254 151.683 132.276 151.683 133.537C151.683 134.797 152.763 135.819 154.096 135.819Z" fill="#094A28"/>
<path d="M164.757 135.819C166.09 135.819 167.17 134.797 167.17 133.537C167.17 132.276 166.09 131.254 164.757 131.254C163.424 131.254 162.344 132.276 162.344 133.537C162.344 134.797 163.424 135.819 164.757 135.819Z" fill="#094A28"/>
<path d="M132.661 143.933V139.251L127.458 138.159C127.174 137.208 126.775 136.292 126.268 135.428L129.121 131.176L125.629 127.866L121.133 130.571C120.225 130.087 119.257 129.71 118.253 129.446L117.091 124.524H112.142L110.987 129.446C109.979 129.708 109.01 130.086 108.099 130.571L103.631 127.866L100.132 131.176L102.944 135.402C102.431 136.263 102.032 137.18 101.754 138.133L96.5506 139.225V143.907L101.754 145.005C102.031 145.965 102.43 146.888 102.944 147.756L100.084 152.008L103.583 155.318L108.079 152.613C108.99 153.097 109.96 153.477 110.966 153.744L112.121 158.66H117.07L118.232 153.744C119.236 153.476 120.203 153.096 121.113 152.613L125.608 155.318L129.107 152.008L126.268 147.756C126.774 146.894 127.173 145.98 127.458 145.031L132.661 143.933ZM114.63 147.639C113.366 147.639 112.13 147.284 111.078 146.62C110.027 145.955 109.207 145.011 108.724 143.906C108.24 142.801 108.113 141.585 108.36 140.412C108.606 139.239 109.215 138.162 110.109 137.316C111.004 136.47 112.143 135.895 113.383 135.661C114.623 135.428 115.908 135.548 117.077 136.005C118.245 136.463 119.243 137.238 119.946 138.232C120.648 139.227 121.023 140.396 121.023 141.592C121.023 142.386 120.858 143.172 120.537 143.906C120.215 144.64 119.744 145.306 119.151 145.868C118.557 146.429 117.852 146.875 117.077 147.179C116.301 147.482 115.47 147.639 114.63 147.639V147.639Z" fill="#094A28" stroke="#094A28" stroke-linecap="round" stroke-linejoin="round"/>
<path d="M89.0363 266.899H202.738V262.562H89.0363V266.899Z" fill="white" stroke="#094A28" stroke-linecap="round" stroke-linejoin="round"/>
<path d="M71.5758 266.899H170.676V262.562H71.5758V266.899Z" fill="white" stroke="#094A28" stroke-linecap="round" stroke-linejoin="round"/>
<path d="M69.6577 254.844H164.468L154.246 186.384H59.4356L69.6577 254.844Z" fill="white" stroke="#094A28" stroke-linecap="round" stroke-linejoin="round"/>
<path d="M65.7316 254.844H160.542L150.32 186.384H55.5095L65.7316 254.844Z" fill="#094A28" stroke="#094A28" stroke-linecap="round" stroke-linejoin="round"/>
<path d="M94.784 223.024L85.2699 266.899H109.736L119.25 223.024H94.784ZM111.379 236.028C111.339 236.212 111.233 236.377 111.079 236.496C110.925 236.614 110.732 236.679 110.533 236.678L96.6744 236.548C96.5447 236.546 96.4169 236.517 96.3007 236.463C96.1844 236.408 96.0826 236.33 96.0027 236.233C95.9229 236.136 95.8671 236.024 95.8393 235.904C95.8116 235.784 95.8127 235.66 95.8426 235.54L97.0938 230.618C97.1335 230.434 97.2394 230.269 97.3936 230.15C97.5478 230.032 97.7406 229.967 97.9393 229.968L111.805 230.091C111.934 230.094 112.061 230.124 112.176 230.179C112.292 230.234 112.393 230.312 112.472 230.409C112.551 230.506 112.606 230.618 112.633 230.737C112.661 230.857 112.659 230.98 112.63 231.099L111.379 236.028Z" fill="white" stroke="#094A28" stroke-linecap="round" stroke-linejoin="round"/>
<path d="M0 270.046L320 270.046V266.899L0 266.899V270.046Z" fill="#094A28" stroke="#094A28" stroke-linecap="round" stroke-linejoin="round"/>
<path d="M229.335 59.0229L227.314 53.4767H207.014L208.849 85.9868H256.048V59.0229H229.335Z" stroke="#094A28" stroke-linecap="round" stroke-linejoin="round"/>
<path d="M256.049 85.9872L260.077 56.2014H228.111" stroke="#094A28" stroke-linecap="round" stroke-linejoin="round"/>
<path d="M119.497 75.1306C122.493 63.0516 114.568 50.9629 101.797 48.1298C89.0269 45.2967 76.246 52.792 73.2507 64.871C70.2554 76.95 78.1798 89.0386 90.9505 91.8717C103.721 94.7048 116.502 87.2096 119.497 75.1306Z" stroke="#094A28" stroke-linecap="round" stroke-linejoin="round"/>
<path d="M114.996 74.2242C117.454 64.5012 111.114 54.734 100.834 52.4087C90.5541 50.0834 80.2277 56.0804 77.7692 65.8035C75.3107 75.5266 81.6511 85.2937 91.931 87.619C102.211 89.9444 112.537 83.9473 114.996 74.2242Z" stroke="#094A28" stroke-linecap="round" stroke-linejoin="round"/>
<path d="M98.9146 70.0049C98.9146 70.4794 98.7659 70.9433 98.4871 71.3378C98.2084 71.7324 97.8122 72.0399 97.3487 72.2215C96.8852 72.4031 96.3752 72.4506 95.8831 72.358C95.3911 72.2655 94.9391 72.037 94.5843 71.7014C94.2296 71.3659 93.988 70.9384 93.8901 70.473C93.7922 70.0076 93.8425 69.5251 94.0345 69.0867C94.2264 68.6483 94.5516 68.2736 94.9687 68.01C95.3859 67.7464 95.8763 67.6057 96.378 67.6057C97.0508 67.6057 97.696 67.8584 98.1717 68.3084C98.6474 68.7583 98.9146 69.3686 98.9146 70.0049V70.0049Z" stroke="#094A28" stroke-linecap="round" stroke-linejoin="round"/>
<path d="M96.3035 53.2617V57.7416" stroke="#094A28" stroke-linecap="round" stroke-linejoin="round"/>
<path d="M96.3035 82.3585V86.8319" stroke="#094A28" stroke-linecap="round" stroke-linejoin="round"/>
<path d="M83.7571 58.1777L87.098 61.3442" stroke="#094A28" stroke-linecap="round" stroke-linejoin="round"/>
<path d="M105.507 78.7502L108.848 81.9167" stroke="#094A28" stroke-linecap="round" stroke-linejoin="round"/>
<path d="M78.5592 70.0504H83.2887" stroke="#094A28" stroke-linecap="round" stroke-linejoin="round"/>
<path d="M109.317 70.0504H114.046" stroke="#094A28" stroke-linecap="round" stroke-linejoin="round"/>
<path d="M83.7571 81.9167L87.098 78.7502" stroke="#094A28" stroke-linecap="round" stroke-linejoin="round"/>
<path d="M105.507 61.3442L108.848 58.1777" stroke="#094A28" stroke-linecap="round" stroke-linejoin="round"/>
<path d="M93.8416 70.0047H86.8366" stroke="#094A28" stroke-linecap="round" stroke-linejoin="round"/>
<path d="M96.3783 67.6054V58.8602" stroke="#094A28" stroke-linecap="round" stroke-linejoin="round"/>
<path d="M189.614 53.4767H135.08V86.4225H189.614V53.4767Z" stroke="#094A28" stroke-linecap="round" stroke-linejoin="round"/>
<path d="M135.08 53.4767L162.344 69.9463L189.614 53.4767" stroke="#094A28" stroke-linecap="round" stroke-linejoin="round"/>
<path d="M135.08 86.4221L155.703 68.6456" stroke="#094A28" stroke-linecap="round" stroke-linejoin="round"/>
<path d="M189.354 86.4221L168.731 68.6456" stroke="#094A28" stroke-linecap="round" stroke-linejoin="round"/>
</g>
<defs>
<clipPath id="clip0_7_2">
<rect width="320" height="270" fill="white"/>
</clipPath>
</defs>
</svg>
