<svg xmlns="http://www.w3.org/2000/svg" width="46" height="46" viewBox="0 0 46 46" fill="none">
  <circle cx="23" cy="23" r="22.6635" fill="url(#paint0_linear_771_11836)" stroke="#F77411" stroke-width="0.672986"/>
  <path d="M23.2344 16.9512C21.9919 16.9512 20.7773 17.3196 19.7442 18.0099C18.7111 18.7002 17.9059 19.6813 17.4304 20.8292C16.9549 21.9771 16.8305 23.2402 17.0729 24.4588C17.3153 25.6774 17.9136 26.7967 18.7922 27.6753C19.6708 28.5539 20.7902 29.1522 22.0088 29.3946C23.2275 29.637 24.4906 29.5125 25.6386 29.0371C26.7865 28.5616 27.7677 27.7564 28.458 26.7233C29.1483 25.6903 29.5167 24.4757 29.5167 23.2332C29.5168 22.4082 29.3543 21.5913 29.0386 20.8292C28.7228 20.067 28.2601 19.3744 27.6767 18.7911C27.0934 18.2078 26.4008 17.745 25.6386 17.4293C24.8764 17.1136 24.0594 16.9512 23.2344 16.9512ZM23.2344 27.3115C22.4278 27.3115 21.6393 27.0723 20.9685 26.6242C20.2978 26.1761 19.7751 25.5391 19.4664 24.7939C19.1577 24.0487 19.077 23.2286 19.2343 22.4375C19.3917 21.6464 19.7801 20.9197 20.3505 20.3493C20.9209 19.779 21.6477 19.3906 22.4388 19.2332C23.23 19.0758 24.05 19.1566 24.7953 19.4653C25.5405 19.774 26.1775 20.2967 26.6256 20.9674C27.0738 21.6381 27.313 22.4266 27.313 23.2332C27.313 23.7688 27.2076 24.2992 27.0026 24.794C26.7977 25.2888 26.4973 25.7385 26.1185 26.1172C25.7398 26.4959 25.2902 26.7963 24.7953 27.0012C24.3004 27.2062 23.7701 27.3116 23.2344 27.3115Z" fill="#FCFCFC"/>
  <path d="M35.395 18.1902C35.3749 17.1753 35.1828 16.1712 34.8267 15.2207C34.519 14.4045 34.0374 13.665 33.4155 13.0534C32.8048 12.4309 32.0655 11.9493 31.2492 11.6423C30.2987 11.286 29.2945 11.0939 28.2796 11.0741C26.9751 11.0147 26.558 11 23.2355 11C19.913 11 19.4957 11.0138 18.1904 11.0741C17.1756 11.0941 16.1714 11.2863 15.2208 11.6423C14.4044 11.9496 13.6648 12.4311 13.0535 13.0534C12.4306 13.6642 11.949 14.4039 11.6424 15.2207C11.2864 16.1712 11.0942 17.1753 11.0742 18.1902C11.0138 19.4946 11 19.9117 11 23.234C11 26.5564 11.0138 26.9734 11.0741 28.2778C11.0942 29.2927 11.2863 30.2968 11.6424 31.2474C11.9491 32.0641 12.4307 32.8038 13.0535 33.4146C13.6651 34.0366 14.4046 34.518 15.2208 34.8257C16.1715 35.1816 17.1756 35.3738 18.1904 35.394C19.4957 35.4533 19.912 35.4681 23.2345 35.4681C26.557 35.4681 26.9741 35.4542 28.2786 35.394C29.2935 35.3739 30.2976 35.1817 31.2482 34.8257C32.0611 34.5115 32.7993 34.0308 33.4155 33.4146C34.0318 32.7984 34.5124 32.0602 34.8267 31.2474C35.1832 30.2969 35.3753 29.2928 35.395 28.2778C35.4543 26.9725 35.4681 26.5564 35.4681 23.234C35.4681 19.9117 35.4543 19.4946 35.395 18.1902ZM33.194 28.1781C33.1846 28.9539 33.0422 29.7224 32.7731 30.4501C32.5695 30.9777 32.2576 31.4568 31.8576 31.8566C31.4577 32.2564 30.9784 32.568 30.4507 32.7714C29.7231 33.0411 28.9545 33.1835 28.1786 33.1922C26.889 33.2515 26.5017 33.2634 23.2344 33.2634C19.9672 33.2634 19.5809 33.2515 18.2917 33.1922C17.5158 33.1834 16.7472 33.041 16.0197 32.7714C15.4882 32.575 15.0074 32.2623 14.6124 31.8563C14.2057 31.4621 13.8929 30.9815 13.6972 30.4501C13.4275 29.7226 13.2851 28.954 13.2764 28.1781C13.217 26.8886 13.2052 26.5012 13.2052 23.2341C13.2052 19.967 13.2181 19.5808 13.2764 18.2901C13.2862 17.5144 13.4285 16.746 13.6972 16.0182C13.8936 15.4868 14.2063 15.0061 14.6124 14.611C15.0067 14.2041 15.4878 13.8913 16.0197 13.6959C16.7472 13.4262 17.5158 13.2839 18.2917 13.2751C19.5813 13.2158 19.9687 13.2039 23.2344 13.2039C26.5002 13.2039 26.888 13.2168 28.1786 13.2751C28.9544 13.2849 29.7229 13.4272 30.4507 13.6959C30.9786 13.8993 31.4579 14.2111 31.858 14.6111C32.258 15.011 32.5697 15.4904 32.7731 16.0183C33.0428 16.7458 33.1852 17.5143 33.194 18.2901C33.2533 19.5808 33.2651 19.9671 33.2651 23.2341C33.2651 26.5012 33.2533 26.8875 33.194 28.1781Z" fill="#FCFCFC"/>
  <path d="M29.766 15.2373C29.3767 15.2374 29.0029 15.3921 28.7276 15.6674C28.4524 15.9427 28.2978 16.316 28.2979 16.7053C28.2979 17.0945 28.4526 17.4678 28.7278 17.7431C29.0031 18.0183 29.3765 18.173 29.7657 18.173C30.155 18.173 30.5284 18.0183 30.8036 17.7431C31.0789 17.4678 31.2336 17.0945 31.2336 16.7053C31.2337 16.316 31.0791 15.9427 30.8038 15.6674C30.5286 15.3921 30.1553 15.2374 29.766 15.2373Z" fill="#FCFCFC"/>
  <defs>
    <linearGradient id="paint0_linear_771_11836" x1="23" y1="0" x2="23" y2="46" gradientUnits="userSpaceOnUse">
      <stop stop-color="#FB9F14"/>
      <stop offset="1" stop-color="#F77411"/>
    </linearGradient>
  </defs>
</svg>