<svg xmlns="http://www.w3.org/2000/svg" width="46" height="46" viewBox="0 0 46 46" fill="none">
  <circle cx="23" cy="23" r="22.6635" fill="url(#paint0_linear_2023_10240)" stroke="#094A28" stroke-width="0.672986"/>
  <path d="M29.1049 25.0585C29.0572 25.0356 27.2734 24.1572 26.9564 24.0431C26.827 23.9967 26.6884 23.9513 26.5409 23.9513C26.3001 23.9513 26.0977 24.0713 25.9401 24.3071C25.7619 24.572 25.2225 25.2025 25.0559 25.3909C25.0341 25.4157 25.0044 25.4454 24.9866 25.4454C24.9706 25.4454 24.6946 25.3318 24.611 25.2955C22.6975 24.4643 21.245 22.4654 21.0459 22.1284C21.0174 22.0799 21.0162 22.0579 21.016 22.0579C21.023 22.0322 21.0873 21.9677 21.1205 21.9344C21.2177 21.8383 21.323 21.7116 21.4248 21.589C21.473 21.5309 21.5213 21.4728 21.5688 21.418C21.7165 21.2461 21.7823 21.1126 21.8586 20.958L21.8985 20.8777C22.0847 20.5077 21.9257 20.1955 21.8743 20.0947C21.8321 20.0104 21.0789 18.1926 20.9988 18.0016C20.8063 17.5407 20.5518 17.3262 20.1982 17.3262C20.1654 17.3262 20.1982 17.3262 20.0606 17.332C19.8931 17.339 18.9807 17.4592 18.5773 17.7135C18.1495 17.9832 17.4258 18.8429 17.4258 20.3548C17.4258 21.7156 18.2893 23.0004 18.6601 23.489C18.6693 23.5013 18.6862 23.5264 18.7108 23.5623C20.1306 25.6359 21.9007 27.1726 23.695 27.8894C25.4225 28.5794 26.2405 28.6592 26.7055 28.6592H26.7056C26.9011 28.6592 27.0575 28.6439 27.1955 28.6303L27.283 28.6219C27.8798 28.569 29.1912 27.8895 29.4895 27.0605C29.7245 26.4076 29.7865 25.6942 29.6301 25.4353C29.523 25.2592 29.3385 25.1707 29.1049 25.0585Z" fill="#FCFCFC"/>
  <path d="M23.4512 11C16.8245 11 11.4333 16.3507 11.4333 22.9276C11.4333 25.0548 12.0025 27.1371 13.081 28.9595L11.0168 35.0483C10.9784 35.1618 11.007 35.2874 11.0909 35.3728C11.1516 35.4347 11.2338 35.4681 11.3177 35.4681C11.3499 35.4681 11.3823 35.4632 11.414 35.4531L17.7629 33.4356C19.5003 34.3639 21.464 34.8539 23.4513 34.8539C30.0774 34.854 35.4681 29.5038 35.4681 22.9276C35.4681 16.3507 30.0774 11 23.4512 11ZM23.4512 32.3694C21.5812 32.3694 19.77 31.8294 18.2131 30.8078C18.1608 30.7734 18.1 30.7558 18.0389 30.7558C18.0065 30.7558 17.9741 30.7607 17.9426 30.7707L14.7621 31.7817L15.7888 28.7526C15.822 28.6546 15.8054 28.5465 15.7443 28.4629C14.5587 26.8429 13.9319 24.9289 13.9319 22.9276C13.9319 17.7208 18.2023 13.4846 23.4511 13.4846C28.6994 13.4846 32.9692 17.7208 32.9692 22.9276C32.9693 28.1339 28.6996 32.3694 23.4512 32.3694Z" fill="#FCFCFC"/>
  <defs>
    <linearGradient id="paint0_linear_2023_10240" x1="23" y1="0" x2="23" y2="46" gradientUnits="userSpaceOnUse">
      <stop stop-color="#42BA14"/>
      <stop offset="1" stop-color="#3EC67F"/>
    </linearGradient>
  </defs>
</svg>