<svg width="46" height="46" viewBox="0 0 46 46" fill="none" xmlns="http://www.w3.org/2000/svg">
<circle cx="23" cy="23" r="22.6635" fill="url(#paint0_linear_7_65)" stroke="#F77411" stroke-width="0.672986"/>
<path d="M23.6451 13.1111C24.3276 13.1149 26.035 13.1314 27.8492 13.204L28.4925 13.2321C30.3191 13.3186 32.1441 13.4663 33.0493 13.7187C34.2567 14.0579 35.2057 15.0476 35.5264 16.3021C36.0371 18.2943 36.101 22.1826 36.1089 23.1235L36.1101 23.3185V23.3322C36.1101 23.3322 36.1101 23.3369 36.1101 23.346L36.1089 23.541C36.101 24.4819 36.0371 28.3702 35.5264 30.3624C35.2012 31.6215 34.2522 32.6113 33.0493 32.9458C32.1441 33.1982 30.3191 33.3459 28.4925 33.4324L27.8492 33.4604C26.035 33.5331 24.3276 33.5496 23.6451 33.5534L23.3456 33.5544H23.3323C23.3323 33.5544 23.3278 33.5544 23.319 33.5544L23.0197 33.5534C21.5753 33.5455 15.5361 33.4802 13.6153 32.9458C12.4079 32.6066 11.459 31.6169 11.1382 30.3624C10.6275 28.3702 10.5636 24.4819 10.5557 23.541V23.1235C10.5636 22.1826 10.6275 18.2943 11.1382 16.3021C11.4634 15.0429 12.4124 14.0532 13.6153 13.7187C15.5361 13.1842 21.5753 13.1191 23.0197 13.1111H23.6451ZM20.7767 18.86V27.8044L28.4434 23.3322L20.7767 18.86Z" fill="#FCFCFC"/>
<defs>
<linearGradient id="paint0_linear_7_65" x1="23" y1="0" x2="23" y2="46" gradientUnits="userSpaceOnUse">
<stop stop-color="#FB9F14"/>
<stop offset="1" stop-color="#F77411"/>
</linearGradient>
</defs>
</svg>
