<svg width="45" height="44" viewBox="0 0 45 44" fill="none" xmlns="http://www.w3.org/2000/svg">
<path d="M44.6635 22C44.6635 33.9621 34.8948 43.6635 22.8394 43.6635C10.784 43.6635 1.01533 33.9621 1.01533 22C1.01533 10.0379 10.784 0.336493 22.8394 0.336493C34.8948 0.336493 44.6635 10.0379 44.6635 22Z" fill="url(#paint0_linear_9_16)" stroke="#094A28" stroke-width="0.672986"/>
<path d="M23.4609 12.5411C24.1184 12.5447 25.7636 12.5604 27.5116 12.63L28.1314 12.6568C29.8913 12.7395 31.6497 12.8808 32.5219 13.1222C33.6852 13.4467 34.5995 14.3933 34.9086 15.5933C35.4006 17.4989 35.4622 21.2181 35.4698 22.1181L35.4709 22.3047V22.3177C35.4709 22.3177 35.4709 22.3223 35.4709 22.3309L35.4698 22.5174C35.4622 23.4175 35.4006 27.1367 34.9086 29.0423C34.5952 30.2467 33.6809 31.1934 32.5219 31.5134C31.6497 31.7548 29.8913 31.896 28.1314 31.9788L27.5116 32.0056C25.7636 32.0751 24.1184 32.0909 23.4609 32.0945L23.1723 32.0955H23.1595C23.1595 32.0955 23.1552 32.0955 23.1467 32.0955L22.8584 32.0945C21.4667 32.087 15.6478 32.0245 13.7972 31.5134C12.6338 31.1889 11.7195 30.2423 11.4104 29.0423C10.9184 27.1367 10.8569 23.4175 10.8492 22.5174V22.1181C10.8569 21.2181 10.9184 17.4989 11.4104 15.5933C11.7238 14.3889 12.6381 13.4422 13.7972 13.1222C15.6478 12.611 21.4667 12.5487 22.8584 12.5411H23.4609ZM20.6972 18.04V26.5955L28.0841 22.3177L20.6972 18.04Z" fill="#FCFCFC"/>
<defs>
<linearGradient id="paint0_linear_9_16" x1="22.8394" y1="0" x2="22.8394" y2="44" gradientUnits="userSpaceOnUse">
<stop stop-color="#42BA14"/>
<stop offset="1" stop-color="#3EC67F"/>
</linearGradient>
</defs>
</svg>
