<svg width="20" height="20" viewBox="0 0 20 20" fill="none" xmlns="http://www.w3.org/2000/svg">
<g id="card">
<g id="vuesax/bold/card">
<g id="card_2">
<path id="Vector" d="M18.3333 6.29171C18.3333 6.84171 17.8833 7.29171 17.3333 7.29171H2.66666C2.11666 7.29171 1.66666 6.84171 1.66666 6.29171V6.28337C1.66666 4.37504 3.20832 2.83337 5.11666 2.83337H14.875C16.7833 2.83337 18.3333 4.38337 18.3333 6.29171Z" fill="#F77411"/>
<path id="Vector_2" d="M1.66666 9.54163V13.7166C1.66666 15.625 3.20832 17.1666 5.11666 17.1666H14.875C16.7833 17.1666 18.3333 15.6166 18.3333 13.7083V9.54163C18.3333 8.99163 17.8833 8.54163 17.3333 8.54163H2.66666C2.11666 8.54163 1.66666 8.99163 1.66666 9.54163ZM6.66666 14.375H4.99999C4.65832 14.375 4.37499 14.0916 4.37499 13.75C4.37499 13.4083 4.65832 13.125 4.99999 13.125H6.66666C7.00832 13.125 7.29166 13.4083 7.29166 13.75C7.29166 14.0916 7.00832 14.375 6.66666 14.375ZM12.0833 14.375H8.74999C8.40832 14.375 8.12499 14.0916 8.12499 13.75C8.12499 13.4083 8.40832 13.125 8.74999 13.125H12.0833C12.425 13.125 12.7083 13.4083 12.7083 13.75C12.7083 14.0916 12.425 14.375 12.0833 14.375Z" fill="#5F259F"/>
</g>
</g>
</g>
</svg>
