<svg width="20" height="20" viewBox="0 0 20 20" fill="none" xmlns="http://www.w3.org/2000/svg">
<g id="material-symbols:arrow-back-ios-rounded">
<path id="Vector" d="M14.4908 15.7625L19.8258 10.4433C19.8892 10.3799 19.9341 10.3113 19.9607 10.2375C19.9873 10.1636 20.0004 10.0844 20 10C20 9.91557 19.9867 9.83641 19.9601 9.76253C19.9335 9.68865 19.8888 9.62005 19.8258 9.55673L14.4908 4.22164C14.343 4.07388 14.1583 4 13.9367 4C13.715 4 13.5251 4.07916 13.3667 4.23747C13.2084 4.39578 13.1293 4.58047 13.1293 4.79156C13.1293 5.00264 13.2084 5.18734 13.3667 5.34565L18.0211 10L13.3667 14.6544C13.219 14.8021 13.1451 14.9843 13.1451 15.2008C13.1451 15.4174 13.2243 15.6046 13.3826 15.7625C13.5409 15.9208 13.7256 16 13.9367 16C14.1477 16 14.3324 15.9208 14.4908 15.7625Z" fill="#666666"/>
</g>
</svg>
