<svg xmlns="http://www.w3.org/2000/svg" width="46" height="46" viewBox="0 0 46 46" fill="none">
  <circle cx="23" cy="23" r="22.6635" fill="white" stroke="#03364D" stroke-width="0.672986"/>
  <path d="M16.4688 23.529H19.6545V35.8394C19.6545 36.0824 19.8643 36.2794 20.1232 36.2794H25.5248C25.7837 36.2794 25.9935 36.0824 25.9935 35.8394V23.587H29.6558C29.8939 23.587 30.0943 23.4193 30.1214 23.1972L30.6777 18.6652C30.6929 18.5405 30.6509 18.4156 30.562 18.3221C30.473 18.2284 30.3457 18.1748 30.2121 18.1748H25.9937V15.3339C25.9937 14.4775 26.485 14.0433 27.454 14.0433C27.5921 14.0433 30.2121 14.0433 30.2121 14.0433C30.471 14.0433 30.6809 13.8462 30.6809 13.6033V9.44325C30.6809 9.2002 30.471 9.00326 30.2121 9.00326H26.411C26.3842 9.00202 26.3246 9 26.2369 9C25.5774 9 23.2849 9.12153 21.474 10.6852C19.4675 12.4181 19.7465 14.4929 19.8131 14.8527V18.1748H16.4688C16.2098 18.1748 16 18.3717 16 18.6148V23.0889C16 23.332 16.2098 23.529 16.4688 23.529Z" fill="#03364D"/>
  <defs>
    <linearGradient id="paint0_linear_5070_12141" x1="0" y1="0" x2="51.8769" y2="10.0758" gradientUnits="userSpaceOnUse">
      <stop stop-color="#014868"/>
      <stop offset="0.460225" stop-color="#001E42"/>
      <stop offset="1" stop-color="#451338"/>
    </linearGradient>
  </defs>
</svg>