<svg xmlns="http://www.w3.org/2000/svg" width="46" height="46" viewBox="0 0 46 46" fill="none">
  <circle cx="23" cy="23" r="22.6635" fill="white" stroke="#03364D" stroke-width="0.672986"/>
  <path d="M23.2349 16.951C21.9924 16.951 20.7778 17.3194 19.7447 18.0097C18.7116 18.7 17.9063 19.6811 17.4309 20.829C16.9554 21.9769 16.8309 23.24 17.0734 24.4586C17.3158 25.6772 17.9141 26.7966 18.7927 27.6751C19.6713 28.5537 20.7907 29.152 22.0093 29.3944C23.228 29.6368 24.4911 29.5124 25.6391 29.0369C26.787 28.5614 27.7682 27.7562 28.4585 26.7232C29.1488 25.6901 29.5172 24.4755 29.5172 23.233C29.5172 22.4081 29.3548 21.5912 29.039 20.829C28.7233 20.0668 28.2606 19.3743 27.6772 18.7909C27.0939 18.2076 26.4013 17.7448 25.6391 17.4291C24.8769 17.1135 24.0599 16.951 23.2349 16.951ZM23.2349 27.3113C22.4283 27.3113 21.6397 27.0721 20.969 26.624C20.2983 26.1759 19.7756 25.5389 19.4669 24.7937C19.1582 24.0485 19.0774 23.2285 19.2348 22.4373C19.3922 21.6462 19.7806 20.9195 20.351 20.3492C20.9214 19.7788 21.6481 19.3904 22.4393 19.233C23.2304 19.0757 24.0505 19.1564 24.7957 19.4651C25.541 19.7738 26.178 20.2965 26.6261 20.9672C27.0743 21.6379 27.3134 22.4264 27.3134 23.233C27.3135 23.7686 27.2081 24.299 27.0031 24.7938C26.7982 25.2887 26.4978 25.7383 26.119 26.117C25.7403 26.4957 25.2906 26.7961 24.7958 27.001C24.3009 27.206 23.7705 27.3114 23.2349 27.3113Z" fill="#03364D"/>
  <path d="M35.395 18.1902C35.3749 17.1753 35.1828 16.1712 34.8267 15.2207C34.519 14.4045 34.0374 13.665 33.4155 13.0534C32.8048 12.4309 32.0655 11.9493 31.2492 11.6423C30.2987 11.286 29.2945 11.0939 28.2796 11.0741C26.9751 11.0147 26.558 11 23.2355 11C19.913 11 19.4957 11.0138 18.1904 11.0741C17.1756 11.0941 16.1714 11.2863 15.2208 11.6423C14.4044 11.9496 13.6648 12.4311 13.0535 13.0534C12.4306 13.6642 11.949 14.4039 11.6424 15.2207C11.2864 16.1712 11.0942 17.1753 11.0742 18.1902C11.0138 19.4946 11 19.9117 11 23.234C11 26.5564 11.0138 26.9734 11.0741 28.2778C11.0942 29.2927 11.2863 30.2968 11.6424 31.2474C11.9491 32.0641 12.4307 32.8038 13.0535 33.4146C13.6651 34.0366 14.4046 34.518 15.2208 34.8257C16.1715 35.1816 17.1756 35.3738 18.1904 35.394C19.4957 35.4533 19.912 35.4681 23.2345 35.4681C26.557 35.4681 26.9741 35.4542 28.2786 35.394C29.2935 35.3739 30.2976 35.1817 31.2482 34.8257C32.0611 34.5115 32.7993 34.0308 33.4155 33.4146C34.0318 32.7984 34.5124 32.0602 34.8267 31.2474C35.1832 30.2969 35.3753 29.2928 35.395 28.2778C35.4543 26.9725 35.4681 26.5564 35.4681 23.234C35.4681 19.9117 35.4543 19.4946 35.395 18.1902ZM33.194 28.1781C33.1846 28.9539 33.0422 29.7224 32.7731 30.4501C32.5695 30.9777 32.2576 31.4568 31.8576 31.8566C31.4577 32.2564 30.9784 32.568 30.4507 32.7714C29.7231 33.0411 28.9545 33.1835 28.1786 33.1922C26.889 33.2515 26.5017 33.2634 23.2344 33.2634C19.9672 33.2634 19.5809 33.2515 18.2917 33.1922C17.5158 33.1834 16.7472 33.041 16.0197 32.7714C15.4882 32.575 15.0074 32.2623 14.6124 31.8563C14.2057 31.4621 13.8929 30.9815 13.6972 30.4501C13.4275 29.7226 13.2851 28.954 13.2764 28.1781C13.217 26.8886 13.2052 26.5012 13.2052 23.2341C13.2052 19.967 13.2181 19.5808 13.2764 18.2901C13.2862 17.5144 13.4285 16.746 13.6972 16.0182C13.8936 15.4868 14.2063 15.0061 14.6124 14.611C15.0067 14.2041 15.4878 13.8913 16.0197 13.6959C16.7472 13.4262 17.5158 13.2839 18.2917 13.2751C19.5813 13.2158 19.9687 13.2039 23.2344 13.2039C26.5002 13.2039 26.888 13.2168 28.1786 13.2751C28.9544 13.2849 29.7229 13.4272 30.4507 13.6959C30.9786 13.8993 31.4579 14.2111 31.858 14.6111C32.258 15.011 32.5697 15.4904 32.7731 16.0183C33.0428 16.7458 33.1852 17.5143 33.194 18.2901C33.2533 19.5808 33.2651 19.9671 33.2651 23.2341C33.2651 26.5012 33.2533 26.8875 33.194 28.1781Z" fill="#03364D"/>
  <path d="M29.7665 15.2372C29.3772 15.2373 29.0034 15.3919 28.7281 15.6672C28.4529 15.9425 28.2983 16.3159 28.2983 16.7051C28.2984 17.0944 28.453 17.4677 28.7283 17.743C29.0036 18.0182 29.3769 18.1728 29.7662 18.1728C30.1555 18.1728 30.5289 18.0182 30.8041 17.743C31.0794 17.4677 31.2341 17.0944 31.2341 16.7051C31.2341 16.3159 31.0795 15.9425 30.8043 15.6672C30.5291 15.3919 30.1558 15.2373 29.7665 15.2372Z" fill="#03364D"/>
  <defs>
    <linearGradient id="paint0_linear_5070_12142" x1="0" y1="0" x2="51.8769" y2="10.0758" gradientUnits="userSpaceOnUse">
      <stop stop-color="#014868"/>
      <stop offset="0.460225" stop-color="#001E42"/>
      <stop offset="1" stop-color="#451338"/>
    </linearGradient>
  </defs>
</svg>