<svg xmlns="http://www.w3.org/2000/svg" width="46" height="46" viewBox="0 0 46 46" fill="none">
  <circle cx="23" cy="23" r="22.6635" fill="white" stroke="#03364D" stroke-width="0.672986"/>
  <path d="M29.1049 25.0584C29.0572 25.0355 27.2734 24.1571 26.9564 24.043C26.827 23.9965 26.6884 23.9512 26.5409 23.9512C26.3001 23.9512 26.0977 24.0712 25.9401 24.307C25.7619 24.5719 25.2225 25.2024 25.0559 25.3907C25.0341 25.4156 25.0044 25.4453 24.9866 25.4453C24.9706 25.4453 24.6946 25.3316 24.611 25.2953C22.6975 24.4641 21.245 22.4653 21.0459 22.1282C21.0174 22.0798 21.0162 22.0578 21.016 22.0578C21.023 22.0321 21.0873 21.9676 21.1205 21.9343C21.2177 21.8382 21.323 21.7115 21.4248 21.5889C21.473 21.5308 21.5213 21.4727 21.5688 21.4179C21.7165 21.2459 21.7823 21.1125 21.8586 20.9579L21.8985 20.8776C22.0847 20.5076 21.9257 20.1954 21.8743 20.0946C21.8321 20.0102 21.0789 18.1924 20.9988 18.0015C20.8063 17.5406 20.5518 17.326 20.1982 17.326C20.1654 17.326 20.1982 17.326 20.0606 17.3318C19.8931 17.3389 18.9807 17.459 18.5773 17.7133C18.1495 17.983 17.4258 18.8428 17.4258 20.3547C17.4258 21.7154 18.2893 23.0003 18.6601 23.4889C18.6693 23.5012 18.6862 23.5262 18.7108 23.5622C20.1306 25.6357 21.9007 27.1725 23.695 27.8893C25.4225 28.5793 26.2405 28.6591 26.7055 28.6591H26.7056C26.9011 28.6591 27.0575 28.6437 27.1955 28.6301L27.283 28.6218C27.8798 28.5689 29.1912 27.8894 29.4895 27.0604C29.7245 26.4074 29.7865 25.6941 29.6301 25.4352C29.523 25.2591 29.3385 25.1705 29.1049 25.0584Z" fill="#03364D"/>
  <path d="M23.4512 11C16.8245 11 11.4333 16.3507 11.4333 22.9276C11.4333 25.0548 12.0025 27.1371 13.081 28.9595L11.0168 35.0483C10.9784 35.1618 11.007 35.2874 11.0909 35.3728C11.1516 35.4347 11.2338 35.4681 11.3177 35.4681C11.3499 35.4681 11.3823 35.4632 11.414 35.4531L17.7629 33.4356C19.5003 34.3639 21.464 34.8539 23.4513 34.8539C30.0774 34.854 35.4681 29.5038 35.4681 22.9276C35.4681 16.3507 30.0774 11 23.4512 11ZM23.4512 32.3694C21.5812 32.3694 19.77 31.8294 18.2131 30.8078C18.1608 30.7734 18.1 30.7558 18.0389 30.7558C18.0065 30.7558 17.9741 30.7607 17.9426 30.7707L14.7621 31.7817L15.7888 28.7526C15.822 28.6546 15.8054 28.5465 15.7443 28.4629C14.5587 26.8429 13.9319 24.9289 13.9319 22.9276C13.9319 17.7208 18.2023 13.4846 23.4511 13.4846C28.6994 13.4846 32.9692 17.7208 32.9692 22.9276C32.9693 28.1339 28.6996 32.3694 23.4512 32.3694Z" fill="#03364D"/>
  <defs>
    <linearGradient id="paint0_linear_5070_12143" x1="0" y1="0" x2="51.8769" y2="10.0758" gradientUnits="userSpaceOnUse">
      <stop stop-color="#014868"/>
      <stop offset="0.460225" stop-color="#001E42"/>
      <stop offset="1" stop-color="#451338"/>
    </linearGradient>
  </defs>
</svg>