<svg xmlns="http://www.w3.org/2000/svg" width="31" height="31" viewBox="0 0 31 31" fill="none">
  <path d="M15.6451 5.11108C16.3276 5.11484 18.035 5.13135 19.8492 5.20402L20.4925 5.23206C22.3191 5.31854 24.1441 5.46628 25.0493 5.71867C26.2567 6.05785 27.2057 7.04756 27.5264 8.3021C28.0371 10.2943 28.101 14.1825 28.1089 15.1235L28.1101 15.3185V15.3322C28.1101 15.3322 28.1101 15.3369 28.1101 15.346L28.1089 15.5409C28.101 16.4819 28.0371 20.3702 27.5264 22.3624C27.2012 23.6215 26.2522 24.6112 25.0493 24.9458C24.1441 25.1981 22.3191 25.3458 20.4925 25.4324L19.8492 25.4603C18.035 25.533 16.3276 25.5495 15.6451 25.5534L15.3456 25.5544H15.3323C15.3323 25.5544 15.3278 25.5544 15.319 25.5544L15.0197 25.5534C13.5753 25.5454 7.53608 25.4801 5.61532 24.9458C4.40793 24.6065 3.45895 23.6169 3.13816 22.3624C2.62748 20.3702 2.56364 16.4819 2.55566 15.5409V15.1235C2.56364 14.1825 2.62748 10.2943 3.13816 8.3021C3.4634 7.04291 4.41238 6.05322 5.61532 5.71867C7.53608 5.18421 13.5753 5.11903 15.0197 5.11108H15.6451ZM12.7767 10.86V19.8044L20.4434 15.3322L12.7767 10.86Z" fill="#FCFCFC"/>
</svg>