<svg xmlns="http://www.w3.org/2000/svg" width="16" height="16" viewBox="0 0 16 16" fill="none">
<g id="vuesax/bold/add-circle">
<g id="add-circle">
<path id="Vector" d="M8.00016 1.33331C4.32683 1.33331 1.3335 4.32665 1.3335 7.99998C1.3335 11.6733 4.32683 14.6666 8.00016 14.6666C11.6735 14.6666 14.6668 11.6733 14.6668 7.99998C14.6668 4.32665 11.6735 1.33331 8.00016 1.33331ZM10.6668 8.49998H8.50016V10.6666C8.50016 10.94 8.2735 11.1666 8.00016 11.1666C7.72683 11.1666 7.50016 10.94 7.50016 10.6666V8.49998H5.3335C5.06016 8.49998 4.8335 8.27331 4.8335 7.99998C4.8335 7.72665 5.06016 7.49998 5.3335 7.49998H7.50016V5.33331C7.50016 5.05998 7.72683 4.83331 8.00016 4.83331C8.2735 4.83331 8.50016 5.05998 8.50016 5.33331V7.49998H10.6668C10.9402 7.49998 11.1668 7.72665 11.1668 7.99998C11.1668 8.27331 10.9402 8.49998 10.6668 8.49998Z" fill="#FB9F14"/>
</g>
</g>
</svg>