<svg width="50" height="50" viewBox="0 0 50 50" fill="none" xmlns="http://www.w3.org/2000/svg">
<g id="Icon/48 place holder">
<rect width="50" height="50" rx="25" fill="#FFDCBD"/>
<g id="Group 34256">
<g id="Group 34246">
<path id="Traced layer" opacity="0.3" fill-rule="evenodd" clip-rule="evenodd" d="M22.6047 31.0969C22.2324 31.2788 22.2121 31.3462 22.179 32.5077C22.1463 33.6537 22.1115 33.7975 21.7911 34.1097C21.5744 34.321 21.1449 34.5109 20.8823 34.5115C20.4612 34.5125 20.0812 34.7838 20.0101 35.1342C19.9581 35.3904 20.1122 35.723 20.3529 35.8742C20.7075 36.097 21.5295 36.013 22.2086 35.6845C22.604 35.4931 23.1742 34.9774 23.4035 34.6037C23.7074 34.1081 23.7874 33.6885 23.7874 32.5897C23.7874 31.7152 23.7769 31.6034 23.6772 31.4129C23.5971 31.26 23.5045 31.1743 23.3391 31.1003C23.0592 30.975 22.856 30.9741 22.6047 31.0969ZM25.1042 31.1105C24.6958 31.327 24.6972 31.3187 24.6973 33.4967C24.6974 35.6498 24.6985 35.657 25.0664 35.8842C25.4475 36.1197 26.0015 35.9817 26.209 35.5997C26.2934 35.4446 26.3026 35.2361 26.3027 33.4967C26.3028 31.7115 26.2953 31.5529 26.2036 31.3935C26.083 31.1839 25.7541 31 25.5 31C25.397 31 25.2189 31.0497 25.1042 31.1105ZM27.6568 31.1013C27.4963 31.1747 27.4007 31.2641 27.3224 31.4138C27.2232 31.6032 27.2126 31.7166 27.2126 32.5897C27.2126 33.6885 27.2926 34.1081 27.5965 34.6037C27.8258 34.9774 28.396 35.4931 28.7914 35.6845C29.4705 36.013 30.2925 36.097 30.6471 35.8742C30.8878 35.723 31.0419 35.3904 30.9899 35.1342C30.9188 34.7838 30.5388 34.5125 30.1177 34.5115C29.8551 34.5109 29.4256 34.321 29.2089 34.1097C28.8885 33.7975 28.8537 33.6537 28.821 32.5077C28.7877 31.3401 28.7677 31.2755 28.3839 31.0945C28.1229 30.9713 27.9369 30.9731 27.6568 31.1013Z" fill="#2C2B46"/>
<path id="Traced layer_2" fill-rule="evenodd" clip-rule="evenodd" d="M14.5887 15.0812C14.4342 15.12 14.1045 15.2561 13.856 15.3837C13.0677 15.7887 12.4708 16.5136 12.1447 17.4623L12.0225 17.8177L12.0065 22.2817C11.9884 27.3055 11.9813 27.194 12.3708 28.0167C12.7802 28.8814 13.6061 29.5854 14.5267 29.8543C14.6986 29.9045 15.1448 29.9514 15.6214 29.9695L16.426 30L16.4267 28.8033C16.4276 27.4402 16.4742 27.137 16.7831 26.4854C17.0678 25.8849 17.6735 25.265 18.2724 24.9611C19.0704 24.5562 18.7503 24.5734 25.5 24.5734C32.2497 24.5734 31.9296 24.5562 32.7276 24.9611C33.3265 25.265 33.9322 25.8849 34.2169 26.4854C34.5258 27.137 34.5724 27.4402 34.5733 28.8033L34.574 30L35.3786 29.9695C35.8552 29.9514 36.3014 29.9045 36.4733 29.8543C37.3939 29.5854 38.2198 28.8814 38.6292 28.0167C39.0187 27.194 39.0116 27.3055 38.9935 22.2817L38.9775 17.8177L38.8553 17.4623C38.5196 16.4858 37.9253 15.7766 37.0976 15.365C36.8267 15.2302 36.4793 15.0933 36.3256 15.0607C35.8865 14.9676 14.9631 14.9873 14.5887 15.0812ZM31.2303 18.2586C31.607 18.5506 31.7121 18.9718 31.5024 19.3489C31.2996 19.7136 31.1359 19.7655 30.248 19.7474C29.5792 19.7337 29.4655 19.718 29.3431 19.6224C28.9684 19.3297 28.9074 18.8079 29.2024 18.4192C29.3997 18.1591 29.5693 18.1172 30.3631 18.1322C30.9976 18.1442 31.1024 18.1595 31.2303 18.2586ZM34.995 18.2143C35.096 18.2669 35.2346 18.396 35.3031 18.5013C35.4727 18.7623 35.4492 19.249 35.2566 19.4627C35.0177 19.7277 34.8965 19.7591 34.1097 19.7591C33.435 19.7591 33.3619 19.7491 33.197 19.6349C32.691 19.2846 32.7356 18.507 33.2775 18.2289C33.5745 18.0766 34.712 18.0669 34.995 18.2143ZM19.4389 26.2711C18.9233 26.3761 18.375 26.828 18.1566 27.328C18.0437 27.5865 18.0338 27.6917 18.0181 28.7959L18.0013 29.9853H25.5H32.9988L32.9819 28.7959C32.9662 27.6917 32.9563 27.5865 32.8434 27.328C32.7043 27.0095 32.3251 26.6017 32.0141 26.4362C31.8974 26.3741 31.6746 26.2982 31.5189 26.2676C31.1689 26.1988 19.7779 26.2021 19.4389 26.2711Z" fill="#2C2B46"/>
</g>
</g>
</g>
</svg>
