<svg width="14" height="16" viewBox="0 0 14 16" fill="none" xmlns="http://www.w3.org/2000/svg">
<g id="Calender 2">
<path id="Vector" d="M2.37405 14.0301L2.72672 13.5447L2.37405 14.0301ZM1.63661 13.2927L2.12202 12.94L1.63661 13.2927ZM12.3634 13.2927L11.878 12.94L12.3634 13.2927ZM11.626 14.0301L11.9786 14.5155L11.626 14.0301ZM11.626 3.30332L11.9786 2.81791L11.626 3.30332ZM12.3634 4.04076L11.878 4.39343L12.3634 4.04076ZM2.37405 3.30332L2.72672 3.78873L2.37405 3.30332ZM1.63661 4.04076L2.12202 4.39343L1.63661 4.04076ZM11.8119 10.7077L11.718 10.1151L11.8119 10.7077ZM9.04104 13.4786L8.44843 13.3847L9.04104 13.4786ZM8.4 3.33337C8.4 3.66474 8.66863 3.93337 9 3.93337C9.33137 3.93337 9.6 3.66474 9.6 3.33337H8.4ZM9.6 1.33337C9.6 1.002 9.33137 0.733374 9 0.733374C8.66863 0.733374 8.4 1.002 8.4 1.33337H9.6ZM4.4 3.33337C4.4 3.66474 4.66863 3.93337 5 3.93337C5.33137 3.93337 5.6 3.66474 5.6 3.33337H4.4ZM5.6 1.33337C5.6 1.002 5.33137 0.733374 5 0.733374C4.66863 0.733374 4.4 1.002 4.4 1.33337H5.6ZM12.9807 10.6667L13.5804 10.6873L12.9807 10.6667ZM9 14.6474L9.02055 15.2471L9 14.6474ZM7 14.0667C5.73672 14.0667 4.83746 14.0659 4.1428 13.9906C3.45937 13.9166 3.0455 13.7763 2.72672 13.5447L2.02138 14.5155C2.57882 14.9205 3.22801 15.0985 4.01355 15.1836C4.78785 15.2675 5.76345 15.2667 7 15.2667V14.0667ZM0.4 8.66671C0.4 9.90325 0.399176 10.8789 0.483067 11.6532C0.568174 12.4387 0.746198 13.0879 1.1512 13.6453L2.12202 12.94C1.89041 12.6212 1.75013 12.2073 1.67609 11.5239C1.60082 10.8292 1.6 9.92998 1.6 8.66671H0.4ZM2.72672 13.5447C2.49467 13.3761 2.29061 13.172 2.12202 12.94L1.1512 13.6453C1.39381 13.9792 1.68746 14.2729 2.02138 14.5155L2.72672 13.5447ZM11.878 12.94C11.7094 13.172 11.5053 13.3761 11.2733 13.5447L11.9786 14.5155C12.3125 14.2729 12.6062 13.9792 12.8488 13.6453L11.878 12.94ZM13.6 8.66671C13.6 7.43016 13.6008 6.45456 13.5169 5.68025C13.4318 4.89472 13.2538 4.24552 12.8488 3.68809L11.878 4.39343C12.1096 4.71221 12.2499 5.12608 12.3239 5.80951C12.3992 6.50417 12.4 7.40343 12.4 8.66671H13.6ZM11.2733 3.78873C11.5053 3.95732 11.7094 4.16138 11.878 4.39343L12.8488 3.68809C12.6062 3.35417 12.3125 3.06051 11.9786 2.81791L11.2733 3.78873ZM1.6 8.66671C1.6 7.40343 1.60082 6.50417 1.67609 5.80951C1.75013 5.12608 1.89041 4.71221 2.12202 4.39343L1.1512 3.68809C0.746198 4.24552 0.568174 4.89472 0.483067 5.68025C0.399176 6.45456 0.4 7.43016 0.4 8.66671H1.6ZM2.02138 2.81791C1.68746 3.06051 1.39381 3.35417 1.1512 3.68809L2.12202 4.39343C2.29061 4.16138 2.49467 3.95732 2.72672 3.78873L2.02138 2.81791ZM11.718 10.1151C10.035 10.3817 8.71499 11.7017 8.44843 13.3847L9.63365 13.5725C9.81889 12.4029 10.7362 11.4856 11.9057 11.3004L11.718 10.1151ZM5.6 3.33337V2.68599H4.4V3.33337H5.6ZM5.6 2.68599V1.33337H4.4V2.68599H5.6ZM7 2.06671C6.22404 2.06671 5.55482 2.06663 4.97946 2.08634L5.02055 3.28564C5.57098 3.26678 6.2174 3.26671 7 3.26671V2.06671ZM4.97946 2.08634C3.72926 2.12918 2.78369 2.26405 2.02138 2.81791L2.72672 3.78873C3.17055 3.46627 3.78516 3.32797 5.02055 3.28564L4.97946 2.08634ZM9.6 3.33337V2.68599H8.4V3.33337H9.6ZM9.6 2.68599V1.33337H8.4V2.68599H9.6ZM7 3.26671C7.7826 3.26671 8.42902 3.26678 8.97946 3.28564L9.02055 2.08634C8.44518 2.06663 7.77596 2.06671 7 2.06671V3.26671ZM8.97946 3.28564C10.2148 3.32797 10.8295 3.46627 11.2733 3.78873L11.9786 2.81791C11.2163 2.26405 10.2707 2.12918 9.02055 2.08634L8.97946 3.28564ZM12.9807 10.0667C12.3962 10.0667 12.0326 10.0653 11.718 10.1151L11.9057 11.3004C12.104 11.269 12.3522 11.2667 12.9807 11.2667L12.9807 10.0667ZM12.4 8.66671C12.4 9.44931 12.3999 10.0957 12.3811 10.6462L13.5804 10.6873C13.6001 10.1119 13.6 9.44267 13.6 8.66671H12.4ZM12.3811 10.6462C12.3387 11.8815 12.2004 12.4962 11.878 12.94L12.8488 13.6453C13.4027 12.883 13.5375 11.9375 13.5804 10.6873L12.3811 10.6462ZM9.6 14.6474C9.60001 14.0189 9.60226 13.7707 9.63365 13.5725L8.44843 13.3847C8.3986 13.6993 8.4 14.0629 8.4 14.6474L9.6 14.6474ZM7 15.2667C7.77597 15.2667 8.44518 15.2668 9.02055 15.2471L8.97946 14.0478C8.42902 14.0666 7.7826 14.0667 7 14.0667V15.2667ZM9.02055 15.2471C10.2707 15.2042 11.2163 15.0694 11.9786 14.5155L11.2733 13.5447C10.8295 13.8671 10.2148 14.0054 8.97946 14.0478L9.02055 15.2471Z" fill=" #094A28"/>
<g id="Vector_2">
<path d="M4.33333 6.00004C4.33333 6.36823 4.03486 6.66671 3.66667 6.66671C3.29848 6.66671 3 6.36823 3 6.00004C3 5.63185 3.29848 5.33337 3.66667 5.33337C4.03486 5.33337 4.33333 5.63185 4.33333 6.00004Z" fill=" #094A28"/>
<path d="M4.33333 8.66671C4.33333 9.0349 4.03486 9.33337 3.66667 9.33337C3.29848 9.33337 3 9.0349 3 8.66671C3 8.29852 3.29848 8.00004 3.66667 8.00004C4.03486 8.00004 4.33333 8.29852 4.33333 8.66671Z" fill=" #094A28"/>
<path d="M7.66667 6.00004C7.66667 6.36823 7.36819 6.66671 7 6.66671C6.63181 6.66671 6.33333 6.36823 6.33333 6.00004C6.33333 5.63185 6.63181 5.33337 7 5.33337C7.36819 5.33337 7.66667 5.63185 7.66667 6.00004Z" fill=" #094A28"/>
<path d="M7.66667 8.66671C7.66667 9.0349 7.36819 9.33337 7 9.33337C6.63181 9.33337 6.33333 9.0349 6.33333 8.66671C6.33333 8.29852 6.63181 8.00004 7 8.00004C7.36819 8.00004 7.66667 8.29852 7.66667 8.66671Z" fill=" #094A28"/>
<path d="M7.66667 11.3334C7.66667 11.7016 7.36819 12 7 12C6.63181 12 6.33333 11.7016 6.33333 11.3334C6.33333 10.9652 6.63181 10.6667 7 10.6667C7.36819 10.6667 7.66667 10.9652 7.66667 11.3334Z" fill=" #094A28"/>
<path d="M11 6.00004C11 6.36823 10.7015 6.66671 10.3333 6.66671C9.96514 6.66671 9.66667 6.36823 9.66667 6.00004C9.66667 5.63185 9.96514 5.33337 10.3333 5.33337C10.7015 5.33337 11 5.63185 11 6.00004Z" fill=" #094A28"/>
<path d="M11 8.66671C11 9.0349 10.7015 9.33337 10.3333 9.33337C9.96514 9.33337 9.66667 9.0349 9.66667 8.66671C9.66667 8.29852 9.96514 8.00004 10.3333 8.00004C10.7015 8.00004 11 8.29852 11 8.66671Z" fill=" #094A28"/>
<path d="M4.33333 11.3334C4.33333 11.7016 4.03486 12 3.66667 12C3.29848 12 3 11.7016 3 11.3334C3 10.9652 3.29848 10.6667 3.66667 10.6667C4.03486 10.6667 4.33333 10.9652 4.33333 11.3334Z" fill=" #094A28"/>
</g>
</g>
</svg>
