<!-- <svg width="25" height="24" viewBox="0 0 25 24" fill="none" xmlns="http://www.w3.org/2000/svg">
<g id="Icon- Outline">
<path id="Rectangle 159 (Stroke)" fill-rule="evenodd" clip-rule="evenodd" d="M8.8246 6.99838L7.31697 4.94252C7.21445 4.80271 7.0207 4.76708 6.87514 4.86126C4.90272 6.13754 4.36053 8.08714 5.15185 9.52434C6.01728 11.0961 7.35204 13.0237 9.3994 15.0711C11.4468 17.1184 13.3744 18.4532 14.9461 19.3186C16.3833 20.11 18.3329 19.5678 19.6092 17.5953C19.7034 17.4498 19.6678 17.256 19.528 17.1535L17.4721 15.6459C17.1698 15.4242 16.7688 15.3902 16.4335 15.5579L15.6141 15.9676C14.9171 16.3161 13.9617 16.4385 13.0572 15.9732C12.4526 15.6621 11.5206 15.071 10.4601 14.0104C9.39951 12.9499 8.80835 12.0179 8.49727 11.4132C8.03198 10.5088 8.15441 9.55339 8.5029 8.85641L8.91263 8.03696C9.08029 7.70164 9.04631 7.3007 8.8246 6.99838ZM5.78864 3.18212C3.24813 4.82598 1.94037 7.83826 3.39987 10.489C4.3524 12.219 5.79923 14.2993 7.98519 16.4853C10.1712 18.6712 12.2515 20.1181 13.9815 21.0706C16.6322 22.5301 19.6445 21.2223 21.2884 18.6818C21.9579 17.647 21.7046 16.2696 20.7107 15.5407L18.6548 14.0331C17.7479 13.368 16.5451 13.266 15.5391 13.769L14.7196 14.1787C14.4824 14.2973 14.208 14.3161 13.9722 14.1948C13.5425 13.9737 12.7811 13.503 11.8743 12.5962C10.9675 11.6894 10.4968 10.928 10.2757 10.4983C10.1544 10.2625 10.1731 9.98806 10.2918 9.75084L10.7015 8.93139C11.2045 7.92542 11.1025 6.72262 10.4374 5.81565L8.92978 3.75979C8.20089 2.76584 6.82346 2.51253 5.78864 3.18212Z" fill="white"/>
</g>
</svg> -->

<svg xmlns="http://www.w3.org/2000/svg" width="21px" height="20px" viewBox="0 0 23 21" fill="none">
<g id="call">
<path id="Vector" d="M17.2697 19.4628C16.4536 19.4628 15.3072 19.181 13.5906 18.2656C11.5032 17.1482 9.88855 16.1166 7.8124 14.14C5.81066 12.2304 4.83654 10.9941 3.4732 8.62601C1.93302 5.95224 2.19557 4.5507 2.48906 3.9517C2.83857 3.23576 3.35447 2.80756 4.0213 2.38255C4.40005 2.14568 4.80087 1.94262 5.21866 1.77596C5.26047 1.7588 5.29935 1.74244 5.33405 1.72767C5.541 1.63868 5.85455 1.50419 6.25172 1.64786C6.51678 1.74284 6.75341 1.93719 7.12383 2.28637C7.88347 3.00151 8.92155 4.5942 9.3045 5.37638C9.56162 5.90355 9.73178 6.25154 9.73219 6.64183C9.73219 7.09877 9.49138 7.45115 9.19915 7.83146C9.14438 7.9029 9.09003 7.97114 9.03735 8.03738C8.7192 8.43646 8.64938 8.55179 8.69537 8.75771C8.7886 9.17155 9.48386 10.4035 10.6265 11.4917C11.7691 12.58 13.0224 13.2018 13.4577 13.2904C13.6826 13.3362 13.8059 13.2668 14.2374 12.9523C14.2992 12.9072 14.3628 12.8606 14.4293 12.8139C14.8749 12.4974 15.2269 12.2735 15.6944 12.2735H15.6969C16.1036 12.2735 16.4519 12.4419 17.0288 12.7197C17.7814 13.082 19.5001 14.0602 20.2539 14.7861C20.6205 15.1389 20.825 15.3639 20.9249 15.6165C21.0754 15.9969 20.9337 16.295 20.8413 16.4945C20.8258 16.5276 20.8087 16.5639 20.7907 16.6042C20.6147 17.0023 20.4007 17.3841 20.1514 17.7448C19.707 18.3793 19.2568 18.8706 18.5051 19.2046C18.1191 19.3789 17.6966 19.4672 17.2697 19.4628Z" fill="#181F29"/>
</g>
</svg>