<svg width="60" height="73" viewBox="0 0 60 73" fill="none" xmlns="http://www.w3.org/2000/svg">
<path d="M30.9697 66.3636H5.5303C4.65056 66.3627 3.80713 66.0128 3.18505 65.3907C2.56298 64.7686 2.21308 63.9252 2.21212 63.0455V12.1667C2.21308 11.2869 2.56298 10.4435 3.18505 9.82142C3.80713 9.19935 4.65056 8.84945 5.5303 8.84848H45.3485C46.2282 8.84945 47.0717 9.19935 47.6937 9.82142C48.3158 10.4435 48.6657 11.2869 48.6667 12.1667V42.0303C48.6667 42.3236 48.7832 42.605 48.9906 42.8124C49.1981 43.0198 49.4794 43.1364 49.7727 43.1364C50.0661 43.1364 50.3474 43.0198 50.5548 42.8124C50.7623 42.605 50.8788 42.3236 50.8788 42.0303V12.1667C50.8771 10.7005 50.2939 9.29481 49.2571 8.25805C48.2203 7.22129 46.8147 6.63808 45.3485 6.63636H9.95455V5.5303C9.95551 4.65056 10.3054 3.80713 10.9275 3.18505C11.5496 2.56298 12.393 2.21308 13.2727 2.21212H53.0909C53.9707 2.21308 54.8141 2.56298 55.4362 3.18505C56.0582 3.80713 56.4081 4.65056 56.4091 5.5303V46.4545C56.4091 46.7479 56.5256 47.0292 56.733 47.2367C56.9405 47.4441 57.2218 47.5606 57.5152 47.5606C57.8085 47.5606 58.0898 47.4441 58.2973 47.2367C58.5047 47.0292 58.6212 46.7479 58.6212 46.4545V5.5303C58.6195 4.0641 58.0363 2.65845 56.9995 1.62169C55.9628 0.584929 54.5571 0.00172122 53.0909 0H13.2727C11.8065 0.00172122 10.4009 0.584929 9.36411 1.62169C8.32735 2.65845 7.74415 4.0641 7.74242 5.5303V6.63636H5.5303C4.0641 6.63808 2.65845 7.22129 1.62169 8.25805C0.584929 9.29481 0.00172122 10.7005 0 12.1667V63.0455C0.00172122 64.5117 0.584929 65.9173 1.62169 66.9541C2.65845 67.9908 4.0641 68.574 5.5303 68.5758H30.9697C31.263 68.5758 31.5444 68.4592 31.7518 68.2518C31.9592 68.0444 32.0758 67.763 32.0758 67.4697C32.0758 67.1764 31.9592 66.895 31.7518 66.6876C31.5444 66.4802 31.263 66.3636 30.9697 66.3636Z" fill="url(#paint0_linear_70_16518)"/>
<path d="M35.3938 18.803C36.2738 18.803 37.1178 18.4534 37.7401 17.8311C38.3624 17.2088 38.712 16.3648 38.712 15.4848C38.712 14.6048 38.3624 13.7608 37.7401 13.1385C37.1178 12.5162 36.2738 12.1666 35.3938 12.1666H15.4847C14.6046 12.1666 13.7607 12.5162 13.1384 13.1385C12.5161 13.7608 12.1665 14.6048 12.1665 15.4848C12.1665 16.3648 12.5161 17.2088 13.1384 17.8311C13.7607 18.4534 14.6046 18.803 15.4847 18.803H35.3938ZM14.3786 15.4848C14.3789 15.1916 14.4955 14.9104 14.7029 14.703C14.9103 14.4957 15.1914 14.379 15.4847 14.3787H35.3938C35.6871 14.3787 35.9685 14.4953 36.1759 14.7027C36.3833 14.9101 36.4998 15.1915 36.4998 15.4848C36.4998 15.7782 36.3833 16.0595 36.1759 16.2669C35.9685 16.4743 35.6871 16.5909 35.3938 16.5909H15.4847C15.1914 16.5906 14.9103 16.4739 14.7029 16.2666C14.4955 16.0592 14.3789 15.7781 14.3786 15.4848Z" fill="url(#paint1_linear_70_16518)"/>
<path d="M42.0302 23.2273H17.6969C17.4035 23.2273 17.1222 23.3438 16.9148 23.5513C16.7074 23.7587 16.5908 24.04 16.5908 24.3334C16.5908 24.6267 16.7074 24.908 16.9148 25.1155C17.1222 25.3229 17.4035 25.4394 17.6969 25.4394H42.0302C42.3236 25.4394 42.6049 25.3229 42.8123 25.1155C43.0197 24.908 43.1363 24.6267 43.1363 24.3334C43.1363 24.04 43.0197 23.7587 42.8123 23.5513C42.6049 23.3438 42.3236 23.2273 42.0302 23.2273Z" fill="url(#paint2_linear_70_16518)"/>
<path d="M42.0301 28.7576H8.84825C8.5549 28.7576 8.27357 28.8741 8.06614 29.0815C7.85872 29.289 7.74219 29.5703 7.74219 29.8636C7.74219 30.157 7.85872 30.4383 8.06614 30.6457C8.27357 30.8532 8.5549 30.9697 8.84825 30.9697H42.0301C42.3234 30.9697 42.6047 30.8532 42.8122 30.6457C43.0196 30.4383 43.1361 30.157 43.1361 29.8636C43.1361 29.5703 43.0196 29.289 42.8122 29.0815C42.6047 28.8741 42.3234 28.7576 42.0301 28.7576Z" fill="url(#paint3_linear_70_16518)"/>
<path d="M42.0301 34.2878H8.84825C8.5549 34.2878 8.27357 34.4044 8.06614 34.6118C7.85872 34.8192 7.74219 35.1006 7.74219 35.3939C7.74219 35.6872 7.85872 35.9686 8.06614 36.176C8.27357 36.3834 8.5549 36.5 8.84825 36.5H42.0301C42.3234 36.5 42.6047 36.3834 42.8122 36.176C43.0196 35.9686 43.1361 35.6872 43.1361 35.3939C43.1361 35.1006 43.0196 34.8192 42.8122 34.6118C42.6047 34.4044 42.3234 34.2878 42.0301 34.2878Z" fill="url(#paint4_linear_70_16518)"/>
<path d="M43.1361 40.9243C43.1362 40.779 43.1076 40.6352 43.052 40.501C42.9964 40.3668 42.915 40.2448 42.8123 40.1421C42.7095 40.0394 42.5876 39.9579 42.4534 39.9024C42.3192 39.8468 42.1753 39.8182 42.0301 39.8182H8.84825C8.5549 39.8182 8.27357 39.9348 8.06614 40.1422C7.85872 40.3496 7.74219 40.631 7.74219 40.9243C7.74219 41.2176 7.85872 41.499 8.06614 41.7064C8.27357 41.9138 8.5549 42.0304 8.84825 42.0304H42.0301C42.1753 42.0304 42.3192 42.0018 42.4534 41.9462C42.5876 41.8907 42.7095 41.8092 42.8123 41.7065C42.915 41.6038 42.9964 41.4818 43.052 41.3476C43.1076 41.2134 43.1362 41.0696 43.1361 40.9243Z" fill="url(#paint5_linear_70_16518)"/>
<path d="M22.121 46.4546C22.121 46.3093 22.0924 46.1655 22.0369 46.0313C21.9813 45.897 21.8998 45.7751 21.7971 45.6724C21.6944 45.5697 21.5724 45.4882 21.4382 45.4326C21.304 45.3771 21.1602 45.3485 21.0149 45.3485H8.84825C8.5549 45.3485 8.27357 45.465 8.06614 45.6725C7.85872 45.8799 7.74219 46.1612 7.74219 46.4546C7.74219 46.7479 7.85872 47.0292 8.06614 47.2367C8.27357 47.4441 8.5549 47.5606 8.84825 47.5606H21.0149C21.1602 47.5607 21.304 47.5321 21.4382 47.4765C21.5724 47.4209 21.6944 47.3395 21.7971 47.2368C21.8998 47.134 21.9813 47.0121 22.0369 46.8779C22.0924 46.7437 22.121 46.5998 22.121 46.4546Z" fill="url(#paint6_linear_70_16518)"/>
<path d="M45.3485 44.2424C42.5047 44.2424 39.7247 45.0857 37.3601 46.6657C34.9955 48.2457 33.1526 50.4913 32.0643 53.1187C30.976 55.7461 30.6912 58.6372 31.246 61.4264C31.8008 64.2156 33.1703 66.7777 35.1812 68.7886C37.1921 70.7995 39.7541 72.1689 42.5434 72.7237C45.3326 73.2785 48.2237 72.9938 50.851 71.9055C53.4784 70.8172 55.7241 68.9742 57.304 66.6096C58.884 64.2451 59.7273 61.4651 59.7273 58.6212C59.723 54.8091 58.2067 51.1543 55.5111 48.4586C52.8155 45.763 49.1607 44.2467 45.3485 44.2424ZM45.3485 70.7879C42.9422 70.7879 40.5899 70.0743 38.5891 68.7374C36.5883 67.4005 35.0289 65.5004 34.108 63.2772C33.1871 61.054 32.9462 58.6077 33.4156 56.2476C33.8851 53.8875 35.0438 51.7196 36.7454 50.0181C38.4469 48.3165 40.6148 47.1578 42.9749 46.6883C45.335 46.2189 47.7813 46.4598 50.0045 47.3807C52.2277 48.3016 54.1278 49.861 55.4647 51.8618C56.8016 53.8626 57.5152 56.2149 57.5152 58.6212C57.5115 61.8469 56.2285 64.9394 53.9476 67.2203C51.6667 69.5012 48.5742 70.7842 45.3485 70.7879Z" fill="url(#paint7_linear_70_16518)"/>
<path d="M52.7667 51.2028C52.664 51.1001 52.5421 51.0186 52.4079 50.963C52.2737 50.9074 52.1299 50.8788 51.9847 50.8788C51.8394 50.8788 51.6956 50.9074 51.5614 50.963C51.4272 51.0186 51.3053 51.1001 51.2026 51.2028L45.3483 57.0571L39.494 51.2028C39.2861 50.9975 39.0055 50.8828 38.7134 50.8838C38.4213 50.8847 38.1414 51.0011 37.9349 51.2077C37.7283 51.4143 37.6119 51.6941 37.611 51.9862C37.61 52.2784 37.7247 52.559 37.93 52.7668L43.7843 58.6212L37.9299 64.4756C37.8262 64.578 37.7437 64.7 37.6873 64.8344C37.6308 64.9689 37.6015 65.1132 37.6011 65.259C37.6006 65.4048 37.629 65.5493 37.6846 65.6841C37.7402 65.8189 37.8219 65.9414 37.925 66.0445C38.0281 66.1476 38.1506 66.2293 38.2854 66.2849C38.4202 66.3405 38.5647 66.3689 38.7105 66.3684C38.8563 66.3679 39.0006 66.3386 39.1351 66.2822C39.2695 66.2258 39.3915 66.1433 39.494 66.0395L45.3483 60.1852L51.2027 66.0396C51.4106 66.2448 51.6912 66.3595 51.9833 66.3586C52.2754 66.3577 52.5553 66.2412 52.7618 66.0347C52.9684 65.8281 53.0848 65.5482 53.0857 65.2561C53.0866 64.964 52.9719 64.6834 52.7667 64.4756L46.9124 58.6212L52.7667 52.7668C52.8695 52.6641 52.9509 52.5422 53.0065 52.408C53.0621 52.2739 53.0907 52.13 53.0907 51.9848C53.0907 51.8396 53.0621 51.6958 53.0065 51.5616C52.9509 51.4274 52.8694 51.3055 52.7667 51.2028Z" fill="url(#paint8_linear_70_16518)"/>
<path d="M10.8751 55.9166L11.6414 54.7673C11.6639 54.7314 11.6963 54.7027 11.7347 54.6849C11.7732 54.667 11.816 54.6608 11.858 54.6669C11.9005 54.67 11.9412 54.6858 11.9748 54.7122C12.0083 54.7385 12.0333 54.7743 12.0465 54.8149L13.199 57.8868C13.3731 58.3524 13.6853 58.7537 14.0937 59.037C14.5021 59.3204 14.9873 59.4723 15.4844 59.4724C15.9815 59.4725 16.4668 59.3209 16.8754 59.0377C17.2839 58.7546 17.5963 58.3534 17.7707 57.8879L18.5149 55.9047C18.5309 55.8598 18.5608 55.8212 18.6002 55.7944C18.6396 55.7676 18.6865 55.754 18.7341 55.7557C18.7823 55.7535 18.8297 55.768 18.8683 55.7967C18.907 55.8255 18.9346 55.8667 18.9464 55.9134C19.0984 56.372 19.3835 56.775 19.7653 57.071C20.1471 57.367 20.6084 57.5427 21.0905 57.5757C21.5726 57.6146 22.0552 57.5073 22.4754 57.2678C22.8957 57.0283 23.234 56.6677 23.4462 56.2331L24.2169 54.6917C24.2823 54.5618 24.3214 54.4202 24.332 54.2751C24.3425 54.1299 24.3244 53.9842 24.2785 53.8461C24.2327 53.708 24.1601 53.5804 24.0648 53.4704C23.9695 53.3604 23.8535 53.2703 23.7234 53.2053C23.5933 53.1402 23.4516 53.1014 23.3065 53.0912C23.1613 53.081 23.0156 53.0995 22.8776 53.1457C22.7397 53.1918 22.6122 53.2648 22.5024 53.3603C22.3927 53.4558 22.3029 53.572 22.2381 53.7023L21.4674 55.2437C21.4503 55.2865 21.4191 55.3223 21.379 55.3451C21.3388 55.3679 21.2921 55.3763 21.2465 55.369C21.2007 55.3685 21.1563 55.3533 21.12 55.3254C21.0837 55.2975 21.0574 55.2586 21.0451 55.2145C20.8858 54.7356 20.5819 54.3179 20.1754 54.0188C19.7688 53.7197 19.2796 53.5541 18.7749 53.5446C18.2703 53.5351 17.7752 53.6823 17.3577 53.9659C16.9402 54.2495 16.6209 54.6555 16.4437 55.1281L15.6995 57.1113C15.6832 57.1551 15.6539 57.1929 15.6155 57.2195C15.5771 57.2462 15.5314 57.2604 15.4847 57.2603C15.4379 57.2602 15.3924 57.2457 15.3541 57.2189C15.3158 57.192 15.2867 57.1541 15.2707 57.1102L14.1182 54.0372C13.9604 53.6164 13.6896 53.2473 13.3355 52.9706C12.9814 52.6939 12.5578 52.5203 12.1114 52.4689C11.665 52.4175 11.213 52.4904 10.8053 52.6794C10.3976 52.8684 10.0501 53.1664 9.80085 53.5403L9.03457 54.6896C8.95231 54.8104 8.89482 54.9463 8.8654 55.0895C8.83599 55.2326 8.83524 55.3802 8.8632 55.5237C8.89117 55.6671 8.94728 55.8036 9.02831 55.9253C9.10934 56.0469 9.21368 56.1513 9.33528 56.2323C9.45689 56.3134 9.59336 56.3696 9.73681 56.3976C9.88026 56.4256 10.0278 56.4249 10.171 56.3956C10.3142 56.3662 10.4501 56.3088 10.571 56.2266C10.6918 56.1443 10.7952 56.039 10.8751 55.9166Z" fill="url(#paint9_linear_70_16518)"/>
<defs>
<linearGradient id="paint0_linear_70_16518" x1="29.3106" y1="-6.62055" x2="29.3106" y2="68.5758" gradientUnits="userSpaceOnUse">
<stop offset="0.0324314" stop-color="#E513C3"/>
<stop offset="1" stop-color="#F5ACA4"/>
</linearGradient>
<linearGradient id="paint1_linear_70_16518" x1="25.4392" y1="11.5259" x2="25.4392" y2="18.803" gradientUnits="userSpaceOnUse">
<stop offset="0.0324314" stop-color="#E513C3"/>
<stop offset="1" stop-color="#F5ACA4"/>
</linearGradient>
<linearGradient id="paint2_linear_70_16518" x1="29.8635" y1="23.0137" x2="29.8635" y2="25.4394" gradientUnits="userSpaceOnUse">
<stop offset="0.0324314" stop-color="#E513C3"/>
<stop offset="1" stop-color="#F5ACA4"/>
</linearGradient>
<linearGradient id="paint3_linear_70_16518" x1="25.4392" y1="28.544" x2="25.4392" y2="30.9697" gradientUnits="userSpaceOnUse">
<stop offset="0.0324314" stop-color="#E513C3"/>
<stop offset="1" stop-color="#F5ACA4"/>
</linearGradient>
<linearGradient id="paint4_linear_70_16518" x1="25.4392" y1="34.0743" x2="25.4392" y2="36.5" gradientUnits="userSpaceOnUse">
<stop offset="0.0324314" stop-color="#E513C3"/>
<stop offset="1" stop-color="#F5ACA4"/>
</linearGradient>
<linearGradient id="paint5_linear_70_16518" x1="25.4392" y1="39.6047" x2="25.4392" y2="42.0304" gradientUnits="userSpaceOnUse">
<stop offset="0.0324314" stop-color="#E513C3"/>
<stop offset="1" stop-color="#F5ACA4"/>
</linearGradient>
<linearGradient id="paint6_linear_70_16518" x1="14.9316" y1="45.1349" x2="14.9316" y2="47.5606" gradientUnits="userSpaceOnUse">
<stop offset="0.0324314" stop-color="#E513C3"/>
<stop offset="1" stop-color="#F5ACA4"/>
</linearGradient>
<linearGradient id="paint7_linear_70_16518" x1="45.3485" y1="41.4661" x2="45.3485" y2="73" gradientUnits="userSpaceOnUse">
<stop offset="0.0324314" stop-color="#E513C3"/>
<stop offset="1" stop-color="#F5ACA4"/>
</linearGradient>
<linearGradient id="paint8_linear_70_16518" x1="45.3459" y1="49.3834" x2="45.3459" y2="66.3684" gradientUnits="userSpaceOnUse">
<stop offset="0.0324314" stop-color="#E513C3"/>
<stop offset="1" stop-color="#F5ACA4"/>
</linearGradient>
<linearGradient id="paint9_linear_70_16518" x1="16.5888" y1="51.7752" x2="16.5888" y2="59.4724" gradientUnits="userSpaceOnUse">
<stop offset="0.0324314" stop-color="#E513C3"/>
<stop offset="1" stop-color="#F5ACA4"/>
</linearGradient>
</defs>
</svg>
