<svg xmlns="http://www.w3.org/2000/svg" width="60" height="73" viewBox="0 0 60 73" fill="none">
  <path d="M30.9697 66.3636H5.5303C4.65056 66.3627 3.80713 66.0128 3.18506 65.3907C2.56298 64.7686 2.21308 63.9252 2.21212 63.0455V12.1667C2.21308 11.2869 2.56298 10.4435 3.18506 9.82142C3.80713 9.19935 4.65056 8.84945 5.5303 8.84848H45.3485C46.2282 8.84945 47.0717 9.19935 47.6937 9.82142C48.3158 10.4435 48.6657 11.2869 48.6667 12.1667V42.0303C48.6667 42.3237 48.7832 42.605 48.9906 42.8124C49.1981 43.0198 49.4794 43.1364 49.7727 43.1364C50.0661 43.1364 50.3474 43.0198 50.5548 42.8124C50.7623 42.605 50.8788 42.3237 50.8788 42.0303V12.1667C50.8771 10.7005 50.2939 9.29481 49.2571 8.25805C48.2203 7.22129 46.8147 6.63808 45.3485 6.63636H9.95455V5.5303C9.95551 4.65056 10.3054 3.80713 10.9275 3.18506C11.5496 2.56298 12.393 2.21308 13.2727 2.21212H53.0909C53.9707 2.21308 54.8141 2.56298 55.4362 3.18506C56.0582 3.80713 56.4081 4.65056 56.4091 5.5303V46.4545C56.4091 46.7479 56.5256 47.0292 56.733 47.2366C56.9405 47.4441 57.2218 47.5606 57.5152 47.5606C57.8085 47.5606 58.0898 47.4441 58.2973 47.2366C58.5047 47.0292 58.6212 46.7479 58.6212 46.4545V5.5303C58.6195 4.0641 58.0363 2.65845 56.9995 1.62169C55.9628 0.584929 54.5571 0.00172122 53.0909 0H13.2727C11.8065 0.00172122 10.4009 0.584929 9.36411 1.62169C8.32735 2.65845 7.74415 4.0641 7.74242 5.5303V6.63636H5.5303C4.0641 6.63808 2.65845 7.22129 1.62169 8.25805C0.584929 9.29481 0.00172122 10.7005 0 12.1667V63.0455C0.00172122 64.5117 0.584929 65.9173 1.62169 66.9541C2.65845 67.9908 4.0641 68.574 5.5303 68.5758H30.9697C31.263 68.5758 31.5444 68.4592 31.7518 68.2518C31.9592 68.0444 32.0758 67.763 32.0758 67.4697C32.0758 67.1764 31.9592 66.895 31.7518 66.6876C31.5444 66.4802 31.263 66.3636 30.9697 66.3636Z" fill="url(#paint0_linear_771_7341)"/>
  <path d="M35.3939 18.8029C36.2739 18.8029 37.1179 18.4533 37.7402 17.831C38.3625 17.2087 38.7121 16.3647 38.7121 15.4847C38.7121 14.6046 38.3625 13.7607 37.7402 13.1384C37.1179 12.5161 36.2739 12.1665 35.3939 12.1665H15.4848C14.6048 12.1665 13.7608 12.5161 13.1385 13.1384C12.5162 13.7607 12.1666 14.6046 12.1666 15.4847C12.1666 16.3647 12.5162 17.2087 13.1385 17.831C13.7608 18.4533 14.6048 18.8029 15.4848 18.8029H35.3939ZM14.3787 15.4847C14.379 15.1914 14.4957 14.9103 14.703 14.7029C14.9104 14.4955 15.1916 14.3789 15.4848 14.3786H35.3939C35.6872 14.3786 35.9686 14.4952 36.176 14.7026C36.3834 14.91 36.5 15.1913 36.5 15.4847C36.5 15.778 36.3834 16.0594 36.176 16.2668C35.9686 16.4742 35.6872 16.5907 35.3939 16.5907H15.4848C15.1916 16.5905 14.9104 16.4738 14.703 16.2665C14.4957 16.0591 14.379 15.7779 14.3787 15.4847Z" fill="url(#paint1_linear_771_7341)"/>
  <path d="M42.0303 23.2271H17.697C17.4037 23.2271 17.1223 23.3436 16.9149 23.551C16.7075 23.7584 16.5909 24.0398 16.5909 24.3331C16.5909 24.6265 16.7075 24.9078 16.9149 25.1152C17.1223 25.3226 17.4037 25.4392 17.697 25.4392H42.0303C42.3237 25.4392 42.605 25.3226 42.8124 25.1152C43.0199 24.9078 43.1364 24.6265 43.1364 24.3331C43.1364 24.0398 43.0199 23.7584 42.8124 23.551C42.605 23.3436 42.3237 23.2271 42.0303 23.2271Z" fill="url(#paint2_linear_771_7341)"/>
  <path d="M42.0303 28.7578H8.84849C8.55515 28.7578 8.27382 28.8743 8.06639 29.0818C7.85896 29.2892 7.74243 29.5705 7.74243 29.8639C7.74243 30.1572 7.85896 30.4386 8.06639 30.646C8.27382 30.8534 8.55515 30.9699 8.84849 30.9699H42.0303C42.3237 30.9699 42.605 30.8534 42.8124 30.646C43.0198 30.4386 43.1364 30.1572 43.1364 29.8639C43.1364 29.5705 43.0198 29.2892 42.8124 29.0818C42.605 28.8743 42.3237 28.7578 42.0303 28.7578Z" fill="url(#paint3_linear_771_7341)"/>
  <path d="M42.0303 34.2881H8.84849C8.55515 34.2881 8.27382 34.4046 8.06639 34.612C7.85896 34.8195 7.74243 35.1008 7.74243 35.3941C7.74243 35.6875 7.85896 35.9688 8.06639 36.1763C8.27382 36.3837 8.55515 36.5002 8.84849 36.5002H42.0303C42.3237 36.5002 42.605 36.3837 42.8124 36.1763C43.0198 35.9688 43.1364 35.6875 43.1364 35.3941C43.1364 35.1008 43.0198 34.8195 42.8124 34.612C42.605 34.4046 42.3237 34.2881 42.0303 34.2881Z" fill="url(#paint4_linear_771_7341)"/>
  <path d="M43.1364 40.9244C43.1364 40.7792 43.1078 40.6353 43.0523 40.5011C42.9967 40.3669 42.9152 40.2449 42.8125 40.1422C42.7098 40.0395 42.5878 39.958 42.4536 39.9025C42.3194 39.8469 42.1756 39.8183 42.0303 39.8184H8.84849C8.55515 39.8184 8.27382 39.9349 8.06639 40.1423C7.85896 40.3497 7.74243 40.6311 7.74243 40.9244C7.74243 41.2178 7.85896 41.4991 8.06639 41.7065C8.27382 41.914 8.55515 42.0305 8.84849 42.0305H42.0303C42.1756 42.0305 42.3194 42.0019 42.4536 41.9464C42.5878 41.8908 42.7098 41.8093 42.8125 41.7066C42.9152 41.6039 42.9967 41.4819 43.0523 41.3477C43.1078 41.2135 43.1364 41.0697 43.1364 40.9244Z" fill="url(#paint5_linear_771_7341)"/>
  <path d="M22.1212 46.4547C22.1213 46.3094 22.0927 46.1656 22.0371 46.0314C21.9815 45.8972 21.9001 45.7752 21.7973 45.6725C21.6946 45.5698 21.5727 45.4883 21.4385 45.4327C21.3043 45.3772 21.1604 45.3486 21.0152 45.3486H8.84849C8.55515 45.3486 8.27382 45.4652 8.06639 45.6726C7.85896 45.88 7.74243 46.1613 7.74243 46.4547C7.74243 46.748 7.85896 47.0294 8.06639 47.2368C8.27382 47.4442 8.55515 47.5608 8.84849 47.5608H21.0152C21.1604 47.5608 21.3043 47.5322 21.4385 47.4766C21.5727 47.4211 21.6946 47.3396 21.7973 47.2369C21.9001 47.1342 21.9815 47.0122 22.0371 46.878C22.0927 46.7438 22.1213 46.6 22.1212 46.4547Z" fill="url(#paint6_linear_771_7341)"/>
  <path d="M45.3485 44.2422C42.5047 44.2422 39.7247 45.0855 37.3601 46.6655C34.9955 48.2454 33.1526 50.4911 32.0643 53.1185C30.976 55.7458 30.6912 58.6369 31.246 61.4261C31.8008 64.2154 33.1703 66.7774 35.1812 68.7883C37.1921 70.7992 39.7541 72.1687 42.5434 72.7235C45.3326 73.2783 48.2237 72.9935 50.851 71.9052C53.4784 70.8169 55.7241 68.974 57.304 66.6094C58.884 64.2448 59.7273 61.4648 59.7273 58.621C59.723 54.8088 58.2067 51.154 55.5111 48.4584C52.8155 45.7628 49.1607 44.2465 45.3485 44.2422ZM45.3485 70.7876C42.9422 70.7876 40.5899 70.0741 38.5891 68.7372C36.5883 67.4003 35.0289 65.5001 34.108 63.277C33.1871 61.0538 32.9462 58.6075 33.4156 56.2474C33.8851 53.8873 35.0438 51.7194 36.7454 50.0178C38.4469 48.3163 40.6148 47.1575 42.9749 46.6881C45.335 46.2186 47.7813 46.4596 50.0045 47.3804C52.2277 48.3013 54.1278 49.8607 55.4647 51.8615C56.8016 53.8623 57.5152 56.2146 57.5152 58.621C57.5115 61.8467 56.2285 64.9392 53.9476 67.2201C51.6667 69.501 48.5742 70.784 45.3485 70.7876Z" fill="url(#paint7_linear_771_7341)"/>
  <path d="M52.7668 51.203C52.6641 51.1002 52.5422 51.0187 52.408 50.9631C52.2739 50.9075 52.13 50.8789 51.9848 50.8789C51.8395 50.8789 51.6957 50.9075 51.5615 50.9631C51.4274 51.0187 51.3054 51.1002 51.2028 51.203L45.3485 57.0573L39.4941 51.2029C39.2862 50.9976 39.0056 50.883 38.7135 50.8839C38.4214 50.8848 38.1415 51.0013 37.935 51.2078C37.7284 51.4144 37.612 51.6943 37.6111 51.9864C37.6102 52.2785 37.7249 52.5591 37.9301 52.7669L43.7844 58.6213L37.93 64.4757C37.8263 64.5781 37.7438 64.7001 37.6874 64.8346C37.6309 64.969 37.6017 65.1133 37.6012 65.2591C37.6007 65.4049 37.6291 65.5494 37.6847 65.6842C37.7403 65.819 37.822 65.9415 37.9251 66.0446C38.0282 66.1477 38.1507 66.2294 38.2855 66.285C38.4203 66.3406 38.5648 66.369 38.7106 66.3685C38.8565 66.3681 39.0007 66.3388 39.1352 66.2823C39.2697 66.2259 39.3916 66.1434 39.4941 66.0397L45.3485 60.1853L51.2028 66.0397C51.4107 66.245 51.6913 66.3596 51.9834 66.3587C52.2755 66.3578 52.5554 66.2413 52.7619 66.0348C52.9685 65.8282 53.0849 65.5483 53.0858 65.2562C53.0867 64.9641 52.9721 64.6835 52.7668 64.4757L46.9125 58.6213L52.7669 52.7669C52.8696 52.6642 52.9511 52.5423 53.0067 52.4082C53.0622 52.274 53.0909 52.1302 53.0908 51.9849C53.0908 51.8397 53.0622 51.6959 53.0066 51.5617C52.951 51.4275 52.8695 51.3056 52.7668 51.203Z" fill="url(#paint8_linear_771_7341)"/>
  <path d="M10.8748 55.9164L11.6412 54.7671C11.6636 54.7311 11.696 54.7025 11.7345 54.6846C11.773 54.6668 11.8158 54.6605 11.8577 54.6666C11.9003 54.6698 11.9409 54.6856 11.9745 54.7119C12.0081 54.7383 12.033 54.774 12.0462 54.8146L13.1987 57.8865C13.3729 58.3521 13.685 58.7534 14.0935 59.0368C14.5019 59.3202 14.9871 59.4721 15.4842 59.4722C15.9813 59.4723 16.4666 59.3206 16.8751 59.0375C17.2837 58.7543 17.596 58.3531 17.7704 57.8876L18.5146 55.9045C18.5307 55.8596 18.5605 55.821 18.5999 55.7942C18.6394 55.7674 18.6863 55.7538 18.7339 55.7554C18.782 55.7533 18.8294 55.7678 18.8681 55.7965C18.9067 55.8252 18.9343 55.8664 18.9461 55.9131C19.0981 56.3717 19.3832 56.7747 19.765 57.0708C20.1469 57.3668 20.6082 57.5425 21.0902 57.5754C21.5723 57.6143 22.055 57.507 22.4752 57.2675C22.8954 57.028 23.2337 56.6674 23.446 56.2328L24.2167 54.6915C24.282 54.5615 24.3211 54.4199 24.3317 54.2748C24.3423 54.1297 24.3241 53.9839 24.2783 53.8459C24.2324 53.7078 24.1598 53.5801 24.0646 53.4701C23.9693 53.3602 23.8533 53.2701 23.7231 53.205C23.593 53.1399 23.4513 53.1012 23.3062 53.091C23.1611 53.0807 23.0154 53.0992 22.8774 53.1454C22.7394 53.1916 22.6119 53.2645 22.5022 53.36C22.3924 53.4556 22.3026 53.5718 22.2379 53.7021L21.4672 55.2434C21.4501 55.2863 21.4189 55.3221 21.3787 55.3448C21.3386 55.3676 21.2919 55.376 21.2463 55.3687C21.2005 55.3683 21.1561 55.353 21.1198 55.3251C21.0834 55.2973 21.0571 55.2584 21.0449 55.2143C20.8855 54.7354 20.5817 54.3176 20.1751 54.0186C19.7686 53.7195 19.2793 53.5538 18.7747 53.5444C18.2701 53.5349 17.775 53.6821 17.3575 53.9657C16.94 54.2492 16.6206 54.6553 16.4435 55.1279L15.6993 57.111C15.683 57.1549 15.6537 57.1926 15.6153 57.2193C15.5769 57.2459 15.5312 57.2602 15.4845 57.2601C15.4377 57.2599 15.3921 57.2455 15.3538 57.2186C15.3156 57.1918 15.2865 57.1538 15.2704 57.1099L14.1179 54.0369C13.9602 53.6161 13.6893 53.2471 13.3353 52.9703C12.9812 52.6936 12.5576 52.52 12.1112 52.4686C11.6647 52.4173 11.2128 52.4901 10.8051 52.6792C10.3974 52.8682 10.0498 53.1661 9.80061 53.5401L9.03433 54.6893C8.95207 54.8101 8.89457 54.9461 8.86516 55.0892C8.83574 55.2324 8.835 55.38 8.86296 55.5234C8.89092 55.6669 8.94704 55.8034 9.02807 55.925C9.1091 56.0466 9.21343 56.151 9.33504 56.2321C9.45665 56.3132 9.59312 56.3693 9.73657 56.3974C9.88001 56.4254 10.0276 56.4247 10.1708 56.3953C10.3139 56.366 10.4499 56.3085 10.5707 56.2263C10.6916 56.1441 10.7949 56.0388 10.8748 55.9164Z" fill="url(#paint9_linear_771_7341)"/>
  <defs>
    <linearGradient id="paint0_linear_771_7341" x1="29.3106" y1="0" x2="29.3106" y2="68.5758" gradientUnits="userSpaceOnUse">
      <stop stop-color="#FB9F14"/>
      <stop offset="1" stop-color="#F77411"/>
    </linearGradient>
    <linearGradient id="paint1_linear_771_7341" x1="25.4394" y1="12.1665" x2="25.4394" y2="18.8029" gradientUnits="userSpaceOnUse">
      <stop stop-color="#FB9F14"/>
      <stop offset="1" stop-color="#F77411"/>
    </linearGradient>
    <linearGradient id="paint2_linear_771_7341" x1="29.8637" y1="23.2271" x2="29.8637" y2="25.4392" gradientUnits="userSpaceOnUse">
      <stop stop-color="#FB9F14"/>
      <stop offset="1" stop-color="#F77411"/>
    </linearGradient>
    <linearGradient id="paint3_linear_771_7341" x1="25.4394" y1="28.7578" x2="25.4394" y2="30.9699" gradientUnits="userSpaceOnUse">
      <stop stop-color="#FB9F14"/>
      <stop offset="1" stop-color="#F77411"/>
    </linearGradient>
    <linearGradient id="paint4_linear_771_7341" x1="25.4394" y1="34.2881" x2="25.4394" y2="36.5002" gradientUnits="userSpaceOnUse">
      <stop stop-color="#FB9F14"/>
      <stop offset="1" stop-color="#F77411"/>
    </linearGradient>
    <linearGradient id="paint5_linear_771_7341" x1="25.4394" y1="39.8184" x2="25.4394" y2="42.0305" gradientUnits="userSpaceOnUse">
      <stop stop-color="#FB9F14"/>
      <stop offset="1" stop-color="#F77411"/>
    </linearGradient>
    <linearGradient id="paint6_linear_771_7341" x1="14.9318" y1="45.3486" x2="14.9318" y2="47.5608" gradientUnits="userSpaceOnUse">
      <stop stop-color="#FB9F14"/>
      <stop offset="1" stop-color="#F77411"/>
    </linearGradient>
    <linearGradient id="paint7_linear_771_7341" x1="45.3485" y1="44.2422" x2="45.3485" y2="72.9998" gradientUnits="userSpaceOnUse">
      <stop stop-color="#FB9F14"/>
      <stop offset="1" stop-color="#F77411"/>
    </linearGradient>
    <linearGradient id="paint8_linear_771_7341" x1="45.346" y1="50.8789" x2="45.346" y2="66.3685" gradientUnits="userSpaceOnUse">
      <stop stop-color="#FB9F14"/>
      <stop offset="1" stop-color="#F77411"/>
    </linearGradient>
    <linearGradient id="paint9_linear_771_7341" x1="16.5886" y1="52.4526" x2="16.5886" y2="59.4722" gradientUnits="userSpaceOnUse">
      <stop stop-color="#FB9F14"/>
      <stop offset="1" stop-color="#F77411"/>
    </linearGradient>
  </defs>
</svg>