<svg width="60" height="73" viewBox="0 0 60 73" fill="none" xmlns="http://www.w3.org/2000/svg">
<path d="M30.9697 66.3636H5.5303C4.65056 66.3627 3.80713 66.0128 3.18506 65.3907C2.56298 64.7686 2.21308 63.9252 2.21212 63.0455V12.1667C2.21308 11.2869 2.56298 10.4435 3.18506 9.82142C3.80713 9.19935 4.65056 8.84945 5.5303 8.84848H45.3485C46.2282 8.84945 47.0717 9.19935 47.6937 9.82142C48.3158 10.4435 48.6657 11.2869 48.6667 12.1667V42.0303C48.6667 42.3237 48.7832 42.605 48.9906 42.8124C49.1981 43.0198 49.4794 43.1364 49.7727 43.1364C50.0661 43.1364 50.3474 43.0198 50.5548 42.8124C50.7623 42.605 50.8788 42.3237 50.8788 42.0303V12.1667C50.8771 10.7005 50.2939 9.29481 49.2571 8.25805C48.2203 7.22129 46.8147 6.63808 45.3485 6.63636H9.95455V5.5303C9.95551 4.65056 10.3054 3.80713 10.9275 3.18506C11.5496 2.56298 12.393 2.21308 13.2727 2.21212H53.0909C53.9707 2.21308 54.8141 2.56298 55.4362 3.18506C56.0582 3.80713 56.4081 4.65056 56.4091 5.5303V46.4545C56.4091 46.7479 56.5256 47.0292 56.733 47.2366C56.9405 47.4441 57.2218 47.5606 57.5152 47.5606C57.8085 47.5606 58.0898 47.4441 58.2973 47.2366C58.5047 47.0292 58.6212 46.7479 58.6212 46.4545V5.5303C58.6195 4.0641 58.0363 2.65845 56.9995 1.62169C55.9628 0.584929 54.5571 0.00172122 53.0909 0H13.2727C11.8065 0.00172122 10.4009 0.584929 9.36411 1.62169C8.32735 2.65845 7.74415 4.0641 7.74242 5.5303V6.63636H5.5303C4.0641 6.63808 2.65845 7.22129 1.62169 8.25805C0.584929 9.29481 0.00172122 10.7005 0 12.1667V63.0455C0.00172122 64.5117 0.584929 65.9173 1.62169 66.9541C2.65845 67.9908 4.0641 68.574 5.5303 68.5758H30.9697C31.263 68.5758 31.5444 68.4592 31.7518 68.2518C31.9592 68.0444 32.0758 67.763 32.0758 67.4697C32.0758 67.1764 31.9592 66.895 31.7518 66.6876C31.5444 66.4802 31.263 66.3636 30.9697 66.3636Z" fill="url(#paint0_linear_434_15169)"/>
<path d="M35.3943 18.8034C36.2743 18.8034 37.1183 18.4538 37.7406 17.8315C38.3629 17.2092 38.7124 16.3652 38.7124 15.4852C38.7124 14.6051 38.3629 13.7611 37.7406 13.1389C37.1183 12.5166 36.2743 12.167 35.3943 12.167H15.4852C14.6051 12.167 13.7611 12.5166 13.1389 13.1389C12.5166 13.7611 12.167 14.6051 12.167 15.4852C12.167 16.3652 12.5166 17.2092 13.1389 17.8315C13.7611 18.4538 14.6051 18.8034 15.4852 18.8034H35.3943ZM14.3791 15.4852C14.3794 15.1919 14.496 14.9108 14.7034 14.7034C14.9108 14.496 15.1919 14.3794 15.4852 14.3791H35.3943C35.6876 14.3791 35.9689 14.4956 36.1764 14.7031C36.3838 14.9105 36.5003 15.1918 36.5003 15.4852C36.5003 15.7785 36.3838 16.0599 36.1764 16.2673C35.9689 16.4747 35.6876 16.5912 35.3943 16.5912H15.4852C15.1919 16.5909 14.9108 16.4743 14.7034 16.267C14.496 16.0596 14.3794 15.7784 14.3791 15.4852Z" fill="url(#paint1_linear_434_15169)"/>
<path d="M42.0302 23.2275H17.6969C17.4035 23.2275 17.1222 23.3441 16.9148 23.5515C16.7074 23.7589 16.5908 24.0403 16.5908 24.3336C16.5908 24.6269 16.7074 24.9083 16.9148 25.1157C17.1222 25.3231 17.4035 25.4397 17.6969 25.4397H42.0302C42.3236 25.4397 42.6049 25.3231 42.8123 25.1157C43.0197 24.9083 43.1363 24.6269 43.1363 24.3336C43.1363 24.0403 43.0197 23.7589 42.8123 23.5515C42.6049 23.3441 42.3236 23.2275 42.0302 23.2275Z" fill="url(#paint2_linear_434_15169)"/>
<path d="M42.0301 28.7578H8.84825C8.5549 28.7578 8.27357 28.8743 8.06614 29.0818C7.85872 29.2892 7.74219 29.5705 7.74219 29.8639C7.74219 30.1572 7.85872 30.4386 8.06614 30.646C8.27357 30.8534 8.5549 30.9699 8.84825 30.9699H42.0301C42.3234 30.9699 42.6047 30.8534 42.8122 30.646C43.0196 30.4386 43.1361 30.1572 43.1361 29.8639C43.1361 29.5705 43.0196 29.2892 42.8122 29.0818C42.6047 28.8743 42.3234 28.7578 42.0301 28.7578Z" fill="url(#paint3_linear_434_15169)"/>
<path d="M42.0301 34.2881H8.84825C8.5549 34.2881 8.27357 34.4046 8.06614 34.612C7.85872 34.8195 7.74219 35.1008 7.74219 35.3941C7.74219 35.6875 7.85872 35.9688 8.06614 36.1763C8.27357 36.3837 8.5549 36.5002 8.84825 36.5002H42.0301C42.3234 36.5002 42.6047 36.3837 42.8122 36.1763C43.0196 35.9688 43.1361 35.6875 43.1361 35.3941C43.1361 35.1008 43.0196 34.8195 42.8122 34.612C42.6047 34.4046 42.3234 34.2881 42.0301 34.2881Z" fill="url(#paint4_linear_434_15169)"/>
<path d="M43.1361 40.9244C43.1362 40.7792 43.1076 40.6353 43.052 40.5011C42.9964 40.3669 42.915 40.2449 42.8123 40.1422C42.7095 40.0395 42.5876 39.958 42.4534 39.9025C42.3192 39.8469 42.1753 39.8183 42.0301 39.8184H8.84825C8.5549 39.8184 8.27357 39.9349 8.06614 40.1423C7.85872 40.3497 7.74219 40.6311 7.74219 40.9244C7.74219 41.2178 7.85872 41.4991 8.06614 41.7065C8.27357 41.914 8.5549 42.0305 8.84825 42.0305H42.0301C42.1753 42.0305 42.3192 42.0019 42.4534 41.9464C42.5876 41.8908 42.7095 41.8093 42.8123 41.7066C42.915 41.6039 42.9964 41.4819 43.052 41.3477C43.1076 41.2135 43.1362 41.0697 43.1361 40.9244Z" fill="url(#paint5_linear_434_15169)"/>
<path d="M22.121 46.4547C22.121 46.3094 22.0924 46.1656 22.0369 46.0314C21.9813 45.8972 21.8998 45.7752 21.7971 45.6725C21.6944 45.5698 21.5724 45.4883 21.4382 45.4327C21.304 45.3772 21.1602 45.3486 21.0149 45.3486H8.84825C8.5549 45.3486 8.27357 45.4652 8.06614 45.6726C7.85872 45.88 7.74219 46.1613 7.74219 46.4547C7.74219 46.748 7.85872 47.0294 8.06614 47.2368C8.27357 47.4442 8.5549 47.5608 8.84825 47.5608H21.0149C21.1602 47.5608 21.304 47.5322 21.4382 47.4766C21.5724 47.4211 21.6944 47.3396 21.7971 47.2369C21.8998 47.1342 21.9813 47.0122 22.0369 46.878C22.0924 46.7438 22.121 46.6 22.121 46.4547Z" fill="url(#paint6_linear_434_15169)"/>
<path d="M45.3485 44.2422C42.5047 44.2422 39.7247 45.0855 37.3601 46.6655C34.9955 48.2454 33.1526 50.4911 32.0643 53.1185C30.976 55.7458 30.6912 58.6369 31.246 61.4261C31.8008 64.2154 33.1703 66.7774 35.1812 68.7883C37.1921 70.7992 39.7541 72.1687 42.5434 72.7235C45.3326 73.2783 48.2237 72.9935 50.851 71.9052C53.4784 70.8169 55.7241 68.974 57.304 66.6094C58.884 64.2448 59.7273 61.4648 59.7273 58.621C59.723 54.8088 58.2067 51.154 55.5111 48.4584C52.8155 45.7628 49.1607 44.2465 45.3485 44.2422ZM45.3485 70.7876C42.9422 70.7876 40.5899 70.0741 38.5891 68.7372C36.5883 67.4003 35.0289 65.5001 34.108 63.277C33.1871 61.0538 32.9462 58.6075 33.4156 56.2474C33.8851 53.8873 35.0438 51.7194 36.7454 50.0178C38.4469 48.3163 40.6148 47.1575 42.9749 46.6881C45.335 46.2186 47.7813 46.4596 50.0045 47.3804C52.2277 48.3013 54.1278 49.8607 55.4647 51.8615C56.8016 53.8623 57.5152 56.2146 57.5152 58.621C57.5115 61.8467 56.2285 64.9392 53.9476 67.2201C51.6667 69.501 48.5742 70.784 45.3485 70.7876Z" fill="url(#paint7_linear_434_15169)"/>
<path d="M52.7672 51.203C52.6645 51.1002 52.5426 51.0187 52.4084 50.9631C52.2742 50.9075 52.1304 50.8789 51.9851 50.8789C51.8399 50.8789 51.6961 50.9075 51.5619 50.9631C51.4277 51.0187 51.3058 51.1002 51.2031 51.203L45.3488 57.0573L39.4944 51.2029C39.2866 50.9976 39.006 50.883 38.7139 50.8839C38.4218 50.8848 38.1419 51.0013 37.9353 51.2078C37.7288 51.4144 37.6124 51.6943 37.6114 51.9864C37.6105 52.2785 37.7252 52.5591 37.9305 52.7669L43.7848 58.6213L37.9304 64.4757C37.8266 64.5781 37.7442 64.7001 37.6877 64.8346C37.6313 64.969 37.602 65.1133 37.6016 65.2591C37.6011 65.4049 37.6295 65.5494 37.6851 65.6842C37.7407 65.819 37.8224 65.9415 37.9255 66.0446C38.0286 66.1477 38.1511 66.2294 38.2859 66.285C38.4207 66.3406 38.5652 66.369 38.711 66.3685C38.8568 66.3681 39.0011 66.3388 39.1356 66.2823C39.27 66.2259 39.392 66.1434 39.4944 66.0397L45.3488 60.1853L51.2032 66.0397C51.411 66.245 51.6917 66.3596 51.9838 66.3587C52.2759 66.3578 52.5557 66.2413 52.7623 66.0348C52.9688 65.8282 53.0853 65.5483 53.0862 65.2562C53.0871 64.9641 52.9724 64.6835 52.7672 64.4757L46.9129 58.6213L52.7672 52.7669C52.87 52.6642 52.9514 52.5423 53.007 52.4082C53.0626 52.274 53.0912 52.1302 53.0912 51.9849C53.0912 51.8397 53.0626 51.6959 53.007 51.5617C52.9514 51.4275 52.8699 51.3056 52.7672 51.203Z" fill="url(#paint8_linear_434_15169)"/>
<path d="M10.8751 55.9169L11.6414 54.7676C11.6639 54.7316 11.6963 54.703 11.7347 54.6851C11.7732 54.6673 11.816 54.661 11.858 54.6671C11.9005 54.6703 11.9412 54.686 11.9748 54.7124C12.0083 54.7388 12.0333 54.7745 12.0465 54.8151L13.199 57.887C13.3731 58.3526 13.6853 58.7539 14.0937 59.0373C14.5021 59.3207 14.9873 59.4726 15.4844 59.4727C15.9815 59.4728 16.4668 59.3211 16.8754 59.038C17.2839 58.7548 17.5963 58.3536 17.7707 57.8881L18.5149 55.905C18.5309 55.8601 18.5608 55.8215 18.6002 55.7947C18.6396 55.7679 18.6865 55.7543 18.7341 55.7559C18.7823 55.7537 18.8297 55.7683 18.8683 55.797C18.907 55.8257 18.9346 55.8669 18.9464 55.9136C19.0984 56.3722 19.3835 56.7752 19.7653 57.0713C20.1471 57.3673 20.6084 57.543 21.0905 57.5759C21.5726 57.6148 22.0552 57.5075 22.4754 57.268C22.8957 57.0285 23.234 56.6679 23.4462 56.2333L24.2169 54.692C24.2823 54.562 24.3214 54.4204 24.332 54.2753C24.3425 54.1302 24.3244 53.9844 24.2785 53.8464C24.2327 53.7083 24.1601 53.5806 24.0648 53.4706C23.9695 53.3607 23.8535 53.2706 23.7234 53.2055C23.5933 53.1404 23.4516 53.1017 23.3065 53.0915C23.1613 53.0812 23.0156 53.0997 22.8776 53.1459C22.7397 53.1921 22.6122 53.265 22.5024 53.3605C22.3927 53.456 22.3029 53.5723 22.2381 53.7025L21.4674 55.2439C21.4503 55.2868 21.4191 55.3226 21.379 55.3453C21.3388 55.3681 21.2921 55.3765 21.2465 55.3692C21.2007 55.3688 21.1563 55.3535 21.12 55.3256C21.0837 55.2978 21.0574 55.2589 21.0451 55.2147C20.8858 54.7358 20.5819 54.3181 20.1754 54.0191C19.7688 53.72 19.2796 53.5543 18.7749 53.5448C18.2703 53.5354 17.7752 53.6826 17.3577 53.9661C16.9402 54.2497 16.6209 54.6558 16.4437 55.1283L15.6995 57.1115C15.6832 57.1553 15.6539 57.1931 15.6155 57.2198C15.5771 57.2464 15.5314 57.2607 15.4847 57.2605C15.4379 57.2604 15.3924 57.246 15.3541 57.2191C15.3158 57.1923 15.2867 57.1543 15.2707 57.1104L14.1182 54.0374C13.9604 53.6166 13.6896 53.2475 13.3355 52.9708C12.9814 52.6941 12.5578 52.5205 12.1114 52.4691C11.665 52.4178 11.213 52.4906 10.8053 52.6796C10.3976 52.8687 10.0501 53.1666 9.80085 53.5405L9.03457 54.6898C8.95231 54.8106 8.89482 54.9465 8.8654 55.0897C8.83599 55.2329 8.83524 55.3804 8.8632 55.5239C8.89117 55.6674 8.94728 55.8039 9.02831 55.9255C9.10934 56.0471 9.21368 56.1515 9.33528 56.2326C9.45689 56.3137 9.59336 56.3698 9.73681 56.3979C9.88026 56.4259 10.0278 56.4252 10.171 56.3958C10.3142 56.3665 10.4501 56.309 10.571 56.2268C10.6918 56.1446 10.7952 56.0392 10.8751 55.9169Z" fill="url(#paint9_linear_434_15169)"/>
<defs>
<linearGradient id="paint0_linear_434_15169" x1="29.3106" y1="0" x2="29.6265" y2="68.5796" gradientUnits="userSpaceOnUse">
<stop stop-color="#FDA39A"/>
<stop offset="1" stop-color="#FBC2A5"/>
</linearGradient>
<linearGradient id="paint1_linear_434_15169" x1="25.4397" y1="12.167" x2="25.4463" y2="18.8039" gradientUnits="userSpaceOnUse">
<stop stop-color="#FDA39A"/>
<stop offset="1" stop-color="#FBC2A5"/>
</linearGradient>
<linearGradient id="paint2_linear_434_15169" x1="29.8635" y1="23.2275" x2="29.8643" y2="25.4398" gradientUnits="userSpaceOnUse">
<stop stop-color="#FDA39A"/>
<stop offset="1" stop-color="#FBC2A5"/>
</linearGradient>
<linearGradient id="paint3_linear_434_15169" x1="25.4392" y1="28.7578" x2="25.4397" y2="30.9701" gradientUnits="userSpaceOnUse">
<stop stop-color="#FDA39A"/>
<stop offset="1" stop-color="#FBC2A5"/>
</linearGradient>
<linearGradient id="paint4_linear_434_15169" x1="25.4392" y1="34.2881" x2="25.4397" y2="36.5004" gradientUnits="userSpaceOnUse">
<stop stop-color="#FDA39A"/>
<stop offset="1" stop-color="#FBC2A5"/>
</linearGradient>
<linearGradient id="paint5_linear_434_15169" x1="25.4392" y1="39.8184" x2="25.4397" y2="42.0306" gradientUnits="userSpaceOnUse">
<stop stop-color="#FDA39A"/>
<stop offset="1" stop-color="#FBC2A5"/>
</linearGradient>
<linearGradient id="paint6_linear_434_15169" x1="14.9316" y1="45.3486" x2="14.9329" y2="47.5609" gradientUnits="userSpaceOnUse">
<stop stop-color="#FDA39A"/>
<stop offset="1" stop-color="#FBC2A5"/>
</linearGradient>
<linearGradient id="paint7_linear_434_15169" x1="45.3485" y1="44.2422" x2="45.4618" y2="73.0015" gradientUnits="userSpaceOnUse">
<stop stop-color="#FDA39A"/>
<stop offset="1" stop-color="#FBC2A5"/>
</linearGradient>
<linearGradient id="paint8_linear_434_15169" x1="45.3464" y1="50.8789" x2="45.4074" y2="66.3695" gradientUnits="userSpaceOnUse">
<stop stop-color="#FDA39A"/>
<stop offset="1" stop-color="#FBC2A5"/>
</linearGradient>
<linearGradient id="paint9_linear_434_15169" x1="16.5888" y1="52.4531" x2="16.6013" y2="59.4732" gradientUnits="userSpaceOnUse">
<stop stop-color="#FDA39A"/>
<stop offset="1" stop-color="#FBC2A5"/>
</linearGradient>
</defs>
</svg>
