<svg width="60" height="73" viewBox="0 0 60 73" fill="none" xmlns="http://www.w3.org/2000/svg">
<path d="M30.9697 66.3636H5.5303C4.65056 66.3627 3.80713 66.0128 3.18505 65.3907C2.56298 64.7686 2.21308 63.9252 2.21212 63.0455V12.1667C2.21308 11.2869 2.56298 10.4435 3.18505 9.82142C3.80713 9.19935 4.65056 8.84945 5.5303 8.84848H45.3485C46.2282 8.84945 47.0717 9.19935 47.6937 9.82142C48.3158 10.4435 48.6657 11.2869 48.6667 12.1667V42.0303C48.6667 42.3236 48.7832 42.605 48.9906 42.8124C49.1981 43.0198 49.4794 43.1364 49.7727 43.1364C50.0661 43.1364 50.3474 43.0198 50.5548 42.8124C50.7623 42.605 50.8788 42.3236 50.8788 42.0303V12.1667C50.8771 10.7005 50.2939 9.29481 49.2571 8.25805C48.2203 7.22129 46.8147 6.63808 45.3485 6.63636H9.95455V5.5303C9.95551 4.65056 10.3054 3.80713 10.9275 3.18505C11.5496 2.56298 12.393 2.21308 13.2727 2.21212H53.0909C53.9707 2.21308 54.8141 2.56298 55.4362 3.18505C56.0582 3.80713 56.4081 4.65056 56.4091 5.5303V46.4545C56.4091 46.7479 56.5256 47.0292 56.733 47.2367C56.9405 47.4441 57.2218 47.5606 57.5152 47.5606C57.8085 47.5606 58.0898 47.4441 58.2973 47.2367C58.5047 47.0292 58.6212 46.7479 58.6212 46.4545V5.5303C58.6195 4.0641 58.0363 2.65845 56.9995 1.62169C55.9628 0.584929 54.5571 0.00172122 53.0909 0H13.2727C11.8065 0.00172122 10.4009 0.584929 9.36411 1.62169C8.32735 2.65845 7.74415 4.0641 7.74242 5.5303V6.63636H5.5303C4.0641 6.63808 2.65845 7.22129 1.62169 8.25805C0.584929 9.29481 0.00172122 10.7005 0 12.1667V63.0455C0.00172122 64.5117 0.584929 65.9173 1.62169 66.9541C2.65845 67.9908 4.0641 68.574 5.5303 68.5758H30.9697C31.263 68.5758 31.5444 68.4592 31.7518 68.2518C31.9592 68.0444 32.0758 67.763 32.0758 67.4697C32.0758 67.1764 31.9592 66.895 31.7518 66.6876C31.5444 66.4802 31.263 66.3636 30.9697 66.3636Z" fill="url(#paint0_linear_4_25)"/>
<path d="M35.3939 18.803C36.274 18.803 37.118 18.4534 37.7402 17.8312C38.3625 17.2089 38.7121 16.3649 38.7121 15.4848C38.7121 14.6048 38.3625 13.7608 37.7402 13.1385C37.118 12.5163 36.274 12.1667 35.3939 12.1667H15.4848C14.6048 12.1667 13.7608 12.5163 13.1385 13.1385C12.5163 13.7608 12.1667 14.6048 12.1667 15.4848C12.1667 16.3649 12.5163 17.2089 13.1385 17.8312C13.7608 18.4534 14.6048 18.803 15.4848 18.803H35.3939ZM14.3788 15.4848C14.3791 15.1916 14.4957 14.9104 14.7031 14.7031C14.9104 14.4957 15.1916 14.3791 15.4848 14.3788H35.3939C35.6873 14.3788 35.9686 14.4953 36.176 14.7027C36.3835 14.9102 36.5 15.1915 36.5 15.4848C36.5 15.7782 36.3835 16.0595 36.176 16.267C35.9686 16.4744 35.6873 16.5909 35.3939 16.5909H15.4848C15.1916 16.5906 14.9104 16.474 14.7031 16.2666C14.4957 16.0593 14.3791 15.7781 14.3788 15.4848Z" fill="url(#paint1_linear_4_25)"/>
<path d="M42.0303 23.2273H17.697C17.4036 23.2273 17.1223 23.3438 16.9149 23.5512C16.7074 23.7587 16.5909 24.04 16.5909 24.3333C16.5909 24.6267 16.7074 24.908 16.9149 25.1154C17.1223 25.3229 17.4036 25.4394 17.697 25.4394H42.0303C42.3236 25.4394 42.605 25.3229 42.8124 25.1154C43.0198 24.908 43.1364 24.6267 43.1364 24.3333C43.1364 24.04 43.0198 23.7587 42.8124 23.5512C42.605 23.3438 42.3236 23.2273 42.0303 23.2273Z" fill="url(#paint2_linear_4_25)"/>
<path d="M42.0303 28.7576H8.84848C8.55514 28.7576 8.27381 28.8741 8.06638 29.0815C7.85895 29.289 7.74242 29.5703 7.74242 29.8636C7.74242 30.157 7.85895 30.4383 8.06638 30.6457C8.27381 30.8532 8.55514 30.9697 8.84848 30.9697H42.0303C42.3236 30.9697 42.605 30.8532 42.8124 30.6457C43.0198 30.4383 43.1364 30.157 43.1364 29.8636C43.1364 29.5703 43.0198 29.289 42.8124 29.0815C42.605 28.8741 42.3236 28.7576 42.0303 28.7576Z" fill="url(#paint3_linear_4_25)"/>
<path d="M42.0303 34.2879H8.84848C8.55514 34.2879 8.27381 34.4044 8.06638 34.6118C7.85895 34.8193 7.74242 35.1006 7.74242 35.3939C7.74242 35.6873 7.85895 35.9686 8.06638 36.176C8.27381 36.3835 8.55514 36.5 8.84848 36.5H42.0303C42.3236 36.5 42.605 36.3835 42.8124 36.176C43.0198 35.9686 43.1364 35.6873 43.1364 35.3939C43.1364 35.1006 43.0198 34.8193 42.8124 34.6118C42.605 34.4044 42.3236 34.2879 42.0303 34.2879Z" fill="url(#paint4_linear_4_25)"/>
<path d="M43.1364 40.9242C43.1364 40.779 43.1078 40.6351 43.0522 40.5009C42.9967 40.3667 42.9152 40.2448 42.8125 40.1421C42.7098 40.0393 42.5878 39.9579 42.4536 39.9023C42.3194 39.8467 42.1756 39.8181 42.0303 39.8182H8.84848C8.55514 39.8182 8.27381 39.9347 8.06638 40.1421C7.85895 40.3496 7.74242 40.6309 7.74242 40.9242C7.74242 41.2176 7.85895 41.4989 8.06638 41.7063C8.27381 41.9138 8.55514 42.0303 8.84848 42.0303H42.0303C42.1756 42.0303 42.3194 42.0018 42.4536 41.9462C42.5878 41.8906 42.7098 41.8091 42.8125 41.7064C42.9152 41.6037 42.9967 41.4818 43.0522 41.3476C43.1078 41.2133 43.1364 41.0695 43.1364 40.9242Z" fill="url(#paint5_linear_4_25)"/>
<path d="M22.1212 46.4545C22.1212 46.3093 22.0927 46.1654 22.0371 46.0312C21.9815 45.897 21.9001 45.7751 21.7973 45.6724C21.6946 45.5696 21.5727 45.4882 21.4385 45.4326C21.3043 45.377 21.1604 45.3484 21.0152 45.3485H8.84848C8.55514 45.3485 8.27381 45.465 8.06638 45.6724C7.85895 45.8799 7.74242 46.1612 7.74242 46.4545C7.74242 46.7479 7.85895 47.0292 8.06638 47.2366C8.27381 47.4441 8.55514 47.5606 8.84848 47.5606H21.0152C21.1604 47.5606 21.3043 47.5321 21.4385 47.4765C21.5727 47.4209 21.6946 47.3394 21.7973 47.2367C21.9001 47.134 21.9815 47.0121 22.0371 46.8779C22.0927 46.7437 22.1212 46.5998 22.1212 46.4545Z" fill="url(#paint6_linear_4_25)"/>
<path d="M45.3485 44.2424C42.5046 44.2424 39.7246 45.0857 37.3601 46.6657C34.9955 48.2456 33.1525 50.4913 32.0642 53.1187C30.9759 55.7461 30.6912 58.6372 31.246 61.4264C31.8008 64.2156 33.1702 66.7776 35.1812 68.7886C37.1921 70.7995 39.7541 72.1689 42.5433 72.7237C45.3325 73.2785 48.2236 72.9938 50.851 71.9055C53.4784 70.8172 55.7241 68.9742 57.304 66.6096C58.884 64.2451 59.7273 61.4651 59.7273 58.6212C59.723 54.809 58.2067 51.1542 55.5111 48.4586C52.8155 45.763 49.1607 44.2467 45.3485 44.2424ZM45.3485 70.7879C42.9422 70.7879 40.5899 70.0743 38.5891 68.7374C36.5883 67.4005 35.0288 65.5004 34.108 63.2772C33.1871 61.054 32.9461 58.6077 33.4156 56.2476C33.8851 53.8875 35.0438 51.7196 36.7454 50.0181C38.4469 48.3165 40.6148 47.1578 42.9749 46.6883C45.335 46.2189 47.7813 46.4598 50.0045 47.3807C52.2276 48.3015 54.1278 49.861 55.4647 51.8618C56.8016 53.8626 57.5152 56.2149 57.5152 58.6212C57.5115 61.8469 56.2285 64.9394 53.9476 67.2203C51.6667 69.5012 48.5742 70.7842 45.3485 70.7879Z" fill="url(#paint7_linear_4_25)"/>
<path d="M52.7668 51.2028C52.6641 51.1001 52.5422 51.0186 52.408 50.963C52.2739 50.9074 52.13 50.8788 51.9848 50.8788C51.8395 50.8788 51.6957 50.9074 51.5615 50.963C51.4274 51.0186 51.3054 51.1001 51.2028 51.2028L45.3485 57.0571L39.4941 51.2028C39.2862 50.9975 39.0056 50.8828 38.7135 50.8838C38.4214 50.8847 38.1415 51.0012 37.935 51.2077C37.7284 51.4143 37.612 51.6941 37.6111 51.9862C37.6102 52.2784 37.7249 52.559 37.9301 52.7668L43.7844 58.6212L37.93 64.4756C37.8263 64.578 37.7438 64.7 37.6874 64.8344C37.6309 64.9689 37.6017 65.1132 37.6012 65.259C37.6007 65.4048 37.6291 65.5493 37.6847 65.6841C37.7403 65.8189 37.822 65.9414 37.9251 66.0445C38.0282 66.1476 38.1507 66.2293 38.2855 66.2849C38.4203 66.3405 38.5648 66.3689 38.7106 66.3684C38.8565 66.3679 39.0007 66.3386 39.1352 66.2822C39.2697 66.2258 39.3916 66.1433 39.4941 66.0395L45.3485 60.1852L51.2028 66.0396C51.4107 66.2448 51.6913 66.3595 51.9834 66.3586C52.2755 66.3577 52.5554 66.2412 52.7619 66.0347C52.9685 65.8281 53.0849 65.5482 53.0858 65.2561C53.0867 64.964 52.9721 64.6834 52.7668 64.4756L46.9125 58.6212L52.7669 52.7668C52.8696 52.6641 52.9511 52.5422 53.0067 52.408C53.0622 52.2739 53.0909 52.13 53.0908 51.9848C53.0908 51.8396 53.0622 51.6958 53.0066 51.5616C52.951 51.4274 52.8695 51.3055 52.7668 51.2028Z" fill="url(#paint8_linear_4_25)"/>
<path d="M10.8748 55.9165L11.6412 54.7673C11.6636 54.7313 11.6961 54.7027 11.7345 54.6848C11.773 54.667 11.8158 54.6607 11.8578 54.6668C11.9003 54.67 11.941 54.6857 11.9745 54.7121C12.0081 54.7385 12.0331 54.7742 12.0462 54.8148L13.1988 57.8867C13.3729 58.3523 13.6851 58.7536 14.0935 59.037C14.5019 59.3203 14.9871 59.4722 15.4842 59.4724C15.9813 59.4725 16.4666 59.3208 16.8751 59.0377C17.2837 58.7545 17.5961 58.3533 17.7704 57.8878L18.5146 55.9047C18.5307 55.8598 18.5605 55.8212 18.6 55.7944C18.6394 55.7676 18.6863 55.754 18.7339 55.7556C18.782 55.7534 18.8294 55.7679 18.8681 55.7967C18.9068 55.8254 18.9343 55.8666 18.9462 55.9133C19.0982 56.3719 19.3832 56.7749 19.7651 57.0709C20.1469 57.367 20.6082 57.5427 21.0902 57.5756C21.5723 57.6145 22.055 57.5072 22.4752 57.2677C22.8954 57.0282 23.2337 56.6676 23.446 56.233L24.2167 54.6917C24.2821 54.5617 24.3212 54.4201 24.3317 54.275C24.3423 54.1299 24.3241 53.9841 24.2783 53.846C24.2325 53.708 24.1598 53.5803 24.0646 53.4703C23.9693 53.3604 23.8533 53.2703 23.7232 53.2052C23.593 53.1401 23.4514 53.1014 23.3062 53.0911C23.1611 53.0809 23.0154 53.0994 22.8774 53.1456C22.7394 53.1918 22.6119 53.2647 22.5022 53.3602C22.3924 53.4557 22.3026 53.572 22.2379 53.7022L21.4672 55.2436C21.4501 55.2865 21.4189 55.3223 21.3787 55.345C21.3386 55.3678 21.2919 55.3762 21.2463 55.3689C21.2005 55.3685 21.1561 55.3532 21.1198 55.3253C21.0834 55.2975 21.0571 55.2586 21.0449 55.2144C20.8856 54.7355 20.5817 54.3178 20.1752 54.0187C19.7686 53.7197 19.2793 53.554 18.7747 53.5445C18.2701 53.5351 17.775 53.6823 17.3575 53.9658C16.94 54.2494 16.6207 54.6555 16.4435 55.128L15.6993 57.1112C15.683 57.155 15.6537 57.1928 15.6153 57.2195C15.5769 57.2461 15.5312 57.2604 15.4845 57.2602C15.4377 57.2601 15.3921 57.2457 15.3539 57.2188C15.3156 57.192 15.2865 57.154 15.2704 57.1101L14.1179 54.0371C13.9602 53.6163 13.6894 53.2472 13.3353 52.9705C12.9812 52.6938 12.5576 52.5202 12.1112 52.4688C11.6647 52.4175 11.2128 52.4903 10.8051 52.6793C10.3974 52.8684 10.0498 53.1663 9.80062 53.5402L9.03434 54.6895C8.95208 54.8103 8.89459 54.9462 8.86517 55.0894C8.83576 55.2326 8.83501 55.3801 8.86298 55.5236C8.89094 55.6671 8.94705 55.8036 9.02808 55.9252C9.10911 56.0468 9.21345 56.1512 9.33505 56.2323C9.45666 56.3134 9.59313 56.3695 9.73658 56.3975C9.88003 56.4256 10.0276 56.4249 10.1708 56.3955C10.314 56.3662 10.4499 56.3087 10.5707 56.2265C10.6916 56.1443 10.7949 56.0389 10.8748 55.9165Z" fill="url(#paint9_linear_4_25)"/>
<defs>
<linearGradient id="paint0_linear_4_25" x1="29.3106" y1="0" x2="29.3106" y2="68.5758" gradientUnits="userSpaceOnUse">
<stop stop-color="#58CC2C"/>
<stop offset="1" stop-color="#4ED28D"/>
</linearGradient>
<linearGradient id="paint1_linear_4_25" x1="25.4394" y1="12.1667" x2="25.4394" y2="18.803" gradientUnits="userSpaceOnUse">
<stop stop-color="#58CC2C"/>
<stop offset="1" stop-color="#4ED28D"/>
</linearGradient>
<linearGradient id="paint2_linear_4_25" x1="29.8636" y1="23.2273" x2="29.8636" y2="25.4394" gradientUnits="userSpaceOnUse">
<stop stop-color="#58CC2C"/>
<stop offset="1" stop-color="#4ED28D"/>
</linearGradient>
<linearGradient id="paint3_linear_4_25" x1="25.4394" y1="28.7576" x2="25.4394" y2="30.9697" gradientUnits="userSpaceOnUse">
<stop stop-color="#58CC2C"/>
<stop offset="1" stop-color="#4ED28D"/>
</linearGradient>
<linearGradient id="paint4_linear_4_25" x1="25.4394" y1="34.2879" x2="25.4394" y2="36.5" gradientUnits="userSpaceOnUse">
<stop stop-color="#58CC2C"/>
<stop offset="1" stop-color="#4ED28D"/>
</linearGradient>
<linearGradient id="paint5_linear_4_25" x1="25.4394" y1="39.8182" x2="25.4394" y2="42.0303" gradientUnits="userSpaceOnUse">
<stop stop-color="#58CC2C"/>
<stop offset="1" stop-color="#4ED28D"/>
</linearGradient>
<linearGradient id="paint6_linear_4_25" x1="14.9318" y1="45.3485" x2="14.9318" y2="47.5606" gradientUnits="userSpaceOnUse">
<stop stop-color="#58CC2C"/>
<stop offset="1" stop-color="#4ED28D"/>
</linearGradient>
<linearGradient id="paint7_linear_4_25" x1="45.3485" y1="44.2424" x2="45.3485" y2="73" gradientUnits="userSpaceOnUse">
<stop stop-color="#58CC2C"/>
<stop offset="1" stop-color="#4ED28D"/>
</linearGradient>
<linearGradient id="paint8_linear_4_25" x1="45.346" y1="50.8788" x2="45.346" y2="66.3684" gradientUnits="userSpaceOnUse">
<stop stop-color="#58CC2C"/>
<stop offset="1" stop-color="#4ED28D"/>
</linearGradient>
<linearGradient id="paint9_linear_4_25" x1="16.5886" y1="52.4528" x2="16.5886" y2="59.4724" gradientUnits="userSpaceOnUse">
<stop stop-color="#58CC2C"/>
<stop offset="1" stop-color="#4ED28D"/>
</linearGradient>
</defs>
</svg>
