<svg width="72" height="75" viewBox="0 0 72 75" fill="none" xmlns="http://www.w3.org/2000/svg">
<path d="M71.4293 70.4959L69.1649 45.5886C69.1595 45.5288 69.1453 45.4702 69.1228 45.4146L60.2734 23.5495C59.7735 22.3056 58.9121 21.2403 57.8004 20.4911C56.6888 19.7419 55.378 19.3433 54.0375 19.3468H43.3465C43.4257 19.1418 43.4994 18.9348 43.5665 18.7252C43.9163 17.6259 44.0941 16.4792 44.0935 15.3257V8.63014C44.0935 5.93178 42.7065 3.40878 40.474 2.04562C39.3611 1.3637 38.0818 1.0019 36.7766 1H35.5098C34.2047 1.0019 32.9255 1.3637 31.8127 2.04562C29.5805 3.40878 28.1931 5.93178 28.1931 8.63014V15.3258C28.1925 16.4794 28.3703 17.6261 28.7201 18.7253C28.7869 18.9349 28.8609 19.1419 28.9401 19.347H18.4014C17.0608 19.3435 15.7499 19.7421 14.6382 20.4913C13.5266 21.2406 12.6651 22.306 12.1653 23.5499L3.31646 45.4146C3.29389 45.4702 3.27967 45.5288 3.27426 45.5886L1.01011 70.4958C0.979236 70.8343 1.01927 71.1756 1.12764 71.4978C1.23602 71.82 1.41036 72.1161 1.63956 72.3672C1.86875 72.6182 2.14775 72.8188 2.45877 72.956C2.7698 73.0932 3.106 73.1641 3.44595 73.1642H10.7374C11.3555 73.1619 11.9501 72.9267 12.4024 72.5054C12.8547 72.0842 13.1315 71.5078 13.1776 70.8914L13.3353 68.6831L13.9105 69.0185C14.2112 69.1944 14.5662 69.2532 14.9075 69.1836C15.2488 69.114 15.5524 68.9209 15.7602 68.6414C15.968 68.3618 16.0654 68.0154 16.0336 67.6685C16.0019 67.3216 15.8433 66.9986 15.5882 66.7614L13.6654 64.9717L15.4926 45.784L19.6314 34.9194V73.7757C19.6314 73.9379 19.6958 74.0935 19.8105 74.2082C19.9252 74.3229 20.0807 74.3873 20.2429 74.3873C20.4051 74.3873 20.5607 74.3229 20.6754 74.2082C20.7901 74.0935 20.8545 73.9379 20.8545 73.7757V31.5964C20.855 31.4529 20.8051 31.3139 20.7135 31.2035C20.6218 31.0931 20.4943 31.0185 20.3532 30.9926C20.2121 30.9667 20.0664 30.9913 19.9416 31.062C19.8168 31.1327 19.7208 31.245 19.6704 31.3793L14.3192 45.4268C14.2998 45.4782 14.2872 45.5319 14.2819 45.5866L13.054 58.4867H3.33022L4.48438 45.7895L13.2994 24.0089C13.7084 22.9912 14.4131 22.1195 15.3226 21.5064C16.2321 20.8934 17.3046 20.5672 18.4014 20.5699H29.5024C29.9606 21.4316 30.5336 22.2271 31.2058 22.9347L31.9037 23.6654C32.5678 24.366 33.3932 24.8936 34.3081 25.2019V59.7098H22.6884C22.5262 59.7098 22.3707 59.7743 22.256 59.889C22.1413 60.0036 22.0768 60.1592 22.0768 60.3214C22.0768 60.4836 22.1413 60.6391 22.256 60.7538C22.3707 60.8685 22.5262 60.9329 22.6884 60.9329H34.3081V73.7757C34.3081 73.9379 34.3725 74.0935 34.4872 74.2082C34.6019 74.3229 34.7574 74.3873 34.9196 74.3873C35.0818 74.3873 35.2374 74.3229 35.3521 74.2082C35.4667 74.0935 35.5312 73.9379 35.5312 73.7757V60.9329H36.7543V73.7757C36.7543 73.9379 36.8187 74.0935 36.9334 74.2082C37.0481 74.3229 37.2037 74.3873 37.3659 74.3873C37.5281 74.3873 37.6836 74.3229 37.7983 74.2082C37.913 74.0935 37.9774 73.9379 37.9774 73.7757V60.9329H49.5971C49.7593 60.9329 49.9148 60.8685 50.0295 60.7538C50.1442 60.6391 50.2086 60.4836 50.2086 60.3214C50.2086 60.1592 50.1442 60.0036 50.0295 59.889C49.9148 59.7743 49.7593 59.7098 49.5971 59.7098H37.9774V25.2025C38.8921 24.8941 39.7174 24.3667 40.3815 23.6661L41.0797 22.9353C41.7521 22.2276 42.3252 21.4319 42.7834 20.5699H54.0375C55.1343 20.5671 56.2068 20.8932 57.1163 21.5062C58.0259 22.1192 58.7307 22.9909 59.1397 24.0086L67.9551 45.7895L69.1094 58.4867H59.3856L58.1569 45.586C58.1517 45.5313 58.1392 45.4776 58.1196 45.4262L52.6156 30.9781C52.5647 30.8445 52.4686 30.7329 52.3439 30.6628C52.2193 30.5927 52.074 30.5684 51.9334 30.5943C51.7928 30.6202 51.6656 30.6946 51.5741 30.8044C51.4826 30.9143 51.4325 31.0528 51.4325 31.1958V73.7757C51.4325 73.9379 51.497 74.0935 51.6116 74.2082C51.7263 74.3229 51.8819 74.3873 52.0441 74.3873C52.2063 74.3873 52.3618 74.3229 52.4765 74.2082C52.5912 74.0935 52.6556 73.9379 52.6556 73.7757V34.519L56.9471 45.7843L58.7745 64.972L56.852 66.7608C56.5974 66.9981 56.4392 67.3209 56.4076 67.6675C56.376 68.0141 56.4733 68.3602 56.6809 68.6396C56.8885 68.919 57.1917 69.1121 57.5327 69.1819C57.8736 69.2518 58.2284 69.1935 58.5291 69.0182L59.1042 68.6828L59.2622 70.8913C59.3081 71.5077 59.5848 72.084 60.0371 72.5053C60.4893 72.9266 61.0838 73.1619 61.7018 73.1642H68.9927C69.3327 73.1642 69.6689 73.0933 69.98 72.9561C70.291 72.8189 70.57 72.6184 70.7993 72.3673C71.0285 72.1163 71.2029 71.8202 71.3113 71.498C71.4197 71.1758 71.4597 70.8345 71.4289 70.4959H71.4293ZM12.9375 59.7098L12.4189 65.1559C12.41 65.2493 12.4228 65.3435 12.4561 65.4311C12.4894 65.5188 12.5424 65.5976 12.6111 65.6615L14.7549 67.6571C14.7899 67.6892 14.8118 67.7331 14.8163 67.7804C14.8207 67.8277 14.8075 67.875 14.7791 67.913C14.7506 67.9511 14.7091 67.9773 14.6625 67.9865C14.6159 67.9957 14.5676 67.9873 14.5268 67.9628L13.1034 67.1326C13.0137 67.0805 12.9122 67.052 12.8084 67.0499C12.7047 67.0478 12.6021 67.0721 12.5104 67.1206C12.4186 67.1691 12.3407 67.2401 12.284 67.327C12.2272 67.4139 12.1935 67.5138 12.1861 67.6173L11.9581 70.8049C11.935 71.1132 11.7965 71.4014 11.5702 71.612C11.3439 71.8226 11.0466 71.9401 10.7374 71.941H3.44595C3.27597 71.941 3.10786 71.9055 2.95235 71.8369C2.79684 71.7683 2.65735 71.668 2.54277 71.5424C2.42818 71.4168 2.34103 71.2688 2.28686 71.1077C2.2327 70.9465 2.21272 70.7759 2.22818 70.6066L3.21937 59.7098H12.9375ZM36.7548 59.7098H35.5316V25.4684C35.9382 25.5114 36.3482 25.5114 36.7548 25.4684V59.7098ZM42.8704 15.3258C42.8709 16.3534 42.7126 17.3749 42.4008 18.3541C41.9577 19.75 41.2039 21.0272 40.196 22.0898L39.4976 22.8206C39.0682 23.2804 38.5488 23.6471 37.9718 23.8977C37.3947 24.1484 36.7723 24.2777 36.1431 24.2777C35.514 24.2777 34.8915 24.1484 34.3145 23.8977C33.7374 23.6471 33.2181 23.2804 32.7886 22.8206L32.0907 22.09C31.0826 21.0275 30.3286 19.7502 29.8854 18.3543C29.5738 17.375 29.4155 16.3534 29.416 15.3258V8.63014C29.416 6.35513 30.578 4.23225 32.45 3.08955C33.3708 2.52485 34.4296 2.22504 35.5098 2.22312H36.7768C37.857 2.2251 38.9157 2.5249 39.8366 3.08955C41.7078 4.23225 42.8704 6.35513 42.8704 8.63014V15.3258ZM69.8963 71.5435C69.7821 71.6696 69.6426 71.7702 69.4869 71.8386C69.3312 71.9071 69.1628 71.942 68.9927 71.941H61.7014C61.3923 71.9399 61.095 71.8222 60.8689 71.6115C60.6427 71.4008 60.5043 71.1125 60.4813 70.8043L60.2535 67.6165C60.2461 67.5129 60.2124 67.4129 60.1557 67.3258C60.0989 67.2388 60.0209 67.1677 59.929 67.1192C59.8371 67.0707 59.7344 67.0464 59.6305 67.0487C59.5266 67.0509 59.425 67.0795 59.3353 67.1319L57.912 67.9621C57.8713 67.9862 57.823 67.9944 57.7766 67.9851C57.7302 67.9758 57.6889 67.9496 57.6606 67.9116C57.6323 67.8737 57.619 67.8266 57.6234 67.7794C57.6278 67.7323 57.6494 67.6884 57.6842 67.6563L59.8279 65.6611C59.8965 65.5972 59.9496 65.5183 59.9829 65.4307C60.0162 65.343 60.0289 65.2488 60.0201 65.1555L59.5018 59.7098H69.2205L70.2113 70.6066C70.2276 70.7762 70.208 70.9472 70.1538 71.1087C70.0995 71.2701 70.0118 71.4183 69.8963 71.5435Z" fill="url(#paint0_linear_434_14706)" stroke="url(#paint1_linear_434_14706)" stroke-width="0.5"/>
<defs>
<linearGradient id="paint0_linear_434_14706" x1="36.2195" y1="1" x2="36.5206" y2="74.3917" gradientUnits="userSpaceOnUse">
<stop stop-color="#FDA39A"/>
<stop offset="1" stop-color="#FBC2A5"/>
</linearGradient>
<linearGradient id="paint1_linear_434_14706" x1="36.2195" y1="1" x2="36.5206" y2="74.3917" gradientUnits="userSpaceOnUse">
<stop stop-color="#FDA39A"/>
<stop offset="1" stop-color="#FBC2A5"/>
</linearGradient>
</defs>
</svg>
