<svg xmlns="http://www.w3.org/2000/svg" width="70" height="70" viewBox="0 0 70 70" fill="none">
  <path d="M69.9918 34.9959C70.0036 30.3986 69.1035 25.8446 67.3437 21.5975C65.5838 17.3503 62.9991 13.4944 59.7391 10.2528C58.109 8.62006 56.3234 7.15038 54.4077 5.86461L55.9032 3.46958C55.9746 3.35541 56.0227 3.22829 56.045 3.0955C56.0672 2.96271 56.0631 2.82684 56.0328 2.69565C56.0025 2.56445 55.9467 2.44051 55.8685 2.33089C55.7904 2.22127 55.6914 2.12812 55.5772 2.05676C55.463 1.9854 55.3359 1.93723 55.2031 1.91499C55.0703 1.89276 54.9344 1.8969 54.8032 1.92717C54.6721 1.95745 54.5481 2.01327 54.4385 2.09144C54.3289 2.16962 54.2357 2.26862 54.1644 2.3828L52.6647 4.77373C47.7399 1.90217 42.1893 0.274534 36.4936 0.0318053C30.798 -0.210923 25.129 0.938572 19.9778 3.38073C17.7979 1.21668 14.8513 0.00158033 11.7797 6.85056e-05C5.28359 6.85056e-05 2.83107e-05 5.36428 2.83107e-05 11.9574C-0.00508228 15.0266 1.1644 17.9814 3.26859 20.2157C1.11554 24.8455 0 29.8899 0 34.9959C0 40.102 1.11554 45.1463 3.26859 49.7762C1.1644 52.0105 -0.00508228 54.9653 2.83107e-05 58.0344C2.83107e-05 64.6276 5.28359 69.9918 11.7797 69.9918C14.8526 69.9907 17.8006 68.7756 19.9819 66.6112C24.6755 68.8371 29.8053 69.9919 35 69.9919C40.1947 69.9919 45.3245 68.8371 50.0182 66.6112C52.1994 68.7756 55.1474 69.9907 58.2203 69.9918C64.7164 69.9918 70 64.6276 70 58.0344C70.0051 54.9653 68.8356 52.0105 66.7314 49.7762C68.894 45.1499 70.0074 40.1028 69.9918 34.9959ZM53.3141 7.6021C55.1013 8.80522 56.7677 10.1787 58.29 11.7032C62.9943 16.41 66.1641 22.4303 67.3826 28.9725C68.6011 35.5146 67.8113 42.2724 65.117 48.3573C63.8593 47.4268 62.4266 46.7601 60.9048 46.3974C59.3829 46.0347 57.8035 45.9834 56.2614 46.2466C59.1263 40.8335 59.819 34.5317 58.1985 28.6256C59.3007 27.8496 60.0792 26.6955 60.386 25.3829C60.6928 24.0702 60.5065 22.6906 59.8624 21.5064C59.2183 20.3222 58.1614 19.4161 56.8928 18.9603C55.6242 18.5046 54.2323 18.531 52.9819 19.0345C51.6831 17.5689 50.2109 16.2666 48.5978 15.1563L53.3141 7.6021ZM36.0212 52.621C34.8308 52.6226 33.673 53.0097 32.721 53.7243C31.769 54.439 31.0741 55.4428 30.7404 56.5854C27.7888 55.9999 24.9885 54.8158 22.5122 53.1063C21.3417 50.4814 19.2639 48.3667 16.66 47.1502C15.0321 44.6971 13.9115 41.9432 13.3641 39.0505C14.4489 38.724 15.4063 38.0703 16.1054 37.1788C16.8046 36.2874 17.2113 35.2018 17.2699 34.0704C17.3286 32.939 17.0363 31.8172 16.4331 30.8582C15.8299 29.8993 14.9452 29.1501 13.9 28.7131C14.5216 26.6272 15.4515 24.646 16.6586 22.8349C19.2623 21.6176 21.3404 19.5032 22.5122 16.8787C25.8987 14.5377 29.8751 13.1957 33.9876 13.006C38.1001 12.8162 42.1832 13.7863 45.7708 15.8056L41.0559 23.3544C38.0457 21.7731 34.54 21.4187 31.2742 22.3656C28.0084 23.3125 25.236 25.4871 23.5384 28.4333C21.8408 31.3796 21.3499 34.8687 22.1686 38.169C22.9872 41.4693 25.0519 44.3245 27.9296 46.1358C30.8074 47.9471 34.2746 48.5739 37.6044 47.8847C40.9341 47.1955 43.8677 45.2439 45.79 42.4391C47.7123 39.6343 48.474 36.1941 47.9153 32.84C47.3567 29.4859 45.5211 26.4783 42.7934 24.448L47.5097 16.8993C48.8699 17.8437 50.1199 18.9378 51.2362 20.161C50.3603 20.9941 49.7836 22.0929 49.5956 23.2871C49.4075 24.4812 49.6185 25.704 50.196 26.7661C50.7734 27.8281 51.685 28.6701 52.7895 29.1615C53.8939 29.6528 55.1297 29.7663 56.3051 29.4841C57.078 32.4734 57.2126 35.592 56.7001 38.6367C56.1876 41.6815 55.0394 44.5841 53.3305 47.1557C50.7272 48.3726 48.65 50.4873 47.4796 53.1118C45.5457 54.4531 43.4073 55.4725 41.1475 56.1302C40.7455 55.0973 40.0411 54.2097 39.1265 53.5836C38.2119 52.9575 37.1296 52.622 36.0212 52.621ZM39.4688 58.1206C39.4686 58.8024 39.2661 59.4688 38.8871 60.0356C38.5081 60.6024 37.9696 61.0441 37.3396 61.3048C36.7096 61.5655 36.0164 61.6336 35.3477 61.5004C34.6791 61.3672 34.0649 61.0388 33.5828 60.5566C33.1008 60.0744 32.7726 59.46 32.6397 58.7913C32.5068 58.1226 32.5751 57.4294 32.8361 56.7995C33.0971 56.1696 33.539 55.6313 34.1059 55.2525C34.6728 54.8737 35.3394 54.6716 36.0212 54.6716C36.9356 54.6723 37.8123 55.0359 38.4587 55.6826C39.1052 56.3293 39.4685 57.2062 39.4688 58.1206ZM11.7797 37.2379C11.0975 37.2381 10.4305 37.0361 9.86316 36.6573C9.29579 36.2785 8.85351 35.7399 8.59225 35.1097C8.331 34.4795 8.2625 33.786 8.39543 33.1168C8.52835 32.4477 8.85673 31.833 9.33903 31.3505C9.82133 30.868 10.4359 30.5394 11.105 30.4062C11.774 30.273 12.4676 30.3413 13.0979 30.6023C13.7282 30.8633 14.2669 31.3053 14.646 31.8726C15.025 32.4398 15.2273 33.1067 15.2273 33.7889C15.2263 34.703 14.8627 35.5795 14.2164 36.226C13.5701 36.8725 12.6939 37.2364 11.7797 37.2379ZM34.4532 35.8708C34.5674 35.9422 34.6946 35.9903 34.8274 36.0124C34.9603 36.0345 35.0962 36.0302 35.2273 35.9998C35.3585 35.9693 35.4824 35.9132 35.5919 35.8348C35.7013 35.7564 35.7943 35.6571 35.8653 35.5428L37.6083 32.7527C38.1401 33.3773 38.4307 34.1718 38.4273 34.9922C38.4239 35.8126 38.1268 36.6046 37.5897 37.2249C37.0527 37.8451 36.3113 38.2525 35.4999 38.3732C34.6884 38.4939 33.8605 38.32 33.1662 37.883C32.4719 37.446 31.9571 36.7747 31.715 35.9909C31.4729 35.207 31.5195 34.3623 31.8465 33.6099C32.1735 32.8575 32.7591 32.247 33.4973 31.8892C34.2356 31.5313 35.0776 31.4496 35.8708 31.659L34.1265 34.4491C34.0541 34.5631 34.005 34.6903 33.982 34.8234C33.959 34.9565 33.9626 35.0928 33.9926 35.2245C34.0226 35.3562 34.0784 35.4806 34.1567 35.5906C34.2351 35.7006 34.3345 35.794 34.4491 35.8654L34.4532 35.8708ZM36.9877 29.8778C36.3534 29.6276 35.6778 29.4987 34.9959 29.4978C33.7123 29.4958 32.4684 29.9424 31.4791 30.7603C30.4898 31.5781 29.8174 32.7159 29.5779 33.9769C29.3385 35.238 29.5471 36.5431 30.1677 37.6666C30.7884 38.7902 31.7821 39.6616 32.977 40.1303C34.172 40.599 35.4931 40.6355 36.7121 40.2335C37.9311 39.8315 38.9714 39.0163 39.6531 37.9287C40.3349 36.8412 40.6153 35.5496 40.4458 34.2773C40.2764 33.0049 39.6678 31.8317 38.7252 30.9605L41.7025 26.1937C43.9582 27.9254 45.4601 30.4596 45.896 33.2698C46.3319 36.0799 45.6685 38.95 44.0434 41.2837C42.4184 43.6175 39.9567 45.2354 37.1698 45.8015C34.3829 46.3675 31.4851 45.8381 29.0784 44.3232C26.6717 42.8084 24.9411 40.4246 24.2462 37.667C23.5513 34.9094 23.9454 31.9901 25.3468 29.5156C26.7482 27.0411 29.0491 25.2016 31.7714 24.3793C34.4936 23.557 37.4281 23.8152 39.9651 25.1L36.9877 29.8778ZM51.5807 24.1363C51.5807 23.4541 51.783 22.7873 52.1619 22.2201C52.5409 21.6529 53.0796 21.2109 53.7098 20.9498C54.34 20.6888 55.0335 20.6205 55.7026 20.7536C56.3716 20.8866 56.9861 21.2151 57.4685 21.6975C57.9509 22.1798 58.2793 22.7944 58.4124 23.4634C58.5455 24.1325 58.4772 24.8259 58.2161 25.4562C57.9551 26.0864 57.513 26.6251 56.9459 27.004C56.3787 27.383 55.7118 27.5853 55.0297 27.5853C54.115 27.5842 53.2382 27.2203 52.5916 26.5734C51.945 25.9265 51.5814 25.0496 51.5807 24.1349V24.1363ZM34.9959 2.05061C40.8219 2.03693 46.546 3.57768 51.5779 6.51395L46.859 14.0681C43.287 12.0407 39.255 10.9625 35.1478 10.9367C31.0406 10.9108 26.9953 11.9381 23.3981 13.9205C23.9116 10.7947 23.1778 7.59226 21.3544 5.00202C25.6349 3.0443 30.2889 2.03739 34.9959 2.05061ZM2.05057 11.9574C2.05057 6.49481 6.41412 2.05061 11.7797 2.05061C17.1453 2.05061 21.5075 6.49481 21.5075 11.9574C21.5075 17.4201 17.1439 21.8629 11.7797 21.8629C6.41548 21.8629 2.05057 17.4187 2.05057 11.9574ZM2.05057 34.9959C2.0386 30.3937 3.00113 25.841 4.87485 21.6374C6.13248 22.5679 7.56525 23.2345 9.08706 23.5972C10.6089 23.9599 12.1883 24.0112 13.7304 23.7481C12.963 25.1972 12.3473 26.7218 11.8932 28.2975H11.7852C10.3665 28.2969 9.00244 28.8447 7.97825 29.8264C6.95405 30.8081 6.34896 32.1477 6.28948 33.5652C6.22999 34.9826 6.72071 36.3682 7.65905 37.4322C8.59739 38.4963 9.91072 39.1565 11.3245 39.2747C11.7673 41.7088 12.582 44.0603 13.74 46.2466C12.1972 45.9836 10.6172 46.035 9.09475 46.3977C7.57231 46.7604 6.13883 47.4269 4.88031 48.3573C3.00434 44.1532 2.03993 39.5996 2.05057 34.9959ZM11.7797 67.9413C6.41412 67.9413 2.05057 63.4971 2.05057 58.0344C2.05057 52.5718 6.41412 48.129 11.7797 48.129C17.1453 48.129 21.5075 52.5732 21.5075 58.0344C21.5075 63.4957 17.1439 67.9413 11.7797 67.9413ZM34.9959 67.9413C30.2889 67.9545 25.6349 66.9476 21.3544 64.9899C22.7924 62.956 23.5625 60.5253 23.558 58.0344C23.5582 57.3755 23.5047 56.7176 23.3981 56.0673C25.6296 57.3001 28.0429 58.1703 30.5476 58.6455C30.6807 60.0497 31.3483 61.3491 32.4124 62.2749C33.4765 63.2007 34.8558 63.6822 36.2649 63.6197C37.674 63.5572 39.0052 62.9555 39.9832 61.9391C40.9612 60.9227 41.5112 59.5693 41.5194 58.1588C43.2856 57.6626 44.9884 56.9635 46.5938 56.0755C46.0822 59.2022 46.8185 62.4047 48.6443 64.994C44.3613 66.9512 39.7049 67.9568 34.9959 67.9413ZM67.9412 58.0344C67.9412 63.5026 63.5777 67.9413 58.2121 67.9413C52.8465 67.9413 48.4844 63.4971 48.4844 58.0344C48.4844 52.5718 52.8479 48.129 58.2121 48.129C63.5763 48.129 67.9412 52.5732 67.9412 58.0344ZM15.9942 52.621C15.9942 52.3491 15.8862 52.0883 15.6939 51.896C15.5017 51.7038 15.2409 51.5957 14.969 51.5957H8.59589C8.32397 51.5957 8.06319 51.7038 7.87092 51.896C7.67864 52.0883 7.57062 52.3491 7.57062 52.621C7.57062 52.8929 7.67864 53.1537 7.87092 53.346C8.06319 53.5383 8.32397 53.6463 8.59589 53.6463H9.75376C10.2208 53.6472 10.6778 53.7816 11.071 54.0338C11.4641 54.2859 11.7769 54.6453 11.9724 55.0694H8.59589C8.32397 55.0694 8.06319 55.1774 7.87092 55.3697C7.67864 55.5619 7.57062 55.8227 7.57062 56.0946C7.57062 56.3666 7.67864 56.6273 7.87092 56.8196C8.06319 57.0119 8.32397 57.1199 8.59589 57.1199H11.9724C11.7768 57.5439 11.464 57.903 11.0708 58.1549C10.6777 58.4068 10.2207 58.541 9.75376 58.5416H8.59589C8.39516 58.5417 8.19888 58.6007 8.03138 58.7114C7.86389 58.822 7.73255 58.9793 7.65365 59.1639C7.57476 59.3485 7.55178 59.5522 7.58757 59.7497C7.62335 59.9472 7.71633 60.1298 7.85496 60.275L12.4851 65.1225C12.5783 65.2198 12.6897 65.2978 12.813 65.352C12.9363 65.4062 13.0691 65.4357 13.2038 65.4386C13.3385 65.4415 13.4724 65.4179 13.5979 65.369C13.7235 65.3202 13.8382 65.2471 13.9355 65.1539C14.0328 65.0607 14.1108 64.9493 14.165 64.826C14.2193 64.7027 14.2487 64.5699 14.2516 64.4352C14.2545 64.3005 14.2309 64.1666 14.182 64.0411C14.1332 63.9155 14.0601 63.8008 13.9669 63.7035L10.8611 60.4541C11.6587 60.2498 12.3852 59.8311 12.9618 59.2434C13.5385 58.6556 13.9433 57.9213 14.1323 57.1199H14.9621C15.2341 57.1199 15.4948 57.0119 15.6871 56.8196C15.8794 56.6273 15.9874 56.3666 15.9874 56.0946C15.9874 55.8227 15.8794 55.5619 15.6871 55.3697C15.4948 55.1774 15.2341 55.0694 14.9621 55.0694H14.1323C14.0141 54.5632 13.8082 54.0816 13.524 53.6463H14.9621C15.0974 53.6474 15.2315 53.6216 15.3568 53.5706C15.4821 53.5195 15.596 53.4442 15.6919 53.3488C15.7879 53.2535 15.864 53.1401 15.9159 53.0152C15.9678 52.8903 15.9944 52.7563 15.9942 52.621ZM62.428 52.621C62.428 52.3491 62.32 52.0883 62.1277 51.896C61.9355 51.7038 61.6747 51.5957 61.4028 51.5957H55.0297C54.7578 51.5957 54.497 51.7038 54.3047 51.896C54.1124 52.0883 54.0044 52.3491 54.0044 52.621C54.0044 52.8929 54.1124 53.1537 54.3047 53.346C54.497 53.5383 54.7578 53.6463 55.0297 53.6463H56.1848C56.6521 53.6469 57.1094 53.7812 57.5028 54.0334C57.8962 54.2856 58.2092 54.645 58.4049 55.0694H55.0283C54.7564 55.0694 54.4956 55.1774 54.3033 55.3697C54.1111 55.5619 54.003 55.8227 54.003 56.0946C54.003 56.3666 54.1111 56.6273 54.3033 56.8196C54.4956 57.0119 54.7564 57.1199 55.0283 57.1199H58.4049C58.2091 57.5441 57.8961 57.9034 57.5027 58.1553C57.1093 58.4072 56.652 58.5413 56.1848 58.5416H55.027C54.8261 58.5414 54.6296 58.6003 54.4619 58.7108C54.2942 58.8213 54.1627 58.9786 54.0836 59.1633C54.0046 59.3479 53.9815 59.5517 54.0172 59.7493C54.0529 59.947 54.1459 60.1298 54.2847 60.275L58.9189 65.1225C59.1065 65.3191 59.3646 65.4331 59.6363 65.4395C59.908 65.4459 60.1712 65.3442 60.3679 65.1567C60.5644 64.9686 60.6782 64.7102 60.6844 64.4382C60.6906 64.1663 60.5885 63.903 60.4007 63.7062L57.2948 60.4541C58.0925 60.2498 58.819 59.8311 59.3956 59.2434C59.9723 58.6556 60.3771 57.9213 60.5661 57.1199H61.3959C61.6678 57.1199 61.9286 57.0119 62.1209 56.8196C62.3132 56.6273 62.4212 56.3666 62.4212 56.0946C62.4212 55.8227 62.3132 55.5619 62.1209 55.3697C61.9286 55.1774 61.6678 55.0694 61.3959 55.0694H60.5661C60.4479 54.5632 60.242 54.0816 59.9578 53.6463H61.3959C61.6678 53.6463 61.9286 53.5383 62.1209 53.346C62.3132 53.1537 62.4212 52.8929 62.4212 52.621H62.428ZM7.57062 10.0163C7.57062 10.2882 7.67864 10.549 7.87092 10.7412C8.06319 10.9335 8.32397 11.0415 8.59589 11.0415H11.9724C11.7768 11.4655 11.464 11.8246 11.0708 12.0766C10.6777 12.3285 10.2207 12.4626 9.75376 12.4633H8.59589C8.39516 12.4634 8.19888 12.5224 8.03138 12.633C7.86389 12.7436 7.73255 12.901 7.65365 13.0855C7.57476 13.2701 7.55178 13.4738 7.58757 13.6713C7.62335 13.8688 7.71633 14.0515 7.85496 14.1966L12.4851 19.0441C12.5745 19.1531 12.6854 19.2424 12.8109 19.3065C12.9364 19.3707 13.0738 19.4083 13.2145 19.417C13.3552 19.4256 13.4961 19.4052 13.6285 19.357C13.761 19.3087 13.882 19.2337 13.9842 19.1365C14.0863 19.0394 14.1673 18.9223 14.2221 18.7924C14.2769 18.6626 14.3044 18.5228 14.3028 18.3819C14.3012 18.2409 14.2705 18.1018 14.2127 17.9733C14.1549 17.8447 14.0713 17.7295 13.9669 17.6347L10.8611 14.3757C11.6587 14.1714 12.3852 13.7527 12.9618 13.165C13.5385 12.5773 13.9433 11.8429 14.1323 11.0415H14.9621C15.2341 11.0415 15.4948 10.9335 15.6871 10.7412C15.8794 10.549 15.9874 10.2882 15.9874 10.0163C15.9874 9.74435 15.8794 9.48357 15.6871 9.2913C15.4948 9.09902 15.2341 8.991 14.9621 8.991H14.1323C14.0141 8.48524 13.8082 8.00409 13.524 7.56929H14.9621C15.2341 7.56929 15.4948 7.46128 15.6871 7.269C15.8794 7.07672 15.9874 6.81594 15.9874 6.54402C15.9874 6.27211 15.8794 6.01132 15.6871 5.81905C15.4948 5.62677 15.2341 5.51875 14.9621 5.51875H8.59589C8.32397 5.51875 8.06319 5.62677 7.87092 5.81905C7.67864 6.01132 7.57062 6.27211 7.57062 6.54402C7.57062 6.81594 7.67864 7.07672 7.87092 7.269C8.06319 7.46128 8.32397 7.56929 8.59589 7.56929H9.75376C10.2207 7.56989 10.6777 7.70407 11.0708 7.95599C11.464 8.2079 11.7768 8.56704 11.9724 8.991H8.59589C8.32397 8.991 8.06319 9.09902 7.87092 9.2913C7.67864 9.48357 7.57062 9.74435 7.57062 10.0163Z" fill="url(#paint0_linear_796_17787)"/>
  <defs>
    <linearGradient id="paint0_linear_796_17787" x1="35" y1="0" x2="35" y2="69.9919" gradientUnits="userSpaceOnUse">
      <stop stop-color="#FB9F14"/>
      <stop offset="1" stop-color="#F77411"/>
    </linearGradient>
  </defs>
</svg>