<svg width="50" height="50" viewBox="0 0 50 50" fill="none" xmlns="http://www.w3.org/2000/svg">
<g id="Icon/48 place holder">
<rect width="50" height="50" rx="25" fill="#BDC4FF"/>
<g id="Group 34482">
<g id="Group 34479">
<path id="Traced layer" opacity="0.4" fill-rule="evenodd" clip-rule="evenodd" d="M16.2392 13.0749C16.0045 13.1938 15.8628 13.4279 15.8628 13.697C15.8628 13.9661 16.0045 14.2003 16.2392 14.3191C16.3897 14.3953 16.5841 14.4009 18.7105 14.3895C20.9584 14.3775 21.0218 14.3746 21.148 14.2804C21.3807 14.1068 21.4657 13.9506 21.4657 13.697C21.4657 13.4434 21.3807 13.2872 21.148 13.1136C21.0218 13.0194 20.9584 13.0165 18.7105 13.0045C16.5841 12.9931 16.3897 12.9987 16.2392 13.0749ZM34.5894 13.0729C34.4995 13.1195 34.3781 13.2293 34.3195 13.317C34.2268 13.4557 34.213 13.5361 34.213 13.9385V14.4006L33.7789 14.4007C33.2755 14.4007 33.0786 14.4741 32.9116 14.7242C32.6883 15.0582 32.8191 15.5437 33.1814 15.7256C33.3017 15.786 33.4593 15.8076 33.7789 15.8077L34.213 15.8078V16.2699C34.213 16.6723 34.2268 16.7526 34.3195 16.8914C34.6051 17.3188 35.1718 17.3088 35.4991 16.8707C35.5757 16.7681 35.5979 16.653 35.6128 16.2798L35.6315 15.8162L36.0922 15.8003C36.4682 15.7873 36.5768 15.7665 36.6824 15.6876C36.915 15.5139 37 15.3578 37 15.1042C37 14.8506 36.915 14.6945 36.6824 14.5208C36.5768 14.4418 36.4682 14.4211 36.0922 14.4081L35.6315 14.3922L35.6128 13.9286C35.5929 13.4333 35.5449 13.3155 35.2831 13.1202C35.1095 12.9906 34.7902 12.9689 34.5894 13.0729ZM13.3764 15.8893C13.1417 16.0081 13 16.2423 13 16.5114C13 16.7805 13.1417 17.0146 13.3764 17.1335C13.5269 17.2097 13.7224 17.2152 15.8712 17.2038C18.1427 17.1918 18.2059 17.189 18.3321 17.0948C18.5648 16.9211 18.6498 16.765 18.6498 16.5114C18.6498 16.2577 18.5648 16.1016 18.3321 15.9279C18.2059 15.8337 18.1427 15.8309 15.8712 15.8189C13.7224 15.8075 13.5269 15.813 13.3764 15.8893ZM30.3186 32.8672C30.2288 32.9138 30.1073 33.0236 30.0488 33.1113C29.956 33.25 29.9422 33.3304 29.9422 33.7328V34.1949L29.5081 34.195C29.0047 34.195 28.8079 34.2684 28.6408 34.5185C28.4176 34.8525 28.5484 35.338 28.9107 35.5199C29.0309 35.5803 29.1885 35.6019 29.5081 35.602L29.9422 35.6021V36.0642C29.9422 36.4665 29.956 36.5469 30.0488 36.6857C30.3344 37.1131 30.9011 37.1031 31.2283 36.665C31.3049 36.5624 31.3271 36.4473 31.3421 36.0741L31.3607 35.6105L31.8215 35.5946C32.1974 35.5816 32.306 35.5608 32.4117 35.4819C32.6442 35.3082 32.7292 35.1521 32.7292 34.8985C32.7292 34.6449 32.6442 34.4888 32.4117 34.3151C32.306 34.2361 32.1974 34.2154 31.8215 34.2024L31.3607 34.1865L31.3421 33.7229C31.3222 33.2276 31.2742 33.1098 31.0123 32.9145C30.8387 32.7849 30.5194 32.7632 30.3186 32.8672Z" fill="#2C2B46"/>
<path id="Traced layer_2" fill-rule="evenodd" clip-rule="evenodd" d="M25.3166 14.0266C24.7067 14.1093 23.8598 14.4392 23.3067 14.8096C22.7283 15.197 20.2518 17.7045 20.0043 18.1534C19.7142 18.6795 19.5971 19.1133 19.5702 19.7624L19.5468 20.3276L21.5149 18.3705C23.5997 16.2974 23.6815 16.2292 24.3025 16.0465C24.6341 15.949 25.2938 15.949 25.6254 16.0465C26.2931 16.243 26.868 16.7252 27.166 17.3386L27.3387 17.6941L27.6675 17.58C28.1347 17.418 28.7572 17.4189 29.2236 17.5825C30.6394 18.0789 31.2771 19.5546 30.6845 20.9633C30.6623 21.016 30.7471 21.0777 31.0181 21.2062C32.208 21.7699 32.7167 23.1869 32.1841 24.4536C32.1591 24.5131 32.2306 24.5669 32.5145 24.702C32.9545 24.9112 33.4303 25.3709 33.6261 25.7755C33.9955 26.5392 33.9877 27.3569 33.6037 28.0943C33.4843 28.3236 33.1617 28.6764 31.9832 29.8664C31.1739 30.6835 30.5117 31.3697 30.5117 31.3913C30.5117 31.4128 30.7921 31.4202 31.1347 31.4077C31.6478 31.389 31.824 31.3625 32.1338 31.2576C32.8524 31.0142 33.0554 30.8571 34.4764 29.4452C35.8815 28.0491 36.1341 27.7537 36.4545 27.1327C37.1355 25.8125 37.1822 24.1536 36.5761 22.8146C36.2056 21.9962 36.2021 21.9923 32.6555 18.4288C29.0158 14.7716 28.9633 14.7249 28.0881 14.3669C27.4309 14.098 26.8507 13.9919 26.0849 14.0005C25.7399 14.0043 25.3941 14.0161 25.3166 14.0266ZM24.5118 17.4686C24.4312 17.5128 22.7386 19.1654 20.7505 21.1409C17.3007 24.569 17.1344 24.7269 17.1034 24.6023C17.0856 24.5306 17.0172 23.497 16.9516 22.3055L16.8322 20.1392L16.6784 19.8349C16.2352 18.9576 15.0584 18.7896 14.4079 19.5108C14.1226 19.8272 14.0667 20.0134 13.985 20.9202C13.8483 22.4374 13.7574 23.189 13.3736 25.9788C13.0094 28.6251 13.0017 28.708 13.0001 30.0054C12.9988 31.0055 13.0134 31.2771 13.0873 31.6301C13.3538 32.9028 13.925 33.9203 14.9467 34.9419C15.9394 35.9344 17.1485 36.5836 18.5699 36.8871C19.2164 37.0251 20.523 37.0391 21.1898 36.9151C22.132 36.7399 23.0848 36.3531 23.9026 35.8141C24.3316 35.5313 24.7493 35.129 28.3369 31.5423C30.642 29.2378 32.331 27.5132 32.3776 27.4165C32.4216 27.3252 32.466 27.1232 32.4761 26.9678C32.5133 26.3992 32.0968 25.9186 31.5258 25.8712C31.0483 25.8315 31.0451 25.834 29.3599 27.5112C27.6925 29.1706 27.6978 29.1665 27.2959 29.0911C26.8495 29.0072 26.6227 28.5049 26.8413 28.0844C26.8913 27.9884 27.8032 27.0408 28.8678 25.9788C30.1542 24.6956 30.833 23.9848 30.8916 23.8596C31.0717 23.4749 30.9728 22.9334 30.6705 22.6494C30.3877 22.3838 29.8988 22.2975 29.5347 22.4488C29.4157 22.4983 28.7138 23.1668 27.3382 24.5409C25.5706 26.3065 25.2944 26.5643 25.1402 26.5927C24.5849 26.6948 24.1789 26.2882 24.2805 25.7316C24.3088 25.5763 24.6158 25.2504 26.8197 23.0355C28.1985 21.6497 29.3576 20.4524 29.3953 20.3747C29.504 20.151 29.5267 19.9431 29.4714 19.6784C29.4292 19.4764 29.3761 19.3898 29.1731 19.1908C28.8105 18.8355 28.4057 18.7675 27.9729 18.989C27.8824 19.0354 26.7188 20.1675 25.3871 21.5049C24.0554 22.8423 22.8873 23.9775 22.7914 24.0276C22.3716 24.2467 21.8702 24.0195 21.7864 23.5723C21.7094 23.1609 21.6648 23.2161 23.8372 21.034C25.2089 19.6561 25.8764 18.953 25.9257 18.8338C26.143 18.3095 25.8885 17.6714 25.3768 17.4573C25.1446 17.3602 24.6987 17.366 24.5118 17.4686Z" fill="#2C2B46"/>
</g>
</g>
</g>
</svg>
