<svg xmlns="http://www.w3.org/2000/svg" width="14" height="18" viewBox="0 0 14 18" fill="none">
<g id="Delete 2">
<path id="Vector" d="M11.8879 9.58462L12.6307 9.688L11.8879 9.58462ZM11.6911 10.9984L12.434 11.1018L11.6911 10.9984ZM2.30885 10.9984L3.05169 10.895L2.30885 10.9984ZM2.1121 9.58462L1.36926 9.688L2.1121 9.58462ZM4.88773 16.3026L4.59614 16.9936H4.59614L4.88773 16.3026ZM2.85631 13.9202L3.5603 13.6616L2.85631 13.9202ZM11.1437 13.9202L11.8477 14.1789L11.1437 13.9202ZM9.11226 16.3026L8.82067 15.6116L9.11226 16.3026ZM2.49664 6.67906C2.45746 6.2667 2.09142 5.96418 1.67906 6.00336C1.2667 6.04254 0.964183 6.40858 1.00336 6.82094L2.49664 6.67906ZM12.9966 6.82094C13.0358 6.40858 12.7333 6.04254 12.3209 6.00336C11.9086 5.96418 11.5425 6.2667 11.5034 6.67906L12.9966 6.82094ZM13 6C13.4142 6 13.75 5.66421 13.75 5.25C13.75 4.83579 13.4142 4.5 13 4.5V6ZM1 4.5C0.585786 4.5 0.25 4.83579 0.25 5.25C0.25 5.66421 0.585786 6 1 6V4.5ZM4.75 13.5C4.75 13.9142 5.08579 14.25 5.5 14.25C5.91421 14.25 6.25 13.9142 6.25 13.5H4.75ZM6.25 7.5C6.25 7.08579 5.91421 6.75 5.5 6.75C5.08579 6.75 4.75 7.08579 4.75 7.5H6.25ZM7.75 13.5C7.75 13.9142 8.08579 14.25 8.5 14.25C8.91421 14.25 9.25 13.9142 9.25 13.5H7.75ZM9.25 7.5C9.25 7.08579 8.91421 6.75 8.5 6.75C8.08579 6.75 7.75 7.08579 7.75 7.5H9.25ZM10 5.25V6H10.75V5.25H10ZM4 5.25H3.25V6H4V5.25ZM11.1451 9.48124L10.9483 10.895L12.434 11.1018L12.6307 9.688L11.1451 9.48124ZM3.05169 10.895L2.85494 9.48124L1.36926 9.688L1.56601 11.1018L3.05169 10.895ZM7 15.75C5.83628 15.75 5.47361 15.7358 5.17933 15.6116L4.59614 16.9936C5.23732 17.2642 5.97102 17.25 7 17.25V15.75ZM1.56601 11.1018C1.77444 12.5994 1.89086 13.4673 2.15232 14.1789L3.5603 13.6616C3.36836 13.1392 3.27094 12.4704 3.05169 10.895L1.56601 11.1018ZM5.17933 15.6116C4.54844 15.3454 3.93488 14.6811 3.5603 13.6616L2.15232 14.1789C2.62562 15.4671 3.4777 16.5217 4.59614 16.9936L5.17933 15.6116ZM10.9483 10.895C10.7291 12.4704 10.6316 13.1392 10.4397 13.6616L11.8477 14.1789C12.1091 13.4673 12.2256 12.5994 12.434 11.1018L10.9483 10.895ZM7 17.25C8.02897 17.25 8.76268 17.2642 9.40386 16.9936L8.82067 15.6116C8.52639 15.7358 8.16372 15.75 7 15.75V17.25ZM10.4397 13.6616C10.0651 14.6811 9.45156 15.3454 8.82067 15.6116L9.40385 16.9936C10.5223 16.5217 11.3744 15.4671 11.8477 14.1789L10.4397 13.6616ZM2.85494 9.48124C2.68813 8.28258 2.56443 7.39253 2.49664 6.67906L1.00336 6.82094C1.07496 7.57447 1.20422 8.5021 1.36926 9.688L2.85494 9.48124ZM12.6307 9.688C12.7958 8.5021 12.925 7.57447 12.9966 6.82094L11.5034 6.67906C11.4356 7.39252 11.3119 8.28258 11.1451 9.48124L12.6307 9.688ZM13 4.5H1V6H13V4.5ZM6.25 13.5V7.5H4.75V13.5H6.25ZM9.25 13.5V7.5H7.75V13.5H9.25ZM9.25 4.5V5.25H10.75V4.5H9.25ZM10 4.5H4V6H10V4.5ZM4.75 5.25V4.5H3.25V5.25H4.75ZM7 2.25C8.24264 2.25 9.25 3.25736 9.25 4.5H10.75C10.75 2.42893 9.07107 0.75 7 0.75V2.25ZM7 0.75C4.92893 0.75 3.25 2.42893 3.25 4.5H4.75C4.75 3.25736 5.75736 2.25 7 2.25V0.75Z" fill="#85454B"/>
</g>
</svg>