<svg width="24" height="24" viewBox="0 0 24 24" fill="none" xmlns="http://www.w3.org/2000/svg">
<g id="Door to Door Delivery">
<path id="Vector" d="M12.7865 0.4063L12.7866 0.406279L12.7865 0.4063ZM12.7865 0.4063L5.10654 2.8063L5.10648 2.80632M12.7865 0.4063L5.10648 2.80632M5.10648 2.80632C4.98851 2.84327 4.88544 2.91694 4.81228 3.01658M5.10648 2.80632L4.81228 3.01658M12.8193 23.6031L12.8193 23.6031L5.13933 21.6831C5.01376 21.6518 4.90228 21.5793 4.82264 21.4773C4.74299 21.3753 4.69976 21.2496 4.6998 21.1202C4.6998 21.1202 4.6998 21.1202 4.6998 21.1201L4.6998 3.36025L12.8193 23.6031ZM12.8193 23.6031C12.9049 23.6245 12.9941 23.6261 13.0803 23.6077M12.8193 23.6031L13.0803 23.6077M13.402 0.773198L13.4941 0.734279C13.5243 0.805763 13.5398 0.882581 13.5398 0.960185L13.402 0.773198ZM13.402 0.773198L13.4941 0.734278C13.4639 0.662784 13.4196 0.598078 13.3639 0.543994C13.3083 0.489911 13.2423 0.447549 13.17 0.419419C13.0977 0.391295 13.0204 0.377968 12.9429 0.380226L13.402 0.773198ZM4.81228 3.01658C4.73914 3.11621 4.69973 3.23659 4.6998 3.36018L4.81228 3.01658ZM13.0803 23.6077C13.1666 23.5894 13.2475 23.5517 13.3169 23.4974M13.0803 23.6077L13.3169 23.4974M13.3169 23.4974C13.3864 23.4431 13.4425 23.3737 13.4812 23.2945M13.3169 23.4974L13.4812 23.2945M13.4812 23.2945C13.5198 23.2153 13.5398 23.1283 13.5398 23.0402M13.4812 23.2945L13.5398 23.0402M13.5398 23.0402C13.5398 23.0402 13.5398 23.0402 13.5398 23.0401M13.5398 23.0402V23.0401M13.5398 23.0401V0.960218V23.0401ZM17.7604 15.7402C17.6838 15.7392 17.6078 15.7534 17.5367 15.782M17.7604 15.7402C17.7607 15.7402 17.761 15.7402 17.7612 15.7402L17.7598 15.8402V15.7402H17.7604ZM17.7604 15.7402H19.6792M17.5367 15.782L19.6798 15.8402M17.5367 15.782C17.4654 15.8106 17.4005 15.8532 17.3458 15.9071C17.291 15.9611 17.2476 16.0254 17.2179 16.0963C17.1882 16.1672 17.173 16.2433 17.173 16.3202C17.173 16.397 17.1882 16.4731 17.2179 16.5441C17.2476 16.615 17.291 16.6793 17.3458 16.7332C17.4005 16.7872 17.4654 16.8297 17.5367 16.8584C17.6078 16.887 17.6839 16.9012 17.7605 16.9002M17.5367 15.782L17.7598 16.8002M19.6792 15.7402C19.6789 15.7402 19.6786 15.7402 19.6784 15.7402L19.6798 15.8402M19.6792 15.7402H19.6798V15.8402M19.6792 15.7402C19.7558 15.7392 19.8318 15.7534 19.9029 15.782C19.9742 15.8106 20.0391 15.8532 20.0938 15.9071C20.1486 15.9611 20.192 16.0254 20.2217 16.0963C20.2514 16.1672 20.2666 16.2433 20.2666 16.3202C20.2666 16.397 20.2514 16.4731 20.2217 16.5441C20.192 16.615 20.1486 16.6793 20.0938 16.7332L20.0236 16.662L20.0938 16.7332C20.0391 16.7872 19.9742 16.8297 19.9029 16.8584C19.8318 16.887 19.7557 16.9012 19.6791 16.9002M19.6798 15.8402L17.7598 16.8002M19.6791 16.9002C19.6789 16.9002 19.6786 16.9002 19.6784 16.9002L19.6798 16.8002V16.9002H19.6791ZM19.6791 16.9002H17.7605M17.7605 16.9002C17.7607 16.9002 17.761 16.9002 17.7612 16.9002L17.7598 16.8002M17.7605 16.9002H17.7598V16.8002M14.3998 2.30018H14.2998V2.40018V3.36018V3.46018H14.3998H18.1398V12.9602V13.0602H18.2398H19.1998H19.2998V12.9602V2.88019C19.2998 2.72636 19.2387 2.57884 19.1299 2.47008C19.0211 2.36131 18.8736 2.3002 18.7198 2.30018H14.3998ZM5.8598 3.78621L12.3798 1.74962V22.2971L5.8598 20.6671V3.78621ZM11.5198 11.4202C11.3499 11.4202 11.2 11.5214 11.0972 11.6756C10.9944 11.8298 10.9398 12.033 10.9398 12.2402C10.9398 12.4473 10.9944 12.6506 11.0972 12.8048C11.2 12.959 11.3499 13.0602 11.5198 13.0602C11.6897 13.0602 11.8396 12.959 11.9424 12.8048C12.0452 12.6506 12.0998 12.4473 12.0998 12.2402C12.0998 12.033 12.0452 11.8298 11.9424 11.6756C11.8396 11.5214 11.6897 11.4202 11.5198 11.4202ZM14.8798 13.8202C14.726 13.8202 14.5785 13.8813 14.4697 13.9901C14.3609 14.0988 14.2998 14.2464 14.2998 14.4002V21.1202C14.2998 21.274 14.3609 21.4215 14.4697 21.5303C14.5785 21.6391 14.726 21.7002 14.8798 21.7002H22.5598C22.7136 21.7002 22.8611 21.6391 22.9699 21.5303C23.0787 21.4215 23.1398 21.274 23.1398 21.1202V14.4002C23.1398 14.2464 23.0787 14.0988 22.9699 13.9901C22.8611 13.8813 22.7136 13.8202 22.5598 13.8202H14.8798ZM15.4598 14.9802H21.9798V20.5402H15.4598V14.9802Z" fill="#094A28" stroke="#094A28" stroke-width="0.2"/>
</g>
</svg>
