<svg xmlns="http://www.w3.org/2000/svg" width="16" height="16" viewBox="0 0 16 16" fill="none">
  <path d="M12.473 5.47332C12.4111 5.41084 12.3373 5.36124 12.2561 5.32739C12.1749 5.29355 12.0877 5.27612 11.9997 5.27612C11.9117 5.27612 11.8246 5.29355 11.7433 5.32739C11.6621 5.36124 11.5884 5.41084 11.5264 5.47332L8.47305 8.52665C8.41107 8.58913 8.33734 8.63873 8.2561 8.67258C8.17486 8.70642 8.08772 8.72385 7.99971 8.72385C7.91171 8.72385 7.82457 8.70642 7.74333 8.67258C7.66209 8.63873 7.58836 8.58913 7.52638 8.52665L4.47305 5.47332C4.41107 5.41084 4.33734 5.36124 4.2561 5.32739C4.17486 5.29355 4.08772 5.27612 3.99971 5.27612C3.91171 5.27612 3.82457 5.29355 3.74333 5.32739C3.66209 5.36124 3.58836 5.41084 3.52638 5.47332C3.40221 5.59823 3.33252 5.7672 3.33252 5.94332C3.33252 6.11944 3.40221 6.28841 3.52638 6.41332L6.58638 9.47331C6.96138 9.84785 7.46971 10.0582 7.99971 10.0582C8.52972 10.0582 9.03805 9.84785 9.41305 9.47331L12.473 6.41332C12.5972 6.28841 12.6669 6.11944 12.6669 5.94332C12.6669 5.7672 12.5972 5.59823 12.473 5.47332Z" fill="#666666"/>
</svg>