<svg xmlns="http://www.w3.org/2000/svg" width="17" height="17" viewBox="0 0 17 17" fill="none">
<g id="Edit Square">
<g id="Vector">
<path fill-rule="evenodd" clip-rule="evenodd" d="M12.5457 0.9375C12.0626 0.9375 11.6636 1.13962 11.2859 1.4278C10.928 1.70082 10.5307 2.09817 10.0542 2.57467L5.94354 6.6853C5.62788 7.00045 5.37829 7.24963 5.22522 7.56812C5.07214 7.88661 5.03348 8.23717 4.98459 8.68053L4.97132 8.80034C4.87986 9.62323 4.80448 10.3015 4.82173 10.8358C4.83978 11.3946 4.96054 11.9064 5.36058 12.3065C5.76063 12.7065 6.27246 12.8273 6.83125 12.8453C7.36553 12.8626 8.04379 12.7872 8.86667 12.6957L8.98654 12.6824C9.42988 12.6336 9.78045 12.5949 10.0989 12.4418C10.4174 12.2888 10.6666 12.0392 10.9817 11.7235L15.0924 7.61282C15.5689 7.13634 15.9662 6.73902 16.2392 6.38118C16.5274 6.00348 16.7295 5.60442 16.7295 5.12132C16.7295 4.63822 16.5274 4.23916 16.2392 3.86146C15.9662 3.50362 15.5689 3.1063 15.0924 2.62983L15.0372 2.5747C14.5608 2.09818 14.1634 1.70083 13.8056 1.4278C13.4279 1.13962 13.0288 0.9375 12.5457 0.9375ZM14.6661 6.44618L11.2209 3.00096C11.5251 2.70121 11.7604 2.48079 11.9683 2.3222C12.2459 2.11038 12.4075 2.0625 12.5457 2.0625C12.6839 2.0625 12.8455 2.11038 13.1232 2.3222C13.4138 2.54393 13.7581 2.8865 14.2693 3.39775C14.7805 3.90899 15.1231 4.25326 15.3448 4.54387C15.5567 4.8215 15.6045 4.9831 15.6045 5.12132C15.6045 5.25954 15.5567 5.42114 15.3448 5.69877C15.1863 5.90664 14.9658 6.14195 14.6661 6.44618ZM10.4244 3.79549L13.8715 7.24264L10.2404 10.8737C9.84486 11.2693 9.73555 11.3683 9.61159 11.4279C9.48763 11.4874 9.34207 11.511 8.78605 11.5728C7.90856 11.6703 7.31133 11.7352 6.86756 11.7209C6.43888 11.7071 6.26581 11.6207 6.15608 11.511C6.04634 11.4012 5.95999 11.2282 5.94615 10.7995C5.93182 10.3557 5.99678 9.75848 6.09428 8.88099C6.15606 8.32498 6.1796 8.17942 6.23918 8.05546C6.29876 7.9315 6.39772 7.82218 6.7933 7.4266L10.4244 3.79549Z" fill="#85454B"/>
<path d="M6.75674 2.94635C7.06738 2.94262 7.31618 2.68778 7.31246 2.37715C7.30874 2.06651 7.0539 1.8177 6.74326 1.82143C4.92337 1.84324 3.6742 1.94282 2.71518 2.6396C2.34907 2.90559 2.02711 3.22755 1.76111 3.59366C1.32174 4.1984 1.125 4.90669 1.0303 5.78084C0.937489 6.63744 0.937494 7.71714 0.9375 9.09455V9.16242C0.937494 10.5398 0.937489 11.6195 1.0303 12.4761C1.125 13.3503 1.32174 14.0586 1.76111 14.6633C2.02711 15.0294 2.34907 15.3514 2.71518 15.6174C3.31992 16.0567 4.0282 16.2535 4.90236 16.3482C5.75894 16.441 6.83862 16.441 8.21599 16.441H8.28395C9.66132 16.441 10.7411 16.441 11.5976 16.3482C12.4718 16.2535 13.1801 16.0567 13.7848 15.6174C14.1509 15.3514 14.4729 15.0294 14.7389 14.6633C15.4357 13.7043 15.5352 12.4551 15.5571 10.6352C15.5608 10.3246 15.312 10.0697 15.0013 10.066C14.6907 10.0623 14.4359 10.3111 14.4321 10.6217C14.4097 12.4973 14.2834 13.3763 13.8287 14.002C13.6321 14.2726 13.3942 14.5106 13.1236 14.7072C12.7426 14.984 12.2549 15.1454 11.4765 15.2297C10.6875 15.3152 9.66868 15.316 8.25 15.316C6.83132 15.316 5.8125 15.3152 5.02353 15.2297C4.2451 15.1454 3.75744 14.984 3.37643 14.7072C3.10583 14.5106 2.86786 14.2726 2.67126 14.002C2.39444 13.621 2.23309 13.1334 2.14875 12.3549C2.06327 11.566 2.0625 10.5472 2.0625 9.12848C2.0625 7.7098 2.06327 6.69098 2.14875 5.90202C2.23309 5.12358 2.39444 4.63592 2.67126 4.25492C2.86786 3.98432 3.10583 3.74635 3.37643 3.54974C4.0022 3.0951 4.88114 2.96883 6.75674 2.94635Z" fill="#85454B"/>
</g>
</g>
</svg>