<svg width="26" height="26" viewBox="0 0 26 26" fill="none" xmlns="http://www.w3.org/2000/svg">
<g id="fi-rr-bell" clip-path="url(#clip0_1_7956)">
<path id="Vector" d="M23.8843 14.7136L21.925 7.66415C21.3507 5.59894 20.1025 3.78496 18.3789 2.51056C16.6553 1.23615 14.5552 0.574442 12.4124 0.630623C10.2695 0.686805 8.20697 1.45765 6.55252 2.82062C4.89807 4.1836 3.7467 6.06049 3.2814 8.15295L1.76446 14.9745C1.59691 15.7283 1.60078 16.5101 1.7758 17.2621C1.95082 18.0142 2.29252 18.7173 2.77567 19.3197C3.25882 19.922 3.87108 20.4081 4.56725 20.7421C5.26342 21.0762 6.02573 21.2496 6.79789 21.2495H7.94668C8.18336 22.4151 8.81572 23.4631 9.73662 24.2157C10.6575 24.9684 11.8103 25.3796 12.9997 25.3796C14.1891 25.3796 15.3419 24.9684 16.2628 24.2157C17.1837 23.4631 17.816 22.4151 18.0527 21.2495H18.9169C19.7118 21.2496 20.4959 21.0659 21.208 20.7127C21.9201 20.3596 22.541 19.8466 23.022 19.2138C23.5031 18.581 23.8313 17.8455 23.981 17.0649C24.1308 16.2842 24.098 15.4795 23.8853 14.7136H23.8843ZM12.9997 23.312C12.3621 23.3094 11.7409 23.1098 11.2211 22.7406C10.7013 22.3714 10.3083 21.8507 10.0958 21.2495H15.9036C15.6911 21.8507 15.2981 22.3714 14.7783 22.7406C14.2584 23.1098 13.6373 23.3094 12.9997 23.312ZM21.3795 17.9651C21.0921 18.3463 20.7198 18.6552 20.2921 18.8674C19.8645 19.0795 19.3932 19.189 18.9158 19.1871H6.79789C6.33464 19.187 5.87733 19.0829 5.45971 18.8824C5.04208 18.682 4.6748 18.3903 4.38498 18.0289C4.09516 17.6675 3.8902 17.2457 3.78522 16.7945C3.68024 16.3433 3.67793 15.8743 3.77845 15.4221L5.29436 8.59947C5.65978 6.95591 6.56412 5.48166 7.86362 4.41109C9.16312 3.34051 10.7832 2.73506 12.4663 2.69096C14.1494 2.64687 15.799 3.16667 17.1528 4.16774C18.5065 5.1688 19.4868 6.59368 19.9378 8.21586L21.8971 15.2653C22.0266 15.7246 22.0472 16.2077 21.9574 16.6764C21.8675 17.145 21.6696 17.5863 21.3795 17.9651Z" fill="#444444"/>
</g>
<defs>
<clipPath id="clip0_1_7956">
<rect width="24.7495" height="24.7495" fill="white" transform="translate(0.625 0.625)"/>
</clipPath>
</defs>
</svg>
