<svg width="320" height="250" viewBox="0 0 320 250" fill="none" xmlns="http://www.w3.org/2000/svg">
<g clip-path="url(#clip0_8_8)">
<path d="M126.295 66.152C126.148 66.4533 126.025 66.7657 125.927 67.0864L97.1554 75.7581L91.8282 70.7667L83.2444 77.8218L91.8165 87.5747C92.509 88.3627 93.4384 88.9047 94.4652 89.1194C95.4919 89.3341 96.5607 89.21 97.5109 88.7657L128.48 74.2836C129.557 74.9969 130.825 75.3655 132.116 75.3403C133.408 75.315 134.661 74.8973 135.709 74.1425C136.757 73.3877 137.551 72.3317 137.984 71.1149C138.418 69.8982 138.47 68.5783 138.135 67.3309C137.8 66.0834 137.093 64.9676 136.108 64.1317C135.124 63.2959 133.908 62.7796 132.623 62.6517C131.337 62.5237 130.043 62.79 128.913 63.4153C127.783 64.0406 126.87 64.9952 126.295 66.152Z" fill="#FFB6B6"/>
<path d="M96.2004 76.1089L85.6151 84.9181C85.3139 85.1688 84.9622 85.3516 84.584 85.454C84.2058 85.5565 83.81 85.5763 83.4235 85.512C83.0369 85.4477 82.6688 85.3008 82.3442 85.0814C82.0195 84.862 81.7459 84.5753 81.5421 84.2406L74.401 72.5142C73.1284 70.9659 72.5215 68.9762 72.7133 66.9812C72.9052 64.9862 73.88 63.1487 75.4243 61.8711C76.9685 60.5936 78.9563 59.9804 80.9519 60.1658C82.9474 60.3513 84.7881 61.3202 86.0706 62.8604L96.2739 71.9807C96.566 72.2419 96.7983 72.563 96.9551 72.9221C97.1119 73.2812 97.1894 73.6699 97.1824 74.0616C97.1754 74.4534 97.0841 74.8391 96.9146 75.1924C96.7452 75.5457 96.5016 75.8583 96.2004 76.1089Z" fill="#A9706E"/>
<path d="M124.626 222.781L129.233 219.845C129.445 217.269 129.511 214.682 129.431 212.098L127.041 212.708L129.4 211.205C129.27 208.011 128.981 205.904 128.981 205.904C128.981 205.904 119.666 211.954 113.725 220.156L114.738 227.093L112.322 222.242C111.704 223.231 111.148 224.258 110.659 225.317C105.764 236.011 105.289 246.279 109.597 248.251C113.905 250.223 121.366 243.153 126.261 232.459C127.738 229.02 128.678 225.374 129.05 221.65L124.626 222.781Z" fill="#F6D3C1"/>
<path d="M134.09 233.103L139.551 232.971C141.064 230.875 142.458 228.695 143.726 226.441L141.364 225.729L144.16 225.662C145.7 222.86 146.542 220.906 146.542 220.906C146.542 220.906 135.44 221.271 126.114 225.221L123.396 231.683L123.835 226.281C122.795 226.809 121.789 227.401 120.823 228.055C111.105 234.679 105.39 243.223 108.059 247.138C110.728 251.053 120.769 248.857 130.487 242.233C133.529 240.052 136.218 237.418 138.462 234.422L134.09 233.103Z" fill="#F6D3C1"/>
<path d="M101.812 242.747L107.775 242.746L110.011 219.555L101.811 219.749L101.812 242.747Z" fill="#FFB6B6"/>
<path d="M100.292 240.8L112.034 240.799C114.018 240.799 115.922 241.588 117.325 242.991C118.728 244.394 119.517 246.298 119.517 248.282V248.525L100.292 248.526L100.292 240.8Z" fill="#844031"/>
<path d="M31.4713 225.535L35.3819 230.036L54.6026 217.094L48.8308 210.451L31.4713 225.535Z" fill="#FFB6B6"/>
<path d="M31.9433 223.11L39.6448 231.974C40.9463 233.472 41.5997 235.426 41.4607 237.406C41.3218 239.386 40.4022 241.229 38.9042 242.531L38.7206 242.69L26.1112 228.178L31.9433 223.11Z" fill="#844031"/>
<path d="M88.713 188.157L101.258 234.631H110.984L108.848 183.803L103.209 134.282L82.727 133.194L88.713 188.157Z" fill="#844031"/>
<path d="M66.9456 134.282C66.9456 134.282 65.8572 141.357 70.2107 148.975C74.5642 156.594 71.8432 182.171 71.8432 182.171L35.1169 219.069C35.1169 219.069 40.8247 228.971 43.5456 228.426C46.2665 227.882 89.2572 193.054 89.2572 193.054L103.209 136.459L66.9456 134.282Z" fill="#844031"/>
<path d="M87.1961 51.9023C94.1087 51.9023 99.7124 46.2986 99.7124 39.3861C99.7124 32.4735 94.1087 26.8698 87.1961 26.8698C80.2836 26.8698 74.6799 32.4735 74.6799 39.3861C74.6799 46.2986 80.2836 51.9023 87.1961 51.9023Z" fill="#FFB6B6"/>
<path d="M86.6678 59.0667C86.6678 59.0667 72.0779 53.5435 72.0779 55.1761C72.0779 56.8086 57.6944 70.6126 60.9596 88.5707C64.2247 106.529 68.034 115.236 66.4014 125.031C64.7688 134.826 65.8572 137.003 65.8572 137.003C65.8572 137.003 103.753 140.268 104.297 136.459C104.841 132.65 102.717 126.84 102.717 125.207C102.717 123.575 87.6797 63.2679 86.6678 59.0667Z" fill="#A9706E"/>
<path d="M81.5311 46.907C82.5444 46.3713 83.7214 46.2608 84.8182 45.9278C88.742 44.7365 91.3706 40.3008 90.5314 36.2869C90.3763 35.772 90.3067 35.2353 90.3253 34.6979C90.472 33.5091 91.6885 32.742 92.8549 32.4696C94.0213 32.1973 95.2624 32.2368 96.3773 31.7988C98.0986 31.1225 99.2421 29.3535 99.49 27.5207C99.668 25.6653 99.2549 23.801 98.3095 22.1945L97.8882 23.4069C97.2456 22.863 96.7686 22.1496 96.5115 21.3479C96.0327 21.4284 95.5825 21.6304 95.2041 21.9347C94.8258 22.239 94.5318 22.6353 94.3505 23.0857C93.6742 23.4845 93.5767 21.8467 92.8297 21.6051C92.5012 21.5641 92.1691 21.6461 91.8973 21.8351C90.392 22.5372 88.6431 21.9369 87.0284 21.5478C84.2323 20.8771 81.3176 20.8736 78.5199 21.5377C76.6613 21.9811 74.8215 22.7531 73.4915 24.125C72.4513 25.306 71.6522 26.6792 71.1392 28.1671C69.7127 31.7571 68.7704 35.6416 69.2413 39.4759C69.6334 42.6135 70.9461 45.5648 73.0136 47.9572C74.0907 49.1982 77.6047 53.5275 79.5315 52.7893C81.9525 51.8619 78.6785 48.4153 81.5311 46.907Z" fill="#844031"/>
<path opacity="0.2" d="M102.764 155.476L88.4434 193.022L89.1669 193.298L103.487 155.752L102.764 155.476Z" fill="#85454B"/>
<path d="M133.677 60.5262C132.766 60.5272 131.893 60.8896 131.248 61.5337C130.604 62.1779 130.242 63.0513 130.241 63.9622V102.159C130.242 103.07 130.604 103.944 131.248 104.588C131.893 105.232 132.766 105.594 133.677 105.595H316.564C317.475 105.594 318.348 105.232 318.992 104.588C319.637 103.944 319.999 103.07 320 102.159V63.9622C319.999 63.0513 319.637 62.1779 318.992 61.5338C318.348 60.8896 317.475 60.5272 316.564 60.5262L133.677 60.5262Z" fill="#F6D3C1"/>
<path d="M134.912 63.2055C134.384 63.2061 133.878 63.4161 133.504 63.7896C133.131 64.1631 132.92 64.6695 132.92 65.1977V100.924C132.92 101.452 133.131 101.959 133.504 102.332C133.878 102.705 134.384 102.916 134.912 102.916H315.328C315.857 102.916 316.363 102.705 316.736 102.332C317.11 101.958 317.32 101.452 317.32 100.924V65.1977C317.32 64.6696 317.11 64.1632 316.736 63.7897C316.363 63.4162 315.857 63.2061 315.328 63.2055H134.912Z" fill="white"/>
<path d="M304.001 93.1194C304.857 93.1173 305.678 92.7759 306.283 92.17C306.888 91.5641 307.229 90.7431 307.23 89.8868C307.231 89.0304 306.893 88.2085 306.289 87.601C305.686 86.9935 304.866 86.6499 304.009 86.6455C304.007 86.6455 304.004 86.6455 304.001 86.6455H151.401C150.544 86.6489 149.724 86.9915 149.12 87.5982C148.516 88.2049 148.177 89.0262 148.177 89.8824C148.177 90.7387 148.516 91.56 149.12 92.1667C149.724 92.7734 150.544 93.1159 151.401 93.1194H304.001Z" fill="#F6D3C1"/>
<path d="M217.065 79.0565C217.49 79.057 217.912 78.9736 218.305 78.8112C218.698 78.6488 219.055 78.4104 219.356 78.1098C219.657 77.8091 219.896 77.4521 220.059 77.0591C220.222 76.6662 220.306 76.2449 220.306 75.8195C220.306 75.3941 220.222 74.9728 220.059 74.5798C219.896 74.1869 219.657 73.8298 219.356 73.5292C219.055 73.2286 218.698 72.9902 218.305 72.8278C217.912 72.6653 217.49 72.582 217.065 72.5825H151.401C150.975 72.582 150.554 72.6653 150.161 72.8278C149.767 72.9902 149.41 73.2286 149.109 73.5292C148.808 73.8298 148.569 74.1869 148.406 74.5798C148.244 74.9728 148.16 75.3941 148.16 75.8195C148.16 76.2449 148.244 76.6662 148.406 77.0591C148.569 77.4521 148.808 77.8091 149.109 78.1098C149.41 78.4104 149.767 78.6488 150.161 78.8112C150.554 78.9736 150.975 79.057 151.401 79.0565H217.065Z" fill="#F5ACA4"/>
<path d="M160.407 134.227C159.762 134.227 159.144 134.484 158.689 134.94C158.233 135.396 157.976 136.014 157.975 136.658V163.69C157.976 164.335 158.233 164.953 158.689 165.409C159.144 165.864 159.762 166.121 160.407 166.122H289.834C290.478 166.121 291.096 165.864 291.552 165.409C292.008 164.953 292.265 164.335 292.265 163.69V136.658C292.265 136.014 292.008 135.396 291.552 134.94C291.096 134.484 290.478 134.227 289.834 134.227H160.407Z" fill="#F6D3C1"/>
<path d="M161.281 136.123C160.908 136.123 160.549 136.272 160.285 136.536C160.021 136.801 159.872 137.159 159.871 137.533V162.816C159.872 163.189 160.021 163.548 160.285 163.812C160.549 164.076 160.908 164.225 161.281 164.225H288.959C289.333 164.225 289.691 164.076 289.956 163.812C290.22 163.548 290.369 163.189 290.369 162.816V137.533C290.369 137.159 290.22 136.801 289.956 136.536C289.691 136.272 289.333 136.123 288.959 136.123H161.281Z" fill="white"/>
<path d="M280.943 157.293C281.55 157.293 282.133 157.052 282.563 156.623C282.993 156.194 283.235 155.612 283.236 155.005C283.236 154.398 282.996 153.815 282.567 153.385C282.138 152.954 281.556 152.712 280.949 152.711C280.947 152.711 280.945 152.711 280.943 152.711H172.95C172.343 152.712 171.761 152.954 171.332 153.383C170.903 153.813 170.663 154.395 170.663 155.002C170.663 155.609 170.903 156.191 171.332 156.62C171.761 157.05 172.343 157.292 172.95 157.293H280.943Z" fill="#F6D3C1"/>
<path d="M219.42 147.34C219.721 147.341 220.019 147.282 220.297 147.167C220.576 147.052 220.829 146.883 221.042 146.671C221.255 146.458 221.424 146.205 221.539 145.927C221.654 145.649 221.714 145.351 221.714 145.05C221.714 144.748 221.654 144.45 221.539 144.172C221.424 143.894 221.255 143.641 221.042 143.429C220.829 143.216 220.576 143.047 220.297 142.932C220.019 142.817 219.721 142.758 219.42 142.759H172.95C172.649 142.758 172.351 142.817 172.072 142.932C171.794 143.047 171.541 143.216 171.328 143.429C171.115 143.641 170.946 143.894 170.831 144.172C170.715 144.45 170.656 144.748 170.656 145.05C170.656 145.351 170.715 145.649 170.831 145.927C170.946 146.205 171.115 146.458 171.328 146.671C171.541 146.883 171.794 147.052 172.072 147.167C172.351 147.282 172.649 147.341 172.95 147.34H219.42Z" fill="#E4E4E4"/>
<path d="M160.407 0C159.762 0.000756809 159.144 0.257191 158.689 0.713049C158.233 1.16891 157.976 1.78696 157.975 2.43164V29.4632C157.976 30.1079 158.233 30.726 158.689 31.1818C159.144 31.6377 159.762 31.8941 160.407 31.8949H289.834C290.478 31.8941 291.096 31.6377 291.552 31.1818C292.008 30.726 292.265 30.1079 292.265 29.4632V2.43164C292.265 1.78696 292.008 1.16891 291.552 0.713049C291.096 0.257191 290.478 0.000756809 289.834 0H160.407Z" fill="#F6D3C1"/>
<path d="M161.281 1.89616C160.908 1.89653 160.549 2.04517 160.285 2.30948C160.021 2.57379 159.872 2.93217 159.871 3.30599V28.5889C159.872 28.9627 160.021 29.3211 160.285 29.5854C160.549 29.8497 160.908 29.9983 161.281 29.9987H288.959C289.333 29.9983 289.691 29.8497 289.956 29.5853C290.22 29.321 290.369 28.9627 290.369 28.5889V3.30599C290.369 2.93222 290.22 2.57386 289.956 2.30955C289.691 2.04523 289.333 1.89656 288.959 1.89616H161.281Z" fill="white"/>
<path d="M280.943 23.0658C281.55 23.0663 282.133 22.8256 282.563 22.3966C282.993 21.9676 283.235 21.3854 283.236 20.7781C283.236 20.1708 282.996 19.588 282.567 19.1578C282.138 18.7277 281.556 18.4854 280.949 18.4843C280.947 18.4843 280.945 18.4843 280.943 18.4843H172.95C172.343 18.4851 171.761 18.7269 171.332 19.1564C170.903 19.5859 170.663 20.168 170.663 20.775C170.663 21.382 170.903 21.9641 171.332 22.3936C171.761 22.8232 172.343 23.0649 172.95 23.0658H280.943Z" fill="#F6D3C1"/>
<path d="M219.42 13.1136C219.721 13.1141 220.019 13.0551 220.297 12.9402C220.576 12.8253 220.829 12.6566 221.042 12.4439C221.255 12.2311 221.424 11.9784 221.539 11.7003C221.654 11.4221 221.714 11.124 221.714 10.8229C221.714 10.5218 221.654 10.2236 221.539 9.94546C221.424 9.66732 221.255 9.41464 221.042 9.20188C220.829 8.98912 220.576 8.82045 220.297 8.70552C220.019 8.5906 219.721 8.53168 219.42 8.53211H172.95C172.649 8.53168 172.351 8.5906 172.072 8.70552C171.794 8.82045 171.541 8.98912 171.328 9.20188C171.115 9.41464 170.946 9.66732 170.831 9.94546C170.715 10.2236 170.656 10.5218 170.656 10.8229C170.656 11.124 170.715 11.4221 170.831 11.7003C170.946 11.9784 171.115 12.2311 171.328 12.4439C171.541 12.6566 171.794 12.8253 172.072 12.9402C172.351 13.0551 172.649 13.1141 172.95 13.1136H219.42Z" fill="#E4E4E4"/>
<path d="M122.291 88.0808C122.049 88.3128 121.825 88.5635 121.623 88.8306L91.6259 87.0361L88.3495 80.5123L77.8577 84.1703L82.5357 96.2829C82.9136 97.2615 83.5988 98.091 84.4883 98.647C85.3778 99.2031 86.4236 99.4555 87.4688 99.3666L121.533 96.4666C122.298 97.5078 123.361 98.2916 124.582 98.7138C125.802 99.1359 127.123 99.1765 128.367 98.83C129.611 98.4834 130.721 97.7663 131.547 96.774C132.374 95.7816 132.879 94.5611 132.995 93.2747C133.112 91.9883 132.833 90.697 132.198 89.5726C131.562 88.4481 130.599 87.5438 129.437 86.98C128.275 86.4162 126.969 86.2195 125.692 86.4161C124.416 86.6128 123.229 87.1934 122.291 88.0808Z" fill="#FFB6B6"/>
<path d="M90.6085 87.0356L77.6328 91.6487C77.2636 91.7799 76.8704 91.8301 76.4801 91.7957C76.0898 91.7613 75.7115 91.6432 75.3709 91.4494C75.0303 91.2556 74.7355 90.9907 74.5066 90.6727C74.2776 90.3547 74.1199 89.9911 74.0442 89.6067L71.3904 76.1359C70.731 74.2435 70.8485 72.1669 71.7173 70.361C72.5861 68.5551 74.1354 67.1672 76.0256 66.5015C77.9157 65.8357 79.9928 65.9463 81.8016 66.8091C83.6103 67.6719 85.0034 69.2165 85.6754 71.1045L92.1028 83.1866C92.2867 83.5325 92.3939 83.9141 92.417 84.3053C92.4402 84.6964 92.3788 85.0879 92.237 85.4532C92.0952 85.8185 91.8763 86.1489 91.5953 86.422C91.3143 86.695 90.9777 86.9043 90.6085 87.0356Z" fill="#A9706E"/>
<path d="M135.195 72.7637C139.761 72.7637 143.463 69.0621 143.463 64.4961C143.463 59.93 139.761 56.2285 135.195 56.2285C130.629 56.2285 126.928 59.93 126.928 64.4961C126.928 69.0621 130.629 72.7637 135.195 72.7637Z" fill="#F5ACA4"/>
</g>
<defs>
<clipPath id="clip0_8_8">
<rect width="320" height="249.258" fill="white"/>
</clipPath>
</defs>
</svg>
