<svg width="320" height="320" viewBox="0 0 320 320" fill="none" xmlns="http://www.w3.org/2000/svg">
<path d="M93.7408 25.3374H37.0944V119.11H93.7408V25.3374Z" fill="#E0E0E0"/>
<path d="M91.8592 25.3374H35.2128V119.11H91.8592V25.3374Z" fill="#EBEBEB"/>
<path d="M89.4528 27.2383H37.6256V117.203H89.4528V27.2383Z" fill="#FAFAFA"/>
<path d="M79.36 38.9312H47.4944V105.517H79.36V38.9312Z" fill="#EBEBEB"/>
<path d="M47.4943 81.9519C47.4175 75.7311 53.0111 69.6575 59.1679 68.7935C62.1055 68.3775 65.2287 68.9599 67.9743 67.8335C72.8703 65.8239 74.4319 59.3151 79.3599 57.3887L79.5839 105.517H47.4943V81.9519Z" fill="#E0E0E0"/>
<path d="M302.342 28.8511H248.013V85.4847H302.342V28.8511Z" fill="#E0E0E0"/>
<path d="M298.662 28.8511H244.333V85.4847H298.662V28.8511Z" fill="#FAFAFA"/>
<path d="M298.675 85.4976H244.314V28.832H298.675V85.4976ZM244.346 85.4656H298.643V28.864H244.346V85.4656Z" fill="#E0E0E0"/>
<path d="M291.36 36.4604H251.635V77.8684H291.36V36.4604Z" fill="#FAFAFA"/>
<path d="M251.635 78.1436C251.356 78.5613 251.027 78.9438 250.656 79.2828C250.016 79.9548 249.126 80.8572 248.128 81.8428C247.13 82.8284 246.208 83.7052 245.536 84.326C245.193 84.6916 244.806 85.014 244.384 85.286C244.665 84.8697 244.994 84.4875 245.363 84.1468C246.003 83.5068 246.886 82.5724 247.891 81.5868C248.896 80.6012 249.811 79.718 250.49 79.0972C250.832 78.735 251.217 78.4149 251.635 78.1436Z" fill="#E0E0E0"/>
<path d="M291.36 78.0415C291.775 78.3249 292.157 78.6533 292.499 79.0207C293.139 79.6607 294.074 80.5503 295.059 81.5807C296.045 82.6111 296.915 83.5007 297.542 84.1791C297.906 84.5201 298.227 84.9049 298.496 85.3247C298.082 85.0458 297.702 84.7193 297.363 84.3519C296.691 83.7119 295.782 82.8223 294.803 81.7919C293.824 80.7615 292.934 79.8719 292.314 79.1935C291.949 78.8505 291.629 78.4635 291.36 78.0415Z" fill="#E0E0E0"/>
<path d="M291.251 36.5759C291.531 36.1582 291.859 35.7757 292.23 35.4367C292.87 34.7967 293.754 33.8559 294.752 32.8767C295.75 31.8975 296.672 31.0143 297.35 30.3871C297.696 30.0295 298.08 29.7118 298.496 29.4399C298.217 29.8542 297.891 30.2344 297.523 30.5727C296.883 31.2447 295.994 32.1535 294.963 33.1327C293.933 34.1119 293.043 35.0015 292.365 35.6223C292.028 35.9778 291.654 36.2974 291.251 36.5759Z" fill="#E0E0E0"/>
<path d="M251.52 36.672C251.102 36.3926 250.72 36.0638 250.381 35.6928C249.709 35.0528 248.806 34.1696 247.821 33.1712C246.835 32.1728 245.958 31.2512 245.338 30.5728C244.975 30.229 244.653 29.8446 244.378 29.4272C244.795 29.7048 245.177 30.0314 245.517 30.4C246.157 31.04 247.091 31.9296 248.077 32.96C249.062 33.9904 249.946 34.88 250.566 35.5584C250.926 35.8913 251.246 36.2651 251.52 36.672Z" fill="#E0E0E0"/>
<path d="M291.251 77.8684C291.246 77.8024 291.246 77.736 291.251 77.67C291.251 77.5292 291.251 77.3372 291.251 77.0876C291.251 76.5692 291.251 75.8076 291.251 74.854C291.251 72.8956 291.251 70.0412 291.213 66.4188C291.213 59.1612 291.168 48.8316 291.136 36.4604L291.29 36.614H251.68L251.853 36.4348C251.853 51.6348 251.853 65.8748 251.853 77.8428L251.699 77.6956L280.384 77.7724L288.435 77.8108H290.573H291.315C291.256 77.8166 291.196 77.8166 291.136 77.8108H290.56H288.454L280.435 77.8492L251.635 77.926H251.482V77.7724C251.482 65.7852 251.482 51.5644 251.482 36.3644V36.2876H251.667H291.277H291.43V36.4796C291.392 48.8956 291.366 59.2572 291.347 66.5596C291.347 70.1692 291.347 73.0108 291.309 74.9628C291.309 75.9228 291.309 76.6588 291.309 77.1708C291.309 77.4076 291.309 77.5932 291.309 77.7276C291.309 77.862 291.251 77.8748 291.251 77.8684Z" fill="#E0E0E0"/>
<path d="M278.125 50.5405H264.87V63.7949H278.125V50.5405Z" fill="#EBEBEB"/>
<path d="M220.288 294.24C219.162 293.273 216.64 290.208 218.586 286.637C219.296 285.357 220.813 284.678 222.176 284.077C223.539 283.475 224.986 283.001 226.118 282.035C228.256 280.217 228.845 277.203 230.266 274.777C231.891 271.993 234.931 269.907 238.144 270.054C241.818 270.221 244.883 273.222 246.272 276.646C247.661 280.07 247.712 283.872 247.744 287.571C247.744 289.613 247.667 291.917 246.163 293.299C244.781 294.579 242.701 294.579 240.819 294.528L220.73 293.888" fill="#F5F5F5"/>
<path d="M258.72 238.995H205.882L215.398 295.744C215.595 296.927 216.123 298.031 216.922 298.926C217.72 299.821 218.757 300.471 219.91 300.8L220.096 300.851C220.25 300.89 220.403 300.941 220.563 300.973C220.918 301.042 221.277 301.083 221.638 301.094V301.152L221.894 301.107H245.446C245.876 301.106 246.305 301.063 246.726 300.979C248.101 300.766 249.369 300.108 250.334 299.106C251.299 298.103 251.909 296.812 252.07 295.43L256.659 256.326L256.864 254.771L258.675 239.29L258.72 238.995ZM248.749 275.2H243.328L243.878 258.733H250.157L248.749 275.2ZM250.669 258.733H255.866L253.946 275.2H249.28L250.669 258.733ZM235.181 293.459L234.88 279.142H242.694L242.214 293.453L235.181 293.459ZM226.752 279.142H234.336L234.669 293.453H227.84L226.752 279.142ZM227.341 293.453H220.979C220.371 289.613 219.584 284.57 218.733 279.142H226.227L227.341 293.453ZM226.445 275.2L225.165 258.733H233.869L234.24 275.2H226.445ZM234.765 275.2L234.387 258.733H243.347L242.803 275.2H234.765ZM234.298 254.778L233.946 239.526H243.981L243.475 254.778H234.298ZM233.773 254.778H224.858L223.674 239.526H233.427L233.773 254.778ZM224.326 254.778H214.893C214.56 252.672 214.253 250.682 213.958 248.883C212.973 242.72 212.602 240.397 212.397 239.526H223.149L224.326 254.778ZM224.634 258.733L225.92 275.2H218.112C217.85 273.53 217.587 271.84 217.318 270.15C216.71 266.259 216.096 262.374 215.52 258.733H224.634ZM217.6 275.2H212.48L209.715 258.733H214.982C215.795 263.814 216.685 269.478 217.6 275.2ZM218.24 279.149C219.021 284.102 219.782 288.986 220.486 293.459H215.584L213.12 279.142L218.24 279.149ZM242.758 293.459L243.238 279.149H248.454L247.232 293.459H242.758ZM244.038 254.778L244.544 239.526H251.834L250.554 254.778H244.038ZM211.93 239.526C212.141 240.627 213.101 246.63 214.394 254.778H209.088L206.528 239.526H211.93ZM251.834 293.459H247.75L248.96 279.142H253.498L251.834 293.459ZM256.371 254.778H251.053L252.333 239.526H258.138L256.371 254.778Z" fill="#E0E0E0"/>
<path d="M288.794 301.703C288.794 301.799 227.398 301.869 151.68 301.869C75.9616 301.869 14.5536 301.799 14.5536 301.703C14.5536 301.607 75.936 301.536 151.68 301.536C227.424 301.536 288.794 301.613 288.794 301.703Z" fill="#263238"/>
<path d="M215.366 232.371L142.72 232.32C138.525 232.317 134.502 230.648 131.537 227.68C128.571 224.712 126.906 220.688 126.906 216.493V34.3745C126.907 32.2934 127.319 30.233 128.118 28.3113C128.917 26.3896 130.087 24.6443 131.562 23.1754C133.036 21.7065 134.785 20.5427 136.71 19.7508C138.635 18.9588 140.696 18.5542 142.778 18.5601L215.424 18.6049C219.619 18.6083 223.642 20.2773 226.607 23.2451C229.573 26.2129 231.238 30.2367 231.238 34.4321L231.2 216.544C231.201 218.623 230.792 220.682 229.996 222.603C229.201 224.524 228.035 226.27 226.564 227.74C225.093 229.21 223.348 230.375 221.426 231.17C219.505 231.965 217.446 232.373 215.366 232.371Z" fill="#455A64"/>
<path d="M215.347 25.0499H201.267C200.808 25.0599 200.356 25.1602 199.936 25.3451C199.516 25.53 199.136 25.7958 198.819 26.1275C198.501 26.4591 198.252 26.85 198.086 27.2779C197.92 27.7058 197.839 28.1622 197.85 28.6211V31.1811C197.86 31.64 197.78 32.0965 197.613 32.5243C197.447 32.9522 197.198 33.3431 196.881 33.6748C196.563 34.0064 196.184 34.2723 195.764 34.4572C195.343 34.642 194.891 34.7423 194.432 34.7523H166.976C166.049 34.7305 165.168 34.3415 164.527 33.6707C163.886 32.9999 163.538 32.1022 163.558 31.1747V28.6147C163.579 27.6873 163.231 26.7896 162.59 26.1188C161.949 25.448 161.068 25.0589 160.141 25.0371H142.861C141.405 25.0354 139.963 25.3207 138.617 25.8767C137.272 26.4327 136.049 27.2485 135.019 28.2774C133.989 29.3063 133.172 30.5281 132.614 31.873C132.057 33.218 131.77 34.6596 131.77 36.1155L131.738 213.876C131.738 216.813 132.904 219.631 134.98 221.709C137.056 223.788 139.872 224.957 142.81 224.96L215.309 224.999C216.765 225 218.207 224.715 219.552 224.159C220.898 223.603 222.121 222.787 223.151 221.758C224.181 220.73 224.998 219.508 225.556 218.163C226.113 216.818 226.4 215.376 226.4 213.92V36.1603C226.407 33.2215 225.246 30.4004 223.174 28.3169C221.101 26.2335 218.286 25.0584 215.347 25.0499Z" fill="#FAFAFA"/>
<path d="M202.752 30.8159H201.946V31.9423H202.752V30.8159Z" fill="#263238"/>
<path d="M204.064 30.3169H203.258V31.9489H204.064V30.3169Z" fill="#263238"/>
<path d="M205.37 29.9395H204.563V31.9491H205.37V29.9395Z" fill="#263238"/>
<path d="M206.682 29.21H205.875V31.9492H206.682V29.21Z" fill="#263238"/>
<path d="M218.566 32.0001H214.528C214.451 32.0001 214.377 31.97 214.322 31.9161C214.267 31.8623 214.235 31.7891 214.234 31.7121V29.7025C214.234 29.6261 214.264 29.5529 214.318 29.4988C214.372 29.4448 214.445 29.4145 214.522 29.4145H218.566C218.583 29.4081 218.601 29.4081 218.618 29.4145C218.623 29.4333 218.623 29.4533 218.618 29.4721V30.1121H219.053C219.073 30.1121 219.093 30.1202 219.107 30.1346C219.122 30.149 219.13 30.1685 219.13 30.1889V31.1553C219.128 31.1745 219.119 31.1925 219.105 31.2055C219.091 31.2185 219.072 31.2258 219.053 31.2257H218.618V31.8657C218.635 31.8725 218.65 31.8861 218.658 31.9035C218.665 31.9209 218.666 31.9407 218.659 31.9585C218.652 31.9763 218.639 31.9907 218.621 31.9985C218.604 32.0063 218.584 32.0069 218.566 32.0001ZM218.49 29.5617H214.522C214.503 29.5617 214.485 29.5653 214.468 29.5724C214.451 29.5795 214.435 29.5899 214.422 29.6029C214.409 29.616 214.399 29.6315 214.392 29.6486C214.384 29.6657 214.381 29.684 214.381 29.7025V31.7121C214.381 31.7311 214.385 31.75 214.392 31.7675C214.4 31.785 214.411 31.8008 214.424 31.814C214.438 31.8271 214.454 31.8374 214.472 31.8441C214.49 31.8508 214.509 31.8538 214.528 31.8529H218.49V31.2129C218.49 31.1925 218.498 31.173 218.512 31.1586C218.527 31.1442 218.546 31.1361 218.566 31.1361H218.995V30.2977H218.566C218.557 30.2986 218.547 30.2974 218.538 30.2943C218.528 30.2911 218.52 30.2861 218.512 30.2795C218.505 30.2728 218.499 30.2648 218.496 30.2558C218.492 30.2468 218.49 30.2371 218.49 30.2273V29.5617Z" fill="#263238"/>
<path d="M214.714 31.5265V29.8945H218.163V30.6305V30.7905V31.5265H214.714Z" fill="#263238"/>
<path d="M210.56 31.8466C210.558 31.7691 210.527 31.6951 210.472 31.6403C210.417 31.5854 210.343 31.5539 210.266 31.5522C210.188 31.5522 210.113 31.5833 210.057 31.6385C210.002 31.6937 209.971 31.7686 209.971 31.8466C209.97 31.8855 209.977 31.9242 209.992 31.9603C210.006 31.9964 210.028 32.0293 210.056 32.0568C210.083 32.0843 210.116 32.1059 210.152 32.1204C210.188 32.1349 210.227 32.1419 210.266 32.141C210.344 32.141 210.419 32.11 210.474 32.0548C210.529 31.9996 210.56 31.9247 210.56 31.8466Z" fill="#263238"/>
<path d="M209.229 31.1363L209.606 31.5139C209.689 31.428 209.789 31.3597 209.899 31.313C210.009 31.2663 210.127 31.2422 210.246 31.2422C210.366 31.2422 210.484 31.2663 210.594 31.313C210.704 31.3597 210.804 31.428 210.886 31.5139L211.264 31.1363C211.13 31.0021 210.97 30.8961 210.794 30.8247C210.618 30.7532 210.43 30.7178 210.24 30.7203C209.861 30.7207 209.498 30.8701 209.229 31.1363Z" fill="#263238"/>
<path d="M210.24 29.8752C209.643 29.868 209.067 30.0982 208.64 30.5152L209.011 30.8928C209.337 30.5695 209.778 30.3882 210.237 30.3882C210.696 30.3882 211.136 30.5695 211.462 30.8928L211.84 30.5152C211.412 30.0994 210.837 29.8694 210.24 29.8752Z" fill="#263238"/>
<path d="M208 29.9267L208.378 30.3043C208.865 29.8173 209.526 29.5438 210.214 29.5438C210.903 29.5438 211.564 29.8173 212.051 30.3043L212.429 29.9267C211.841 29.3404 211.045 29.0112 210.214 29.0112C209.384 29.0112 208.588 29.3404 208 29.9267Z" fill="#263238"/>
<path d="M183.923 47.168H179.046C178.711 47.168 178.438 47.4402 178.438 47.776V51.0848C178.438 51.4206 178.711 51.6928 179.046 51.6928H183.923C184.259 51.6928 184.531 51.4206 184.531 51.0848V47.776C184.531 47.4402 184.259 47.168 183.923 47.168Z" fill="#263238"/>
<path d="M179.782 47.4626H179.142V46.7202C179.126 46.4027 179.174 46.0851 179.284 45.7869C179.394 45.4886 179.564 45.2159 179.783 44.9853C180.001 44.7547 180.265 44.5711 180.557 44.4456C180.849 44.3201 181.164 44.2554 181.482 44.2554C181.8 44.2554 182.114 44.3201 182.406 44.4456C182.698 44.5711 182.962 44.7547 183.181 44.9853C183.4 45.2159 183.569 45.4886 183.679 45.7869C183.789 46.0851 183.837 46.4027 183.821 46.7202V47.2066H183.181V46.7202C183.195 46.4883 183.162 46.2559 183.083 46.0374C183.004 45.8188 182.881 45.6188 182.722 45.4495C182.563 45.2803 182.37 45.1454 182.157 45.0532C181.944 44.961 181.714 44.9134 181.482 44.9134C181.249 44.9134 181.019 44.961 180.806 45.0532C180.593 45.1454 180.401 45.2803 180.242 45.4495C180.082 45.6188 179.96 45.8188 179.881 46.0374C179.802 46.2559 179.768 46.4883 179.782 46.7202V47.4626Z" fill="#263238"/>
<path d="M132.48 159.29C132.543 153.536 134.125 147.9 137.068 142.955C140.01 138.009 144.208 133.93 149.235 131.13C156.275 127.29 164.48 126.291 172.307 124.493C180.135 122.695 188.25 119.725 193.088 113.319C199.629 104.659 198.381 92.3522 203.104 82.5986C205.3 78.1948 208.632 74.4571 212.755 71.7715C216.879 69.0859 221.644 67.5498 226.56 67.3218V216.128C226.56 218.527 225.607 220.827 223.911 222.523C222.215 224.219 219.915 225.171 217.517 225.171H141.536C140.348 225.172 139.171 224.939 138.072 224.485C136.974 224.031 135.976 223.365 135.135 222.525C134.294 221.686 133.627 220.688 133.171 219.591C132.716 218.493 132.481 217.317 132.48 216.128V159.29Z" fill="#EBEBEB"/>
<path d="M148.48 81.7859C148.48 76.2691 151.373 72.9795 155.386 72.9795C159.398 72.9795 162.311 76.2691 162.311 81.7859C162.311 87.3027 159.392 90.5987 155.386 90.5987C151.379 90.5987 148.48 87.3027 148.48 81.7859ZM160.48 81.7859C160.48 77.1587 158.4 74.6115 155.36 74.6115C152.32 74.6115 150.24 77.1715 150.24 81.7859C150.24 86.4003 152.32 88.9667 155.36 88.9667C158.4 88.9667 160.493 86.4003 160.493 81.7859H160.48Z" fill="#263238"/>
<path d="M177.37 81.6383C177.37 87.5263 174.17 90.5983 169.453 90.5983C168.024 90.6592 166.604 90.3342 165.344 89.6575L166.061 88.2239C167.081 88.8134 168.25 89.0956 169.427 89.0367C173.165 89.0367 175.565 86.6367 175.565 81.9327C175.565 81.5423 175.565 81.0431 175.488 80.5247C174.624 82.4447 172.595 83.4943 170.195 83.4943C166.752 83.4943 164.352 81.4655 164.352 78.2975C164.352 75.1295 166.912 72.9791 170.266 72.9791C174.867 72.9599 177.37 76.1599 177.37 81.6383ZM174.918 78.2015C174.918 76.2815 173.338 74.4895 170.342 74.4895C167.84 74.4895 166.112 75.9487 166.112 78.2463C166.112 80.5439 167.795 81.9839 170.464 81.9839C173.133 81.9839 174.918 80.3519 174.918 78.2015Z" fill="#263238"/>
<path d="M179.968 78.6691C179.96 78.4935 179.988 78.3181 180.051 78.1539C180.114 77.9897 180.21 77.8402 180.333 77.7147C180.456 77.5893 180.604 77.4905 180.767 77.4245C180.93 77.3586 181.104 77.3269 181.28 77.3315C181.456 77.3306 181.63 77.3647 181.792 77.4317C181.954 77.4987 182.102 77.5973 182.226 77.7217C182.349 77.8462 182.447 77.9941 182.514 78.1567C182.58 78.3193 182.613 78.4935 182.611 78.6691C182.615 79.0261 182.477 79.37 182.227 79.6255C181.978 79.881 181.637 80.0272 181.28 80.0323C181.104 80.0298 180.931 79.9925 180.769 79.9224C180.608 79.8524 180.462 79.7511 180.34 79.6243C180.218 79.4976 180.122 79.3479 180.058 79.1839C179.995 79.02 179.964 78.845 179.968 78.6691ZM179.968 89.2099C179.96 89.0343 179.988 88.8589 180.051 88.6947C180.114 88.5305 180.21 88.381 180.333 88.2555C180.456 88.13 180.604 88.0313 180.767 87.9653C180.93 87.8994 181.104 87.8677 181.28 87.8723C181.456 87.8714 181.63 87.9055 181.792 87.9725C181.954 88.0395 182.102 88.1381 182.226 88.2625C182.349 88.387 182.447 88.5349 182.514 88.6975C182.58 88.8601 182.613 89.0343 182.611 89.2099C182.615 89.5669 182.477 89.9108 182.227 90.1663C181.978 90.4218 181.637 90.568 181.28 90.5731C181.104 90.5706 180.931 90.5333 180.769 90.4632C180.608 90.3932 180.462 90.2919 180.34 90.1651C180.218 90.0384 180.122 89.8887 180.058 89.7247C179.995 89.5608 179.964 89.3858 179.968 89.2099Z" fill="#263238"/>
<path d="M197.018 88.8639V90.4511H184.858V89.1711L192.058 82.1311C194.016 80.2111 194.387 79.0399 194.387 77.8495C194.387 75.8463 192.973 74.6111 190.33 74.6111C189.448 74.5557 188.565 74.6996 187.746 75.0319C186.927 75.3643 186.194 75.8767 185.6 76.5311L184.32 75.4367C185.658 73.8559 187.808 72.9663 190.458 72.9663C193.971 72.9663 196.218 74.7455 196.218 77.6383C196.218 79.3023 195.699 80.7871 193.37 83.0591L187.482 88.8191L197.018 88.8639Z" fill="#263238"/>
<path d="M199.142 81.7859C199.142 76.2691 202.035 72.9795 206.048 72.9795C210.061 72.9795 212.973 76.2691 212.973 81.7859C212.973 87.3027 210.054 90.5987 206.048 90.5987C202.042 90.5987 199.142 87.3027 199.142 81.7859ZM211.142 81.7859C211.142 77.1587 209.062 74.6115 206.022 74.6115C202.982 74.6115 200.902 77.1715 200.902 81.7859C200.902 86.4003 203.027 88.9603 206.08 88.9603C209.133 88.9603 211.142 86.4003 211.142 81.7859Z" fill="#263238"/>
<path d="M161.736 59.7895C163.187 53.037 158.89 46.3866 152.137 44.9353C145.385 43.484 138.734 47.7814 137.283 54.5339C135.832 61.2863 140.129 67.9368 146.882 69.3881C153.634 70.8394 160.285 66.5419 161.736 59.7895Z" fill="#E0E0E0"/>
<path d="M81.6961 156.646C80.7937 156.006 79.6801 155.738 78.6753 155.264C77.6705 154.79 76.6977 153.984 76.6017 152.858C76.4673 151.219 78.2721 149.984 78.3809 148.378C78.5281 146.067 75.4049 144.806 74.9505 142.541C74.5729 140.659 76.1665 138.886 76.1025 136.966C76.0385 135.046 74.3745 133.619 73.6193 131.846C71.8529 127.763 75.1041 122.496 72.6401 118.79C71.8928 117.858 71.0569 117.001 70.1441 116.23C69.2993 115.386 68.5633 114.31 68.6657 113.088L64.0449 110.989C62.4961 108.621 58.9825 108.531 56.3649 109.542C53.7473 110.554 51.4049 112.365 48.6849 113.043C47.3537 113.37 47.5457 111.398 46.2017 111.674C44.4289 112.032 42.2593 114.099 41.7217 115.814C41.1841 117.651 40.8065 119.686 40.1537 121.491C39.4305 123.482 37.2993 124.87 37.0945 126.982C36.8641 129.44 39.4049 131.462 39.4113 133.92C39.4113 136.576 36.4801 138.957 37.4145 141.446C37.9521 142.867 39.5905 143.629 40.1665 145.037C40.9537 146.957 39.3857 149.12 39.5265 151.213C39.6673 153.306 41.4081 154.842 43.0529 156.096C49.3159 160.985 56.3236 164.835 63.8081 167.501C67.0529 168.614 70.4705 169.466 73.8881 169.158C77.3057 168.851 80.7425 167.238 82.5345 164.282C84.0001 161.882 83.9873 158.291 81.6961 156.646Z" fill="#263238"/>
<path d="M68.4801 111.93C68.0599 110.249 67.1999 108.711 65.9884 107.473C64.7769 106.235 63.2576 105.343 61.5866 104.886C59.9157 104.43 58.1535 104.427 56.481 104.878C54.8086 105.328 53.2862 106.216 52.0705 107.45C51.0849 108.448 50.3041 109.67 49.1393 110.451C47.8209 111.341 47.6289 111.091 46.1569 111.661C44.6849 112.23 41.9777 116.346 42.0225 117.933L41.2865 124.883C41.3441 126.509 43.4369 127.443 44.9729 126.893C46.5089 126.342 47.5329 124.922 48.3521 123.514C49.1713 122.106 49.9201 120.582 51.2641 119.68C53.4721 118.125 56.4673 118.662 59.1105 119.2C61.7537 119.738 64.8193 120.128 66.8865 118.387C68.6657 116.858 69.0497 114.189 68.4801 111.93Z" fill="#263238"/>
<path d="M69.9392 121.85C69.6384 117.325 66.6304 111.783 62.1248 112.25L48.0448 115.84C47.3853 115.912 46.7768 116.229 46.3395 116.728C45.9023 117.227 45.6681 117.871 45.6832 118.535L47.264 152.455H47.1616C47.1616 152.455 52.9216 164.583 62.1888 161.658C64.032 161.075 62.3552 156.499 62.7264 154.426H62.816C62.816 154.183 62.816 153.952 62.816 153.715C62.9981 152.169 63.0174 150.607 62.8736 149.056C62.8736 146.317 62.8736 145.216 62.8736 145.216C62.8736 145.216 68.6336 144.243 69.8304 136.704C70.464 133.024 70.2656 126.874 69.9392 121.85Z" fill="#FFBE9D"/>
<path d="M68.7744 127.661C68.7779 127.914 68.6819 128.158 68.5072 128.341C68.3325 128.524 68.0929 128.632 67.84 128.64C67.717 128.65 67.5934 128.635 67.4763 128.596C67.3593 128.557 67.2511 128.495 67.1581 128.414C67.0652 128.333 66.9893 128.235 66.935 128.124C66.8806 128.013 66.8489 127.893 66.8416 127.77C66.8397 127.517 66.9362 127.274 67.1106 127.091C67.285 126.908 67.5236 126.8 67.776 126.79C67.8991 126.78 68.0231 126.794 68.1405 126.833C68.258 126.871 68.3665 126.933 68.4596 127.014C68.5528 127.095 68.6286 127.194 68.6827 127.305C68.7368 127.417 68.768 127.537 68.7744 127.661Z" fill="#263238"/>
<path d="M68.608 125.05C68.4928 125.178 67.7568 124.64 66.688 124.64C65.6192 124.64 64.8896 125.171 64.768 125.043C64.6464 124.915 64.832 124.755 65.1648 124.519C65.6153 124.204 66.1516 124.037 66.7008 124.039C67.2409 124.038 67.7674 124.208 68.2048 124.525C68.5568 124.8 68.672 124.992 68.608 125.05Z" fill="#263238"/>
<path d="M58.9376 128C58.9411 128.252 58.8458 128.494 58.6723 128.676C58.4988 128.858 58.2609 128.965 58.0096 128.973C57.8865 128.983 57.7625 128.969 57.6451 128.931C57.5276 128.892 57.4191 128.831 57.3259 128.749C57.2328 128.668 57.1569 128.569 57.1029 128.458C57.0488 128.347 57.0176 128.226 57.0112 128.103C57.0077 127.851 57.103 127.609 57.2765 127.427C57.45 127.245 57.6879 127.138 57.9392 127.13C58.0623 127.119 58.1863 127.134 58.3037 127.172C58.4212 127.211 58.5297 127.272 58.6229 127.353C58.716 127.435 58.7919 127.534 58.8459 127.645C58.9 127.756 58.9312 127.877 58.9376 128Z" fill="#263238"/>
<path d="M58.3809 125.267C58.2657 125.395 57.5297 124.851 56.4609 124.857C55.3921 124.864 54.6625 125.389 54.5409 125.261C54.4193 125.133 54.6049 124.973 54.9377 124.729C55.3897 124.419 55.9255 124.254 56.4737 124.256C57.013 124.253 57.5394 124.421 57.9777 124.736C58.3297 124.985 58.4385 125.209 58.3809 125.267Z" fill="#263238"/>
<path d="M62.1761 132.979C62.7234 132.802 63.2913 132.697 63.8657 132.666C64.1281 132.666 64.3841 132.589 64.4289 132.403C64.4473 132.129 64.385 131.855 64.2497 131.616C63.9937 130.976 63.7313 130.304 63.4561 129.594C62.3617 126.72 61.5361 124.352 61.6833 124.307C61.8305 124.262 62.7841 126.56 63.8785 129.427C64.1409 130.138 64.3969 130.816 64.6337 131.462C64.802 131.783 64.8519 132.152 64.7745 132.506C64.736 132.599 64.6769 132.683 64.6016 132.751C64.5262 132.818 64.4365 132.868 64.3393 132.896C64.1926 132.933 64.0425 132.955 63.8913 132.96C63.3225 133.037 62.7464 133.043 62.1761 132.979Z" fill="#263238"/>
<path d="M62.9248 145.28C59.3743 145.342 55.8761 144.418 52.8192 142.611C52.8192 142.611 55.2768 147.783 62.8224 147.091L62.9248 145.28Z" fill="#EB996E"/>
<path d="M61.7408 135.488C61.5431 135.238 61.2846 135.042 60.99 134.92C60.6953 134.798 60.3744 134.753 60.0576 134.79C59.8282 134.812 59.6056 134.88 59.4032 134.99C59.2007 135.1 59.0228 135.25 58.88 135.43C58.74 135.604 58.6568 135.816 58.6419 136.038C58.6271 136.26 58.6811 136.482 58.7968 136.672C58.9667 136.857 59.1871 136.987 59.4306 137.047C59.6741 137.108 59.93 137.095 60.1664 137.011C60.6563 136.837 61.1067 136.568 61.4912 136.218C61.6083 136.133 61.7083 136.026 61.7856 135.904C61.8244 135.848 61.8452 135.781 61.8452 135.712C61.8452 135.644 61.8244 135.577 61.7856 135.52" fill="#EB996E"/>
<path d="M59.1169 133.702C59.2833 133.702 59.2897 134.822 60.2561 135.622C61.2225 136.422 62.4257 136.294 62.4385 136.454C62.4513 136.614 62.1697 136.672 61.6641 136.685C60.9999 136.692 60.3544 136.465 59.8401 136.045C59.3495 135.643 59.0331 135.068 58.9569 134.438C58.9121 133.977 59.0401 133.696 59.1169 133.702Z" fill="#263238"/>
<path d="M58.88 123.443C58.7776 123.731 57.7344 123.597 56.5184 123.744C55.3024 123.891 54.3104 124.23 54.144 123.981C54.0736 123.859 54.2464 123.59 54.6432 123.341C55.168 122.99 55.7694 122.77 56.3968 122.701C57.0219 122.627 57.6555 122.702 58.2464 122.918C58.6624 123.091 58.88 123.309 58.88 123.443Z" fill="#263238"/>
<path d="M68.2177 122.042C68.0385 122.278 67.3217 122.042 66.4577 122.042C65.5937 122.042 64.8705 122.208 64.6977 121.958C64.6273 121.837 64.7425 121.6 65.0561 121.376C65.4849 121.108 65.9837 120.972 66.4895 120.987C66.9952 121.002 67.4853 121.166 67.8977 121.459C68.1985 121.683 68.3009 121.926 68.2177 122.042Z" fill="#263238"/>
<path d="M61.8752 110.343L61.2352 109.523C56.8799 110.024 52.6127 111.114 48.5504 112.762C46.9248 113.402 45.2864 114.208 44.1728 115.565C42.6496 117.427 42.4064 120 42.2528 122.4C41.6128 131.552 41.0432 140.96 43.9232 149.683C44.6144 148.57 45.9712 148.071 47.2576 147.821C48.544 147.571 49.8944 147.488 51.0976 146.893C51.7298 146.55 52.2839 146.079 52.7246 145.511C53.1653 144.942 53.483 144.288 53.6576 143.591C53.9991 142.18 53.8337 140.694 53.1904 139.392C52.4928 137.939 51.2704 136.538 51.552 134.957C51.8336 133.376 53.7664 132.359 54.2144 130.733C54.9888 127.923 51.0144 125.402 51.84 122.599C52.0212 122.094 52.3037 121.631 52.6702 121.239C53.0367 120.847 53.4794 120.535 53.9712 120.32C54.9312 119.84 55.9872 119.571 56.96 119.117C58.5758 118.33 59.9125 117.067 60.7909 115.499C61.6694 113.931 62.0477 112.132 61.8752 110.343Z" fill="#263238"/>
<path d="M99.9425 167.827L91.1233 181.549C91.4643 182.049 91.9284 182.453 92.4709 182.722C93.0135 182.991 93.6161 183.116 94.2209 183.085C96.3457 182.995 99.2641 177.696 99.6097 176.627C99.9553 175.558 99.4881 174.522 99.8017 173.805C100.115 173.088 99.9937 171.13 99.9937 171.13C99.9489 171.245 101.901 168.634 99.9425 167.827Z" fill="#FFBE9D"/>
<path d="M88.6848 181.542L93.28 163.373C93.3502 163.105 93.4729 162.854 93.641 162.634C93.8091 162.415 94.0193 162.231 94.2592 162.093L100.934 158.285C101.131 158.174 101.362 158.14 101.583 158.188C101.803 158.237 101.999 158.364 102.131 158.547C102.21 158.656 102.263 158.78 102.289 158.912C102.314 159.043 102.311 159.179 102.278 159.309L97.4144 178.432L88.6848 181.542Z" fill="#263238"/>
<path d="M86.368 195.622L97.0368 175.917L93.0176 170.713L78.0032 182.105L81.9392 192.934L86.368 195.622Z" fill="#579540"/>
<path d="M97.1648 180.192C97.2576 179.928 97.3262 179.656 97.3696 179.379C97.4403 178.612 97.3643 177.839 97.1456 177.101V177.056V177.011C97.2391 176.862 97.2995 176.695 97.3227 176.52C97.3459 176.346 97.3313 176.168 97.28 176C97.1329 175.62 96.8712 175.296 96.5312 175.072L96.416 174.995L96.4928 174.873L97.7024 173.069C97.8143 172.925 97.9088 172.768 97.984 172.601C98.0324 172.445 98.0187 172.275 97.9456 172.128C97.7731 171.788 97.5177 171.498 97.2032 171.283L97.0496 171.174L97.1712 171.033C97.4976 170.662 97.8624 170.291 98.2272 169.913C98.8515 169.271 99.4391 168.593 99.9872 167.885C100.235 167.559 100.449 167.21 100.627 166.841C100.711 166.677 100.765 166.5 100.787 166.317C100.787 166.15 100.723 166.061 100.627 166.041H100.589C100.383 166.02 100.176 166.054 99.9872 166.137C99.7692 166.218 99.5556 166.31 99.3472 166.413C98.9568 166.624 98.592 166.841 98.2592 167.053C97.6192 167.488 97.0112 167.897 96.544 168.237L95.4496 169.03C95.3279 169.138 95.1923 169.228 95.0464 169.299C95.146 169.171 95.2622 169.057 95.392 168.96C95.6288 168.749 95.9808 168.454 96.4352 168.089C96.8896 167.725 97.4528 167.302 98.1184 166.848C98.4576 166.617 98.816 166.387 99.2192 166.163C99.4257 166.049 99.6395 165.948 99.8592 165.862C100.107 165.741 100.388 165.702 100.659 165.753H100.621C100.758 165.773 100.882 165.845 100.966 165.955C101.05 166.066 101.087 166.205 101.069 166.342C101.048 166.565 100.987 166.781 100.89 166.982C100.703 167.374 100.475 167.745 100.211 168.089C99.6615 168.815 99.0673 169.505 98.432 170.157C98.0672 170.534 97.7024 170.905 97.376 171.27V171.021C97.744 171.273 98.0396 171.617 98.2336 172.019C98.3323 172.239 98.346 172.487 98.272 172.717C98.1884 172.907 98.0809 173.085 97.952 173.248C97.5168 173.888 97.1008 174.489 96.7104 175.053V174.848C97.0957 175.113 97.387 175.494 97.5424 175.936C97.6015 176.138 97.6166 176.351 97.5868 176.559C97.557 176.768 97.4829 176.968 97.3696 177.145V177.056C97.5742 177.824 97.6156 178.626 97.4912 179.411C97.4536 179.622 97.3868 179.827 97.2928 180.019C97.216 180.134 97.1776 180.198 97.1648 180.192Z" fill="#EB996E"/>
<path d="M102.131 158.541C101.964 158.691 101.779 158.82 101.581 158.925C101.216 159.155 100.685 159.482 100.019 159.879L97.6832 161.28L96.3008 162.08C95.7978 162.323 95.3287 162.631 94.9056 162.995C94.5382 163.398 94.2939 163.898 94.2016 164.435C94.0608 164.973 93.9264 165.485 93.7984 165.984L93.1008 168.602C92.896 169.344 92.7232 169.946 92.5952 170.355C92.5485 170.578 92.4732 170.793 92.3712 170.995C92.3753 170.778 92.4097 170.563 92.4736 170.355C92.5568 169.933 92.6976 169.325 92.8704 168.576C93.0432 167.827 93.2672 166.912 93.5104 165.939C93.6299 165.44 93.7579 164.922 93.8944 164.384C93.9981 163.788 94.2688 163.233 94.6752 162.784C95.1245 162.405 95.6189 162.082 96.1472 161.824L97.5424 161.043L99.9104 159.763C100.589 159.392 101.139 159.123 101.523 158.906C101.708 158.756 101.912 158.633 102.131 158.541Z" fill="#455A64"/>
<path d="M97.7088 164.749C97.5424 165.146 97.5232 165.517 97.664 165.575C97.8048 165.632 98.0544 165.363 98.2208 164.967C98.3872 164.57 98.4064 164.205 98.2656 164.141C98.1248 164.077 97.8752 164.359 97.7088 164.749Z" fill="white"/>
<path d="M64.4801 153.734C66.7744 154.561 68.8834 155.831 70.6866 157.473C72.4897 159.114 73.9517 161.095 74.9889 163.302L89.3121 193.779L101.651 198.784L90.7713 201.914L81.1073 194.816L64.4801 153.734Z" fill="#579540"/>
<path d="M90.784 201.913L85.5872 205.92L59.6544 179.245L44.832 152.467L46.5472 147.488L58.0096 152.262L62.112 158.329L63.0272 150.649L63.7632 151.68L64.96 154.925C64.96 154.925 76.2112 164.288 78.6432 171.705C80.64 177.92 80.032 190.72 81.28 194.176L90.784 201.913Z" fill="#FAFAFA"/>
<path d="M42.0545 152.122C41.8817 152.64 30.9697 157.024 30.4513 160.845C29.9329 164.666 38.2913 194.208 38.2913 194.208L51.5457 205.92H85.5873L74.7905 185.703C72.4632 181.343 69.5187 177.342 66.0481 173.824C62.8481 170.586 59.0081 166.579 56.9985 164.192C54.8417 161.6 45.6961 149.472 45.6961 149.472L42.0545 152.122Z" fill="#579540"/>
<path d="M48.8833 153.331C49.5448 153.569 50.1868 153.858 50.8033 154.195C51.9745 154.771 53.5809 155.578 55.3473 156.493L57.3569 157.542L57.1265 157.696C57.0496 156.501 57.1206 155.302 57.3377 154.125C57.3983 153.659 57.5255 153.204 57.7153 152.774C57.6787 153.238 57.6189 153.699 57.5361 154.157C57.3863 155.322 57.3541 156.499 57.4401 157.67V157.952L57.1905 157.824L55.2065 156.8C53.4401 155.885 51.8529 155.04 50.7265 154.413C50.0854 154.1 49.4692 153.738 48.8833 153.331Z" fill="#263238"/>
<path d="M75.1232 180.275C74.9193 180.002 74.7374 179.713 74.5792 179.411L73.1904 176.998C72.0256 174.957 70.4 172.147 68.5696 169.069C66.7392 165.99 65.0304 163.232 63.7952 161.235L62.3296 158.867C62.139 158.585 61.972 158.287 61.8304 157.978C62.0695 158.229 62.2838 158.504 62.4704 158.797C62.848 159.334 63.3792 160.122 64.0256 161.107C65.3056 163.072 67.0464 165.818 68.8896 168.902C70.7328 171.987 72.3136 174.816 73.4272 176.883C73.9904 177.92 74.432 178.758 74.7072 179.347C74.871 179.645 75.0101 179.955 75.1232 180.275Z" fill="#263238"/>
<g opacity="0.3">
<path d="M69.8816 200.871C71.8592 201.203 73.888 201.511 75.8592 201.165C77.8304 200.819 79.7568 199.546 80.3776 197.639C80.4755 197.016 80.7286 196.429 81.1136 195.93C81.8752 195.226 83.0912 195.661 84.1216 195.565C84.6951 195.477 85.2407 195.259 85.7158 194.925C86.1909 194.592 86.5828 194.154 86.8608 193.645C87.4104 192.626 87.7969 191.526 88.0064 190.387C88.1726 189.838 88.2419 189.264 88.2112 188.691C88.1913 188.406 88.0999 188.131 87.9456 187.89C87.7913 187.65 87.5789 187.452 87.328 187.315C86.5472 186.963 85.664 187.475 84.9728 187.955C79.36 192 74.24 196.698 69.12 201.37" fill="black"/>
</g>
<path d="M82.5984 178.317C82.5984 178.317 84.5504 173.837 85.5872 173.197C86.624 172.557 91.8016 169.555 91.8016 169.555L91.1616 172.019L96.224 168.506C96.864 168.09 100.454 164.806 101.094 166.086C101.562 167.008 98.6112 169.44 98.2144 169.984C97.2288 171.334 97.5744 171.213 97.5744 171.213C97.5744 171.213 98.6432 171.853 98.1056 172.813C97.6663 173.549 97.1833 174.259 96.6592 174.938C96.6592 174.938 98.0672 175.437 97.248 177.267C97.4844 178.027 97.5328 178.833 97.3888 179.616C97.1584 180.986 94.688 183.578 94.688 183.578L82.336 189.44L77.3696 181.018L82.5984 178.317Z" fill="#FFBE9D"/>
<path d="M53.9201 169.895L61.8177 186.752L79.3601 179.149C79.3601 179.149 86.6241 183.386 85.6193 188.019L69.8113 200.96C68.3338 202.174 66.6252 203.075 64.789 203.608C62.9529 204.142 61.0275 204.297 59.1297 204.064C57.0934 203.815 55.1358 203.125 53.3929 202.043C51.65 200.961 50.1635 199.513 49.0369 197.799L37.6193 180.442L31.2193 170.003C30.194 168.378 29.6725 166.485 29.7203 164.564C29.7681 162.643 30.3832 160.779 31.4881 159.207C32.0914 158.358 32.8572 157.638 33.7409 157.088C36.6017 155.354 45.0753 154.599 53.9201 169.895Z" fill="#579540"/>
<path d="M92.7553 170.88C91.9668 171.559 91.1087 172.154 90.1953 172.653C89.3351 173.245 88.4174 173.749 87.4561 174.157C88.2507 173.485 89.1079 172.892 90.0161 172.384C90.8783 171.795 91.7957 171.291 92.7553 170.88Z" fill="#EB996E"/>
<path d="M97.6896 170.713C97.0055 171.613 96.236 172.445 95.392 173.197C94.6226 174.023 93.7808 174.779 92.8768 175.456C93.5648 174.559 94.334 173.728 95.1744 172.973C95.9435 172.146 96.7853 171.39 97.6896 170.713Z" fill="#EB996E"/>
<path d="M97.0304 174.515C96.7591 175.073 96.3956 175.582 95.9552 176.019C95.3152 176.794 94.6752 177.382 94.6368 177.299C94.911 176.739 95.2765 176.229 95.7184 175.789C96.0821 175.294 96.5255 174.864 97.0304 174.515Z" fill="#EB996E"/>
<path d="M97.28 177.075C97.3504 177.133 97.0752 177.543 96.7296 178.042C96.384 178.541 96.0896 178.938 96.0064 178.893C95.9232 178.848 96.1152 178.375 96.4736 177.863C96.832 177.351 97.1968 177.018 97.28 177.075Z" fill="#EB996E"/>
<path d="M67.1233 202.65C67.1233 202.65 67.1233 202.618 67.2001 202.573L67.4497 202.362L68.4417 201.562L72.2305 198.567L85.7601 187.981L85.7025 188.09C85.7094 187.212 85.5419 186.342 85.2097 185.53C84.8303 184.679 84.342 183.881 83.7569 183.155C82.4779 181.645 80.9654 180.348 79.2769 179.315H79.4241L70.3553 183.258L61.8817 186.88L61.7409 186.938L61.6705 186.803C59.3473 182.227 57.1905 177.927 55.0273 174.189C53.9457 172.314 52.8769 170.579 51.8657 168.96C50.8545 167.341 49.9457 165.843 48.9921 164.551C47.5887 162.467 45.7224 160.737 43.5393 159.495C43.1617 159.271 42.8097 159.098 42.5025 158.951C42.1953 158.803 41.9457 158.682 41.7281 158.592L41.2545 158.381C41.1985 158.361 41.1449 158.336 41.0945 158.304C42.9933 158.955 44.749 159.965 46.2657 161.28C47.3533 162.23 48.3263 163.304 49.1649 164.48C50.1249 165.76 51.0849 167.271 52.0769 168.883C53.0689 170.496 54.1825 172.224 55.2769 174.099C57.4785 177.837 59.6353 182.138 61.9713 186.707L61.7601 186.631L70.2017 182.957L79.2705 179.021L79.3473 178.989L79.4177 179.034C81.1373 180.091 82.6759 181.418 83.9745 182.963C84.5726 183.715 85.0737 184.538 85.4657 185.415C85.8081 186.278 85.9798 187.199 85.9713 188.128V188.192L85.9137 188.237L72.3201 198.701L68.4801 201.632L67.4625 202.4L67.1937 202.592L67.1233 202.65Z" fill="#263238"/>
<path d="M60.7553 192.051C60.6593 192.013 61.1457 190.81 61.3953 189.254C61.6449 187.699 61.6513 186.4 61.7537 186.394C61.9711 187.354 61.9711 188.351 61.7537 189.312C61.6321 190.289 61.2907 191.225 60.7553 192.051Z" fill="#263238"/>
<path d="M157.094 241.568L166.266 253.056C166.266 253.056 181.024 247.597 182.906 249.555L161.28 268.16L146.259 250.88L157.094 241.568Z" fill="#579540"/>
<g opacity="0.6">
<path d="M158.771 257.869C158.617 258.11 158.558 258.4 158.605 258.683C158.653 258.965 158.803 259.22 159.027 259.398C159.263 259.561 159.553 259.628 159.836 259.584C160.119 259.54 160.375 259.388 160.55 259.161C160.712 258.903 160.773 258.595 160.721 258.295C160.669 257.995 160.508 257.724 160.269 257.536C160.004 257.393 159.695 257.357 159.405 257.437C159.115 257.517 158.867 257.706 158.714 257.965" fill="white"/>
</g>
<g opacity="0.6">
<path d="M161.28 268.16L159.834 266.355L181.12 249.19C181.12 249.19 182.445 248.781 182.918 249.555L161.28 268.16Z" fill="white"/>
</g>
<path d="M166.522 252.646C166.611 252.755 166.125 253.286 165.882 254.042C165.639 254.797 165.76 255.514 165.626 255.552C165.491 255.59 165.127 254.848 165.421 253.901C165.715 252.954 166.464 252.531 166.522 252.646Z" fill="#263238"/>
<path d="M169.6 251.635C169.709 251.719 169.408 252.275 169.434 253.05C169.459 253.824 169.76 254.362 169.651 254.451C169.542 254.541 168.96 253.997 168.947 253.056C168.934 252.115 169.51 251.52 169.6 251.635Z" fill="#263238"/>
<path d="M173.222 253.248C173.146 253.35 172.544 252.947 172.314 252.141C172.083 251.334 172.39 250.675 172.506 250.72C172.621 250.765 172.589 251.36 172.781 252C172.973 252.64 173.318 253.146 173.222 253.248Z" fill="#263238"/>
<path d="M164.141 250.24C164.179 250.374 163.571 250.649 163.008 251.2C162.445 251.75 162.144 252.339 162.01 252.301C161.875 252.262 162.01 251.494 162.65 250.854C163.29 250.214 164.122 250.131 164.141 250.24Z" fill="#263238"/>
<g opacity="0.3">
<path d="M158.912 243.846L160.544 245.894L149.83 254.931L148.282 253.152L158.912 243.846Z" fill="black"/>
</g>
<path d="M162.246 247.981C162.291 248.019 161.926 248.442 161.158 248.903C160.711 249.174 160.231 249.389 159.731 249.543C159.433 249.629 159.129 249.698 158.822 249.747C158.642 249.775 158.459 249.775 158.278 249.747C158.146 249.726 158.024 249.665 157.928 249.57C157.833 249.476 157.77 249.355 157.747 249.223C157.736 249.103 157.753 248.983 157.798 248.872C157.842 248.76 157.913 248.661 158.003 248.583C158.137 248.459 158.291 248.36 158.458 248.288C159.21 247.906 160.046 247.717 160.89 247.738C161.378 247.702 161.865 247.818 162.285 248.071C162.285 248.147 161.734 248.026 160.896 248.071C160.408 248.108 159.927 248.205 159.462 248.359C159.191 248.452 158.928 248.568 158.675 248.704C158.394 248.839 158.195 249.005 158.227 249.159C158.227 249.216 158.227 249.229 158.355 249.255C158.489 249.273 158.625 249.273 158.758 249.255C159.045 249.216 159.329 249.162 159.61 249.095C160.087 248.97 160.551 248.803 160.998 248.595C161.398 248.359 161.816 248.154 162.246 247.981Z" fill="#263238"/>
<path d="M162.24 248.249C162.24 248.294 161.683 248.096 161.056 247.443C160.474 246.828 160.073 246.064 159.898 245.235C159.833 245.042 159.82 244.836 159.86 244.636C159.899 244.436 159.989 244.25 160.122 244.096C160.218 244.013 160.338 243.961 160.464 243.946C160.591 243.931 160.719 243.954 160.832 244.013C160.997 244.091 161.15 244.192 161.286 244.313C161.613 244.595 161.88 244.939 162.072 245.324C162.264 245.71 162.378 246.13 162.406 246.56C162.47 247.481 162.138 247.987 162.093 247.961C162.123 247.508 162.123 247.052 162.093 246.598C162.016 246.127 161.834 245.678 161.562 245.286C161.408 245.057 161.22 244.852 161.005 244.678C160.774 244.48 160.531 244.365 160.461 244.461C160.401 244.563 160.363 244.677 160.351 244.795C160.339 244.914 160.352 245.033 160.39 245.145C160.44 245.424 160.52 245.696 160.627 245.958C160.804 246.417 161.045 246.848 161.344 247.238C161.83 247.885 162.285 248.179 162.24 248.249Z" fill="#263238"/>
<path d="M147.13 276.985L146.56 292.013C146.56 292.013 161.645 297.638 161.811 300.429L132.627 300.371L132.557 276.915L147.13 276.985Z" fill="#579540"/>
<g opacity="0.6">
<path d="M137.536 290.733C137.256 290.818 137.016 291.003 136.864 291.253C136.712 291.504 136.657 291.802 136.71 292.09C136.787 292.373 136.969 292.616 137.219 292.771C137.468 292.925 137.767 292.979 138.054 292.922C138.349 292.826 138.599 292.627 138.758 292.361C138.917 292.095 138.974 291.78 138.918 291.475C138.81 291.188 138.595 290.954 138.319 290.822C138.042 290.69 137.725 290.669 137.434 290.765" fill="white"/>
</g>
<g opacity="0.6">
<path d="M132.627 300.371L132.717 298.003L160.64 298.944C160.64 298.944 161.92 299.514 161.792 300.429L132.627 300.371Z" fill="white"/>
</g>
<path d="M147.034 291.84C147.034 291.981 146.317 292.045 145.613 292.48C144.909 292.915 144.538 293.53 144.403 293.472C144.269 293.415 144.486 292.595 145.35 292.058C146.214 291.52 147.066 291.738 147.034 291.84Z" fill="#263238"/>
<path d="M150.093 293.12C150.093 293.254 149.504 293.497 149.018 294.099C148.531 294.701 148.378 295.341 148.25 295.334C148.122 295.328 148.019 294.521 148.64 293.785C149.261 293.049 150.086 293.005 150.093 293.12Z" fill="#263238"/>
<path d="M151.821 296.806C151.693 296.806 151.494 296.122 151.866 295.341C152.237 294.56 152.896 294.253 152.96 294.374C153.024 294.496 152.602 294.906 152.32 295.552C152.038 296.198 151.962 296.794 151.821 296.806Z" fill="#263238"/>
<path d="M146.784 288.429C146.72 288.557 146.067 288.359 145.261 288.429C144.454 288.499 143.827 288.736 143.757 288.614C143.686 288.493 144.288 287.974 145.235 287.936C146.182 287.898 146.854 288.314 146.784 288.429Z" fill="#263238"/>
<g opacity="0.3">
<path d="M147.014 279.961L146.918 282.637L132.576 282.483L132.563 280.064L147.014 279.961Z" fill="black"/>
</g>
<path d="M146.842 285.389C146.365 285.524 145.859 285.524 145.382 285.389C144.542 285.235 143.738 284.923 143.014 284.467C142.849 284.378 142.7 284.261 142.573 284.122C142.483 284.019 142.429 283.89 142.417 283.755C142.406 283.619 142.438 283.483 142.509 283.366C142.583 283.266 142.679 283.184 142.79 283.127C142.901 283.071 143.024 283.041 143.149 283.04C143.333 283.039 143.516 283.065 143.693 283.117C144.535 283.322 145.312 283.736 145.952 284.32C146.624 284.96 146.854 285.478 146.803 285.504C146.752 285.53 146.413 285.107 145.728 284.589C145.333 284.292 144.903 284.045 144.448 283.853C144.177 283.741 143.896 283.653 143.61 283.59C143.302 283.507 143.04 283.507 142.97 283.642C142.899 283.776 142.938 283.718 143.002 283.808C143.098 283.906 143.208 283.99 143.328 284.058C143.574 284.223 143.83 284.37 144.096 284.499C144.549 284.726 145.023 284.908 145.51 285.043C145.961 285.13 146.406 285.246 146.842 285.389Z" fill="#263238"/>
<path d="M146.656 285.594C146.378 285.179 146.243 284.684 146.272 284.186C146.237 283.319 146.436 282.459 146.848 281.696C146.928 281.504 147.055 281.335 147.219 281.206C147.383 281.077 147.577 280.992 147.782 280.96C147.918 280.958 148.051 280.995 148.164 281.068C148.278 281.141 148.368 281.246 148.422 281.37C148.497 281.541 148.548 281.722 148.576 281.907C148.639 282.344 148.615 282.789 148.506 283.216C148.396 283.644 148.202 284.045 147.936 284.397C147.36 285.152 146.765 285.325 146.752 285.274C146.739 285.222 147.206 284.928 147.642 284.205C147.896 283.786 148.055 283.316 148.109 282.829C148.147 282.549 148.147 282.264 148.109 281.984C148.064 281.677 147.949 281.427 147.834 281.459C147.718 281.491 147.437 281.69 147.315 281.933C147.172 282.186 147.052 282.452 146.957 282.726C146.79 283.196 146.693 283.688 146.669 284.186C146.56 285.043 146.733 285.574 146.656 285.594Z" fill="#263238"/>
<path d="M132.333 205.92L161.21 244.294L147.699 255.898L133.798 237.715L132.333 205.92Z" fill="#263238"/>
<path d="M71.1873 207.757C71.1873 207.757 117.651 193.6 121.907 193.779C126.163 193.958 134.24 209.325 134.24 209.325L121.197 208.851C117.85 217.062 111.667 225.491 104.704 234.029L78.0353 232.787L71.1873 207.757Z" fill="#263238"/>
<path d="M109.165 196.57C109.165 196.659 104.416 198.157 98.5024 199.917C92.5888 201.677 87.7696 203.027 87.744 202.938C87.7184 202.848 92.4864 201.35 98.4064 199.597C104.326 197.843 109.139 196.48 109.165 196.57Z" fill="#263238"/>
<path d="M119.962 208.602H133.005C136.179 208.604 139.275 209.59 141.866 211.423C144.458 213.257 146.417 215.849 147.475 218.842C148.492 221.728 148.94 224.783 148.794 227.84L147.776 280.96H130.221L129.901 264L127.68 231.763L112.48 232.403L103.866 231.866L119.962 208.602Z" fill="#263238"/>
<path d="M120.352 208.339C120.294 208.718 120.21 209.092 120.102 209.459C119.851 210.474 119.544 211.474 119.181 212.455C118.65 213.91 118.008 215.322 117.261 216.679C116.33 218.343 115.259 219.925 114.061 221.408C111.85 224.046 109.482 226.549 106.97 228.903L104.717 231.072C104.452 231.349 104.165 231.604 103.859 231.834C104.094 231.531 104.348 231.245 104.621 230.976C105.126 230.439 105.901 229.696 106.803 228.736C109.26 226.342 111.595 223.826 113.798 221.197C115.948 218.529 117.687 215.554 118.957 212.371C119.418 211.143 119.77 210.131 119.974 209.427C120.071 209.055 120.197 208.691 120.352 208.339Z" fill="#455A64"/>
<path d="M136.32 208.96C135.527 208.962 134.735 208.924 133.946 208.845C132.486 208.762 130.464 208.704 128.237 208.749C126.01 208.794 123.987 208.928 122.522 209.024C121.736 209.115 120.945 209.155 120.154 209.146C120.36 209.074 120.575 209.029 120.794 209.011C121.197 208.947 121.786 208.871 122.515 208.787C123.974 208.634 125.997 208.461 128.275 208.416C130.198 208.371 132.121 208.437 134.035 208.615C134.765 208.679 135.354 208.762 135.763 208.826C135.953 208.85 136.14 208.895 136.32 208.96Z" fill="#455A64"/>
<path d="M130.144 271.232C130.114 271.087 130.097 270.939 130.093 270.79C130.093 270.464 130.054 270.048 130.022 269.51C129.971 268.365 129.901 266.778 129.818 264.838C129.645 260.896 129.408 255.45 129.03 249.44C128.653 243.43 128.205 237.99 127.878 234.08C127.718 232.16 127.59 230.56 127.501 229.421C127.462 228.896 127.437 228.474 127.411 228.141C127.393 227.992 127.393 227.842 127.411 227.693C127.444 227.838 127.468 227.986 127.482 228.134L127.635 229.414C127.757 230.547 127.917 232.128 128.122 234.061C128.506 237.99 128.986 243.43 129.37 249.421C129.754 255.411 129.946 260.89 130.061 264.838C130.099 266.758 130.138 268.365 130.163 269.51C130.163 270.035 130.163 270.458 130.163 270.79C130.173 270.938 130.167 271.086 130.144 271.232Z" fill="#263238"/>
<path d="M148.819 225.817C148.915 225.817 148.851 237.977 148.685 252.973C148.518 267.968 148.301 280.128 148.211 280.128C148.122 280.128 148.179 267.968 148.352 252.966C148.525 237.965 148.73 225.817 148.819 225.817Z" fill="#455A64"/>
<path d="M134.496 223.833C133.207 224.337 131.954 224.927 130.746 225.6C129.599 226.379 128.507 227.234 127.475 228.16C127.672 227.795 127.932 227.468 128.243 227.193C129.644 225.764 131.377 224.702 133.286 224.102C133.671 223.944 134.08 223.853 134.496 223.833Z" fill="#263238"/>
<g opacity="0.3">
<path d="M103.866 231.84C107.411 232.48 111.296 231.411 114.33 229.517C117.359 227.623 119.555 224.649 120.474 221.197C120.864 219.667 120.979 218.08 121.37 216.55C121.677 214.98 122.516 213.563 123.744 212.537C125.229 211.43 128.864 210.726 129.978 209.241C129.978 209.024 125.638 209.523 124.186 209.606C122.598 209.689 119.942 210.093 120 209.907C119.58 211.445 119.067 212.956 118.464 214.432C115.302 219.865 108.358 227.872 103.866 231.865" fill="black"/>
</g>
<path d="M31.4624 269.401L36.4032 301.702H41.2992L38.8864 269.529L31.4624 269.401Z" fill="#263238"/>
<path d="M118.368 269.529V301.702H123.539L125.466 269.401L118.368 269.529Z" fill="#263238"/>
<path d="M30.5856 169.6C30.5856 169.6 23.6672 169.875 21.5488 172.8C17.8176 177.92 19.9168 182.349 19.7056 183.859C19.4944 185.37 31.4624 269.402 31.4624 269.402H36.3904L125.44 270.227L129.741 259.84L127.68 231.738L103.866 231.84C103.866 231.84 94.112 203.846 85.5872 201.978C79.8272 200.698 66.2528 201.158 58.0672 201.581C56.0675 201.685 54.0756 201.26 52.2925 200.348C50.5093 199.437 48.9979 198.072 47.9104 196.39L30.5856 169.6Z" fill="#455A64"/>
<path d="M109.536 266.099C109.536 266.099 109.043 266.163 108.096 266.208C107.149 266.253 105.754 266.285 103.949 266.298C100.333 266.349 95.0913 266.362 88.5889 266.355C75.5265 266.355 57.3185 266.246 36.7489 266.067H36.6145V265.939C36.2433 264.179 35.8657 262.368 35.4817 260.531C35.0977 258.694 34.7329 256.813 34.3553 254.925C29.8753 232.128 27.2641 211.238 25.8561 196.09C25.1457 188.518 24.7233 182.374 24.4545 178.125C24.3393 176.013 24.2433 174.368 24.1857 173.235C24.1857 172.685 24.1409 172.262 24.1217 171.955C24.1025 171.648 24.1217 171.52 24.1217 171.52C24.1217 171.52 24.1217 171.667 24.1665 171.955C24.2113 172.243 24.2177 172.678 24.2561 173.235C24.3329 174.362 24.4481 176.006 24.5889 178.118C24.8961 182.362 25.3569 188.499 26.0929 196.07C27.5201 211.2 30.1505 232.07 34.6177 254.854C34.9932 256.745 35.3686 258.611 35.7441 260.454C36.1196 262.298 36.4972 264.1 36.8769 265.862L36.7169 265.734L88.5569 266.138L103.917 266.176H108.064C108.538 266.176 108.89 266.138 109.133 266.138L109.536 266.099Z" fill="#263238"/>
<path d="M108.595 270.08C108.591 269.945 108.604 269.809 108.634 269.677C108.678 269.382 108.73 269.005 108.8 268.544C108.87 268.083 108.979 267.45 109.056 266.746C109.133 266.042 109.261 265.248 109.318 264.358C109.376 263.469 109.491 262.509 109.53 261.459C109.568 260.41 109.6 259.302 109.619 258.125C109.607 255.576 109.457 253.029 109.171 250.496C108.863 247.966 108.423 245.454 107.853 242.97C107.315 240.678 106.739 238.643 106.182 236.947C105.933 236.096 105.645 235.347 105.414 234.675C105.184 234.003 104.973 233.434 104.774 232.973L104.378 231.898C104.323 231.775 104.284 231.646 104.262 231.514C104.334 231.627 104.394 231.747 104.442 231.872L104.896 232.922C105.094 233.382 105.331 233.946 105.536 234.611C105.741 235.277 106.086 236.026 106.355 236.877C106.938 238.56 107.546 240.602 108.102 242.899C108.69 245.392 109.141 247.915 109.453 250.458C109.738 253.008 109.879 255.572 109.875 258.138C109.875 259.322 109.837 260.442 109.754 261.491C109.67 262.541 109.6 263.514 109.504 264.397C109.408 265.28 109.286 266.086 109.184 266.784C109.082 267.482 108.979 268.064 108.877 268.576C108.774 269.088 108.704 269.408 108.646 269.702C108.642 269.83 108.625 269.956 108.595 270.08Z" fill="#263238"/>
<path d="M43.3217 209.837C43.431 209.725 43.5511 209.624 43.6801 209.536C43.9553 209.325 44.3201 209.056 44.7553 208.71L45.5425 208.128C45.8369 207.93 46.1825 207.738 46.5345 207.52C47.3295 207.006 48.1568 206.545 49.0113 206.138L50.4961 205.44C51.0081 205.184 51.5777 204.998 52.1473 204.762C52.7169 204.525 53.3121 204.282 53.9393 204.083L55.8593 203.443C58.7591 202.59 61.7235 201.973 64.7233 201.6C67.7125 201.205 70.7258 201.022 73.7409 201.05C75.1297 201.05 76.4481 201.139 77.6833 201.184C78.9184 201.229 80.0577 201.376 81.1009 201.523C82.7459 201.735 84.3782 202.036 85.9905 202.426L87.2705 202.784C87.4234 202.821 87.5732 202.871 87.7185 202.931C87.5604 202.919 87.4039 202.891 87.2513 202.848L85.9329 202.547C84.7937 202.31 83.1233 201.997 81.0433 201.76C80.0065 201.626 78.8609 201.562 77.6385 201.459C76.416 201.357 75.0785 201.325 73.7089 201.357C70.7129 201.349 67.7197 201.54 64.7489 201.926C61.7732 202.299 58.831 202.902 55.9489 203.731L54.0289 204.326C53.3889 204.518 52.8193 204.774 52.2433 204.966C51.6673 205.158 51.1041 205.376 50.5921 205.606C50.0801 205.837 49.5809 206.08 49.1073 206.304C48.2543 206.699 47.4252 207.144 46.6241 207.635C46.2657 207.84 45.9265 208.026 45.6193 208.211L44.8257 208.774L43.7185 209.542C43.5953 209.652 43.4625 209.751 43.3217 209.837Z" fill="#263238"/>
<path d="M96.2624 214.4C96.2624 214.4 96.2624 214.47 96.1984 214.611C96.1344 214.752 96.0896 214.95 95.9808 215.219C95.6492 215.978 95.2071 216.683 94.6688 217.312C93.7988 218.299 92.7555 219.119 91.5904 219.731C90.8615 220.105 90.1039 220.419 89.3248 220.672C88.4425 220.935 87.5387 221.119 86.624 221.222C84.5269 221.402 82.415 221.281 80.352 220.864C78.1184 220.467 75.7952 219.821 73.312 219.232C70.7593 218.557 68.1315 218.209 65.4912 218.195C64.1026 218.215 62.7238 218.431 61.3952 218.835C60.0289 219.256 58.7436 219.905 57.5936 220.755C55.3552 222.491 53.4696 224.64 52.0384 227.085C50.5728 229.408 49.4144 231.808 48.1984 234.029C47.0731 236.152 45.7304 238.153 44.192 240C42.8469 241.631 41.1689 242.955 39.2704 243.885C37.6942 244.645 35.9762 245.065 34.2272 245.12C32.9112 245.152 31.6031 244.908 30.3872 244.403C29.9397 244.216 29.511 243.987 29.1072 243.718C28.7744 243.469 28.4672 243.251 28.288 243.078L27.8464 242.611C27.744 242.502 27.6992 242.445 27.6992 242.445C27.6992 242.445 27.7632 242.49 27.8656 242.586L28.3328 243.027C28.544 243.206 28.832 243.411 29.1584 243.667C29.5649 243.919 29.9933 244.133 30.4384 244.307C31.6416 244.779 32.9294 244.997 34.2208 244.947C35.9358 244.885 37.6196 244.471 39.168 243.731C41.0273 242.805 42.6697 241.497 43.9872 239.891C45.5027 238.043 46.8238 236.045 47.9296 233.926C49.152 231.712 50.3104 229.305 51.7696 226.957C53.223 224.483 55.137 222.31 57.408 220.557C58.5869 219.689 59.9019 219.022 61.2992 218.586C62.6601 218.179 64.071 217.963 65.4912 217.946C68.1603 217.963 70.8163 218.32 73.3952 219.008C75.8592 219.61 78.176 220.288 80.384 220.672C82.4253 221.089 84.5146 221.22 86.592 221.062C87.491 220.969 88.3798 220.795 89.248 220.544C90.0198 220.304 90.771 220.002 91.4944 219.642C92.6472 219.051 93.6853 218.26 94.56 217.306C95.2958 216.446 95.8723 215.462 96.2624 214.4Z" fill="white"/>
<path d="M128.813 255.36L128.531 255.43L127.706 255.597C127.271 255.704 126.843 255.838 126.426 256C126.152 256.098 125.885 256.213 125.626 256.346C125.322 256.478 125.027 256.63 124.742 256.8C123.263 257.652 121.886 258.672 120.64 259.84C119.155 261.184 117.568 262.829 115.622 264.448C114.611 265.31 113.508 266.059 112.333 266.681C111.705 267.013 111.052 267.296 110.381 267.526L109.325 267.814C108.964 267.896 108.598 267.958 108.23 268C106.69 268.187 105.13 268.109 103.616 267.77C102.019 267.395 100.475 266.821 99.0208 266.061C95.9349 264.398 93.0797 262.339 90.528 259.936C87.84 257.497 85.0944 254.918 81.8944 252.806C80.3268 251.754 78.6295 250.908 76.8448 250.291C75.1122 249.702 73.2835 249.448 71.456 249.542C69.6929 249.664 67.9624 250.079 66.336 250.771C64.7711 251.436 63.2622 252.226 61.824 253.133C58.9952 254.88 56.4224 256.749 53.8048 258.176C47.8106 261.401 40.9643 262.688 34.208 261.862C32.7527 261.696 31.3139 261.407 29.9072 260.998C30.0041 261.007 30.1003 261.022 30.1952 261.043L31.0208 261.222C31.744 261.376 32.8256 261.574 34.2208 261.734C38.178 262.172 42.1815 261.896 46.0416 260.922C48.7006 260.246 51.2638 259.237 53.6704 257.92C56.2304 256.493 58.8288 254.624 61.664 252.857C63.114 251.939 64.6357 251.138 66.2144 250.464C67.8719 249.75 69.637 249.317 71.4368 249.184C73.3054 249.084 75.1757 249.343 76.9472 249.946C78.7596 250.569 80.4813 251.43 82.0672 252.506C85.3056 254.637 88.0576 257.229 90.7392 259.667C93.2678 262.055 96.097 264.103 99.1552 265.76C100.582 266.537 102.103 267.129 103.68 267.52C105.159 267.86 106.685 267.942 108.192 267.763C108.553 267.723 108.912 267.663 109.267 267.584L110.304 267.315C110.964 267.088 111.605 266.812 112.224 266.49C113.388 265.884 114.481 265.15 115.482 264.301C117.402 262.707 119.027 261.101 120.525 259.744C121.78 258.565 123.17 257.538 124.666 256.685C124.956 256.517 125.257 256.369 125.568 256.243C125.83 256.109 126.101 255.996 126.381 255.904C126.815 255.754 127.257 255.628 127.706 255.526L128.538 255.392L128.813 255.36Z" fill="white"/>
<path d="M39.744 185.421C39.7227 185.696 39.6646 185.967 39.5712 186.227C39.3579 186.952 39.0705 187.654 38.7136 188.32C37.5507 190.552 35.7315 192.374 33.5011 193.54C31.2708 194.706 28.7365 195.16 26.24 194.842C25.491 194.755 24.7531 194.589 24.0384 194.349C23.7697 194.276 23.5116 194.168 23.2704 194.029C24.2537 194.294 25.2547 194.488 26.2656 194.611C28.7107 194.862 31.1756 194.389 33.3544 193.251C35.5331 192.113 37.3299 190.361 38.5216 188.211C38.9919 187.31 39.4003 186.378 39.744 185.421Z" fill="white"/>
<path d="M240.032 101.325H119.034C116.58 101.325 114.592 103.313 114.592 105.766V138.522C114.592 140.975 116.58 142.963 119.034 142.963H240.032C242.485 142.963 244.474 140.975 244.474 138.522V105.766C244.474 103.313 242.485 101.325 240.032 101.325Z" fill="white"/>
<path d="M240 142.963C240.287 142.944 240.574 142.91 240.858 142.861C241.689 142.692 242.454 142.285 243.059 141.689C243.509 141.261 243.858 140.739 244.083 140.16C244.344 139.457 244.451 138.706 244.397 137.958C244.397 136.326 244.397 134.438 244.397 132.32C244.397 128.07 244.397 122.88 244.397 116.857C244.397 113.843 244.397 110.617 244.397 107.2C244.452 106.343 244.401 105.483 244.243 104.64C244.016 103.781 243.53 103.013 242.851 102.44C242.172 101.868 241.333 101.518 240.448 101.44C239.546 101.401 238.592 101.44 237.645 101.44L119.04 101.491C118.342 101.492 117.654 101.663 117.037 101.99C116.422 102.317 115.895 102.786 115.501 103.36C115.113 103.934 114.868 104.592 114.784 105.28C114.726 105.958 114.784 106.701 114.784 107.405V115.923C114.784 121.564 114.784 127.11 114.784 132.563V136.64C114.784 137.318 114.784 137.997 114.784 138.662C114.81 139.31 114.981 139.944 115.283 140.518C115.586 141.085 116.012 141.576 116.529 141.957C117.046 142.338 117.641 142.598 118.272 142.72C118.909 142.791 119.551 142.814 120.192 142.79H137.6L190.906 142.829L226.842 142.88L236.614 142.912H239.174H240.038C240.038 142.912 239.75 142.912 239.174 142.912H236.614H226.842L190.906 142.963L137.6 143.001H120.218C119.549 143.03 118.879 143.004 118.214 142.925C117.182 142.739 116.243 142.206 115.556 141.413C114.869 140.62 114.475 139.615 114.438 138.566C114.438 137.881 114.438 137.216 114.438 136.537V107.289C114.438 106.566 114.438 105.881 114.47 105.126C114.554 104.381 114.818 103.668 115.241 103.048C115.664 102.429 116.232 101.923 116.896 101.574C117.56 101.221 118.301 101.037 119.053 101.037L237.626 101.088C238.579 101.088 239.507 101.088 240.448 101.088C241.377 101.173 242.257 101.54 242.97 102.141C243.683 102.742 244.194 103.547 244.435 104.448C244.55 104.88 244.601 105.326 244.589 105.773V107.053C244.589 110.47 244.589 113.696 244.589 116.71C244.589 122.733 244.589 127.923 244.589 132.173C244.589 134.291 244.589 136.179 244.589 137.811C244.642 138.571 244.529 139.333 244.256 140.045C243.974 140.733 243.525 141.34 242.95 141.812C242.374 142.284 241.69 142.604 240.96 142.745C240.749 142.784 240.535 142.807 240.32 142.816L240 142.963Z" fill="#263238"/>
<path d="M235.117 109.869C235.074 109.869 235.033 109.853 235.002 109.824C234.972 109.793 234.955 109.752 234.955 109.709C234.955 109.666 234.972 109.624 235.002 109.593L238.202 106.528C238.233 106.498 238.274 106.481 238.317 106.481C238.36 106.481 238.401 106.498 238.432 106.528C238.461 106.558 238.478 106.598 238.478 106.64C238.478 106.682 238.461 106.722 238.432 106.752L235.232 109.817C235.217 109.834 235.2 109.847 235.18 109.855C235.16 109.864 235.138 109.869 235.117 109.869Z" fill="#263238"/>
<path d="M238.304 109.881C238.284 109.882 238.263 109.879 238.245 109.871C238.226 109.863 238.209 109.851 238.195 109.837L235.027 106.745C235.012 106.731 235 106.714 234.991 106.694C234.983 106.675 234.979 106.654 234.979 106.633C234.979 106.612 234.983 106.592 234.991 106.572C235 106.553 235.012 106.536 235.027 106.521C235.057 106.492 235.097 106.476 235.139 106.476C235.181 106.476 235.221 106.492 235.251 106.521L238.451 109.619C238.48 109.649 238.497 109.689 238.497 109.731C238.497 109.773 238.48 109.813 238.451 109.843C238.432 109.862 238.408 109.875 238.383 109.882C238.357 109.888 238.33 109.888 238.304 109.881Z" fill="#263238"/>
<path d="M142.579 130.234L141.299 128.384C140.512 127.27 140.089 125.94 140.09 124.576V120.416C140.09 118.795 139.508 117.227 138.452 115.998C137.395 114.768 135.932 113.959 134.33 113.715V111.731C134.33 111.488 134.233 111.256 134.061 111.084C133.89 110.912 133.657 110.816 133.414 110.816C133.294 110.816 133.176 110.84 133.065 110.886C132.954 110.932 132.854 110.999 132.769 111.084C132.685 111.169 132.618 111.27 132.573 111.381C132.528 111.492 132.505 111.611 132.506 111.731V113.651C130.855 113.847 129.334 114.641 128.23 115.883C127.126 117.125 126.516 118.729 126.515 120.39V124.698C126.514 126.179 126.016 127.616 125.101 128.781L123.981 130.208L142.579 130.234Z" fill="#579540"/>
<path d="M132.294 133.254C132.801 133.459 133.354 133.519 133.892 133.426C134.431 133.333 134.932 133.092 135.341 132.729C135.691 132.407 135.955 132.002 136.109 131.552L130.688 131.513C130.82 131.899 131.031 132.253 131.308 132.553C131.585 132.852 131.92 133.091 132.294 133.254Z" fill="#579540"/>
<path d="M215.68 115.392C215.68 115.482 201.133 115.558 183.187 115.558C165.242 115.558 150.694 115.482 150.694 115.392C150.694 115.302 165.242 115.226 183.187 115.226C201.133 115.226 215.68 115.302 215.68 115.392Z" fill="#263238"/>
<path d="M230.963 123.257C230.963 123.347 212.986 123.424 190.816 123.424C168.646 123.424 150.662 123.347 150.662 123.257C150.662 123.168 168.634 123.091 190.816 123.091C212.998 123.091 230.963 123.161 230.963 123.257Z" fill="#E0E0E0"/>
<path d="M230.963 128C230.963 128.089 212.986 128.166 190.816 128.166C168.646 128.166 150.662 128.089 150.662 128C150.662 127.91 168.634 127.833 190.816 127.833C212.998 127.833 230.963 127.872 230.963 128Z" fill="#E0E0E0"/>
<path d="M219.251 149.465H138.899C136.446 149.465 134.458 151.454 134.458 153.907V173.632C134.458 176.085 136.446 178.073 138.899 178.073H219.251C221.704 178.073 223.693 176.085 223.693 173.632V153.907C223.693 151.454 221.704 149.465 219.251 149.465Z" fill="#FAFAFA"/>
<path d="M219.251 178.073C219.251 178.073 219.45 178.073 219.834 178.009C220.403 177.935 220.952 177.745 221.446 177.452C222.105 177.068 222.652 176.519 223.035 175.859C223.417 175.2 223.622 174.452 223.629 173.689V171.648C223.629 168.755 223.629 165.248 223.597 161.133C223.597 159.085 223.597 156.889 223.597 154.566C223.627 153.986 223.58 153.405 223.456 152.838C223.311 152.263 223.047 151.724 222.682 151.257C222.307 150.771 221.831 150.37 221.288 150.083C220.745 149.796 220.146 149.629 219.533 149.593L138.893 149.632C137.945 149.631 137.023 149.944 136.273 150.523C135.522 151.103 134.985 151.914 134.746 152.832C134.633 153.29 134.588 153.762 134.611 154.233V155.686C134.611 156.653 134.611 157.606 134.611 158.573V172.653C134.611 173.113 134.611 173.581 134.611 174.016C134.659 174.456 134.769 174.887 134.938 175.296C135.286 176.101 135.871 176.78 136.616 177.244C137.36 177.709 138.228 177.935 139.104 177.894H149.581L185.824 177.926L210.266 177.984L216.909 178.016H218.637H219.226C219.226 178.016 219.021 178.016 218.637 178.016H216.909H210.266L185.824 178.067L149.581 178.105H139.13C138.188 178.149 137.256 177.905 136.456 177.407C135.656 176.909 135.026 176.179 134.65 175.315C134.472 174.877 134.355 174.416 134.304 173.945C134.266 173.459 134.304 173.011 134.304 172.55V154.24C134.28 153.74 134.33 153.24 134.451 152.755C134.706 151.762 135.285 150.882 136.097 150.254C136.908 149.627 137.906 149.289 138.931 149.293L219.571 149.35C220.533 149.412 221.45 149.777 222.191 150.394C222.932 151.01 223.457 151.846 223.693 152.781C223.821 153.364 223.869 153.963 223.834 154.56C223.834 156.883 223.834 159.078 223.834 161.126C223.834 165.222 223.834 168.749 223.834 171.641C223.834 172.358 223.834 173.043 223.834 173.683C223.826 174.29 223.693 174.889 223.443 175.443C223.05 176.31 222.394 177.031 221.568 177.504C221.064 177.792 220.507 177.975 219.93 178.041C219.705 178.071 219.478 178.082 219.251 178.073Z" fill="#263238"/>
<path d="M217.267 155.385C217.246 155.385 217.224 155.38 217.204 155.372C217.185 155.363 217.167 155.35 217.152 155.334C217.137 155.32 217.124 155.302 217.116 155.283C217.108 155.264 217.104 155.243 217.104 155.222C217.104 155.201 217.108 155.18 217.116 155.161C217.124 155.142 217.137 155.124 217.152 155.11L219.347 153.005C219.362 152.989 219.38 152.977 219.4 152.968C219.42 152.96 219.441 152.956 219.462 152.956C219.484 152.956 219.505 152.96 219.525 152.968C219.545 152.977 219.563 152.989 219.578 153.005C219.607 153.034 219.623 153.075 219.623 153.117C219.623 153.158 219.607 153.199 219.578 153.229L217.376 155.334C217.362 155.35 217.346 155.363 217.327 155.371C217.308 155.38 217.288 155.385 217.267 155.385Z" fill="#263238"/>
<path d="M219.456 155.392C219.413 155.392 219.372 155.376 219.341 155.347L217.165 153.222C217.142 153.191 217.13 153.153 217.133 153.115C217.136 153.077 217.152 153.04 217.18 153.013C217.207 152.986 217.243 152.969 217.281 152.967C217.32 152.964 217.358 152.975 217.389 152.998L219.565 155.123C219.594 155.153 219.61 155.193 219.61 155.235C219.61 155.277 219.594 155.317 219.565 155.347C219.535 155.375 219.496 155.391 219.456 155.392Z" fill="#263238"/>
<path d="M153.683 169.325L152.787 168.045C152.248 167.278 151.958 166.364 151.955 165.427V162.56C151.954 161.448 151.556 160.373 150.832 159.529C150.108 158.685 149.105 158.128 148.006 157.958V156.595C148.006 156.425 147.939 156.263 147.819 156.143C147.699 156.023 147.536 155.955 147.366 155.955C147.197 155.955 147.034 156.023 146.914 156.143C146.794 156.263 146.726 156.425 146.726 156.595V157.939C145.593 158.072 144.547 158.617 143.789 159.47C143.03 160.323 142.611 161.425 142.611 162.566V165.523C142.612 166.539 142.272 167.526 141.645 168.326L140.87 169.312L153.683 169.325Z" fill="#455A64"/>
<path d="M146.618 171.405C146.965 171.544 147.345 171.584 147.715 171.521C148.084 171.458 148.429 171.293 148.71 171.046C148.952 170.825 149.132 170.545 149.235 170.233H145.51C145.606 170.494 145.753 170.732 145.944 170.933C146.134 171.134 146.363 171.295 146.618 171.405Z" fill="#455A64"/>
<path d="M203.891 159.129C203.891 159.219 193.894 159.296 181.562 159.296C169.229 159.296 159.238 159.219 159.238 159.129C159.238 159.04 169.235 158.963 181.562 158.963C193.888 158.963 203.891 159.033 203.891 159.129Z" fill="#263238"/>
<path d="M214.4 164.531C214.4 164.627 202.048 164.698 186.816 164.698C171.584 164.698 159.226 164.627 159.226 164.531C159.226 164.435 171.571 164.365 186.816 164.365C202.061 164.365 214.4 164.442 214.4 164.531Z" fill="#E0E0E0"/>
<path d="M214.4 167.769C214.4 167.859 202.048 167.936 186.816 167.936C171.584 167.936 159.226 167.859 159.226 167.769C159.226 167.68 171.571 167.603 186.816 167.603C202.061 167.603 214.4 167.68 214.4 167.769Z" fill="#E0E0E0"/>
<path d="M218.912 182.521H139.232C136.779 182.521 134.79 184.51 134.79 186.963V206.47C134.79 208.923 136.779 210.912 139.232 210.912H218.912C221.365 210.912 223.354 208.923 223.354 206.47V186.963C223.354 184.51 221.365 182.521 218.912 182.521Z" fill="#FAFAFA"/>
<path d="M218.912 210.918C218.912 210.918 219.11 210.918 219.488 210.861C220.053 210.783 220.597 210.594 221.088 210.304C221.893 209.841 222.531 209.135 222.912 208.288C223.148 207.751 223.276 207.172 223.29 206.585V204.563C223.29 201.696 223.29 198.195 223.29 194.131C223.29 192.096 223.29 189.92 223.29 187.616C223.323 187.04 223.276 186.463 223.149 185.901C223.007 185.33 222.748 184.796 222.387 184.333C222.017 183.847 221.547 183.447 221.01 183.158C220.472 182.868 219.879 182.697 219.27 182.656L139.27 182.688C138.326 182.694 137.409 183.011 136.662 183.589C135.915 184.167 135.379 184.975 135.136 185.888C135.019 186.341 134.97 186.809 134.989 187.277V191.577C134.989 195.388 134.989 199.134 134.989 202.816V205.561C134.989 206.016 134.989 206.483 134.989 206.912C135.033 207.352 135.14 207.783 135.309 208.192C135.652 208.992 136.23 209.669 136.966 210.134C137.701 210.599 138.561 210.83 139.43 210.797H149.824L185.786 210.829L210.035 210.886L216.627 210.918H218.342H218.925C218.925 210.918 218.726 210.918 218.342 210.918H216.627L210.035 210.95L185.786 211.001L149.824 211.04H139.418C138.485 211.071 137.565 210.821 136.776 210.322C135.987 209.823 135.367 209.099 134.995 208.243C134.817 207.807 134.7 207.348 134.65 206.88C134.65 206.406 134.65 205.958 134.65 205.497C134.65 204.589 134.65 203.673 134.65 202.752V187.251C134.63 186.755 134.684 186.259 134.81 185.779C135.076 184.795 135.659 183.926 136.469 183.307C137.279 182.688 138.27 182.353 139.29 182.355L219.29 182.425C219.931 182.471 220.554 182.652 221.119 182.958C221.685 183.264 222.178 183.686 222.566 184.198C222.94 184.69 223.212 185.251 223.366 185.849C223.489 186.43 223.536 187.023 223.507 187.616C223.507 189.92 223.507 192.096 223.507 194.131C223.507 198.195 223.507 201.696 223.475 204.563C223.475 205.273 223.475 205.952 223.475 206.585C223.453 207.358 223.232 208.112 222.833 208.773C222.434 209.435 221.87 209.982 221.197 210.361C220.695 210.648 220.139 210.829 219.565 210.893C219.348 210.919 219.13 210.928 218.912 210.918Z" fill="#263238"/>
<path d="M216.96 188.403C216.938 188.403 216.917 188.398 216.897 188.389C216.877 188.381 216.859 188.368 216.845 188.352C216.829 188.338 216.817 188.32 216.809 188.301C216.801 188.282 216.796 188.261 216.796 188.24C216.796 188.219 216.801 188.198 216.809 188.179C216.817 188.16 216.829 188.142 216.845 188.128L219.027 186.035C219.058 186.005 219.099 185.989 219.142 185.989C219.185 185.989 219.227 186.005 219.258 186.035C219.287 186.065 219.303 186.105 219.303 186.147C219.303 186.189 219.287 186.229 219.258 186.259L217.075 188.352C217.061 188.368 217.043 188.382 217.023 188.39C217.003 188.399 216.982 188.404 216.96 188.403Z" fill="#263238"/>
<path d="M219.149 188.409C219.106 188.41 219.065 188.394 219.034 188.365L216.877 186.24C216.846 186.21 216.829 186.169 216.828 186.127C216.828 186.084 216.844 186.043 216.874 186.013C216.903 185.982 216.944 185.964 216.987 185.964C217.029 185.963 217.07 185.98 217.101 186.009L219.258 188.121C219.287 188.151 219.303 188.191 219.303 188.233C219.303 188.275 219.287 188.315 219.258 188.345C219.231 188.38 219.192 188.403 219.149 188.409Z" fill="#263238"/>
<path d="M153.875 202.24L152.96 200.96C152.421 200.201 152.133 199.292 152.134 198.362V195.533C152.134 194.427 151.738 193.359 151.019 192.52C150.299 191.68 149.303 191.126 148.211 190.957V189.606C148.211 189.437 148.144 189.274 148.024 189.154C147.904 189.034 147.741 188.966 147.571 188.966C147.401 188.966 147.239 189.034 147.119 189.154C146.999 189.274 146.931 189.437 146.931 189.606V190.938C145.807 191.072 144.772 191.614 144.02 192.461C143.269 193.308 142.854 194.401 142.854 195.533V198.47C142.854 199.479 142.516 200.46 141.894 201.254L141.184 202.24H153.875Z" fill="#E0E0E0"/>
<path d="M146.861 204.301C147.207 204.438 147.584 204.477 147.951 204.414C148.318 204.351 148.661 204.188 148.941 203.942C149.179 203.722 149.357 203.444 149.459 203.136H145.766C145.859 203.394 146.005 203.631 146.193 203.832C146.381 204.032 146.608 204.192 146.861 204.301Z" fill="#E0E0E0"/>
<path d="M203.699 192.115C203.699 192.211 193.779 192.282 181.542 192.282C169.306 192.282 159.385 192.211 159.385 192.115C159.385 192.019 169.306 191.949 181.542 191.949C193.779 191.949 203.699 192 203.699 192.115Z" fill="#263238"/>
<path d="M214.144 197.478C214.144 197.574 201.882 197.645 186.765 197.645C171.648 197.645 159.385 197.574 159.385 197.478C159.385 197.382 171.642 197.312 186.765 197.312C201.888 197.312 214.144 197.389 214.144 197.478Z" fill="#E0E0E0"/>
<path d="M214.144 200.691C214.144 200.78 201.882 200.857 186.765 200.857C171.648 200.857 159.385 200.78 159.385 200.691C159.385 200.601 171.642 200.524 186.765 200.524C201.888 200.524 214.144 200.601 214.144 200.691Z" fill="#E0E0E0"/>
<path d="M284.454 174.547C277.83 177.984 272.749 183.891 269.094 190.394C265.44 196.896 263.085 204.045 260.774 211.13L258.714 247.68C266.426 234.56 272.614 219.143 274.285 204.026L269.165 203.565C272.608 203.04 275.494 200.551 277.331 197.594C279.168 194.637 280.115 191.232 281.037 187.879L274.765 188.8C279.706 185.471 283.176 180.367 284.454 174.547Z" fill="#455A64"/>
<path d="M284.454 174.547C277.83 177.984 272.749 183.891 269.094 190.394C265.44 196.896 263.085 204.045 260.774 211.13L258.714 247.68C266.426 234.56 272.614 219.143 274.285 204.026L269.165 203.565C272.608 203.04 275.494 200.551 277.331 197.594C279.168 194.637 280.115 191.232 281.037 187.879L274.765 188.8C279.706 185.471 283.176 180.367 284.454 174.547Z" fill="#579540"/>
<g opacity="0.3">
<path d="M284.454 174.547C277.83 177.984 272.749 183.891 269.094 190.394C265.44 196.896 263.085 204.045 260.774 211.13L258.714 247.68C266.426 234.56 272.614 219.143 274.285 204.026L269.165 203.565C272.608 203.04 275.494 200.551 277.331 197.594C279.168 194.637 280.115 191.232 281.037 187.879L274.765 188.8C279.706 185.471 283.176 180.367 284.454 174.547Z" fill="black"/>
</g>
<path d="M257.574 256.25C257.574 256.25 240.838 236.224 241.03 217.101H247.795C247.795 217.101 240.448 212.275 241.03 209.568C241.613 206.861 241.805 196.627 241.805 196.627L247.987 198.176C247.987 198.176 243.354 195.859 242.771 192.186C242.189 188.512 244.122 171.52 244.122 171.52C244.122 171.52 251.654 179.443 253.971 187.552C256.288 195.661 262.374 205.126 260.589 229.85C258.803 254.573 257.574 256.25 257.574 256.25Z" fill="#579540"/>
<path d="M266.054 258.137C266.054 258.137 284.186 246.061 288.211 230.649L282.778 229.171C282.778 229.171 289.741 226.893 289.862 224.595C289.984 222.297 292.07 214.022 292.07 214.022L286.765 213.913C286.765 213.913 290.995 213.062 292.269 210.24C293.542 207.417 295.68 193.331 295.68 193.331C295.68 193.331 287.891 198.048 284.256 204.064C280.621 210.08 273.658 216.352 269.683 236.621C265.709 256.889 266.054 258.137 266.054 258.137Z" fill="#579540"/>
<path d="M248.691 188.986C248.722 189.051 248.744 189.12 248.755 189.191C248.794 189.351 248.845 189.555 248.902 189.831C249.03 190.394 249.21 191.194 249.44 192.205C249.67 193.216 249.946 194.503 250.24 195.975C250.534 197.447 250.88 199.123 251.226 200.979C251.942 204.691 252.704 209.133 253.478 214.074C254.253 219.015 254.989 224.461 255.661 230.195C256.333 235.93 256.826 241.408 257.216 246.394C257.606 251.379 257.856 255.879 258.01 259.655C258.099 261.543 258.144 263.251 258.189 264.775C258.234 266.298 258.266 267.571 258.272 268.615C258.278 269.658 258.272 270.471 258.272 271.047V271.687C258.278 271.759 258.278 271.832 258.272 271.904C258.261 271.832 258.261 271.759 258.272 271.687C258.272 271.527 258.272 271.322 258.272 271.047C258.272 270.464 258.221 269.651 258.182 268.608C258.144 267.565 258.106 266.259 258.042 264.768C257.978 263.277 257.914 261.568 257.805 259.648C257.626 255.872 257.325 251.379 256.941 246.4C256.557 241.421 256.013 235.949 255.354 230.215C254.694 224.48 253.946 219.047 253.203 214.106C252.461 209.165 251.712 204.723 251.027 201.005C250.701 199.149 250.387 197.466 250.093 195.994C249.798 194.522 249.568 193.248 249.357 192.211C249.146 191.175 248.998 190.394 248.883 189.824C248.838 189.568 248.8 189.363 248.774 189.184C248.74 189.121 248.712 189.055 248.691 188.986Z" fill="#263238"/>
<path d="M255.251 268.512C255.251 268.512 239.936 251.142 235.187 240.64L238.771 239.11C236.173 239.539 233.504 238.419 231.488 236.723C229.472 235.027 227.987 232.794 226.534 230.592L231.264 229.792C226.92 228.549 223.221 225.682 220.934 221.786C226.515 222.707 231.565 225.773 235.725 229.6C239.026 232.776 242.025 236.251 244.685 239.981C246.021 241.774 247.184 243.69 248.16 245.702C250.733 251.021 255.258 262.131 255.251 268.512Z" fill="#579540"/>
<path d="M288.454 203.443C288.438 203.506 288.415 203.566 288.384 203.622L288.154 204.128C287.93 204.589 287.616 205.235 287.226 206.048C286.406 207.718 285.242 210.144 283.84 213.158C281.024 219.181 277.318 227.584 273.658 237.043C269.997 246.502 267.091 255.219 265.12 261.568C264.134 264.768 263.36 267.328 262.842 269.107C262.586 269.978 262.381 270.662 262.234 271.155L262.061 271.686C262.046 271.748 262.025 271.808 261.997 271.866C262 271.803 262.011 271.74 262.029 271.68C262.061 271.539 262.106 271.36 262.163 271.136C262.291 270.637 262.477 269.946 262.707 269.069C263.187 267.27 263.923 264.678 264.877 261.498C266.797 255.098 269.664 246.387 273.318 236.915C276.973 227.443 280.736 219.046 283.61 213.05C285.043 210.048 286.24 207.635 287.098 206.01C287.52 205.203 287.846 204.563 288.09 204.09L288.352 203.597C288.416 203.52 288.448 203.437 288.454 203.443Z" fill="#263238"/>
<path d="M256.55 275.962C256.51 275.859 256.484 275.751 256.474 275.642C256.429 275.386 256.378 275.085 256.32 274.72C256.198 273.92 256 272.762 255.718 271.341C255.437 269.92 255.046 268.243 254.541 266.394C254.035 264.544 253.389 262.554 252.621 260.48C251.853 258.406 250.982 256.486 250.157 254.765C249.331 253.043 248.499 251.526 247.77 250.285C247.04 249.043 246.432 248.032 245.99 247.347L245.498 246.554C245.432 246.466 245.38 246.369 245.344 246.266C245.344 246.266 245.427 246.342 245.555 246.515L246.106 247.27C246.586 247.91 247.232 248.915 247.987 250.15C248.742 251.386 249.587 252.909 250.451 254.63C251.315 256.352 252.166 258.291 252.954 260.39C253.741 262.49 254.362 264.493 254.874 266.349C255.386 268.205 255.731 269.901 255.981 271.334C256.23 272.768 256.397 273.933 256.467 274.739C256.506 275.11 256.531 275.418 256.557 275.674C256.569 275.769 256.566 275.866 256.55 275.962Z" fill="#263238"/>
<path d="M276.762 271.872H243.245V278.707H276.762V271.872Z" fill="#455A64"/>
<path d="M246.438 278.707L250.061 301.702H270.31L273.69 278.707H246.438Z" fill="#455A64"/>
<path d="M274.701 278.707C274.701 278.809 268.358 278.886 260.544 278.886C252.73 278.886 246.381 278.809 246.381 278.707C246.381 278.605 252.723 278.528 260.544 278.528C268.365 278.528 274.701 278.611 274.701 278.707Z" fill="#263238"/>
<path d="M77.8368 108.858L78.5344 100.589C74.5131 97.9159 71.6371 93.8356 70.4716 89.1499C69.3061 84.4641 69.9354 79.5119 72.236 75.2666C74.5365 71.0214 78.3417 67.7902 82.9038 66.2082C87.4658 64.6262 92.4545 64.8078 96.8894 66.7174C101.324 68.627 104.884 72.1264 106.87 76.5277C108.856 80.929 109.123 85.9139 107.62 90.5025C106.117 95.0911 102.952 98.9514 98.7468 101.325C94.5418 103.698 89.6011 104.413 84.896 103.328L77.8368 108.858Z" fill="white"/>
<path d="M77.8368 108.858L84.9472 103.379L85.0176 103.322L84.9344 103.283L84.8896 103.392C86.4003 103.742 87.9468 103.914 89.4976 103.904C91.3439 103.882 93.1776 103.597 94.944 103.059C95.9229 102.764 96.8738 102.383 97.7856 101.92C98.2464 101.671 98.7328 101.434 99.2 101.171L100.582 100.263C104.583 97.3528 107.329 93.0312 108.262 88.173C108.817 85.4732 108.783 82.6853 108.16 80.0002C107.46 77.1892 106.149 74.5671 104.32 72.3202C102.428 69.9549 99.9991 68.0747 97.2352 66.8354L96.1536 66.381C95.7952 66.221 95.4112 66.1314 95.0464 66.0098C94.6816 65.8882 94.3104 65.7538 93.9328 65.6834L92.8 65.4402C92.4252 65.3536 92.0444 65.2958 91.6608 65.2674L90.5216 65.133H89.3824C89.0051 65.1106 88.6268 65.1106 88.2496 65.133C85.2987 65.3004 82.4229 66.127 79.8336 67.5522C77.3798 68.8917 75.2514 70.7557 73.6 73.0114C70.644 77.072 69.3547 82.1101 69.9968 87.0914C70.3081 89.1929 70.9383 91.2345 71.8656 93.1458C72.6848 94.7973 73.7389 96.3214 74.9952 97.6706C76.0404 98.7938 77.2156 99.7885 78.496 100.634V100.583C78.0864 105.869 77.856 108.455 77.856 108.858C77.8944 108.455 78.1312 105.875 78.6112 100.595V100.563C77.3463 99.7129 76.1844 98.7185 75.1488 97.6002C73.9106 96.251 72.8718 94.7316 72.064 93.0882C71.1543 91.191 70.5371 89.167 70.2336 87.085C69.6094 82.1528 70.8938 77.1685 73.824 73.1522C75.4627 70.9273 77.5685 69.0881 79.9936 67.7634C82.5543 66.3585 85.3973 65.545 88.3136 65.3826C88.6866 65.3602 89.0606 65.3602 89.4336 65.3826H90.56L91.6864 65.517C92.0635 65.5464 92.4379 65.6042 92.8064 65.6898L93.9264 65.9266C94.304 65.997 94.656 66.1442 95.0272 66.2466C95.3984 66.349 95.7696 66.4578 96.1216 66.6178L97.184 67.0658C99.9144 68.2895 102.314 70.1454 104.186 72.4802C105.984 74.7092 107.269 77.3074 107.949 80.0898C108.58 82.7283 108.639 85.4714 108.122 88.1346C107.185 92.9488 104.453 97.2269 100.48 100.103L99.1168 101.005C98.6496 101.274 98.1696 101.504 97.7152 101.754C96.811 102.214 95.8688 102.595 94.8992 102.893C93.1508 103.435 91.3341 103.723 89.504 103.751C87.963 103.77 86.425 103.609 84.9216 103.271L84.8832 103.379V103.277C80.3968 106.835 78.1696 108.595 77.8368 108.858Z" fill="#263238"/>
<path d="M86.5024 74.6755L87.0976 85.9139C87.123 86.3573 87.3094 86.7761 87.6216 87.0919C87.9338 87.4076 88.3506 87.5987 88.7936 87.6291C89.2565 87.6587 89.7133 87.5101 90.0702 87.2138C90.4272 86.9175 90.6574 86.496 90.7136 86.0355L92.0768 74.7587C92.1003 74.5575 92.0809 74.3536 92.0199 74.1604C91.9588 73.9672 91.8576 73.7892 91.7227 73.638C91.5879 73.4868 91.4225 73.3659 91.2375 73.2833C91.0526 73.2007 90.8522 73.1582 90.6496 73.1587H87.9104C87.7165 73.16 87.525 73.201 87.3475 73.2791C87.1701 73.3572 87.0105 73.4708 86.8786 73.6129C86.7467 73.7549 86.6453 73.9225 86.5806 74.1053C86.5159 74.288 86.4893 74.4821 86.5024 74.6755Z" fill="#579540"/>
<path d="M91.7312 93.2804C91.5604 93.7946 91.241 94.2466 90.8132 94.5792C90.3855 94.9119 89.8688 95.1102 89.3283 95.1491C88.7879 95.188 88.248 95.0657 87.7771 94.7978C87.3061 94.5298 86.9252 94.1282 86.6826 93.6438C86.4399 93.1593 86.3463 92.6137 86.4137 92.0761C86.4812 91.5385 86.7065 91.0329 87.0613 90.6234C87.4161 90.2139 87.8843 89.9187 88.4069 89.7754C88.9294 89.632 89.4827 89.6468 89.9968 89.818C90.6858 90.0473 91.2555 90.5409 91.5808 91.1901C91.906 91.8394 91.9601 92.5912 91.7312 93.2804Z" fill="#579540"/>
</svg>
