<svg width="18" height="20" viewBox="0 0 18 20" fill="none" xmlns="http://www.w3.org/2000/svg">
<g id="Group 1000002396">
<g id="Group">
<path id="Vector" opacity="0.975" fill-rule="evenodd" clip-rule="evenodd" d="M8.61122 0C8.87761 0 9.14396 0 9.41035 0C10.1289 0.201236 10.5884 0.656965 10.7889 1.36719C10.8022 1.77083 10.8155 2.17448 10.8288 2.57812C13.3245 3.43412 14.7762 5.13984 15.1841 7.69531C15.1925 8.82859 15.2192 9.96141 15.264 11.0938C15.4831 13.2404 16.3488 15.0894 17.8612 16.6406C18.0527 16.9385 18.0461 17.2314 17.8412 17.5195C17.7746 17.5586 17.708 17.5977 17.6414 17.6367C15.75 17.6432 13.8587 17.6628 11.9676 17.6953C11.6062 18.9471 10.7805 19.7154 9.49027 20C9.17061 20 8.85096 20 8.53131 20C7.24107 19.7154 6.41533 18.9471 6.05401 17.6953C4.16286 17.6628 2.2716 17.6432 0.380182 17.6367C0.0439522 17.4669 -0.0692605 17.2 0.040552 16.8359C0.841708 15.9864 1.49433 15.0359 1.99842 13.9844C2.4067 13.0603 2.65976 12.0967 2.75759 11.0938C2.80239 9.96141 2.82904 8.82859 2.83751 7.69531C3.2457 5.13871 4.69744 3.43296 7.19277 2.57812C7.20607 2.17448 7.21942 1.77083 7.23272 1.36719C7.43315 0.656965 7.89264 0.201236 8.61122 0ZM8.81101 1.21094C9.24741 1.16004 9.50713 1.34233 9.59016 1.75781C9.6101 1.95269 9.61677 2.148 9.61014 2.34375C9.21057 2.34375 8.81101 2.34375 8.41144 2.34375C8.40049 2.08084 8.42047 1.82042 8.47138 1.5625C8.53882 1.39902 8.65202 1.28183 8.81101 1.21094ZM8.97083 3.51562C11.1993 3.63752 12.7643 4.69219 13.6657 6.67969C13.8751 7.23418 13.9816 7.80711 13.9854 8.39844C13.9987 9.32293 14.012 10.2474 14.0253 11.1719C14.2007 13.1323 14.8866 14.8966 16.0831 16.4648C11.3682 16.4909 6.65335 16.4909 1.93849 16.4648C3.13494 14.8966 3.82088 13.1323 3.99625 11.1719C4.00188 10.0514 4.02853 8.93164 4.07616 7.8125C4.41783 5.75965 5.59654 4.39898 7.61231 3.73047C8.0641 3.61632 8.51693 3.54471 8.97083 3.51562ZM7.33261 17.6953C8.4446 17.6498 9.56339 17.6434 10.689 17.6758C10.0895 18.7739 9.21045 19.0604 8.05183 18.5352C7.72962 18.3182 7.48988 18.0383 7.33261 17.6953Z" fill="#FB9F14"/>
</g>
<g id="Group_2">
<path id="Vector_2" opacity="0.957" fill-rule="evenodd" clip-rule="evenodd" d="M3.17834 2.00105C3.79115 1.98129 4.06119 2.24139 3.98841 2.78133C3.84842 3.02333 3.65869 3.23141 3.41917 3.40556C2.49235 4.35474 1.86473 5.44714 1.5363 6.68276C1.39941 7.35689 1.29724 8.03313 1.22979 8.71151C1.01847 8.97072 0.733854 9.05526 0.375929 8.9651C0.193479 8.90658 0.0694155 8.79605 0.00373393 8.63348C-0.0664621 6.1542 0.853079 4.0214 2.76236 2.23513C2.88683 2.13125 3.02548 2.05322 3.17834 2.00105Z" fill="#FB9F14"/>
</g>
<g id="Group_3">
<path id="Vector_3" opacity="0.956" fill-rule="evenodd" clip-rule="evenodd" d="M14.4798 2.00489C14.7157 1.9841 14.9341 2.02956 15.135 2.14128C17.1162 3.93558 18.0699 6.09823 17.996 8.62924C17.8061 8.95714 17.5076 9.06754 17.1006 8.96046C16.9593 8.90746 16.8501 8.82302 16.773 8.70717C16.7451 7.08779 16.2501 5.59404 15.2878 4.226C14.9586 3.78913 14.58 3.38648 14.1522 3.01803C13.8706 2.57368 13.9798 2.23597 14.4798 2.00489Z" fill="#FB9F14"/>
</g>
</g>
</svg>
