<svg width="48" height="73" viewBox="0 0 48 73" fill="none" xmlns="http://www.w3.org/2000/svg">
<path d="M1.28162 15.4951C1.17563 15.601 1.09154 15.7267 1.03417 15.8651C0.976796 16.0035 0.947266 16.1518 0.947266 16.3017C0.947266 16.4515 0.976796 16.5998 1.03417 16.7382C1.09154 16.8766 1.17563 17.0024 1.28162 17.1082L11.3481 27.1805C11.5621 27.3944 11.8522 27.5146 12.1547 27.5146C12.4573 27.5146 12.7474 27.3944 12.9613 27.1805C13.1752 26.9665 13.2954 26.6764 13.2954 26.3739C13.2954 26.0714 13.1752 25.7812 12.9613 25.5673L2.88908 15.4951C2.67548 15.2828 2.38653 15.1636 2.08535 15.1636C1.78417 15.1636 1.49522 15.2828 1.28162 15.4951Z" fill="url(#paint0_linear_2015_17675)"/>
<path d="M33.8184 21.053V6.99062C33.8184 6.68827 33.6983 6.39829 33.4845 6.1845C33.2707 5.9707 32.9807 5.85059 32.6784 5.85059C32.376 5.85059 32.086 5.9707 31.8722 6.1845C31.6584 6.39829 31.5383 6.68827 31.5383 6.99062V21.053C31.5383 21.3553 31.6584 21.6453 31.8722 21.8591C32.086 22.0729 32.376 22.193 32.6784 22.193C32.9807 22.193 33.2707 22.0729 33.4845 21.8591C33.6983 21.6453 33.8184 21.3553 33.8184 21.053Z" fill="url(#paint1_linear_2015_17675)"/>
<path d="M16.1419 0.856964C16.1044 0.711744 16.0388 0.575317 15.9486 0.455474C15.8585 0.335631 15.7456 0.234718 15.6164 0.158497C15.4873 0.0822766 15.3444 0.0322405 15.1959 0.011246C15.0474 -0.00974855 14.8962 -0.00129039 14.751 0.0361376C14.6058 0.0735655 14.4694 0.13923 14.3495 0.229383C14.2297 0.319535 14.1288 0.432409 14.0525 0.561561C13.9763 0.690713 13.9263 0.833613 13.9053 0.982103C13.8843 1.13059 13.8928 1.28176 13.9302 1.42698L17.3503 15.1074C17.3877 15.2526 17.4534 15.3891 17.5435 15.5089C17.6337 15.6288 17.7466 15.7297 17.8757 15.8059C18.0049 15.8821 18.1478 15.9321 18.2963 15.9531C18.4447 15.9741 18.5959 15.9657 18.7411 15.9283C18.8864 15.8908 19.0228 15.8252 19.1426 15.735C19.2625 15.6449 19.3634 15.532 19.4396 15.4028C19.5158 15.2737 19.5659 15.1308 19.5869 14.9823C19.6079 14.8338 19.5994 14.6826 19.562 14.5374L16.1419 0.856964Z" fill="url(#paint2_linear_2015_17675)"/>
<path d="M1.11059 41.4877C4.69031 46.6179 4.6618 48.9322 4.639 51.178C4.468 67.5034 15.7829 72.548 22.5034 72.9527C23.0164 72.9812 23.5123 72.9983 24.0082 72.9983C27.116 73.0352 30.1962 72.4127 33.0457 71.1717C35.8951 69.9307 38.449 68.0995 40.5388 65.799L44.2724 61.6835L44.3351 61.6094L46.1877 59.563C46.8436 58.9065 47.3104 58.0854 47.5392 57.186C47.768 56.2867 47.7502 55.3423 47.4877 54.4522C47.2252 53.5621 46.7277 52.7591 46.0476 52.1278C45.3674 51.4965 44.5297 51.0601 43.6226 50.8645C43.8006 50.2175 43.8362 49.5396 43.7269 48.8775C43.6175 48.2154 43.3659 47.5849 42.9893 47.0295C42.6127 46.4741 42.1201 46.0069 41.5455 45.6603C40.9709 45.3137 40.3279 45.0959 39.6609 45.0218C39.8462 44.5099 39.9426 43.9701 39.9459 43.4258C39.9491 42.237 39.5393 41.084 38.7865 40.1639C38.0338 39.2437 36.9849 38.6136 35.819 38.3811L42.0037 32.1736C42.4889 31.69 42.873 31.1145 43.1334 30.4808C43.3938 29.8471 43.5254 29.1679 43.5204 28.4828C43.5155 27.7978 43.3741 27.1205 43.1046 26.4907C42.8351 25.8608 42.4429 25.2909 41.9507 24.8143C41.4586 24.3377 40.8764 23.9639 40.2383 23.7147C39.6001 23.4655 38.9187 23.3459 38.2338 23.3629C37.5489 23.3799 36.8742 23.5332 36.2492 23.8138C35.6242 24.0944 35.0613 24.4966 34.5935 24.9971C27.816 32.2306 19.3911 40.4617 16.0679 41.8126C14.1298 42.6107 13.6624 41.9893 12.1632 39.5326C11.1221 37.6078 9.73905 35.8887 8.08191 34.4594C6.10965 32.8576 3.78968 32.812 1.86871 34.334C-0.303056 36.0497 -0.616566 39.0024 1.11059 41.4877ZM42.5224 53.0363C42.9006 53.0349 43.2753 53.1087 43.6247 53.2535C43.9741 53.3984 44.2911 53.6113 44.5574 53.8799C44.8261 54.1522 45.0383 54.4749 45.1818 54.8295C45.3252 55.184 45.3972 55.5635 45.3935 55.946C45.3898 56.3285 45.3105 56.7065 45.1601 57.0582C45.0098 57.4099 44.7914 57.7285 44.5175 57.9955L42.7105 59.9848C42.2266 60.2134 41.6843 60.2884 41.1564 60.1997C40.6286 60.1111 40.1406 59.863 39.7578 59.4889L39.6552 59.3806C39.1891 58.9234 38.9089 58.3097 38.8689 57.658C38.8289 57.0063 39.0319 56.3629 39.4386 55.8522L42.2887 53.0021L42.5224 53.0363ZM40.8124 47.9403C41.2345 48.3589 41.483 48.9214 41.5084 49.5153C41.5338 50.1092 41.334 50.6908 40.9492 51.1438C40.9015 51.1875 40.8577 51.2352 40.8181 51.2863L37.5462 54.5582C37.0841 54.7272 36.5839 54.7634 36.1024 54.6627C35.6208 54.5619 35.1771 54.3283 34.8215 53.9882L34.6847 53.8514C34.236 53.3855 33.9723 52.7721 33.9429 52.1258C33.9136 51.4796 34.1205 50.8449 34.5251 50.3401C34.9811 49.9867 36.8907 48.4761 37.9053 47.604C38.3568 47.3306 38.8864 47.2153 39.4107 47.2762C39.935 47.337 40.4242 47.5707 40.801 47.9403H40.8124ZM36.8223 41.3794C37.0909 41.6457 37.3038 41.9627 37.4486 42.3121C37.5935 42.6615 37.6673 43.0362 37.6659 43.4144C37.5914 44.3404 37.1626 45.202 36.4688 45.8199C35.7734 46.4241 34.2743 47.6268 33.1684 48.4932C32.6969 48.6278 32.1979 48.6332 31.7236 48.5089C31.2493 48.3845 30.8171 48.135 30.4722 47.7864L30.3981 47.7123C29.8791 47.1929 29.5876 46.4886 29.5876 45.7543C29.5876 45.02 29.8791 44.3158 30.3981 43.7963L33.0772 41.1172C33.6262 40.7007 34.3075 40.4972 34.995 40.5443C35.6825 40.5915 36.3296 40.8861 36.8165 41.3737L36.8223 41.3794ZM3.28806 36.0953C4.3825 35.2289 5.48263 35.2631 6.64547 36.2036C8.09635 37.4687 9.30541 38.9868 10.2138 40.684C10.7426 41.6735 11.4064 42.5847 12.186 43.3916C12.2073 43.4231 12.2301 43.4535 12.2544 43.4828C12.3514 43.5854 14.5345 45.9738 12.3115 49.4452C12.1617 49.6996 12.1165 50.0023 12.1854 50.2894C12.2542 50.5765 12.4318 50.8257 12.6808 50.9846C12.9297 51.1434 13.2305 51.1994 13.5199 51.1409C13.8094 51.0823 14.0648 50.9138 14.2324 50.6707C14.8615 49.7689 15.282 48.7383 15.4634 47.6538C15.6448 46.5693 15.5826 45.458 15.2812 44.4005C15.8459 44.3232 16.3979 44.1718 16.9229 43.9502C21.4089 42.109 31.9258 31.1932 36.2465 26.5817C36.509 26.2987 36.8262 26.0719 37.179 25.9151C37.5317 25.7583 37.9126 25.6748 38.2986 25.6697C38.6851 25.6637 39.0689 25.7352 39.4272 25.8801C39.7856 26.025 40.1112 26.2403 40.3849 26.5133C40.6529 26.7807 40.8655 27.0983 41.0106 27.448C41.1557 27.7977 41.2303 28.1726 41.2303 28.5511C41.2303 28.9297 41.1557 29.3046 41.0106 29.6543C40.8655 30.0039 40.6529 30.3216 40.3849 30.589L28.7793 42.1717C28.3077 42.641 27.9336 43.1988 27.6782 43.8132C27.4229 44.4275 27.2915 45.0862 27.2915 45.7515C27.2915 46.4167 27.4229 47.0754 27.6782 47.6897C27.9336 48.3041 28.3077 48.8619 28.7793 49.3312L28.842 49.3939C29.6271 50.1811 30.6519 50.6845 31.7548 50.8246C31.556 51.6473 31.5711 52.5071 31.7986 53.3223C32.0261 54.1374 32.4584 54.8808 33.0544 55.4817L33.1 55.5216L33.1456 55.5672C34.0704 56.4836 35.3208 56.9961 36.6227 56.9922C36.5449 57.7207 36.6314 58.4574 36.8761 59.1479C37.1207 59.8385 37.5173 60.4654 38.0364 60.9823L38.1219 61.0793C38.7814 61.7372 39.6132 62.1956 40.5217 62.4017L38.8116 64.2885L38.766 64.3398C36.725 66.537 34.216 68.2471 31.4246 69.3433C28.6332 70.4395 25.631 70.8939 22.6402 70.6727C19.703 70.418 16.8749 69.4387 14.4091 67.8226C14.5858 67.8226 14.7682 67.8226 14.9506 67.8226H15.4352C18.2852 67.6402 20.8902 65.913 23.2159 62.6924C23.3838 62.4464 23.4487 62.1446 23.3969 61.8513C23.345 61.5581 23.1805 61.2968 22.9385 61.1233C22.6965 60.9498 22.3962 60.8779 22.1018 60.9229C21.8075 60.9679 21.5424 61.1263 21.3633 61.3643C19.4652 64.0091 17.4302 65.4228 15.3097 65.5653C12.3514 65.7591 10.077 63.3935 10.0428 63.3593C9.99236 63.3066 9.93701 63.2589 9.87747 63.2168C8.09332 60.4009 6.86778 56.5362 6.92478 51.1951C6.95898 48.1797 6.68537 45.455 2.98595 40.1653C2.12522 38.9568 1.89151 37.2126 3.28806 36.0953Z" fill="url(#paint3_linear_2015_17675)"/>
<path d="M21.039 23.2361L18.5195 23.6009L20.3436 25.3794L19.9104 27.8875L22.1619 26.7018L24.4135 27.8875L23.9803 25.3794L25.8044 23.6009L23.2849 23.2361L22.1619 20.9561L21.039 23.2361Z" fill="url(#paint4_linear_2015_17675)"/>
<path d="M24.7034 9.5271L25.4729 11.26L26.385 9.5898L28.2717 9.39599L26.9664 8.01655L27.3654 6.15829L25.6496 6.97342L24.0023 6.02148L24.2474 7.90825L22.8337 9.17939L24.7034 9.5271Z" fill="url(#paint5_linear_2015_17675)"/>
<path d="M9.53548 8.76335L8.16174 7.45801L7.95653 9.34477L6.28638 10.2511L8.01923 11.0263L8.36694 12.896L9.63808 11.4823L11.5248 11.7331L10.5729 10.0858L11.3937 8.37574L9.53548 8.76335Z" fill="url(#paint6_linear_2015_17675)"/>
<defs>
<linearGradient id="paint0_linear_2015_17675" x1="7.12133" y1="15.1636" x2="7.12133" y2="27.5146" gradientUnits="userSpaceOnUse">
<stop stop-color="#58CC2C"/>
<stop offset="1" stop-color="#4ED28D"/>
</linearGradient>
<linearGradient id="paint1_linear_2015_17675" x1="32.6784" y1="5.85059" x2="32.6784" y2="22.193" gradientUnits="userSpaceOnUse">
<stop stop-color="#58CC2C"/>
<stop offset="1" stop-color="#4ED28D"/>
</linearGradient>
<linearGradient id="paint2_linear_2015_17675" x1="16.7461" y1="0" x2="16.7461" y2="15.9644" gradientUnits="userSpaceOnUse">
<stop stop-color="#58CC2C"/>
<stop offset="1" stop-color="#4ED28D"/>
</linearGradient>
<linearGradient id="paint3_linear_2015_17675" x1="23.8493" y1="23.3613" x2="23.8493" y2="72.9999" gradientUnits="userSpaceOnUse">
<stop stop-color="#58CC2C"/>
<stop offset="1" stop-color="#4ED28D"/>
</linearGradient>
<linearGradient id="paint4_linear_2015_17675" x1="22.1619" y1="20.9561" x2="22.1619" y2="27.8875" gradientUnits="userSpaceOnUse">
<stop stop-color="#58CC2C"/>
<stop offset="1" stop-color="#4ED28D"/>
</linearGradient>
<linearGradient id="paint5_linear_2015_17675" x1="25.5527" y1="6.02148" x2="25.5527" y2="11.26" gradientUnits="userSpaceOnUse">
<stop stop-color="#58CC2C"/>
<stop offset="1" stop-color="#4ED28D"/>
</linearGradient>
<linearGradient id="paint6_linear_2015_17675" x1="8.90561" y1="7.45801" x2="8.90561" y2="12.896" gradientUnits="userSpaceOnUse">
<stop stop-color="#58CC2C"/>
<stop offset="1" stop-color="#4ED28D"/>
</linearGradient>
</defs>
</svg>
