<svg width="48" height="73" viewBox="0 0 48 73" fill="none" xmlns="http://www.w3.org/2000/svg">
<path d="M1.28162 15.4951C1.17563 15.601 1.09154 15.7267 1.03417 15.8651C0.976796 16.0035 0.947266 16.1518 0.947266 16.3017C0.947266 16.4515 0.976796 16.5998 1.03417 16.7382C1.09154 16.8766 1.17563 17.0024 1.28162 17.1082L11.3481 27.1805C11.5621 27.3944 11.8522 27.5146 12.1547 27.5146C12.4573 27.5146 12.7474 27.3944 12.9613 27.1805C13.1752 26.9665 13.2954 26.6764 13.2954 26.3739C13.2954 26.0714 13.1752 25.7812 12.9613 25.5673L2.88908 15.4951C2.67548 15.2828 2.38653 15.1636 2.08535 15.1636C1.78417 15.1636 1.49522 15.2828 1.28162 15.4951Z" fill="url(#paint0_linear_70_16472)"/>
<path d="M33.8186 21.0527V6.99038C33.8186 6.68802 33.6985 6.39805 33.4847 6.18425C33.2709 5.97045 32.981 5.85034 32.6786 5.85034C32.3763 5.85034 32.0863 5.97045 31.8725 6.18425C31.6587 6.39805 31.5386 6.68802 31.5386 6.99038V21.0527C31.5386 21.3551 31.6587 21.6451 31.8725 21.8589C32.0863 22.0727 32.3763 22.1928 32.6786 22.1928C32.981 22.1928 33.2709 22.0727 33.4847 21.8589C33.6985 21.6451 33.8186 21.3551 33.8186 21.0527Z" fill="url(#paint1_linear_70_16472)"/>
<path d="M16.1419 0.856964C16.1044 0.711744 16.0388 0.575317 15.9486 0.455474C15.8585 0.335631 15.7456 0.234718 15.6164 0.158497C15.4873 0.0822766 15.3444 0.0322405 15.1959 0.011246C15.0474 -0.00974855 14.8962 -0.00129039 14.751 0.0361376C14.6058 0.0735655 14.4694 0.13923 14.3495 0.229383C14.2297 0.319535 14.1288 0.432409 14.0525 0.561561C13.9763 0.690713 13.9263 0.833613 13.9053 0.982103C13.8843 1.13059 13.8928 1.28176 13.9302 1.42698L17.3503 15.1074C17.3877 15.2526 17.4534 15.3891 17.5435 15.5089C17.6337 15.6288 17.7466 15.7297 17.8757 15.8059C18.0049 15.8821 18.1478 15.9321 18.2963 15.9531C18.4447 15.9741 18.5959 15.9657 18.7411 15.9283C18.8864 15.8908 19.0228 15.8252 19.1426 15.735C19.2625 15.6449 19.3634 15.532 19.4396 15.4028C19.5158 15.2737 19.5659 15.1308 19.5869 14.9823C19.6079 14.8338 19.5994 14.6826 19.562 14.5374L16.1419 0.856964Z" fill="url(#paint2_linear_70_16472)"/>
<path d="M1.11059 41.4878C4.69031 46.618 4.6618 48.9323 4.639 51.1782C4.468 67.5035 15.7829 72.5481 22.5034 72.9529C23.0164 72.9814 23.5123 72.9985 24.0082 72.9985C27.116 73.0354 30.1962 72.4128 33.0457 71.1718C35.8951 69.9308 38.449 68.0996 40.5388 65.7991L44.2724 61.6836L44.3351 61.6095L46.1877 59.5631C46.8436 58.9066 47.3104 58.0855 47.5392 57.1862C47.768 56.2868 47.7502 55.3424 47.4877 54.4523C47.2252 53.5622 46.7277 52.7593 46.0476 52.1279C45.3674 51.4966 44.5297 51.0602 43.6226 50.8646C43.8006 50.2176 43.8362 49.5397 43.7269 48.8776C43.6175 48.2155 43.3659 47.585 42.9893 47.0296C42.6127 46.4742 42.1201 46.0071 41.5455 45.6605C40.9709 45.3138 40.3279 45.096 39.6609 45.022C39.8462 44.5101 39.9426 43.9703 39.9459 43.4259C39.9491 42.2371 39.5393 41.0841 38.7865 40.164C38.0338 39.2439 36.9849 38.6137 35.819 38.3812L42.0037 32.1737C42.4889 31.6901 42.873 31.1146 43.1334 30.4809C43.3938 29.8473 43.5254 29.168 43.5204 28.483C43.5155 27.7979 43.3741 27.1206 43.1046 26.4908C42.8351 25.8609 42.4429 25.291 41.9507 24.8144C41.4586 24.3378 40.8764 23.964 40.2383 23.7148C39.6001 23.4656 38.9187 23.346 38.2338 23.363C37.5489 23.3801 36.8742 23.5333 36.2492 23.8139C35.6242 24.0945 35.0613 24.4967 34.5935 24.9972C27.816 32.2307 19.3911 40.4618 16.0679 41.8128C14.1298 42.6108 13.6624 41.9895 12.1632 39.5327C11.1221 37.6079 9.73905 35.8888 8.08192 34.4595C6.10965 32.8578 3.78968 32.8122 1.86871 34.3341C-0.303056 36.0499 -0.616566 39.0026 1.11059 41.4878ZM42.5224 53.0364C42.9006 53.035 43.2753 53.1088 43.6247 53.2537C43.9741 53.3985 44.2911 53.6114 44.5574 53.88C44.8261 54.1523 45.0383 54.475 45.1818 54.8296C45.3252 55.1842 45.3972 55.5636 45.3935 55.9461C45.3898 56.3286 45.3105 56.7066 45.1601 57.0583C45.0098 57.41 44.7914 57.7286 44.5175 57.9956L42.7105 59.9849C42.2266 60.2135 41.6843 60.2885 41.1564 60.1999C40.6286 60.1112 40.1406 59.8632 39.7578 59.489L39.6552 59.3807C39.1891 58.9236 38.9089 58.3098 38.8689 57.6581C38.8289 57.0064 39.0319 56.3631 39.4386 55.8523L42.2887 53.0022L42.5224 53.0364ZM40.8124 47.9405C41.2345 48.359 41.483 48.9215 41.5084 49.5154C41.5338 50.1093 41.334 50.6909 40.9492 51.144C40.9015 51.1876 40.8577 51.2353 40.8181 51.2865L37.5462 54.5584C37.0841 54.7274 36.5839 54.7635 36.1024 54.6628C35.6208 54.562 35.1771 54.3284 34.8215 53.9883L34.6847 53.8515C34.236 53.3856 33.9723 52.7722 33.9429 52.126C33.9136 51.4798 34.1205 50.845 34.5251 50.3402C34.9811 49.9868 36.8907 48.4763 37.9053 47.6041C38.3568 47.3307 38.8864 47.2154 39.4107 47.2763C39.935 47.3372 40.4242 47.5708 40.801 47.9405H40.8124ZM36.8222 41.3795C37.0909 41.6458 37.3038 41.9628 37.4486 42.3122C37.5935 42.6616 37.6673 43.0363 37.6659 43.4145C37.5914 44.3405 37.1626 45.2022 36.4688 45.82C35.7734 46.4242 34.2743 47.6269 33.1684 48.4934C32.6969 48.628 32.1979 48.6334 31.7236 48.509C31.2493 48.3847 30.8171 48.1351 30.4722 47.7865L30.3981 47.7124C29.8791 47.193 29.5876 46.4887 29.5876 45.7544C29.5876 45.0201 29.8791 44.3159 30.3981 43.7964L33.0772 41.1173C33.6262 40.7008 34.3075 40.4973 34.995 40.5444C35.6825 40.5916 36.3296 40.8863 36.8165 41.3738L36.8222 41.3795ZM3.28806 36.0955C4.3825 35.229 5.48263 35.2632 6.64547 36.2038C8.09635 37.4689 9.30541 38.9869 10.2138 40.6841C10.7426 41.6736 11.4064 42.5849 12.186 43.3917C12.2073 43.4232 12.2301 43.4537 12.2545 43.4829C12.3514 43.5855 14.5345 45.9739 12.3115 49.4453C12.1617 49.6998 12.1165 50.0024 12.1854 50.2895C12.2542 50.5767 12.4318 50.8259 12.6808 50.9847C12.9297 51.1435 13.2305 51.1995 13.5199 51.141C13.8094 51.0825 14.0648 50.9139 14.2324 50.6708C14.8615 49.769 15.282 48.7384 15.4634 47.6539C15.6448 46.5694 15.5826 45.4581 15.2812 44.4006C15.8459 44.3234 16.3979 44.172 16.9229 43.9503C21.4089 42.1092 31.9258 31.1933 36.2465 26.5819C36.509 26.2988 36.8262 26.072 37.179 25.9152C37.5317 25.7584 37.9126 25.675 38.2986 25.6698C38.6851 25.6638 39.0689 25.7353 39.4272 25.8802C39.7856 26.0251 40.1112 26.2405 40.3849 26.5135C40.6529 26.7808 40.8655 27.0985 41.0106 27.4481C41.1557 27.7978 41.2303 28.1727 41.2303 28.5513C41.2303 28.9299 41.1557 29.3047 41.0106 29.6544C40.8655 30.0041 40.6529 30.3217 40.3849 30.5891L28.7793 42.1719C28.3077 42.6411 27.9336 43.199 27.6782 43.8133C27.4229 44.4276 27.2915 45.0863 27.2915 45.7516C27.2915 46.4168 27.4229 47.0756 27.6782 47.6899C27.9336 48.3042 28.3077 48.862 28.7793 49.3313L28.842 49.394C29.6271 50.1812 30.6519 50.6846 31.7548 50.8247C31.556 51.6474 31.5711 52.5072 31.7986 53.3224C32.0261 54.1376 32.4584 54.8809 33.0544 55.4818L33.1 55.5217L33.1456 55.5673C34.0704 56.4837 35.3208 56.9962 36.6227 56.9923C36.5449 57.7208 36.6314 58.4575 36.8761 59.1481C37.1207 59.8386 37.5173 60.4655 38.0364 60.9825L38.1219 61.0794C38.7814 61.7373 39.6132 62.1957 40.5217 62.4018L38.8116 64.2886L38.766 64.3399C36.725 66.5371 34.216 68.2472 31.4246 69.3434C28.6332 70.4397 25.631 70.894 22.6402 70.6728C19.703 70.4181 16.8749 69.4388 14.4091 67.8227C14.5858 67.8227 14.7682 67.8227 14.9506 67.8227H15.4352C18.2852 67.6403 20.8902 65.9131 23.2159 62.6925C23.3838 62.4466 23.4487 62.1447 23.3969 61.8514C23.345 61.5582 23.1805 61.2969 22.9385 61.1234C22.6965 60.9499 22.3962 60.878 22.1018 60.923C21.8075 60.968 21.5424 61.1265 21.3633 61.3644C19.4652 64.0093 17.4302 65.4229 15.3097 65.5654C12.3514 65.7592 10.077 63.3936 10.0428 63.3594C9.99236 63.3068 9.93701 63.259 9.87747 63.2169C8.09332 60.401 6.86778 56.5363 6.92478 51.1953C6.95898 48.1799 6.68537 45.4552 2.98595 40.1654C2.12522 38.957 1.89151 37.2127 3.28806 36.0955Z" fill="url(#paint3_linear_70_16472)"/>
<path d="M21.039 23.236L18.5195 23.6008L20.3436 25.3793L19.9104 27.8874L22.1619 26.7017L24.4135 27.8874L23.9803 25.3793L25.8044 23.6008L23.2849 23.236L22.1619 20.9559L21.039 23.236Z" fill="url(#paint4_linear_70_16472)"/>
<path d="M24.7036 9.52698L25.4732 11.2598L26.3852 9.58968L28.272 9.39587L26.9666 8.01643L27.3656 6.15817L25.6499 6.97329L24.0025 6.02136L24.2476 7.90812L22.834 9.17927L24.7036 9.52698Z" fill="url(#paint5_linear_70_16472)"/>
<path d="M9.53572 8.76323L8.16198 7.45789L7.95678 9.34465L6.28662 10.251L8.01948 11.0262L8.36719 12.8959L9.63833 11.4822L11.5251 11.733L10.5732 10.0857L11.394 8.37562L9.53572 8.76323Z" fill="url(#paint6_linear_70_16472)"/>
<defs>
<linearGradient id="paint0_linear_70_16472" x1="7.12133" y1="13.9712" x2="7.12133" y2="27.5146" gradientUnits="userSpaceOnUse">
<stop offset="0.0324314" stop-color="#E513C3"/>
<stop offset="1" stop-color="#F5ACA4"/>
</linearGradient>
<linearGradient id="paint1_linear_70_16472" x1="32.6786" y1="4.27258" x2="32.6786" y2="22.1928" gradientUnits="userSpaceOnUse">
<stop offset="0.0324314" stop-color="#E513C3"/>
<stop offset="1" stop-color="#F5ACA4"/>
</linearGradient>
<linearGradient id="paint2_linear_70_16472" x1="16.7461" y1="-1.54126" x2="16.7461" y2="15.9644" gradientUnits="userSpaceOnUse">
<stop offset="0.0324314" stop-color="#E513C3"/>
<stop offset="1" stop-color="#F5ACA4"/>
</linearGradient>
<linearGradient id="paint3_linear_70_16472" x1="23.8493" y1="18.5692" x2="23.8493" y2="73" gradientUnits="userSpaceOnUse">
<stop offset="0.0324314" stop-color="#E513C3"/>
<stop offset="1" stop-color="#F5ACA4"/>
</linearGradient>
<linearGradient id="paint4_linear_70_16472" x1="22.1619" y1="20.2867" x2="22.1619" y2="27.8874" gradientUnits="userSpaceOnUse">
<stop offset="0.0324314" stop-color="#E513C3"/>
<stop offset="1" stop-color="#F5ACA4"/>
</linearGradient>
<linearGradient id="paint5_linear_70_16472" x1="25.553" y1="5.51562" x2="25.553" y2="11.2598" gradientUnits="userSpaceOnUse">
<stop offset="0.0324314" stop-color="#E513C3"/>
<stop offset="1" stop-color="#F5ACA4"/>
</linearGradient>
<linearGradient id="paint6_linear_70_16472" x1="8.90586" y1="6.93288" x2="8.90586" y2="12.8959" gradientUnits="userSpaceOnUse">
<stop offset="0.0324314" stop-color="#E513C3"/>
<stop offset="1" stop-color="#F5ACA4"/>
</linearGradient>
</defs>
</svg>
