<svg width="22" height="22" viewBox="0 0 22 22" fill="none" xmlns="http://www.w3.org/2000/svg">
<g id="Icon- Outline">
<path id="Union" fill-rule="evenodd" clip-rule="evenodd" d="M6.41671 1.83334C6.92297 1.83334 7.33337 2.24374 7.33337 2.75V3.66667H14.6667V2.75C14.6667 2.24374 15.0771 1.83334 15.5834 1.83334C16.0896 1.83334 16.5 2.24374 16.5 2.75V3.66667H17.4167C18.9355 3.66667 20.1667 4.89789 20.1667 6.41667V17.4167C20.1667 18.9355 18.9355 20.1667 17.4167 20.1667H4.58337C3.06459 20.1667 1.83337 18.9355 1.83337 17.4167V6.41667C1.83337 4.89789 3.06459 3.66667 4.58337 3.66667H5.50004V2.75C5.50004 2.24374 5.91045 1.83334 6.41671 1.83334ZM14.6667 5.5V6.41667C14.6667 6.92293 15.0771 7.33334 15.5834 7.33334C16.0896 7.33334 16.5 6.92293 16.5 6.41667V5.5H17.4167C17.923 5.5 18.3334 5.91041 18.3334 6.41667V9.16667H3.66671V6.41667C3.66671 5.91041 4.07711 5.5 4.58337 5.5H5.50004V6.41667C5.50004 6.92293 5.91045 7.33334 6.41671 7.33334C6.92297 7.33334 7.33337 6.92293 7.33337 6.41667V5.5H14.6667ZM3.66671 11V17.4167C3.66671 17.9229 4.07711 18.3333 4.58337 18.3333H17.4167C17.923 18.3333 18.3334 17.9229 18.3334 17.4167V11H3.66671Z" fill="#F5ACA4"/>
</g>
</svg>
