<svg xmlns="http://www.w3.org/2000/svg" width="91" height="96" viewBox="0 0 91 96" fill="none">
  <path d="M60.8127 17.4794C56.4941 13.7565 51.0337 11.3241 45.0273 10.7781" stroke="#1A1D1F" stroke-width="3" stroke-miterlimit="10" stroke-linecap="round" stroke-linejoin="round"/>
  <path d="M20.3567 68.8813C16.4351 68.8813 13.2582 72.0583 13.2582 75.9798V82.4826H7.5V75.9798C7.5 72.4058 10.1557 69.4274 13.5808 68.9558C13.9035 68.9062 14.251 68.8813 14.5985 68.8813H20.3567Z" fill="#E5E2FF" fill-opacity="0.5"/>
  <path d="M45.0275 10.8028C30.632 12.1183 19.3638 24.2055 19.3638 38.9485V68.9059H14.5984C14.2509 68.9059 13.9035 68.9308 13.5808 68.9804V38.9485C13.5808 23.3368 26.2389 10.7035 41.8257 10.7035H42.3966C43.2901 10.6787 44.1588 10.7035 45.0275 10.8028Z" fill="#E5E2FF" fill-opacity="0.5"/>
  <path d="M13.2582 82.507H7.5V76.0042C7.5 72.4302 10.1557 69.4518 13.5808 68.9802C13.9035 68.9306 14.251 68.9058 14.5985 68.9058H20.3567" stroke="#1A1D1F" stroke-width="2.48198" stroke-miterlimit="10" stroke-linecap="round" stroke-linejoin="round"/>
  <path d="M76.4497 43.8809V68.8816" stroke="#1A1D1F" stroke-width="3" stroke-miterlimit="10" stroke-linecap="round" stroke-linejoin="round"/>
  <path d="M19.3638 68.8809H14.5984C14.2509 68.8809 13.9035 68.9057 13.5808 68.9553V38.9234C13.5808 23.3117 26.2389 10.6785 41.8257 10.6785H42.3966C43.2653 10.6785 44.134 10.7281 45.0027 10.8026" stroke="#1A1D1F" stroke-width="3" stroke-miterlimit="10" stroke-linecap="round" stroke-linejoin="round"/>
  <path d="M20.3568 68.8813H75.4071C79.3286 68.8813 82.5055 72.0583 82.5055 75.9798V82.4826H13.2583" stroke="#1A1D1F" stroke-width="3" stroke-miterlimit="10" stroke-linecap="round" stroke-linejoin="round"/>
  <path d="M39.0706 10.6787V5.34247C39.0706 3.67954 40.4356 2.31445 42.0986 2.31445H42.1482C43.8111 2.31445 45.1762 3.67954 45.1762 5.34247V10.6787" stroke="#1A1D1F" stroke-width="3" stroke-miterlimit="10" stroke-linecap="round" stroke-linejoin="round"/>
  <path d="M51.5309 84.5669C51.5309 89.7542 47.3116 93.9736 42.1242 93.9736C36.9369 93.9736 32.7175 89.7542 32.7175 84.5669C32.7175 83.8471 32.792 83.177 32.9409 82.5068H51.3076C51.4565 83.1522 51.5309 83.8471 51.5309 84.5669Z" stroke="#1A1D1F" stroke-width="3" stroke-miterlimit="10" stroke-linecap="round" stroke-linejoin="round"/>
  <path d="M20.2822 43.0928V58.8533" stroke="#1A1D1F" stroke-width="3" stroke-miterlimit="10" stroke-linecap="round" stroke-linejoin="round"/>
  <path d="M20.2822 36.094V37.7817" stroke="#1A1D1F" stroke-width="3" stroke-miterlimit="10" stroke-linecap="round" stroke-linejoin="round"/>
  <path d="M63.3699 30.4597C63.3947 28.623 63.5684 27.0097 64.2386 25.4709C64.8591 24.0562 65.7774 22.8896 67.2666 22.3188C69.6493 21.4004 72.5284 21.9713 74.0672 24.7511C74.7125 25.9176 75.0352 27.1835 75.1841 28.4989C75.333 29.6903 75.333 30.8816 75.1841 32.0481C74.9855 33.6614 74.5636 35.2002 73.546 36.5157C72.3795 38.0297 70.8158 38.675 68.9295 38.5509C66.7205 38.402 65.281 37.161 64.3627 35.2499C63.8166 34.1578 63.5684 32.9913 63.4692 31.7751C63.4195 31.3035 63.3947 30.7823 63.3699 30.4597ZM65.7774 30.2611C65.8022 31.4028 65.8767 32.5693 66.2241 33.6614C66.4723 34.4557 66.8695 35.2002 67.5148 35.7463C68.6317 36.6894 70.7165 36.6646 71.7838 35.0513C72.4787 34.0089 72.7518 32.8175 72.851 31.6014C72.9503 30.4597 72.9503 29.318 72.7518 28.1762C72.6028 27.1835 72.3298 26.2403 71.7341 25.4212C70.8406 24.1554 69.1777 23.7583 67.8623 24.5277C67.068 24.9993 66.5964 25.7439 66.2986 26.5878C65.8767 27.7791 65.7774 29.0201 65.7774 30.2611Z" fill="#1A1D1F"/>
  <path d="M55.8991 36.9376C54.807 34.8527 54.1865 32.47 54.1865 29.9384C54.1865 21.6486 60.9127 14.9473 69.1777 14.9473C77.4427 14.9473 84.1688 21.6734 84.1688 29.9384C84.1688 38.2034 77.4427 44.9296 69.1777 44.9296C66.2986 44.9296 63.618 44.1105 61.3098 42.7206" stroke="#1A1D1F" stroke-width="3" stroke-miterlimit="10" stroke-linecap="round" stroke-linejoin="round"/>
</svg>