


<svg xmlns="http://www.w3.org/2000/svg" width="25" height="24" viewBox="0 0 25 24" fill="none">
  <path d="M10.3128 10.6821C11.2493 12.3288 12.6185 13.698 14.2652 14.6344L15.1497 13.3961C15.4438 12.9845 15.9989 12.8573 16.4429 13.0998C17.8497 13.8683 19.4044 14.3353 21.0262 14.4637C21.5463 14.5049 21.9473 14.9389 21.9473 15.4606V19.9234C21.9473 20.4361 21.5595 20.8657 21.0495 20.9181C20.5196 20.9726 19.985 21 19.4473 21C10.8869 21 3.94727 14.0604 3.94727 5.5C3.94727 4.96227 3.97469 4.42771 4.02916 3.89776C4.08157 3.38775 4.51121 3 5.02392 3H9.48669C10.0084 3 10.4424 3.40104 10.4836 3.92109C10.6119 5.54288 11.079 7.09764 11.8475 8.50444C12.09 8.9484 11.9628 9.50354 11.5512 9.79757L10.3128 10.6821ZM7.79152 10.0252L9.69147 8.66809C9.15274 7.50514 8.78355 6.27183 8.59454 5H5.95634C5.9503 5.16632 5.94727 5.333 5.94727 5.5C5.94727 12.9558 11.9915 19 19.4473 19C19.6143 19 19.781 18.997 19.9473 18.9909V16.3527C18.6755 16.1637 17.4422 15.7945 16.2792 15.2558L14.9221 17.1558C14.3731 16.9425 13.8429 16.6915 13.3347 16.4061L13.2766 16.373C11.317 15.2587 9.68861 13.6303 8.57427 11.6707L8.54121 11.6126C8.25576 11.1044 8.00481 10.5742 7.79152 10.0252Z" fill="#6F767E"/>
</svg>