<svg width="320" height="250" viewBox="0 0 320 250" fill="none" xmlns="http://www.w3.org/2000/svg">
<g clip-path="url(#clip0_0_8)">
<path d="M266.102 107.642C266.102 107.642 258.578 111.826 260.744 116.59C262.909 121.355 293.661 117.457 293.661 117.457C293.661 117.457 291.496 110.96 287.597 109.661C283.699 108.361 266.102 107.642 266.102 107.642Z" fill="#FB9F14"/>
<path d="M263.169 108.757C264.681 107.774 266.362 107.079 268.126 106.707C274.013 105.281 280.175 105.473 285.961 107.263L285.855 107.177C288.32 108.478 290.484 110.283 292.208 112.474L263.169 108.757Z" fill="#CCCCCC"/>
<path d="M296.485 129.246C296.381 130.801 296.277 132.355 296.173 133.907C296.031 137.157 295.676 140.395 295.112 143.6C294.584 146.281 293.743 148.94 292.241 151.223C290.738 153.501 288.507 155.385 285.865 156.078C284.243 156.467 282.556 156.504 280.919 156.187C277.831 154.432 275.739 156.676 278.822 158.959C279.522 159.476 280.249 159.954 281.001 160.392L282.4 181.992L256.413 176.361L261.484 147.628C260.708 146.922 259.997 146.147 259.362 145.311C256.456 141.452 255.455 136.423 255.646 131.598C255.841 126.769 257.127 122.061 258.405 117.405C258.731 116.142 259.124 114.897 259.583 113.676C260.15 113.909 260.727 114.122 261.311 114.299C265.049 115.434 269.021 115.525 272.928 115.521C279.879 115.516 286.822 115.245 293.756 114.706C295.35 117.33 296.318 120.285 296.585 123.343C296.697 125.31 296.663 127.284 296.485 129.246Z" fill="#CCCCCC"/>
<path d="M185.338 187.88L225.345 191.432L225.774 191.471V20.7596C225.631 20.66 225.488 20.5604 225.345 20.4607C217.007 14.6286 207.988 9.83739 198.487 6.19366L196.443 34.39L196.257 36.9714L194.234 64.9338L193.61 73.5356L185.411 186.884L185.338 187.88Z" fill=" #FB9F14"/>
<path d="M86.3994 17.5805C86.1135 17.7624 85.8277 17.9443 85.5418 18.1349V191.471L86.3994 191.393L125.974 187.88L125.9 186.884L117.701 73.5356L117.077 64.9338L115.055 36.9714L114.869 34.39L112.725 4.82066C103.479 8.02549 94.643 12.3083 86.3994 17.5805Z" fill=" #FB9F14"/>
<path d="M85.5418 18.1349C84.9657 18.5074 84.3897 18.8885 83.8223 19.274V193.836C83.8223 198.197 86.4081 201.853 89.8644 202.784C90.4292 202.937 91.0118 203.014 91.5969 203.013H220.148C220.732 203.014 221.313 202.937 221.876 202.784C223.161 202.427 224.325 201.73 225.246 200.766C227.001 198.889 227.961 196.405 227.922 193.836V22.3102C227.212 21.7861 226.497 21.2664 225.774 20.7596C225.631 20.66 225.488 20.5604 225.345 20.4607V193.836C225.346 194.397 225.279 194.957 225.146 195.503C224.535 198.08 222.521 199.969 220.148 199.969H91.5969C88.7296 199.969 86.3994 197.218 86.3994 193.836V17.5805C86.1135 17.7624 85.8277 17.9443 85.5418 18.1349Z" fill=" #FB9F14"/>
<path d="M226.634 34.3917H85.1098V36.9727H226.634V34.3917Z" fill=" #FB9F14"/>
<path d="M183.289 1.46829C182.431 1.25606 181.574 1.05683 180.708 0.870583V70.9542H183.289V1.46829Z" fill=" #FB9F14"/>
<path d="M131.037 7.62939e-06C130.175 0.160263 129.313 0.324845 128.456 0.502425V70.9542H131.037V7.62939e-06Z" fill=" #FB9F14"/>
<path d="M57.3628 198.496C57.3622 199.977 57.646 201.445 58.1987 202.819C58.411 203.351 58.6645 203.867 58.9567 204.36C59.3342 205.004 59.7722 205.61 60.2647 206.171C61.3528 207.411 62.6931 208.404 64.1959 209.085C65.6987 209.765 67.3295 210.117 68.9792 210.117H238.465C241.545 210.117 244.5 208.893 246.679 206.714C248.857 204.536 250.081 201.581 250.081 198.5C250.081 195.419 248.857 192.465 246.679 190.286C244.5 188.108 241.545 186.884 238.465 186.884H68.9792C65.9 186.887 62.9478 188.111 60.77 190.288C58.5923 192.465 57.367 195.417 57.3628 198.496Z" fill=" #FB9F14"/>
<path d="M85.1098 73.5366L225.773 73.5366V64.9334L85.1098 64.9334V73.5366Z" fill=" #FB9F14"/>
<path d="M161.464 67.0842H149.419C149.419 66.4628 149.542 65.8475 149.78 65.2734C150.017 64.6993 150.366 64.1777 150.805 63.7383C151.245 63.2989 151.766 62.9504 152.34 62.7126C152.914 62.4748 153.53 62.3524 154.151 62.3524H156.732C157.987 62.3524 159.191 62.8509 160.078 63.7383C160.965 64.6257 161.464 65.8292 161.464 67.0842Z" fill=" #FB9F14"/>
<path d="M-1.52588e-05 205.131C3.76264 209.59 7.83236 213.78 12.1794 217.67H307.821C312.168 213.78 316.237 209.59 320 205.131H-1.52588e-05Z" fill="#FB9F14"/>
<path d="M80.1971 163.201V207.622H111.317V163.201C111.317 162.881 111.216 162.57 111.026 162.313C110.837 162.056 110.57 161.866 110.264 161.771C110.121 161.724 109.97 161.701 109.818 161.702H81.7C81.5029 161.702 81.3076 161.74 81.1254 161.815C80.9432 161.891 80.7775 162.001 80.6379 162.14C80.4984 162.279 80.3876 162.445 80.3119 162.627C80.2363 162.809 80.1973 163.004 80.1971 163.201ZM92.3418 178.464C92.35 177.588 92.7035 176.751 93.3257 176.135C93.9478 175.518 94.7881 175.173 95.6639 175.173C96.5397 175.173 97.38 175.518 98.0021 176.135C98.6242 176.751 98.9778 177.588 98.986 178.464V183.618C98.9815 184.496 98.6295 185.337 98.007 185.956C97.3844 186.576 96.542 186.923 95.6639 186.923C94.7858 186.923 93.9433 186.576 93.3208 185.956C92.6983 185.337 92.3463 184.496 92.3418 183.618V178.464Z" fill="#7B595E"/>
<path d="M80.1018 206.201V210.485C80.1025 210.707 80.1906 210.919 80.3471 211.077C80.5036 211.234 80.7158 211.323 80.9377 211.325H110.576C110.798 211.324 111.011 211.235 111.168 211.078C111.324 210.92 111.412 210.707 111.412 210.485V206.201H80.1018Z" fill="#FB9F14"/>
<path d="M31.2412 96.2746V177.381C31.242 178.415 31.6529 179.406 32.3838 180.137C33.1147 180.868 34.1057 181.279 35.1393 181.279H155.331C156.365 181.279 157.356 180.868 158.086 180.137C158.817 179.406 159.228 178.415 159.229 177.381V96.2746C159.227 95.2419 158.815 94.2523 158.084 93.5225C157.354 92.7927 156.364 92.3821 155.331 92.3808H35.1393C34.1066 92.3822 33.1165 92.7927 32.3859 93.5225C31.6552 94.2523 31.2436 95.2419 31.2412 96.2746Z" fill="#FB9F14"/>
<path d="M34.0608 97.2838V176.381C34.0617 176.933 34.2815 177.462 34.672 177.853C35.0625 178.243 35.5919 178.463 36.1441 178.464H154.33C154.883 178.463 155.412 178.243 155.803 177.853C156.193 177.462 156.413 176.933 156.414 176.381V97.2838C156.414 96.7309 156.194 96.2006 155.804 95.8092C155.413 95.4178 154.883 95.1973 154.33 95.1961H36.1441C35.5912 95.1973 35.0613 95.4178 34.6708 95.8092C34.2802 96.2006 34.0608 96.7309 34.0608 97.2838Z" fill="#FB9F14"/>
<path d="M58.1598 212.334C58.2801 212.485 58.433 212.607 58.607 212.69C58.781 212.773 58.9717 212.816 59.1646 212.815H129.478C129.67 212.815 129.86 212.772 130.033 212.689C130.207 212.606 130.36 212.486 130.481 212.336C130.602 212.187 130.689 212.012 130.734 211.826C130.779 211.639 130.782 211.444 130.743 211.256L129.651 206.071C129.606 205.86 129.508 205.663 129.368 205.499C129.227 205.335 129.047 205.208 128.845 205.131C128.699 205.074 128.543 205.045 128.386 205.045H60.2518C60.0946 205.045 59.9389 205.074 59.7926 205.131C59.5906 205.208 59.4111 205.335 59.2704 205.499C59.1297 205.663 59.0323 205.86 58.987 206.071L57.8956 211.256C57.8567 211.444 57.8603 211.638 57.906 211.825C57.9517 212.011 58.0384 212.185 58.1598 212.334Z" fill="#7B595E"/>
<path d="M125.933 207.278H127.675C127.792 207.278 127.887 207.183 127.887 207.066V206.19C127.887 206.073 127.792 205.979 127.675 205.979H125.933C125.816 205.979 125.721 206.073 125.721 206.19V207.066C125.721 207.183 125.816 207.278 125.933 207.278Z" fill="#FB9F14"/>
<path d="M121.602 207.278H123.344C123.461 207.278 123.556 207.183 123.556 207.066V206.19C123.556 206.073 123.461 205.979 123.344 205.979H121.602C121.485 205.979 121.39 206.073 121.39 206.19V207.066C121.39 207.183 121.485 207.278 121.602 207.278Z" fill="#FB9F14"/>
<path d="M117.27 207.278H119.013C119.13 207.278 119.224 207.183 119.224 207.066V206.19C119.224 206.073 119.13 205.979 119.013 205.979H117.27C117.154 205.979 117.059 206.073 117.059 206.19V207.066C117.059 207.183 117.154 207.278 117.27 207.278Z" fill="#FB9F14"/>
<path d="M112.939 207.278H114.682C114.799 207.278 114.893 207.183 114.893 207.066V206.19C114.893 206.073 114.799 205.979 114.682 205.979H112.939C112.822 205.979 112.728 206.073 112.728 206.19V207.066C112.728 207.183 112.822 207.278 112.939 207.278Z" fill="#FB9F14"/>
<path d="M108.608 207.278H110.351C110.467 207.278 110.562 207.183 110.562 207.066V206.19C110.562 206.073 110.467 205.979 110.351 205.979H108.608C108.491 205.979 108.396 206.073 108.396 206.19V207.066C108.396 207.183 108.491 207.278 108.608 207.278Z" fill="#FB9F14"/>
<path d="M104.277 207.278H106.019C106.136 207.278 106.231 207.183 106.231 207.066V206.19C106.231 206.073 106.136 205.979 106.019 205.979H104.277C104.16 205.979 104.065 206.073 104.065 206.19V207.066C104.065 207.183 104.16 207.278 104.277 207.278Z" fill="#FB9F14"/>
<path d="M99.9454 207.278H101.688C101.805 207.278 101.9 207.183 101.9 207.066V206.19C101.9 206.073 101.805 205.979 101.688 205.979H99.9454C99.8286 205.979 99.734 206.073 99.734 206.19V207.066C99.734 207.183 99.8286 207.278 99.9454 207.278Z" fill="#FB9F14"/>
<path d="M95.6142 207.278H97.3569C97.4737 207.278 97.5683 207.183 97.5683 207.066V206.19C97.5683 206.073 97.4737 205.979 97.3569 205.979H95.6142C95.4974 205.979 95.4027 206.073 95.4027 206.19V207.066C95.4027 207.183 95.4974 207.278 95.6142 207.278Z" fill="#FB9F14"/>
<path d="M91.2829 207.278H93.0257C93.1424 207.278 93.2371 207.183 93.2371 207.066V206.19C93.2371 206.073 93.1424 205.979 93.0257 205.979H91.2829C91.1662 205.979 91.0715 206.073 91.0715 206.19V207.066C91.0715 207.183 91.1662 207.278 91.2829 207.278Z" fill="#FB9F14"/>
<path d="M86.9517 207.278H88.6944C88.8112 207.278 88.9059 207.183 88.9059 207.066V206.19C88.9059 206.073 88.8112 205.979 88.6944 205.979H86.9517C86.8349 205.979 86.7403 206.073 86.7403 206.19V207.066C86.7403 207.183 86.8349 207.278 86.9517 207.278Z" fill="#FB9F14"/>
<path d="M82.6205 207.278H84.3632C84.48 207.278 84.5746 207.183 84.5746 207.066V206.19C84.5746 206.073 84.48 205.979 84.3632 205.979H82.6205C82.5037 205.979 82.409 206.073 82.409 206.19V207.066C82.409 207.183 82.5037 207.278 82.6205 207.278Z" fill="#FB9F14"/>
<path d="M78.2892 207.278H80.032C80.1487 207.278 80.2434 207.183 80.2434 207.066V206.19C80.2434 206.073 80.1487 205.979 80.032 205.979H78.2892C78.1725 205.979 78.0778 206.073 78.0778 206.19V207.066C78.0778 207.183 78.1725 207.278 78.2892 207.278Z" fill="#FB9F14"/>
<path d="M73.958 207.278H75.7007C75.8175 207.278 75.9122 207.183 75.9122 207.066V206.19C75.9122 206.073 75.8175 205.979 75.7007 205.979H73.958C73.8412 205.979 73.7466 206.073 73.7466 206.19V207.066C73.7466 207.183 73.8412 207.278 73.958 207.278Z" fill="#FB9F14"/>
<path d="M69.6268 207.278H71.3695C71.4863 207.278 71.5809 207.183 71.5809 207.066V206.19C71.5809 206.073 71.4863 205.979 71.3695 205.979H69.6268C69.51 205.979 69.4153 206.073 69.4153 206.19V207.066C69.4153 207.183 69.51 207.278 69.6268 207.278Z" fill="#FB9F14"/>
<path d="M65.2955 207.278H67.0383C67.155 207.278 67.2497 207.183 67.2497 207.066V206.19C67.2497 206.073 67.155 205.979 67.0383 205.979H65.2955C65.1788 205.979 65.0841 206.073 65.0841 206.19V207.066C65.0841 207.183 65.1788 207.278 65.2955 207.278Z" fill="#FB9F14"/>
<path d="M60.9643 207.278H62.707C62.8238 207.278 62.9185 207.183 62.9185 207.066V206.19C62.9185 206.073 62.8238 205.979 62.707 205.979H60.9643C60.8475 205.979 60.7529 206.073 60.7529 206.19V207.066C60.7529 207.183 60.8475 207.278 60.9643 207.278Z" fill="#FB9F14"/>
<path d="M125.984 209.444H127.727C127.843 209.444 127.938 209.349 127.938 209.232V208.356C127.938 208.239 127.843 208.144 127.727 208.144H125.984C125.867 208.144 125.773 208.239 125.773 208.356V209.232C125.773 209.349 125.867 209.444 125.984 209.444Z" fill="#FB9F14"/>
<path d="M121.653 209.444H123.395C123.512 209.444 123.607 209.349 123.607 209.232V208.356C123.607 208.239 123.512 208.144 123.395 208.144H121.653C121.536 208.144 121.441 208.239 121.441 208.356V209.232C121.441 209.349 121.536 209.444 121.653 209.444Z" fill="#FB9F14"/>
<path d="M117.321 209.444H119.064C119.181 209.444 119.276 209.349 119.276 209.232V208.356C119.276 208.239 119.181 208.144 119.064 208.144H117.321C117.205 208.144 117.11 208.239 117.11 208.356V209.232C117.11 209.349 117.205 209.444 117.321 209.444Z" fill="#FB9F14"/>
<path d="M112.99 209.444H114.733C114.85 209.444 114.944 209.349 114.944 209.232V208.356C114.944 208.239 114.85 208.144 114.733 208.144H112.99C112.873 208.144 112.779 208.239 112.779 208.356V209.232C112.779 209.349 112.873 209.444 112.99 209.444Z" fill="#FB9F14"/>
<path d="M108.659 209.444H110.402C110.519 209.444 110.613 209.349 110.613 209.232V208.356C110.613 208.239 110.519 208.144 110.402 208.144H108.659C108.542 208.144 108.448 208.239 108.448 208.356V209.232C108.448 209.349 108.542 209.444 108.659 209.444Z" fill="#FB9F14"/>
<path d="M104.328 209.444H106.071C106.187 209.444 106.282 209.349 106.282 209.232V208.356C106.282 208.239 106.187 208.144 106.071 208.144H104.328C104.211 208.144 104.116 208.239 104.116 208.356V209.232C104.116 209.349 104.211 209.444 104.328 209.444Z" fill="#FB9F14"/>
<path d="M99.9966 209.444H101.739C101.856 209.444 101.951 209.349 101.951 209.232V208.356C101.951 208.239 101.856 208.144 101.739 208.144H99.9966C99.8798 208.144 99.7851 208.239 99.7851 208.356V209.232C99.7851 209.349 99.8798 209.444 99.9966 209.444Z" fill="#FB9F14"/>
<path d="M95.6653 209.444H97.4081C97.5248 209.444 97.6195 209.349 97.6195 209.232V208.356C97.6195 208.239 97.5248 208.144 97.4081 208.144H95.6653C95.5486 208.144 95.4539 208.239 95.4539 208.356V209.232C95.4539 209.349 95.5486 209.444 95.6653 209.444Z" fill="#FB9F14"/>
<path d="M91.3341 209.444H93.0768C93.1936 209.444 93.2883 209.349 93.2883 209.232V208.356C93.2883 208.239 93.1936 208.144 93.0768 208.144H91.3341C91.2173 208.144 91.1227 208.239 91.1227 208.356V209.232C91.1227 209.349 91.2173 209.444 91.3341 209.444Z" fill="#FB9F14"/>
<path d="M87.0029 209.444H88.7456C88.8624 209.444 88.9571 209.349 88.9571 209.232V208.356C88.9571 208.239 88.8624 208.144 88.7456 208.144H87.0029C86.8861 208.144 86.7914 208.239 86.7914 208.356V209.232C86.7914 209.349 86.8861 209.444 87.0029 209.444Z" fill="#FB9F14"/>
<path d="M82.6717 209.444H84.4144C84.5312 209.444 84.6258 209.349 84.6258 209.232V208.356C84.6258 208.239 84.5312 208.144 84.4144 208.144H82.6717C82.5549 208.144 82.4602 208.239 82.4602 208.356V209.232C82.4602 209.349 82.5549 209.444 82.6717 209.444Z" fill="#FB9F14"/>
<path d="M78.3404 209.444H80.0831C80.1999 209.444 80.2946 209.349 80.2946 209.232V208.356C80.2946 208.239 80.1999 208.144 80.0831 208.144H78.3404C78.2236 208.144 78.129 208.239 78.129 208.356V209.232C78.129 209.349 78.2236 209.444 78.3404 209.444Z" fill="#FB9F14"/>
<path d="M74.0092 209.444H75.7519C75.8687 209.444 75.9634 209.349 75.9634 209.232V208.356C75.9634 208.239 75.8687 208.144 75.7519 208.144H74.0092C73.8924 208.144 73.7977 208.239 73.7977 208.356V209.232C73.7977 209.349 73.8924 209.444 74.0092 209.444Z" fill="#FB9F14"/>
<path d="M69.678 209.444H71.4207C71.5375 209.444 71.6321 209.349 71.6321 209.232V208.356C71.6321 208.239 71.5375 208.144 71.4207 208.144H69.678C69.5612 208.144 69.4665 208.239 69.4665 208.356V209.232C69.4665 209.349 69.5612 209.444 69.678 209.444Z" fill="#FB9F14"/>
<path d="M65.3467 209.444H67.0895C67.2062 209.444 67.3009 209.349 67.3009 209.232V208.356C67.3009 208.239 67.2062 208.144 67.0895 208.144H65.3467C65.23 208.144 65.1353 208.239 65.1353 208.356V209.232C65.1353 209.349 65.23 209.444 65.3467 209.444Z" fill="#FB9F14"/>
<path d="M61.0155 209.444H62.7582C62.875 209.444 62.9697 209.349 62.9697 209.232V208.356C62.9697 208.239 62.875 208.144 62.7582 208.144H61.0155C60.8987 208.144 60.804 208.239 60.804 208.356V209.232C60.804 209.349 60.8987 209.444 61.0155 209.444Z" fill="#FB9F14"/>
<path d="M90.0347 212.042H106.937C107.054 212.042 107.148 211.948 107.148 211.831V210.954C107.148 210.838 107.054 210.743 106.937 210.743H90.0347C89.918 210.743 89.8233 210.838 89.8233 210.954V211.831C89.8233 211.948 89.918 212.042 90.0347 212.042Z" fill="#FB9F14"/>
<path d="M42.083 106.092H152.67C152.784 106.09 152.894 106.042 152.974 105.96C153.055 105.878 153.1 105.767 153.1 105.652C153.1 105.537 153.055 105.427 152.974 105.345C152.894 105.263 152.784 105.215 152.67 105.213H42.083C41.9681 105.215 41.8587 105.263 41.7783 105.345C41.6978 105.427 41.6528 105.537 41.6528 105.652C41.6528 105.767 41.6978 105.878 41.7783 105.96C41.8587 106.042 41.9681 106.09 42.083 106.092Z" fill="#FB9F14"/>
<path d="M145.142 102.967C146.565 102.967 147.719 101.788 147.719 100.332C147.719 98.8774 146.565 97.6978 145.142 97.6978C143.718 97.6978 142.564 98.8774 142.564 100.332C142.564 101.788 143.718 102.967 145.142 102.967Z" fill="#FB9F14"/>
<path d="M136.238 102.967C137.662 102.967 138.816 101.788 138.816 100.332C138.816 98.8774 137.662 97.6978 136.238 97.6978C134.815 97.6978 133.661 98.8774 133.661 100.332C133.661 101.788 134.815 102.967 136.238 102.967Z" fill="#FB9F14"/>
<path d="M127.335 102.967C128.759 102.967 129.912 101.788 129.912 100.332C129.912 98.8774 128.759 97.6978 127.335 97.6978C125.912 97.6978 124.758 98.8774 124.758 100.332C124.758 101.788 125.912 102.967 127.335 102.967Z" fill="#FB9F14"/>
<path d="M46.9722 98.83C46.9719 98.8923 46.9839 98.9541 47.0074 99.0117C47.031 99.0694 47.0657 99.1218 47.1095 99.1661C47.1534 99.2103 47.2055 99.2455 47.2629 99.2696C47.3204 99.2937 47.382 99.3062 47.4443 99.3065H53.7679C53.8929 99.3036 54.0118 99.2519 54.0992 99.1624C54.1866 99.073 54.2355 98.9529 54.2355 98.8279C54.2355 98.7028 54.1866 98.5828 54.0992 98.4933C54.0118 98.4039 53.8929 98.3522 53.7679 98.3493H47.4443C47.3181 98.3508 47.1976 98.4022 47.1091 98.4923C47.0206 98.5824 46.9714 98.7038 46.9722 98.83Z" fill="#FB9F14"/>
<path d="M46.9722 100.628C46.9719 100.69 46.9839 100.752 47.0074 100.809C47.031 100.867 47.0657 100.919 47.1095 100.964C47.1534 101.008 47.2055 101.043 47.2629 101.067C47.3204 101.091 47.382 101.104 47.4443 101.104H53.7679C53.893 101.101 54.012 101.05 54.0995 100.96C54.187 100.871 54.236 100.75 54.236 100.625C54.236 100.5 54.187 100.38 54.0995 100.291C54.012 100.201 53.893 100.149 53.7679 100.147H47.4443C47.3181 100.148 47.1976 100.2 47.1091 100.29C47.0206 100.38 46.9714 100.501 46.9722 100.628Z" fill="#FB9F14"/>
<path d="M46.9722 102.421C46.9714 102.547 47.0206 102.668 47.1091 102.758C47.1976 102.848 47.3181 102.9 47.4443 102.901H53.7679C53.8929 102.898 54.0118 102.847 54.0992 102.757C54.1866 102.668 54.2355 102.548 54.2355 102.423C54.2355 102.298 54.1866 102.178 54.0992 102.088C54.0118 101.999 53.8929 101.947 53.7679 101.944H47.4443C47.382 101.944 47.3204 101.957 47.2629 101.981C47.2055 102.005 47.1534 102.04 47.1095 102.085C47.0657 102.129 47.031 102.181 47.0074 102.239C46.9839 102.297 46.9719 102.358 46.9722 102.421Z" fill="#FB9F14"/>
<path d="M48.9265 116.312H46.6543C45.9653 116.312 45.4069 116.871 45.4069 117.56C45.4069 118.249 45.9653 118.807 46.6543 118.807H48.9265C49.6154 118.807 50.1739 118.249 50.1739 117.56C50.1739 116.871 49.6154 116.312 48.9265 116.312Z" fill=" #FB9F14"/>
<path d="M74.9139 116.312H72.6416C71.9527 116.312 71.3943 116.871 71.3943 117.56C71.3943 118.249 71.9527 118.807 72.6416 118.807H74.9139C75.6028 118.807 76.1613 118.249 76.1613 117.56C76.1613 116.871 75.6028 116.312 74.9139 116.312Z" fill=" #FB9F14"/>
<path d="M82.277 116.312H80.0047C79.3158 116.312 78.7574 116.871 78.7574 117.56C78.7574 118.249 79.3158 118.807 80.0047 118.807H82.277C82.9659 118.807 83.5244 118.249 83.5244 117.56C83.5244 116.871 82.9659 116.312 82.277 116.312Z" fill=" #FB9F14"/>
<path d="M67.8452 116.104H53.7229C53.034 116.104 52.4755 116.663 52.4755 117.352C52.4755 118.041 53.034 118.599 53.7229 118.599H67.8452C68.5341 118.599 69.0926 118.041 69.0926 117.352C69.0926 116.663 68.5341 116.104 67.8452 116.104Z" fill=" #FB9F14"/>
<path d="M102.495 116.104H88.3728C87.6838 116.104 87.1254 116.663 87.1254 117.352C87.1254 118.041 87.6838 118.599 88.3728 118.599H102.495C103.184 118.599 103.742 118.041 103.742 117.352C103.742 116.663 103.184 116.104 102.495 116.104Z" fill=" #FB9F14"/>
<path d="M55.8565 121.943H53.5842C52.8953 121.943 52.3369 122.501 52.3369 123.19C52.3369 123.879 52.8953 124.438 53.5842 124.438H55.8565C56.5454 124.438 57.1038 123.879 57.1038 123.19C57.1038 122.501 56.5454 121.943 55.8565 121.943Z" fill=" #FB9F14"/>
<path d="M81.8439 121.943H79.5716C78.8827 121.943 78.3242 122.501 78.3242 123.19C78.3242 123.879 78.8827 124.438 79.5716 124.438H81.8439C82.5328 124.438 83.0912 123.879 83.0912 123.19C83.0912 122.501 82.5328 121.943 81.8439 121.943Z" fill=" #FB9F14"/>
<path d="M89.2069 121.943H86.9347C86.2458 121.943 85.6873 122.501 85.6873 123.19C85.6873 123.879 86.2458 124.438 86.9347 124.438H89.2069C89.8959 124.438 90.4543 123.879 90.4543 123.19C90.4543 122.501 89.8959 121.943 89.2069 121.943Z" fill=" #FB9F14"/>
<path d="M74.7752 121.735H60.6529C59.964 121.735 59.4055 122.293 59.4055 122.982C59.4055 123.671 59.964 124.23 60.6529 124.23H74.7752C75.4641 124.23 76.0226 123.671 76.0226 122.982C76.0226 122.293 75.4641 121.735 74.7752 121.735Z" fill=" #FB9F14"/>
<path d="M109.425 121.735H95.3027C94.6138 121.735 94.0553 122.293 94.0553 122.982C94.0553 123.671 94.6138 124.23 95.3027 124.23H109.425C110.114 124.23 110.672 123.671 110.672 122.982C110.672 122.293 110.114 121.735 109.425 121.735Z" fill=" #FB9F14"/>
<path d="M62.7864 127.574H60.5142C59.8253 127.574 59.2668 128.132 59.2668 128.821C59.2668 129.51 59.8253 130.068 60.5142 130.068H62.7864C63.4753 130.068 64.0338 129.51 64.0338 128.821C64.0338 128.132 63.4753 127.574 62.7864 127.574Z" fill=" #FB9F14"/>
<path d="M88.7738 127.574H86.5016C85.8127 127.574 85.2542 128.132 85.2542 128.821C85.2542 129.51 85.8127 130.068 86.5016 130.068H88.7738C89.4627 130.068 90.0212 129.51 90.0212 128.821C90.0212 128.132 89.4627 127.574 88.7738 127.574Z" fill=" #FB9F14"/>
<path d="M96.1369 127.574H93.8647C93.1758 127.574 92.6173 128.132 92.6173 128.821C92.6173 129.51 93.1758 130.068 93.8647 130.068H96.1369C96.8258 130.068 97.3843 129.51 97.3843 128.821C97.3843 128.132 96.8258 127.574 96.1369 127.574Z" fill=" #FB9F14"/>
<path d="M81.7052 127.366H67.5828C66.8939 127.366 66.3355 127.924 66.3355 128.613C66.3355 129.302 66.8939 129.86 67.5828 129.86H81.7052C82.3941 129.86 82.9525 129.302 82.9525 128.613C82.9525 127.924 82.3941 127.366 81.7052 127.366Z" fill=" #FB9F14"/>
<path d="M116.355 127.366H102.233C101.544 127.366 100.985 127.924 100.985 128.613C100.985 129.302 101.544 129.86 102.233 129.86H116.355C117.044 129.86 117.602 129.302 117.602 128.613C117.602 127.924 117.044 127.366 116.355 127.366Z" fill=" #FB9F14"/>
<path d="M69.7164 133.204H67.4442C66.7553 133.204 66.1968 133.763 66.1968 134.451C66.1968 135.14 66.7553 135.699 67.4442 135.699H69.7164C70.4053 135.699 70.9638 135.14 70.9638 134.451C70.9638 133.763 70.4053 133.204 69.7164 133.204Z" fill=" #FB9F14"/>
<path d="M95.7038 133.204H93.4316C92.7426 133.204 92.1842 133.763 92.1842 134.451C92.1842 135.14 92.7426 135.699 93.4316 135.699H95.7038C96.3927 135.699 96.9512 135.14 96.9512 134.451C96.9512 133.763 96.3927 133.204 95.7038 133.204Z" fill=" #FB9F14"/>
<path d="M103.067 133.204H100.795C100.106 133.204 99.5473 133.763 99.5473 134.451C99.5473 135.14 100.106 135.699 100.795 135.699H103.067C103.756 135.699 104.314 135.14 104.314 134.451C104.314 133.763 103.756 133.204 103.067 133.204Z" fill=" #FB9F14"/>
<path d="M88.6351 132.996H74.5128C73.8239 132.996 73.2654 133.555 73.2654 134.244C73.2654 134.932 73.8239 135.491 74.5128 135.491H88.6351C89.324 135.491 89.8825 134.932 89.8825 134.244C89.8825 133.555 89.324 132.996 88.6351 132.996Z" fill=" #FB9F14"/>
<path d="M74.9139 155.594H72.6416C71.9527 155.594 71.3943 156.152 71.3943 156.841C71.3943 157.53 71.9527 158.089 72.6416 158.089H74.9139C75.6028 158.089 76.1613 157.53 76.1613 156.841C76.1613 156.152 75.6028 155.594 74.9139 155.594Z" fill=" #FB9F14"/>
<path d="M82.277 155.594H80.0047C79.3158 155.594 78.7574 156.152 78.7574 156.841C78.7574 157.53 79.3158 158.089 80.0047 158.089H82.277C82.9659 158.089 83.5244 157.53 83.5244 156.841C83.5244 156.152 82.9659 155.594 82.277 155.594Z" fill=" #FB9F14"/>
<path d="M102.495 155.802H88.3728C87.6838 155.802 87.1254 156.36 87.1254 157.049C87.1254 157.738 87.6838 158.296 88.3728 158.296H102.495C103.184 158.296 103.742 157.738 103.742 157.049C103.742 156.36 103.184 155.802 102.495 155.802Z" fill=" #FB9F14"/>
<path d="M48.9265 155.594H46.6543C45.9653 155.594 45.4069 156.152 45.4069 156.841C45.4069 157.53 45.9653 158.089 46.6543 158.089H48.9265C49.6154 158.089 50.1739 157.53 50.1739 156.841C50.1739 156.152 49.6154 155.594 48.9265 155.594Z" fill=" #FB9F14"/>
<path d="M67.8452 155.802H53.7229C53.034 155.802 52.4755 156.36 52.4755 157.049C52.4755 157.738 53.034 158.296 53.7229 158.296H67.8452C68.5341 158.296 69.0926 157.738 69.0926 157.049C69.0926 156.36 68.5341 155.802 67.8452 155.802Z" fill=" #FB9F14"/>
<path d="M55.8565 149.963H53.5842C52.8953 149.963 52.3369 150.522 52.3369 151.211C52.3369 151.899 52.8953 152.458 53.5842 152.458H55.8565C56.5454 152.458 57.1038 151.899 57.1038 151.211C57.1038 150.522 56.5454 149.963 55.8565 149.963Z" fill=" #FB9F14"/>
<path d="M81.8439 149.963H79.5716C78.8827 149.963 78.3242 150.522 78.3242 151.211C78.3242 151.899 78.8827 152.458 79.5716 152.458H81.8439C82.5328 152.458 83.0912 151.899 83.0912 151.211C83.0912 150.522 82.5328 149.963 81.8439 149.963Z" fill=" #FB9F14"/>
<path d="M89.2069 149.963H86.9347C86.2458 149.963 85.6873 150.522 85.6873 151.211C85.6873 151.899 86.2458 152.458 86.9347 152.458H89.2069C89.8959 152.458 90.4543 151.899 90.4543 151.211C90.4543 150.522 89.8959 149.963 89.2069 149.963Z" fill=" #FB9F14"/>
<path d="M74.7752 150.171H60.6529C59.964 150.171 59.4055 150.73 59.4055 151.419C59.4055 152.107 59.964 152.666 60.6529 152.666H74.7752C75.4641 152.666 76.0226 152.107 76.0226 151.419C76.0226 150.73 75.4641 150.171 74.7752 150.171Z" fill=" #FB9F14"/>
<path d="M62.7864 144.333H60.5142C59.8253 144.333 59.2668 144.891 59.2668 145.58C59.2668 146.269 59.8253 146.827 60.5142 146.827H62.7864C63.4753 146.827 64.0338 146.269 64.0338 145.58C64.0338 144.891 63.4753 144.333 62.7864 144.333Z" fill=" #FB9F14"/>
<path d="M88.7738 144.333H86.5016C85.8127 144.333 85.2542 144.891 85.2542 145.58C85.2542 146.269 85.8127 146.827 86.5016 146.827H88.7738C89.4627 146.827 90.0212 146.269 90.0212 145.58C90.0212 144.891 89.4627 144.333 88.7738 144.333Z" fill=" #FB9F14"/>
<path d="M96.1369 144.333H93.8647C93.1758 144.333 92.6173 144.891 92.6173 145.58C92.6173 146.269 93.1758 146.827 93.8647 146.827H96.1369C96.8258 146.827 97.3843 146.269 97.3843 145.58C97.3843 144.891 96.8258 144.333 96.1369 144.333Z" fill=" #FB9F14"/>
<path d="M81.7052 144.541H67.5828C66.8939 144.541 66.3355 145.099 66.3355 145.788C66.3355 146.477 66.8939 147.035 67.5828 147.035H81.7052C82.3941 147.035 82.9525 146.477 82.9525 145.788C82.9525 145.099 82.3941 144.541 81.7052 144.541Z" fill=" #FB9F14"/>
<path d="M69.7164 138.702H67.4442C66.7553 138.702 66.1968 139.26 66.1968 139.949C66.1968 140.638 66.7553 141.197 67.4442 141.197H69.7164C70.4053 141.197 70.9638 140.638 70.9638 139.949C70.9638 139.26 70.4053 138.702 69.7164 138.702Z" fill=" #FB9F14"/>
<path d="M95.7038 138.702H93.4316C92.7426 138.702 92.1842 139.26 92.1842 139.949C92.1842 140.638 92.7426 141.197 93.4316 141.197H95.7038C96.3927 141.197 96.9512 140.638 96.9512 139.949C96.9512 139.26 96.3927 138.702 95.7038 138.702Z" fill=" #FB9F14"/>
<path d="M103.067 138.702H100.795C100.106 138.702 99.5473 139.26 99.5473 139.949C99.5473 140.638 100.106 141.197 100.795 141.197H103.067C103.756 141.197 104.314 140.638 104.314 139.949C104.314 139.26 103.756 138.702 103.067 138.702Z" fill=" #FB9F14"/>
<path d="M88.6351 138.91H74.5128C73.8239 138.91 73.2654 139.468 73.2654 140.157C73.2654 140.846 73.8239 141.405 74.5128 141.405H88.6351C89.324 141.405 89.8825 140.846 89.8825 140.157C89.8825 139.468 89.324 138.91 88.6351 138.91Z" fill=" #FB9F14"/>
<path d="M40.7569 236.936C41.0211 237.07 41.2896 237.204 41.5538 237.334C48.3972 240.756 53.8718 242.701 61.3605 244.832C61.9929 237.772 62.6036 225.363 63.197 217.67C63.3529 215.674 63.5088 213.997 63.6604 212.815C63.6987 212.186 63.827 211.566 64.0416 210.974L64.0156 212.815L63.9506 217.67L63.5738 245.438C72.8892 247.903 82.4584 249.282 92.0906 249.548C92.593 249.561 93.0868 249.57 93.5632 249.579C93.7322 249.583 93.8968 249.587 94.0613 249.587C94.6027 249.592 95.1398 249.596 95.6812 249.596C105.832 249.603 115.946 248.377 125.801 245.945C125.588 238.958 125.376 226.688 125.173 217.67C125.129 215.908 125.09 214.266 125.047 212.815C124.965 209.714 124.878 207.479 124.796 206.73C124.869 206.862 124.925 207.003 124.965 207.15C125.366 209.017 125.639 210.91 125.783 212.815C125.935 214.266 126.086 215.908 126.238 217.67C127.044 227.039 127.884 239.777 128.75 245.178C133.906 243.77 138.966 242.03 143.896 239.968C146.495 238.885 149.048 237.717 151.554 236.464C151.078 233.345 150.58 229.85 150.068 226.225C149.67 223.414 149.259 220.525 148.838 217.67C148.189 213.261 138.534 182.449 137.924 181.279C137.4 180.279 136.902 179.335 136.429 178.464C135.286 176.35 134.316 174.666 133.597 173.6C130.591 169.04 126.116 165.646 120.915 163.98L120.785 163.946L120.694 163.985L111.837 161.265L110.542 160.866L109.671 160.598L106.605 158.263L104.937 156.994L103.373 155.803L100.316 153.477L81.3838 154.642L77.698 163.517L69.4426 166.536L69.2997 166.471L69.1741 166.419L69.0442 166.454C63.844 168.121 59.3695 171.515 56.3623 176.073C55.9552 176.684 55.4614 177.49 54.9027 178.464C54.4263 179.291 53.9065 180.236 53.3435 181.279C52.5422 182.765 51.6673 184.441 50.7404 186.256C50.5368 186.654 50.3289 187.062 50.121 187.473C49.7356 188.235 49.3443 189.013 48.9473 189.808C48.0247 191.648 47.0719 193.571 46.119 195.525C45.2917 197.218 44.4558 200.701 43.6329 205.131C42.9529 208.813 42.2772 213.153 41.6232 217.67C40.7656 223.526 41.6795 230.538 40.9042 235.926C40.8565 236.269 40.8045 236.602 40.7569 236.936Z" fill="#FB9F14"/>
<path opacity="0.2" d="M131.492 205.112L127.812 190.909L124.562 203.165L131.492 205.112Z" fill="#FFFFFF"/>
<path d="M33.5584 195.858C34.8751 213.997 33.5107 221.984 40.7785 236.94C47.3912 240.177 54.2791 242.818 61.3605 244.832C62.0969 245.039 62.8346 245.242 63.5738 245.438C72.8892 247.903 82.4584 249.282 92.0906 249.548C92.593 249.561 93.0868 249.57 93.5632 249.579C93.7322 249.583 93.8968 249.587 94.0613 249.587C94.6027 249.591 95.1398 249.596 95.6812 249.596C105.832 249.603 115.946 248.377 125.801 245.945C126.788 245.702 127.771 245.447 128.75 245.178C133.906 243.77 138.966 242.03 143.896 239.968C146.495 238.885 149.048 237.717 151.554 236.464C152.121 236.178 152.689 235.892 153.248 235.597C156.119 230.547 157.752 224.405 157.787 217.025C155.799 204.308 37.9502 184.892 33.5584 195.858Z" fill="#7B595E"/>
<path opacity="0.2" d="M33.5618 198.965C33.4945 197.842 33.4193 196.682 33.3317 195.474C37.7235 184.507 155.572 203.924 157.56 216.641C157.555 217.806 157.505 218.938 157.421 220.043C152.606 207.491 40.6488 189.037 33.5618 198.965Z" fill="#FFFFFF"/>
<path d="M6.85603 204.948C7.04685 205.503 7.40883 205.984 7.88998 206.321C8.37114 206.658 8.94672 206.834 9.53408 206.824L21.0083 206.528C21.6 206.517 22.172 206.314 22.6389 205.951C23.1058 205.587 23.4426 205.082 23.5987 204.511L25.2225 187.149C25.7986 187.409 26.4257 187.538 27.058 187.526C28.167 187.497 29.2192 187.029 29.9834 186.225C30.7476 185.421 31.1613 184.346 31.1334 183.238C31.1056 182.129 30.6386 181.076 29.835 180.311C29.0314 179.547 27.957 179.132 26.848 179.159C26.5952 179.158 26.3432 179.185 26.096 179.237C25.8272 178.947 25.5005 178.715 25.1369 178.558C24.7733 178.402 24.3809 178.323 23.9849 178.327L6.33495 178.782C6.18853 178.788 6.04287 178.806 5.89958 178.836C5.51251 178.909 5.14539 179.063 4.82293 179.289C4.50048 179.515 4.23016 179.807 4.03017 180.146C3.83019 180.485 3.70518 180.863 3.66356 181.255C3.62194 181.646 3.66467 182.042 3.78889 182.416L6.85603 204.948ZM25.5555 185.97L26.7109 181.832C26.8423 181.354 26.8453 180.85 26.7197 180.37C26.7758 180.37 26.8252 180.344 26.8813 180.344C27.6735 180.327 28.4399 180.626 29.0124 181.174C29.5849 181.721 29.9169 182.474 29.9354 183.266C29.954 184.058 29.6576 184.825 29.1114 185.399C28.5651 185.973 27.8135 186.307 27.0214 186.328C26.5092 186.344 26.0024 186.22 25.5555 185.97Z" fill="#7B595E"/>
<path d="M5.8996 178.836C6.27563 180.986 10.5033 182.498 15.5868 182.235C20.2613 182.02 24.0835 180.378 24.7838 178.433C24.5246 178.356 24.2551 178.32 23.985 178.327L6.33497 178.782C6.18855 178.788 6.04289 178.806 5.8996 178.836Z" fill="#FB9F14"/>
<path d="M16.5184 195.407C16.5417 195.401 16.5638 195.391 16.5838 195.378L19.0756 193.747C19.1057 193.727 19.1305 193.701 19.1476 193.669C19.1648 193.637 19.1738 193.602 19.1738 193.566C19.1738 193.53 19.1648 193.495 19.1477 193.463C19.1306 193.431 19.1059 193.404 19.0758 193.385L16.4858 191.688C16.462 191.673 16.4354 191.662 16.4074 191.656C16.3794 191.651 16.3506 191.651 16.3227 191.657C16.2948 191.663 16.2683 191.674 16.2447 191.69C16.2211 191.706 16.2009 191.726 16.1853 191.75C16.1697 191.774 16.1589 191.801 16.1537 191.829C16.1484 191.857 16.1487 191.886 16.1545 191.913C16.1604 191.941 16.1717 191.968 16.1878 191.991C16.204 192.015 16.2246 192.035 16.2485 192.05L18.5617 193.566L16.3468 195.016C16.3039 195.044 16.2723 195.086 16.2577 195.135C16.2431 195.184 16.2464 195.237 16.267 195.284C16.2876 195.331 16.3241 195.369 16.3702 195.391C16.4162 195.414 16.4688 195.419 16.5184 195.407Z" fill="#FB9F14"/>
<path d="M12.5827 195.588C12.6246 195.578 12.6623 195.555 12.691 195.523C12.7198 195.491 12.7383 195.451 12.7441 195.408C12.75 195.365 12.743 195.322 12.7239 195.283C12.7049 195.244 12.6748 195.212 12.6373 195.19L10.3405 193.874L12.5605 192.225C12.5833 192.208 12.6025 192.186 12.6171 192.162C12.6317 192.138 12.6414 192.111 12.6455 192.082C12.6496 192.054 12.6482 192.026 12.6413 191.998C12.6344 191.971 12.6221 191.945 12.6051 191.922C12.5882 191.899 12.5669 191.88 12.5425 191.865C12.5181 191.851 12.4911 191.841 12.463 191.837C12.4348 191.833 12.4062 191.834 12.3786 191.841C12.3511 191.848 12.3252 191.86 12.3023 191.877L9.81681 193.723C9.78792 193.745 9.76483 193.773 9.74961 193.806C9.7344 193.838 9.72754 193.874 9.72965 193.91C9.73177 193.946 9.74279 193.981 9.76173 194.011C9.78066 194.042 9.80691 194.067 9.83811 194.085L12.4218 195.566C12.4705 195.594 12.5283 195.602 12.5827 195.588Z" fill="#FB9F14"/>
<path d="M16.2706 196.836C16.2915 196.831 16.3115 196.822 16.3299 196.811C16.3542 196.796 16.3754 196.777 16.3922 196.754C16.409 196.731 16.4212 196.705 16.4279 196.677C16.4346 196.65 16.4358 196.621 16.4315 196.593C16.4271 196.565 16.4173 196.538 16.4025 196.513L12.8701 190.706C12.8401 190.657 12.792 190.622 12.7363 190.609C12.6805 190.595 12.6218 190.605 12.5729 190.634C12.5239 190.664 12.4888 190.712 12.4752 190.768C12.4615 190.824 12.4705 190.882 12.5001 190.931L16.0324 196.739C16.0565 196.778 16.0926 196.809 16.1355 196.827C16.1784 196.844 16.2257 196.847 16.2706 196.836Z" fill="#FB9F14"/>
<path d="M290.629 172.463H252.081V206.247H290.629V172.463Z" fill="#FB9F14"/>
<path d="M296.343 125.275C295.628 129.51 296.256 133.863 298.138 137.724C298.835 139.144 299.697 140.854 298.849 142.19C298.611 142.523 298.301 142.799 297.943 142.998C297.584 143.197 297.186 143.313 296.777 143.338C295.958 143.381 295.139 143.275 294.359 143.025" fill="#CCCCCC"/>
<path d="M262.476 112.259C263.194 112.259 263.776 111.774 263.776 111.176C263.776 110.578 263.194 110.094 262.476 110.094C261.759 110.094 261.177 110.578 261.177 111.176C261.177 111.774 261.759 112.259 262.476 112.259Z" fill="#FB9F14"/>
<path d="M267.241 112.692C267.958 112.692 268.54 112.208 268.54 111.61C268.54 111.012 267.958 110.527 267.241 110.527C266.523 110.527 265.941 111.012 265.941 111.61C265.941 112.208 266.523 112.692 267.241 112.692Z" fill="#FB9F14"/>
<path d="M272.005 114.858C272.723 114.858 273.304 114.373 273.304 113.775C273.304 113.177 272.723 112.692 272.005 112.692C271.287 112.692 270.706 113.177 270.706 113.775C270.706 114.373 271.287 114.858 272.005 114.858Z" fill="#FB9F14"/>
<path d="M277.636 113.559C278.353 113.559 278.935 113.074 278.935 112.476C278.935 111.878 278.353 111.393 277.636 111.393C276.918 111.393 276.336 111.878 276.336 112.476C276.336 113.074 276.918 113.559 277.636 113.559Z" fill="#FB9F14"/>
<path d="M159.361 134.081C165.671 132.329 172.7 134.207 177.577 138.508C180.208 140.844 182.139 143.865 183.155 147.234C184.4 151.245 184.606 155.475 184.737 159.643C184.881 164.252 185.006 168.862 185.14 173.472C185.268 177.867 185.283 182.282 185.577 186.67C185.823 190.352 186.412 194.174 188.382 197.367C190.209 200.328 193.095 202.327 196.357 203.428C199.663 204.545 203.227 204.805 206.695 204.782C210.73 204.77 214.76 204.451 218.747 203.828C226.321 202.615 233.803 199.52 238.429 193.135C240.558 190.236 241.755 186.757 241.86 183.161C241.957 178.97 240.619 174.912 239.152 171.041C237.725 167.275 236.182 163.564 235.278 159.626C234.439 155.941 234.04 152.169 234.087 148.39C234.165 140.829 235.977 133.386 239.384 126.636C241.109 123.169 243.296 119.953 245.887 117.075C248.559 114.168 251.867 111.768 255.801 110.981C257.721 110.584 259.709 110.663 261.591 111.214C262.394 111.454 262.737 110.201 261.936 109.961C258.039 108.794 253.805 109.681 250.35 111.707C246.952 113.698 244.267 116.686 241.989 119.854C237.611 126.064 234.696 133.186 233.464 140.684C232.231 148.182 232.713 155.861 234.873 163.147C237.185 170.722 242.215 178.606 240.054 186.804C238.163 193.98 231.612 198.856 224.844 201.059C220.738 202.395 216.434 202.96 212.14 203.253C208.512 203.5 204.834 203.657 201.216 203.191C197.892 202.763 194.474 201.747 191.898 199.516C189.073 197.071 187.782 193.557 187.221 189.951C186.585 185.871 186.678 181.664 186.558 177.548L186.149 163.496C185.918 155.56 186.117 146.764 180.954 140.188C178.889 137.625 176.268 135.568 173.288 134.171C170.309 132.774 167.05 132.075 163.76 132.127C162.156 132.164 160.562 132.4 159.015 132.828C158.854 132.879 158.719 132.99 158.639 133.138C158.558 133.286 158.538 133.459 158.583 133.622C158.628 133.784 158.734 133.923 158.879 134.009C159.024 134.094 159.197 134.12 159.361 134.081Z" fill="#FB9F14"/>
<path d="M67.1195 125.861C68.0393 132.406 71.5196 138.317 76.7957 142.297C82.0718 146.277 88.7121 148 95.2575 147.087C101.803 146.174 107.718 142.699 111.704 137.427C115.689 132.155 117.418 125.517 116.512 118.97L116.462 118.617C115.408 112.158 111.856 106.374 106.575 102.51C101.294 98.6469 94.7051 97.0144 88.2308 97.965C81.7566 98.9156 75.9154 102.373 71.9674 107.592C68.0194 112.81 66.281 119.371 67.1272 125.86L67.1195 125.861Z" fill="#FFB6B6"/>
<path d="M89.1013 146.48C87.8121 143.883 86.4873 141.095 86.8375 138.216C87.1877 135.338 89.9998 132.579 92.773 133.425C94.4313 133.931 95.6888 135.562 97.4208 135.64C99.8038 135.747 101.161 133.016 101.895 130.746L104.884 121.502C110.651 126.032 103.348 121.283 110.491 119.625C113.293 118.974 116.122 117.715 117.759 115.349C119.396 112.984 119.374 109.323 117.112 107.546C116.003 106.675 114.529 106.347 113.469 105.417C112.811 104.84 112.356 104.066 112.172 103.211C111.988 102.356 112.084 101.464 112.447 100.667C112.809 99.8705 113.418 99.2117 114.184 98.7883C114.949 98.3648 115.831 98.1991 116.698 98.3157L109.09 97.3907L111.342 93.2848C109.714 94.5774 107.442 94.7581 105.395 94.3965C103.347 94.035 101.417 93.1989 99.4138 92.6438C89.7953 89.9788 78.6429 94.7058 73.8693 103.471C71.9957 102.852 69.9783 102.818 68.0846 103.371C66.1908 103.925 64.5099 105.041 63.2647 106.572C61.2375 109.162 60.6953 112.613 60.6275 115.902C60.5011 122.387 61.9365 128.807 64.8125 134.621C65.7089 136.427 66.7684 138.2 68.292 139.521C69.8155 140.843 87.0338 148.164 89.021 147.819" fill="#7B595E"/>
<path d="M268.973 129.368C268.977 130.492 268.832 131.612 268.544 132.698V132.703C268.54 132.724 268.531 132.746 268.527 132.768C267.652 135.986 265.564 138.247 263.126 138.247C260.701 138.247 258.622 136.003 257.734 132.811C257.673 132.59 257.621 132.369 257.573 132.14C257.513 131.884 257.465 131.62 257.426 131.347C257.391 131.13 257.365 130.91 257.344 130.684C257.313 130.372 257.292 130.061 257.288 129.736V129.731C257.279 129.61 257.279 129.489 257.279 129.368V129.259L257.283 129.255C257.284 128.706 257.32 128.158 257.391 127.613C257.422 127.384 257.456 127.163 257.5 126.942C257.552 126.674 257.608 126.409 257.677 126.15C257.734 125.92 257.799 125.699 257.868 125.478C257.963 125.184 258.067 124.898 258.184 124.625C258.258 124.447 258.336 124.274 258.414 124.105C259.479 121.914 261.194 120.489 263.126 120.489C265.798 120.489 268.051 123.213 268.748 126.929C268.757 126.985 268.77 127.042 268.774 127.098V127.102C268.907 127.85 268.974 128.608 268.973 129.368Z" fill=" #FB9F14"/>
<path d="M258.47 124.296C258.468 124.375 258.438 124.451 258.386 124.511C258.334 124.571 258.262 124.611 258.184 124.625C258.258 124.447 258.336 124.274 258.414 124.105C258.45 124.162 258.469 124.228 258.47 124.296Z" fill="#FB9F14"/>
<path d="M263.591 123.901H259.779C259.593 123.901 259.443 124.052 259.443 124.238C259.443 124.424 259.593 124.575 259.779 124.575H263.591C263.777 124.575 263.927 124.424 263.927 124.238C263.927 124.052 263.777 123.901 263.591 123.901Z" fill="#FB9F14"/>
<path d="M258.353 125.812C258.353 125.901 258.317 125.987 258.254 126.05C258.191 126.114 258.105 126.149 258.015 126.149H257.677C257.734 125.92 257.799 125.699 257.868 125.478H258.015C258.104 125.478 258.189 125.513 258.253 125.575C258.316 125.638 258.352 125.723 258.353 125.812Z" fill="#FB9F14"/>
<path d="M260.004 125.477H259.391C259.205 125.477 259.055 125.628 259.055 125.814C259.055 126 259.205 126.15 259.391 126.15H260.004C260.19 126.15 260.341 126 260.341 125.814C260.341 125.628 260.19 125.477 260.004 125.477Z" fill="#FB9F14"/>
<path d="M265.461 125.421H261.65C261.464 125.421 261.313 125.572 261.313 125.758C261.313 125.943 261.464 126.094 261.65 126.094H265.461C265.647 126.094 265.798 125.943 265.798 125.758C265.798 125.572 265.647 125.421 265.461 125.421Z" fill="#FB9F14"/>
<path d="M259.888 126.997H259.274C259.088 126.997 258.938 127.147 258.938 127.333C258.938 127.519 259.088 127.67 259.274 127.67H259.888C260.073 127.67 260.224 127.519 260.224 127.333C260.224 127.147 260.073 126.997 259.888 126.997Z" fill="#FB9F14"/>
<path d="M261.875 126.997H261.261C261.076 126.997 260.925 127.147 260.925 127.333C260.925 127.519 261.076 127.67 261.261 127.67H261.875C262.061 127.67 262.211 127.519 262.211 127.333C262.211 127.147 262.061 126.997 261.875 126.997Z" fill="#FB9F14"/>
<path d="M258.318 127.276C258.318 127.365 258.283 127.451 258.219 127.514C258.156 127.578 258.07 127.613 257.981 127.613H257.391C257.422 127.384 257.456 127.163 257.5 126.942H257.981C258.025 126.942 258.068 126.95 258.109 126.967C258.15 126.983 258.187 127.008 258.219 127.039C258.25 127.07 258.275 127.106 258.292 127.147C258.309 127.188 258.318 127.231 258.318 127.276Z" fill="#FB9F14"/>
<path d="M267.331 126.941H263.52C263.334 126.941 263.183 127.091 263.183 127.277C263.183 127.463 263.334 127.614 263.52 127.614H267.331C267.517 127.614 267.668 127.463 267.668 127.277C267.668 127.091 267.517 126.941 267.331 126.941Z" fill="#FB9F14"/>
<path d="M258.47 129.493C258.47 129.537 258.461 129.581 258.444 129.622C258.427 129.662 258.402 129.699 258.37 129.73C258.339 129.761 258.302 129.786 258.261 129.802C258.22 129.819 258.176 129.827 258.132 129.827H257.521C257.435 129.827 257.351 129.795 257.288 129.736V129.731C257.279 129.61 257.279 129.489 257.279 129.368V129.259L257.283 129.255C257.314 129.223 257.351 129.198 257.392 129.181C257.433 129.164 257.477 129.155 257.521 129.155H258.132C258.222 129.155 258.308 129.191 258.371 129.254C258.434 129.318 258.47 129.404 258.47 129.493Z" fill="#CCCCCC"/>
<path d="M263.591 129.099H259.779C259.593 129.099 259.443 129.249 259.443 129.435C259.443 129.621 259.593 129.772 259.779 129.772H263.591C263.777 129.772 263.927 129.621 263.927 129.435C263.927 129.249 263.777 129.099 263.591 129.099Z" fill="#CCCCCC"/>
<path d="M258.353 131.009C258.353 131.099 258.317 131.185 258.254 131.248C258.191 131.311 258.105 131.347 258.015 131.347H257.426C257.391 131.13 257.365 130.91 257.344 130.684C257.363 130.677 257.384 130.674 257.404 130.676H258.015C258.104 130.676 258.189 130.71 258.253 130.773C258.316 130.835 258.352 130.92 258.353 131.009Z" fill="#CCCCCC"/>
<path d="M260.004 130.674H259.391C259.205 130.674 259.055 130.825 259.055 131.011C259.055 131.197 259.205 131.348 259.391 131.348H260.004C260.19 131.348 260.341 131.197 260.341 131.011C260.341 130.825 260.19 130.674 260.004 130.674Z" fill="#CCCCCC"/>
<path d="M265.461 130.618H261.65C261.464 130.618 261.313 130.769 261.313 130.955C261.313 131.141 261.464 131.292 261.65 131.292H265.461C265.647 131.292 265.798 131.141 265.798 130.955C265.798 130.769 265.647 130.618 265.461 130.618Z" fill="#CCCCCC"/>
<path d="M259.888 132.194H259.274C259.088 132.194 258.938 132.345 258.938 132.531C258.938 132.717 259.088 132.867 259.274 132.867H259.888C260.073 132.867 260.224 132.717 260.224 132.531C260.224 132.345 260.073 132.194 259.888 132.194Z" fill="#CCCCCC"/>
<path d="M261.875 132.194H261.261C261.076 132.194 260.925 132.345 260.925 132.531C260.925 132.717 261.076 132.867 261.261 132.867H261.875C262.061 132.867 262.211 132.717 262.211 132.531C262.211 132.345 262.061 132.194 261.875 132.194Z" fill="#CCCCCC"/>
<path d="M258.318 132.473C258.318 132.563 258.283 132.649 258.219 132.712C258.156 132.775 258.07 132.811 257.981 132.811H257.734C257.673 132.59 257.621 132.369 257.573 132.14H257.981C258.025 132.139 258.068 132.147 258.109 132.164C258.15 132.181 258.187 132.205 258.219 132.236C258.25 132.267 258.275 132.304 258.292 132.345C258.309 132.385 258.318 132.429 258.318 132.473Z" fill="#CCCCCC"/>
<path d="M267.331 132.138H263.52C263.334 132.138 263.183 132.289 263.183 132.475C263.183 132.661 263.334 132.811 263.52 132.811H267.331C267.517 132.811 267.668 132.661 267.668 132.475C267.668 132.289 267.517 132.138 267.331 132.138Z" fill="#CCCCCC"/>
</g>
<defs>
<clipPath id="clip0_0_8">
<rect width="320" height="249.596" fill="white"/>
</clipPath>
</defs>
</svg>
