<svg width="21" height="20" viewBox="0 0 21 20" fill="none" xmlns="http://www.w3.org/2000/svg">
<g id="Frame">
<path id="Vector" d="M9.15197 14.8298C8.87081 15.4737 7.97977 15.4737 7.69864 14.8298L6.96727 13.1547C6.3164 11.664 5.14488 10.4773 3.68356 9.82866L1.67046 8.93508C1.03042 8.651 1.03042 7.7199 1.67046 7.4358L3.62068 6.57011C5.11958 5.90476 6.31212 4.67417 6.95187 3.1326L7.69272 1.34744C7.96763 0.684969 8.88297 0.684968 9.15789 1.34744L9.89872 3.13261C10.5385 4.67417 11.731 5.90476 13.2299 6.57011L15.1801 7.4358C15.8201 7.7199 15.8201 8.651 15.1801 8.93508L13.1671 9.82866C11.7057 10.4773 10.5342 11.664 9.88331 13.1547L9.15197 14.8298ZM4.08961 8.18545C5.99447 9.031 7.54332 10.4208 8.42529 12.3332C9.30731 10.4208 10.8561 9.031 12.761 8.18545C10.8334 7.3298 9.27964 5.87222 8.4253 3.9259C7.57096 5.87223 6.0172 7.3298 4.08961 8.18545ZM16.4745 18.9084L16.6801 18.437C17.0468 17.5965 17.7072 16.9272 18.5312 16.5612L19.1649 16.2796C19.5076 16.1273 19.5076 15.6292 19.1649 15.477L18.5667 15.2112C17.7215 14.8357 17.0492 14.1417 16.6888 13.2726L16.4776 12.7632C16.3304 12.4082 15.8396 12.4082 15.6923 12.7632L15.4811 13.2726C15.1208 14.1417 14.4486 14.8357 13.6033 15.2112L13.0051 15.477C12.6624 15.6292 12.6624 16.1273 13.0051 16.2796L13.6387 16.5612C14.4628 16.9272 15.1231 17.5965 15.4898 18.437L15.6956 18.9084C15.8461 19.2535 16.3239 19.2535 16.4745 18.9084ZM15.6187 15.8726L16.0875 15.4071L16.5465 15.8726L16.0875 16.325L15.6187 15.8726Z" fill="#844031"/>
</g>
</svg>
