<svg width="22" height="22" viewBox="0 0 22 22" fill="none" xmlns="http://www.w3.org/2000/svg">
<g id="vuesax/linear/profile-2user">
<g id="profile-2user">
<path id="Vector" d="M8.39684 9.96421C8.30518 9.95504 8.19518 9.95504 8.09434 9.96421C5.91268 9.89087 4.18018 8.10337 4.18018 5.90337C4.18018 3.65754 5.99518 1.83337 8.25018 1.83337C10.496 1.83337 12.3202 3.65754 12.3202 5.90337C12.311 8.10337 10.5785 9.89087 8.39684 9.96421Z" stroke="#DA8281" stroke-width="1.5" stroke-linecap="round" stroke-linejoin="round"/>
<path id="Vector_2" d="M15.0425 3.66663C16.8208 3.66663 18.2508 5.10579 18.2508 6.87496C18.2508 8.60746 16.8758 10.0191 15.1617 10.0833C15.0883 10.0741 15.0058 10.0741 14.9233 10.0833" stroke="#DA8281" stroke-width="1.5" stroke-linecap="round" stroke-linejoin="round"/>
<path id="Vector_3" d="M3.81316 13.3466C1.59483 14.8316 1.59483 17.2516 3.81316 18.7275C6.334 20.4141 10.4682 20.4141 12.989 18.7275C15.2073 17.2425 15.2073 14.8225 12.989 13.3466C10.4773 11.6691 6.34316 11.6691 3.81316 13.3466Z" stroke="#DA8281" stroke-width="1.5" stroke-linecap="round" stroke-linejoin="round"/>
<path id="Vector_4" d="M16.8115 18.3334C17.4715 18.1959 18.0949 17.93 18.6082 17.5359C20.0382 16.4634 20.0382 14.6942 18.6082 13.6217C18.104 13.2367 17.4899 12.98 16.839 12.8334" stroke="#DA8281" stroke-width="1.5" stroke-linecap="round" stroke-linejoin="round"/>
</g>
</g>
</svg>
