<svg width="318" height="190" viewBox="0 0 318 190" fill="none" xmlns="http://www.w3.org/2000/svg">
<path d="M290.337 89.1173C286.904 85.637 283.749 81.9531 281.468 77.6398C273.473 62.5386 277.859 43.0732 269.554 28.1433C261.976 14.5092 243.645 8.03922 229.191 13.8937C217.176 18.7577 208.126 30.7535 195.232 32.0632C184.114 33.1924 174.125 25.9728 164.719 19.9378C145.935 7.8865 124.185 -0.81416 101.889 0.0605332C79.5933 0.935227 56.9228 12.8524 47.4891 33.0814C43.1262 42.4346 41.7521 52.9031 38.0369 62.5294C31.2958 79.9862 14.2606 91.385 8.6947 108.819C3.60077 124.762 7.57043 143.246 18.2857 156.011C31.2033 171.399 52.6756 178.442 72.5655 175.643C90.8315 173.069 107.904 163.013 126.341 163.54C135.872 163.813 145.162 166.942 154.698 167.108C164.997 167.289 175.05 164.022 185.326 163.337C212.096 161.56 237.649 177.318 264.437 175.902C280.575 175.05 296.611 167.34 305.892 154.108C315.168 140.877 316.713 122.115 308.186 108.388C303.574 100.956 296.5 95.3605 290.337 89.1173Z" fill="#F0F9ED"/>
<path d="M67.356 95.254C67.0691 97.3551 66.7452 99.572 65.9541 101.539C65.7505 102.011 65.3526 103.547 64.8206 103.76C64.2839 103.982 63.4048 102.844 62.9606 102.464C61.7392 101.419 60.3744 100.581 59.1483 99.521C57.603 98.1928 55.8402 96.9109 54.096 95.8557C53.9248 95.7538 53.7444 95.6474 53.5639 95.5548C52.907 95.2077 52.1898 94.9347 51.4958 94.8653C50.5751 94.7727 49.6822 95.0273 49.0021 95.9482C47.8778 97.4477 48.4746 100.572 48.7291 102.279C48.7522 102.418 48.7707 102.557 48.7939 102.7C49.1131 104.862 49.4509 107.125 48.8772 109.244C48.6042 110.29 47.9888 111.211 47.1607 111.878C46.7073 112.253 46.1937 112.549 45.6246 112.757C45.0833 112.956 44.5697 113.072 44.084 113.114C42.9828 113.215 41.9835 112.952 41.0026 112.452C40.489 112.193 39.9755 111.869 39.4527 111.498C39.2028 111.322 38.9623 111.137 38.7356 110.943C37.7732 110.133 36.9821 109.152 36.2927 108.097C36.0475 107.731 35.8161 107.361 35.5987 106.981C35.0944 106.134 34.641 105.255 34.1783 104.399C33.8313 103.751 33.5028 103.08 33.1836 102.39C32.7255 101.409 32.3045 100.396 31.9113 99.373C31.4625 98.2252 31.0553 97.0682 30.6806 95.9436C30.0699 94.0739 29.5794 92.1116 29.1168 90.1586C28.9918 89.6402 28.8716 89.1127 28.7513 88.5943C30.3798 89.2191 32.0408 89.7467 33.7897 90.1586C35.8115 90.6399 38.4672 90.7602 37.5234 87.8631C37.0006 86.234 35.2887 84.9937 33.9238 84.0033C31.9298 82.5825 29.8663 81.1525 27.6409 80.1204C27.3864 80.0094 27.1319 79.889 26.8914 79.7548C26.8173 79.2411 26.7433 78.7274 26.6832 78.2137C26.4426 76.0478 26.3315 73.8958 26.3084 71.7576C27.7658 72.1973 29.1677 72.9424 29.8987 73.5625C30.9998 74.4974 32.633 76.4643 34.1876 76.0894C36.3991 75.5526 35.2748 73.5487 34.4235 72.3084C33.2484 70.6145 31.4532 69.7444 29.8293 68.5643C29.2556 68.1478 28.6865 67.759 28.1035 67.4027C27.0163 66.7316 26.3408 65.5607 26.3639 64.2834L26.3685 64.2603C26.4287 61.4881 26.4472 57.8829 24.8001 55.467C24.6243 55.2032 24.4254 54.9533 24.2033 54.7173C23.3844 53.8519 22.4637 53.2317 21.455 52.6717C22.0288 52.7319 22.6071 52.8013 23.1854 52.8892C28.1405 53.6667 33.1188 55.6614 37.5049 57.9939C37.5187 58.0032 37.5373 58.0124 37.5558 58.0217C38.6985 58.6372 39.3601 59.8729 39.3139 61.1734C39.3 61.5482 39.2861 61.9324 39.2907 62.3211C39.2907 63.9455 38.953 66.7547 40.1929 67.9997C41.6503 69.4529 43.1124 66.6298 43.5195 65.4173C43.8758 64.376 43.7184 63.3115 43.6768 62.2517C45.5321 63.6077 47.4845 64.7786 49.2982 66.2272C51.1627 67.7359 53.0411 69.2909 54.8409 70.8737C54.4754 72.7943 53.749 74.6825 53.2123 76.5291C52.3147 79.5743 50.4456 82.8834 51.5884 86.123C52.1945 87.8307 53.092 88.7609 54.8918 88.1269C56.5805 87.5345 57.3994 86.1878 57.9639 84.5818C58.792 82.2401 58.7597 79.9585 58.8753 77.5195C58.917 76.6679 58.8892 75.8256 58.8383 74.9833C59.6156 75.5387 60.379 76.1218 61.1331 76.7142C62.8172 78.0378 65.2184 79.0606 66.4167 80.8655C67.2773 82.1568 67.5503 84.2394 67.7446 85.762C68.1517 89.0108 67.7909 92.0237 67.356 95.254Z" fill="#E7F7FF"/>
<path d="M59.4628 119.375V119.398C59.4628 120.463 57.8528 120.43 57.7787 119.412C57.7741 119.385 57.7741 119.361 57.7741 119.338C57.7695 117.237 57.5058 115.099 57.0801 112.956C56.636 110.721 56.0114 108.49 55.3266 106.287C54.4984 103.612 53.5685 100.993 52.7588 98.4937C52.3609 97.2765 51.9445 96.0732 51.5004 94.8746C49.6729 89.8995 47.4706 85.0863 44.9028 80.4306C41.7289 74.6687 38.333 68.8744 33.9839 63.9132C32.323 62.0157 30.3937 60.4191 28.5708 58.6882C27.3678 57.5451 26.1834 56.3742 24.7862 55.4717C24.6103 55.2079 24.4114 54.958 24.1893 54.722C23.3704 53.8565 22.4497 53.2364 21.4411 52.6764C22.0148 52.7366 22.5931 52.806 23.1715 52.8939C24.7954 53.5603 26.2389 54.4119 26.919 54.9441C32.5219 59.3083 37.2226 64.7277 41.0766 70.6655C45.7819 77.9176 49.8764 85.6324 52.8838 93.7453C53.1012 94.347 53.3325 94.9533 53.5592 95.5688C54.7668 98.813 56.0345 102.256 57.0847 105.764C57.4364 106.907 57.751 108.06 58.0378 109.212C58.8984 112.628 59.4582 116.057 59.4628 119.375Z" fill="#BCFFC3"/>
<path d="M58.1304 106.583C56.5527 104.154 53.8692 107.37 53.2261 109.008C51.9769 112.197 51.7687 119.408 52.1389 121.384C51.6762 120.856 51.195 120.342 50.6954 119.833C49.77 118.899 48.8493 117.964 47.9333 117.024C49.076 115.34 51.6855 111.869 51.1256 105.699C51.0331 104.663 50.811 103.293 49.7793 102.784C48.3404 102.076 48.0443 103.742 47.887 104.802C47.6186 106.616 47.119 112.891 46.7257 115.793C44.8797 113.919 43.0383 112.04 41.183 110.175C42.7375 106.556 44.6067 102.154 43.3529 98.165C42.5293 95.5502 40.3409 97.4107 39.7256 99.0073C38.6198 101.867 38.8095 105.385 39.5267 108.513C38.6522 107.639 37.7732 106.769 36.8895 105.903C36.7322 105.746 36.5702 105.593 36.4129 105.436C37.3336 103.723 38.3978 102.178 38.6892 100.187C38.9761 98.2252 38.3145 96.337 37.2133 94.7357C36.7229 94.0276 36.2325 93.1066 35.3118 92.8937C34.021 92.5929 34.4142 94.06 34.5669 94.9393C34.8908 96.8137 35.1128 98.7435 35.2285 100.636C35.2887 101.678 35.3812 102.654 35.5385 103.658C35.5801 103.918 35.5801 104.274 35.5801 104.635C34.3124 103.418 33.0123 102.219 31.6891 101.048C32.1425 97.7485 32.6653 93.7592 30.7545 90.7926C29.4961 88.8489 28.1312 90.8528 27.9832 92.2967C27.7611 94.5321 28.4366 96.9525 29.4591 99.1138C28.8761 98.6186 28.2839 98.1234 27.6917 97.6375C27.0116 93.7962 26.2389 89.0247 23.0188 86.4238C20.9738 84.767 20.1919 87.4743 20.5389 89.1127C20.8859 90.714 21.6493 92.2643 22.6348 93.6851C22.3572 93.4769 22.0796 93.2732 21.7974 93.0696C21.1265 92.579 20.4418 92.1209 19.7524 91.6858C19.6228 88.3537 19.4563 84.2995 17.0366 81.7032C15.4589 80.0047 14.4641 82.2262 14.5706 83.6701C14.7464 85.961 15.8891 88.2842 17.3142 90.2604C16.2223 89.6588 15.1119 89.0988 13.9876 88.5527C13.4648 85.8777 12.8124 82.6473 10.5454 80.8609C9.0556 79.69 8.52816 81.606 8.7965 82.763C9.18977 84.4384 10.24 86.035 11.4892 87.3818C10.2493 86.8033 9.00933 86.234 7.77402 85.6463C7.14017 84.5911 6.38602 83.5359 5.71053 82.6288C4.91475 81.5597 3.85988 80.4907 2.42562 80.4537C0.533323 80.4027 0.0243927 81.6893 0.912708 83.2675C1.31523 83.9848 1.90744 84.5032 2.59218 84.9012C1.84729 84.9567 1.14404 85.1603 0.644363 85.5306C0.140059 85.9101 -0.0357536 86.3127 0.00588613 86.6968C0.0706591 87.3494 0.773909 87.9325 1.59745 88.1871C3.05484 88.636 4.64641 88.2472 6.12693 88.1223C6.58497 88.0852 7.04763 88.1038 7.51492 88.1408C8.1534 88.1917 8.7965 88.2704 9.4211 88.2842C10.24 88.6637 11.0543 89.0432 11.8732 89.4274C11.8732 89.4274 11.8732 89.4274 11.8778 89.4274C9.67557 89.0432 7.21882 89.0386 5.26638 89.9179C4.18374 90.4085 2.98544 91.9913 4.82222 92.4587C7.76939 93.2084 10.897 91.5609 13.4046 90.3159L13.4463 90.1725C13.8164 90.353 14.1865 90.5381 14.5613 90.7232C14.5844 90.7325 14.6029 90.7417 14.6168 90.751C16.5045 91.709 18.3551 92.7456 20.1318 93.9536L20.1364 93.9582C19.3684 93.8703 18.6096 93.8656 17.874 93.9674C16.5369 94.1526 14.714 95.4947 16.5693 96.5962C18.952 98.0169 21.9547 97.7902 24.6659 97.3644C26.8728 99.1138 29.0334 100.933 31.1293 102.816C28.7373 101.668 25.9613 100.872 23.4583 101.22C22.0241 101.419 20.0716 102.858 22.0565 104.038C25.2442 105.935 29.4683 105.089 32.8365 104.501L32.8874 104.422C33.859 105.32 34.8167 106.232 35.7559 107.153C36.2186 107.606 36.6766 108.06 37.1347 108.518C37.1347 108.518 37.1347 108.518 37.1393 108.523C33.8729 106.861 30.1022 105.653 26.7618 105.982C24.8556 106.167 22.3155 107.981 25.036 109.656C29.3851 112.336 34.9648 111.452 39.4249 110.846C39.4249 110.846 39.4249 110.846 39.4295 110.85C40.7157 112.16 41.9927 113.484 43.2696 114.798C39.9107 114.308 33.0123 112.873 30.7499 112.595C29.6904 112.466 27.1735 112.442 27.5807 114.215C27.8074 115.196 29.6395 116.214 30.5371 116.534C32.5404 117.251 40.1836 117.385 45.2591 116.821C45.2591 116.821 45.2591 116.821 45.2637 116.825C46.1798 117.755 47.1005 118.676 48.0397 119.588C48.3867 119.926 48.7244 120.268 49.0529 120.611C44.144 119.449 34.4142 117.816 31.9713 118.334C30.7268 118.598 28.7651 119.343 28.8946 120.902C29.0288 122.518 31.4624 122.693 32.6746 123.087C35.4737 123.994 44.7085 123.457 46.4018 123.11C47.7112 122.842 49.0159 122.282 50.2928 121.948C50.3067 121.962 50.3206 121.981 50.3299 121.995C51.0424 122.8 51.7225 123.619 52.3795 124.452C52.3008 124.461 52.2175 124.466 52.1389 124.475C48.0212 124.832 39.2305 125.058 36.4222 125.368C35.1175 125.512 32.1009 126.188 33.0864 128.201C33.6323 129.312 36.1122 130.015 37.2781 130.145C39.7025 130.422 47.8639 128.71 53.7443 126.771C53.8507 126.738 53.9571 126.701 54.0636 126.664C56.1085 129.446 58.0101 132.329 60.143 135.189C60.7861 136.055 62.1879 135.134 61.5448 134.264C58.4681 130.131 55.9281 125.808 52.6108 121.93C56.4602 117.302 58.8429 107.685 58.1304 106.583Z" fill="#78EA8A"/>
<path d="M76.549 142.011C76.1881 142.548 74.6752 142.043 74.0275 141.965C72.2555 141.756 70.4696 141.835 68.6883 141.613C66.4398 141.349 64.0247 141.256 61.7623 141.368C61.5402 141.377 61.3088 141.395 61.0821 141.423C60.2678 141.506 59.4351 141.696 58.7503 142.066C57.8435 142.552 57.1865 143.339 57.1217 144.612C57.0153 146.69 59.5044 149.203 60.7907 150.614C62.5164 152.521 64.3994 154.488 65.2461 156.945C65.8615 158.704 65.533 160.671 64.4272 162.198C62.757 164.494 60.6426 164.915 57.9592 164.864C54.5956 164.804 51.5883 163.124 48.692 161.587C45.7911 160.046 42.8347 157.977 40.2345 155.96C38.0507 154.257 35.9548 152.299 33.9006 150.383C35.7837 149.953 37.6436 149.411 39.5127 148.708C41.6734 147.898 44.1949 146.361 41.53 144.274C40.0355 143.094 37.6945 143.015 35.8207 142.95C33.1002 142.876 30.315 142.844 27.6269 143.27C27.3215 143.325 27.0116 143.367 26.7062 143.39C26.3176 142.969 25.9335 142.538 25.5588 142.099C23.995 140.252 22.5654 138.341 21.219 136.383C22.8337 135.879 24.5872 135.703 25.6421 135.823C27.229 136.004 29.9633 136.8 31.157 135.49C32.8596 133.625 30.5833 132.477 29.0334 131.857C26.9051 131.024 24.7075 131.334 22.4821 131.251C21.6955 131.223 20.9321 131.218 20.1734 131.246C18.7576 131.302 17.4066 130.644 16.6386 129.45L16.6247 129.432C14.9592 126.84 12.7476 123.494 9.73105 122.291C9.40256 122.161 9.06944 122.055 8.72244 121.976C7.42698 121.685 6.19629 121.685 4.91934 121.791C5.48842 121.486 6.07138 121.194 6.66359 120.921C6.66821 120.921 6.66821 120.921 6.66821 120.921C11.7159 118.565 17.5316 117.325 23.0095 116.756C23.0326 116.756 23.0511 116.751 23.0743 116.751C24.5085 116.603 25.8873 117.339 26.646 118.565C26.8635 118.922 27.0948 119.278 27.3354 119.639C28.344 121.139 29.769 123.934 31.6845 124.313C32.6237 124.498 33.0956 123.989 33.3038 123.235C33.5953 122.189 33.3732 120.671 33.1511 119.866C32.9892 119.273 32.7069 118.755 32.3738 118.26C32.0453 117.779 31.6752 117.32 31.3328 116.853C31.6521 116.867 31.9667 116.876 32.2859 116.881H32.2905C34.516 116.927 36.7321 116.848 38.976 117.038C39.3554 117.071 39.7394 117.108 40.1235 117.14C42.1592 117.325 44.2134 117.533 46.2352 117.792C46.4758 117.82 46.721 117.853 46.957 117.88C47.1004 118.218 47.2346 118.556 47.3549 118.903C47.5307 119.371 47.688 119.847 47.8361 120.319C48.0628 121.046 48.271 121.777 48.4838 122.504C48.6411 123.045 48.7984 123.582 48.965 124.105C49.0251 124.29 49.0806 124.48 49.1361 124.67C49.4323 125.706 49.6775 126.803 49.9736 127.895C50.6074 130.219 51.4402 132.486 53.4158 133.953C55.0305 135.152 56.4277 135.453 57.7001 133.745C57.9638 133.389 58.172 133.028 58.32 132.653C58.6485 131.839 58.7133 130.982 58.6254 130.108C58.5745 129.603 58.4773 129.094 58.3432 128.571C57.6584 125.901 56.2103 123.814 54.8038 121.5C54.5169 121.023 54.2116 120.565 53.8923 120.12C53.6703 119.801 53.4343 119.491 53.203 119.181C53.6055 119.195 54.008 119.213 54.4198 119.236C55.0768 119.269 55.7337 119.31 56.3954 119.357C56.8441 119.389 57.3114 119.398 57.788 119.394C58.3385 119.389 58.903 119.371 59.4721 119.357C60.9942 119.329 62.5256 119.361 63.835 119.903C65.4312 120.56 66.9718 122.314 68.0915 123.591C70.4927 126.331 72.0288 129.33 73.625 132.579C74.666 134.699 75.7393 136.934 76.2251 139.243C76.3269 139.817 76.9052 141.483 76.549 142.011Z" fill="#E7F7FF"/>
<path d="M79.6997 160.727C75.383 154.317 68.1747 149.323 62.1601 144.626C61.0405 143.751 59.9023 142.899 58.7549 142.062C53.9941 138.609 48.9834 135.536 43.7322 132.838C41.9602 131.926 40.1697 131.024 38.3653 130.154C36.5702 129.288 34.7565 128.46 32.9197 127.687C29.8245 126.382 26.6691 125.239 23.4397 124.378C20.7332 123.661 17.9618 123.388 15.2089 122.916C13.3907 122.606 11.577 122.263 9.72638 122.291C9.39789 122.161 9.06477 122.055 8.71777 121.976C7.42231 121.685 6.19163 121.685 4.91467 121.791C5.48375 121.486 6.06671 121.194 6.65892 120.921C6.66354 120.921 6.66354 120.921 6.66354 120.921C8.56972 120.532 10.4157 120.417 11.3735 120.486C19.137 121.032 26.7293 123.068 33.8728 126.086C33.9654 126.128 34.0671 126.165 34.1597 126.206C36.746 127.308 39.3138 128.483 41.8399 129.733C47.9332 132.741 53.8229 136.193 59.3378 140.16C59.9116 140.572 60.4945 140.993 61.0867 141.418C68.2673 146.574 76.4287 152.507 81.2959 159.736C81.9714 160.745 80.3706 161.735 79.6997 160.727Z" fill="#BCFFC3"/>
<path d="M250.386 95.6243C250.673 97.7254 250.997 99.9422 251.788 101.909C251.991 102.381 252.389 103.918 252.921 104.131C253.458 104.353 254.337 103.214 254.781 102.835C256.003 101.789 257.368 100.951 258.594 99.8913C260.139 98.563 261.902 97.2811 263.646 96.2259C263.817 96.1241 263.998 96.0176 264.178 95.9251C264.835 95.578 265.552 95.3049 266.246 95.2355C267.167 95.1429 268.06 95.3975 268.74 96.3185C269.864 97.8179 269.267 100.942 269.013 102.65C268.99 102.788 268.971 102.927 268.948 103.071C268.629 105.232 268.291 107.495 268.865 109.615C269.138 110.661 269.753 111.582 270.581 112.248C271.035 112.623 271.548 112.919 272.117 113.127C272.659 113.326 273.172 113.442 273.658 113.484C274.759 113.586 275.758 113.322 276.739 112.822C277.253 112.563 277.766 112.239 278.289 111.869C278.539 111.693 278.78 111.508 279.006 111.313C279.969 110.503 280.76 109.522 281.449 108.467C281.694 108.101 281.926 107.731 282.143 107.352C282.648 106.505 283.101 105.625 283.564 104.769C283.911 104.121 284.239 103.45 284.558 102.761C285.016 101.78 285.437 100.766 285.831 99.7432C286.279 98.5954 286.687 97.4384 287.061 96.3138C287.672 94.4441 288.162 92.4818 288.625 90.5288C288.75 90.0105 288.87 89.4829 288.991 88.9645C287.362 89.5893 285.701 90.1169 283.952 90.5288C281.93 91.0101 279.275 91.1305 280.219 88.2333C280.741 86.6043 282.453 85.364 283.818 84.3736C285.812 82.9528 287.876 81.5227 290.101 80.4907C290.355 80.3796 290.61 80.2593 290.851 80.1251C290.925 79.6113 290.999 79.0976 291.059 78.5839C291.299 76.418 291.41 74.266 291.434 72.1279C289.976 72.5675 288.574 73.3126 287.843 73.9328C286.742 74.8676 285.109 76.8345 283.554 76.4597C281.343 75.9228 282.467 73.9189 283.318 72.6786C284.494 70.9847 286.289 70.1147 287.913 68.9345C288.486 68.518 289.055 68.1293 289.638 67.7729C290.726 67.1018 291.401 65.9309 291.378 64.6536L291.373 64.6305C291.313 61.8583 291.295 58.2531 292.942 55.8373C293.118 55.5735 293.317 55.3236 293.539 55.0875C294.358 54.2221 295.278 53.6019 296.287 53.0419C295.713 53.1021 295.135 53.1715 294.556 53.2595C289.601 54.037 284.623 56.0316 280.237 58.3642C280.223 58.3734 280.205 58.3827 280.186 58.3919C279.043 59.0074 278.382 60.2431 278.428 61.5436C278.442 61.9185 278.456 62.3026 278.451 62.6913C278.451 64.3158 278.789 67.125 277.549 68.3699C276.092 69.8231 274.63 67 274.222 65.7875C273.866 64.7462 274.023 63.6817 274.065 62.6219C272.21 63.9779 270.257 65.1488 268.444 66.5974C266.579 68.1061 264.701 69.6611 262.901 71.2439C263.267 73.1645 263.993 75.0528 264.53 76.8993C265.427 79.9446 267.296 83.2536 266.154 86.4932C265.547 88.2009 264.65 89.1312 262.85 88.4971C261.161 87.9047 260.342 86.558 259.778 84.9521C258.95 82.6103 258.982 80.3287 258.867 77.8897C258.825 77.0382 258.853 76.1959 258.904 75.3536C258.126 75.9089 257.363 76.4921 256.609 77.0845C254.925 78.4081 252.523 79.4309 251.325 81.2358C250.465 82.527 250.192 84.6096 249.997 86.1322C249.59 89.3811 249.951 92.3939 250.386 95.6243Z" fill="#E7F7FF"/>
<path d="M258.279 119.745V119.769C258.279 120.833 259.889 120.801 259.963 119.782C259.968 119.755 259.968 119.732 259.968 119.708C259.972 117.607 260.236 115.469 260.662 113.326C261.106 111.091 261.731 108.856 262.415 106.657C263.243 103.982 264.173 101.363 264.983 98.8638C265.381 97.6467 265.797 96.4434 266.242 95.2447C268.069 90.2696 270.271 85.4565 272.839 80.8007C276.013 75.0388 279.409 69.2446 283.758 64.2833C285.419 62.3859 287.348 60.7892 289.171 59.0583C290.374 57.9152 291.558 56.7443 292.956 55.8419C293.132 55.5781 293.331 55.3282 293.553 55.0921C294.372 54.2267 295.292 53.6065 296.301 53.0465C295.727 53.1067 295.149 53.1761 294.57 53.2641C292.946 53.9305 291.503 54.782 290.823 55.3143C285.22 59.6785 280.519 65.0979 276.665 71.0356C271.96 78.2877 267.865 86.0026 264.858 94.1155C264.641 94.7171 264.409 95.3234 264.183 95.9389C262.975 99.1832 261.707 102.626 260.657 106.134C260.306 107.278 259.991 108.43 259.704 109.582C258.844 112.998 258.284 116.427 258.279 119.745Z" fill="#BCFFC3"/>
<path d="M259.611 106.958C261.189 104.529 263.873 107.745 264.516 109.383C265.765 112.572 265.973 119.782 265.603 121.759C266.066 121.231 266.547 120.717 267.046 120.208C267.972 119.273 268.892 118.339 269.808 117.399C268.666 115.714 266.056 112.243 266.616 106.074C266.709 105.038 266.931 103.668 267.962 103.159C269.401 102.451 269.697 104.117 269.855 105.176C270.123 106.991 270.623 113.266 271.016 116.168C272.862 114.294 274.703 112.415 276.559 110.55C275.004 106.93 273.135 102.529 274.389 98.5399C275.212 95.9251 277.401 97.7855 278.016 99.3822C279.122 102.242 278.932 105.76 278.215 108.888C279.09 108.013 279.969 107.143 280.852 106.278C281.01 106.121 281.172 105.968 281.329 105.81C280.408 104.098 279.344 102.552 279.053 100.562C278.766 98.6 279.427 96.7118 280.528 95.1105C281.019 94.4024 281.509 93.4815 282.43 93.2686C283.721 92.9678 283.328 94.4348 283.175 95.3142C282.851 97.1885 282.629 99.1184 282.513 101.011C282.453 102.053 282.361 103.029 282.203 104.033C282.162 104.292 282.162 104.649 282.162 105.01C283.429 103.793 284.729 102.594 286.053 101.423C285.599 98.1234 285.076 94.134 286.987 91.1675C288.246 89.2237 289.611 91.2276 289.759 92.6716C289.981 94.9069 289.305 97.3273 288.283 99.4886C288.866 98.9934 289.458 98.4982 290.05 98.0123C290.73 94.171 291.503 89.3996 294.728 86.7986C296.773 85.1418 297.554 87.8492 297.207 89.4875C296.86 91.0888 296.097 92.6392 295.112 94.06C295.389 93.8517 295.667 93.6481 295.949 93.4445C296.62 92.9539 297.305 92.4957 297.994 92.0607C298.124 88.7285 298.29 84.6744 300.71 82.0781C302.288 80.3796 303.282 82.601 303.176 84.045C303 86.3358 301.857 88.6591 300.432 90.6352C301.524 90.0336 302.635 89.4736 303.759 88.9275C304.282 86.2525 304.934 83.0222 307.201 81.2358C308.691 80.0649 309.218 81.9809 308.95 83.1379C308.557 84.8132 307.506 86.4099 306.257 87.7566C307.497 87.1781 308.737 86.6135 309.972 86.0211C310.606 84.9659 311.36 83.9108 312.036 83.0037C312.832 81.9346 313.887 80.8655 315.321 80.8285C317.213 80.7776 317.727 82.0642 316.834 83.6423C316.431 84.3597 315.839 84.878 315.154 85.276C315.899 85.3315 316.602 85.5352 317.102 85.9054C317.606 86.2849 317.787 86.6876 317.74 87.0717C317.676 87.7242 316.972 88.3074 316.149 88.5619C314.692 89.0108 313.1 88.6221 311.619 88.4971C311.161 88.4601 310.699 88.4786 310.231 88.5156C309.593 88.5665 308.95 88.6452 308.325 88.6591C307.506 89.0386 306.692 89.4181 305.873 89.8022C305.873 89.8022 305.873 89.8022 305.869 89.8022C308.071 89.4181 310.528 89.4135 312.48 90.2928C313.563 90.7833 314.761 92.3661 312.924 92.8336C309.977 93.5833 306.849 91.9357 304.342 90.6908L304.3 90.5473C303.93 90.7278 303.56 90.9129 303.185 91.098C303.162 91.1073 303.143 91.1166 303.13 91.1258C301.242 92.0838 299.391 93.1205 297.615 94.3284L297.61 94.333C298.378 94.2451 299.137 94.2405 299.872 94.3423C301.21 94.5274 303.032 95.8695 301.177 96.971C298.794 98.3918 295.792 98.165 293.08 97.7392C290.874 99.4886 288.713 101.307 286.617 103.191C289.009 102.043 291.785 101.247 294.288 101.594C295.722 101.793 297.675 103.233 295.69 104.413C292.502 106.31 288.278 105.463 284.91 104.876L284.859 104.797C283.887 105.695 282.93 106.607 281.99 107.527C281.528 107.981 281.07 108.435 280.612 108.893C280.612 108.893 280.612 108.893 280.607 108.897C283.873 107.236 287.644 106.028 290.985 106.357C292.891 106.542 295.431 108.356 292.71 110.031C288.361 112.711 282.782 111.827 278.322 111.221C278.322 111.221 278.322 111.221 278.317 111.225C277.031 112.535 275.754 113.859 274.477 115.173C277.836 114.682 284.734 113.248 286.996 112.97C288.056 112.84 290.573 112.817 290.166 114.59C289.939 115.571 288.107 116.589 287.209 116.908C285.206 117.626 277.563 117.76 272.487 117.195C272.487 117.195 272.487 117.195 272.483 117.2C271.567 118.13 270.646 119.051 269.707 119.963C269.36 120.301 269.022 120.643 268.693 120.986C273.602 119.824 283.332 118.19 285.775 118.709C287.02 118.973 288.981 119.718 288.852 121.277C288.718 122.892 286.284 123.068 285.072 123.462C282.273 124.369 273.038 123.832 271.345 123.485C270.035 123.216 268.73 122.656 267.454 122.323C267.44 122.337 267.426 122.356 267.417 122.37C266.704 123.175 266.024 123.994 265.367 124.827C265.446 124.836 265.529 124.841 265.608 124.85C269.725 125.206 278.516 125.433 281.324 125.743C282.629 125.887 285.645 126.562 284.66 128.576C284.114 129.686 281.634 130.39 280.468 130.519C278.044 130.797 269.883 129.085 263.997 127.146C263.891 127.113 263.785 127.076 263.678 127.039C261.633 129.821 259.732 132.704 257.599 135.564C256.956 136.429 255.554 135.508 256.197 134.638C259.274 130.506 261.814 126.183 265.131 122.305C261.282 117.672 258.899 108.055 259.611 106.958Z" fill="#78EA8A"/>
<path d="M241.193 142.381C241.554 142.918 243.067 142.413 243.714 142.335C245.486 142.127 247.272 142.205 249.053 141.983C251.302 141.719 253.717 141.627 255.98 141.738C256.202 141.747 256.433 141.766 256.66 141.793C257.474 141.877 258.307 142.066 258.991 142.437C259.898 142.923 260.555 143.709 260.62 144.982C260.726 147.06 258.237 149.573 256.951 150.985C255.225 152.891 253.342 154.858 252.496 157.316C251.88 159.074 252.209 161.041 253.315 162.568C254.985 164.864 257.099 165.285 259.783 165.234C263.146 165.174 266.154 163.494 269.05 161.958C271.951 160.416 274.907 158.348 277.507 156.33C279.691 154.627 281.787 152.669 283.841 150.753C281.958 150.323 280.098 149.781 278.229 149.078C276.068 148.268 273.547 146.731 276.212 144.644C277.706 143.464 280.047 143.385 281.921 143.321C284.642 143.247 287.427 143.214 290.115 143.64C290.42 143.695 290.73 143.737 291.036 143.76C291.424 143.339 291.808 142.909 292.183 142.469C293.747 140.622 295.176 138.711 296.523 136.753C294.908 136.249 293.155 136.073 292.1 136.193C290.513 136.374 287.778 137.17 286.585 135.86C284.882 133.995 287.158 132.847 288.708 132.227C290.837 131.394 293.034 131.704 295.26 131.621C296.046 131.593 296.81 131.589 297.568 131.616C298.984 131.672 300.335 131.015 301.103 129.821L301.117 129.802C302.783 127.21 304.994 123.864 308.011 122.661C308.339 122.532 308.672 122.425 309.019 122.346C310.315 122.055 311.545 122.055 312.822 122.161C312.253 121.856 311.67 121.564 311.078 121.291C311.074 121.291 311.074 121.291 311.074 121.291C306.026 118.936 300.21 117.695 294.728 117.126C294.705 117.126 294.686 117.121 294.663 117.121C293.229 116.973 291.85 117.709 291.091 118.936C290.874 119.292 290.642 119.648 290.402 120.009C289.393 121.509 287.968 124.304 286.053 124.684C285.114 124.869 284.642 124.36 284.433 123.605C284.142 122.559 284.364 121.037 284.586 120.236C284.748 119.644 285.03 119.125 285.363 118.63C285.692 118.149 286.062 117.691 286.404 117.223C286.085 117.237 285.77 117.246 285.456 117.251H285.451C283.226 117.297 281.01 117.219 278.766 117.408C278.386 117.441 278.002 117.478 277.618 117.51C275.583 117.695 273.528 117.904 271.507 118.163C271.266 118.19 271.021 118.223 270.785 118.251C270.641 118.588 270.507 118.926 270.387 119.273C270.211 119.741 270.054 120.218 269.906 120.69C269.679 121.416 269.471 122.147 269.258 122.874C269.101 123.416 268.943 123.952 268.777 124.475C268.717 124.66 268.661 124.85 268.606 125.04C268.31 126.077 268.064 127.173 267.768 128.266C267.134 130.589 266.302 132.857 264.326 134.324C262.711 135.522 261.314 135.823 260.042 134.115C259.778 133.759 259.57 133.398 259.422 133.023C259.093 132.209 259.029 131.353 259.116 130.478C259.167 129.973 259.264 129.464 259.399 128.941C260.083 126.271 261.532 124.184 262.938 121.87C263.225 121.393 263.53 120.935 263.849 120.491C264.072 120.171 264.307 119.861 264.539 119.551C264.136 119.565 263.734 119.584 263.322 119.607C262.665 119.639 262.008 119.681 261.346 119.727C260.898 119.759 260.43 119.769 259.954 119.764C259.403 119.759 258.839 119.741 258.27 119.727C256.748 119.699 255.216 119.732 253.907 120.273C252.311 120.93 250.77 122.684 249.65 123.962C247.249 126.701 245.713 129.7 244.117 132.949C243.076 135.069 242.002 137.304 241.517 139.614C241.415 140.187 240.837 141.853 241.193 142.381Z" fill="#E7F7FF"/>
<path d="M238.042 161.101C242.359 154.692 249.567 149.698 255.582 145.001C256.701 144.126 257.84 143.274 258.987 142.437C263.748 138.984 268.758 135.911 274.01 133.213C275.782 132.301 277.572 131.399 279.377 130.529C281.172 129.663 282.985 128.835 284.822 128.062C287.917 126.757 291.073 125.614 294.302 124.753C297.009 124.036 299.78 123.763 302.533 123.291C304.351 122.98 306.165 122.638 308.015 122.666C308.344 122.536 308.677 122.43 309.024 122.351C310.32 122.06 311.55 122.06 312.827 122.166C312.258 121.861 311.675 121.569 311.083 121.296C311.078 121.296 311.078 121.296 311.078 121.296C309.172 120.907 307.326 120.791 306.368 120.861C298.605 121.407 291.013 123.443 283.869 126.461C283.776 126.502 283.675 126.539 283.582 126.581C280.996 127.683 278.428 128.858 275.902 130.108C269.809 133.116 263.919 136.568 258.404 140.535C257.83 140.946 257.247 141.368 256.655 141.793C249.475 146.949 241.313 152.882 236.446 160.111C235.77 161.12 237.371 162.106 238.042 161.101Z" fill="#BCFFC3"/>
<path d="M153.708 187.902C170.429 187.902 183.984 186.143 183.984 183.973C183.984 181.803 170.429 180.044 153.708 180.044C136.986 180.044 123.431 181.803 123.431 183.973C123.431 186.143 136.986 187.902 153.708 187.902Z" fill="#F1F1F1"/>
<path d="M213.715 183.316C213.715 184.76 208.774 185.931 202.676 185.931C196.578 185.931 191.637 184.76 191.637 183.316C191.637 181.872 197.503 180.701 202.676 180.701C208.774 180.701 213.715 181.872 213.715 183.316Z" fill="#F1F1F1"/>
<path d="M250.624 183.636C251.388 180.122 236.116 173.816 216.512 169.552C196.908 165.287 180.397 164.68 179.633 168.194C178.869 171.708 194.142 178.014 213.745 182.278C233.349 186.542 249.86 187.15 250.624 183.636Z" fill="#F1F1F1"/>
<path d="M106.23 182.28C125.834 178.015 141.106 171.71 140.342 168.195C139.578 164.681 123.067 165.289 103.464 169.553C83.8599 173.817 68.5873 180.123 69.3513 183.637C70.1153 187.152 86.6265 186.544 106.23 182.28Z" fill="#F1F1F1"/>
<path d="M115.154 184.177C115.154 185.621 108.672 186.791 100.677 186.791C92.6822 186.791 86.2003 185.621 86.2003 184.177C86.2003 182.733 92.6822 181.562 100.677 181.562C108.672 181.557 115.154 182.728 115.154 184.177Z" fill="#F1F1F1"/>
<path d="M67.7584 185.301C67.7538 185.297 67.7445 185.292 67.7399 185.292C67.5965 185.213 67.4623 185.125 67.3282 185.028C67.2958 185.005 67.2634 184.982 67.2356 184.959C67.1014 184.862 66.9765 184.755 66.8516 184.644C66.8331 184.63 66.8192 184.612 66.8007 184.593C66.6943 184.491 66.5925 184.38 66.4907 184.269C66.4676 184.241 66.4445 184.214 66.4213 184.186C66.3149 184.056 66.2178 183.927 66.1252 183.783C66.1067 183.755 66.0928 183.728 66.0743 183.7C65.9957 183.575 65.9217 183.441 65.8523 183.307C65.8384 183.279 65.8245 183.251 65.8106 183.223C65.7366 183.071 65.6718 182.909 65.6117 182.742C65.5978 182.705 65.5885 182.668 65.5747 182.631C65.5238 182.478 65.4775 182.316 65.4405 182.154C65.4359 182.131 65.4312 182.113 65.4266 182.089C65.3896 181.909 65.3618 181.724 65.3387 181.534C65.3341 181.488 65.3294 181.446 65.3248 181.4C65.3063 181.205 65.2924 181.006 65.2971 180.803L65.5515 56.3418C65.5608 52.6764 68.6005 48.9323 72.3434 47.9743L133.767 32.2761C133.975 32.2206 134.183 32.1836 134.387 32.1465C134.442 32.1373 134.498 32.128 134.558 32.1234C134.72 32.1003 134.882 32.0818 135.039 32.0725C135.081 32.0679 135.127 32.0632 135.169 32.0632C135.363 32.054 135.553 32.054 135.742 32.0632C135.784 32.0632 135.83 32.0679 135.872 32.0725C136.02 32.0818 136.168 32.0956 136.316 32.1188C136.367 32.128 136.418 32.1327 136.464 32.1419C136.644 32.1743 136.82 32.2067 136.991 32.2576C137.001 32.2622 137.01 32.2622 137.019 32.2669C137.144 32.3039 137.269 32.3409 137.389 32.3826L133.998 31.1423C132.952 30.7581 131.712 30.7026 130.38 31.0404L68.9567 46.7387C65.2138 47.6967 62.1741 51.4407 62.1648 55.1061L61.9104 179.567C61.9057 181.927 63.1595 183.677 65.0565 184.371L68.4478 185.611C68.4108 185.597 68.3738 185.579 68.3368 185.565C68.2997 185.551 68.2627 185.533 68.2257 185.519C68.0638 185.454 67.9065 185.38 67.7584 185.301Z" fill="#B7CDAF"/>
<path d="M136.145 36.8764V37.9501L136.066 75.4092L136.025 96.101L135.951 133.56L135.895 160.028L86.6259 172.621L69.697 176.948L69.7017 174.842L69.7572 147.99L69.7988 127.891L69.8728 89.8347L69.9469 53.7964L136.145 36.8764Z" fill="#FAFDFF"/>
<path d="M136.145 37.9501L136.066 75.4092L69.7988 127.891L69.8729 89.8347L136.145 37.9501Z" fill="#DBFFE1"/>
<path d="M136.025 96.101L135.951 133.56L86.626 172.62L69.6971 176.948L69.7017 174.842L69.7572 147.99L136.025 96.101Z" fill="#DBFFE1"/>
<path d="M137.019 32.2623C137.01 32.2576 137.001 32.2576 136.992 32.253C136.82 32.2067 136.645 32.1697 136.464 32.1373C136.413 32.1281 136.362 32.1234 136.316 32.1142C136.173 32.0957 136.025 32.0772 135.872 32.0679C135.83 32.0633 135.789 32.0586 135.742 32.0586C135.553 32.0494 135.363 32.0494 135.169 32.0586C135.127 32.0586 135.081 32.0679 135.039 32.0679C134.882 32.0772 134.72 32.0957 134.558 32.1188C134.502 32.1281 134.447 32.1327 134.387 32.1419C134.183 32.1743 133.975 32.216 133.767 32.2715L72.3435 47.9697C68.6005 48.9277 65.5608 52.6718 65.5516 56.3372L65.2971 180.798C65.2971 181.002 65.311 181.201 65.3248 181.395C65.3295 181.442 65.3341 181.483 65.3387 181.529C65.3619 181.719 65.3896 181.904 65.4266 182.085C65.4313 182.108 65.4359 182.126 65.4405 182.15C65.4775 182.312 65.5238 182.474 65.5747 182.626C65.5886 182.663 65.5978 182.7 65.6117 182.737C65.6718 182.904 65.7366 183.066 65.8106 183.219C65.8245 183.246 65.8384 183.274 65.8523 183.302C65.9217 183.436 65.9957 183.57 66.0744 183.695C66.0929 183.723 66.1067 183.751 66.1253 183.779C66.2178 183.917 66.3149 184.052 66.4214 184.181C66.4445 184.209 66.4676 184.237 66.4908 184.265C66.5879 184.38 66.6897 184.487 66.8007 184.589C66.8193 184.602 66.8331 184.621 66.8516 184.639C66.9719 184.751 67.1015 184.857 67.2357 184.954C67.268 184.977 67.3004 185 67.3282 185.024C67.4624 185.116 67.5965 185.204 67.74 185.287C67.7446 185.292 67.7538 185.297 67.7585 185.297C67.9065 185.38 68.0592 185.449 68.2211 185.519C68.2581 185.533 68.2952 185.551 68.3322 185.565C69.4009 185.986 70.6825 186.065 72.0612 185.713L133.485 170.015C137.227 169.057 140.267 165.313 140.276 161.648L140.531 37.1865C140.536 34.6688 139.115 32.85 137.019 32.2623ZM69.697 174.842L69.9469 53.7964L136.145 36.8764L135.895 160.028L69.697 176.948V174.842Z" fill="#589441"/>
<path d="M114.751 168.552C115.487 168.363 116.079 168.798 116.079 169.515C116.079 170.232 115.482 170.968 114.747 171.153L90.8176 177.267C90.082 177.457 89.4898 177.026 89.4898 176.309C89.4898 175.592 90.0866 174.856 90.8223 174.666L114.751 168.552Z" fill="#B7CDAF"/>
<path d="M248.864 185.019C248.868 185.014 248.878 185.01 248.882 185.01C249.026 184.931 249.16 184.843 249.294 184.746C249.326 184.723 249.359 184.7 249.386 184.676C249.521 184.579 249.646 184.473 249.77 184.362C249.789 184.348 249.803 184.329 249.821 184.311C249.928 184.209 250.03 184.098 250.131 183.987C250.154 183.959 250.178 183.931 250.201 183.904C250.307 183.774 250.404 183.644 250.497 183.501C250.515 183.473 250.529 183.445 250.548 183.418C250.626 183.293 250.7 183.158 250.77 183.024C250.784 182.997 250.798 182.969 250.811 182.941C250.885 182.788 250.95 182.626 251.01 182.46C251.024 182.423 251.034 182.386 251.047 182.349C251.098 182.196 251.145 182.034 251.182 181.872C251.186 181.849 251.191 181.83 251.195 181.807C251.232 181.627 251.26 181.442 251.283 181.252C251.288 181.205 251.293 181.164 251.297 181.118C251.316 180.923 251.33 180.724 251.325 180.521L251.071 56.0595C251.061 52.3941 248.022 48.65 244.279 47.692L182.855 31.9985C182.647 31.9429 182.439 31.9059 182.235 31.8689C182.18 31.8596 182.124 31.8504 182.064 31.8457C181.902 31.8226 181.74 31.8041 181.583 31.7948C181.541 31.7902 181.495 31.7856 181.453 31.7856C181.259 31.7763 181.069 31.7763 180.88 31.7856C180.838 31.7856 180.792 31.7902 180.75 31.7948C180.602 31.8041 180.454 31.818 180.306 31.8411C180.255 31.8504 180.204 31.855 180.158 31.8642C179.978 31.8966 179.802 31.929 179.631 31.9799C179.621 31.9846 179.612 31.9846 179.603 31.9892C179.478 32.0262 179.353 32.0632 179.233 32.1049L182.624 30.8646C183.67 30.4805 184.91 30.4249 186.242 30.7628L247.665 46.461C251.408 47.419 254.448 51.163 254.457 54.8284L254.712 179.289C254.716 181.65 253.463 183.399 251.566 184.093L248.174 185.334C248.211 185.32 248.248 185.301 248.285 185.287C248.322 185.273 248.359 185.255 248.396 185.241C248.558 185.172 248.716 185.102 248.864 185.019Z" fill="#62E988"/>
<path d="M246.925 175.934V176.665L180.727 159.745L180.685 138.887L180.621 107.676L180.565 79.6392L180.5 48.4279L180.477 36.5941L246.675 53.5141L246.735 82.7215L246.805 116.686L246.856 141.965L246.92 174.56L246.925 175.934Z" fill="#FAFDFF"/>
<path d="M246.805 104.908L180.565 67.8609L180.5 36.6496L246.735 70.9432L246.805 104.908Z" fill="#DBFFE1"/>
<path d="M246.925 162.754L180.685 125.706L180.621 94.4951L246.856 128.779L246.92 161.374L246.925 162.754Z" fill="#DBFFE1"/>
<path d="M176.091 36.8995L176.346 161.361C176.355 165.026 179.395 168.77 183.138 169.728L244.561 185.426C245.94 185.778 247.221 185.699 248.29 185.278C248.327 185.264 248.364 185.246 248.401 185.232C248.558 185.167 248.716 185.093 248.864 185.01C248.868 185.005 248.877 185 248.882 185C249.026 184.922 249.16 184.834 249.294 184.737C249.326 184.713 249.359 184.69 249.386 184.667C249.521 184.57 249.646 184.464 249.77 184.352C249.789 184.339 249.803 184.32 249.821 184.302C249.928 184.2 250.03 184.089 250.131 183.978C250.154 183.95 250.178 183.922 250.201 183.894C250.307 183.765 250.404 183.631 250.497 183.492C250.515 183.464 250.529 183.436 250.548 183.408C250.626 183.283 250.7 183.149 250.77 183.015C250.784 182.987 250.798 182.959 250.811 182.932C250.885 182.779 250.95 182.617 251.01 182.45C251.024 182.413 251.034 182.376 251.047 182.339C251.098 182.187 251.145 182.025 251.182 181.863C251.186 181.839 251.191 181.821 251.195 181.798C251.232 181.617 251.26 181.432 251.283 181.242C251.288 181.196 251.293 181.155 251.297 181.108C251.316 180.914 251.33 180.715 251.325 180.511L251.071 56.0502C251.061 52.3848 248.022 48.6408 244.279 47.6828L182.855 31.9985C182.647 31.9429 182.439 31.9059 182.235 31.8689C182.18 31.8596 182.124 31.8504 182.064 31.8457C181.902 31.8226 181.74 31.8041 181.583 31.7948C181.541 31.7902 181.495 31.7856 181.453 31.7856C181.259 31.7763 181.069 31.7763 180.88 31.7856C180.838 31.7856 180.792 31.7902 180.75 31.7948C180.602 31.8041 180.454 31.818 180.306 31.8411C180.255 31.8504 180.204 31.855 180.158 31.8642C179.978 31.8966 179.802 31.929 179.631 31.9799C179.621 31.9846 179.612 31.9846 179.603 31.9892C177.507 32.5723 176.087 34.3911 176.091 36.8995ZM246.925 176.665L180.727 159.745L180.477 36.5941L246.675 53.5141L246.925 174.56V176.665Z" fill="#71DB82"/>
<path d="M201.871 168.275C201.135 168.085 200.543 168.52 200.543 169.237C200.543 169.955 201.14 170.691 201.875 170.876L225.804 176.994C226.54 177.184 227.132 176.753 227.132 176.036C227.132 175.319 226.535 174.583 225.8 174.393L201.871 168.275Z" fill="#A2FCC6"/>
<path d="M179.677 128.983L178.224 128.492L179.14 129.256C179.649 129.682 180.13 130.154 180.575 130.649L181.264 131.427C181.426 131.69 181.111 132.028 180.801 131.834L178.742 130.01L179.922 131.228L181.107 132.584C181.343 132.917 180.898 133.204 180.686 132.991L179.608 131.885L178.178 130.626L178.988 131.801C179.163 132.061 179.307 132.338 179.409 132.635L179.742 133.643C179.709 134.143 179.441 134.088 179.131 133.893L178.793 133.023C178.664 132.69 178.483 132.389 178.252 132.13L177.322 131.08L178.146 133.583C178.196 133.963 177.595 134.055 177.526 133.685C177.262 132.667 176.475 131.288 176.475 131.288C175.388 130.904 174.435 130.219 173.732 129.321L172.769 128.085L172.321 127.724L174.134 125.679C174.472 126.1 174.801 126.53 175.12 126.979L175.67 127.002C176.508 127.03 177.331 127.238 178.085 127.595L179.857 128.442C180.167 128.622 180.103 129.034 179.677 128.983Z" fill="#EBA187"/>
<path d="M119.216 126.428L120.72 126.123L119.716 126.762C119.156 127.123 118.619 127.53 118.115 127.965L117.333 128.65C117.139 128.89 117.407 129.265 117.74 129.113L120.016 127.562L118.693 128.622L117.347 129.816C117.074 130.117 117.476 130.459 117.712 130.274L118.92 129.316L120.498 128.247L119.545 129.312C119.336 129.548 119.161 129.807 119.022 130.084L118.564 131.042C118.536 131.547 118.804 131.519 119.137 131.366L119.582 130.547C119.753 130.237 119.97 129.955 120.234 129.728L121.289 128.803L120.155 131.181C120.058 131.552 120.646 131.718 120.757 131.362C121.145 130.385 122.103 129.117 122.103 129.117C123.227 128.877 124.264 128.317 125.073 127.511L126.184 126.405L126.674 126.104L125.134 123.846C124.745 124.221 124.366 124.61 123.991 125.012L123.44 124.961C122.607 124.883 121.761 124.984 120.97 125.244L119.105 125.859C118.777 126.007 118.786 126.424 119.216 126.428Z" fill="#EBA187"/>
<path d="M155.85 98.5585L164.266 114.919L175.124 126.377L173.015 128.423L160.583 118.959C159.028 117.612 157.751 115.978 156.821 114.146L150.33 101.372C149.715 100.164 149.96 98.702 150.922 97.7532C152.417 96.3047 154.897 96.7027 155.85 98.5585Z" fill="#094A28"/>
<path d="M153.287 93.2965L152.773 95.1199L152.579 95.8187C152.296 96.8277 150.987 98.0633 149.192 96.2584C148.854 95.9206 148.887 95.3328 149.03 94.8237L150.187 90.6863L150.284 90.7696L153.287 93.2965Z" fill="#EBA187"/>
<path d="M153.287 93.2965L152.773 95.1199C151.33 94.6987 150.256 93.1391 150.256 91.2786C150.256 91.1028 150.265 90.9362 150.284 90.7649L153.287 93.2965Z" fill="#E06F47"/>
<path d="M171.219 180.544L167.009 161.499L159.764 135.791L156.974 122.083H145.31L139.222 154.363L128.293 179.377L130.371 180.78L140.984 164.494C142.331 162.43 143.196 161.189 144.223 158.871H144.228L144.265 158.778C144.727 157.723 152.25 141.534 152.25 141.534C152.25 141.534 163.012 164.545 164.321 168.307L168.753 181.03L171.219 180.544Z" fill="#B7CDAF"/>
<path d="M134.461 183.695L131.935 183.024L130.598 180.354L130.209 180.173C129.575 179.757 128.978 179.368 128.465 179.026L128.446 179.1C125.971 180.576 126.91 182.062 130.001 184.667C130.491 185.079 133.013 185.352 134.438 185.084C134.447 185.084 134.456 185.079 134.465 185.079C135.183 184.922 135.164 183.88 134.461 183.695Z" fill="#094A28"/>
<path d="M168.596 180.868C168.166 184.579 171.141 183.95 177.748 182.261C178.664 182.015 179.062 180.886 177.377 180.798L170.988 180.044C170.118 180.317 168.596 180.868 168.596 180.868Z" fill="#094A28"/>
<path d="M160.629 135.666C160.629 135.666 159.949 135.782 158.811 135.934C154.975 136.443 148.294 137.184 142.779 135.476C144.241 125.975 144.612 116.339 143.992 106.745C143.885 105.084 143.857 103.719 143.969 103.043C144.436 100.326 146.578 97.2256 147.309 96.5916C147.665 96.2862 148.063 95.8326 148.378 95.4392C148.715 95.0227 148.961 94.6849 148.961 94.6849C148.961 94.6849 152.061 95.1245 153.925 97.2673C154.304 97.707 155.341 99.063 155.79 99.7988C156.243 100.553 156.715 101.409 157.159 102.266C158.691 105.195 159.301 108.518 158.931 111.808L158.866 112.382C158.792 113.063 158.307 119.5 158.307 119.5L160.629 135.666Z" fill="#094A28"/>
<path d="M147.443 90.9177C147.022 90.1263 146.939 88.9415 147.614 88.6777C147.813 88.599 148.072 88.6083 148.336 88.6777C148.193 86.1138 149.201 82.9112 150.881 82.254C153.083 81.3886 155.345 81.9532 157.33 87.8308C158.117 90.1541 157.233 93.1114 155.128 94.1619C153.546 94.9487 151.103 93.6899 149.659 92.0284C148.863 92.0284 147.98 91.922 147.443 90.9177Z" fill="#EBA187"/>
<path d="M155.54 88.7194C155.475 88.6731 155.396 88.6499 155.327 88.7194C155.304 88.7425 155.299 88.7841 155.299 88.8258L155.461 89.0618C155.715 89.3626 155.79 89.6079 155.771 89.7745C155.766 89.8301 155.752 89.881 155.725 89.918C155.628 90.0661 155.415 90.1078 155.17 90.0337C155.16 90.0337 155.146 90.0291 155.137 90.0245C155.072 90.0013 154.994 90.0383 154.966 90.1031C154.966 90.1078 154.961 90.117 154.961 90.1216C154.947 90.1818 154.975 90.242 155.035 90.2651C155.285 90.3484 155.517 90.3438 155.692 90.2651C155.794 90.2188 155.877 90.1494 155.938 90.0522C156.007 89.9458 156.035 89.8254 156.03 89.6959C156.025 89.4506 155.896 89.1683 155.66 88.8906L155.54 88.7194Z" fill="#094A28"/>
<path d="M151.866 87.7707C151.922 87.7614 151.968 87.7198 151.982 87.6596C152.222 86.7386 153.032 86.9006 153.069 86.9052C153.148 86.9238 153.226 86.8682 153.24 86.7895C153.259 86.7109 153.208 86.6276 153.129 86.6137C152.745 86.5304 151.949 86.6322 151.699 87.5809C151.676 87.6596 151.723 87.7429 151.801 87.7614C151.824 87.7753 151.843 87.7753 151.866 87.7707Z" fill="#094A28"/>
<path d="M154.938 91.4407C154.906 91.399 154.846 91.3759 154.785 91.3898C153.86 91.6119 153.62 90.8252 153.61 90.7881C153.587 90.7095 153.504 90.6678 153.425 90.691C153.347 90.7141 153.3 90.7974 153.323 90.8761C153.435 91.2556 153.897 91.9081 154.855 91.6767C154.934 91.6582 154.984 91.5795 154.966 91.5009C154.961 91.4731 154.947 91.4546 154.938 91.4407Z" fill="#094A28"/>
<path d="M155.142 86.2342C155.183 86.2573 155.234 86.2573 155.276 86.2296C155.919 85.776 156.345 86.336 156.363 86.3591C156.405 86.4147 156.479 86.4239 156.534 86.3823C156.59 86.3406 156.599 86.2619 156.557 86.2064C156.359 85.938 155.803 85.5539 155.137 86.0213C155.082 86.0583 155.068 86.137 155.105 86.1972C155.114 86.2157 155.128 86.2249 155.142 86.2342Z" fill="#094A28"/>
<path d="M145.417 99.0769L135.391 114.507L123.431 124.813L125.323 127.062L138.643 118.903C140.323 117.723 141.762 116.224 142.872 114.493L150.617 102.441C151.348 101.303 151.255 99.822 150.39 98.7807C149.058 97.1794 146.555 97.3275 145.417 99.0769Z" fill="#094A28"/>
<path d="M156.039 100.914C155.998 100.812 155.85 100.9 155.891 101.002C158.223 106.361 158.256 112.22 158.209 117.959C158.209 118.07 158.38 118.07 158.38 117.959C158.422 112.179 158.385 106.306 156.039 100.914Z" fill="#094A28"/>
<path d="M151.168 98.2207C151.149 98.1142 150.982 98.1605 151.001 98.267C151.552 101.4 149.96 103.594 148.294 106.037C146.828 108.185 145.366 110.332 143.899 112.48C143.839 112.572 143.987 112.655 144.047 112.568C145.884 109.874 147.739 107.199 149.553 104.492C150.89 102.502 151.589 100.632 151.168 98.2207Z" fill="#094A28"/>
<path d="M152.125 97.0127C150.932 96.8461 149.84 96.4065 148.859 95.703C148.771 95.6382 148.683 95.7863 148.771 95.8511C149.761 96.5638 150.871 97.0081 152.079 97.1793C152.19 97.1932 152.236 97.0266 152.125 97.0127Z" fill="#094A28"/>
<path d="M153.467 97.0914H153.014C152.903 97.0914 152.903 97.2627 153.014 97.2627H153.467C153.578 97.2627 153.578 97.0914 153.467 97.0914Z" fill="#094A28"/>
<path d="M158.024 135.356C155.604 135.532 153.18 135.624 150.756 135.606C148.341 135.587 145.514 135.772 143.247 134.865C143.145 134.824 143.099 134.99 143.2 135.032C145.329 135.879 147.841 135.731 150.094 135.768C152.741 135.809 155.382 135.717 158.024 135.522C158.135 135.518 158.135 135.347 158.024 135.356Z" fill="#094A28"/>
<path d="M159.033 134.106C156.012 134.958 152.949 135.226 149.83 134.921C149.719 134.912 149.724 135.083 149.83 135.092C152.972 135.402 156.044 135.129 159.079 134.273C159.186 134.24 159.139 134.074 159.033 134.106Z" fill="#094A28"/>
<path d="M147.813 136.679C146.49 137.605 145 138.086 143.386 138.1C143.275 138.1 143.275 138.271 143.386 138.271C144.177 138.262 144.94 138.146 145.671 137.92C145.426 138.836 144.963 139.641 144.288 140.312C144.209 140.391 144.329 140.511 144.408 140.433C145.13 139.715 145.62 138.841 145.865 137.855C146.578 137.614 147.258 137.276 147.897 136.828C147.989 136.763 147.906 136.615 147.813 136.679Z" fill="#094A28"/>
<path d="M154.85 137.031C154.415 138.308 154.124 141.344 152.283 141.122C152.172 141.108 152.176 141.28 152.283 141.294C154.314 141.539 154.559 138.406 155.012 137.077C155.049 136.976 154.887 136.929 154.85 137.031Z" fill="#094A28"/>
<path d="M141.507 158.19C141.391 158.76 141.23 159.31 141.021 159.852C140.984 159.954 141.146 160 141.188 159.898C141.391 159.357 141.553 158.806 141.674 158.237C141.692 158.13 141.53 158.084 141.507 158.19Z" fill="#094A28"/>
<path d="M142.405 159.074C142.164 159.421 141.928 159.769 141.688 160.111C141.627 160.204 141.771 160.287 141.836 160.199C142.076 159.852 142.312 159.505 142.553 159.162C142.613 159.07 142.465 158.986 142.405 159.074Z" fill="#094A28"/>
<path d="M165.556 162.467C165.154 162.161 164.756 161.851 164.353 161.546C164.266 161.481 164.182 161.629 164.266 161.694C164.668 161.999 165.071 162.309 165.469 162.615C165.556 162.68 165.64 162.531 165.556 162.467Z" fill="#094A28"/>
<path d="M165.977 160.99C165.903 161.499 165.871 162.013 165.885 162.527C165.89 162.638 166.061 162.638 166.056 162.527C166.042 162.027 166.07 161.532 166.139 161.037C166.158 160.93 165.996 160.884 165.977 160.99Z" fill="#094A28"/>
<path d="M159.112 84.4107C158.496 84.4246 158.089 84.2441 157.742 83.7165C156.891 82.4253 156.345 81.0184 154.864 80.3473C153.462 79.7133 151.926 80.6713 150.802 81.4904C150.557 81.6709 150.312 81.9717 150.191 82.2633C150.08 82.5364 150.15 82.7909 149.891 82.8881C149.71 82.9529 149.423 82.8881 149.229 82.9344C148.91 83.0084 148.604 83.1611 148.322 83.3231C147.702 83.6702 147.226 84.3366 147.022 85.0679L147.017 84.9753C146.564 85.6556 146.694 87.1042 146.934 87.8401C147.078 88.2843 147.425 88.7333 147.873 88.8628C148.331 88.9924 148.669 89.0526 148.97 89.5061C149.201 89.8532 149.386 90.404 149.437 90.8205C150.117 89.4969 150.404 87.9048 150.076 86.4193C150.487 86.845 151.292 86.6877 151.704 86.3498C152.056 86.0629 152.301 85.6973 152.755 85.5723C153.199 85.452 153.634 85.4613 154.082 85.4381C154.115 85.2067 153.782 85.0216 153.652 84.855C154.221 84.8365 154.813 84.8411 155.355 85.0447C155.794 85.2113 156.183 85.5029 156.604 85.6834C157.09 85.887 157.724 85.9102 158.232 85.7945C159.384 85.5307 160.041 84.6791 160.777 83.8322C160.407 84.2487 159.644 84.3968 159.112 84.4107Z" fill="#094A28"/>
<path d="M153.819 88.2705C153.819 88.5481 153.597 88.7703 153.319 88.7703C153.041 88.7703 152.819 88.5481 152.819 88.2705C152.819 87.9928 153.041 87.7706 153.319 87.7706C153.597 87.7706 153.819 87.9974 153.819 88.2705Z" fill="#094A28"/>
<path d="M156.539 87.5161C156.539 87.7937 156.317 88.0159 156.039 88.0159C155.762 88.0159 155.54 87.7937 155.54 87.5161C155.54 87.2384 155.762 87.0162 156.039 87.0162C156.317 87.0162 156.539 87.2384 156.539 87.5161Z" fill="#094A28"/>
<path d="M228.821 172.426L223.884 171.186C223.371 169.649 222.89 168.08 222.478 166.553C221.654 163.476 221.118 160.606 221.289 158.662L215.913 141.779V141.775L211.957 129.349C210.62 126.081 208.751 127.65 209.597 123.499L218.305 121.037C218.305 121.037 220.368 129.534 222.057 136.476C224.171 145.149 226.61 155.066 226.901 155.798C227.225 156.626 227.475 159.889 227.859 164.036C228.104 166.613 228.405 169.529 228.821 172.426Z" fill="#094A28"/>
<path d="M214.77 132.139C215.112 135.55 215.552 138.998 215.917 141.775V141.779C216.306 144.746 216.611 146.94 216.616 147.486C216.644 149.832 215.95 152.128 214.636 154.071L205.012 168.289L197.869 178.85L195.824 177.17C195.875 177.119 195.903 177.087 195.903 177.087C195.903 177.087 198.378 169.251 200.187 165.438C203.518 158.422 207.428 150.948 209.653 149.129C209.653 149.129 207.511 137.221 206.206 134.203C204.568 130.413 204.564 127.493 205.174 125.332C206.155 121.87 208.043 120.019 208.043 120.019L218.587 121.018C218.208 125.48 217.028 129.27 214.77 132.139Z" fill="#094A28"/>
<path d="M201.098 184.218C201.098 184.218 198.049 183.89 197.175 183.691C196.874 183.626 196.601 183.464 196.398 183.237C194.774 181.428 193.918 180.016 194.186 178.933C194.219 178.817 195.495 177.508 195.829 177.17L197.874 178.85L197.804 178.952L198.822 181.826L201.311 182.83C202.019 183.117 201.857 184.158 201.098 184.218Z" fill="#094A28"/>
<path d="M177.47 128.779L178.941 128.354L177.993 129.076C177.465 129.478 176.966 129.927 176.498 130.404L175.772 131.149C175.596 131.408 175.897 131.755 176.216 131.575L178.358 129.844L177.128 131.01L175.883 132.311C175.633 132.635 176.064 132.94 176.281 132.736L177.41 131.681L178.895 130.487L178.035 131.626C177.845 131.876 177.692 132.149 177.576 132.436L177.197 133.426C177.206 133.93 177.475 133.884 177.794 133.704L178.169 132.852C178.312 132.528 178.506 132.232 178.752 131.982L179.728 130.973L178.793 133.435C178.729 133.81 179.325 133.93 179.404 133.565C179.709 132.56 180.561 131.218 180.561 131.218C181.662 130.885 182.647 130.242 183.388 129.376L184.405 128.187L184.868 127.849L183.147 125.725C182.791 126.128 182.444 126.549 182.101 126.979L181.551 126.974C180.713 126.965 179.881 127.132 179.113 127.456L177.304 128.219C176.998 128.4 177.04 128.816 177.47 128.779Z" fill="#E58666"/>
<path d="M208.427 99.9839C207.765 101.136 207.955 102.589 208.894 103.534L218.735 113.442C219.795 114.511 221.581 114.298 222.362 113.016L228.516 102.913L225.546 101.997L220.748 107.847L213.179 99.4748C211.828 97.9892 209.426 98.2438 208.427 99.9839Z" fill="#E58666"/>
<path d="M227.484 103.538C227.479 103.497 227.475 103.46 227.47 103.423C227.465 103.353 227.461 103.284 227.456 103.214C227.475 103.177 227.484 103.14 227.484 103.089C227.53 101.368 227.368 99.6831 227.003 98.0077C226.952 97.5033 226.869 97.0127 226.683 96.6471C226.637 96.5592 226.535 96.5036 226.438 96.5083C226.225 96.5129 226.096 96.5592 225.86 96.6147C225.791 96.6332 225.73 96.6841 225.693 96.7535C225.633 96.7859 225.592 96.8415 225.578 96.9248C225.337 98.5862 223.847 103.45 225.661 104.853C225.86 105.084 226.142 105.223 226.535 105.19C227.382 105.126 227.549 104.256 227.484 103.538Z" fill="#95FFB9"/>
<path d="M226.554 98.4937C226.563 98.3826 226.392 98.3872 226.383 98.4937C226.207 100.262 226.198 102.025 226.364 103.793C226.374 103.899 226.545 103.904 226.535 103.793C226.369 102.025 226.378 100.262 226.554 98.4937Z" fill="#094A28"/>
<path d="M227.401 103.001L228.345 103.14L229.561 101.15C229.561 101.15 230.371 99.8358 228.752 98.7713C227.794 98.1419 226.591 98.0216 225.495 98.3456L224.625 98.6047C224.625 98.6047 223.991 99.4887 226.665 99.2388C226.665 99.2388 224.597 99.1555 224.541 99.9839C224.541 99.9839 224.208 100.896 227.304 100.067C227.304 100.067 224.764 100.262 224.569 101.257C224.569 101.257 224.541 102.141 227.521 101.09C227.433 101.099 227.442 101.456 227.401 103.001Z" fill="#E58666"/>
<path d="M226.489 93.3797C226.679 93.3658 238.255 87.5947 238.255 87.5947V101.752L226.591 97.6699C224.787 97.8087 224.56 93.5417 226.489 93.3797Z" fill="#CBFFDA"/>
<path d="M240.24 94.6108C240.24 98.5585 239.43 101.756 238.431 101.756C237.639 101.756 236.964 99.7432 236.719 96.9387C236.654 96.2074 236.622 95.4253 236.622 94.6108C236.622 93.5602 236.677 92.5606 236.784 91.6581C237.066 89.1914 237.7 87.4697 238.431 87.4697C239.425 87.4697 240.24 90.6677 240.24 94.6108Z" fill="#95FFB9"/>
<path d="M238.722 94.2961C238.722 95.6382 237.857 96.7443 236.719 96.9387C236.654 96.2074 236.622 95.4253 236.622 94.6108C236.622 93.5602 236.677 92.5606 236.784 91.6581C237.885 91.8802 238.722 92.9771 238.722 94.2961Z" fill="#CBFFDA"/>
<path d="M226.758 97.7995H225.578C224.329 97.7995 223.315 96.7859 223.315 95.5364C223.315 94.2868 224.329 93.2733 225.578 93.2733H226.758C225.365 94.8653 225.485 96.3694 226.758 97.7995Z" fill="#95FFB9"/>
<path d="M235.789 89.2792C232.939 90.6445 230.098 92.0283 227.271 93.4352C227.174 93.4861 227.257 93.6296 227.359 93.5833C230.19 92.181 233.027 90.7926 235.877 89.4273C235.974 89.3811 235.886 89.233 235.789 89.2792Z" fill="#094A28"/>
<path d="M237.723 100.747C236.15 96.9571 236.51 92.5976 237.459 88.71C237.487 88.6036 237.32 88.5573 237.292 88.6637C236.335 92.5929 235.969 96.9664 237.556 100.794C237.598 100.891 237.764 100.849 237.723 100.747Z" fill="#094A28"/>
<path d="M238.565 88.5388C238.518 88.4416 238.37 88.5249 238.417 88.6267C238.801 89.4089 239 90.2326 239.018 91.1027C239.023 91.2138 239.189 91.2138 239.189 91.1027C239.166 90.2049 238.958 89.3441 238.565 88.5388Z" fill="#094A28"/>
<path d="M239.305 89.6541C239.277 89.5477 239.111 89.594 239.138 89.7004C239.411 90.7464 239.536 91.8062 239.513 92.8845C239.513 92.9956 239.68 92.9956 239.684 92.8845C239.708 91.7877 239.578 90.714 239.305 89.6541Z" fill="#094A28"/>
<path d="M237.565 92.8058C237.487 92.7318 237.362 92.8521 237.445 92.9261C238.042 93.4722 238.037 94.8606 237.649 95.4993C237.593 95.5919 237.741 95.6798 237.797 95.5872C238.232 94.8653 238.227 93.4121 237.565 92.8058Z" fill="#094A28"/>
<path d="M226.864 97.8041C225.582 96.8414 225.37 95.1661 226.313 93.8888C226.378 93.8008 226.23 93.7129 226.165 93.8008C225.161 95.1661 225.43 96.9386 226.776 97.9522C226.864 98.017 226.947 97.8689 226.864 97.8041Z" fill="#094A28"/>
<path d="M227.748 98.776C227.012 98.8176 226.313 99.0027 225.61 99.2064C225.504 99.2341 225.55 99.4008 225.656 99.373C226.346 99.1786 227.031 98.9935 227.748 98.9518C227.859 98.9379 227.859 98.7667 227.748 98.776Z" fill="#094A28"/>
<path d="M227.614 99.7386C226.92 99.8821 226.239 100.072 225.569 100.308C225.467 100.345 225.508 100.507 225.615 100.474C226.286 100.238 226.966 100.053 227.66 99.9098C227.766 99.8821 227.725 99.7155 227.614 99.7386Z" fill="#094A28"/>
<path d="M228.877 100.28C228.423 100.558 227.956 100.798 227.465 101.011C227.461 101.016 227.461 101.021 227.456 101.025C227.405 101.011 227.345 101.03 227.35 101.099C227.368 101.298 227.391 101.502 227.41 101.701C227.41 101.867 227.415 102.034 227.415 102.205C227.415 102.298 227.563 102.326 227.581 102.228C227.59 102.182 227.6 102.136 227.609 102.085C227.609 102.085 227.609 102.085 227.614 102.08C227.738 101.761 227.84 101.432 227.923 101.099C227.933 101.058 227.91 101.021 227.877 101.007C228.247 100.831 228.608 100.646 228.96 100.433C229.057 100.373 228.969 100.225 228.877 100.28Z" fill="#094A28"/>
<path d="M211.37 98.3411C211.384 98.3411 211.389 98.3411 211.389 98.3411C211.375 98.3364 211.365 98.3364 211.351 98.3364C211.351 98.3364 211.351 98.3364 211.356 98.3411C211.356 98.3411 211.36 98.3364 211.37 98.3411Z" fill="#E58666"/>
<path d="M218.596 121.032L218.592 121.018L208.043 120.014C208.173 119.584 208.247 119.13 208.242 118.676C208.228 117.07 207.326 115.469 206.484 114.15C206.215 113.734 205.942 113.34 205.656 112.938C205.281 112.419 204.901 111.924 204.513 111.42C204.18 111.012 203.856 110.596 203.523 110.179C202.56 108.939 202.195 107.426 201.695 105.963C200.946 103.7 201.381 101.261 203.282 99.7849C203.476 99.6368 203.694 99.5165 203.93 99.4193C204.203 99.2897 204.504 99.2064 204.79 99.1277C205.008 99.0629 205.239 99.0028 205.438 98.9472C206.729 98.614 208.066 98.4752 209.394 98.3271C209.537 98.3132 209.69 98.2854 209.833 98.2808C210.435 98.1975 210.948 98.1697 211.522 98.6001C212.818 99.5813 214.127 100.576 215.409 101.599C216.903 102.798 217.796 103.964 218.286 105.019C218.309 105.079 218.337 105.135 218.36 105.19C218.388 105.931 218.226 106.644 217.902 107.278C217.925 107.287 217.953 107.305 217.949 107.347C217.875 108.856 218.032 110.351 218.18 111.841C218.231 113.155 218.286 114.47 218.342 115.793C218.411 117.538 218.499 119.283 218.596 121.032Z" fill="#63F069"/>
<path d="M202.218 100.91L194.695 112.711C193.983 113.826 193.173 114.877 192.271 115.849L182.023 126.891C182.162 127.164 184.466 128.284 184.466 128.284L195.551 118.903C196.874 117.783 198.059 116.515 199.081 115.118L206.706 104.853C207.733 103.455 207.691 100.854 206.206 99.9608C204.841 99.1509 203.074 99.5674 202.218 100.91Z" fill="#E58666"/>
<path d="M209.482 92.6161C209.722 92.5328 209.972 92.7179 209.958 92.9725L209.695 97.8735L209.667 98.4104L209.648 98.7621C209.63 99.0907 209.371 99.3545 209.042 99.3776L207.178 99.5026C206.604 99.5396 206.118 99.0814 206.123 98.5076L206.151 95.8974L206.155 95.2957L206.169 94.023C206.169 93.8703 206.266 93.7407 206.41 93.6898L209.482 92.6161Z" fill="#E58666"/>
<path d="M209.986 92.4403L209.695 97.8735L209.667 98.4104C208.061 98.1882 206.729 96.9618 206.155 95.2911L206.174 93.7685L209.986 92.4403Z" fill="#E58666"/>
<path d="M212.1 86.5951C212.276 87.2708 212.438 88.0437 212.461 88.6546C212.471 88.9693 212.595 89.2701 212.831 89.483L213.983 90.5196C214.104 90.6307 214.136 90.8112 214.048 90.9501C213.919 91.1583 213.706 91.4314 213.414 91.5332C213.414 91.5332 213.4 93.2826 212.554 94.6802C212.285 95.1199 211.851 95.4346 211.36 95.5781C206.067 97.1238 203.444 94.8931 202.667 89.557C202.495 88.3861 202.782 87.2014 203.458 86.2295C204.522 84.7022 206.71 82.3466 209.537 83.5406C210.828 84.0867 211.749 85.2437 212.1 86.5951Z" fill="#E58666"/>
<path d="M210.407 89.0757C210.449 89.0711 210.486 89.0526 210.509 89.0155C210.948 88.3121 211.61 88.6592 211.638 88.6777C211.703 88.7147 211.781 88.6869 211.818 88.6268C211.855 88.562 211.832 88.4833 211.767 88.4463C211.457 88.2751 210.749 88.1408 210.287 88.8767C210.25 88.9369 210.268 89.0202 210.328 89.0572C210.347 89.0711 210.379 89.0757 210.407 89.0757Z" fill="#094A28"/>
<path d="M212.66 92.2644C212.632 92.2366 212.591 92.2228 212.549 92.232C211.73 92.3755 211.55 91.6489 211.541 91.6211C211.522 91.5517 211.453 91.5054 211.383 91.5239C211.314 91.5424 211.268 91.6119 211.286 91.6813C211.365 92.0284 211.744 92.6439 212.595 92.4912C212.665 92.4773 212.716 92.4079 212.702 92.3385C212.693 92.3107 212.679 92.2829 212.66 92.2644Z" fill="#094A28"/>
<path d="M211.795 89.8023C211.86 90.0198 211.753 90.2419 211.559 90.3021C211.36 90.3623 211.147 90.2373 211.083 90.0198C211.018 89.8023 211.124 89.5801 211.319 89.52C211.513 89.4598 211.726 89.5847 211.795 89.8023Z" fill="#094A28"/>
<path d="M218.37 115.733C218.365 115.761 218.356 115.784 218.342 115.793C218.291 115.839 218.198 115.812 218.203 115.733C218.309 112.975 217.662 110.258 217.777 107.5C217.574 107.838 217.329 108.152 217.032 108.435C216.954 108.509 216.834 108.384 216.912 108.31C217.81 107.463 218.259 106.329 218.184 105.098C218.18 105.033 218.24 105.01 218.282 105.019C218.319 105.024 218.346 105.056 218.351 105.098C218.351 105.126 218.356 105.158 218.356 105.186C218.383 105.926 218.222 106.639 217.898 107.273C217.921 107.282 217.949 107.301 217.944 107.342C217.87 108.851 218.027 110.346 218.175 111.836C218.3 113.132 218.42 114.433 218.37 115.733Z" fill="#094A28"/>
<path d="M205.808 105.834C204.985 106.986 204.161 108.138 203.342 109.295C203.277 109.383 203.421 109.476 203.486 109.388L205.952 105.926C206.016 105.838 205.873 105.746 205.808 105.834Z" fill="#094A28"/>
<path d="M207.358 101.011C207.34 100.905 207.178 100.951 207.192 101.058C207.409 102.414 207.219 103.733 206.627 104.973C206.581 105.07 206.729 105.158 206.775 105.061C207.386 103.774 207.58 102.414 207.358 101.011Z" fill="#094A28"/>
<path d="M215.219 106.792C213.984 108.305 211.693 109.606 209.769 108.574C209.672 108.523 209.584 108.671 209.681 108.722C211.67 109.786 214.053 108.49 215.339 106.912C215.409 106.824 215.288 106.704 215.219 106.792Z" fill="#094A28"/>
<path d="M217.999 120.791C216.214 120.657 214.432 120.528 212.646 120.393C211.171 120.282 209.713 119.968 208.233 119.921C208.122 119.917 208.122 120.088 208.233 120.093C209.704 120.139 211.171 120.454 212.646 120.565C214.432 120.699 216.214 120.828 217.999 120.963C218.106 120.972 218.106 120.801 217.999 120.791Z" fill="#094A28"/>
<path d="M205.822 87.1227C205.637 86.683 205.396 86.2665 205.096 85.8916C203.971 84.4847 201.857 83.6147 200.067 84.0497C198.345 84.4662 196.675 85.6093 196.018 87.2847C195.357 88.9646 195.759 91.0472 197.092 92.2598C197.85 92.9493 198.873 93.3797 199.4 94.2591C199.993 95.2495 199.757 96.5638 199.123 97.5264C198.489 98.4891 197.517 99.1694 196.564 99.8127C199.576 99.2758 202.292 97.4663 204.166 95.0458C205.179 93.7361 205.975 92.2227 206.225 90.5844C206.391 89.4274 206.276 88.201 205.822 87.1227Z" fill="#094A28"/>
<path d="M211.735 83.4712C210.745 81.6339 208.08 81.2127 206.211 81.5691C202.903 82.1985 200.178 85.1326 200.006 88.5296C199.909 90.4271 200.617 92.3153 201.746 93.8472C202.648 95.069 203.809 96.0825 205.063 96.9294C206.215 97.7069 207.279 98.3549 207.719 99.7664C208.08 100.928 208.089 102.298 207.502 103.385C207.835 102.77 208.441 102.358 208.857 101.803C209.875 100.456 210.37 98.6788 210.227 96.9988C210.153 96.1288 209.912 95.3513 209.435 94.6293C208.917 93.8425 208.325 93.0928 208.001 92.1996C207.34 90.3715 207.849 88.0436 208.871 86.4424C209.172 85.9703 209.593 85.3825 210.143 85.1928C210.8 84.9614 211.434 85.3733 211.855 85.85C212.295 85.2067 212.142 84.2255 211.735 83.4712Z" fill="#094A28"/>
<path d="M211.161 84.2117C208.482 82.7724 206.512 85.4566 206.081 87.9002C205.836 89.284 205.998 90.7557 206.488 92.07C206.933 93.2548 207.742 94.2452 208.233 95.4022C208.922 97.0405 208.806 98.6233 208.589 100.34C208.57 100.498 208.816 100.498 208.839 100.34C209.102 98.2577 209.149 96.4944 208.149 94.6247C207.539 93.4816 206.803 92.468 206.465 91.1815C206.188 90.117 206.165 89.0294 206.368 87.9557C206.71 86.1693 207.927 82.7585 211.036 84.4246C211.175 84.5032 211.3 84.2903 211.161 84.2117Z" fill="#094A28"/>
<path d="M209.514 82.7307C206.738 82.3882 204.962 84.0219 204.249 86.646C203.828 88.2056 203.837 89.4737 204.434 90.9824C205.309 93.2085 207.349 95.143 207.367 97.6514C207.367 97.8134 207.617 97.8134 207.617 97.6514C207.599 95.4485 206.118 93.8888 205.184 91.9821C203.453 88.4602 204.36 82.3419 209.519 82.976C209.671 82.9991 209.672 82.7538 209.514 82.7307Z" fill="#094A28"/>
<path d="M208.515 82.1476C205.346 80.986 202.727 83.4619 202.255 86.5396C201.612 90.7233 204.17 93.9953 206.849 96.86C206.96 96.9757 207.136 96.7999 207.025 96.6842C205.174 94.708 203.25 92.6115 202.662 89.8764C202.324 88.3213 202.31 86.7062 202.889 85.2067C203.749 82.9806 206.035 81.4997 208.45 82.3836C208.598 82.4391 208.663 82.2031 208.515 82.1476Z" fill="#094A28"/>
<path d="M200.983 94.7219C200.793 94.0462 200.33 93.5973 199.844 93.1113C199.238 92.5143 198.544 91.9358 198.077 91.2138C196.689 89.0618 196.92 85.4659 200.289 85.2252C200.446 85.2159 200.451 84.966 200.289 84.9753C198.489 85.1049 197.156 86.2896 196.99 88.1686C196.902 89.1636 197.18 90.1263 197.661 90.9871C198.674 92.7966 202.801 95.032 199.294 97.6329C199.169 97.7255 199.289 97.943 199.419 97.8458C200.437 97.0914 201.367 96.0825 200.983 94.7219Z" fill="#094A28"/>
<path d="M201.556 93.4723C200.96 92.6485 200.108 92.0376 199.558 91.1722C198.544 89.5848 198.387 87.1782 200.39 86.2943C200.539 86.2295 200.409 86.0166 200.266 86.0814C199.053 86.6136 198.406 87.729 198.494 89.0664C198.665 91.6813 202.921 93.7454 201.76 96.3417C201.695 96.4851 201.908 96.6147 201.973 96.4666C202.468 95.3698 202.269 94.4581 201.556 93.4723Z" fill="#094A28"/>
<path d="M201.279 90.9825C200.821 90.603 200.316 90.3438 200.113 89.7422C199.891 89.085 200.09 88.4278 200.562 87.9372C200.673 87.8215 200.497 87.6457 200.386 87.7614C199.951 88.2149 199.701 88.8027 199.789 89.4367C199.905 90.2883 200.492 90.6539 201.103 91.1583C201.228 91.2601 201.404 91.0843 201.279 90.9825Z" fill="#094A28"/>
<path d="M213.114 121.884C211.753 124.17 209.19 124.758 206.724 125.017C206.567 125.035 206.567 125.281 206.724 125.267C207.432 125.193 208.149 125.091 208.843 124.929C208.51 126.007 208.006 126.993 207.321 127.891C207.224 128.02 207.441 128.141 207.534 128.016C208.237 127.086 208.76 126.058 209.098 124.943C209.107 124.915 209.098 124.892 209.089 124.869C210.8 124.438 212.36 123.633 213.327 122.009C213.41 121.87 213.197 121.745 213.114 121.884Z" fill="#094A28"/>
<path d="M217.458 127.511C217.504 127.359 217.268 127.294 217.218 127.447C216.681 129.136 215.848 130.649 214.701 131.996C214.687 132.01 214.691 132.028 214.687 132.047C214.664 132.075 214.645 132.107 214.65 132.153C215.048 134.911 215.33 137.674 215.496 140.456C215.506 140.613 215.756 140.618 215.746 140.456C215.58 137.674 215.293 134.907 214.9 132.149C216.056 130.774 216.912 129.224 217.458 127.511Z" fill="#094A28"/>
<path d="M198.068 178.123C197.54 177.66 197.027 177.174 196.541 176.665C196.43 176.55 196.254 176.726 196.365 176.841C196.856 177.35 197.365 177.836 197.892 178.299C198.012 178.401 198.188 178.23 198.068 178.123Z" fill="#094A28"/>
<path d="M212.966 152.637C212.929 152.479 212.688 152.549 212.725 152.702C212.813 153.076 212.859 153.451 212.859 153.835C212.859 153.997 213.109 153.997 213.109 153.835C213.109 153.433 213.063 153.035 212.966 152.637Z" fill="#094A28"/>
<path d="M213.997 153.484C213.803 153.623 213.613 153.761 213.419 153.9C213.29 153.993 213.414 154.21 213.544 154.113C213.738 153.974 213.928 153.835 214.122 153.697C214.252 153.609 214.127 153.391 213.997 153.484Z" fill="#094A28"/>
<path d="M225.689 157.746C225.596 157.617 225.384 157.741 225.476 157.871C225.689 158.172 225.837 158.491 225.93 158.848C225.971 159 226.207 158.935 226.17 158.783C226.073 158.408 225.916 158.065 225.689 157.746Z" fill="#094A28"/>
<path d="M226.54 157.654C226.508 157.903 226.475 158.149 226.443 158.399C226.425 158.556 226.67 158.556 226.693 158.399C226.725 158.149 226.758 157.903 226.79 157.654C226.809 157.496 226.559 157.496 226.54 157.654Z" fill="#094A28"/>
<path d="M104.323 126.988C104.304 126.507 104.281 126.04 104.258 125.563C104.244 125.23 104.226 124.906 104.198 124.573L104.036 122.087C103.985 121.254 103.934 120.417 103.897 119.588L103.893 119.574L101.135 119.31L93.8435 118.621C93.6816 119.158 93.441 119.667 93.1403 120.134L93.131 120.144C93.0662 120.269 92.9876 120.38 92.9043 120.495C92.3075 121.351 91.4654 122.643 90.901 123.517L90.8963 123.522C90.5355 124.082 90.281 124.475 90.281 124.475C90.281 124.475 96.1522 125.674 96.9619 133.5C97.0035 133.282 97.0174 133.158 97.0174 133.158C97.0174 133.158 97.2117 133.384 97.0405 133.694C96.1661 135.268 96.0412 139.169 96.4252 143.131C96.6195 145.13 96.9387 147.143 97.3598 148.883C97.8178 150.813 98.4054 152.401 99.067 153.252C99.178 153.391 99.1734 153.609 99.0439 153.743C97.642 155.122 97.0544 158.57 96.8878 162.448C96.6056 168.789 97.4245 176.263 97.5911 177.656H100.136C100.048 176.883 100.076 176.092 100.219 175.323L103.166 158.834C103.689 155.941 103.985 153.002 104.045 150.064C104.05 149.869 104.055 149.67 104.055 149.48L104.184 137.957C104.42 134.31 104.471 130.645 104.323 126.988Z" fill="#E58666"/>
<path d="M97.7206 132.491C97.2255 136.314 96.9711 139.933 96.4298 143.131C96.1013 145.084 95.671 146.875 95.0048 148.462C94.01 150.86 92.5156 152.799 90.0959 154.095C88.4442 155.034 86.811 155.978 85.224 156.932C83.2808 158.093 81.4071 159.278 79.6628 160.495C76.216 162.902 69.734 168.941 69.734 168.941V164.193C69.734 164.193 71.9733 163.526 72.6488 162.666C74.3561 160.504 75.9476 158.686 77.4189 157.154C80.1856 154.266 82.5221 152.382 84.3681 151.165C87.5836 149.041 89.3325 148.916 89.3325 148.916C89.2955 148.43 89.2631 147.935 89.2215 147.444C88.4858 137.369 87.6253 127.109 90.8917 123.522L90.8963 123.517C92.7331 124.008 94.0979 124.998 95.1019 126.081C96.7212 127.821 98.026 130.145 97.7206 132.491Z" fill="#E58666"/>
<path d="M103.55 118.871L93.6816 118.163C93.6816 118.163 85.8441 125.197 87.3107 145.718C94.2368 147.453 100.682 147.731 106.035 144.723C106.035 144.723 105.688 123.869 103.55 118.871Z" fill="#094A28"/>
<path d="M101.662 130.631C100.376 134.717 98.8495 138.706 97.0682 142.603C97.0034 142.747 97.2163 142.876 97.281 142.728C99.0716 138.813 100.612 134.805 101.903 130.695C101.949 130.543 101.713 130.478 101.662 130.631Z" fill="#094A28"/>
<path d="M101.385 145.19C97.1238 145.922 92.9089 145.426 88.6616 144.843C88.5043 144.82 88.4396 145.061 88.5969 145.084C92.8858 145.672 97.1469 146.171 101.454 145.431C101.612 145.403 101.542 145.163 101.385 145.19Z" fill="#094A28"/>
<path d="M101.214 144.237C97.4291 145.274 93.663 144.806 89.846 144.237C89.6887 144.214 89.624 144.454 89.7813 144.478C93.6352 145.051 97.4707 145.523 101.283 144.478C101.436 144.431 101.371 144.191 101.214 144.237Z" fill="#094A28"/>
<path d="M120.257 127.821L118.804 127.331L119.72 128.094C120.229 128.52 120.71 128.992 121.155 129.487L121.844 130.265C122.006 130.529 121.691 130.867 121.381 130.672L119.322 128.849L120.502 130.066L121.687 131.422C121.923 131.755 121.478 132.042 121.266 131.829L120.188 130.723L118.758 129.464L119.568 130.64C119.743 130.899 119.887 131.177 119.989 131.473L120.322 132.482C120.289 132.982 120.021 132.926 119.711 132.732L119.373 131.862C119.244 131.528 119.063 131.228 118.832 130.968L117.902 129.918L118.726 132.422C118.776 132.801 118.175 132.894 118.106 132.523C117.842 131.505 117.055 130.126 117.055 130.126C115.968 129.742 115.015 129.057 114.312 128.159L113.349 126.924L112.901 126.563L114.714 124.517C115.052 124.938 115.38 125.369 115.7 125.817L116.25 125.841C117.088 125.868 117.911 126.077 118.665 126.433L120.437 127.28C120.747 127.46 120.687 127.872 120.257 127.821Z" fill="#E58666"/>
<path d="M67.4809 131.704L68.781 130.89L68.0685 131.843C67.6752 132.375 67.3143 132.945 66.9951 133.532L66.5047 134.449C66.4075 134.745 66.7915 134.995 67.0506 134.736L68.6329 132.482L67.7677 133.94L66.9303 135.532C66.7823 135.911 67.2773 136.087 67.43 135.832L68.2211 134.509L69.3223 132.954L68.8087 134.287C68.6977 134.578 68.6237 134.884 68.5913 135.194L68.4987 136.249C68.6468 136.73 68.892 136.61 69.1511 136.351L69.276 135.425C69.3269 135.073 69.4287 134.736 69.5953 134.43L70.2522 133.19L70.0302 135.814C70.0718 136.193 70.6779 136.147 70.6548 135.772C70.6733 134.722 71.122 133.195 71.122 133.195C72.089 132.57 72.8617 131.681 73.3336 130.644L73.9813 129.219L74.3329 128.766L72.5794 127.243C72.3481 127.729 71.432 128.691 71.432 128.691L70.9 128.84C70.0903 129.062 69.3408 129.455 68.6884 129.978L67.1616 131.209C66.9164 131.468 67.0737 131.857 67.4809 131.704Z" fill="#E58666"/>
<path d="M99.8257 99.4054L106.035 111.947C106.622 113.137 107.316 114.266 108.107 115.33L115.792 125.642C115.626 125.896 113.215 126.766 113.215 126.766L104.517 118.019C103.323 116.765 102.282 115.372 101.413 113.873L94.6485 102.187C93.7787 100.687 94.3894 98.7621 95.9671 98.0402C97.406 97.3691 99.1179 97.9754 99.8257 99.4054Z" fill="#E58666"/>
<path d="M106.025 185.408C104.693 185.514 102.657 185.482 101.223 184.598C100.436 184.107 98.5951 183.487 97.1515 182.77C96.018 182.205 95.6571 180.775 96.3604 179.734L96.6426 179.317L97.6188 177.887C97.6188 177.887 97.6096 177.809 97.5911 177.66H100.136C100.224 178.419 100.432 179.16 100.77 179.854C101.431 181.219 102.384 182.395 103.666 183.348C104.383 183.89 105.202 184.362 106.123 184.755C106.446 184.894 106.382 185.375 106.025 185.408Z" fill="#094A28"/>
<path d="M97.0038 97.9616C97.0133 97.9616 97.0227 97.9616 97.0227 97.9616C97.0133 97.9569 96.9991 97.9569 96.9896 97.9569C96.9896 97.9569 96.9896 97.9569 96.9943 97.9616C96.9943 97.9616 96.9991 97.9569 97.0038 97.9616Z" fill="#E58666"/>
<path d="M87.7872 105.232C88.2638 106.625 88.6108 108.069 89.5269 109.249C89.8415 109.643 90.1561 110.041 90.4707 110.429C90.8362 110.911 91.2063 111.383 91.558 111.873C91.8356 112.257 92.0947 112.632 92.3491 113.03C93.1542 114.284 94.0147 115.807 94.0286 117.339C94.0332 117.774 91.595 119.875 91.1231 121.796C95.7266 121.078 101.436 124.008 104.614 123.073L103.893 119.584C103.698 116.122 103.559 112.66 103.425 109.226C103.425 109.171 103.416 109.11 103.416 109.059C103.411 108.921 103.203 109.254 103.231 109.212C104.078 108.458 105.082 104.445 100.848 101.062C99.6268 100.086 98.3823 99.1416 97.1423 98.2068C96.5964 97.7995 96.106 97.8227 95.5322 97.9013C95.3981 97.906 95.25 97.9337 95.1158 97.9476C93.8481 98.0911 92.5804 98.2253 91.3451 98.54C91.1554 98.5909 90.9426 98.6464 90.7344 98.7066C90.4568 98.7853 90.1746 98.864 89.9109 98.9889C89.6934 99.0815 89.4806 99.1972 89.3002 99.3406C87.4865 100.748 87.0655 103.075 87.7872 105.232Z" fill="#589441"/>
<path d="M95.5461 110.508C97.1284 110.522 99.3492 110.536 100.339 109.05C100.432 108.916 100.649 109.041 100.561 109.18C99.5157 110.753 97.2348 110.781 95.5507 110.767C95.3841 110.763 95.3841 110.508 95.5461 110.508Z" fill="#094A28"/>
<path d="M94.1072 93.3057C94.8614 93.0419 95.6433 93.6297 95.6016 94.4257L95.4166 97.9244L95.4073 98.142L95.3981 98.3549C95.3703 98.9102 94.9354 99.3638 94.3802 99.4147L94.024 99.4471C92.9367 99.5489 92.0021 98.6881 92.016 97.5959L92.0345 96.0362L92.0623 94.0138L92.3584 93.9073L94.1072 93.3057Z" fill="#E58666"/>
<path d="M95.6895 92.3431L95.4166 97.5172L95.4073 97.7347C93.6955 97.5681 92.3584 95.7956 92.3584 93.6297C92.3584 93.588 92.3584 93.551 92.363 93.5047L95.6895 92.3431Z" fill="#E06F47"/>
<path d="M88.8791 91.8618C88.5414 90.9871 88.6247 89.7606 89.3834 89.594C89.6102 89.5431 89.8831 89.594 90.1607 89.7051C90.3736 87.0579 91.9188 83.934 93.8204 83.5175C96.3049 82.9667 98.6552 83.8877 99.9322 90.2003C100.436 92.6994 99.0624 95.5873 96.6519 96.3417C94.8429 96.9109 92.4 95.2495 91.0907 93.3288C90.244 93.2085 89.3094 92.9725 88.8791 91.8618Z" fill="#E58666"/>
<path d="M97.3367 93.6111C97.494 93.5926 97.5865 93.5695 97.5912 93.5648C97.6744 93.5417 97.7253 93.4584 97.7022 93.3751C97.6791 93.2918 97.6004 93.2409 97.5079 93.264C97.4292 93.2825 95.5925 93.7361 94.8846 92.0237C94.8522 91.945 94.7597 91.9034 94.6764 91.9358C94.5977 91.9682 94.5561 92.0561 94.5885 92.1348C95.2408 93.7037 96.7352 93.6852 97.3367 93.6111Z" fill="#094A28"/>
<path d="M94.7412 90.1633C94.7643 90.4363 94.9864 90.6446 95.2455 90.6261C95.4999 90.6075 95.6896 90.3669 95.6665 90.0938C95.6434 89.8208 95.4213 89.6125 95.1622 89.631C94.9077 89.6495 94.718 89.8856 94.7412 90.1633Z" fill="#094A28"/>
<path d="M97.8132 89.8486C97.8364 90.1216 98.0584 90.3299 98.3175 90.3114C98.572 90.2928 98.7617 90.0522 98.7386 89.7791C98.7154 89.5061 98.4933 89.2978 98.2343 89.3163C97.9752 89.3348 97.7901 89.5755 97.8132 89.8486Z" fill="#094A28"/>
<path d="M93.8528 89.3626C93.913 89.3626 93.9685 89.3256 93.9916 89.27C94.3802 88.363 95.2269 88.6499 95.2639 88.6638C95.3472 88.6915 95.4351 88.6499 95.4675 88.5712C95.4953 88.4925 95.4536 88.4046 95.3703 88.3722C94.9678 88.2287 94.1026 88.2102 93.7001 89.1497C93.6677 89.2284 93.7048 89.321 93.7834 89.3534C93.8065 89.3626 93.8297 89.3672 93.8528 89.3626Z" fill="#094A28"/>
<path d="M97.5171 88.4601C97.5541 88.4925 97.6097 88.4972 97.6606 88.474C98.4147 88.1084 98.7941 88.7471 98.808 88.7748C98.845 88.835 98.9236 88.8581 98.9884 88.8257C99.0532 88.7887 99.0763 88.71 99.0393 88.6499C98.8635 88.3444 98.3268 87.8677 97.5403 88.2472C97.4755 88.2796 97.4477 88.3583 97.4801 88.4231C97.4894 88.4324 97.5033 88.4509 97.5171 88.4601Z" fill="#094A28"/>
<path d="M97.2719 92.2551C97.1933 92.2551 97.1285 92.1903 97.1285 92.1117C97.1285 92.033 97.1933 91.9682 97.2719 91.9682C97.2765 91.9682 97.5541 91.9636 97.6235 91.8155C97.6559 91.746 97.6883 91.5378 97.2858 91.0472C97.2349 90.987 97.2441 90.8945 97.3089 90.8482C97.3737 90.7973 97.4616 90.8112 97.5125 90.8713C97.8919 91.3341 98.0122 91.6812 97.8872 91.9404C97.7299 92.2505 97.2904 92.2551 97.2719 92.2551Z" fill="#094A28"/>
<path d="M87.926 100.789L81.7171 113.331C81.1295 114.521 80.4355 115.65 79.6443 116.714L71.3997 128.978C71.5662 129.233 73.2272 129.923 73.2272 129.923L83.2392 119.403C84.4329 118.149 85.4739 116.756 86.3437 115.256L90.4337 108.435C91.3035 106.935 93.3716 100.146 91.7939 99.4193C90.3458 98.7575 88.6339 99.3638 87.926 100.789Z" fill="#E58666"/>
<path d="M101.977 122.532C98.8542 122.707 96.18 120.842 92.9968 121.342C92.8904 121.361 92.9367 121.523 93.0431 121.509C96.217 121.009 98.8773 122.879 101.982 122.707C102.088 122.698 102.088 122.527 101.977 122.532Z" fill="#094A28"/>
<path d="M102.967 121.93C102.176 121.976 101.39 121.962 100.598 121.893C100.487 121.884 100.487 122.055 100.598 122.064C101.39 122.134 102.176 122.143 102.967 122.101C103.078 122.097 103.078 121.925 102.967 121.93Z" fill="#094A28"/>
<path d="M92.3491 101.4C92.3445 101.289 92.1733 101.289 92.1779 101.4C92.3306 104.154 91.2295 107.162 89.86 109.527C89.8044 109.624 89.9525 109.707 90.008 109.615C91.4053 107.19 92.5018 104.219 92.3491 101.4Z" fill="#094A28"/>
<path d="M94.9724 99.6137C93.9222 99.9932 92.8257 99.8359 91.9188 99.1787C91.8309 99.1139 91.743 99.262 91.8309 99.3268C92.7655 100.007 93.9268 100.169 95.0141 99.7803C95.1205 99.7387 95.0742 99.5721 94.9724 99.6137Z" fill="#094A28"/>
<path d="M95.9625 98.3456C95.944 98.2392 95.7774 98.2854 95.7959 98.3919C95.8607 98.739 95.7358 99.0768 95.4674 99.3082C95.3842 99.3776 95.5045 99.498 95.5877 99.4286C95.9023 99.1555 96.0365 98.7482 95.9625 98.3456Z" fill="#094A28"/>
<path d="M103.999 107.449C104.027 107.342 103.86 107.296 103.832 107.403C103.67 108.023 103.458 108.624 103.203 109.208C103.185 109.221 103.171 109.24 103.171 109.272C103.171 109.277 103.171 109.277 103.171 109.282C103.023 109.61 102.87 109.939 102.694 110.258C102.643 110.355 102.787 110.439 102.842 110.346C102.967 110.124 103.083 109.897 103.189 109.666C103.3 112.239 103.425 114.807 103.569 117.376C103.573 117.487 103.745 117.487 103.74 117.376C103.587 114.692 103.458 112.003 103.347 109.314C103.606 108.712 103.828 108.092 103.999 107.449Z" fill="#094A28"/>
<path d="M100.02 84.1006C98.993 82.0596 96.6149 80.824 94.2183 81.3331C93.5613 81.4719 92.8627 81.8653 92.2427 82.2309C91.9142 82.4253 91.3914 82.4391 91.0259 82.6104C90.628 82.7955 90.2533 83.05 89.9109 83.3231C88.324 84.5912 87.8659 86.6923 87.5791 88.6129C87.4356 89.5802 87.3431 90.552 87.2089 91.5193C87.0748 92.4727 86.8157 93.4029 86.9915 94.3655C87.1627 95.3189 87.9307 95.939 88.6293 96.5407C90.1469 97.8458 91.5857 98.7297 93.5474 99.1555C92.9876 99.0352 92.983 96.3741 92.9413 95.9622C92.8534 95.1106 91.632 87.7845 93.0246 87.6919C94.7827 87.5855 96.3697 86.9191 97.8733 86.0444C97.9844 86.4516 98.0677 86.9191 98.0445 87.3448C98.2666 87.2199 98.4748 87.044 98.7061 86.9098C99.2197 87.8909 99.6222 89.4136 100.025 90.441C99.8859 90.08 100.413 88.7517 100.464 88.363C100.566 87.5762 100.608 86.7571 100.548 85.9611C100.483 85.2946 100.302 84.6652 100.02 84.1006Z" fill="#95FFB9"/>
<path d="M92.7423 83.1611C90.7899 82.8094 89.7998 84.2441 89.2631 85.9611C88.5784 88.1501 87.5744 91.9405 88.3887 94.1851C88.4442 94.3332 88.6848 94.2684 88.6292 94.1203C87.7918 91.8201 88.9439 82.7261 92.6776 83.4018C92.8349 83.4296 92.8996 83.1889 92.7423 83.1611Z" fill="#094A28"/>
<path d="M91.0351 85.3548C91.086 85.2021 90.8454 85.1373 90.7945 85.29C89.6517 88.8027 88.9115 93.0928 90.1884 96.6703C90.2439 96.8184 90.4799 96.7536 90.429 96.6055C89.1659 93.0697 89.9016 88.8304 91.0351 85.3548Z" fill="#094A28"/>
<path d="M91.7661 88.1779C91.78 88.0205 91.5302 88.0205 91.5163 88.1779C91.248 91.4823 91.4885 94.7173 92.2381 97.943C92.2751 98.1004 92.5157 98.0309 92.4786 97.8782C91.7384 94.671 91.5024 91.4545 91.7661 88.1779Z" fill="#094A28"/>
<path d="M93.5937 83.1195C93.4595 83.2028 93.5844 83.4203 93.7186 83.3324C96.217 81.7912 100.682 83.5175 99.4695 86.9376C99.414 87.0903 99.6546 87.1551 99.7101 87.0024C101.006 83.3416 96.2586 81.4765 93.5937 83.1195Z" fill="#094A28"/>
<path d="M97.6419 84.096C96.5408 83.3601 95.1528 83.2583 93.9082 83.6147C93.7556 83.6563 93.8203 83.897 93.973 83.8553C94.8012 83.6193 95.6664 83.5776 96.4992 83.8414C97.4939 84.1562 98.868 85.0308 98.2388 86.2665C98.1647 86.41 98.3822 86.5349 98.4516 86.3915C98.9096 85.489 98.4285 84.6236 97.6419 84.096Z" fill="#094A28"/>
<path d="M94.1766 83.9016C94.0193 83.9294 94.0841 84.17 94.2414 84.1423C94.8613 84.0266 95.4906 84.0451 96.092 84.258C96.8924 84.5495 96.7074 85.327 96.1846 85.8408C95.4397 86.572 94.1118 86.8404 93.1171 87.0024C92.9598 87.0302 93.0246 87.2662 93.1819 87.243C94.3894 87.0487 96.6981 86.5812 96.8971 85.0401C97.0729 83.7165 95.0094 83.7443 94.1766 83.9016Z" fill="#094A28"/>
<path d="M93.0708 84.207C92.9644 84.0867 92.7886 84.2626 92.895 84.3829C93.2512 84.7902 92.0529 86.0953 91.8309 86.3683C91.7291 86.4933 91.9049 86.6691 92.0067 86.5442C92.3861 86.0814 92.7516 85.6001 93.0477 85.0771C93.2142 84.7809 93.3114 84.4847 93.0708 84.207Z" fill="#094A28"/>
<path d="M176.549 11.2927L173.496 17.2073L192.021 12.3386L176.549 11.2927Z" fill="#094A28"/>
<path d="M177.35 12.5561L177.586 13.0236L181.134 20.1229L195.065 12.4451L172.677 5.98437L176.508 11.4084L191.179 12.3849" fill="#094A28"/>
<path d="M172.866 17.2443C172.866 17.2443 172.455 17.2443 171.71 17.2675" stroke="#589441" stroke-linecap="round" stroke-linejoin="round"/>
<path d="M169.387 17.3878C162.711 17.846 147.906 19.7342 138.278 27.5694C127.451 36.3812 129.959 53.6159 142.733 59.2435C151.602 63.1542 164.798 66.1161 181.773 62.0111C181.773 62.0111 197.823 58.0819 195.764 49.5941C195.38 48.0067 194.371 46.6368 193.048 45.6788C185.502 40.2455 149.432 19.2205 101.968 72.512" stroke="#589441" stroke-linecap="round" stroke-linejoin="round" stroke-dasharray="5.03 5.03"/>
<path d="M101.191 73.3867C100.936 73.6737 100.682 73.9652 100.427 74.2568" stroke="#589441" stroke-linecap="round" stroke-linejoin="round"/>
<path d="M106.696 56.3742L88.2221 59.9794C86.6491 60.2848 85.6173 61.8121 85.9273 63.3902L88.0371 74.2059C88.3424 75.7794 89.8692 76.8115 91.4469 76.5014L97.4245 75.3351L97.3875 75.3906L102.676 77.788L103.99 74.1041L103.934 74.067L109.912 72.9008C111.485 72.5953 112.517 71.0681 112.207 69.4899L110.097 58.6743C109.796 57.0915 108.269 56.0641 106.696 56.3742Z" fill="#29DF46"/>
<path d="M108.038 56.1104L89.5638 59.7156C87.9908 60.021 86.9591 61.5483 87.269 63.1264L89.3788 73.9421C89.6841 75.5156 91.2109 76.5477 92.7886 76.2376L98.7662 75.0713L98.7292 75.1269L102.676 77.788L105.336 73.8403L105.281 73.8032L111.258 72.637C112.831 72.3315 113.863 70.8043 113.553 69.2261L111.443 58.4105C111.143 56.8323 109.616 55.8049 108.038 56.1104Z" fill="white"/>
<path d="M105.23 63.6494C104.906 61.9879 103.296 60.905 101.635 61.2289C100.816 61.3909 100.136 61.863 99.6962 62.5016C99.0485 62.0759 98.2435 61.8907 97.4245 62.0527C95.7636 62.3767 94.6809 63.9872 95.0048 65.6487C95.287 67.1019 96.6149 67.8655 97.8363 68.4718C98.1509 68.6291 101.121 70.3646 101.195 70.2721C102.088 69.1891 103.009 68.1339 103.883 67.0371C104.711 66.0004 105.503 65.0609 105.23 63.6494Z" fill="#29DF46"/>
<path d="M162.35 56.587L143.547 55.8049C141.942 55.7401 140.591 56.985 140.522 58.5863L140.064 69.5964C139.999 71.2023 141.243 72.5537 142.844 72.6231L148.933 72.8776L148.887 72.9239L153.476 76.4828L155.609 73.2016L155.563 73.1553L161.652 73.4098C163.257 73.4746 164.608 72.2297 164.677 70.6284L165.135 59.6184C165.196 58.0078 163.951 56.6518 162.35 56.587Z" fill="#29DF46"/>
<path d="M163.715 56.6426L144.912 55.8604C143.307 55.7956 141.956 57.0406 141.887 58.6419L141.429 69.6519C141.364 71.2578 142.608 72.6092 144.214 72.6786L150.302 72.9332L150.256 72.9794L153.476 76.4828L156.979 73.2617L156.932 73.2155L163.021 73.47C164.626 73.5348 165.977 72.2899 166.047 70.6886L166.505 59.6785C166.565 58.0634 165.32 56.712 163.715 56.6426Z" fill="white"/>
<path d="M153.944 64.6398C153.944 64.6398 149.835 64.9776 150.511 70.8367C150.511 70.8367 145.796 63.3578 153.944 61.4696V58.7761L160.814 63.4272L153.944 67.7405V64.6398Z" fill="#29DF46"/>
<path d="M227.715 58.3873L208.913 57.6052C207.307 57.5404 205.956 58.7853 205.887 60.3866L205.429 71.3967C205.364 73.0026 206.609 74.354 208.209 74.4234L214.298 74.6779L214.252 74.7242L218.841 78.2831L220.974 75.0019L220.928 74.9556L227.017 75.2101C228.622 75.2749 229.973 74.03 230.042 72.4287L230.501 61.4187C230.565 59.8081 229.321 58.4521 227.715 58.3873Z" fill="#29DF46"/>
<path d="M229.085 58.4429L210.282 57.6607C208.677 57.5959 207.326 58.8409 207.256 60.4422L206.798 71.4522C206.734 73.0581 207.978 74.4095 209.584 74.4789L215.672 74.7334L215.626 74.7797L218.846 78.2831L222.348 75.062L222.302 75.0158L228.391 75.2703C229.996 75.3351 231.347 74.0902 231.417 72.4889L231.875 61.4788C231.935 59.8637 230.686 58.5076 229.085 58.4429Z" fill="white"/>
<path d="M216.389 69.4807L216.699 65.4404C216.699 65.4404 219.716 65.2599 221.293 61.9231C221.714 61.0345 223.061 61.5112 222.811 62.46C222.644 63.1033 222.228 63.9548 221.414 65.0794L224.75 65.1997C225.453 65.2229 225.92 65.9958 225.555 66.5974C225.522 66.6529 225.481 66.7085 225.434 66.7594C225.217 67.0093 225.166 67.3425 225.258 67.6572C225.323 67.8701 225.286 68.1385 224.981 68.4162C224.736 68.643 224.615 68.9808 224.694 69.3048C224.805 69.7676 224.736 70.3924 223.718 70.6238C223.607 70.6515 223.486 70.6469 223.375 70.6284L216.389 69.4807Z" fill="#87E9A8"/>
<path d="M216.176 70.4294L213.858 70.2443C213.493 70.2165 213.215 69.8926 213.248 69.5269L213.585 65.2877C213.613 64.9221 213.937 64.6444 214.303 64.6768L216.621 64.8619C216.986 64.8897 217.264 65.2136 217.231 65.5793L216.894 69.8185C216.866 70.1841 216.542 70.4572 216.176 70.4294Z" fill="#89FFB1"/>
</svg>
