<svg width="328" height="227" viewBox="0 0 328 227" fill="none" xmlns="http://www.w3.org/2000/svg">
<g clip-path="url(#clip0_1_7)" filter="url(#filter0_d_1_7)">
<path d="M115.183 209.516C114.929 209.528 114.677 209.461 114.461 209.325C114.246 209.188 114.078 208.989 113.979 208.754C113.881 208.519 113.857 208.259 113.912 208.01C113.966 207.761 114.095 207.535 114.282 207.362L114.368 207.023C114.356 206.996 114.345 206.969 114.334 206.942C114.077 206.336 113.648 205.819 113.098 205.457C112.549 205.095 111.905 204.903 111.247 204.905C110.59 204.908 109.947 205.104 109.401 205.471C108.854 205.837 108.428 206.357 108.176 206.965C107.169 209.39 105.887 211.82 105.571 214.384C105.432 215.518 105.491 216.667 105.745 217.781C103.379 212.621 102.151 207.013 102.143 201.337C102.143 199.913 102.222 198.489 102.38 197.074C102.511 195.913 102.693 194.761 102.925 193.617C104.193 187.411 106.915 181.593 110.868 176.643C112.781 175.599 114.328 173.994 115.3 172.044C115.653 171.343 115.902 170.594 116.04 169.822C115.824 169.85 115.226 166.564 115.389 166.362C115.088 165.906 114.55 165.679 114.221 165.234C112.588 163.019 110.337 163.406 109.162 166.415C106.652 167.682 106.628 169.783 108.168 171.803C109.148 173.089 109.283 174.828 110.142 176.204C110.054 176.317 109.962 176.427 109.873 176.54C108.257 178.619 106.847 180.852 105.666 183.206C105.953 180.569 105.611 177.901 104.666 175.422C103.708 173.112 101.913 171.167 100.333 169.17C98.4343 166.771 94.5413 167.818 94.2068 170.859C94.2036 170.888 94.2004 170.918 94.1974 170.947C94.4321 171.08 94.6619 171.22 94.8868 171.369C95.1692 171.558 95.3881 171.827 95.5147 172.142C95.6413 172.458 95.6698 172.804 95.5963 173.136C95.5228 173.467 95.3508 173.769 95.1029 174.001C94.855 174.233 94.5427 174.385 94.207 174.437L94.1726 174.442C94.2562 175.289 94.4041 176.127 94.6148 176.951C92.5872 184.792 96.9647 187.648 103.215 187.777C103.353 187.847 103.488 187.918 103.626 187.985C102.439 191.349 101.694 194.852 101.411 198.408C101.251 200.505 101.26 202.612 101.439 204.709L101.429 204.634C100.976 202.303 99.7324 200.2 97.9085 198.68C95.1996 196.455 91.3724 195.635 88.4499 193.847C88.1393 193.647 87.7782 193.541 87.4091 193.54C87.04 193.539 86.6783 193.644 86.3668 193.842C86.0552 194.039 85.8068 194.322 85.6507 194.657C85.4946 194.991 85.4374 195.363 85.4859 195.729C85.4898 195.755 85.4938 195.781 85.4979 195.807C85.9335 195.985 86.3577 196.189 86.7679 196.419C87.0027 196.552 87.2325 196.692 87.4574 196.841C87.7398 197.03 87.9587 197.299 88.0853 197.615C88.2119 197.93 88.2403 198.276 88.1668 198.608C88.0933 198.939 87.9214 199.241 87.6735 199.473C87.4256 199.706 87.1133 199.858 86.7776 199.909L86.7432 199.915C86.7184 199.918 86.6972 199.922 86.6724 199.925C87.4168 201.703 88.4616 203.339 89.7609 204.762C91.0288 211.607 96.4741 212.256 102.299 210.263H102.302C102.942 213.04 103.868 215.743 105.066 218.329H114.936C114.971 218.219 115.003 218.106 115.035 217.996C114.121 218.054 113.204 217.999 112.304 217.834C113.036 216.935 113.769 216.029 114.501 215.131C114.517 215.114 114.533 215.096 114.547 215.078C114.918 214.618 115.293 214.162 115.665 213.702L115.665 213.701C115.685 212.291 115.523 210.885 115.183 209.516Z" fill="#F5ACA4"/>
<path d="M39.2627 194.587L41.9862 197.465L54.632 188.096L50.6126 183.848L39.2627 194.587Z" fill="#A0616A"/>
<path d="M43.7256 196.179L40.6424 193.283L39.8853 192.573L32.0359 198.849L34.0778 201.007L36.4812 199.466L35.377 202.38L40.7906 208.102C41.05 208.377 41.3903 208.561 41.7619 208.628C42.1335 208.696 42.5168 208.642 42.856 208.476C43.1952 208.311 43.4725 208.041 43.6474 207.706C43.8223 207.371 43.8857 206.989 43.8283 206.616L42.6599 199.058L44.7188 197.11L43.7256 196.179Z" fill="#844031"/>
<path d="M99.1167 89.7839L98.2532 99.2103C98.2532 99.2103 96.7461 106.312 97.7897 105.737C98.8333 105.161 96.9621 107.752 97.4549 109.999C97.9477 112.245 93.2455 128.999 95.3753 127.264C97.505 125.528 94.1445 137.518 92.0191 143.434C91.3683 145.262 90.6996 147.113 90.0266 148.951C89.8939 149.323 89.7609 149.69 89.6239 150.062C88.7515 152.453 87.8792 154.808 87.0425 157.031C86.9229 157.341 86.8077 157.651 86.6927 157.957C86.6882 157.965 86.6882 157.974 86.6839 157.974C83.9298 165.222 81.5698 170.925 80.6267 171.868C80.1353 172.36 72.3383 177.992 64.4792 183.632C56.2306 189.552 47.9153 195.485 47.9153 195.485L40.1492 187.338C40.1492 187.338 40.3351 187.285 40.6849 187.179C41.3314 186.993 42.5269 186.643 44.0943 186.178C50.6294 184.252 42.3276 181.255 48.2608 179.112C49.9344 178.51 51.0502 178.04 51.3024 177.792C52.7769 176.353 54.7561 172.922 55.6903 174.361C56.6245 175.8 60.8619 165.107 62.0838 164.049C62.7391 163.478 64.8777 160.808 66.7108 158.461C68.2869 156.442 69.6418 154.658 69.6418 154.658C69.6418 154.658 69.6683 153.701 69.7081 152.178C69.7659 149.925 69.85 146.422 69.9386 142.916C69.934 142.911 69.934 142.911 69.9386 142.911C69.9695 141.592 70.0004 140.272 70.0316 139.019C70.0536 138.05 70.0757 137.115 70.0979 136.252C70.1554 133.666 70.1952 131.709 70.1952 131.222C70.1952 129.624 70.1952 130.868 71.4571 129.903C71.6456 129.755 71.8245 129.595 71.9929 129.425C72.2627 129.182 72.5116 128.917 72.7368 128.632C72.8298 128.433 72.2497 128.703 71.4969 128.552C71.0893 128.471 70.7123 128.277 70.4077 127.994C68.8226 126.569 70.5318 122.185 70.5318 122.185C66.9277 114.977 67.189 109.066 68.8758 104.51C70.1372 101.241 72.1392 98.3082 74.7247 95.9428C75.7088 95.005 76.7809 94.1643 77.9261 93.4321L78.0368 92.8346L79.2544 86.2417C79.9019 85.886 80.5753 85.5797 81.2688 85.3253C83.4315 84.5493 85.7521 84.3182 88.0253 84.6523C90.2846 84.9792 92.4721 85.6874 94.4943 86.7466C96.1473 87.577 97.6984 88.5962 99.1167 89.7839Z" fill="#844031"/>
<path d="M65.1105 209.273L69.056 209.641L72.3807 194.257L66.557 193.716L65.1105 209.273Z" fill="#A0616A"/>
<path d="M76.4737 215.303L70.6114 210.393L70.8771 207.568L69.5135 207.524L65.2895 207.387H65.285L64.249 207.351L62.4911 217.243L65.4532 217.517L66.2369 214.772L67.3306 217.694L68.898 217.841L75.172 218.425C75.2251 218.429 75.2826 218.434 75.3358 218.434C75.5852 218.434 75.8319 218.381 76.0594 218.279C76.2868 218.177 76.49 218.027 76.6553 217.841C76.9121 217.559 77.0692 217.201 77.1024 216.822C77.1283 216.537 77.0846 216.25 76.9751 215.985C76.8656 215.721 76.6935 215.487 76.4737 215.303Z" fill="#844031"/>
<path d="M87.0425 157.031C85.5415 165.2 79.1877 184.354 75.3447 195.565C73.5957 200.688 72.3737 204.155 72.3737 204.155L70.3813 203.526H70.3767L67.0074 202.463L65.7809 202.074H65.7764L64.2887 201.6C64.2887 201.6 64.4615 192.452 64.4792 183.632C64.4924 179.935 64.4747 176.291 64.404 173.404C64.3242 170.256 64.1869 168.003 63.9612 167.556C63.0268 165.722 64.5899 165.528 66.2414 165.067C67.8972 164.602 66.6044 163.903 65.9623 162.415C65.5286 161.423 66.383 160.099 66.9896 159.347C67.157 159.135 67.3359 158.932 67.5254 158.74C67.5254 158.74 67.2331 158.638 66.7108 158.461C68.2868 156.442 69.6417 154.658 69.6417 154.658C69.6417 154.658 69.6683 153.701 69.7081 152.178C69.7658 149.925 69.8499 146.422 69.9385 142.916C69.934 142.911 69.934 142.911 69.9385 142.911C69.9695 141.592 70.0004 140.272 70.0315 139.019C72.564 140.963 75.0258 142.867 77.2574 144.629C77.2601 144.631 77.2623 144.634 77.2639 144.637C77.2654 144.64 77.2662 144.644 77.2662 144.647C82.6281 148.884 86.6529 152.285 87.2196 153.365C87.4764 153.852 87.3878 155.154 87.0425 157.031Z" fill="#844031"/>
<path d="M219.043 12.7927C219.782 12.7236 220.517 12.9453 221.095 13.4106C221.672 13.8759 222.044 14.548 222.134 15.2839C222.149 15.4338 222.153 15.5847 222.144 15.7352L231.274 19.6343L230.926 24.9634L218.995 18.2699C218.375 18.1837 217.8 17.8944 217.361 17.4472C216.922 17 216.643 16.42 216.568 15.7977C216.529 15.4432 216.56 15.0844 216.659 14.7419C216.759 14.3994 216.925 14.0798 217.148 13.8014C217.371 13.5231 217.646 13.2913 217.959 13.1195C218.271 12.9476 218.615 12.839 218.969 12.7998C218.994 12.7971 219.019 12.7947 219.043 12.7927Z" fill="#FFB6B6"/>
<path d="M281.164 45.689C280.939 44.6558 280.519 43.6747 279.929 42.7976C279.765 42.548 279.586 42.3085 279.393 42.0802C278.676 41.2258 278.007 40.4421 277.387 39.7425C277.011 39.3041 276.643 38.8968 276.298 38.5206C274.292 36.32 272.977 35.1556 272.375 35.058C272.083 35.0094 271.795 34.9739 271.516 34.9385C270.086 34.7614 269.05 34.633 269.019 33.1231C269.016 32.9068 269.031 32.6906 269.063 32.4767C269.117 32.1175 269.195 31.7625 269.298 31.4141C269.357 31.2166 269.403 31.0155 269.435 30.812C269.48 30.5508 269.462 30.3558 269.32 30.2363C269.143 30.0903 268.846 30.1124 268.288 30.3338C268.2 30.3692 268.098 30.409 267.992 30.4576C267.956 30.471 267.921 30.4888 267.881 30.5065C267.81 30.5374 267.731 30.5729 267.651 30.6127C266.982 30.9315 265.951 30.9713 264.773 30.8517C261.297 30.4976 256.595 28.7443 256.538 28.722L226.925 17.2147L226.651 17.6574L226 18.7112L225.774 19.0742L225.517 19.4903L224.397 21.2968L223.83 22.209L233.394 29.4216L234.435 30.2053L235.329 30.8829L253.589 44.6572L260.398 49.1513L261.917 50.1518L268.39 54.4201C269.321 55.0349 270.365 55.457 271.461 55.6616C272.557 55.8662 273.683 55.8492 274.773 55.6115C275.863 55.3738 276.893 54.9202 277.805 54.2776C278.716 53.635 279.49 52.8163 280.079 51.8699C281.229 50.0282 281.618 47.812 281.164 45.689Z" fill="#F6D3C1"/>
<path d="M323.557 218.725H4.44277C4.32534 218.725 4.21272 218.679 4.12968 218.596C4.04665 218.512 4 218.4 4 218.282C4 218.165 4.04665 218.052 4.12968 217.969C4.21272 217.886 4.32534 217.84 4.44277 217.84H323.557C323.675 217.84 323.787 217.886 323.87 217.969C323.953 218.052 324 218.165 324 218.282C324 218.4 323.953 218.512 323.87 218.596C323.787 218.679 323.675 218.725 323.557 218.725Z" fill="#F6D3C1"/>
<path d="M77.0186 73.8493L77.8484 81.5454L77.3605 91.6369L99.7135 88.9817L101.814 73.8493L99.1374 73.8758L77.0186 73.8493Z" fill="#FFB6B6"/>
<path d="M96.0323 48.9916L87.6198 42.3502L83.2038 42.0934L76.6512 46.2911L75.0467 54.4767L71.252 63.6943L76.8177 88.5697C76.8177 88.5697 77.3398 90.3547 75.9718 90.5691C74.6039 90.7835 74.7679 93.4147 74.7679 93.4147C74.7679 93.4147 75.0465 95.695 73.7182 95.8959C72.3899 96.0967 68.848 96.0967 71.9473 100.082C75.0467 104.066 99.5607 88.9949 99.5607 88.9949L103.121 70.3128C103.121 70.3128 110.026 61.0386 102.59 55.727L96.0323 48.9916Z" fill="#F6D3C1"/>
<path d="M59.3076 105.47C58.937 105.008 58.6722 104.469 58.532 103.893C58.3919 103.318 58.3797 102.718 58.4963 102.137C58.613 101.556 58.8556 101.007 59.2072 100.53C59.5588 100.053 60.0107 99.6582 60.5312 99.3745L71.1129 63.8626L77.7295 67.1938L66.2058 101.232C66.6244 102.138 66.6962 103.166 66.4075 104.121C66.1188 105.076 65.4897 105.892 64.6394 106.415C63.7891 106.937 62.7767 107.13 61.794 106.956C60.8113 106.781 59.9267 106.253 59.3076 105.47Z" fill="#FFB6B6"/>
<path d="M78.1708 45.9626C78.1708 45.9626 76.2793 44.9574 74.9856 49.3072C73.9499 52.7896 65.5456 73.5322 65.4384 78.5753C64.7467 78.7219 64.1235 79.0944 63.6669 79.6342C63.2103 80.1739 62.9462 80.8503 62.9163 81.5566L73.3075 82.9491C75.1233 81.4176 75.5996 79.3492 74.8971 78.7353L77.1532 72.5733L86.5657 52.9679L79.5509 46.6649L78.1708 45.9626Z" fill="#F6D3C1"/>
<path d="M133.694 93.7974C133.828 93.22 133.834 92.6203 133.712 92.0403C133.589 91.4604 133.341 90.9145 132.984 90.4409C132.628 89.9673 132.172 89.5777 131.648 89.2994C131.125 89.0211 130.547 88.861 129.955 88.8303L105.681 61.1073L100.532 67.2515L125.641 92.9587C125.656 93.9566 126.035 94.9145 126.709 95.651C127.382 96.3876 128.303 96.8515 129.295 96.9548C130.288 97.0582 131.284 96.7939 132.095 96.212C132.905 95.63 133.474 94.7709 133.694 93.7974Z" fill="#FFB6B6"/>
<path d="M90.9523 48.2989C90.9523 48.2989 92.223 46.5746 95.2706 49.9373C97.7104 52.6293 114.258 67.6977 116.536 72.1985C117.223 72.0316 117.946 72.098 118.591 72.3872C119.236 72.6764 119.767 73.1721 120.099 73.796L111.332 79.5452C109.032 78.9495 107.708 77.2905 108.076 76.4331L103.377 71.8527L86.4123 58.2457L90.0116 49.529L90.9523 48.2989Z" fill="#F6D3C1"/>
<path d="M181.472 124.416C215.707 124.416 243.459 96.6636 243.459 62.429C243.459 28.1945 215.707 0.441856 181.472 0.441856C147.238 0.441856 119.485 28.1945 119.485 62.429C119.485 96.6636 147.238 124.416 181.472 124.416Z" fill="#F5ACA4"/>
<path opacity="0.2" d="M178.54 84.3679C175.701 87.2076 171.849 88.8029 167.833 88.8029C163.817 88.8029 159.966 87.2076 157.126 84.3679C154.686 81.9267 153.153 78.7251 152.781 75.2935C152.408 71.862 153.22 68.4062 155.08 65.4986L151.749 68.8973C148.909 71.737 147.314 75.5885 147.314 79.6044C147.314 83.6203 148.909 87.4718 151.749 90.3114C154.588 93.1511 158.44 94.7465 162.456 94.7465C166.472 94.7465 170.323 93.1512 173.163 90.3115L180.545 82.6461L180.657 82.1696L178.54 84.3679Z" fill="#844031"/>
<path opacity="0.2" d="M185.573 37.0111C188.892 34.7505 192.973 33.9009 196.919 34.6495C200.864 35.398 204.351 37.6832 206.611 41.0024C208.554 43.8556 209.464 47.2868 209.19 50.7276C208.916 54.1684 207.474 57.4125 205.105 59.9223L209.011 57.2041C212.331 54.9434 214.616 51.4568 215.364 47.5113C216.113 43.5657 215.263 39.4844 213.003 36.1652C210.742 32.846 207.255 30.5608 203.31 29.8123C199.364 29.0638 195.283 29.9133 191.964 32.1739L183.282 38.3291L183.083 38.7763L185.573 37.0111Z" fill="#844031"/>
<path d="M162.456 96.6408C159.198 96.6409 156.014 95.6749 153.305 93.8652C150.597 92.0554 148.485 89.4831 147.239 86.4735C145.992 83.4639 145.666 80.1522 146.302 76.9573C146.937 73.7623 148.506 70.8276 150.809 68.5242L164.787 54.2638C166.316 52.7323 168.131 51.5172 170.13 50.6879C172.129 49.8585 174.272 49.4312 176.436 49.4304C178.6 49.4295 180.743 49.8551 182.742 50.6828C184.742 51.5106 186.558 52.7243 188.088 54.2545C188.338 54.5036 188.477 54.8414 188.477 55.1936C188.477 55.5459 188.338 55.8837 188.088 56.1328C187.839 56.3819 187.502 56.5218 187.149 56.5218C186.797 56.5218 186.459 56.3819 186.21 56.1328C183.62 53.5423 180.106 52.0869 176.442 52.0869C172.779 52.087 169.265 53.5423 166.675 56.1328C164.622 63.3704 160.186 68.3363 152.697 70.3932C151.412 71.675 150.393 73.1974 149.696 74.8735C149 76.5495 148.641 78.3463 148.639 80.1613C148.638 81.9762 148.994 83.7736 149.687 85.4508C150.381 87.128 151.398 88.6522 152.681 89.9361C153.963 91.2201 155.487 92.2387 157.163 92.9337C158.84 93.6288 160.637 93.9866 162.452 93.9868C164.267 93.9871 166.064 93.6296 167.74 92.935C169.417 92.2403 170.941 91.2221 172.224 89.9384C171.921 86.9692 172.789 84.1782 179.588 82.2908C179.709 82.1646 179.854 82.0635 180.014 81.9933C180.174 81.9231 180.346 81.8851 180.521 81.8816C180.696 81.8781 180.869 81.9091 181.032 81.9728C181.195 82.0365 181.343 82.1317 181.469 82.2529C181.595 82.3741 181.696 82.519 181.765 82.6792C181.835 82.8394 181.873 83.0118 181.876 83.1865C181.879 83.3612 181.847 83.5348 181.783 83.6973C181.719 83.8598 181.623 84.0081 181.502 84.1336L174.119 91.799C172.592 93.3379 170.775 94.5583 168.773 95.3895C166.771 96.2207 164.624 96.646 162.456 96.6408Z" fill="white"/>
<path d="M185.148 76.4673C182.984 76.4732 180.841 76.0498 178.842 75.2217C176.842 74.3936 175.027 73.1772 173.502 71.643C173.253 71.3938 173.113 71.056 173.113 70.7037C173.113 70.3514 173.253 70.0135 173.502 69.7645C173.751 69.5154 174.089 69.3755 174.441 69.3755C174.793 69.3756 175.131 69.5155 175.38 69.7647C176.663 71.0474 178.186 72.065 179.862 72.7592C181.538 73.4534 183.334 73.8107 185.148 73.8107C186.962 73.8107 188.758 73.4534 190.434 72.7592C192.11 72.065 193.633 71.0475 194.916 69.7647C196.686 59.1009 203.903 57.596 210.176 54.5044C211.459 53.2217 212.477 51.6989 213.171 50.0229C213.865 48.3469 214.222 46.5506 214.222 44.7365C214.222 42.9224 213.865 41.1261 213.171 39.4501C212.477 37.7742 211.459 36.2513 210.176 34.9686C208.894 33.6859 207.371 32.6684 205.695 31.9741C204.019 31.2799 202.222 30.9227 200.408 30.9227C198.594 30.9227 196.798 31.28 195.122 31.9742C193.446 32.6684 191.923 33.686 190.641 34.9687C188.895 40.0034 187.182 45.0976 181.985 43.6247C181.861 43.748 181.715 43.8459 181.554 43.9126C181.393 43.9794 181.22 44.0137 181.045 44.0137C180.693 44.0137 180.355 43.8738 180.106 43.6247C179.857 43.3756 179.717 43.0378 179.717 42.6855C179.717 42.3333 179.857 41.9955 180.106 41.7464L188.762 33.0904C190.292 31.561 192.107 30.3478 194.105 29.5201C196.104 28.6923 198.245 28.2663 200.408 28.2663C202.571 28.2663 204.713 28.6923 206.711 29.52C208.709 30.3477 210.525 31.5609 212.055 33.0903C213.584 34.6197 214.797 36.4353 215.625 38.4336C216.453 40.4319 216.879 42.5736 216.879 44.7365C216.879 46.8994 216.453 49.0411 215.625 51.0394C214.797 53.0376 213.584 54.8533 212.055 56.3827L196.794 71.6432C195.268 73.1774 193.453 74.3938 191.454 75.2218C189.455 76.0499 187.312 76.4732 185.148 76.4673Z" fill="white"/>
<path d="M235.329 30.8829C232.726 26.4615 229.593 22.3741 226 18.7112C225.198 17.8965 224.371 17.0994 223.525 16.3246C223.056 15.8952 222.582 15.4745 222.099 15.0627C221.183 14.2746 220.24 13.513 219.279 12.7781C208.425 4.47585 195.136 -0.0154523 181.471 -6.06786e-06C147.05 -6.06786e-06 119.041 28.0049 119.041 62.4299C119.04 66.2257 119.385 70.0138 120.073 73.7468C120.074 73.7677 120.077 73.7885 120.082 73.8088C120.396 75.5224 120.786 77.2137 121.237 78.8741C124.437 90.5935 130.986 101.125 140.082 109.177C149.178 117.229 160.427 122.452 172.448 124.206C184.469 125.96 196.74 124.168 207.758 119.05C218.776 113.932 228.06 105.711 234.474 95.3937C235.338 94.0033 236.149 92.5776 236.91 91.1165C241.758 81.7611 244.156 71.3295 243.88 60.796C243.603 50.2626 240.661 39.9711 235.329 30.8829ZM181.471 123.974C173.388 123.977 165.384 122.387 157.916 119.295C150.448 116.203 143.662 111.67 137.946 105.955C132.231 100.239 127.698 93.4534 124.606 85.9852C121.514 78.517 119.924 70.5128 119.927 62.4299C119.927 28.4918 147.537 0.885525 181.471 0.885525C189.683 0.89018 197.811 2.53873 205.376 5.73401C212.94 8.92928 219.789 13.6066 225.517 19.4903C227.011 21.0155 228.422 22.6207 229.741 24.2989C231.048 25.9411 232.267 27.651 233.394 29.4216C238.091 36.8003 241.16 45.0959 242.397 53.7549C243.634 62.4139 243.01 71.237 240.567 79.6357C240.022 81.5129 239.385 83.3506 238.667 85.1526C237.946 86.9591 237.144 88.7302 236.259 90.448C231.08 100.524 223.23 108.982 213.567 114.895C203.904 120.808 192.8 123.949 181.471 123.974Z" fill="#DA8281"/>
<path d="M266.399 209.414L262.329 209.38L260.528 193.317L266.534 193.368L266.399 209.414Z" fill="#FFB6B6"/>
<path d="M267.478 207.537L266.416 207.466L262.081 207.17L260.686 207.077L260.66 209.986L254.16 214.396C253.839 214.614 253.596 214.929 253.467 215.295C253.337 215.661 253.328 216.058 253.441 216.43C253.554 216.801 253.782 217.127 254.093 217.359C254.404 217.591 254.781 217.718 255.169 217.721L263.259 217.787L264.676 214.918L265.194 217.805L268.249 217.831L267.478 207.537Z" fill="#844031"/>
<path d="M309.246 206.441L305.356 207.637L298.79 192.867L304.531 191.102L309.246 206.441Z" fill="#FFB6B6"/>
<path d="M309.709 204.327L308.673 204.58L304.454 205.602L303.094 205.935L303.949 208.72L299.083 214.883C298.871 215.151 298.74 215.474 298.703 215.814C298.667 216.154 298.727 216.497 298.876 216.804C299.025 217.112 299.257 217.371 299.547 217.553C299.836 217.734 300.171 217.831 300.513 217.831C300.693 217.831 300.872 217.804 301.044 217.752L308.779 215.374L309.262 212.208L310.63 214.803L313.548 213.904L309.709 204.327Z" fill="#844031"/>
<path d="M258.213 74.3473L250.447 96.9167L250.19 98.7228C248.234 100.581 250.692 101.193 249.77 101.683C248.848 102.173 248.229 103.546 249.471 103.792C250.713 104.037 254.718 192.067 260 195.485C265.282 198.903 268.497 201.376 267.527 196.371C267.136 194.354 267.689 183.543 268.489 171.351C268.579 169.969 270.011 168.507 268.769 167.163C267.527 165.82 268.922 164.936 269 163.821C270.114 147.901 271.401 132.183 271.401 132.183C271.401 132.183 279.633 160.457 281.771 158.268C283.909 156.079 283.063 161.468 283.716 163.078C284.262 164.424 281.933 167.067 285.356 167.108C288.78 167.148 296.819 194.631 297.635 194.6C299.251 194.538 303.793 194.712 306.49 194.157C307.822 193.883 301.91 173.076 296.972 155.108C296.579 153.675 294.436 153.642 295.814 150.876C297.192 148.109 290.335 130.21 290.924 129.382C292.485 127.185 293.08 126.23 291.54 126.086C290 125.942 289.544 126.787 289.461 124.655C289.378 122.524 289.112 117.268 289.112 117.268C289.112 117.268 287.997 96.4805 280.183 84.9958L279.517 78.1719L258.213 74.3473Z" fill="#844031"/>
<path d="M277.615 31.2565L267.316 32.723L266.695 40.1805L261.613 48.1304C261.613 48.1304 250.316 56.0803 258.194 68.6386C255.196 79.4567 252.215 89.8317 249.373 96.7486C247.16 110.474 266.992 111.79 289.665 106.932C289.665 106.932 289.353 101.063 287.295 98.2418C285.237 95.4203 286.357 94.8042 286.357 94.8042L284.92 89.5331C285.733 81.9138 282.986 81.2299 281.695 77.7097L285.615 41.184L277.615 31.2565Z" fill="#F6D3C1"/>
<path d="M228.174 95.0996C228.283 94.3664 228.674 93.7047 229.264 93.2553C229.853 92.8059 230.595 92.6043 231.331 92.6934C231.48 92.7138 231.628 92.7466 231.772 92.7914L237.737 84.8553L242.829 86.4656L233.482 96.4535C233.25 97.0358 232.832 97.525 232.293 97.8447C231.753 98.1644 231.124 98.2966 230.502 98.2207C230.148 98.1742 229.807 98.0584 229.498 97.8801C229.189 97.7017 228.918 97.4643 228.701 97.1813C228.484 96.8984 228.325 96.5754 228.233 96.2309C228.14 95.8864 228.117 95.527 228.163 95.1734C228.167 95.1488 228.17 95.1242 228.174 95.0996Z" fill="#FFB6B6"/>
<path d="M281.164 45.689C281.018 45.5074 280.859 45.3303 280.69 45.1575C279.521 43.9523 278.015 43.1282 276.369 42.7933C274.723 42.4583 273.015 42.6281 271.467 43.2803C271.317 43.3421 271.166 43.4131 271.02 43.484C265.729 46.0828 262.874 47.8141 262.528 48.6244C262.409 48.899 262.307 49.169 262.205 49.4302C262.107 49.687 262.014 49.9305 261.917 50.1518C261.51 51.0994 261.04 51.6883 259.845 51.4226C259.448 51.3257 259.066 51.1784 258.707 50.9844C258.543 50.9046 258.393 50.8205 258.251 50.7407C257.737 50.4575 257.365 50.2539 257.113 50.4398C256.87 50.6212 256.861 51.0817 257.082 52.1488C257.155 52.5942 257.143 53.0494 257.047 53.4903C256.754 54.7765 256.295 56.0192 255.683 57.1874C254.765 59.0186 253.733 60.7903 252.592 62.4918L242.059 77.5103L241.346 78.5243L240.567 79.6357L234.35 88.4999L234.718 88.8761L236.259 90.448L236.6 90.7978L236.91 91.1165L237.711 91.9356L238.464 92.7016L255.258 79.0202L257.131 77.4926L260.487 74.7564L267.363 69.1555L280.376 57.1122C281.197 56.358 281.858 55.4457 282.318 54.43C282.779 53.4143 283.029 52.3161 283.055 51.2013C283.055 51.126 283.059 51.0551 283.059 50.9799C283.064 49.0492 282.394 47.1775 281.164 45.689Z" fill="#F6D3C1"/>
<path d="M271.432 30.9851C277.788 30.9851 282.941 25.8327 282.941 19.4768C282.941 13.121 277.788 7.96853 271.432 7.96853C265.076 7.96853 259.924 13.121 259.924 19.4768C259.924 25.8327 265.076 30.9851 271.432 30.9851Z" fill="#FFB6B6"/>
<path d="M286.683 35.4347C288.228 37.6452 289.261 40.1717 289.708 42.8311C288.463 43.6274 287.014 44.0456 285.537 44.0351C285.486 43.8416 285.436 43.6481 285.379 43.4546C284.951 41.9562 284.314 40.5254 283.487 39.2045C283.6 40.6289 283.407 42.061 282.921 43.4045C282.14 43.0496 281.303 42.8337 280.448 42.7666C279.751 42.7665 279.064 42.9285 278.441 43.2396C277.717 40.8386 277.051 38.6312 276.578 37.0473C276.563 41.0178 270.744 44.4795 264.394 43.9778C264.164 43.8345 266.465 37.3053 266.243 37.1548C265.734 36.8179 265.239 36.4524 264.745 36.0941C266.823 32.8832 269.081 29.443 268.694 28.927C268.723 29.5649 266.443 32.6324 263.964 35.5278C262.588 34.5173 270.407 18.0761 266.544 16.743C266.479 17.3236 265.626 17.3236 264.587 17.2017C264.313 16.2439 263.905 15.3294 263.376 14.4854C263.445 15.3356 263.343 16.191 263.075 17.001C262.049 17.0013 261.025 17.1094 260.022 17.3235C259.79 16.9582 259.533 16.6086 259.255 16.2771C259.282 16.6811 259.27 17.0868 259.219 17.4884C258.194 17.7105 257.349 17.9686 257.227 18.1764C256.424 17.8826 257.793 16.5567 257.291 15.8686C256.015 14.1486 257.908 11.6401 259.104 9.86262C261.563 6.22179 266.96 4.96038 270.78 7.14632C270.952 6.55144 271.833 6.15727 272.966 5.89209C273.445 5.78631 273.937 5.74057 274.428 5.75592C279.301 5.84191 286.067 9.86262 286.332 14.7291C286.354 15.2164 286.389 15.7468 286.425 16.313C286.769 21.76 286.346 26.7841 290.066 30.7689C291.414 32.2095 291.428 39.0325 290.912 42.5444C289.572 41.1325 288.618 35.6425 286.683 35.4347Z" fill="#844031"/>
<path d="M159.935 63.9839C160.669 63.9839 161.263 63.3892 161.263 62.6556C161.263 61.922 160.669 61.3273 159.935 61.3273C159.201 61.3273 158.607 61.922 158.607 62.6556C158.607 63.3892 159.201 63.9839 159.935 63.9839Z" fill="#F5ACA4"/>
<path d="M201.998 63.0984C202.731 63.0984 203.326 62.5037 203.326 61.7701C203.326 61.0365 202.731 60.4418 201.998 60.4418C201.264 60.4418 200.669 61.0365 200.669 61.7701C200.669 62.5037 201.264 63.0984 201.998 63.0984Z" fill="#F5ACA4"/>
<path d="M75.5573 24.262C74.5464 26.7797 71.6945 31.7306 71.3083 34.4315L71.4821 34.2605C71.8138 34.8271 72.1907 35.366 72.6091 35.8718C73.359 35.0842 74.2648 34.4614 75.2687 34.0431C74.7205 35.1679 74.403 36.3911 74.335 37.6405C75.4112 41.0141 80.3867 39.5117 83.3018 39.1434C86.213 42.4733 90.086 43.3422 95.1578 41.4278C96.5763 41.5739 98.1642 41.6625 99.1582 40.8243C100.152 39.9862 99.5602 38.434 100.095 37.26C103.904 28.8975 100.389 25.8803 97.402 22.0885C96.7447 21.254 96.7474 20.0088 95.9476 19.2126C94.8379 18.109 93.1368 17.7696 91.5685 17.4977C91.9759 17.5192 92.382 17.4354 92.7476 17.2544C93.1133 17.0735 93.4262 16.8015 93.6562 16.4645C93.8581 16.1251 93.9622 15.7365 93.9572 15.3416C93.9522 14.9467 93.8382 14.5609 93.6278 14.2267C93.0669 13.2968 91.9014 12.7561 90.7769 12.621C89.6691 12.5457 88.5563 12.6414 87.4775 12.9046C86.7788 12.9965 86.1021 13.2128 85.4796 13.5432C85.1858 13.6999 84.9469 13.9426 84.7948 14.2387C84.6427 14.5348 84.5846 14.8703 84.6283 15.2004C84.722 15.5051 84.8833 15.7848 85.1002 16.0186C85.317 16.2523 85.5839 16.4341 85.8808 16.5503C86.3335 16.7417 86.8097 16.8721 87.2968 16.9379C85.0595 16.6476 82.7869 17.0454 80.7813 18.0784C78.2678 19.4191 76.5716 21.7458 75.5573 24.262Z" fill="#844031"/>
<path d="M89.1674 38.3767C94.1297 38.3767 98.1524 34.354 98.1524 29.3918C98.1524 24.4296 94.1297 20.4069 89.1674 20.4069C84.2052 20.4069 80.1825 24.4296 80.1825 29.3918C80.1825 34.354 84.2052 38.3767 89.1674 38.3767Z" fill="#FFB6B6"/>
<path d="M80.5217 24.5742C81.0427 26.1487 82.5314 26.6561 83.9074 26.9725C84.3413 27.0736 84.7778 27.1678 85.2184 27.2517C85.3809 27.0485 85.5538 26.8493 85.7344 26.661C86.4843 25.8734 87.3901 25.2506 88.394 24.8323C87.9599 25.7208 87.6714 26.6733 87.5395 27.6533C88.3713 27.774 89.2078 27.8726 90.0489 27.9492C90.7605 28.1007 91.5031 27.973 92.1232 27.5925C92.7433 27.212 93.1935 26.6078 93.3808 25.9048C94.1465 27.1569 95.0518 28.336 96.2899 28.8334C96.9979 29.0878 97.7687 29.1087 98.4895 28.8931C99.2102 28.6775 99.8429 28.2367 100.295 27.6353C101.009 26.6542 101.504 25.5314 101.746 24.3426C102.098 22.9483 102.293 21.3422 101.603 20.4576C101.05 19.7416 100.097 19.7288 99.2174 19.7923C97.2759 19.9412 95.355 20.2895 93.4848 20.8316L93.3265 21.1875C93.6479 19.2567 92.9508 17.399 91.6609 16.7384C90.7909 16.2966 89.7441 16.3707 88.7271 16.4603C87.4207 16.5186 86.1299 16.7682 84.896 17.2012C83.4804 17.7457 82.2677 18.7143 81.4237 19.9744C80.5209 21.3451 80.0723 23.2145 80.5217 24.5742Z" fill="#844031"/>
<path d="M93.3305 16.1765C93.2419 16.1503 93.4716 16.1839 93.3919 16.186C93.4315 16.1837 93.4708 16.1782 93.5095 16.1696C93.5161 16.1682 93.6055 16.1397 93.5461 16.1607C93.6796 16.1208 93.7986 16.0431 93.8889 15.937C94.0999 15.676 94.2655 15.3814 94.3786 15.0653C94.5214 14.6477 94.751 14.2651 95.0521 13.9424C95.1376 13.8566 95.2421 13.7921 95.3571 13.7542C95.4722 13.7163 95.5946 13.7061 95.7143 13.7244C95.8341 13.7426 95.9478 13.7889 96.0464 13.8594C96.1449 13.9299 96.2254 14.0226 96.2814 14.13C96.395 14.5445 96.3561 14.986 96.1717 15.3742C96.0429 15.7692 95.8512 16.1409 95.6041 16.4748C95.1899 17.0209 94.6259 17.4348 93.9806 17.6659C93.2338 17.9371 92.4193 17.9604 91.6582 17.7323C91.5577 17.6905 91.4714 17.6205 91.41 17.5306C91.3485 17.4407 91.3145 17.3349 91.3122 17.2261C91.3098 17.1172 91.3391 17.0101 91.3966 16.9176C91.4541 16.8251 91.5372 16.7514 91.6358 16.7053L92.9052 16.1857C92.972 16.1563 93.044 16.1404 93.117 16.1388C93.19 16.1372 93.2625 16.15 93.3305 16.1765C93.3986 16.2029 93.4608 16.2425 93.5135 16.293C93.5663 16.3435 93.6085 16.4038 93.6379 16.4707C93.6673 16.5375 93.6833 16.6094 93.6849 16.6824C93.6865 16.7554 93.6737 16.828 93.6472 16.896C93.6208 16.9641 93.5812 17.0262 93.5307 17.079C93.4802 17.1317 93.4198 17.174 93.353 17.2034L92.0836 17.723L92.0612 16.696C92.2195 16.7418 92.3825 16.7696 92.5471 16.7791C92.7227 16.7967 92.8999 16.7892 93.0734 16.7569C93.2396 16.7351 93.4028 16.6953 93.5604 16.6382C93.6613 16.6013 93.7603 16.5594 93.8569 16.5125C93.892 16.4955 93.9268 16.4778 93.9613 16.4594C93.9588 16.4607 94.1065 16.3747 94.0417 16.4151C94.2059 16.3102 94.3599 16.1902 94.5018 16.0567C94.5519 16.0094 94.5981 15.958 94.6398 15.9031C94.7121 15.8143 94.7792 15.7213 94.8406 15.6246C94.9657 15.4199 95.0647 15.2005 95.1355 14.9713C95.1678 14.8749 95.195 14.777 95.2171 14.6778C95.2232 14.6234 95.2331 14.5695 95.2466 14.5164C95.2937 14.3899 95.2376 14.5902 95.2918 14.645L95.5258 14.8175C95.5698 14.8306 95.6161 14.8336 95.6614 14.8263C95.7066 14.8191 95.7497 14.8018 95.7873 14.7756C95.8151 14.7366 95.809 14.7431 95.7692 14.795C95.7228 14.8562 95.6804 14.9202 95.6421 14.9867C95.5583 15.1433 95.4824 15.304 95.4148 15.4683C95.2752 15.8177 95.0986 16.1512 94.8881 16.463C94.6819 16.7785 94.3813 17.0208 94.0293 17.1554C93.6772 17.29 93.2917 17.3101 92.9276 17.2127C92.7909 17.1583 92.6812 17.0523 92.6219 16.9177C92.5627 16.7831 92.5588 16.6306 92.611 16.4931C92.6668 16.3576 92.7729 16.2489 92.907 16.1899C93.0412 16.1309 93.1929 16.1261 93.3305 16.1765Z" fill="#844031"/>
</g>
<defs>
<filter id="filter0_d_1_7" x="0" y="0" width="328" height="226.725" filterUnits="userSpaceOnUse" color-interpolation-filters="sRGB">
<feFlood flood-opacity="0" result="BackgroundImageFix"/>
<feColorMatrix in="SourceAlpha" type="matrix" values="0 0 0 0 0 0 0 0 0 0 0 0 0 0 0 0 0 0 127 0" result="hardAlpha"/>
<feOffset dy="4"/>
<feGaussianBlur stdDeviation="2"/>
<feComposite in2="hardAlpha" operator="out"/>
<feColorMatrix type="matrix" values="0 0 0 0 0 0 0 0 0 0 0 0 0 0 0 0 0 0 0.25 0"/>
<feBlend mode="normal" in2="BackgroundImageFix" result="effect1_dropShadow_1_7"/>
<feBlend mode="normal" in="SourceGraphic" in2="effect1_dropShadow_1_7" result="shape"/>
</filter>
<clipPath id="clip0_1_7">
<rect width="320" height="218.725" fill="white" transform="translate(4)"/>
</clipPath>
</defs>
</svg>
