<svg width="16" height="16" viewBox="0 0 16 16" fill="none" xmlns="http://www.w3.org/2000/svg">
<g id="UI icon/star/filled">
<path id="Star 3" d="M6.75736 2.56219C7.17242 1.36811 8.86113 1.36811 9.2762 2.56219L9.90655 4.37562C10.0896 4.90238 10.5812 5.25955 11.1388 5.27091L13.0583 5.31002C14.3222 5.33578 14.844 6.94184 13.8366 7.70558L12.3067 8.86546C11.8623 9.20238 11.6746 9.78028 11.8361 10.3141L12.392 12.1517C12.7581 13.3617 11.3919 14.3543 10.3542 13.6322L8.77835 12.5356C8.3206 12.2171 7.71296 12.2171 7.2552 12.5356L5.67933 13.6322C4.64167 14.3543 3.27548 13.3617 3.64155 12.1517L4.19749 10.3141C4.35898 9.78028 4.17121 9.20238 3.72682 8.86546L2.19692 7.70558C1.18955 6.94184 1.71139 5.33578 2.97528 5.31002L4.89476 5.27091C5.45232 5.25955 5.94391 4.90239 6.12701 4.37562L6.75736 2.56219Z" fill="#FFC554"/>
</g>
</svg>
