<svg xmlns="http://www.w3.org/2000/svg" width="16" height="16" viewBox="0 0 16 16" fill="none">
  <path d="M6.75712 2.56225C7.17218 1.36817 8.86089 1.36817 9.27595 2.56225L9.9063 4.37569C10.0894 4.90245 10.581 5.25961 11.1386 5.27097L13.058 5.31008C14.3219 5.33584 14.8438 6.9419 13.8364 7.70564L12.3065 8.86552C11.8621 9.20244 11.6743 9.78034 11.8358 10.3141L12.3918 12.1517C12.7578 13.3617 11.3916 14.3543 10.354 13.6323L8.77811 12.5357C8.32035 12.2171 7.71271 12.2171 7.25496 12.5357L5.67908 13.6323C4.64143 14.3543 3.27523 13.3617 3.6413 12.1517L4.19725 10.3141C4.35874 9.78034 4.17097 9.20244 3.72657 8.86552L2.19668 7.70564C1.1893 6.9419 1.71114 5.33584 2.97504 5.31008L4.89451 5.27097C5.45207 5.25961 5.94366 4.90245 6.12676 4.37569L6.75712 2.56225Z" fill="#181F29"/>
</svg>