<svg width="70" height="70" viewBox="0 0 70 70" fill="none" xmlns="http://www.w3.org/2000/svg">
<path d="M22.4598 50.9688C21.3831 52.0454 20.8178 53.5347 20.909 55.0546C21.0002 56.5746 21.7394 57.9857 22.9372 58.926L24.8019 60.3899C23.5216 62.0808 23.2322 64.2705 24.0681 66.2884C25.0164 68.5779 27.1449 70.0001 29.623 70.0001H38.7524C39.5074 70.0001 40.1196 69.388 40.1196 68.6329C40.1196 67.8778 39.5074 67.2657 38.7524 67.2657H29.623C28.008 67.2657 26.9996 66.2204 26.5944 65.242C26.2214 64.342 26.1722 63.0411 27.0558 61.9493C29.9724 63.6682 33.2371 64.5179 36.4913 64.5179C41.2817 64.5179 46.0498 62.6799 49.6586 59.0711L64.5481 44.1816C71.2012 37.5283 71.8371 26.9301 66.0271 19.5291L64.4031 17.4603C63.463 16.2627 62.0519 15.5234 60.532 15.4322C59.0118 15.3413 57.5227 15.9061 56.4459 16.9829L48.8832 24.5454C46.8062 26.6225 46.8062 30.0021 48.8832 32.0793L51.252 34.4481C51.2832 34.4868 51.3161 34.5244 51.3521 34.5603C51.3708 34.579 51.3908 34.5956 51.4103 34.6129C51.6726 34.9077 51.8175 35.2825 51.8175 35.6802C51.8175 36.1103 51.65 36.5146 51.3458 36.8188L42.3022 45.8624C41.9983 46.1666 41.5937 46.3341 41.1637 46.3341C40.7337 46.3341 40.3293 46.1666 40.0253 45.8625L37.5628 43.4001C35.4857 41.3231 32.1062 41.3231 30.029 43.4001L22.4598 50.9688ZM62.2526 19.1488L63.3863 20.5929L52.3252 31.654L50.8171 30.1458C50.3274 29.6562 50.0576 29.0051 50.0576 28.3124C50.0576 27.6198 50.3274 26.9688 50.8171 26.4791L58.3797 18.9165C58.9114 18.3847 59.6171 18.1164 60.3685 18.1617C61.1191 18.2068 61.7883 18.5573 62.2526 19.1488ZM28.3244 59.5217L39.2304 48.6157C39.8239 48.9112 40.4815 49.0686 41.1637 49.0686C42.3243 49.0686 43.4152 48.6166 44.2358 47.796L53.2794 38.7524C54.1 37.9318 54.552 36.8408 54.552 35.6803C54.552 34.9981 54.3946 34.3405 54.0992 33.7471L64.999 22.8473C68.7062 29.013 67.8184 37.0448 62.6149 42.2481L47.7254 57.1376C42.5219 62.341 34.4904 63.229 28.3244 59.5217ZM24.3939 52.9025L31.9627 45.3337C32.9736 44.3227 34.6188 44.3225 35.6295 45.3337L37.1375 46.8418L26.0702 57.9091L24.6262 56.7755C24.0346 56.311 23.6839 55.6418 23.6389 54.8911C23.594 54.1404 23.8621 53.4342 24.3939 52.9025Z" fill="url(#paint0_linear_70_16503)"/>
<path d="M22.4598 50.9688C21.3831 52.0454 20.8178 53.5347 20.909 55.0546C21.0002 56.5746 21.7394 57.9857 22.9372 58.926L24.8019 60.3899C23.5216 62.0808 23.2322 64.2705 24.0681 66.2884C25.0164 68.5779 27.1449 70.0001 29.623 70.0001H38.7524C39.5074 70.0001 40.1196 69.388 40.1196 68.6329C40.1196 67.8778 39.5074 67.2657 38.7524 67.2657H29.623C28.008 67.2657 26.9996 66.2204 26.5944 65.242C26.2214 64.342 26.1722 63.0411 27.0558 61.9493C29.9724 63.6682 33.2371 64.5179 36.4913 64.5179C41.2817 64.5179 46.0498 62.6799 49.6586 59.0711L64.5481 44.1816C71.2012 37.5283 71.8371 26.9301 66.0271 19.5291L64.4031 17.4603C63.463 16.2627 62.0519 15.5234 60.532 15.4322C59.0118 15.3413 57.5227 15.9061 56.4459 16.9829L48.8832 24.5454C46.8062 26.6225 46.8062 30.0021 48.8832 32.0793L51.252 34.4481C51.2832 34.4868 51.3161 34.5244 51.3521 34.5603C51.3708 34.579 51.3908 34.5956 51.4103 34.6129C51.6726 34.9077 51.8175 35.2825 51.8175 35.6802C51.8175 36.1103 51.65 36.5146 51.3458 36.8188L42.3022 45.8624C41.9983 46.1666 41.5937 46.3341 41.1637 46.3341C40.7337 46.3341 40.3293 46.1666 40.0253 45.8625L37.5628 43.4001C35.4857 41.3231 32.1062 41.3231 30.029 43.4001L22.4598 50.9688ZM62.2526 19.1488L63.3863 20.5929L52.3252 31.654L50.8171 30.1458C50.3274 29.6562 50.0576 29.0051 50.0576 28.3124C50.0576 27.6198 50.3274 26.9688 50.8171 26.4791L58.3797 18.9165C58.9114 18.3847 59.6171 18.1164 60.3685 18.1617C61.1191 18.2068 61.7883 18.5573 62.2526 19.1488ZM28.3244 59.5217L39.2304 48.6157C39.8239 48.9112 40.4815 49.0686 41.1637 49.0686C42.3243 49.0686 43.4152 48.6166 44.2358 47.796L53.2794 38.7524C54.1 37.9318 54.552 36.8408 54.552 35.6803C54.552 34.9981 54.3946 34.3405 54.0992 33.7471L64.999 22.8473C68.7062 29.013 67.8184 37.0448 62.6149 42.2481L47.7254 57.1376C42.5219 62.341 34.4904 63.229 28.3244 59.5217ZM24.3939 52.9025L31.9627 45.3337C32.9736 44.3227 34.6188 44.3225 35.6295 45.3337L37.1375 46.8418L26.0702 57.9091L24.6262 56.7755C24.0346 56.311 23.6839 55.6418 23.6389 54.8911C23.594 54.1404 23.8621 53.4342 24.3939 52.9025Z" fill="url(#paint1_linear_70_16503)"/>
<path d="M58.1686 40.0764C58.7026 39.5426 59.568 39.5426 60.1022 40.0764C60.6361 40.6103 60.6361 41.476 60.1022 42.01L51.8519 50.2603C51.5849 50.5273 51.2351 50.6607 50.8852 50.6607C50.5353 50.6607 50.1855 50.5273 49.9185 50.2603C49.3846 49.7264 49.3846 48.8607 49.9185 48.3267L58.1686 40.0764Z" fill="url(#paint2_linear_70_16503)"/>
<path d="M46.5947 52.2167C46.9543 52.2167 47.307 52.363 47.5612 52.6173C47.8155 52.8715 47.9619 53.2243 47.9619 53.5839C47.9619 53.9434 47.8156 54.2962 47.5612 54.5505C47.307 54.8047 46.9555 54.951 46.5947 54.951C46.2352 54.951 45.8824 54.8047 45.6281 54.5505C45.3738 54.2962 45.2275 53.9434 45.2275 53.5839C45.2275 53.2243 45.3737 52.8716 45.6281 52.6173C45.8826 52.363 46.2352 52.2167 46.5947 52.2167Z" fill="url(#paint3_linear_70_16503)"/>
<path d="M2.94311e-09 10.1171V20.9178C2.94311e-09 26.4965 4.53849 31.035 10.1171 31.035H18.2114L23.0192 35.8429C23.2807 36.1043 23.6303 36.2434 23.9862 36.2434C24.1623 36.2434 24.34 36.2093 24.5092 36.1392C25.0199 35.9276 25.3531 35.429 25.3531 34.8761V31.035H36.3669C41.9455 31.035 46.484 26.4965 46.484 20.9178V10.1171C46.484 4.53849 41.9455 0 36.3669 0H10.117C4.53849 1.16658e-07 -0.000133454 4.53849 2.94311e-09 10.1171ZM2.73423 20.9178V10.1171C2.73423 6.04621 6.04623 2.73436 10.117 2.73436H36.3669C40.4376 2.73436 43.7496 6.04621 43.7496 10.1171V20.9178C43.7496 24.9888 40.4376 28.3006 36.3669 28.3006H23.9859C23.231 28.3006 22.6188 28.9127 22.6188 29.6678V31.5754L19.7444 28.7011C19.4879 28.4447 19.1402 28.3006 18.7777 28.3006H10.117C6.04622 28.3006 2.73423 24.9888 2.73423 20.9178Z" fill="url(#paint4_linear_70_16503)"/>
<path d="M2.94311e-09 10.1171V20.9178C2.94311e-09 26.4965 4.53849 31.035 10.1171 31.035H18.2114L23.0192 35.8429C23.2807 36.1043 23.6303 36.2434 23.9862 36.2434C24.1623 36.2434 24.34 36.2093 24.5092 36.1392C25.0199 35.9276 25.3531 35.429 25.3531 34.8761V31.035H36.3669C41.9455 31.035 46.484 26.4965 46.484 20.9178V10.1171C46.484 4.53849 41.9455 0 36.3669 0H10.117C4.53849 1.16658e-07 -0.000133454 4.53849 2.94311e-09 10.1171ZM2.73423 20.9178V10.1171C2.73423 6.04621 6.04623 2.73436 10.117 2.73436H36.3669C40.4376 2.73436 43.7496 6.04621 43.7496 10.1171V20.9178C43.7496 24.9888 40.4376 28.3006 36.3669 28.3006H23.9859C23.231 28.3006 22.6188 28.9127 22.6188 29.6678V31.5754L19.7444 28.7011C19.4879 28.4447 19.1402 28.3006 18.7777 28.3006H10.117C6.04622 28.3006 2.73423 24.9888 2.73423 20.9178Z" fill="url(#paint5_linear_70_16503)"/>
<path d="M46.1277 64.2752C46.6615 63.7413 47.527 63.7413 48.0613 64.2752C48.5951 64.8091 48.5951 65.6748 48.0613 66.2086L44.6708 69.5991C44.4038 69.8661 44.0539 69.9996 43.7041 69.9996C43.3542 69.9996 43.0043 69.866 42.7373 69.5991C42.2034 69.0652 42.2034 68.1995 42.7373 67.6656L46.1277 64.2752Z" fill="url(#paint6_linear_70_16503)"/>
<path d="M53.0476 64.2752C53.5815 63.7413 54.4469 63.7413 54.9812 64.2752C55.5151 64.8091 55.5151 65.6748 54.9812 66.2086L51.5907 69.5991C51.3237 69.8661 50.9738 69.9996 50.624 69.9996C50.2741 69.9996 49.9243 69.866 49.6572 69.5991C49.1234 69.0652 49.1234 68.1995 49.6572 67.6656L53.0476 64.2752Z" fill="url(#paint7_linear_70_16503)"/>
<path d="M59.967 64.2752C60.5009 63.7413 61.3663 63.7413 61.9006 64.2752C62.4345 64.8091 62.4345 65.6748 61.9006 66.2086L58.5101 69.5991C58.2431 69.8661 57.8933 69.9996 57.5434 69.9996C57.1936 69.9996 56.8437 69.866 56.5767 69.5991C56.0428 69.0652 56.0428 68.1995 56.5767 67.6656L59.967 64.2752Z" fill="url(#paint8_linear_70_16503)"/>
<path d="M16.9285 11.1283C17.7903 11.1283 18.4888 10.4297 18.4888 9.56791C18.4888 8.70616 17.7903 8.00757 16.9285 8.00757C16.0668 8.00757 15.3682 8.70616 15.3682 9.56791C15.3682 10.4297 16.0668 11.1283 16.9285 11.1283Z" fill="url(#paint9_linear_70_16503)"/>
<path d="M38.4973 10.5017H20.9986C20.357 10.5017 19.832 9.97678 19.832 9.33516C19.832 8.69354 20.357 8.16858 20.9986 8.16858H38.4973C39.1389 8.16858 39.6639 8.69354 39.6639 9.33516C39.6639 9.97677 39.1389 10.5017 38.4973 10.5017Z" fill="url(#paint10_linear_70_16503)"/>
<path d="M38.4969 15.7514H26.8311C26.1895 15.7514 25.6646 15.2264 25.6646 14.5848C25.6646 13.9432 26.1895 13.4182 26.8311 13.4182H38.4969C39.1385 13.4182 39.6635 13.9432 39.6635 14.5848C39.6635 15.2264 39.1385 15.7514 38.4969 15.7514Z" fill="url(#paint11_linear_70_16503)"/>
<path d="M38.497 21.001H32.6641C32.0225 21.001 31.4976 20.476 31.4976 19.8344C31.4976 19.1928 32.0225 18.6678 32.6641 18.6678H38.497C39.1387 18.6678 39.6636 19.1928 39.6636 19.8344C39.6636 20.476 39.1387 21.001 38.497 21.001Z" fill="url(#paint12_linear_70_16503)"/>
<defs>
<linearGradient id="paint0_linear_70_16503" x1="45.4471" y1="10.1536" x2="45.4471" y2="70.0001" gradientUnits="userSpaceOnUse">
<stop offset="0.0324314" stop-color="#E513C3"/>
<stop offset="1" stop-color="#F5ACA4"/>
</linearGradient>
<linearGradient id="paint1_linear_70_16503" x1="45.4471" y1="10.1536" x2="45.4471" y2="70.0001" gradientUnits="userSpaceOnUse">
<stop offset="0.0324314" stop-color="#E513C3"/>
<stop offset="1" stop-color="#F5ACA4"/>
</linearGradient>
<linearGradient id="paint2_linear_70_16503" x1="55.0103" y1="38.6155" x2="55.0103" y2="50.6607" gradientUnits="userSpaceOnUse">
<stop offset="0.0324314" stop-color="#E513C3"/>
<stop offset="1" stop-color="#F5ACA4"/>
</linearGradient>
<linearGradient id="paint3_linear_70_16503" x1="46.5947" y1="51.9527" x2="46.5947" y2="54.951" gradientUnits="userSpaceOnUse">
<stop offset="0.0324314" stop-color="#E513C3"/>
<stop offset="1" stop-color="#F5ACA4"/>
</linearGradient>
<linearGradient id="paint4_linear_70_16503" x1="23.242" y1="-3.49907" x2="23.242" y2="36.2434" gradientUnits="userSpaceOnUse">
<stop offset="0.0324314" stop-color="#E513C3"/>
<stop offset="1" stop-color="#F5ACA4"/>
</linearGradient>
<linearGradient id="paint5_linear_70_16503" x1="23.242" y1="-3.49907" x2="23.242" y2="36.2434" gradientUnits="userSpaceOnUse">
<stop offset="0.0324314" stop-color="#E513C3"/>
<stop offset="1" stop-color="#F5ACA4"/>
</linearGradient>
<linearGradient id="paint6_linear_70_16503" x1="45.3993" y1="63.2834" x2="45.3993" y2="69.9996" gradientUnits="userSpaceOnUse">
<stop offset="0.0324314" stop-color="#E513C3"/>
<stop offset="1" stop-color="#F5ACA4"/>
</linearGradient>
<linearGradient id="paint7_linear_70_16503" x1="52.3192" y1="63.2834" x2="52.3192" y2="69.9996" gradientUnits="userSpaceOnUse">
<stop offset="0.0324314" stop-color="#E513C3"/>
<stop offset="1" stop-color="#F5ACA4"/>
</linearGradient>
<linearGradient id="paint8_linear_70_16503" x1="59.2387" y1="63.2834" x2="59.2387" y2="69.9996" gradientUnits="userSpaceOnUse">
<stop offset="0.0324314" stop-color="#E513C3"/>
<stop offset="1" stop-color="#F5ACA4"/>
</linearGradient>
<linearGradient id="paint9_linear_70_16503" x1="16.9285" y1="7.70629" x2="16.9285" y2="11.1283" gradientUnits="userSpaceOnUse">
<stop offset="0.0324314" stop-color="#E513C3"/>
<stop offset="1" stop-color="#F5ACA4"/>
</linearGradient>
<linearGradient id="paint10_linear_70_16503" x1="29.748" y1="7.94333" x2="29.748" y2="10.5017" gradientUnits="userSpaceOnUse">
<stop offset="0.0324314" stop-color="#E513C3"/>
<stop offset="1" stop-color="#F5ACA4"/>
</linearGradient>
<linearGradient id="paint11_linear_70_16503" x1="32.664" y1="13.193" x2="32.664" y2="15.7514" gradientUnits="userSpaceOnUse">
<stop offset="0.0324314" stop-color="#E513C3"/>
<stop offset="1" stop-color="#F5ACA4"/>
</linearGradient>
<linearGradient id="paint12_linear_70_16503" x1="35.5806" y1="18.4426" x2="35.5806" y2="21.001" gradientUnits="userSpaceOnUse">
<stop offset="0.0324314" stop-color="#E513C3"/>
<stop offset="1" stop-color="#F5ACA4"/>
</linearGradient>
</defs>
</svg>
