<svg width="70" height="70" viewBox="0 0 70 70" fill="none" xmlns="http://www.w3.org/2000/svg">
<path d="M22.4598 50.9689C21.3831 52.0456 20.8178 53.5348 20.909 55.0547C21.0002 56.5747 21.7394 57.9858 22.9372 58.9262L24.8019 60.39C23.5216 62.0809 23.2322 64.2706 24.0681 66.2886C25.0164 68.578 27.1449 70.0002 29.623 70.0002H38.7524C39.5074 70.0002 40.1196 69.3881 40.1196 68.633C40.1196 67.8779 39.5074 67.2658 38.7524 67.2658H29.623C28.008 67.2658 26.9996 66.2205 26.5944 65.2421C26.2214 64.3421 26.1722 63.0412 27.0558 61.9494C29.9724 63.6684 33.2371 64.5181 36.4913 64.5181C41.2817 64.5181 46.0498 62.68 49.6586 59.0712L64.5481 44.1817C71.2012 37.5284 71.8371 26.9302 66.0271 19.5292L64.403 17.4604C63.463 16.2628 62.0519 15.5235 60.532 15.4324C59.0118 15.3414 57.5227 15.9062 56.4459 16.983L48.8832 24.5456C46.8062 26.6226 46.8062 30.0023 48.8832 32.0794L51.252 34.4482C51.2832 34.4869 51.3161 34.5245 51.3521 34.5604C51.3708 34.5792 51.3908 34.5957 51.4103 34.6131C51.6726 34.9078 51.8175 35.2826 51.8175 35.6803C51.8175 36.1104 51.65 36.5147 51.3458 36.8189L42.3022 45.8625C41.9983 46.1667 41.5937 46.3342 41.1637 46.3342C40.7337 46.3342 40.3293 46.1667 40.0253 45.8626L37.5628 43.4002C35.4857 41.3232 32.1062 41.3232 30.029 43.4002L22.4598 50.9689ZM62.2526 19.1489L63.3863 20.5931L52.3252 31.6541L50.8171 30.146C50.3274 29.6564 50.0576 29.0052 50.0576 28.3126C50.0576 27.6199 50.3274 26.9689 50.8171 26.4792L58.3797 18.9166C58.9114 18.3848 59.6171 18.1165 60.3685 18.1618C61.1191 18.2069 61.7883 18.5575 62.2526 19.1489ZM28.3244 59.5219L39.2304 48.6159C39.8239 48.9113 40.4815 49.0687 41.1637 49.0687C42.3243 49.0687 43.4152 48.6167 44.2358 47.7961L53.2794 38.7525C54.1 37.9319 54.552 36.8409 54.552 35.6804C54.552 34.9982 54.3946 34.3406 54.0992 33.7472L64.999 22.8474C68.7062 29.0131 67.8184 37.0449 62.6149 42.2482L47.7254 57.1378C42.5219 62.3411 34.4904 63.2291 28.3244 59.5219ZM24.3939 52.9026L31.9627 45.3338C32.9736 44.3228 34.6188 44.3226 35.6295 45.3338L37.1375 46.8419L26.0702 57.9093L24.6262 56.7756C24.0346 56.3112 23.6839 55.6419 23.6389 54.8912C23.594 54.1405 23.8621 53.4344 24.3939 52.9026Z" fill="url(#paint0_linear_434_15151)"/>
<path d="M22.4598 50.9689C21.3831 52.0456 20.8178 53.5348 20.909 55.0547C21.0002 56.5747 21.7394 57.9858 22.9372 58.9262L24.8019 60.39C23.5216 62.0809 23.2322 64.2706 24.0681 66.2886C25.0164 68.578 27.1449 70.0002 29.623 70.0002H38.7524C39.5074 70.0002 40.1196 69.3881 40.1196 68.633C40.1196 67.8779 39.5074 67.2658 38.7524 67.2658H29.623C28.008 67.2658 26.9996 66.2205 26.5944 65.2421C26.2214 64.3421 26.1722 63.0412 27.0558 61.9494C29.9724 63.6684 33.2371 64.5181 36.4913 64.5181C41.2817 64.5181 46.0498 62.68 49.6586 59.0712L64.5481 44.1817C71.2012 37.5284 71.8371 26.9302 66.0271 19.5292L64.403 17.4604C63.463 16.2628 62.0519 15.5235 60.532 15.4324C59.0118 15.3414 57.5227 15.9062 56.4459 16.983L48.8832 24.5456C46.8062 26.6226 46.8062 30.0023 48.8832 32.0794L51.252 34.4482C51.2832 34.4869 51.3161 34.5245 51.3521 34.5604C51.3708 34.5792 51.3908 34.5957 51.4103 34.6131C51.6726 34.9078 51.8175 35.2826 51.8175 35.6803C51.8175 36.1104 51.65 36.5147 51.3458 36.8189L42.3022 45.8625C41.9983 46.1667 41.5937 46.3342 41.1637 46.3342C40.7337 46.3342 40.3293 46.1667 40.0253 45.8626L37.5628 43.4002C35.4857 41.3232 32.1062 41.3232 30.029 43.4002L22.4598 50.9689ZM62.2526 19.1489L63.3863 20.5931L52.3252 31.6541L50.8171 30.146C50.3274 29.6564 50.0576 29.0052 50.0576 28.3126C50.0576 27.6199 50.3274 26.9689 50.8171 26.4792L58.3797 18.9166C58.9114 18.3848 59.6171 18.1165 60.3685 18.1618C61.1191 18.2069 61.7883 18.5575 62.2526 19.1489ZM28.3244 59.5219L39.2304 48.6159C39.8239 48.9113 40.4815 49.0687 41.1637 49.0687C42.3243 49.0687 43.4152 48.6167 44.2358 47.7961L53.2794 38.7525C54.1 37.9319 54.552 36.8409 54.552 35.6804C54.552 34.9982 54.3946 34.3406 54.0992 33.7472L64.999 22.8474C68.7062 29.0131 67.8184 37.0449 62.6149 42.2482L47.7254 57.1378C42.5219 62.3411 34.4904 63.2291 28.3244 59.5219ZM24.3939 52.9026L31.9627 45.3338C32.9736 44.3228 34.6188 44.3226 35.6295 45.3338L37.1375 46.8419L26.0702 57.9093L24.6262 56.7756C24.0346 56.3112 23.6839 55.6419 23.6389 54.8912C23.594 54.1405 23.8621 53.4344 24.3939 52.9026Z" fill="url(#paint1_linear_434_15151)"/>
<path d="M58.1691 40.0762C58.7031 39.5423 59.5685 39.5423 60.1027 40.0762C60.6366 40.6101 60.6366 41.4758 60.1027 42.0098L51.8524 50.26C51.5854 50.5271 51.2356 50.6605 50.8857 50.6605C50.5358 50.6605 50.186 50.527 49.919 50.26C49.3851 49.7262 49.3851 48.8605 49.919 48.3264L58.1691 40.0762Z" fill="url(#paint2_linear_434_15151)"/>
<path d="M46.5947 52.2168C46.9543 52.2168 47.307 52.3631 47.5612 52.6174C47.8155 52.8717 47.9619 53.2244 47.9619 53.584C47.9619 53.9436 47.8156 54.2963 47.5612 54.5506C47.307 54.8049 46.9555 54.9512 46.5947 54.9512C46.2352 54.9512 45.8824 54.8049 45.6281 54.5506C45.3738 54.2963 45.2275 53.9436 45.2275 53.584C45.2275 53.2244 45.3737 52.8717 45.6281 52.6174C45.8826 52.3631 46.2352 52.2168 46.5947 52.2168Z" fill="url(#paint3_linear_434_15151)"/>
<path d="M2.94311e-09 10.1171V20.9179C2.94311e-09 26.4965 4.53849 31.035 10.1171 31.035H18.2114L23.0192 35.8429C23.2807 36.1043 23.6303 36.2434 23.9862 36.2434C24.1623 36.2434 24.34 36.2093 24.5092 36.1392C25.0199 35.9276 25.3531 35.429 25.3531 34.8761V31.035H36.3669C41.9455 31.035 46.484 26.4965 46.484 20.9179V10.1171C46.484 4.53849 41.9455 0 36.3669 0H10.117C4.53849 1.16658e-07 -0.000133454 4.53849 2.94311e-09 10.1171ZM2.73423 20.9179V10.1171C2.73423 6.04621 6.04623 2.73436 10.117 2.73436H36.3669C40.4376 2.73436 43.7496 6.04621 43.7496 10.1171V20.9179C43.7496 24.9888 40.4376 28.3006 36.3669 28.3006H23.9859C23.231 28.3006 22.6188 28.9127 22.6188 29.6678V31.5754L19.7444 28.7011C19.4879 28.4447 19.1402 28.3006 18.7777 28.3006H10.117C6.04622 28.3006 2.73423 24.9888 2.73423 20.9179Z" fill="url(#paint4_linear_434_15151)"/>
<path d="M2.94311e-09 10.1171V20.9179C2.94311e-09 26.4965 4.53849 31.035 10.1171 31.035H18.2114L23.0192 35.8429C23.2807 36.1043 23.6303 36.2434 23.9862 36.2434C24.1623 36.2434 24.34 36.2093 24.5092 36.1392C25.0199 35.9276 25.3531 35.429 25.3531 34.8761V31.035H36.3669C41.9455 31.035 46.484 26.4965 46.484 20.9179V10.1171C46.484 4.53849 41.9455 0 36.3669 0H10.117C4.53849 1.16658e-07 -0.000133454 4.53849 2.94311e-09 10.1171ZM2.73423 20.9179V10.1171C2.73423 6.04621 6.04623 2.73436 10.117 2.73436H36.3669C40.4376 2.73436 43.7496 6.04621 43.7496 10.1171V20.9179C43.7496 24.9888 40.4376 28.3006 36.3669 28.3006H23.9859C23.231 28.3006 22.6188 28.9127 22.6188 29.6678V31.5754L19.7444 28.7011C19.4879 28.4447 19.1402 28.3006 18.7777 28.3006H10.117C6.04622 28.3006 2.73423 24.9888 2.73423 20.9179Z" fill="url(#paint5_linear_434_15151)"/>
<path d="M46.1277 64.2754C46.6615 63.7415 47.527 63.7415 48.0613 64.2754C48.5951 64.8093 48.5951 65.675 48.0613 66.2089L44.6708 69.5994C44.4038 69.8664 44.0539 69.9998 43.7041 69.9998C43.3542 69.9998 43.0043 69.8662 42.7373 69.5994C42.2034 69.0655 42.2034 68.1998 42.7373 67.6659L46.1277 64.2754Z" fill="url(#paint6_linear_434_15151)"/>
<path d="M53.0476 64.2754C53.5815 63.7415 54.4469 63.7415 54.9812 64.2754C55.5151 64.8093 55.5151 65.675 54.9812 66.2089L51.5907 69.5994C51.3237 69.8664 50.9738 69.9998 50.624 69.9998C50.2741 69.9998 49.9243 69.8662 49.6572 69.5994C49.1234 69.0655 49.1234 68.1998 49.6572 67.6659L53.0476 64.2754Z" fill="url(#paint7_linear_434_15151)"/>
<path d="M59.9675 64.2754C60.5014 63.7415 61.3668 63.7415 61.9011 64.2754C62.435 64.8093 62.435 65.675 61.9011 66.2089L58.5106 69.5994C58.2436 69.8664 57.8938 69.9998 57.5439 69.9998C57.194 69.9998 56.8442 69.8662 56.5772 69.5994C56.0433 69.0655 56.0433 68.1998 56.5772 67.6659L59.9675 64.2754Z" fill="url(#paint8_linear_434_15151)"/>
<path d="M16.9285 11.1285C17.7903 11.1285 18.4888 10.4299 18.4888 9.56816C18.4888 8.7064 17.7903 8.00781 16.9285 8.00781C16.0668 8.00781 15.3682 8.7064 15.3682 9.56816C15.3682 10.4299 16.0668 11.1285 16.9285 11.1285Z" fill="url(#paint9_linear_434_15151)"/>
<path d="M38.4973 10.5021H20.9986C20.357 10.5021 19.832 9.97714 19.832 9.33553C19.832 8.69391 20.357 8.16895 20.9986 8.16895H38.4973C39.1389 8.16895 39.6639 8.6939 39.6639 9.33552C39.6639 9.97714 39.1389 10.5021 38.4973 10.5021Z" fill="url(#paint10_linear_434_15151)"/>
<path d="M38.4974 15.7511H26.8316C26.19 15.7511 25.665 15.2262 25.665 14.5845C25.665 13.9429 26.19 13.418 26.8316 13.418H38.4974C39.139 13.418 39.664 13.9429 39.664 14.5845C39.664 15.2262 39.139 15.7511 38.4974 15.7511Z" fill="url(#paint11_linear_434_15151)"/>
<path d="M38.4975 21.0011H32.6646C32.023 21.0011 31.498 20.4762 31.498 19.8345C31.498 19.1929 32.023 18.668 32.6646 18.668H38.4975C39.1391 18.668 39.6641 19.1929 39.6641 19.8345C39.6641 20.4762 39.1391 21.0011 38.4975 21.0011Z" fill="url(#paint12_linear_434_15151)"/>
<defs>
<linearGradient id="paint0_linear_434_15151" x1="45.4471" y1="15.4229" x2="45.6861" y2="70.0033" gradientUnits="userSpaceOnUse">
<stop stop-color="#FDA39A"/>
<stop offset="1" stop-color="#FBC2A5"/>
</linearGradient>
<linearGradient id="paint1_linear_434_15151" x1="45.4471" y1="15.4229" x2="45.6861" y2="70.0033" gradientUnits="userSpaceOnUse">
<stop stop-color="#FDA39A"/>
<stop offset="1" stop-color="#FBC2A5"/>
</linearGradient>
<linearGradient id="paint2_linear_434_15151" x1="55.0108" y1="39.6758" x2="55.0541" y2="50.6612" gradientUnits="userSpaceOnUse">
<stop stop-color="#FDA39A"/>
<stop offset="1" stop-color="#FBC2A5"/>
</linearGradient>
<linearGradient id="paint3_linear_434_15151" x1="46.5947" y1="52.2168" x2="46.6055" y2="54.9513" gradientUnits="userSpaceOnUse">
<stop stop-color="#FDA39A"/>
<stop offset="1" stop-color="#FBC2A5"/>
</linearGradient>
<linearGradient id="paint4_linear_434_15151" x1="23.242" y1="0" x2="23.3533" y2="36.2458" gradientUnits="userSpaceOnUse">
<stop stop-color="#FDA39A"/>
<stop offset="1" stop-color="#FBC2A5"/>
</linearGradient>
<linearGradient id="paint5_linear_434_15151" x1="23.242" y1="0" x2="23.3533" y2="36.2458" gradientUnits="userSpaceOnUse">
<stop stop-color="#FDA39A"/>
<stop offset="1" stop-color="#FBC2A5"/>
</linearGradient>
<linearGradient id="paint6_linear_434_15151" x1="45.3993" y1="63.875" x2="45.4234" y2="70.0002" gradientUnits="userSpaceOnUse">
<stop stop-color="#FDA39A"/>
<stop offset="1" stop-color="#FBC2A5"/>
</linearGradient>
<linearGradient id="paint7_linear_434_15151" x1="52.3192" y1="63.875" x2="52.3433" y2="70.0002" gradientUnits="userSpaceOnUse">
<stop stop-color="#FDA39A"/>
<stop offset="1" stop-color="#FBC2A5"/>
</linearGradient>
<linearGradient id="paint8_linear_434_15151" x1="59.2391" y1="63.875" x2="59.2633" y2="70.0002" gradientUnits="userSpaceOnUse">
<stop stop-color="#FDA39A"/>
<stop offset="1" stop-color="#FBC2A5"/>
</linearGradient>
<linearGradient id="paint9_linear_434_15151" x1="16.9285" y1="8.00781" x2="16.9408" y2="11.1287" gradientUnits="userSpaceOnUse">
<stop stop-color="#FDA39A"/>
<stop offset="1" stop-color="#FBC2A5"/>
</linearGradient>
<linearGradient id="paint10_linear_434_15151" x1="29.748" y1="8.16895" x2="29.749" y2="10.5023" gradientUnits="userSpaceOnUse">
<stop stop-color="#FDA39A"/>
<stop offset="1" stop-color="#FBC2A5"/>
</linearGradient>
<linearGradient id="paint11_linear_434_15151" x1="32.6645" y1="13.418" x2="32.666" y2="15.7513" gradientUnits="userSpaceOnUse">
<stop stop-color="#FDA39A"/>
<stop offset="1" stop-color="#FBC2A5"/>
</linearGradient>
<linearGradient id="paint12_linear_434_15151" x1="35.5811" y1="18.668" x2="35.5837" y2="21.0013" gradientUnits="userSpaceOnUse">
<stop stop-color="#FDA39A"/>
<stop offset="1" stop-color="#FBC2A5"/>
</linearGradient>
</defs>
</svg>
