<svg width="70" height="70" viewBox="0 0 70 70" fill="none" xmlns="http://www.w3.org/2000/svg">
<path d="M22.4596 50.9688C21.383 52.0454 20.8177 53.5347 20.9089 55.0546C21 56.5746 21.7393 57.9857 22.9371 58.926L24.8018 60.3899C23.5215 62.0808 23.2321 64.2705 24.068 66.2884C25.0163 68.5779 27.1448 70 29.6229 70H38.7523C39.5073 70 40.1195 69.388 40.1195 68.6329C40.1195 67.8778 39.5073 67.2657 38.7523 67.2657H29.6229C28.0079 67.2657 26.9995 66.2203 26.5943 65.242C26.2213 64.342 26.1721 63.0411 27.0557 61.9493C29.9723 63.6682 33.237 64.5179 36.4912 64.5179C41.2816 64.5179 46.0497 62.6799 49.6585 59.0711L64.548 44.1815C71.2011 37.5283 71.837 26.9301 66.027 19.5291L64.4029 17.4603C63.4629 16.2626 62.0518 15.5234 60.5319 15.4322C59.0117 15.3413 57.5226 15.9061 56.4458 16.9829L48.8831 24.5454C46.8061 26.6224 46.8061 30.0021 48.8831 32.0793L51.2519 34.448C51.2831 34.4867 51.316 34.5243 51.352 34.5603C51.3707 34.579 51.3907 34.5956 51.4102 34.6129C51.6724 34.9077 51.8174 35.2824 51.8174 35.6801C51.8174 36.1103 51.6499 36.5145 51.3457 36.8187L42.3021 45.8624C41.9982 46.1666 41.5936 46.334 41.1636 46.334C40.7336 46.334 40.3292 46.1666 40.0252 45.8625L37.5627 43.4001C35.4856 41.323 32.1061 41.323 30.0289 43.4001L22.4596 50.9688ZM62.2525 19.1488L63.3862 20.5929L52.3251 31.6539L50.817 30.1458C50.3273 29.6562 50.0575 29.005 50.0575 28.3124C50.0575 27.6198 50.3273 26.9688 50.817 26.479L58.3796 18.9165C58.9113 18.3846 59.617 18.1164 60.3684 18.1617C61.119 18.2068 61.7882 18.5573 62.2525 19.1488ZM28.3243 59.5217L39.2303 48.6157C39.8238 48.9112 40.4814 49.0685 41.1636 49.0685C42.3242 49.0685 43.4151 48.6165 44.2357 47.796L53.2793 38.7523C54.0999 37.9318 54.5519 36.8408 54.5519 35.6803C54.5519 34.9981 54.3945 34.3405 54.0991 33.7471L64.9989 22.8473C68.7061 29.013 67.8183 37.0447 62.6148 42.2481L47.7253 57.1376C42.5218 62.341 34.4903 63.229 28.3243 59.5217ZM24.3938 52.9025L31.9626 45.3337C32.9735 44.3226 34.6187 44.3225 35.6294 45.3337L37.1374 46.8418L26.0701 57.9091L24.6261 56.7755C24.0345 56.311 23.6838 55.6418 23.6388 54.8911C23.5939 54.1404 23.862 53.4342 24.3938 52.9025Z" fill="url(#paint0_linear_4_7)"/>
<path d="M22.4596 50.9688C21.383 52.0454 20.8177 53.5347 20.9089 55.0546C21 56.5746 21.7393 57.9857 22.9371 58.926L24.8018 60.3899C23.5215 62.0808 23.2321 64.2705 24.068 66.2884C25.0163 68.5779 27.1448 70 29.6229 70H38.7523C39.5073 70 40.1195 69.388 40.1195 68.6329C40.1195 67.8778 39.5073 67.2657 38.7523 67.2657H29.6229C28.0079 67.2657 26.9995 66.2203 26.5943 65.242C26.2213 64.342 26.1721 63.0411 27.0557 61.9493C29.9723 63.6682 33.237 64.5179 36.4912 64.5179C41.2816 64.5179 46.0497 62.6799 49.6585 59.0711L64.548 44.1815C71.2011 37.5283 71.837 26.9301 66.027 19.5291L64.4029 17.4603C63.4629 16.2626 62.0518 15.5234 60.5319 15.4322C59.0117 15.3413 57.5226 15.9061 56.4458 16.9829L48.8831 24.5454C46.8061 26.6224 46.8061 30.0021 48.8831 32.0793L51.2519 34.448C51.2831 34.4867 51.316 34.5243 51.352 34.5603C51.3707 34.579 51.3907 34.5956 51.4102 34.6129C51.6724 34.9077 51.8174 35.2824 51.8174 35.6801C51.8174 36.1103 51.6499 36.5145 51.3457 36.8187L42.3021 45.8624C41.9982 46.1666 41.5936 46.334 41.1636 46.334C40.7336 46.334 40.3292 46.1666 40.0252 45.8625L37.5627 43.4001C35.4856 41.323 32.1061 41.323 30.0289 43.4001L22.4596 50.9688ZM62.2525 19.1488L63.3862 20.5929L52.3251 31.6539L50.817 30.1458C50.3273 29.6562 50.0575 29.005 50.0575 28.3124C50.0575 27.6198 50.3273 26.9688 50.817 26.479L58.3796 18.9165C58.9113 18.3846 59.617 18.1164 60.3684 18.1617C61.119 18.2068 61.7882 18.5573 62.2525 19.1488ZM28.3243 59.5217L39.2303 48.6157C39.8238 48.9112 40.4814 49.0685 41.1636 49.0685C42.3242 49.0685 43.4151 48.6165 44.2357 47.796L53.2793 38.7523C54.0999 37.9318 54.5519 36.8408 54.5519 35.6803C54.5519 34.9981 54.3945 34.3405 54.0991 33.7471L64.9989 22.8473C68.7061 29.013 67.8183 37.0447 62.6148 42.2481L47.7253 57.1376C42.5218 62.341 34.4903 63.229 28.3243 59.5217ZM24.3938 52.9025L31.9626 45.3337C32.9735 44.3226 34.6187 44.3225 35.6294 45.3337L37.1374 46.8418L26.0701 57.9091L24.6261 56.7755C24.0345 56.311 23.6838 55.6418 23.6388 54.8911C23.5939 54.1404 23.862 53.4342 24.3938 52.9025Z" fill="url(#paint1_linear_4_7)"/>
<path d="M58.1686 40.0765C58.7026 39.5426 59.5681 39.5426 60.1022 40.0765C60.6361 40.6104 60.6361 41.4761 60.1022 42.0101L51.852 50.2603C51.585 50.5273 51.2351 50.6608 50.8852 50.6608C50.5354 50.6608 50.1855 50.5273 49.9185 50.2603C49.3846 49.7265 49.3846 48.8608 49.9185 48.3267L58.1686 40.0765Z" fill="url(#paint2_linear_4_7)"/>
<path d="M46.5949 52.2167C46.9545 52.2167 47.3072 52.363 47.5614 52.6172C47.8157 52.8715 47.9621 53.2243 47.9621 53.5838C47.9621 53.9434 47.8158 54.2961 47.5614 54.5504C47.3072 54.8047 46.9557 54.951 46.5949 54.951C46.2353 54.951 45.8826 54.8047 45.6283 54.5504C45.374 54.2961 45.2277 53.9434 45.2277 53.5838C45.2277 53.2243 45.3739 52.8715 45.6283 52.6172C45.8827 52.3629 46.2353 52.2167 46.5949 52.2167Z" fill="url(#paint3_linear_4_7)"/>
<path d="M2.94311e-09 10.1171V20.9178C2.94311e-09 26.4965 4.53849 31.035 10.1171 31.035H18.2114L23.0192 35.8429C23.2807 36.1043 23.6303 36.2434 23.9862 36.2434C24.1623 36.2434 24.34 36.2093 24.5092 36.1392C25.0199 35.9276 25.3531 35.429 25.3531 34.8761V31.035H36.3669C41.9455 31.035 46.484 26.4965 46.484 20.9178V10.1171C46.484 4.53849 41.9455 0 36.3669 0H10.117C4.53849 1.16658e-07 -0.000133454 4.53849 2.94311e-09 10.1171ZM2.73423 20.9178V10.1171C2.73423 6.04621 6.04623 2.73436 10.117 2.73436H36.3669C40.4376 2.73436 43.7496 6.04621 43.7496 10.1171V20.9178C43.7496 24.9888 40.4376 28.3006 36.3669 28.3006H23.9859C23.231 28.3006 22.6188 28.9127 22.6188 29.6678V31.5754L19.7444 28.7011C19.4879 28.4447 19.1402 28.3006 18.7777 28.3006H10.117C6.04622 28.3006 2.73423 24.9888 2.73423 20.9178Z" fill="url(#paint4_linear_4_7)"/>
<path d="M2.94311e-09 10.1171V20.9178C2.94311e-09 26.4965 4.53849 31.035 10.1171 31.035H18.2114L23.0192 35.8429C23.2807 36.1043 23.6303 36.2434 23.9862 36.2434C24.1623 36.2434 24.34 36.2093 24.5092 36.1392C25.0199 35.9276 25.3531 35.429 25.3531 34.8761V31.035H36.3669C41.9455 31.035 46.484 26.4965 46.484 20.9178V10.1171C46.484 4.53849 41.9455 0 36.3669 0H10.117C4.53849 1.16658e-07 -0.000133454 4.53849 2.94311e-09 10.1171ZM2.73423 20.9178V10.1171C2.73423 6.04621 6.04623 2.73436 10.117 2.73436H36.3669C40.4376 2.73436 43.7496 6.04621 43.7496 10.1171V20.9178C43.7496 24.9888 40.4376 28.3006 36.3669 28.3006H23.9859C23.231 28.3006 22.6188 28.9127 22.6188 29.6678V31.5754L19.7444 28.7011C19.4879 28.4447 19.1402 28.3006 18.7777 28.3006H10.117C6.04622 28.3006 2.73423 24.9888 2.73423 20.9178Z" fill="url(#paint5_linear_4_7)"/>
<path d="M46.1277 64.2752C46.6615 63.7413 47.527 63.7413 48.0613 64.2752C48.5951 64.8091 48.5951 65.6748 48.0613 66.2086L44.6708 69.5991C44.4038 69.8661 44.0539 69.9996 43.7041 69.9996C43.3542 69.9996 43.0043 69.866 42.7373 69.5991C42.2034 69.0652 42.2034 68.1995 42.7373 67.6657L46.1277 64.2752Z" fill="url(#paint6_linear_4_7)"/>
<path d="M53.0474 64.2752C53.5813 63.7413 54.4467 63.7413 54.981 64.2752C55.5149 64.8091 55.5149 65.6748 54.981 66.2086L51.5905 69.5991C51.3235 69.8661 50.9736 69.9996 50.6238 69.9996C50.2739 69.9996 49.9241 69.866 49.6571 69.5991C49.1232 69.0652 49.1232 68.1995 49.6571 67.6657L53.0474 64.2752Z" fill="url(#paint7_linear_4_7)"/>
<path d="M59.9671 64.2752C60.501 63.7413 61.3664 63.7413 61.9007 64.2752C62.4346 64.8091 62.4346 65.6748 61.9007 66.2086L58.5102 69.5991C58.2432 69.8661 57.8934 69.9996 57.5435 69.9996C57.1937 69.9996 56.8438 69.866 56.5768 69.5991C56.0429 69.0652 56.0429 68.1995 56.5768 67.6657L59.9671 64.2752Z" fill="url(#paint8_linear_4_7)"/>
<path d="M16.9287 11.1282C17.7904 11.1282 18.489 10.4297 18.489 9.5679C18.489 8.70615 17.7904 8.00756 16.9287 8.00756C16.0669 8.00756 15.3683 8.70615 15.3683 9.5679C15.3683 10.4297 16.0669 11.1282 16.9287 11.1282Z" fill="url(#paint9_linear_4_7)"/>
<path d="M38.4971 10.5018H20.9984C20.3568 10.5018 19.8318 9.97682 19.8318 9.3352C19.8318 8.69358 20.3568 8.16862 20.9984 8.16862H38.4971C39.1387 8.16862 39.6637 8.69358 39.6637 9.33519C39.6637 9.97681 39.1387 10.5018 38.4971 10.5018Z" fill="url(#paint10_linear_4_7)"/>
<path d="M38.4971 15.7514H26.8313C26.1897 15.7514 25.6647 15.2264 25.6647 14.5848C25.6647 13.9432 26.1897 13.4182 26.8313 13.4182H38.4971C39.1387 13.4182 39.6637 13.9432 39.6637 14.5848C39.6637 15.2264 39.1387 15.7514 38.4971 15.7514Z" fill="url(#paint11_linear_4_7)"/>
<path d="M38.4971 21.001H32.6642C32.0226 21.001 31.4976 20.476 31.4976 19.8344C31.4976 19.1928 32.0226 18.6678 32.6642 18.6678H38.4971C39.1387 18.6678 39.6637 19.1928 39.6637 19.8344C39.6637 20.476 39.1387 21.001 38.4971 21.001Z" fill="url(#paint12_linear_4_7)"/>
<defs>
<linearGradient id="paint0_linear_4_7" x1="45.447" y1="15.4227" x2="45.447" y2="70" gradientUnits="userSpaceOnUse">
<stop stop-color="#58CC2C"/>
<stop offset="1" stop-color="#4ED28D"/>
</linearGradient>
<linearGradient id="paint1_linear_4_7" x1="45.447" y1="15.4227" x2="45.447" y2="70" gradientUnits="userSpaceOnUse">
<stop stop-color="#58CC2C"/>
<stop offset="1" stop-color="#4ED28D"/>
</linearGradient>
<linearGradient id="paint2_linear_4_7" x1="55.0104" y1="39.6761" x2="55.0104" y2="50.6608" gradientUnits="userSpaceOnUse">
<stop stop-color="#58CC2C"/>
<stop offset="1" stop-color="#4ED28D"/>
</linearGradient>
<linearGradient id="paint3_linear_4_7" x1="46.5949" y1="52.2167" x2="46.5949" y2="54.951" gradientUnits="userSpaceOnUse">
<stop stop-color="#58CC2C"/>
<stop offset="1" stop-color="#4ED28D"/>
</linearGradient>
<linearGradient id="paint4_linear_4_7" x1="23.242" y1="0" x2="23.242" y2="36.2434" gradientUnits="userSpaceOnUse">
<stop stop-color="#58CC2C"/>
<stop offset="1" stop-color="#4ED28D"/>
</linearGradient>
<linearGradient id="paint5_linear_4_7" x1="23.242" y1="0" x2="23.242" y2="36.2434" gradientUnits="userSpaceOnUse">
<stop stop-color="#58CC2C"/>
<stop offset="1" stop-color="#4ED28D"/>
</linearGradient>
<linearGradient id="paint6_linear_4_7" x1="45.3993" y1="63.8748" x2="45.3993" y2="69.9996" gradientUnits="userSpaceOnUse">
<stop stop-color="#58CC2C"/>
<stop offset="1" stop-color="#4ED28D"/>
</linearGradient>
<linearGradient id="paint7_linear_4_7" x1="52.319" y1="63.8748" x2="52.319" y2="69.9996" gradientUnits="userSpaceOnUse">
<stop stop-color="#58CC2C"/>
<stop offset="1" stop-color="#4ED28D"/>
</linearGradient>
<linearGradient id="paint8_linear_4_7" x1="59.2387" y1="63.8748" x2="59.2387" y2="69.9996" gradientUnits="userSpaceOnUse">
<stop stop-color="#58CC2C"/>
<stop offset="1" stop-color="#4ED28D"/>
</linearGradient>
<linearGradient id="paint9_linear_4_7" x1="16.9287" y1="8.00756" x2="16.9287" y2="11.1282" gradientUnits="userSpaceOnUse">
<stop stop-color="#58CC2C"/>
<stop offset="1" stop-color="#4ED28D"/>
</linearGradient>
<linearGradient id="paint10_linear_4_7" x1="29.7478" y1="8.16862" x2="29.7478" y2="10.5018" gradientUnits="userSpaceOnUse">
<stop stop-color="#58CC2C"/>
<stop offset="1" stop-color="#4ED28D"/>
</linearGradient>
<linearGradient id="paint11_linear_4_7" x1="32.6642" y1="13.4182" x2="32.6642" y2="15.7514" gradientUnits="userSpaceOnUse">
<stop stop-color="#58CC2C"/>
<stop offset="1" stop-color="#4ED28D"/>
</linearGradient>
<linearGradient id="paint12_linear_4_7" x1="35.5807" y1="18.6678" x2="35.5807" y2="21.001" gradientUnits="userSpaceOnUse">
<stop stop-color="#58CC2C"/>
<stop offset="1" stop-color="#4ED28D"/>
</linearGradient>
</defs>
</svg>
