<svg xmlns="http://www.w3.org/2000/svg" width="70" height="70" viewBox="0 0 70 70" fill="none">
  <path d="M22.4596 50.9689C21.383 52.0456 20.8176 53.5348 20.9088 55.0547C21 56.5747 21.7393 57.9858 22.937 58.9262L24.8017 60.39C23.5215 62.0809 23.2321 64.2706 24.068 66.2886C25.0163 68.578 27.1448 70.0002 29.6228 70.0002H38.7523C39.5073 70.0002 40.1195 69.3881 40.1195 68.633C40.1195 67.8779 39.5073 67.2658 38.7523 67.2658H29.6228C28.0079 67.2658 26.9995 66.2205 26.5943 65.2421C26.2213 64.3421 26.1721 63.0412 27.0557 61.9494C29.9723 63.6684 33.237 64.5181 36.4911 64.5181C41.2816 64.5181 46.0496 62.68 49.6584 59.0712L64.548 44.1817C71.2011 37.5284 71.837 26.9302 66.027 19.5292L64.4029 17.4604C63.4629 16.2628 62.0518 15.5235 60.5319 15.4324C59.0117 15.3414 57.5226 15.9062 56.4458 16.983L48.8831 24.5456C46.8061 26.6226 46.8061 30.0023 48.8831 32.0794L51.2519 34.4482C51.2831 34.4869 51.316 34.5245 51.352 34.5604C51.3707 34.5792 51.3907 34.5957 51.4102 34.6131C51.6724 34.9078 51.8174 35.2826 51.8174 35.6803C51.8174 36.1104 51.6499 36.5147 51.3457 36.8189L42.3021 45.8625C41.9981 46.1667 41.5936 46.3342 41.1636 46.3342C40.7336 46.3342 40.3292 46.1667 40.0252 45.8626L37.5627 43.4002C35.4856 41.3232 32.106 41.3232 30.0289 43.4002L22.4596 50.9689ZM62.2525 19.1489L63.3862 20.5931L52.3251 31.6541L50.817 30.146C50.3273 29.6564 50.0575 29.0052 50.0575 28.3126C50.0575 27.6199 50.3273 26.9689 50.817 26.4792L58.3795 18.9166C58.9112 18.3848 59.617 18.1165 60.3684 18.1618C61.119 18.2069 61.7882 18.5575 62.2525 19.1489ZM28.3243 59.5219L39.2303 48.6159C39.8238 48.9113 40.4814 49.0687 41.1636 49.0687C42.3242 49.0687 43.4151 48.6167 44.2357 47.7961L53.2793 38.7525C54.0999 37.9319 54.5519 36.8409 54.5519 35.6804C54.5519 34.9982 54.3945 34.3406 54.099 33.7472L64.9989 22.8474C68.7061 29.0131 67.8183 37.0449 62.6148 42.2482L47.7252 57.1378C42.5218 62.3411 34.4903 63.2291 28.3243 59.5219ZM24.3938 52.9026L31.9626 45.3338C32.9735 44.3228 34.6186 44.3226 35.6294 45.3338L37.1374 46.8419L26.0701 57.9093L24.6261 56.7756C24.0345 56.3112 23.6838 55.6419 23.6388 54.8912C23.5938 54.1405 23.8619 53.4344 24.3938 52.9026Z" fill="url(#paint0_linear_771_7323)"/>
  <path d="M22.4596 50.9689C21.383 52.0456 20.8176 53.5348 20.9088 55.0547C21 56.5747 21.7393 57.9858 22.937 58.9262L24.8017 60.39C23.5215 62.0809 23.2321 64.2706 24.068 66.2886C25.0163 68.578 27.1448 70.0002 29.6228 70.0002H38.7523C39.5073 70.0002 40.1195 69.3881 40.1195 68.633C40.1195 67.8779 39.5073 67.2658 38.7523 67.2658H29.6228C28.0079 67.2658 26.9995 66.2205 26.5943 65.2421C26.2213 64.3421 26.1721 63.0412 27.0557 61.9494C29.9723 63.6684 33.237 64.5181 36.4911 64.5181C41.2816 64.5181 46.0496 62.68 49.6584 59.0712L64.548 44.1817C71.2011 37.5284 71.837 26.9302 66.027 19.5292L64.4029 17.4604C63.4629 16.2628 62.0518 15.5235 60.5319 15.4324C59.0117 15.3414 57.5226 15.9062 56.4458 16.983L48.8831 24.5456C46.8061 26.6226 46.8061 30.0023 48.8831 32.0794L51.2519 34.4482C51.2831 34.4869 51.316 34.5245 51.352 34.5604C51.3707 34.5792 51.3907 34.5957 51.4102 34.6131C51.6724 34.9078 51.8174 35.2826 51.8174 35.6803C51.8174 36.1104 51.6499 36.5147 51.3457 36.8189L42.3021 45.8625C41.9981 46.1667 41.5936 46.3342 41.1636 46.3342C40.7336 46.3342 40.3292 46.1667 40.0252 45.8626L37.5627 43.4002C35.4856 41.3232 32.106 41.3232 30.0289 43.4002L22.4596 50.9689ZM62.2525 19.1489L63.3862 20.5931L52.3251 31.6541L50.817 30.146C50.3273 29.6564 50.0575 29.0052 50.0575 28.3126C50.0575 27.6199 50.3273 26.9689 50.817 26.4792L58.3795 18.9166C58.9112 18.3848 59.617 18.1165 60.3684 18.1618C61.119 18.2069 61.7882 18.5575 62.2525 19.1489ZM28.3243 59.5219L39.2303 48.6159C39.8238 48.9113 40.4814 49.0687 41.1636 49.0687C42.3242 49.0687 43.4151 48.6167 44.2357 47.7961L53.2793 38.7525C54.0999 37.9319 54.5519 36.8409 54.5519 35.6804C54.5519 34.9982 54.3945 34.3406 54.099 33.7472L64.9989 22.8474C68.7061 29.0131 67.8183 37.0449 62.6148 42.2482L47.7252 57.1378C42.5218 62.3411 34.4903 63.2291 28.3243 59.5219ZM24.3938 52.9026L31.9626 45.3338C32.9735 44.3228 34.6186 44.3226 35.6294 45.3338L37.1374 46.8419L26.0701 57.9093L24.6261 56.7756C24.0345 56.3112 23.6838 55.6419 23.6388 54.8912C23.5938 54.1405 23.8619 53.4344 24.3938 52.9026Z" fill="url(#paint1_linear_771_7323)"/>
  <path d="M58.1686 40.0767C58.7026 39.5428 59.568 39.5428 60.1022 40.0767C60.6361 40.6106 60.6361 41.4763 60.1022 42.0103L51.8519 50.2605C51.5849 50.5275 51.2351 50.661 50.8852 50.661C50.5353 50.661 50.1855 50.5275 49.9185 50.2605C49.3846 49.7266 49.3846 48.8609 49.9185 48.3269L58.1686 40.0767Z" fill="url(#paint2_linear_771_7323)"/>
  <path d="M46.595 52.2168C46.9545 52.2168 47.3073 52.3631 47.5614 52.6174C47.8157 52.8717 47.9621 53.2244 47.9621 53.584C47.9621 53.9436 47.8159 54.2963 47.5614 54.5506C47.3073 54.8049 46.9558 54.9512 46.595 54.9512C46.2354 54.9512 45.8827 54.8049 45.6284 54.5506C45.3741 54.2963 45.2278 53.9436 45.2278 53.584C45.2278 53.2244 45.3739 52.8717 45.6284 52.6174C45.8828 52.3631 46.2354 52.2168 46.595 52.2168Z" fill="url(#paint3_linear_771_7323)"/>
  <path d="M2.94311e-09 10.1171V20.9179C2.94311e-09 26.4965 4.53849 31.035 10.1171 31.035H18.2114L23.0192 35.8429C23.2807 36.1043 23.6303 36.2434 23.9862 36.2434C24.1623 36.2434 24.34 36.2093 24.5092 36.1392C25.0199 35.9276 25.3531 35.429 25.3531 34.8761V31.035H36.3669C41.9455 31.035 46.484 26.4965 46.484 20.9179V10.1171C46.484 4.53849 41.9455 0 36.3669 0H10.117C4.53849 1.16658e-07 -0.000133454 4.53849 2.94311e-09 10.1171ZM2.73423 20.9179V10.1171C2.73423 6.04621 6.04623 2.73436 10.117 2.73436H36.3669C40.4376 2.73436 43.7496 6.04621 43.7496 10.1171V20.9179C43.7496 24.9888 40.4376 28.3006 36.3669 28.3006H23.9859C23.231 28.3006 22.6188 28.9127 22.6188 29.6678V31.5754L19.7444 28.7011C19.4879 28.4447 19.1402 28.3006 18.7777 28.3006H10.117C6.04622 28.3006 2.73423 24.9888 2.73423 20.9179Z" fill="url(#paint4_linear_771_7323)"/>
  <path d="M2.94311e-09 10.1171V20.9179C2.94311e-09 26.4965 4.53849 31.035 10.1171 31.035H18.2114L23.0192 35.8429C23.2807 36.1043 23.6303 36.2434 23.9862 36.2434C24.1623 36.2434 24.34 36.2093 24.5092 36.1392C25.0199 35.9276 25.3531 35.429 25.3531 34.8761V31.035H36.3669C41.9455 31.035 46.484 26.4965 46.484 20.9179V10.1171C46.484 4.53849 41.9455 0 36.3669 0H10.117C4.53849 1.16658e-07 -0.000133454 4.53849 2.94311e-09 10.1171ZM2.73423 20.9179V10.1171C2.73423 6.04621 6.04623 2.73436 10.117 2.73436H36.3669C40.4376 2.73436 43.7496 6.04621 43.7496 10.1171V20.9179C43.7496 24.9888 40.4376 28.3006 36.3669 28.3006H23.9859C23.231 28.3006 22.6188 28.9127 22.6188 29.6678V31.5754L19.7444 28.7011C19.4879 28.4447 19.1402 28.3006 18.7777 28.3006H10.117C6.04622 28.3006 2.73423 24.9888 2.73423 20.9179Z" fill="url(#paint5_linear_771_7323)"/>
  <path d="M46.1277 64.2754C46.6615 63.7415 47.527 63.7415 48.0613 64.2754C48.5951 64.8093 48.5951 65.675 48.0613 66.2089L44.6708 69.5994C44.4038 69.8664 44.0539 69.9998 43.7041 69.9998C43.3542 69.9998 43.0043 69.8662 42.7373 69.5994C42.2034 69.0655 42.2034 68.1998 42.7373 67.6659L46.1277 64.2754Z" fill="url(#paint6_linear_771_7323)"/>
  <path d="M53.0473 64.2754C53.5812 63.7415 54.4466 63.7415 54.9809 64.2754C55.5148 64.8093 55.5148 65.675 54.9809 66.2089L51.5905 69.5994C51.3235 69.8664 50.9736 69.9998 50.6237 69.9998C50.2739 69.9998 49.924 69.8662 49.657 69.5994C49.1231 69.0655 49.1231 68.1998 49.657 67.6659L53.0473 64.2754Z" fill="url(#paint7_linear_771_7323)"/>
  <path d="M59.9671 64.2754C60.501 63.7415 61.3664 63.7415 61.9007 64.2754C62.4346 64.8093 62.4346 65.675 61.9007 66.2089L58.5103 69.5994C58.2433 69.8664 57.8934 69.9998 57.5435 69.9998C57.1937 69.9998 56.8438 69.8662 56.5768 69.5994C56.0429 69.0655 56.0429 68.1998 56.5768 67.6659L59.9671 64.2754Z" fill="url(#paint8_linear_771_7323)"/>
  <path d="M16.9286 11.128C17.7904 11.128 18.489 10.4294 18.489 9.56767C18.489 8.70591 17.7904 8.00732 16.9286 8.00732C16.0669 8.00732 15.3683 8.70591 15.3683 9.56767C15.3683 10.4294 16.0669 11.128 16.9286 11.128Z" fill="url(#paint9_linear_771_7323)"/>
  <path d="M38.4971 10.5016H20.9984C20.3567 10.5016 19.8318 9.97666 19.8318 9.33504C19.8318 8.69342 20.3567 8.16846 20.9984 8.16846H38.4971C39.1387 8.16846 39.6636 8.69342 39.6636 9.33503C39.6636 9.97665 39.1387 10.5016 38.4971 10.5016Z" fill="url(#paint10_linear_771_7323)"/>
  <path d="M38.4972 15.7516H26.8314C26.1898 15.7516 25.6648 15.2267 25.6648 14.585C25.6648 13.9434 26.1898 13.4185 26.8314 13.4185H38.4972C39.1388 13.4185 39.6637 13.9434 39.6637 14.585C39.6637 15.2267 39.1388 15.7516 38.4972 15.7516Z" fill="url(#paint11_linear_771_7323)"/>
  <path d="M38.4972 21.0011H32.6643C32.0226 21.0011 31.4977 20.4762 31.4977 19.8345C31.4977 19.1929 32.0226 18.668 32.6643 18.668H38.4972C39.1388 18.668 39.6637 19.1929 39.6637 19.8345C39.6637 20.4762 39.1388 21.0011 38.4972 21.0011Z" fill="url(#paint12_linear_771_7323)"/>
  <defs>
    <linearGradient id="paint0_linear_771_7323" x1="45.447" y1="15.4229" x2="45.447" y2="70.0002" gradientUnits="userSpaceOnUse">
      <stop stop-color="#FB9F14"/>
      <stop offset="1" stop-color="#F77411"/>
    </linearGradient>
    <linearGradient id="paint1_linear_771_7323" x1="45.447" y1="15.4229" x2="45.447" y2="70.0002" gradientUnits="userSpaceOnUse">
      <stop stop-color="#FB9F14"/>
      <stop offset="1" stop-color="#F77411"/>
    </linearGradient>
    <linearGradient id="paint2_linear_771_7323" x1="55.0103" y1="39.6763" x2="55.0103" y2="50.661" gradientUnits="userSpaceOnUse">
      <stop stop-color="#FB9F14"/>
      <stop offset="1" stop-color="#F77411"/>
    </linearGradient>
    <linearGradient id="paint3_linear_771_7323" x1="46.595" y1="52.2168" x2="46.595" y2="54.9512" gradientUnits="userSpaceOnUse">
      <stop stop-color="#FB9F14"/>
      <stop offset="1" stop-color="#F77411"/>
    </linearGradient>
    <linearGradient id="paint4_linear_771_7323" x1="23.242" y1="0" x2="23.242" y2="36.2434" gradientUnits="userSpaceOnUse">
      <stop stop-color="#FB9F14"/>
      <stop offset="1" stop-color="#F77411"/>
    </linearGradient>
    <linearGradient id="paint5_linear_771_7323" x1="23.242" y1="0" x2="23.242" y2="36.2434" gradientUnits="userSpaceOnUse">
      <stop stop-color="#FB9F14"/>
      <stop offset="1" stop-color="#F77411"/>
    </linearGradient>
    <linearGradient id="paint6_linear_771_7323" x1="45.3993" y1="63.875" x2="45.3993" y2="69.9998" gradientUnits="userSpaceOnUse">
      <stop stop-color="#FB9F14"/>
      <stop offset="1" stop-color="#F77411"/>
    </linearGradient>
    <linearGradient id="paint7_linear_771_7323" x1="52.319" y1="63.875" x2="52.319" y2="69.9998" gradientUnits="userSpaceOnUse">
      <stop stop-color="#FB9F14"/>
      <stop offset="1" stop-color="#F77411"/>
    </linearGradient>
    <linearGradient id="paint8_linear_771_7323" x1="59.2388" y1="63.875" x2="59.2388" y2="69.9998" gradientUnits="userSpaceOnUse">
      <stop stop-color="#FB9F14"/>
      <stop offset="1" stop-color="#F77411"/>
    </linearGradient>
    <linearGradient id="paint9_linear_771_7323" x1="16.9286" y1="8.00732" x2="16.9286" y2="11.128" gradientUnits="userSpaceOnUse">
      <stop stop-color="#FB9F14"/>
      <stop offset="1" stop-color="#F77411"/>
    </linearGradient>
    <linearGradient id="paint10_linear_771_7323" x1="29.7477" y1="8.16846" x2="29.7477" y2="10.5016" gradientUnits="userSpaceOnUse">
      <stop stop-color="#FB9F14"/>
      <stop offset="1" stop-color="#F77411"/>
    </linearGradient>
    <linearGradient id="paint11_linear_771_7323" x1="32.6643" y1="13.4185" x2="32.6643" y2="15.7516" gradientUnits="userSpaceOnUse">
      <stop stop-color="#FB9F14"/>
      <stop offset="1" stop-color="#F77411"/>
    </linearGradient>
    <linearGradient id="paint12_linear_771_7323" x1="35.5807" y1="18.668" x2="35.5807" y2="21.0011" gradientUnits="userSpaceOnUse">
      <stop stop-color="#FB9F14"/>
      <stop offset="1" stop-color="#F77411"/>
    </linearGradient>
  </defs>
</svg>