<svg width="14" height="14" viewBox="0 0 14 14" fill="none" xmlns="http://www.w3.org/2000/svg">
<g id="vuesax/bold/tag">
<g id="tag">
<path id="Vector" d="M11.5675 5.07503L8.92503 2.43253C8.37086 1.87836 7.60669 1.58086 6.82503 1.6217L3.90836 1.7617C2.74169 1.8142 1.81419 2.7417 1.75586 3.90253L1.61586 6.81919C1.58086 7.60086 1.87253 8.36503 2.42669 8.91919L5.06919 11.5617C6.15419 12.6467 7.91586 12.6467 9.00669 11.5617L11.5675 9.00086C12.6584 7.92169 12.6584 6.16003 11.5675 5.07503ZM5.54169 7.22169C4.61419 7.22169 3.86169 6.4692 3.86169 5.5417C3.86169 4.6142 4.61419 3.8617 5.54169 3.8617C6.46919 3.8617 7.22169 4.6142 7.22169 5.5417C7.22169 6.4692 6.46919 7.22169 5.54169 7.22169Z" fill="#1A5F00"/>
</g>
</g>
</svg>
