<svg width="27" height="27" viewBox="0 0 27 27" fill="none" xmlns="http://www.w3.org/2000/svg">
<g id="Xnix/Line/User_2">
<g id="Vector">
<path id="Vector-9" fill-rule="evenodd" clip-rule="evenodd" d="M18.3023 16H11.6971C9.75309 16.1013 8.03077 17.3482 7.24924 19.22C6.3066 21.1632 8.18788 23 10.3758 23H19.6236C21.8129 23 23.6941 21.1632 22.7502 19.22C21.9686 17.3482 20.2463 16.1013 18.3023 16Z" stroke="#FB9F14" stroke-width="1.5" stroke-linecap="round" stroke-linejoin="round"/>
<path id="Vector-10" fill-rule="evenodd" clip-rule="evenodd" d="M19 8C19 10.2091 17.2091 12 15 12C12.7909 12 11 10.2091 11 8C11 5.79086 12.7909 4 15 4C16.0609 4 17.0783 4.42143 17.8284 5.17157C18.5786 5.92172 19 6.93913 19 8Z" stroke="#FB9F14" stroke-width="1.5" stroke-linecap="round" stroke-linejoin="round"/>
</g>
</g>
</svg>
