<svg xmlns="http://www.w3.org/2000/svg" width="25" height="24" viewBox="0 0 25 24" fill="none">
  <path d="M8.19843 18.4944L8.92316 18.917C10.1339 19.623 11.5099 20 12.9458 20C17.3641 20 20.9458 16.4183 20.9458 12C20.9458 7.58172 17.3641 4 12.9458 4C8.52752 4 4.9458 7.58172 4.9458 12C4.9458 13.4363 5.32303 14.8128 6.02948 16.0238L6.45186 16.7478L5.79837 19.1494L8.19843 18.4944ZM2.94998 22L4.30194 17.0315C3.43976 15.5536 2.9458 13.8345 2.9458 12C2.9458 6.47715 7.42295 2 12.9458 2C18.4686 2 22.9458 6.47715 22.9458 12C22.9458 17.5228 18.4686 22 12.9458 22C11.1119 22 9.39333 21.5064 7.91568 20.6447L2.94998 22ZM9.33714 7.30833C9.47102 7.29892 9.60535 7.29748 9.73941 7.30402C9.79357 7.30758 9.84747 7.31384 9.90141 7.32007C10.0607 7.33846 10.2358 7.43545 10.2947 7.56894C10.593 8.24536 10.8825 8.92565 11.163 9.60963C11.2249 9.76062 11.1876 9.95633 11.0698 10.1457C11.01 10.2428 10.9161 10.379 10.8073 10.5183C10.6942 10.663 10.4508 10.9291 10.4508 10.9291C10.4508 10.9291 10.3522 11.0473 10.3894 11.1944C10.4039 11.25 10.45 11.331 10.4919 11.3991C10.5151 11.4368 10.5366 11.4705 10.5506 11.4938C10.8065 11.9211 11.1505 12.3543 11.5707 12.7616C11.6911 12.8783 11.8079 12.9974 11.9335 13.108C12.4018 13.5209 12.9316 13.8583 13.5038 14.1082L13.5089 14.1105C13.5934 14.1469 13.6368 14.1668 13.7605 14.2193C13.8229 14.2457 13.8867 14.2685 13.9522 14.2858C13.9759 14.292 14.0002 14.2955 14.0246 14.2972C14.1863 14.3069 14.2798 14.2032 14.3197 14.1555C15.0432 13.279 15.1094 13.2218 15.1144 13.2222V13.2238C15.2095 13.1236 15.359 13.0888 15.4924 13.097C15.5533 13.1007 15.6139 13.1124 15.6693 13.1377C16.2011 13.3803 17.0706 13.7587 17.0706 13.7587L17.6521 14.0201C17.7495 14.0671 17.8384 14.1778 17.8427 14.2854C17.8453 14.3523 17.8525 14.4603 17.8286 14.6579C17.7973 14.9166 17.7186 15.2281 17.6404 15.3913C17.5854 15.5058 17.5142 15.6074 17.4314 15.6934C17.3191 15.81 17.2357 15.8808 17.1007 15.9814C17.0185 16.0426 16.9759 16.0714 16.9759 16.0714C16.837 16.159 16.7587 16.2028 16.5932 16.2909C16.3358 16.428 16.0514 16.5068 15.7601 16.5218C15.5744 16.5313 15.3892 16.5447 15.2037 16.5347C15.1955 16.5342 14.6355 16.4482 14.6355 16.4482C13.2136 16.0742 11.8986 15.3736 10.7952 14.402C10.5696 14.2034 10.3603 13.9885 10.1468 13.7759C9.2577 12.8908 8.58464 11.9364 8.17651 11.0336C7.97525 10.5884 7.84781 10.1116 7.8458 9.62098C7.84211 9.01405 8.04081 8.4232 8.41051 7.94186C8.48339 7.84697 8.55256 7.74855 8.67191 7.63586C8.7983 7.51651 8.87874 7.45244 8.96539 7.40811C9.08089 7.34902 9.20775 7.31742 9.33714 7.30833Z" fill="#14AE5C"/>
</svg>