<svg xmlns="http://www.w3.org/2000/svg" width="30" height="30" viewBox="0 0 30 30" fill="none">
  <path d="M14.5903 0.924886L14.5903 0.924886C14.6506 0.869789 14.7246 0.828545 14.791 0.801085C14.8555 0.77442 14.9389 0.75 15.0222 0.75C15.185 0.75 15.3319 0.827454 15.4364 0.91567C15.5413 1.00436 15.6366 1.13161 15.6748 1.27982C15.6843 1.31473 15.6879 1.35195 15.6897 1.37178C15.6924 1.40147 15.6946 1.43723 15.6964 1.47686C15.7 1.55652 15.7025 1.66069 15.7038 1.78121C15.7066 2.02266 15.7052 2.33669 15.6997 2.66632C15.6997 2.66644 15.6997 2.66656 15.6997 2.66668L15.6833 3.85814L15.6817 3.9712L15.5958 4.04469L15.4428 4.17554C15.3844 4.22591 15.3164 4.2695 15.2536 4.30129C15.2217 4.31743 15.1874 4.33242 15.1529 4.3439C15.1222 4.35411 15.0749 4.36719 15.0222 4.36719C14.9694 4.36719 14.9222 4.35411 14.8915 4.3439C14.8569 4.33242 14.8226 4.31743 14.7907 4.30129C14.7279 4.2695 14.66 4.22591 14.6016 4.17554L14.4486 4.04469L14.3626 3.9712L14.3611 3.85814L14.3446 2.66668C14.3446 2.66655 14.3446 2.66643 14.3446 2.66631C14.3391 2.33668 14.3377 2.02266 14.3405 1.78121C14.3419 1.66069 14.3443 1.55652 14.3479 1.47686C14.3497 1.43723 14.3519 1.40147 14.3546 1.37178C14.3565 1.35187 14.36 1.31444 14.3697 1.27941C14.3871 1.2127 14.4214 1.14575 14.4541 1.09309C14.4888 1.03719 14.5356 0.974952 14.5903 0.924886Z" fill="#D7D7D7" stroke="#D7D7D7" stroke-width="0.5"/>
  <path d="M9.57784 5.81922C9.49014 5.84939 9.37229 5.8829 9.24103 5.85801C9.10449 5.83211 8.9974 5.75255 8.90501 5.65395C8.73295 5.47033 8.52461 5.12121 8.19465 4.54851C8.02044 4.2478 7.86245 3.96028 7.7475 3.73996C7.69017 3.63007 7.64253 3.53498 7.60871 3.46246C7.59197 3.42657 7.57722 3.39326 7.56615 3.36505C7.5607 3.35116 7.55482 3.33517 7.54994 3.31887L7.54973 3.31818C7.5467 3.30809 7.53619 3.27312 7.53619 3.23125C7.53619 3.17268 7.55214 3.12124 7.56512 3.08721C7.57944 3.04966 7.59803 3.01327 7.61775 2.98002C7.65699 2.91384 7.70957 2.84519 7.7686 2.7863C7.87789 2.67727 8.01556 2.57441 8.18911 2.56153C8.36994 2.54811 8.5168 2.63672 8.63112 2.73735L8.63114 2.73732L8.63416 2.74007C8.68218 2.78375 8.73542 2.85704 8.78071 2.92258C8.83195 2.99674 8.8928 3.09078 8.95882 3.1966C9.0911 3.40863 9.24874 3.67535 9.39993 3.94085C9.55106 4.20624 9.69717 4.47294 9.80608 4.68492C9.86033 4.79051 9.90679 4.88531 9.94024 4.96078C9.95684 4.99821 9.9718 5.03438 9.98309 5.0666L9.98322 5.06696C9.9907 5.08831 10.0096 5.14235 10.0096 5.2C10.0096 5.33389 9.97868 5.46678 9.90035 5.58156C9.82126 5.69744 9.70761 5.77467 9.57784 5.81922ZM9.57784 5.81922L9.49652 5.58282M9.57784 5.81922C9.57776 5.81925 9.57769 5.81927 9.57761 5.8193L9.49652 5.58282M9.49652 5.58282C9.17857 5.69219 9.08538 5.59375 8.41112 4.42344L8.46594 2.925C8.65232 3.09454 9.75964 5.03594 9.75964 5.2C9.75964 5.39141 9.67193 5.52266 9.49652 5.58282Z" fill="#D7D7D7" stroke="#D7D7D7" stroke-width="0.5"/>
  <path d="M21.4101 2.73998L21.4102 2.74007C21.3622 2.78375 21.3089 2.85704 21.2636 2.92258C21.2124 2.99674 21.1515 3.09078 21.0855 3.1966C20.9532 3.40863 20.7956 3.67535 20.6444 3.94085C20.4933 4.20624 20.3472 4.47294 20.2383 4.68492C20.184 4.79051 20.1376 4.88531 20.1041 4.96078C20.0875 4.99821 20.0725 5.03438 20.0612 5.0666L20.0611 5.06696C20.0536 5.08831 20.0347 5.14235 20.0347 5.2C20.0347 5.33389 20.0657 5.46678 20.144 5.58156C20.2231 5.69748 20.3368 5.77472 20.4666 5.81926M21.4101 2.73998L20.5478 5.58282M21.4101 2.73998L21.4159 2.735C21.4712 2.6877 21.5356 2.64633 21.5977 2.61584C21.6515 2.58942 21.7362 2.55469 21.8251 2.55469C21.9312 2.55469 22.0248 2.60231 22.0832 2.638C22.1499 2.67874 22.2144 2.73143 22.2703 2.78632C22.3261 2.84118 22.38 2.90485 22.4219 2.97113C22.4584 3.02899 22.5081 3.12321 22.5081 3.23126C22.5081 3.27312 22.4976 3.30809 22.4946 3.31818L22.4944 3.31887C22.4895 3.33518 22.4836 3.35116 22.4782 3.36505C22.4671 3.39326 22.4524 3.42657 22.4356 3.46246C22.4018 3.53498 22.3542 3.63007 22.2968 3.73996C22.1819 3.96028 22.0239 4.24781 21.8497 4.54851M21.4101 2.73998L21.6332 4.42344M20.4666 5.81926C20.4667 5.81927 20.4667 5.81929 20.4667 5.8193L20.5478 5.58282M20.4666 5.81926C20.4666 5.81925 20.4665 5.81923 20.4665 5.81922L20.5478 5.58282M20.4666 5.81926C20.5543 5.84942 20.6721 5.88289 20.8033 5.85801C20.9398 5.83211 21.0469 5.75255 21.1393 5.65395C21.3114 5.47033 21.5197 5.12121 21.8497 4.54851M20.5478 5.58282C20.8658 5.69219 20.959 5.59375 21.6332 4.42344M21.8497 4.54851C21.8496 4.5486 21.8496 4.54868 21.8495 4.54877L21.6332 4.42344M21.8497 4.54851C21.8497 4.54842 21.8498 4.54833 21.8498 4.54825L21.6332 4.42344" fill="#D7D7D7" stroke="#D7D7D7" stroke-width="0.5"/>
  <path d="M14.3639 6.44355L14.3628 6.44362C12.8763 6.55076 11.4977 7.03065 10.2082 7.88453L10.2063 7.88575C9.934 8.06955 9.74615 8.20264 9.63175 8.32715C9.56905 8.39538 9.52045 8.46882 9.49035 8.55516C9.46091 8.63959 9.45483 8.72052 9.45483 8.79298C9.45483 8.97291 9.56004 9.13447 9.65664 9.236C9.7509 9.33507 9.90976 9.45313 10.094 9.45313C10.1423 9.45313 10.1843 9.44062 10.2046 9.43418C10.2305 9.42595 10.2569 9.41544 10.2818 9.40459C10.332 9.38274 10.3905 9.35323 10.4524 9.31965C10.5769 9.25209 10.7283 9.16077 10.8784 9.0619L10.8803 9.06063C12.4123 8.03114 14.1396 7.59963 15.869 7.81067C18.0575 8.08036 19.9549 9.27919 21.1819 11.176C22.0209 12.4817 22.4198 14.2548 22.2293 15.8448C21.98 17.8542 20.9256 19.6515 19.2821 20.852L19.2819 20.8522C18.3085 21.5647 17.0994 22.0412 15.8697 22.1893C14.4877 22.353 13.035 22.0992 11.7795 21.4703C8.98003 20.0633 7.38648 17.0229 7.84704 13.9598L7.84722 13.9586C8.00608 12.8651 8.42476 11.8018 9.05581 10.8813C9.25199 10.5957 9.38278 10.3982 9.44178 10.2427C9.47492 10.1554 9.49203 10.0662 9.48119 9.97098C9.47083 9.87996 9.43696 9.80446 9.40634 9.74497L9.40474 9.74187L9.40472 9.74188C9.25194 9.45498 8.94254 9.33986 8.63388 9.42039M14.3639 6.44355L8.69618 9.66251M14.3639 6.44355C16.9286 6.26923 19.2965 7.14224 21.0972 8.93865C22.7504 10.588 23.61 12.6642 23.61 15C23.61 15.8231 23.5584 16.2639 23.3674 17.0542C22.6438 20.0993 20.1326 22.6042 17.081 23.326C16.2889 23.5165 15.8471 23.568 15.0222 23.568C14.1972 23.568 13.7555 23.5165 12.9634 23.326M14.3639 6.44355L13.0213 23.0828M8.63388 9.42039C8.63348 9.4205 8.63309 9.4206 8.6327 9.4207L8.69618 9.66251M8.63388 9.42039C8.63448 9.42024 8.63508 9.42009 8.63568 9.41994L8.69618 9.66251M8.63388 9.42039C8.54959 9.44191 8.47964 9.49406 8.43383 9.53251C8.38104 9.57681 8.32658 9.63242 8.27258 9.69342C8.1641 9.81597 8.04209 9.97785 7.91821 10.1594C7.67014 10.5229 7.40138 10.9845 7.20316 11.4111L7.20309 11.4112C6.67711 12.5453 6.43436 13.6807 6.43436 15C6.43436 15.8176 6.48591 16.2638 6.67695 17.0543M8.69618 9.66251C8.47691 9.7172 7.81361 10.6906 7.42988 11.5164C6.92007 12.6156 6.68436 13.7149 6.68436 15C6.68436 15.7984 6.73369 16.225 6.92007 16.9961M6.67695 17.0543C6.67691 17.0542 6.67686 17.054 6.67682 17.0538L6.92007 16.9961M6.67695 17.0543C6.67699 17.0545 6.67703 17.0547 6.67707 17.0548L6.92007 16.9961M6.67695 17.0543C7.40063 20.1048 9.9063 22.6042 12.9634 23.326M6.92007 16.9961C7.62174 19.9547 10.0557 22.3828 13.0213 23.0828M13.0213 23.0828L12.9628 23.3259C12.963 23.3259 12.9632 23.326 12.9634 23.326M13.0213 23.0828L12.9639 23.3261C12.9637 23.3261 12.9635 23.3261 12.9634 23.326" fill="#D7D7D7" stroke="#D7D7D7" stroke-width="0.5"/>
  <path d="M2.78559 7.75734L2.78563 7.75739C2.67502 7.86774 2.56894 8.00699 2.55596 8.18254C2.54239 8.36608 2.63479 8.51323 2.73769 8.62628C2.78352 8.6779 2.85712 8.73264 2.92349 8.77918C2.99924 8.8323 3.09458 8.8943 3.20131 8.96085C3.41522 9.09422 3.68323 9.25107 3.94997 9.40067C4.21665 9.55023 4.48484 9.69411 4.6992 9.8012C4.80598 9.85456 4.90229 9.90023 4.97965 9.93313C5.01806 9.94946 5.05527 9.96414 5.08864 9.97516C5.1128 9.98315 5.16512 10 5.2207 10C5.51673 10 5.71996 9.78949 5.80203 9.57682C5.88408 9.3642 5.87499 9.07267 5.65952 8.87236M2.78559 7.75734L5.48931 9.05547M2.78559 7.75734L2.7896 7.75351C2.85734 7.68887 2.93232 7.62556 3.01825 7.5858C3.11532 7.54089 3.21392 7.53134 3.31401 7.55275M2.78559 7.75734L3.26369 7.79766M5.65952 8.87236L5.48931 9.05547M5.65952 8.87236C5.65957 8.87241 5.65962 8.87246 5.65967 8.8725L5.48931 9.05547M5.65952 8.87236C5.62003 8.83563 5.55293 8.79031 5.48906 8.74887C5.41773 8.70258 5.3267 8.64624 5.22361 8.58409C5.01713 8.45959 4.75687 8.30851 4.49754 8.1618C4.23826 8.01512 3.97817 7.87183 3.77205 7.76308C3.66924 7.70884 3.57802 7.66222 3.50627 7.62783C3.47059 7.61073 3.43747 7.59556 3.40897 7.58373C3.38913 7.57549 3.35227 7.56044 3.31401 7.55275M5.48931 9.05547C5.32485 8.90234 3.42267 7.825 3.26369 7.79766M3.31401 7.55275C3.31527 7.55303 3.31654 7.5533 3.3178 7.55358L3.26369 7.79766M3.31401 7.55275C3.31137 7.55222 3.30872 7.55173 3.30607 7.55127L3.26369 7.79766" fill="#D7D7D7" stroke="#D7D7D7" stroke-width="0.5"/>
  <path d="M25.5648 8.14987L25.5648 8.14987L25.5657 8.14935C25.8505 7.98662 26.1222 7.83861 26.3307 7.73077C26.4346 7.67701 26.5249 7.63218 26.5942 7.60027C26.6284 7.58448 26.6606 7.57044 26.6881 7.55984C26.7017 7.55461 26.7174 7.54894 26.7337 7.54422L26.7341 7.5441C26.7444 7.5411 26.7782 7.53125 26.819 7.53125C26.9268 7.53125 27.0209 7.58062 27.079 7.6171C27.1453 7.65882 27.2091 7.7126 27.2641 7.76831C27.3192 7.82405 27.372 7.88842 27.4129 7.95501C27.4486 8.01329 27.4966 8.10697 27.4966 8.21328C27.4966 8.30235 27.4616 8.38712 27.4351 8.44081C27.4045 8.50281 27.363 8.56709 27.3156 8.6223L27.3156 8.62233L27.3121 8.62629C27.2665 8.67709 27.1922 8.73207 27.1238 8.77968C27.0477 8.83265 26.952 8.89455 26.845 8.96106C26.6304 9.09435 26.362 9.25115 26.0949 9.40073C25.8279 9.55027 25.5596 9.69414 25.3452 9.80122C25.2383 9.85457 25.142 9.90024 25.0647 9.93313C25.0262 9.94947 24.989 9.96414 24.9557 9.97517C24.9315 9.98315 24.8792 10 24.8236 10C24.5275 10 24.3238 9.78927 24.2425 9.57482C24.1607 9.35944 24.174 9.06826 24.3901 8.86703L24.3901 8.86702L24.3925 8.86482C24.427 8.83358 24.4916 8.79152 24.5494 8.75468C24.6168 8.71168 24.7056 8.65701 24.8088 8.59469C25.0155 8.46986 25.2842 8.31176 25.5648 8.14987Z" fill="#D7D7D7" stroke="#D7D7D7" stroke-width="0.5"/>
  <path d="M1.10948 14.4122L1.10948 14.4122L1.11162 14.4109C1.15299 14.3874 1.19575 14.3758 1.22351 14.3694C1.25523 14.3621 1.29007 14.3566 1.32607 14.3523C1.39821 14.3435 1.4909 14.3374 1.60368 14.3332C1.82998 14.3247 2.15558 14.3235 2.59757 14.3289C2.59772 14.3289 2.59787 14.3289 2.59802 14.3289L3.85243 14.3399L3.96592 14.3408L4.03988 14.4269L4.17144 14.5801C4.26687 14.6911 4.35516 14.8293 4.35516 15C4.35516 15.1707 4.26687 15.3089 4.17144 15.42L4.03988 15.5731L3.96641 15.6586L3.85368 15.6601L2.65938 15.6765C2.65926 15.6765 2.65913 15.6765 2.65901 15.6765C2.32861 15.682 2.01386 15.6834 1.77185 15.6807C1.65105 15.6793 1.54665 15.6768 1.46683 15.6732C1.42712 15.6714 1.39131 15.6693 1.36158 15.6666C1.34173 15.6647 1.30468 15.6612 1.26991 15.6518C0.977452 15.5774 0.788155 15.3529 0.755116 15.0915C0.722104 14.8303 0.848734 14.5643 1.10948 14.4122Z" fill="#D7D7D7" stroke="#D7D7D7" stroke-width="0.5"/>
  <path d="M26.0867 14.4134L26.0867 14.4133L26.0934 14.4099C26.1381 14.3876 26.1871 14.3772 26.2158 14.3717C26.2514 14.3648 26.2922 14.3592 26.3352 14.3544C26.4217 14.3447 26.5307 14.3369 26.6522 14.3308C26.896 14.3184 27.2026 14.3118 27.5071 14.3111C27.8115 14.3104 28.1172 14.3156 28.359 14.327C28.4795 14.3326 28.5875 14.34 28.6727 14.3494C28.7151 14.354 28.7556 14.3596 28.7909 14.3665C28.8169 14.3716 28.8671 14.3821 28.9135 14.4064C29.2586 14.5837 29.451 15.0294 29.1821 15.3771C29.1334 15.4401 29.0721 15.5059 28.9784 15.5574C28.8891 15.6065 28.7875 15.6332 28.6715 15.65C28.4473 15.6826 28.0943 15.6875 27.5097 15.6875C26.8908 15.6875 26.5176 15.6831 26.2837 15.6387C26.1591 15.615 26.0495 15.5761 25.9559 15.5037C25.8635 15.432 25.8086 15.3439 25.7669 15.2685L25.7669 15.2685L25.7661 15.2669L25.766 15.2669C25.733 15.2061 25.6823 15.1127 25.6823 15C25.6823 14.8873 25.733 14.7939 25.766 14.7331L25.7661 14.7331L25.7658 14.7329L25.7715 14.7235C25.8094 14.6605 25.8606 14.5994 25.9106 14.5496C25.9591 14.5012 26.0212 14.4485 26.0867 14.4134Z" fill="#D7D7D7" stroke="#D7D7D7" stroke-width="0.5"/>
  <path d="M5.48929 20.9445L5.66127 21.126C5.6385 21.1476 5.60946 21.168 5.59109 21.1807C5.56792 21.1967 5.5394 21.2154 5.50726 21.236C5.44273 21.2773 5.35798 21.3297 5.26049 21.3887C5.06519 21.5069 4.81413 21.6549 4.56146 21.8014C4.30877 21.9478 4.05332 22.0934 3.84918 22.2067C3.74724 22.2633 3.6571 22.3124 3.58606 22.3498C3.522 22.3834 3.45668 22.4167 3.41472 22.4319L3.41472 22.4319L3.41375 22.4322C3.18798 22.5131 2.96275 22.4094 2.82446 22.2955C2.68042 22.1768 2.54773 21.9822 2.54773 21.7539C2.54773 21.6345 2.60123 21.5363 2.66382 21.4597C2.72522 21.3846 2.81061 21.3112 2.91303 21.2356C3.11877 21.0837 3.44468 20.8856 3.92846 20.6075L3.92846 20.6075L3.92997 20.6066C4.45354 20.3105 4.78805 20.1311 5.01835 20.0566C5.13782 20.0179 5.25891 19.997 5.37939 20.0218C5.50586 20.0479 5.59452 20.1167 5.66038 20.1824C5.7912 20.3129 5.84152 20.4971 5.84343 20.653C5.84531 20.8071 5.80017 20.9981 5.65865 21.1284L5.48929 20.9445ZM5.48929 20.9445C5.63182 20.8133 5.62634 20.5016 5.48381 20.3594C5.29195 20.168 5.11653 20.2227 4.05306 20.8242C3.08278 21.382 2.79773 21.5898 2.79773 21.7539C2.79773 22.0164 3.11567 22.2734 3.32946 22.1969C3.51036 22.1313 5.37966 21.0484 5.48929 20.9445Z" fill="#D7D7D7" stroke="#D7D7D7" stroke-width="0.5"/>
  <path d="M26.6305 22.4322L26.6305 22.4322L26.6296 22.4319C26.5876 22.4167 26.5223 22.3834 26.4582 22.3498C26.3872 22.3124 26.2971 22.2633 26.1951 22.2067C25.991 22.0934 25.7355 21.9478 25.4828 21.8014C25.2302 21.6549 24.9791 21.5069 24.7838 21.3887C24.6863 21.3297 24.6016 21.2773 24.537 21.236C24.5049 21.2154 24.4764 21.1967 24.4532 21.1807C24.4353 21.1683 24.4072 21.1485 24.3847 21.1275C24.2439 20.9972 24.199 20.8067 24.2009 20.653C24.2028 20.4971 24.2531 20.3129 24.3839 20.1824C24.4498 20.1167 24.5384 20.0479 24.6649 20.0218C24.7854 19.997 24.9065 20.0179 25.0259 20.0566C25.2562 20.1311 25.5908 20.3105 26.1143 20.6066L26.1143 20.6066L26.1158 20.6075C26.5996 20.8856 26.9255 21.0837 27.1313 21.2356C27.2337 21.3112 27.3191 21.3846 27.3805 21.4597C27.4431 21.5363 27.4966 21.6345 27.4966 21.7539C27.4966 21.9822 27.3639 22.1768 27.2198 22.2955C27.0815 22.4094 26.8563 22.5131 26.6305 22.4322Z" fill="#D7D7D7" stroke="#D7D7D7" stroke-width="0.5"/>
  <path d="M7.76307 27.2083L7.76312 27.2082C7.87384 27.3187 8.01321 27.4242 8.18857 27.4371C8.37183 27.4506 8.51899 27.3588 8.6324 27.2561C8.68414 27.2103 8.73903 27.1369 8.78569 27.0707C8.83895 26.9951 8.9011 26.9 8.96781 26.7935C9.10151 26.5801 9.25874 26.3127 9.4087 26.0466C9.55863 25.7805 9.70286 25.5129 9.81022 25.2991C9.8637 25.1925 9.9095 25.0964 9.94249 25.0192C9.95887 24.9809 9.97359 24.9437 9.98466 24.9104C9.99266 24.8863 10.0096 24.8339 10.0096 24.7781C10.0096 24.4818 9.79801 24.2791 9.58546 24.1975C9.37295 24.1159 9.08149 24.1247 8.88089 24.3394L7.76307 27.2083ZM7.76307 27.2083L7.75923 27.2043M7.76307 27.2083L7.75923 27.2043M7.75923 27.2043C7.69446 27.1367 7.63093 27.0619 7.59101 26.976C7.54587 26.8789 7.53624 26.7801 7.55779 26.6799C7.56553 26.6416 7.58066 26.6047 7.58891 26.5849M7.75923 27.2043L7.58891 26.5849M7.58891 26.5849C7.60079 26.5565 7.616 26.5234 7.63314 26.4878M7.58891 26.5849L7.63314 26.4878M7.63314 26.4878C7.66762 26.4162 7.71436 26.3252 7.76874 26.2226M7.63314 26.4878L7.76874 26.2226M7.76874 26.2226C7.87776 26.017 8.02139 25.7575 8.16842 25.4988M7.76874 26.2226L8.16842 25.4988M8.16842 25.4988C8.31548 25.2401 8.46693 24.9805 8.59173 24.7745M8.16842 25.4988L8.59173 24.7745M8.59173 24.7745C8.65403 24.6716 8.71051 24.5808 8.75691 24.5096M8.59173 24.7745L8.75691 24.5096M8.75691 24.5096C8.79846 24.4459 8.84391 24.3789 8.88075 24.3395L8.75691 24.5096Z" fill="#D7D7D7" stroke="#D7D7D7" stroke-width="0.5"/>
  <path d="M20.6433 26.0671L20.6433 26.0671L20.6429 26.0665C20.3461 25.5442 20.1662 25.2104 20.0915 24.9805C20.0527 24.8612 20.0316 24.7401 20.0566 24.6194C20.0828 24.4929 20.152 24.4043 20.2178 24.3386C20.3485 24.2082 20.5328 24.1582 20.6887 24.1563C20.8425 24.1544 21.0334 24.1992 21.1639 24.3399C21.2007 24.3794 21.246 24.4461 21.2874 24.5096C21.3338 24.5808 21.3903 24.6716 21.4526 24.7745C21.5774 24.9805 21.7288 25.2401 21.8759 25.4988C22.0229 25.7575 22.1666 26.017 22.2756 26.2226C22.33 26.3252 22.3767 26.4162 22.4112 26.4878C22.4283 26.5234 22.4435 26.5565 22.4554 26.5849C22.4637 26.6047 22.4788 26.6416 22.4865 26.6799C22.5081 26.7801 22.4985 26.8789 22.4533 26.976C22.4134 27.0619 22.3499 27.1367 22.2851 27.2043L22.2852 27.2043L22.2798 27.2096C22.1912 27.2966 22.0724 27.4015 21.9224 27.4351C21.7427 27.4753 21.5897 27.4028 21.4683 27.297C21.3539 27.1973 21.2391 27.045 21.1129 26.8519C20.9841 26.6547 20.8312 26.3955 20.6433 26.0671Z" fill="#D7D7D7" stroke="#D7D7D7" stroke-width="0.5"/>
  <path d="M14.3611 26.1419L14.3626 26.0288L14.4486 25.9553L14.6016 25.8245C14.66 25.7741 14.7279 25.7305 14.7907 25.6987C14.8226 25.6826 14.8569 25.6676 14.8915 25.6561C14.9222 25.6459 14.9694 25.6328 15.0222 25.6328C15.0749 25.6328 15.1222 25.6459 15.1529 25.6561C15.1874 25.6676 15.2217 25.6826 15.2536 25.6987C15.3164 25.7305 15.3844 25.7741 15.4428 25.8245L15.5958 25.9553L15.6817 26.0288L15.6833 26.1419L15.6997 27.3333C15.6997 27.3334 15.6997 27.3336 15.6997 27.3337C15.7052 27.6633 15.7066 27.9773 15.7038 28.2188C15.7025 28.3393 15.7 28.4435 15.6964 28.5231C15.6946 28.5628 15.6924 28.5985 15.6897 28.6282C15.6879 28.6481 15.6843 28.6853 15.6748 28.7202C15.6366 28.8684 15.5413 28.9956 15.4364 29.0843C15.3319 29.1725 15.185 29.25 15.0222 29.25C14.8594 29.25 14.7124 29.1725 14.608 29.0843C14.503 28.9956 14.4078 28.8684 14.3695 28.7202C14.36 28.6853 14.3565 28.6481 14.3546 28.6282C14.3519 28.5985 14.3497 28.5628 14.3479 28.5231C14.3443 28.4435 14.3419 28.3393 14.3405 28.2188C14.3377 27.9773 14.3391 27.6633 14.3446 27.3337C14.3446 27.3336 14.3446 27.3334 14.3446 27.3333L14.3611 26.1419Z" fill="#D7D7D7" stroke="#D7D7D7" stroke-width="0.5"/>
</svg>