<svg xmlns="http://www.w3.org/2000/svg" width="30" height="30" viewBox="0 0 30 30" fill="none">
  <path d="M14.5903 0.924886L14.5903 0.924886C14.6506 0.869789 14.7246 0.828545 14.791 0.801085C14.8555 0.77442 14.9389 0.75 15.0222 0.75C15.185 0.75 15.3319 0.827454 15.4364 0.91567C15.5413 1.00436 15.6366 1.13161 15.6748 1.27982C15.6843 1.31473 15.6879 1.35195 15.6897 1.37178C15.6924 1.40147 15.6946 1.43723 15.6964 1.47686C15.7 1.55652 15.7025 1.66069 15.7038 1.78121C15.7066 2.02266 15.7052 2.33669 15.6997 2.66632C15.6997 2.66644 15.6997 2.66656 15.6997 2.66668L15.6833 3.85814L15.6817 3.9712L15.5958 4.04469L15.4428 4.17554C15.3844 4.22591 15.3164 4.2695 15.2536 4.30129C15.2217 4.31743 15.1874 4.33242 15.1529 4.3439C15.1222 4.35411 15.0749 4.36719 15.0222 4.36719C14.9694 4.36719 14.9222 4.35411 14.8915 4.3439C14.8569 4.33242 14.8226 4.31743 14.7907 4.30129C14.7279 4.2695 14.66 4.22591 14.6016 4.17554L14.4486 4.04469L14.3626 3.9712L14.3611 3.85814L14.3446 2.66668C14.3446 2.66655 14.3446 2.66643 14.3446 2.66631C14.3391 2.33668 14.3377 2.02266 14.3405 1.78121C14.3419 1.66069 14.3443 1.55652 14.3479 1.47686C14.3497 1.43723 14.3519 1.40147 14.3546 1.37178C14.3565 1.35187 14.36 1.31444 14.3697 1.27941C14.3871 1.2127 14.4214 1.14575 14.4541 1.09309C14.4888 1.03719 14.5356 0.974952 14.5903 0.924886Z" fill="#F5ACA4" stroke="#F5ACA4" stroke-width="0.5"/>
  <path d="M9.57784 5.81919C9.49014 5.84936 9.37229 5.88287 9.24103 5.85797C9.10449 5.83208 8.9974 5.75252 8.90501 5.65392C8.73295 5.4703 8.52461 5.12118 8.19465 4.54848C8.02044 4.24777 7.86245 3.96025 7.7475 3.73993C7.69017 3.63004 7.64253 3.53495 7.60871 3.46243C7.59197 3.42653 7.57722 3.39323 7.56615 3.36502C7.5607 3.35113 7.55482 3.33514 7.54994 3.31884L7.54973 3.31815C7.5467 3.30806 7.53619 3.27309 7.53619 3.23122C7.53619 3.17265 7.55214 3.12121 7.56512 3.08718C7.57944 3.04963 7.59803 3.01324 7.61775 2.97998C7.65699 2.91381 7.70957 2.84516 7.7686 2.78627C7.87789 2.67724 8.01556 2.57438 8.18911 2.5615C8.36994 2.54808 8.5168 2.63669 8.63112 2.73732L8.63114 2.73729L8.63416 2.74004C8.68218 2.78372 8.73542 2.85701 8.78071 2.92255C8.83195 2.99671 8.8928 3.09075 8.95882 3.19657C9.0911 3.4086 9.24874 3.67532 9.39993 3.94081C9.55106 4.20621 9.69717 4.47291 9.80608 4.68489C9.86033 4.79048 9.90679 4.88528 9.94024 4.96075C9.95684 4.99818 9.9718 5.03435 9.98309 5.06657L9.98322 5.06693C9.9907 5.08828 10.0096 5.14232 10.0096 5.19997C10.0096 5.33386 9.97868 5.46675 9.90035 5.58153C9.82126 5.69741 9.70761 5.77464 9.57784 5.81919ZM9.57784 5.81919L9.49652 5.58279M9.57784 5.81919C9.57776 5.81922 9.57769 5.81924 9.57761 5.81927L9.49652 5.58279M9.49652 5.58279C9.17857 5.69216 9.08538 5.59372 8.41112 4.42341L8.46594 2.92497C8.65232 3.09451 9.75964 5.03591 9.75964 5.19997C9.75964 5.39138 9.67193 5.52263 9.49652 5.58279Z" fill="#F5ACA4" stroke="#F5ACA4" stroke-width="0.5"/>
  <path d="M21.4101 2.73995L21.4102 2.74004C21.3621 2.78372 21.3089 2.85701 21.2636 2.92255C21.2124 2.99671 21.1515 3.09075 21.0855 3.19657C20.9532 3.4086 20.7956 3.67532 20.6444 3.94081C20.4933 4.20621 20.3471 4.47291 20.2382 4.68489C20.184 4.79048 20.1375 4.88528 20.1041 4.96075C20.0875 4.99818 20.0725 5.03435 20.0612 5.06657L20.0611 5.06693C20.0536 5.08828 20.0347 5.14232 20.0347 5.19997C20.0347 5.33386 20.0656 5.46675 20.144 5.58153C20.2231 5.69745 20.3368 5.77469 20.4666 5.81923M21.4101 2.73995L20.5478 5.58279M21.4101 2.73995L21.4159 2.73497C21.4712 2.68767 21.5356 2.6463 21.5977 2.61581C21.6515 2.58939 21.7362 2.55466 21.8251 2.55466C21.9311 2.55466 22.0247 2.60228 22.0832 2.63797C22.1499 2.67871 22.2144 2.7314 22.2702 2.78629C22.3261 2.84115 22.38 2.90482 22.4219 2.9711C22.4584 3.02896 22.5081 3.12318 22.5081 3.23122C22.5081 3.27309 22.4976 3.30806 22.4946 3.31815L22.4944 3.31884C22.4895 3.33514 22.4836 3.35113 22.4782 3.36502C22.4671 3.39323 22.4523 3.42653 22.4356 3.46243C22.4018 3.53495 22.3541 3.63004 22.2968 3.73993C22.1819 3.96025 22.0239 4.24777 21.8497 4.54848M21.4101 2.73995L21.6332 4.42341M20.4666 5.81923C20.4666 5.81924 20.4667 5.81926 20.4667 5.81927L20.5478 5.58279M20.4666 5.81923C20.4665 5.81922 20.4665 5.8192 20.4665 5.81919L20.5478 5.58279M20.4666 5.81923C20.5543 5.84939 20.6721 5.88286 20.8033 5.85797C20.9398 5.83208 21.0469 5.75252 21.1393 5.65392C21.3114 5.4703 21.5197 5.12118 21.8497 4.54848M20.5478 5.58279C20.8657 5.69216 20.9589 5.59372 21.6332 4.42341M21.8497 4.54848C21.8496 4.54857 21.8496 4.54865 21.8495 4.54874L21.6332 4.42341M21.8497 4.54848C21.8497 4.54839 21.8498 4.5483 21.8498 4.54821L21.6332 4.42341" fill="#F5ACA4" stroke="#F5ACA4" stroke-width="0.5"/>
  <path d="M14.3638 6.44357L14.3628 6.44364C12.8763 6.55078 11.4977 7.03067 10.2081 7.88455L10.2063 7.88576C9.93397 8.06957 9.74612 8.20265 9.63172 8.32716C9.56902 8.3954 9.52042 8.46883 9.49032 8.55517C9.46088 8.63961 9.4548 8.72053 9.4548 8.79299C9.4548 8.97292 9.56001 9.13449 9.65661 9.23602C9.75087 9.33509 9.90973 9.45315 10.094 9.45315C10.1423 9.45315 10.1843 9.44064 10.2046 9.4342C10.2304 9.42597 10.2568 9.41545 10.2818 9.4046C10.332 9.38275 10.3905 9.35324 10.4524 9.31967C10.5769 9.25211 10.7283 9.16079 10.8784 9.06192L10.8803 9.06065C12.4123 8.03116 14.1396 7.59964 15.869 7.81068C18.0575 8.08038 19.9548 9.27921 21.1818 11.176C22.0209 12.4817 22.4197 14.2548 22.2292 15.8448C21.98 17.8542 20.9255 19.6515 19.282 20.8521L19.2819 20.8522C18.3084 21.5647 17.0994 22.0412 15.8696 22.1893C14.4877 22.353 13.035 22.0992 11.7794 21.4703C8.98 20.0633 7.38645 17.0229 7.84701 13.9599L7.84719 13.9586C8.00605 12.8651 8.42473 11.8019 9.05577 10.8813C9.25196 10.5957 9.38275 10.3982 9.44175 10.2427C9.47489 10.1554 9.492 10.0662 9.48116 9.971C9.4708 9.87998 9.43693 9.80447 9.40631 9.74498L9.40471 9.74188L9.40469 9.74189C9.25191 9.45499 8.94251 9.33987 8.63385 9.42041M14.3638 6.44357L8.69615 9.66252M14.3638 6.44357C16.9286 6.26924 19.2964 7.14225 21.0971 8.93866C22.7504 10.588 23.61 12.6642 23.61 15C23.61 15.8231 23.5584 16.2639 23.3674 17.0542C22.6438 20.0993 20.1326 22.6042 17.081 23.326C16.2888 23.5166 15.8471 23.568 15.0221 23.568C14.1972 23.568 13.7555 23.5166 12.9633 23.326M14.3638 6.44357L13.0213 23.0828M8.63385 9.42041C8.63345 9.42051 8.63306 9.42062 8.63267 9.42072L8.69615 9.66252M8.63385 9.42041C8.63445 9.42026 8.63505 9.4201 8.63565 9.41995L8.69615 9.66252M8.63385 9.42041C8.54956 9.44192 8.47961 9.49407 8.4338 9.53252C8.38101 9.57683 8.32655 9.63243 8.27255 9.69344C8.16407 9.81598 8.04206 9.97787 7.91818 10.1594C7.67011 10.5229 7.40134 10.9845 7.20313 11.4111L7.20306 11.4112C6.67708 12.5453 6.43433 13.6807 6.43433 15C6.43433 15.8176 6.48587 16.2639 6.67692 17.0543M8.69615 9.66252C8.47688 9.71721 7.81358 10.6906 7.42985 11.5164C6.92004 12.6156 6.68433 13.7149 6.68433 15C6.68433 15.7985 6.73366 16.225 6.92004 16.9961M6.67692 17.0543C6.67688 17.0542 6.67683 17.054 6.67679 17.0538L6.92004 16.9961M6.67692 17.0543C6.67696 17.0545 6.677 17.0547 6.67704 17.0549L6.92004 16.9961M6.67692 17.0543C7.4006 20.1048 9.90627 22.6042 12.9633 23.326M6.92004 16.9961C7.62171 19.9547 10.0556 22.3828 13.0213 23.0828M13.0213 23.0828L12.9628 23.3259C12.963 23.3259 12.9632 23.326 12.9633 23.326M13.0213 23.0828L12.9639 23.3262C12.9637 23.3261 12.9635 23.3261 12.9633 23.326" fill="#F5ACA4" stroke="#F5ACA4" stroke-width="0.5"/>
  <path d="M2.78556 7.75734L2.7856 7.75739C2.67499 7.86774 2.56891 8.00699 2.55593 8.18254C2.54236 8.36608 2.63476 8.51323 2.73766 8.62628C2.78349 8.6779 2.85709 8.73264 2.92346 8.77918C2.99921 8.8323 3.09455 8.8943 3.20128 8.96085C3.41519 9.09422 3.6832 9.25107 3.94994 9.40067C4.21662 9.55023 4.48481 9.69411 4.69917 9.8012C4.80595 9.85456 4.90226 9.90023 4.97962 9.93313C5.01803 9.94946 5.05523 9.96414 5.08861 9.97516C5.11277 9.98315 5.16509 10 5.22067 10C5.5167 10 5.71993 9.78949 5.802 9.57682C5.88405 9.3642 5.87496 9.07267 5.65949 8.87236M2.78556 7.75734L5.48927 9.05547M2.78556 7.75734L2.78957 7.75351C2.85731 7.68887 2.93229 7.62556 3.01822 7.5858C3.11529 7.54089 3.21389 7.53134 3.31397 7.55275M2.78556 7.75734L3.26366 7.79766M5.65949 8.87236L5.48927 9.05547M5.65949 8.87236C5.65954 8.87241 5.65959 8.87246 5.65964 8.8725L5.48927 9.05547M5.65949 8.87236C5.62 8.83563 5.5529 8.79031 5.48903 8.74887C5.4177 8.70258 5.32667 8.64624 5.22358 8.58409C5.0171 8.45959 4.75684 8.30851 4.49751 8.1618C4.23823 8.01512 3.97814 7.87183 3.77202 7.76308C3.66921 7.70884 3.57799 7.66222 3.50624 7.62783C3.47056 7.61073 3.43744 7.59556 3.40894 7.58373C3.3891 7.57549 3.35224 7.56044 3.31397 7.55275M5.48927 9.05547C5.32482 8.90234 3.42264 7.825 3.26366 7.79766M3.31397 7.55275C3.31524 7.55303 3.31651 7.5533 3.31777 7.55358L3.26366 7.79766M3.31397 7.55275C3.31134 7.55222 3.30869 7.55173 3.30604 7.55127L3.26366 7.79766" fill="#F5ACA4" stroke="#F5ACA4" stroke-width="0.5"/>
  <path d="M25.5648 8.14987L25.5648 8.14987L25.5657 8.14935C25.8505 7.98662 26.1222 7.83861 26.3307 7.73077C26.4346 7.67701 26.5249 7.63218 26.5942 7.60027C26.6284 7.58448 26.6606 7.57044 26.6881 7.55984C26.7017 7.55461 26.7174 7.54894 26.7337 7.54422L26.7341 7.5441C26.7444 7.5411 26.7782 7.53125 26.819 7.53125C26.9268 7.53125 27.0209 7.58062 27.079 7.6171C27.1453 7.65882 27.2091 7.7126 27.2641 7.76831C27.3192 7.82405 27.372 7.88842 27.4129 7.95501C27.4486 8.01329 27.4966 8.10697 27.4966 8.21328C27.4966 8.30235 27.4616 8.38712 27.4351 8.44081C27.4045 8.50281 27.363 8.56709 27.3156 8.6223L27.3156 8.62233L27.3121 8.62629C27.2665 8.67709 27.1922 8.73207 27.1238 8.77968C27.0477 8.83265 26.952 8.89455 26.845 8.96106C26.6304 9.09435 26.362 9.25115 26.0949 9.40073C25.8279 9.55027 25.5596 9.69414 25.3452 9.80122C25.2383 9.85457 25.142 9.90024 25.0647 9.93313C25.0262 9.94947 24.989 9.96414 24.9557 9.97517C24.9315 9.98315 24.8792 10 24.8236 10C24.5275 10 24.3238 9.78927 24.2425 9.57482C24.1607 9.35944 24.174 9.06826 24.3901 8.86703L24.3901 8.86702L24.3925 8.86482C24.427 8.83358 24.4916 8.79152 24.5494 8.75468C24.6168 8.71168 24.7056 8.65701 24.8088 8.59469C25.0155 8.46986 25.2842 8.31176 25.5648 8.14987Z" fill="#F5ACA4" stroke="#F5ACA4" stroke-width="0.5"/>
  <path d="M1.10948 14.4121L1.10948 14.4121L1.11162 14.4109C1.15299 14.3873 1.19575 14.3758 1.22351 14.3694C1.25523 14.3621 1.29007 14.3566 1.32607 14.3522C1.39821 14.3435 1.4909 14.3374 1.60368 14.3332C1.82998 14.3247 2.15558 14.3234 2.59757 14.3289C2.59772 14.3289 2.59787 14.3289 2.59802 14.3289L3.85243 14.3398L3.96592 14.3408L4.03988 14.4269L4.17144 14.58C4.26687 14.6911 4.35516 14.8293 4.35516 15C4.35516 15.1707 4.26687 15.3089 4.17144 15.4199L4.03988 15.5731L3.96641 15.6586L3.85368 15.6601L2.65938 15.6765C2.65926 15.6765 2.65913 15.6765 2.65901 15.6765C2.32861 15.682 2.01386 15.6834 1.77185 15.6806C1.65105 15.6792 1.54665 15.6768 1.46683 15.6732C1.42712 15.6714 1.39131 15.6692 1.36158 15.6665C1.34173 15.6647 1.30468 15.6612 1.26991 15.6518C0.977452 15.5773 0.788155 15.3529 0.755116 15.0915C0.722104 14.8303 0.848734 14.5642 1.10948 14.4121Z" fill="#F5ACA4" stroke="#F5ACA4" stroke-width="0.5"/>
  <path d="M26.0867 14.4134L26.0867 14.4133L26.0934 14.4099C26.1381 14.3876 26.1871 14.3772 26.2158 14.3717C26.2514 14.3648 26.2922 14.3592 26.3352 14.3544C26.4217 14.3447 26.5307 14.3369 26.6522 14.3308C26.896 14.3184 27.2026 14.3118 27.5071 14.3111C27.8115 14.3104 28.1172 14.3156 28.359 14.327C28.4795 14.3326 28.5875 14.34 28.6727 14.3494C28.7151 14.354 28.7556 14.3596 28.7909 14.3665C28.8169 14.3716 28.8671 14.3821 28.9135 14.4064C29.2586 14.5837 29.451 15.0294 29.1821 15.3771C29.1334 15.4401 29.0721 15.5059 28.9784 15.5574C28.8891 15.6065 28.7875 15.6332 28.6715 15.65C28.4473 15.6826 28.0943 15.6875 27.5097 15.6875C26.8908 15.6875 26.5176 15.6831 26.2837 15.6387C26.1591 15.615 26.0495 15.5761 25.9559 15.5037C25.8635 15.432 25.8086 15.3439 25.7669 15.2685L25.7669 15.2685L25.7661 15.2669L25.766 15.2669C25.733 15.2061 25.6823 15.1127 25.6823 15C25.6823 14.8873 25.733 14.7939 25.766 14.7331L25.7661 14.7331L25.7658 14.7329L25.7715 14.7235C25.8094 14.6605 25.8606 14.5994 25.9106 14.5496C25.9591 14.5012 26.0212 14.4485 26.0867 14.4134Z" fill="#F5ACA4" stroke="#F5ACA4" stroke-width="0.5"/>
  <path d="M5.48929 20.9445L5.66127 21.126C5.6385 21.1475 5.60946 21.1679 5.59109 21.1806C5.56792 21.1966 5.5394 21.2154 5.50726 21.236C5.44273 21.2773 5.35798 21.3296 5.26049 21.3886C5.06519 21.5069 4.81413 21.6549 4.56146 21.8013C4.30877 21.9478 4.05332 22.0933 3.84918 22.2067C3.74724 22.2633 3.6571 22.3124 3.58606 22.3497C3.522 22.3834 3.45668 22.4166 3.41472 22.4319L3.41472 22.4319L3.41375 22.4322C3.18798 22.5131 2.96275 22.4094 2.82446 22.2955C2.68042 22.1768 2.54773 21.9822 2.54773 21.7539C2.54773 21.6344 2.60123 21.5363 2.66382 21.4597C2.72522 21.3845 2.81061 21.3112 2.91303 21.2356C3.11877 21.0837 3.44468 20.8856 3.92846 20.6075L3.92846 20.6075L3.92997 20.6066C4.45354 20.3104 4.78805 20.131 5.01835 20.0565C5.13782 20.0179 5.25891 19.9969 5.37939 20.0218C5.50586 20.0479 5.59452 20.1167 5.66038 20.1824C5.7912 20.3129 5.84152 20.4971 5.84343 20.653C5.84531 20.807 5.80017 20.9981 5.65865 21.1284L5.48929 20.9445ZM5.48929 20.9445C5.63182 20.8133 5.62634 20.5015 5.48381 20.3593C5.29195 20.1679 5.11653 20.2226 4.05306 20.8242C3.08278 21.382 2.79773 21.5898 2.79773 21.7539C2.79773 22.0164 3.11567 22.2734 3.32946 22.1968C3.51036 22.1312 5.37966 21.0484 5.48929 20.9445Z" fill="#F5ACA4" stroke="#F5ACA4" stroke-width="0.5"/>
  <path d="M26.6305 22.4322L26.6305 22.4322L26.6296 22.4319C26.5876 22.4166 26.5223 22.3834 26.4582 22.3497C26.3872 22.3124 26.2971 22.2633 26.1951 22.2067C25.991 22.0933 25.7355 21.9478 25.4828 21.8013C25.2302 21.6549 24.9791 21.5069 24.7838 21.3886C24.6863 21.3296 24.6016 21.2773 24.537 21.236C24.5049 21.2154 24.4764 21.1966 24.4532 21.1806C24.4353 21.1682 24.4072 21.1485 24.3847 21.1275C24.2439 20.9972 24.199 20.8067 24.2009 20.653C24.2028 20.4971 24.2531 20.3129 24.3839 20.1824C24.4498 20.1167 24.5384 20.0479 24.6649 20.0218C24.7854 19.9969 24.9065 20.0179 25.0259 20.0565C25.2562 20.131 25.5908 20.3104 26.1143 20.6066L26.1143 20.6066L26.1158 20.6075C26.5996 20.8856 26.9255 21.0837 27.1313 21.2356C27.2337 21.3112 27.3191 21.3845 27.3805 21.4597C27.4431 21.5363 27.4966 21.6344 27.4966 21.7539C27.4966 21.9822 27.3639 22.1768 27.2198 22.2955C27.0815 22.4094 26.8563 22.5131 26.6305 22.4322Z" fill="#F5ACA4" stroke="#F5ACA4" stroke-width="0.5"/>
  <path d="M7.76304 27.2083L7.76309 27.2082C7.87381 27.3187 8.01318 27.4242 8.18854 27.4371C8.3718 27.4506 8.51896 27.3588 8.63237 27.2561C8.68411 27.2103 8.73899 27.1369 8.78566 27.0707C8.83892 26.9951 8.90107 26.9 8.96778 26.7935C9.10148 26.5801 9.25871 26.3127 9.40867 26.0466C9.5586 25.7805 9.70283 25.5129 9.81019 25.2991C9.86367 25.1925 9.90947 25.0964 9.94246 25.0192C9.95884 24.9809 9.97356 24.9437 9.98463 24.9104C9.99263 24.8863 10.0096 24.8339 10.0096 24.7781C10.0096 24.4818 9.79798 24.2791 9.58543 24.1975C9.37292 24.1159 9.08146 24.1247 8.88086 24.3394L7.76304 27.2083ZM7.76304 27.2083L7.7592 27.2043M7.76304 27.2083L7.7592 27.2043M7.7592 27.2043C7.69443 27.1367 7.6309 27.0619 7.59098 26.976C7.54584 26.8789 7.53621 26.7801 7.55775 26.6799C7.5655 26.6416 7.58063 26.6047 7.58888 26.5849M7.7592 27.2043L7.58888 26.5849M7.58888 26.5849C7.60076 26.5565 7.61597 26.5234 7.63311 26.4878M7.58888 26.5849L7.63311 26.4878M7.63311 26.4878C7.66759 26.4162 7.71433 26.3252 7.76871 26.2226M7.63311 26.4878L7.76871 26.2226M7.76871 26.2226C7.87773 26.017 8.02136 25.7575 8.16839 25.4988M7.76871 26.2226L8.16839 25.4988M8.16839 25.4988C8.31545 25.2401 8.4669 24.9805 8.5917 24.7745M8.16839 25.4988L8.5917 24.7745M8.5917 24.7745C8.654 24.6716 8.71048 24.5808 8.75688 24.5096M8.5917 24.7745L8.75688 24.5096M8.75688 24.5096C8.79843 24.4459 8.84388 24.3789 8.88072 24.3395L8.75688 24.5096Z" fill="#F5ACA4" stroke="#F5ACA4" stroke-width="0.5"/>
  <path d="M20.6433 26.0671L20.6433 26.0671L20.6429 26.0665C20.3461 25.5442 20.1662 25.2104 20.0915 24.9805C20.0527 24.8612 20.0316 24.74 20.0566 24.6194C20.0828 24.4929 20.152 24.4043 20.2178 24.3386C20.3485 24.2082 20.5328 24.1581 20.6887 24.1563C20.8425 24.1544 21.0334 24.1992 21.1639 24.3399C21.2007 24.3794 21.246 24.4461 21.2874 24.5096C21.3338 24.5808 21.3903 24.6716 21.4526 24.7744C21.5774 24.9804 21.7288 25.2401 21.8759 25.4988C22.0229 25.7575 22.1666 26.017 22.2756 26.2226C22.33 26.3252 22.3767 26.4162 22.4112 26.4878C22.4283 26.5234 22.4435 26.5564 22.4554 26.5849C22.4637 26.6047 22.4788 26.6416 22.4865 26.6799C22.5081 26.7801 22.4985 26.8789 22.4533 26.976C22.4134 27.0619 22.3499 27.1367 22.2851 27.2043L22.2852 27.2043L22.2798 27.2096C22.1912 27.2966 22.0724 27.4015 21.9224 27.4351C21.7427 27.4753 21.5897 27.4028 21.4683 27.297C21.3539 27.1973 21.2391 27.045 21.1129 26.8519C20.9841 26.6547 20.8312 26.3955 20.6433 26.0671Z" fill="#F5ACA4" stroke="#F5ACA4" stroke-width="0.5"/>
  <path d="M14.3611 26.1419L14.3626 26.0288L14.4486 25.9553L14.6016 25.8245C14.66 25.7741 14.7279 25.7305 14.7907 25.6987C14.8226 25.6826 14.8569 25.6676 14.8915 25.6561C14.9222 25.6459 14.9694 25.6328 15.0222 25.6328C15.0749 25.6328 15.1222 25.6459 15.1529 25.6561C15.1874 25.6676 15.2217 25.6826 15.2536 25.6987C15.3164 25.7305 15.3844 25.7741 15.4428 25.8245L15.5958 25.9553L15.6817 26.0288L15.6833 26.1419L15.6997 27.3333C15.6997 27.3334 15.6997 27.3336 15.6997 27.3337C15.7052 27.6633 15.7066 27.9773 15.7038 28.2188C15.7025 28.3393 15.7 28.4435 15.6964 28.5231C15.6946 28.5628 15.6924 28.5985 15.6897 28.6282C15.6879 28.6481 15.6843 28.6853 15.6748 28.7202C15.6366 28.8684 15.5413 28.9956 15.4364 29.0843C15.3319 29.1725 15.185 29.25 15.0222 29.25C14.8594 29.25 14.7124 29.1725 14.608 29.0843C14.503 28.9956 14.4078 28.8684 14.3695 28.7202C14.36 28.6853 14.3565 28.6481 14.3546 28.6282C14.3519 28.5985 14.3497 28.5628 14.3479 28.5231C14.3443 28.4435 14.3419 28.3393 14.3405 28.2188C14.3377 27.9773 14.3391 27.6633 14.3446 27.3337C14.3446 27.3336 14.3446 27.3334 14.3446 27.3333L14.3611 26.1419Z" fill="#F5ACA4" stroke="#F5ACA4" stroke-width="0.5"/>
</svg>