<svg xmlns="http://www.w3.org/2000/svg" width="33" height="26" viewBox="0 0 33 26" fill="none">
  <path d="M15.7968 0.0436313C15.5072 0.125469 15.2239 0.478 15.1735 0.811646C15.1483 0.962731 15.1421 1.55448 15.1546 2.13364C15.1735 3.07162 15.1861 3.19123 15.3057 3.34861C15.5386 3.66337 15.7464 3.77669 16.0863 3.77669C16.4263 3.77669 16.634 3.66337 16.8669 3.34861C16.9928 3.18494 16.9991 3.09051 16.9991 1.89442C16.9991 0.698333 16.9928 0.603904 16.8669 0.440229C16.5899 0.0688121 16.1933 -0.0822728 15.7968 0.0436313Z" fill="#D7D7D7"/>
  <path d="M8.15435 2.09582C8.00326 2.15248 7.77034 2.3854 7.67591 2.56796C7.48706 2.92679 7.5563 3.15971 8.12917 4.16065C8.73351 5.21194 8.89718 5.41339 9.20565 5.52041C9.82887 5.72186 10.5339 5.09234 10.3828 4.46282C10.3136 4.19842 9.30007 2.46724 9.09233 2.26579C8.95384 2.13359 8.84052 2.08952 8.58242 2.07693C8.39986 2.06434 8.20471 2.07064 8.15435 2.09582Z" fill="#D7D7D7"/>
  <path d="M23.2943 2.10841C23.2251 2.13989 23.0929 2.2469 23.0047 2.34133C22.797 2.57425 21.8464 4.22989 21.7898 4.46282C21.6387 5.08604 22.3437 5.72186 22.967 5.52041C23.2754 5.41339 23.4391 5.21194 24.0434 4.16065C24.6163 3.15971 24.6856 2.92679 24.4967 2.56796C24.3267 2.24061 24.1064 2.09582 23.7539 2.07064C23.5713 2.06434 23.3636 2.07693 23.2943 2.10841Z" fill="#D7D7D7"/>
  <path d="M15.249 6.4584C11.8685 6.77945 8.96013 8.75615 7.43669 11.7778C6.66868 13.3139 6.29097 15.2402 6.44835 16.8707C6.48612 17.2484 6.5113 17.5694 6.49871 17.5757C6.49241 17.5883 6.18395 17.6513 5.82512 17.7268C4.13171 18.0731 0.637873 19.2503 0.266456 19.6028C-0.104961 19.9553 -0.0860754 20.5785 0.310522 20.9248C0.637873 21.2081 0.883386 21.2269 1.49402 21.0066C1.7836 20.9059 2.48866 20.6541 3.06153 20.4463C6.3728 19.2628 8.48799 19.0173 10.3703 19.6028C10.5906 19.672 11.3964 19.9616 12.1707 20.2386C15.5953 21.4851 16.6088 21.4851 20.1026 20.2071C22.2682 19.4139 22.734 19.3006 23.8168 19.3006C25.4599 19.3069 27.0085 19.6909 30.6471 20.994C31.2892 21.2269 31.5347 21.2144 31.8621 20.9248C32.2587 20.5722 32.2776 19.9553 31.8999 19.5965C31.5662 19.2754 28.1101 18.1045 26.4545 17.7583C26.0327 17.6702 25.6865 17.5883 25.6739 17.5757C25.6676 17.5694 25.6865 17.2421 25.7243 16.8518C26.0075 13.786 24.61 10.544 22.1612 8.57988C20.1908 7.00608 17.6727 6.23177 15.249 6.4584ZM17.3831 8.37844C20.6692 8.9513 23.2377 11.526 23.7979 14.7932C23.8924 15.3661 23.9238 16.493 23.8546 17.0784L23.8105 17.3995L23.3006 17.4435C22.4633 17.5128 21.6261 17.7079 20.5748 18.0793C17.1628 19.2817 16.9613 19.3384 15.8408 19.2817C14.9909 19.244 14.5062 19.1243 13.159 18.627C10.8235 17.7646 9.98625 17.538 8.872 17.4435L8.36209 17.3995L8.31802 17.0784C8.24877 16.493 8.28025 15.3661 8.37468 14.7932C8.93495 11.5449 11.4845 8.97018 14.7391 8.38473C15.4127 8.26512 16.6969 8.25883 17.3831 8.37844Z" fill="#D7D7D7"/>
  <path d="M2.51384 7.70487C2.14243 7.93779 2.03541 8.14553 2.06059 8.55472C2.07947 8.8443 2.12354 8.95132 2.26833 9.1024C2.46978 9.31015 4.18837 10.3174 4.45906 10.3866C5.08858 10.5377 5.7181 9.83265 5.51666 9.20942C5.41593 8.90096 5.20819 8.74358 4.20096 8.15812C3.18114 7.56637 2.86638 7.48454 2.51384 7.70487Z" fill="#D7D7D7"/>
  <path d="M28.8782 7.65449C28.5949 7.7741 27.0652 8.6806 26.9015 8.83798C26.5364 9.17163 26.5238 9.69413 26.8574 10.0781C27.0714 10.3237 27.4366 10.4496 27.7136 10.3866C27.9843 10.3174 29.7028 9.31013 29.9106 9.09609C30.0743 8.92612 30.0931 8.86317 30.0931 8.50434C30.0931 8.1644 30.068 8.08256 29.9358 7.93777C29.6336 7.61672 29.2433 7.5097 28.8782 7.65449Z" fill="#D7D7D7"/>
  <path d="M0.637881 15.2088C-0.0294107 15.4165 -0.218267 16.3041 0.316826 16.77C0.593815 17.0155 0.826737 17.0532 2.12984 17.0218C3.26298 17.0029 3.34482 16.9777 3.64699 16.5748C3.81696 16.3419 3.81696 15.8383 3.64699 15.6054C3.33852 15.1962 3.28187 15.1773 1.99765 15.1647C1.34924 15.1584 0.738604 15.1773 0.637881 15.2088Z" fill="#D7D7D7"/>
  <path d="M29.0292 15.2088C28.3619 15.4165 28.1731 16.3041 28.7082 16.77C28.9852 17.0155 29.2181 17.0532 30.5212 17.0218C31.6543 17.0029 31.7362 16.9777 32.0383 16.5748C32.2083 16.3419 32.2083 15.8383 32.0383 15.6054C31.7299 15.1962 31.6732 15.1773 30.389 15.1647C29.7406 15.1584 29.13 15.1773 29.0292 15.2088Z" fill="#D7D7D7"/>
  <path d="M10.4206 22.9267C9.47633 23.0085 8.67054 23.2226 6.8953 23.8458C6.05174 24.1416 5.61737 24.3305 5.49776 24.4438C5.12005 24.8026 5.13893 25.4196 5.53553 25.7721C5.90065 26.0869 6.07692 26.0806 7.12822 25.7155C9.43226 24.916 9.99254 24.7775 10.9683 24.7775C11.6859 24.7775 12.007 24.853 13.3101 25.3377C14.6825 25.8539 15.2742 25.9924 16.0863 25.9924C16.8984 25.9924 17.4649 25.8602 18.8625 25.3377C20.3293 24.7964 20.5118 24.7586 21.4057 24.7964C22.2997 24.8341 23.0929 25.023 24.6163 25.5644C25.1703 25.7595 25.718 25.9421 25.8313 25.9736C26.486 26.1372 27.0966 25.514 26.9203 24.853C26.8133 24.4627 26.5741 24.299 25.6172 23.9465C23.6657 23.2351 22.35 22.933 21.1539 22.933C20.2285 22.9267 19.7438 23.04 18.2959 23.5814C17.0746 24.0346 16.6403 24.1479 16.0863 24.1479C15.5323 24.1479 15.1042 24.0346 13.8893 23.5814C13.3227 23.3736 12.6302 23.1407 12.3469 23.0778C11.8307 22.9519 10.9368 22.8826 10.4206 22.9267Z" fill="#D7D7D7"/>
</svg>