<svg xmlns="http://www.w3.org/2000/svg" width="30" height="30" viewBox="0 0 30 30" fill="none">
  <path d="M9.71818 1.16582L9.89792 0.992061C9.92775 1.02292 9.9496 1.06088 9.95884 1.07692L9.95902 1.07723C9.97277 1.10112 9.98791 1.12987 10.0038 1.16147C10.0359 1.2251 10.076 1.31015 10.1225 1.41202C10.2158 1.6163 10.3383 1.89642 10.4793 2.22589C10.7614 2.88529 11.12 3.74777 11.4716 4.60866C11.8232 5.46955 12.1682 6.3301 12.4232 6.98566C12.5506 7.31318 12.6562 7.59101 12.7289 7.79262C12.7651 7.89301 12.7942 7.9771 12.8138 8.03995C12.8235 8.07089 12.8322 8.10057 12.8382 8.12619C12.8412 8.13869 12.8447 8.1547 12.847 8.17176C12.847 8.17203 12.8471 8.17236 12.8471 8.17276C12.8484 8.18215 12.8546 8.2258 12.8426 8.27565L12.8427 8.27567L12.8411 8.28172C12.7666 8.56083 12.551 8.76076 12.2714 8.83122C12.1761 8.85627 12.0099 8.89695 11.8359 8.78068C11.6997 8.68961 11.5895 8.51919 11.4702 8.29143C11.2218 7.81691 10.8318 6.87728 10.0884 5.0787C9.69766 4.14226 9.34404 3.27685 9.08794 2.63659C8.95993 2.31656 8.85595 2.05196 8.78378 1.86256C8.74779 1.7681 8.71915 1.69084 8.69925 1.6342C8.68941 1.60616 8.68091 1.58092 8.67459 1.56018C8.67149 1.55001 8.6681 1.53827 8.66525 1.52646L8.66507 1.5257C8.66351 1.51936 8.65645 1.49062 8.65645 1.45705C8.65645 1.18734 8.84148 0.969003 9.06125 0.843417L9.06122 0.843361L9.06622 0.840655C9.20455 0.765724 9.36588 0.757763 9.50316 0.783911C9.64269 0.81049 9.78875 0.877924 9.89884 0.993011L9.71818 1.16582ZM9.71818 1.16582C9.58185 1.0233 9.334 0.979925 9.18529 1.06048L10.3192 4.98279C11.8126 8.59529 11.8559 8.68204 12.2091 8.58909C12.4074 8.53952 12.5499 8.4032 12.5995 8.21731C12.6367 8.0624 9.89787 1.35171 9.71818 1.16582Z" fill="#D7D7D7" stroke="#D7D7D7" stroke-width="0.5"/>
  <path d="M20.9133 0.863781C21.0251 0.921778 21.129 0.998145 21.2017 1.11067C21.276 1.22569 21.3014 1.35278 21.3014 1.48184C21.3014 1.519 21.2924 1.55125 21.2915 1.55429L21.2915 1.5545C21.2886 1.56545 21.2853 1.57642 21.2822 1.58588C21.276 1.60529 21.2677 1.62937 21.2579 1.65649C21.2382 1.71129 21.2097 1.78692 21.1738 1.88008C21.1019 2.06682 20.9982 2.32923 20.8706 2.64758C20.6153 3.28454 20.2633 4.14828 19.8758 5.0846L19.8756 5.08498C19.1289 6.88072 18.7373 7.81889 18.4881 8.29265C18.3685 8.52006 18.258 8.69015 18.1217 8.78098C17.9473 8.89721 17.7808 8.85606 17.6856 8.83101C17.4176 8.76165 17.1934 8.56568 17.1173 8.28999L17.1149 8.28134L17.1132 8.27254C17.1024 8.21842 17.1108 8.16884 17.1134 8.15346C17.1135 8.15308 17.1135 8.15273 17.1136 8.15239C17.1178 8.12762 17.1241 8.10134 17.1309 8.07583C17.1447 8.02416 17.1656 7.95816 17.1922 7.87986C17.2459 7.72234 17.3281 7.50038 17.4388 7.21395C17.6607 6.64032 18.0008 5.79856 18.4658 4.67642L18.4658 4.6763C19.2213 2.85569 19.8728 1.29215 19.9107 1.20366L19.9151 1.19342L19.9204 1.18362C19.956 1.11752 20.0075 1.05239 20.0604 0.998448C20.1127 0.945211 20.1812 0.887639 20.258 0.849267C20.2624 0.847032 20.267 0.844737 20.2717 0.842396C20.3529 0.801538 20.462 0.746721 20.5858 0.750163C20.7058 0.753494 20.8142 0.81115 20.9004 0.856964C20.9048 0.859269 20.9091 0.861545 20.9133 0.863781ZM20.9133 0.863781C20.9129 0.863591 20.9125 0.863402 20.9122 0.863212L20.7973 1.08527M20.9133 0.863781C20.9136 0.863961 20.914 0.864141 20.9143 0.86432L20.7973 1.08527M20.7973 1.08527C20.5866 0.973732 20.5681 0.973732 20.3698 1.07287L17.3583 8.22351C17.4079 8.4032 17.5566 8.53952 17.7487 8.58909C18.1019 8.68204 18.1453 8.59529 19.6448 4.98899C20.4193 3.11768 21.0514 1.5376 21.0514 1.48184C21.0514 1.28975 20.977 1.17821 20.7973 1.08527Z" fill="#D7D7D7" stroke="#D7D7D7" stroke-width="0.5"/>
  <path d="M14.4861 1.61489L14.4861 1.61487L14.4886 1.61241C14.6113 1.4931 14.7615 1.38162 14.95 1.37089C15.1431 1.3599 15.3023 1.45806 15.4332 1.5712C15.4334 1.57133 15.4335 1.57146 15.4337 1.57159L15.6063 1.71958L15.6936 1.79441V1.9094V4.82789V7.7402V7.84375L15.6204 7.91697L15.4854 8.05203C15.1861 8.35917 14.7127 8.33121 14.4359 8.00823L14.4359 8.00823L14.4354 8.00765L14.2929 7.84035L14.2332 7.77028V7.67823V4.82789V1.97136V1.86781L14.3064 1.79458L14.4861 1.61489Z" fill="#D7D7D7" stroke="#D7D7D7" stroke-width="0.5"/>
  <path d="M21.6611 7.30984L21.6612 7.30967C22.5616 6.40617 23.0956 5.87827 23.4243 5.57634C23.5876 5.42636 23.7085 5.32428 23.8032 5.2589C23.8931 5.19675 23.9948 5.14176 24.1124 5.14176C24.4919 5.14176 24.8333 5.46421 24.8333 5.85029C24.8333 5.96263 24.7902 6.0604 24.7253 6.15874C24.6621 6.25449 24.5626 6.37395 24.4153 6.53491C24.1185 6.85925 23.5902 7.39218 22.6654 8.31383L22.6652 8.31401C22.0882 8.88797 21.5524 9.41133 21.1534 9.79169C20.9541 9.98163 20.7876 10.1372 20.6667 10.2458C20.6066 10.2998 20.5553 10.3444 20.5158 10.3764C20.4966 10.392 20.4763 10.4078 20.4571 10.4208C20.4479 10.4271 20.434 10.4361 20.4176 10.4446C20.4175 10.4446 20.4172 10.4448 20.4169 10.4449C20.4093 10.449 20.3603 10.4749 20.2954 10.4749C19.8723 10.4749 19.5001 10.1028 19.5001 9.67966C19.5001 9.61475 19.5261 9.56575 19.5301 9.55819C19.5303 9.55786 19.5304 9.55761 19.5305 9.55744C19.5389 9.54104 19.548 9.52716 19.5542 9.51797C19.5673 9.49879 19.583 9.47845 19.5986 9.45923C19.6306 9.41974 19.6753 9.36847 19.7292 9.30839C19.8379 9.18744 19.9934 9.02096 20.1834 8.82169C20.5637 8.42267 21.0871 7.8869 21.6611 7.30984Z" fill="#D7D7D7" stroke="#D7D7D7" stroke-width="0.5"/>
  <path d="M7.32357 8.345L7.32338 8.34481C6.38955 7.41408 5.86854 6.88853 5.58152 6.57313C5.43926 6.4168 5.34409 6.30099 5.2844 6.20656C5.21967 6.10417 5.18646 6.011 5.18646 5.90606C5.18646 5.72742 5.25477 5.52972 5.38361 5.40088C5.51246 5.27203 5.71016 5.20373 5.8888 5.20373C5.99374 5.20373 6.0869 5.23693 6.18929 5.30166C6.28373 5.36135 6.39954 5.45652 6.55587 5.59878C6.87127 5.8858 7.39682 6.40681 8.32755 7.34064L8.32774 7.34083C8.89241 7.9086 9.40805 8.43665 9.783 8.83028C9.97025 9.02684 10.1237 9.19122 10.2309 9.31075C10.2842 9.37011 10.3283 9.42087 10.3599 9.46004C10.3754 9.47911 10.391 9.49936 10.404 9.51852C10.4102 9.52772 10.4192 9.54161 10.4276 9.55806C10.4277 9.55825 10.4279 9.55851 10.428 9.55884C10.4321 9.56666 10.4577 9.61527 10.4577 9.67966C10.4577 10.1028 10.0855 10.4749 9.6624 10.4749C9.598 10.4749 9.5494 10.4494 9.54158 10.4453C9.54124 10.4451 9.54098 10.445 9.5408 10.4449C9.52435 10.4365 9.51046 10.4275 9.50126 10.4213C9.4821 10.4083 9.46185 10.3926 9.44278 10.3772C9.40361 10.3455 9.35285 10.3014 9.29349 10.2482C9.17395 10.1409 9.00958 9.98751 8.81301 9.80027C8.41939 9.42531 7.89134 8.90967 7.32357 8.345Z" fill="#D7D7D7" stroke="#D7D7D7" stroke-width="0.5"/>
  <path d="M0.805358 9.13339L0.805272 9.13336L0.808004 9.12711C0.83774 9.05915 0.878366 8.99046 0.92098 8.93263C0.957569 8.88297 1.01801 8.81007 1.09533 8.76712C1.14366 8.74027 1.20085 8.71828 1.25434 8.70285C1.3066 8.68778 1.37339 8.6737 1.43981 8.6737C1.47231 8.6737 1.49997 8.68019 1.50711 8.68187L1.50785 8.68204C1.52004 8.68488 1.53211 8.68828 1.54261 8.69141C1.56396 8.69778 1.58972 8.70633 1.61815 8.7162C1.67559 8.73614 1.75349 8.76482 1.84838 8.80077C2.03867 8.87288 2.30374 8.9767 2.62375 9.10432C3.26411 9.35968 4.12808 9.71179 5.06144 10.0994C6.86026 10.8461 7.79996 11.2377 8.27448 11.4869C8.50225 11.6065 8.67255 11.7169 8.76352 11.8532C8.87967 12.0272 8.83904 12.1933 8.81398 12.2886C8.74351 12.5683 8.54359 12.7839 8.26448 12.8583L8.25685 12.8603L8.2491 12.8619C8.19487 12.8727 8.14528 12.8643 8.12985 12.8616L8.12883 12.8614C8.10406 12.8572 8.07783 12.8509 8.05246 12.8441C8.00107 12.8302 7.93549 12.8093 7.85776 12.7826C7.70135 12.729 7.48078 12.6468 7.19561 12.5361C6.6245 12.3143 5.78443 11.9743 4.6594 11.5094L4.65906 11.5092C2.83845 10.7537 1.27491 10.1023 1.18642 10.0644L1.18631 10.0646L1.17553 10.0594C0.8379 9.89512 0.658971 9.49448 0.805358 9.13339Z" fill="#D7D7D7" stroke="#D7D7D7" stroke-width="0.5"/>
  <path d="M21.2014 12.4591L21.2014 12.4591C21.2855 12.6461 21.4347 12.7804 21.6289 12.835C21.8149 12.8872 22.0165 12.8597 22.2087 12.7812C22.3828 12.7152 23.9208 12.085 25.6391 11.3731C26.7177 10.9299 27.5208 10.5913 28.0673 10.3507C28.3402 10.2306 28.5514 10.1339 28.7017 10.0604C28.7766 10.0237 28.839 9.99152 28.8875 9.96412C28.9267 9.94198 28.9833 9.90877 29.0232 9.86883L29.0289 9.86313L29.0342 9.85708C29.1545 9.72026 29.2319 9.55416 29.2264 9.37095C29.221 9.18828 29.1344 9.02866 29.0049 8.90209C28.8969 8.79086 28.7659 8.71342 28.6077 8.69027C28.454 8.66779 28.3011 8.70046 28.1538 8.75924C28.1534 8.75941 28.1529 8.75957 28.1525 8.75974L28.2454 8.99186L21.2014 12.4591ZM21.2014 12.4591L21.201 12.4583M21.2014 12.4591L21.201 12.4583M21.201 12.4583C21.1987 12.4532 21.1963 12.4477 21.1937 12.442C21.1501 12.3455 21.0717 12.1721 21.1358 11.9843C21.1998 11.7972 21.3785 11.6655 21.5932 11.5424C22.045 11.2834 22.9776 10.8971 24.7728 10.155L21.201 12.4583Z" fill="#D7D7D7" stroke="#D7D7D7" stroke-width="0.5"/>
  <path d="M9.95993 13.7235L9.96 13.7232C10.5187 11.6379 12.1479 10.185 14.2901 9.86015C14.7366 9.78977 15.2821 9.81292 15.809 9.90007C16.3367 9.98736 16.8657 10.1422 17.278 10.3483L17.2789 10.3488C18.645 11.0383 19.602 12.2309 19.998 13.7238L19.998 13.724C20.2077 14.5168 20.1953 15.6169 19.965 16.3872C19.681 17.3424 19.2194 18.1129 18.5525 18.7407C17.8958 19.3648 17.2719 19.7117 16.3706 19.9821L16.3704 19.9821C15.6 20.2126 14.4996 20.225 13.7067 20.0153L13.706 20.0151C11.8616 19.5215 10.5378 18.2297 9.99273 16.3869L9.99263 16.3865C9.76276 15.605 9.74988 14.5111 9.95993 13.7235ZM15.8517 11.3731L15.8513 11.373C15.6262 11.3202 15.2988 11.2913 14.9611 11.2913C14.6233 11.2913 14.2979 11.3202 14.0764 11.3728C13.4341 11.5278 12.9164 11.8295 12.3682 12.3836L12.3673 12.3846C11.5943 13.1576 11.2632 13.9375 11.2632 14.9962C11.2632 16.0549 11.5943 16.8348 12.3673 17.6078C13.1403 18.3808 13.9202 18.7119 14.9789 18.7119C16.0376 18.7119 16.8175 18.3808 17.5905 17.6078C18.3635 16.8348 18.6946 16.0549 18.6946 14.9962C18.6946 13.9375 18.3635 13.1576 17.5905 12.3846C17.03 11.824 16.5187 11.5284 15.8517 11.3731Z" fill="#D7D7D7" stroke="#D7D7D7" stroke-width="0.5"/>
  <path d="M1.59515 14.5059L1.59513 14.5059L1.59762 14.5034L1.77732 14.3237L1.85054 14.2505H1.95409H4.81063H7.66097H7.75301L7.82308 14.3101L7.99039 14.4527L7.99097 14.4532C8.31394 14.73 8.34191 15.2034 8.03477 15.5026L7.89971 15.6377L7.82649 15.7109H7.72293H4.81063H1.89213H1.77715L1.70232 15.6236L1.55395 15.4505C1.4408 15.3196 1.34264 15.1603 1.35363 14.9672C1.36435 14.7788 1.47584 14.6286 1.59515 14.5059Z" fill="#D7D7D7" stroke="#D7D7D7" stroke-width="0.5"/>
  <path d="M21.9193 14.5059L21.9193 14.5059L21.9218 14.5034L22.1015 14.3237L22.1747 14.2505H22.2783H25.1348H27.9851H28.0772L28.1472 14.3101L28.3145 14.4527L28.3151 14.4532C28.6381 14.73 28.6661 15.2034 28.3589 15.5026L28.2239 15.6377L28.1506 15.7109H28.0471H25.1348H22.2163H22.1013L22.0265 15.6236L21.8781 15.4505C21.765 15.3196 21.6668 15.1603 21.6778 14.9672C21.6885 14.7788 21.8 14.6286 21.9193 14.5059Z" fill="#D7D7D7" stroke="#D7D7D7" stroke-width="0.5"/>
  <path d="M4.52925 18.5325L4.52886 18.5327C3.59567 18.9202 2.7382 19.2815 2.10678 19.5514C1.79117 19.6864 1.53146 19.7987 1.34679 19.8802C1.25462 19.9209 1.18012 19.9544 1.12635 19.9793C1.09965 19.9917 1.07658 20.0027 1.05843 20.0117C1.05797 20.012 1.05739 20.0122 1.0567 20.0126C1.04682 20.0175 1.01448 20.0335 0.988889 20.0534L0.981841 20.0588L0.981943 20.059C0.726129 20.273 0.708335 20.6022 0.803358 20.8458C0.898765 21.0903 1.13342 21.3186 1.46459 21.3186C1.50148 21.3186 1.53346 21.3098 1.53669 21.3089C1.53682 21.3088 1.53691 21.3088 1.53694 21.3088C1.54788 21.306 1.55882 21.3026 1.56825 21.2996C1.58759 21.2935 1.61154 21.2852 1.63848 21.2755C1.69294 21.256 1.76803 21.2277 1.86047 21.1922C2.04579 21.1209 2.30609 21.0182 2.62176 20.8917C3.25333 20.6388 4.10936 20.2899 5.03643 19.9054M4.52925 18.5325L4.94076 19.6744M4.52925 18.5325C5.45876 18.1483 6.31276 17.7965 6.93994 17.5407C7.25342 17.4128 7.51087 17.3086 7.69295 17.2364C7.7838 17.2003 7.85701 17.1717 7.90942 17.152C7.93536 17.1422 7.95803 17.1339 7.97593 17.1278C7.9846 17.1248 7.99469 17.1215 8.00464 17.1186C8.00948 17.1172 8.01692 17.1152 8.02561 17.1133L8.0261 17.1131C8.03027 17.1122 8.04706 17.1085 8.06919 17.1073M4.52925 18.5325L8.08233 17.357M5.03643 19.9054C5.03647 19.9054 5.0365 19.9054 5.03653 19.9054L4.94076 19.6744M5.03643 19.9054C5.0364 19.9054 5.03637 19.9054 5.03634 19.9054L4.94076 19.6744M5.03643 19.9054C6.70245 19.2161 7.62582 18.8282 8.1314 18.5797C8.38043 18.4574 8.55167 18.3579 8.66114 18.2606C8.71897 18.2092 8.76869 18.1507 8.80224 18.0802C8.83703 18.0072 8.84663 17.9377 8.84663 17.8775C8.84663 17.6646 8.73462 17.4716 8.60524 17.3412C8.47778 17.2128 8.28402 17.096 8.06919 17.1073L8.06919 17.1073M4.94076 19.6744C8.28061 18.2926 8.59663 18.1377 8.59663 17.8775C8.59663 17.6234 8.31779 17.3446 8.08233 17.357M8.06919 17.1073C8.07339 17.1071 8.07779 17.107 8.08233 17.107V17.357M8.06919 17.1073L8.08233 17.357" fill="#D7D7D7" stroke="#D7D7D7" stroke-width="0.5"/>
  <path d="M21.4068 17.3055L21.4067 17.3053L21.4157 17.2981C21.4721 17.253 21.5362 17.2094 21.5965 17.1758C21.6266 17.159 21.6597 17.1425 21.6932 17.1295C21.7208 17.1188 21.7725 17.1008 21.8321 17.1008C21.8584 17.1008 21.8794 17.1051 21.885 17.1062L21.8853 17.1062C21.8941 17.108 21.9017 17.11 21.9069 17.1114C21.9173 17.1143 21.9279 17.1176 21.9369 17.1206C21.9556 17.1267 21.979 17.135 22.0055 17.1447C22.0591 17.1644 22.1335 17.1928 22.2255 17.2286C22.41 17.3004 22.6699 17.4038 22.9858 17.5309C23.6179 17.7853 24.4768 18.1357 25.4097 18.52L25.4101 18.5202C26.563 18.9975 27.4233 19.3608 28.0084 19.6183C28.3006 19.747 28.5265 19.8502 28.6868 19.9287C28.7666 19.9677 28.8331 20.002 28.8844 20.0312C28.9248 20.0542 28.9864 20.0904 29.0285 20.1351L29.0285 20.1351L29.0317 20.1386C29.154 20.2736 29.2324 20.4398 29.2256 20.6255C29.2188 20.81 29.1293 20.972 28.9984 21.1029C28.9278 21.1735 28.8459 21.2427 28.7388 21.28C28.6285 21.3183 28.5233 21.312 28.429 21.2969L28.4274 21.2966C28.3825 21.2892 28.3166 21.2666 28.2597 21.2465C28.1926 21.2228 28.105 21.1902 28.0008 21.1503C27.792 21.0703 27.5112 20.9591 27.1835 20.8272C26.5277 20.5632 25.6805 20.2149 24.8388 19.8642C23.9971 19.5134 23.16 19.16 22.5243 18.886C22.2067 18.749 21.9384 18.6314 21.7446 18.5437C21.648 18.5 21.5682 18.463 21.5096 18.4343C21.4806 18.4201 21.4544 18.4068 21.4332 18.3951C21.4327 18.3949 21.4321 18.3945 21.4313 18.3941C21.4191 18.3875 21.3803 18.3664 21.3497 18.3372L21.3497 18.3372L21.3487 18.3362C21.0456 18.0436 21.1126 17.5641 21.4068 17.3055Z" fill="#D7D7D7" stroke="#D7D7D7" stroke-width="0.5"/>
  <path d="M5.12451 24.0925C5.12451 24.0372 5.14104 23.9928 5.15072 23.9698C5.16197 23.9431 5.17578 23.9186 5.18875 23.8977C5.21475 23.8557 5.24965 23.8089 5.29018 23.7586C5.37204 23.6571 5.49438 23.5202 5.66082 23.3428C5.99468 22.987 6.52084 22.4532 7.29207 21.685C7.86629 21.1077 8.40217 20.5827 8.80211 20.2014C9.0019 20.011 9.16903 19.8552 9.29056 19.7463C9.35093 19.6923 9.40244 19.6476 9.44212 19.6156C9.46144 19.6 9.48182 19.5842 9.50103 19.5712C9.51024 19.565 9.5241 19.556 9.54046 19.5476C9.54063 19.5475 9.54087 19.5474 9.5412 19.5472C9.54869 19.5433 9.59763 19.5174 9.66241 19.5174C9.90508 19.5174 10.12 19.6452 10.2579 19.8042C10.3933 19.9603 10.4958 20.1974 10.4222 20.4408L10.1829 20.3684L10.4224 20.4403C10.4114 20.477 10.3937 20.5044 10.3894 20.5112L10.389 20.5118C10.3816 20.5233 10.374 20.5337 10.3678 20.5418C10.3552 20.5584 10.3399 20.5769 10.3237 20.5958C10.2907 20.6343 10.2453 20.6847 10.1899 20.7446C10.0788 20.8649 9.92164 21.0301 9.73063 21.2277C9.34828 21.6232 8.82674 22.1525 8.25911 22.7201C7.50614 23.4731 6.97826 23.9902 6.62462 24.3196C6.44836 24.4837 6.31154 24.6049 6.20989 24.6862C6.15956 24.7264 6.11266 24.761 6.0707 24.7869C6.04977 24.7997 6.02525 24.8134 5.99867 24.8246C5.97588 24.8341 5.93154 24.8506 5.87642 24.8506C5.76526 24.8506 5.66486 24.8042 5.59406 24.762C5.51739 24.7162 5.44402 24.6562 5.38064 24.5923C5.31725 24.5285 5.2575 24.4544 5.21196 24.3767C5.16955 24.3043 5.12451 24.2036 5.12451 24.0925Z" fill="#D7D7D7" stroke="#D7D7D7" stroke-width="0.5"/>
  <path d="M21.6611 22.6825L21.6612 22.6827C22.5829 23.6074 23.1158 24.1358 23.4402 24.4326C23.6011 24.5799 23.7206 24.6794 23.8163 24.7425C23.9147 24.8074 24.0124 24.8506 24.1248 24.8506C24.5109 24.8506 24.8333 24.5091 24.8333 24.1296C24.8333 24.0121 24.7783 23.9103 24.7162 23.8204C24.6508 23.7258 24.5487 23.6048 24.3987 23.4416C24.0968 23.1129 23.569 22.5789 22.6655 21.6786C21.9773 20.9904 21.4424 20.4663 21.0686 20.1144C20.8821 19.9388 20.7332 19.8036 20.6241 19.7117C20.5702 19.6663 20.5218 19.6277 20.4812 19.5995C20.4614 19.5857 20.4378 19.5705 20.4128 19.5578C20.4002 19.5515 20.3826 19.5433 20.3615 19.5367C20.3451 19.5315 20.313 19.5227 20.2722 19.5236M21.6611 22.6825L20.2768 19.7736M21.6611 22.6825C21.0871 22.1054 20.5637 21.5697 20.1834 21.1706C19.9934 20.9714 19.8379 20.8049 19.7292 20.6839C19.6753 20.6239 19.6306 20.5726 19.5986 20.5331C19.583 20.5139 19.5673 20.4935 19.5542 20.4744C19.548 20.4652 19.5389 20.4513 19.5305 20.4349C19.5304 20.4347 19.5303 20.4345 19.5301 20.4341C19.5261 20.4266 19.5001 20.3776 19.5001 20.3127C19.5001 20.1679 19.5505 20.0242 19.6168 19.9099C19.6806 19.7998 19.7791 19.6833 19.9088 19.6192M21.6611 22.6825L20.0228 19.8417M20.2722 19.5236C20.2675 19.5237 20.2626 19.5239 20.2576 19.5243L20.2768 19.7736M20.2722 19.5236C20.2738 19.5236 20.2753 19.5236 20.2768 19.5236V19.7736M20.2722 19.5236C20.209 19.5242 20.141 19.5373 20.0854 19.5522C20.0291 19.5672 19.9648 19.5895 19.9088 19.6192M20.2768 19.7736C20.2087 19.7736 20.0909 19.8046 20.0228 19.8417M19.9088 19.6192C19.9108 19.6182 19.9129 19.6172 19.9149 19.6162L20.0228 19.8417M19.9088 19.6192C19.9069 19.6202 19.905 19.6212 19.9031 19.6223L20.0228 19.8417" fill="#D7D7D7" stroke="#D7D7D7" stroke-width="0.5"/>
  <path d="M11.5794 21.4154L11.5792 21.4152L11.5856 21.4078C11.6237 21.3633 11.6742 21.3226 11.7209 21.2912C11.7656 21.261 11.822 21.2291 11.8827 21.2073C11.9493 21.1794 12.0208 21.1672 12.0804 21.1631C12.1426 21.1588 12.2151 21.1617 12.2826 21.1794C12.3658 21.1996 12.4402 21.2426 12.4976 21.2836C12.5592 21.3275 12.6175 21.3808 12.668 21.4361C12.7182 21.4912 12.7656 21.5536 12.8019 21.6181C12.8345 21.6762 12.8743 21.7637 12.8743 21.8618V21.8756L12.8728 21.8894C12.8698 21.9159 12.8626 21.9392 12.8613 21.9432L12.8612 21.9436C12.8585 21.9528 12.8553 21.9623 12.8522 21.9713C12.8459 21.9894 12.8375 22.0126 12.8274 22.0394C12.8072 22.0935 12.7781 22.1686 12.7416 22.2616C12.6683 22.448 12.5634 22.7103 12.4347 23.0289C12.1773 23.6663 11.8239 24.5313 11.4364 25.4705L11.4362 25.471C10.6894 27.27 10.2979 28.2065 10.0494 28.6788C9.93011 28.9055 9.82042 29.0743 9.68557 29.1649C9.51256 29.281 9.34735 29.2409 9.25478 29.2178L9.25477 29.2178L9.25315 29.2173C9.09566 29.1768 8.95357 29.0873 8.84929 28.9788C8.74874 28.8741 8.65645 28.7223 8.65645 28.5477C8.65645 28.5138 8.6636 28.4847 8.66527 28.4779C8.66535 28.4776 8.66541 28.4773 8.66547 28.4771C8.66844 28.4648 8.672 28.4526 8.67531 28.4418C8.68204 28.4198 8.69112 28.393 8.70165 28.3632C8.72291 28.303 8.75344 28.2211 8.79141 28.1219C8.86754 27.923 8.97601 27.6479 9.10604 27.3228C9.36622 26.6723 9.71414 25.8179 10.0656 24.964C10.417 24.11 10.7723 23.2556 11.0472 22.6052C11.1845 22.2801 11.3022 22.0052 11.3894 21.8065C11.4329 21.7073 11.4693 21.6259 11.4971 21.5662C11.511 21.5365 11.5234 21.5105 11.534 21.4898L11.5348 21.4881C11.5414 21.4752 11.5582 21.442 11.5794 21.4154Z" fill="#D7D7D7" stroke="#D7D7D7" stroke-width="0.5"/>
  <path d="M17.3551 21.3876L17.3549 21.3874L17.362 21.3809C17.6195 21.1424 18.0223 21.1284 18.2888 21.3554L18.2888 21.3554L18.2907 21.3571C18.318 21.3808 18.3356 21.4065 18.3411 21.4144L18.3413 21.4146C18.3497 21.427 18.3574 21.4396 18.3638 21.4506C18.3767 21.4728 18.3911 21.5 18.406 21.5295C18.4363 21.5893 18.475 21.6707 18.5203 21.7689C18.6112 21.966 18.7324 22.2394 18.8731 22.563C19.1546 23.2105 19.5162 24.0637 19.8732 24.9195C20.2302 25.7753 20.5829 26.6347 20.8466 27.2946C20.9783 27.6244 21.0884 27.9056 21.1657 28.112C21.2042 28.215 21.2354 28.3013 21.2572 28.3667C21.268 28.3991 21.2775 28.429 21.2844 28.4544C21.2846 28.4549 21.2848 28.4555 21.2849 28.4561C21.2893 28.4718 21.3014 28.5156 21.3014 28.5601C21.3014 28.755 21.1755 28.9265 21.067 29.0303C20.9567 29.1359 20.7828 29.25 20.5928 29.25C20.4991 29.25 20.4058 29.2193 20.3333 29.1857C20.2584 29.1508 20.1792 29.1004 20.1146 29.0364C20.0829 29.0056 20.0607 28.9696 20.0516 28.9548L20.0512 28.9542C20.0364 28.9301 20.0204 28.9015 20.0041 28.8706C19.9711 28.8083 19.9304 28.7253 19.8837 28.6263C19.7899 28.4277 19.6675 28.1553 19.527 27.8346C19.2459 27.1927 18.8895 26.3513 18.5394 25.5073C18.1893 24.6633 17.845 23.8153 17.5879 23.1603C17.4595 22.8331 17.3523 22.5525 17.2769 22.3441C17.2393 22.2402 17.2088 22.1519 17.1874 22.0838C17.1768 22.05 17.1675 22.0185 17.1607 21.9911C17.1558 21.9716 17.1455 21.9295 17.1455 21.8865C17.1455 21.6976 17.2312 21.5114 17.3551 21.3876Z" fill="#D7D7D7" stroke="#D7D7D7" stroke-width="0.5"/>
  <path d="M14.4861 21.939L14.4861 21.939L14.4886 21.9366C14.6113 21.8173 14.7615 21.7058 14.95 21.695C15.1431 21.6841 15.3023 21.7822 15.4332 21.8954C15.4334 21.8955 15.4335 21.8956 15.4337 21.8957L15.6063 22.0437L15.6936 22.1186V22.2336V25.1521V28.0644V28.1679L15.6204 28.2411L15.4854 28.3762C15.1861 28.6833 14.7127 28.6554 14.4359 28.3324L14.4359 28.3324L14.4354 28.3318L14.2929 28.1645L14.2332 28.0944V28.0024V25.1521V22.2955V22.192L14.3064 22.1187L14.4861 21.939Z" fill="#D7D7D7" stroke="#D7D7D7" stroke-width="0.5"/>
</svg>