<svg xmlns="http://www.w3.org/2000/svg" width="24" height="24" viewBox="0 0 24 24" fill="none">
  <path d="M8.21648 0.206947C4.60429 1.44445 1.69448 4.44625 0.565671 8.1086C-0.36246 11.1188 -0.14506 14.1707 1.19279 17.0136C2.7982 20.4084 6.0592 22.9838 9.71319 23.7447C12.8822 24.3969 16.1934 23.7865 18.844 22.064C20.7671 20.8181 22.1635 19.2629 23.1753 17.2478C23.4261 16.7461 23.7271 16.027 23.8525 15.6423C24.1118 14.8062 24.0532 14.455 23.6017 14.0118C23.1836 13.6021 22.8659 13.5687 21.8541 13.8028C16.3773 15.1156 11.0009 11.5786 10.0477 6.02658C9.82189 4.72218 9.90551 3.23382 10.2901 1.77055C10.4741 1.06819 10.2985 0.516323 9.79681 0.206947C9.34528 -0.0689831 9.02754 -0.0689831 8.21648 0.206947ZM7.35524 4.94794C7.43049 7.00488 7.75659 8.27583 8.68472 10.0819C9.28675 11.2525 10.0058 12.2308 10.9841 13.1924C11.9708 14.1707 12.924 14.8396 14.2284 15.4751C15.9509 16.3113 17.5229 16.6792 19.3958 16.6875C19.9812 16.6875 20.4578 16.721 20.4578 16.7628C20.4578 16.9217 19.4293 18.1842 18.8607 18.7277C17.0463 20.4419 14.7301 21.3616 12.2133 21.3616C6.93716 21.3616 2.64769 17.0722 2.64769 11.8044C2.64769 9.25413 3.54238 6.98815 5.27322 5.15698C5.80835 4.58839 7.07931 3.55156 7.23818 3.55156C7.27998 3.55156 7.33015 4.17868 7.35524 4.94794Z" fill="white"/>
</svg>