<svg xmlns="http://www.w3.org/2000/svg" width="28" height="29" viewBox="0 0 28 29" fill="none">
  <path d="M13.3586 0.697608C13.0073 0.998717 13.0073 1.02381 13.0073 2.40389C13.0073 3.78397 13.0073 3.80907 13.3586 4.11018C13.5468 4.27328 13.8479 4.41129 14.011 4.41129C14.1741 4.41129 14.4752 4.27328 14.6634 4.11018C15.0147 3.80907 15.0147 3.78397 15.0147 2.40389C15.0147 1.02381 15.0147 0.998717 14.6634 0.697608C14.4752 0.534507 14.1741 0.396499 14.011 0.396499C13.8479 0.396499 13.5468 0.534507 13.3586 0.697608Z" fill="#D7D7D7"/>
  <path d="M21.8775 5.20165C20.8487 6.24298 20.6981 6.519 20.924 7.10867C21.0118 7.3345 21.614 7.67325 21.9277 7.67325C22.2037 7.67325 24.2236 5.69095 24.3114 5.33965C24.3993 5.01345 24.0731 4.3485 23.797 4.23559C23.2074 4.00976 22.9188 4.16031 21.8775 5.20165Z" fill="#D7D7D7"/>
  <path d="M4.23747 4.54931C3.98655 4.75005 3.91127 4.91315 3.91127 5.27699C3.91127 5.70356 4.01164 5.84157 4.91497 6.7198C5.84339 7.63567 5.9563 7.69841 6.33269 7.62313C6.84708 7.52276 7.17328 7.13383 7.17328 6.61943C7.17328 6.28068 7.01018 6.05485 6.18213 5.25189C5.10316 4.19801 4.8146 4.09764 4.23747 4.54931Z" fill="#D7D7D7"/>
  <path d="M12.5054 5.42756C10.6862 5.72866 9.11796 6.58181 7.67514 8.03717C5.99395 9.7309 5.20354 11.525 5.07808 13.8837C5.0028 15.2889 5.19099 16.4431 5.70539 17.6977L6.01904 18.4631H3.3467C0.837459 18.4631 0.661812 18.4756 0.348157 18.7265C-0.116052 19.0904 -0.116052 19.8431 0.348157 20.207C0.686905 20.4705 0.711997 20.4705 14.011 20.4705C27.31 20.4705 27.3351 20.4705 27.6738 20.207C27.9247 20.0062 28 19.8431 28 19.4668C28 19.0904 27.9247 18.9273 27.6738 18.7265C27.3601 18.4756 27.1845 18.4631 24.7254 18.4631H22.1158L22.3542 17.8985C23.4708 15.2889 23.2701 12.2151 21.8398 9.78109C19.9328 6.54417 16.2066 4.80024 12.5054 5.42756ZM15.5667 7.61059C16.8841 7.92425 17.9254 8.51392 18.904 9.49253C20.3468 10.9228 20.9741 12.4283 20.9741 14.4483C20.9616 15.7907 20.8236 16.4055 20.259 17.5472L19.8199 18.4631H14.011H8.20208L7.76297 17.5472C7.19839 16.4055 7.06038 15.7907 7.04783 14.4483C7.04783 12.466 7.67514 10.9353 9.05523 9.54271C9.50689 9.09105 10.1844 8.53901 10.5859 8.32573C12.0161 7.51023 13.9482 7.23421 15.5667 7.61059Z" fill="#D7D7D7"/>
  <path d="M0.348157 13.708C-0.116052 14.0719 -0.116052 14.8246 0.348157 15.1885C0.63672 15.4143 0.862552 15.4519 1.96662 15.4519C3.07068 15.4519 3.29652 15.4143 3.58508 15.1885C4.04929 14.8246 4.04929 14.0719 3.58508 13.708C3.29652 13.4822 3.07068 13.4445 1.96662 13.4445C0.862552 13.4445 0.63672 13.4822 0.348157 13.708Z" fill="#D7D7D7"/>
  <path d="M24.4369 13.708C24.1859 13.9088 24.1107 14.0719 24.1107 14.4482C24.1107 14.8246 24.1859 14.9877 24.4369 15.1885C24.7254 15.4143 24.9513 15.4519 26.0553 15.4519C27.1594 15.4519 27.3852 15.4143 27.6738 15.1885C27.9247 14.9877 28 14.8246 28 14.4482C28 14.0719 27.9247 13.9088 27.6738 13.708C27.3852 13.4822 27.1594 13.4445 26.0553 13.4445C24.9513 13.4445 24.7254 13.4822 24.4369 13.708Z" fill="#D7D7D7"/>
  <path d="M4.36291 22.7413C4.11199 22.942 4.03671 23.1051 4.03671 23.4815C4.03671 23.8579 4.11199 24.021 4.36291 24.2218C4.66402 24.4601 4.86476 24.4852 6.48322 24.4852C8.10168 24.4852 8.30242 24.4601 8.60353 24.2218C8.85446 24.021 8.92973 23.8579 8.92973 23.4815C8.92973 23.1051 8.85446 22.942 8.60353 22.7413C8.30242 22.5029 8.10168 22.4778 6.48322 22.4778C4.86476 22.4778 4.66402 22.5029 4.36291 22.7413Z" fill="#D7D7D7"/>
  <path d="M10.3851 22.7413C10.1342 22.942 10.0589 23.1051 10.0589 23.4815C10.0589 23.8579 10.1342 24.021 10.3851 24.2218C10.7113 24.4852 10.8368 24.4852 17.0221 24.4852C23.2073 24.4852 23.3328 24.4852 23.659 24.2218C24.1232 23.8579 24.1232 23.1051 23.659 22.7413C23.3328 22.4778 23.2073 22.4778 17.0221 22.4778C10.8368 22.4778 10.7113 22.4778 10.3851 22.7413Z" fill="#D7D7D7"/>
  <path d="M7.37402 26.7561C7.1231 26.9568 7.04782 27.1199 7.04782 27.4963C7.04782 27.8727 7.1231 28.0358 7.37402 28.2365C7.70022 28.4875 7.85078 28.5 11.5017 28.5C15.1527 28.5 15.3032 28.4875 15.6294 28.2365C15.8804 28.0358 15.9556 27.8727 15.9556 27.4963C15.9556 27.1199 15.8804 26.9568 15.6294 26.7561C15.3032 26.5052 15.1527 26.4926 11.5017 26.4926C7.85078 26.4926 7.70022 26.5052 7.37402 26.7561Z" fill="#D7D7D7"/>
  <path d="M17.411 26.7561C17.1601 26.9568 17.0848 27.1199 17.0848 27.4963C17.0848 27.8727 17.1601 28.0358 17.411 28.2365C17.6996 28.4624 17.9254 28.5 19.0295 28.5C20.1335 28.5 20.3594 28.4624 20.6479 28.2365C20.8988 28.0358 20.9741 27.8727 20.9741 27.4963C20.9741 27.1199 20.8988 26.9568 20.6479 26.7561C20.3594 26.5302 20.1335 26.4926 19.0295 26.4926C17.9254 26.4926 17.6996 26.5302 17.411 26.7561Z" fill="#D7D7D7"/>
</svg>