<svg xmlns="http://www.w3.org/2000/svg" width="28" height="29" viewBox="0 0 28 29" fill="none">
  <path d="M13.3586 0.697577C13.0073 0.998686 13.0073 1.02378 13.0073 2.40386C13.0073 3.78394 13.0073 3.80904 13.3586 4.11015C13.5468 4.27325 13.8479 4.41125 14.011 4.41125C14.1741 4.41125 14.4752 4.27325 14.6634 4.11015C15.0147 3.80904 15.0147 3.78394 15.0147 2.40386C15.0147 1.02378 15.0147 0.998686 14.6634 0.697577C14.4752 0.534476 14.1741 0.396468 14.011 0.396468C13.8479 0.396468 13.5468 0.534476 13.3586 0.697577Z" fill="#FB9F14"/>
  <path d="M21.8775 5.20168C20.8487 6.24301 20.6981 6.51903 20.924 7.1087C21.0118 7.33453 21.614 7.67328 21.9277 7.67328C22.2037 7.67328 24.2236 5.69098 24.3114 5.33968C24.3993 5.01348 24.0731 4.34853 23.797 4.23562C23.2074 4.00979 22.9188 4.16034 21.8775 5.20168Z" fill="#FB9F14"/>
  <path d="M4.23746 4.54928C3.98653 4.75002 3.91125 4.91312 3.91125 5.27696C3.91125 5.70353 4.01162 5.84154 4.91495 6.71977C5.84337 7.63564 5.95629 7.69838 6.33267 7.6231C6.84707 7.52273 7.17327 7.1338 7.17327 6.6194C7.17327 6.28065 7.01017 6.05482 6.18212 5.25186C5.10314 4.19798 4.81458 4.09761 4.23746 4.54928Z" fill="#FB9F14"/>
  <path d="M12.5054 5.42756C10.6862 5.72866 9.11796 6.58181 7.67514 8.03717C5.99395 9.7309 5.20354 11.525 5.07808 13.8837C5.0028 15.2889 5.19099 16.4431 5.70539 17.6977L6.01904 18.4631H3.3467C0.837459 18.4631 0.661812 18.4756 0.348157 18.7265C-0.116052 19.0904 -0.116052 19.8431 0.348157 20.207C0.686905 20.4705 0.711997 20.4705 14.011 20.4705C27.31 20.4705 27.3351 20.4705 27.6738 20.207C27.9247 20.0062 28 19.8431 28 19.4668C28 19.0904 27.9247 18.9273 27.6738 18.7265C27.3601 18.4756 27.1845 18.4631 24.7254 18.4631H22.1158L22.3542 17.8985C23.4708 15.2889 23.2701 12.2151 21.8398 9.78109C19.9328 6.54417 16.2066 4.80024 12.5054 5.42756ZM15.5667 7.61059C16.8841 7.92425 17.9254 8.51392 18.904 9.49253C20.3468 10.9228 20.9741 12.4283 20.9741 14.4483C20.9616 15.7907 20.8236 16.4055 20.259 17.5472L19.8199 18.4631H14.011H8.20208L7.76297 17.5472C7.19839 16.4055 7.06038 15.7907 7.04783 14.4483C7.04783 12.466 7.67514 10.9353 9.05523 9.54271C9.50689 9.09105 10.1844 8.53901 10.5859 8.32573C12.0161 7.51023 13.9482 7.23421 15.5667 7.61059Z" fill="#FB9F14"/>
  <path d="M0.348157 13.708C-0.116052 14.0718 -0.116052 14.8246 0.348157 15.1884C0.63672 15.4143 0.862552 15.4519 1.96662 15.4519C3.07068 15.4519 3.29652 15.4143 3.58508 15.1884C4.04929 14.8246 4.04929 14.0718 3.58508 13.708C3.29652 13.4821 3.07068 13.4445 1.96662 13.4445C0.862552 13.4445 0.63672 13.4821 0.348157 13.708Z" fill="#FB9F14"/>
  <path d="M24.4369 13.708C24.1859 13.9087 24.1107 14.0718 24.1107 14.4482C24.1107 14.8246 24.1859 14.9877 24.4369 15.1884C24.7254 15.4143 24.9513 15.4519 26.0553 15.4519C27.1594 15.4519 27.3852 15.4143 27.6738 15.1884C27.9247 14.9877 28 14.8246 28 14.4482C28 14.0718 27.9247 13.9087 27.6738 13.708C27.3852 13.4821 27.1594 13.4445 26.0553 13.4445C24.9513 13.4445 24.7254 13.4821 24.4369 13.708Z" fill="#FB9F14"/>
  <path d="M4.36294 22.7413C4.11202 22.942 4.03674 23.1051 4.03674 23.4815C4.03674 23.8579 4.11202 24.021 4.36294 24.2218C4.66405 24.4601 4.86479 24.4852 6.48325 24.4852C8.10171 24.4852 8.30245 24.4601 8.60356 24.2218C8.85449 24.021 8.92976 23.8579 8.92976 23.4815C8.92976 23.1051 8.85449 22.942 8.60356 22.7413C8.30245 22.5029 8.10171 22.4778 6.48325 22.4778C4.86479 22.4778 4.66405 22.5029 4.36294 22.7413Z" fill="#FB9F14"/>
  <path d="M10.3851 22.7413C10.1342 22.942 10.0589 23.1051 10.0589 23.4815C10.0589 23.8579 10.1342 24.021 10.3851 24.2218C10.7113 24.4852 10.8368 24.4852 17.022 24.4852C23.2073 24.4852 23.3328 24.4852 23.659 24.2218C24.1232 23.8579 24.1232 23.1051 23.659 22.7413C23.3328 22.4778 23.2073 22.4778 17.022 22.4778C10.8368 22.4778 10.7113 22.4778 10.3851 22.7413Z" fill="#FB9F14"/>
  <path d="M7.37399 26.7561C7.12307 26.9568 7.04779 27.1199 7.04779 27.4963C7.04779 27.8727 7.12307 28.0358 7.37399 28.2365C7.70019 28.4875 7.85075 28.5 11.5017 28.5C15.1526 28.5 15.3032 28.4875 15.6294 28.2365C15.8803 28.0358 15.9556 27.8727 15.9556 27.4963C15.9556 27.1199 15.8803 26.9568 15.6294 26.7561C15.3032 26.5052 15.1526 26.4926 11.5017 26.4926C7.85075 26.4926 7.70019 26.5052 7.37399 26.7561Z" fill="#FB9F14"/>
  <path d="M17.411 26.7561C17.1601 26.9568 17.0848 27.1199 17.0848 27.4963C17.0848 27.8727 17.1601 28.0358 17.411 28.2365C17.6995 28.4624 17.9254 28.5 19.0294 28.5C20.1335 28.5 20.3593 28.4624 20.6479 28.2365C20.8988 28.0358 20.9741 27.8727 20.9741 27.4963C20.9741 27.1199 20.8988 26.9568 20.6479 26.7561C20.3593 26.5302 20.1335 26.4926 19.0294 26.4926C17.9254 26.4926 17.6995 26.5302 17.411 26.7561Z" fill="#FB9F14"/>
</svg>