<svg xmlns="http://www.w3.org/2000/svg" width="40" height="27" viewBox="0 0 40 27" fill="none">
  <path d="M19.3633 0.132382C19.2893 0.188067 19.2338 0.819161 19.2338 1.50594C19.2338 2.731 19.2523 2.78669 19.7334 2.89806C20.085 2.99087 20.2886 2.93518 20.4737 2.69388C20.7512 2.28553 20.7883 0.874846 20.5292 0.355121C20.3441 0.0210125 19.6039 -0.12748 19.3633 0.132382Z" fill="white"/>
  <path d="M13.9596 1.30179C13.7931 1.82152 14.3668 3.49206 14.7924 3.7148C15.218 3.93754 15.6622 3.78904 15.8102 3.36213C15.9212 3.00946 15.4771 1.59878 15.144 1.17186C14.8109 0.800629 14.0892 0.874875 13.9596 1.30179Z" fill="white"/>
  <path d="M24.6561 1.15329C24.545 1.28322 24.3415 1.78438 24.1749 2.26699C23.8973 3.0837 23.9158 3.1765 24.2119 3.54774C24.471 3.88184 24.6005 3.91897 24.9151 3.73335C25.3778 3.49205 25.9515 2.09993 25.8589 1.46884C25.8034 0.949114 24.9707 0.744936 24.6561 1.15329Z" fill="white"/>
  <path d="M9.46271 3.75187C9.07409 4.14166 9.22213 4.71707 9.96237 5.53378C10.7396 6.38761 10.8506 6.42473 11.3688 6.07206C11.8129 5.71939 11.6464 5.10686 10.8321 4.21591C10.1474 3.492 9.83283 3.38063 9.46271 3.75187Z" fill="white"/>
  <path d="M28.8753 4.36445C28.4682 4.80993 28.1166 5.31109 28.1166 5.45958C28.1166 5.79369 28.6162 6.31342 28.9308 6.31342C29.1899 6.31342 29.9487 5.53383 30.4113 4.80993C30.6704 4.38301 30.6704 4.30876 30.4113 3.93753C30.0042 3.34356 29.7451 3.41781 28.8753 4.36445Z" fill="white"/>
  <path d="M18.1235 6.31337C17.1242 6.49899 15.7547 6.98158 15.4031 7.26001C15.07 7.55699 15.107 8.33658 15.4586 8.48507C15.6252 8.54076 16.3099 8.41083 16.9946 8.20665C19.4744 7.4085 21.4175 7.51987 23.6752 8.57788C26.4881 9.93288 28.4867 13.1626 28.4867 16.3366V17.0234L26.6917 17.5246C25.6923 17.803 23.7492 18.4898 22.3613 19.0466L19.863 20.0489L18.3825 19.3993C17.5868 19.0466 15.8473 18.4155 14.5148 17.9886C10.8507 16.8192 11.2023 17.0605 11.3503 15.7427C11.4059 15.1116 11.6464 14.035 11.8685 13.3482C12.2016 12.3088 12.2201 12.0489 12.0351 11.8076C11.739 11.4364 11.2023 11.4178 10.9247 11.7705C10.5361 12.2345 9.99942 14.0907 9.86988 15.4271L9.74034 16.745L9.16666 16.6336C6.90895 16.2067 1.50526 15.8169 0.691001 16.0211C0.135827 16.1696 -0.0862426 16.5965 0.172839 17.0605C0.320885 17.3389 0.728013 17.4132 2.98572 17.5246C9.48126 17.8401 13.0529 18.7311 20.2146 21.8865C25.0076 23.984 26.9692 24.7079 29.5601 25.3204C31.8548 25.8773 32.3174 25.8773 32.632 25.3761C32.9096 24.9306 32.5765 24.4666 31.8918 24.2995C31.5957 24.2439 30.7074 24.0397 29.9302 23.8726C29.1344 23.687 28.4867 23.4643 28.4867 23.3715C28.4867 23.2787 28.5422 23.2044 28.6348 23.2044C28.7088 23.2044 29.7081 23.0374 30.874 22.8332C32.0213 22.629 34.4086 22.3691 36.1481 22.2578C37.8877 22.1464 39.4236 21.9608 39.5532 21.868C39.9048 21.571 39.8123 21.0141 39.3866 20.7728C38.4984 20.3088 31.4291 21.0141 27.7465 21.9237L25.4333 22.5176L23.7677 21.8123C22.8424 21.4225 22.0282 21.0513 21.9542 20.977C21.7321 20.7914 26.118 19.1951 28.2832 18.6754C30.6149 18.1 33.8904 17.6545 36.9809 17.4874C39.0535 17.3761 39.4977 17.3018 39.6642 17.0234C39.8123 16.8007 39.8123 16.615 39.6642 16.3737C39.4792 16.0953 39.1461 16.0582 36.9809 16.0768C34.7972 16.0953 32.4655 16.2995 30.5779 16.6336L29.9672 16.745V15.9468C29.9487 11.919 26.7842 7.7983 22.7684 6.57323C21.6766 6.23912 19.1968 6.10919 18.1235 6.31337Z" fill="white"/>
  <path d="M32.632 8.02108C31.1885 8.7821 30.8554 9.46888 31.7067 9.85867C32.0953 10.0443 32.2989 9.9886 33.0576 9.52456C33.7053 9.13477 33.9644 8.83779 34.0014 8.48511C34.094 7.74265 33.5203 7.53847 32.632 8.02108Z" fill="white"/>
  <path d="M5.79862 8.05808C5.57655 8.63349 5.85414 9.02328 6.85345 9.56157C7.74173 10.0256 7.94529 10.0627 8.20437 9.85855C8.77805 9.37595 8.57449 8.80054 7.6492 8.28082C6.6869 7.74253 5.94666 7.66829 5.79862 8.05808Z" fill="white"/>
  <path d="M12.7567 9.19037C12.2756 9.78434 12.9973 10.6939 13.645 10.2855C14.2742 9.87715 14.0522 8.91195 13.3119 8.91195C13.1269 8.91195 12.8863 9.04188 12.7567 9.19037Z" fill="white"/>
  <path d="M4.11454 13.0141C3.985 13.144 3.87396 13.4039 3.87396 13.5709C3.87396 13.738 3.985 13.9607 4.11454 14.0721C4.46615 14.3691 6.20569 14.6289 6.5388 14.4433C6.92742 14.2206 6.90891 13.4224 6.52029 13.2183C5.9096 12.8841 4.35511 12.7728 4.11454 13.0141Z" fill="white"/>
  <path d="M33.983 12.9955C33.1132 13.1626 32.8726 13.3853 32.9651 13.9422C33.0207 14.3505 33.0947 14.3876 34.168 14.3691C35.3524 14.3505 35.8891 14.1092 35.8891 13.5709C35.8891 12.8656 35.4079 12.7171 33.983 12.9955Z" fill="white"/>
  <path d="M0.302361 20.8842C-0.0677554 21.2555 -0.104767 21.6081 0.228337 21.868C0.339372 21.9608 1.48673 22.1093 2.76363 22.1835C8.44491 22.4805 12.2201 23.2787 16.9946 25.1905C20.1961 26.4713 20.6217 26.5269 20.6217 25.5989C20.6217 25.0791 19.6409 24.5594 16.2729 23.2601C12.2941 21.7566 8.14882 20.9399 3.02271 20.6986C0.913052 20.5872 0.561442 20.6058 0.302361 20.8842Z" fill="white"/>
  <path d="M34.5196 24.9863C34.168 25.339 34.1495 25.4504 34.4641 25.8773C34.8527 26.4156 35.5929 26.1929 35.6669 25.5432C35.7595 24.745 35.0747 24.4109 34.5196 24.9863Z" fill="white"/>
  <path d="M37.5916 25.0977C36.9624 25.7288 37.5545 26.4156 38.6834 26.3228C39.5902 26.2671 39.9973 25.8216 39.6642 25.2833C39.4051 24.8935 37.9432 24.745 37.5916 25.0977Z" fill="white"/>
</svg>