<svg xmlns="http://www.w3.org/2000/svg" width="40" height="27" viewBox="0 0 40 27" fill="none">
  <path d="M19.3633 0.801114C19.2893 0.856798 19.2338 1.48789 19.2338 2.17467C19.2338 3.39974 19.2523 3.45542 19.7335 3.56679C20.0851 3.6596 20.2886 3.60391 20.4737 3.36261C20.7513 2.95426 20.7883 1.54358 20.5292 1.02385C20.3441 0.689744 19.6039 0.541251 19.3633 0.801114Z" fill="#D7D7D7"/>
  <path d="M13.9596 1.97052C13.7931 2.49025 14.3668 4.16079 14.7924 4.38353C15.218 4.60627 15.6622 4.45778 15.8102 4.03086C15.9212 3.67819 15.4771 2.26751 15.144 1.84059C14.8109 1.46936 14.0892 1.54361 13.9596 1.97052Z" fill="#D7D7D7"/>
  <path d="M24.6561 1.82202C24.545 1.95195 24.3415 2.45312 24.1749 2.93572C23.8973 3.75243 23.9158 3.84524 24.2119 4.21647C24.471 4.55058 24.6005 4.5877 24.9151 4.40208C25.3778 4.16078 25.9515 2.76866 25.8589 2.13757C25.8034 1.61785 24.9707 1.41367 24.6561 1.82202Z" fill="#D7D7D7"/>
  <path d="M9.46271 4.42066C9.07409 4.81045 9.22213 5.38586 9.96237 6.20257C10.7396 7.0564 10.8506 7.09353 11.3688 6.74086C11.8129 6.38819 11.6464 5.77565 10.8321 4.8847C10.1474 4.1608 9.83283 4.04943 9.46271 4.42066Z" fill="#D7D7D7"/>
  <path d="M28.8753 5.03321C28.4682 5.47869 28.1166 5.97985 28.1166 6.12834C28.1166 6.46245 28.6162 6.98218 28.9308 6.98218C29.1899 6.98218 29.9487 6.20259 30.4113 5.47869C30.6704 5.05177 30.6704 4.97753 30.4113 4.60629C30.0042 4.01232 29.7451 4.08657 28.8753 5.03321Z" fill="#D7D7D7"/>
  <path d="M18.1235 6.98213C17.1242 7.16775 15.7548 7.65035 15.4031 7.92877C15.07 8.22576 15.1071 9.00534 15.4587 9.15384C15.6252 9.20952 16.3099 9.07959 16.9946 8.87541C19.4744 8.07726 21.4175 8.18863 23.6752 9.24664C26.4881 10.6016 28.4867 13.8314 28.4867 17.0054V17.6922L26.6917 18.1933C25.6924 18.4718 23.7493 19.1585 22.3613 19.7154L19.863 20.7177L18.3826 20.068C17.5868 19.7154 15.8473 19.0843 14.5149 18.6574C10.8507 17.488 11.2023 17.7293 11.3504 16.4114C11.4059 15.7803 11.6465 14.7037 11.8685 14.017C12.2016 12.9775 12.2201 12.7177 12.0351 12.4764C11.739 12.1051 11.2023 12.0866 10.9247 12.4392C10.5361 12.9033 9.99945 14.7594 9.86991 16.0959L9.74037 17.4137L9.16669 17.3024C6.90898 16.8755 1.50529 16.4857 0.691032 16.6898C0.135858 16.8383 -0.0862121 17.2652 0.172869 17.7293C0.320916 18.0077 0.728043 18.082 2.98575 18.1933C9.48129 18.5089 13.0529 19.3998 20.2147 22.5553C25.0077 24.6528 26.9693 25.3767 29.5601 25.9892C31.8548 26.546 32.3174 26.546 32.632 26.0449C32.9096 25.5994 32.5765 25.1354 31.8918 24.9683C31.5957 24.9126 30.7074 24.7084 29.9302 24.5414C29.1344 24.3558 28.4867 24.133 28.4867 24.0402C28.4867 23.9474 28.5423 23.8732 28.6348 23.8732C28.7088 23.8732 29.7081 23.7061 30.874 23.5019C32.0214 23.2978 34.4086 23.0379 36.1481 22.9265C37.8877 22.8152 39.4237 22.6295 39.5532 22.5367C39.9048 22.2398 39.8123 21.6829 39.3867 21.4416C38.4984 20.9776 31.4292 21.6829 27.7465 22.5924L25.4333 23.1864L23.7678 22.4811C22.8425 22.0913 22.0282 21.72 21.9542 21.6458C21.7321 21.4602 26.118 19.8639 28.2832 19.3441C30.6149 18.7687 33.8904 18.3233 36.9809 18.1562C39.0536 18.0448 39.4977 17.9706 39.6643 17.6922C39.8123 17.4694 39.8123 17.2838 39.6643 17.0425C39.4792 16.7641 39.1461 16.727 36.9809 16.7455C34.7972 16.7641 32.4655 16.9683 30.5779 17.3024L29.9672 17.4137V16.6156C29.9487 12.5877 26.7842 8.46706 22.7685 7.24199C21.6766 6.90788 19.1968 6.77795 18.1235 6.98213Z" fill="#D7D7D7"/>
  <path d="M32.632 8.68981C31.1885 9.45083 30.8554 10.1376 31.7067 10.5274C32.0953 10.713 32.2989 10.6573 33.0576 10.1933C33.7053 9.8035 33.9644 9.50652 34.0014 9.15385C34.0939 8.41138 33.5202 8.20721 32.632 8.68981Z" fill="#D7D7D7"/>
  <path d="M5.79859 8.72687C5.57652 9.30228 5.85411 9.69207 6.85342 10.2304C7.7417 10.6944 7.94526 10.7315 8.20434 10.5273C8.77802 10.0447 8.57446 9.46933 7.64917 8.94961C6.68687 8.41132 5.94663 8.33708 5.79859 8.72687Z" fill="#D7D7D7"/>
  <path d="M12.7567 9.85914C12.2756 10.4531 12.9973 11.3626 13.645 10.9543C14.2742 10.5459 14.0522 9.58071 13.3119 9.58071C13.1269 9.58071 12.8863 9.71064 12.7567 9.85914Z" fill="#D7D7D7"/>
  <path d="M4.11454 13.6829C3.985 13.8128 3.87396 14.0727 3.87396 14.2397C3.87396 14.4068 3.985 14.6295 4.11454 14.7409C4.46615 15.0379 6.20569 15.2977 6.5388 15.1121C6.92742 14.8894 6.90891 14.0912 6.52029 13.887C5.9096 13.5529 4.35511 13.4416 4.11454 13.6829Z" fill="#D7D7D7"/>
  <path d="M33.983 13.6643C33.1132 13.8313 32.8726 14.0541 32.9652 14.6109C33.0207 15.0193 33.0947 15.0564 34.1681 15.0378C35.3524 15.0193 35.8891 14.778 35.8891 14.2397C35.8891 13.5343 35.4079 13.3858 33.983 13.6643Z" fill="#D7D7D7"/>
  <path d="M0.302361 21.553C-0.0677554 21.9242 -0.104767 22.2769 0.228337 22.5368C0.339372 22.6296 1.48673 22.7781 2.76363 22.8523C8.44491 23.1493 12.2201 23.9474 16.9946 25.8593C20.1961 27.14 20.6217 27.1957 20.6217 26.2676C20.6217 25.7479 19.6409 25.2282 16.2729 23.9289C12.2941 22.4254 8.14882 21.6087 3.02271 21.3674C0.913052 21.256 0.561442 21.2746 0.302361 21.553Z" fill="#D7D7D7"/>
  <path d="M34.5196 25.6551C34.168 26.0078 34.1495 26.1192 34.4641 26.5461C34.8527 27.0844 35.5929 26.8616 35.6669 26.212C35.7595 25.4138 35.0747 25.0797 34.5196 25.6551Z" fill="#D7D7D7"/>
  <path d="M37.5915 25.7665C36.9623 26.3976 37.5545 27.0843 38.6834 26.9915C39.5902 26.9358 39.9973 26.4904 39.6642 25.9521C39.4051 25.5623 37.9431 25.4138 37.5915 25.7665Z" fill="#D7D7D7"/>
</svg>