<svg xmlns="http://www.w3.org/2000/svg" width="28" height="28" viewBox="0 0 28 28" fill="none">
  <path d="M13.7076 0.0379584C13.4257 0.119398 13.1376 0.432626 13.0561 0.73959C12.9434 1.15305 13.006 2.21177 13.1563 2.46235C13.5322 3.09507 14.4656 3.09507 14.8478 2.46235C14.9543 2.28694 14.9731 2.14285 14.9731 1.47255C14.9731 0.802236 14.9543 0.658151 14.8478 0.482743C14.6223 0.106869 14.1274 -0.0873332 13.7076 0.0379584Z" fill="#F5ACA4"/>
  <path d="M4.37341 3.91573C3.90357 4.12246 3.69684 4.64868 3.87851 5.13732C4.0226 5.51319 4.87458 6.32759 5.2254 6.42155C5.96462 6.61576 6.61613 5.95798 6.41566 5.21876C6.33423 4.893 5.57621 4.08487 5.20034 3.90946C4.88084 3.75911 4.70544 3.76538 4.37341 3.91573Z" fill="#F5ACA4"/>
  <path d="M22.8038 3.90946C22.5156 4.04102 21.6824 4.88047 21.5822 5.13105C21.413 5.5821 21.6072 6.12085 22.0207 6.35264C22.3151 6.51552 22.6409 6.52179 22.9479 6.36517C23.2862 6.18976 24.0504 5.37537 24.1444 5.0872C24.301 4.62362 24.0755 4.11619 23.6307 3.91572C23.2987 3.76537 23.1233 3.75911 22.8038 3.90946Z" fill="#F5ACA4"/>
  <path d="M11.1579 5.16862C8.45164 6.09578 6.27157 8.34476 5.42585 11.0886C4.73048 13.3439 4.89336 15.6305 5.8957 17.7604C7.09849 20.3038 9.54168 22.2333 12.2793 22.8034C14.6536 23.292 17.1343 22.8347 19.1202 21.5442C20.5611 20.6108 21.6072 19.4456 22.3653 17.9358C22.5532 17.5599 22.7787 17.0212 22.8727 16.733C23.0669 16.1066 23.023 15.8435 22.6848 15.5114C22.3715 15.2045 22.1335 15.1794 21.3755 15.3548C17.2722 16.3384 13.244 13.6884 12.5299 9.52876C12.3607 8.55149 12.4234 7.43639 12.7116 6.34009C12.8494 5.81387 12.7178 5.40041 12.3419 5.16862C12.0037 4.96189 11.7656 4.96189 11.1579 5.16862ZM10.5127 8.72063C10.5691 10.2617 10.8134 11.2139 11.5088 12.5671C11.9598 13.4441 12.4986 14.1771 13.2315 14.8975C13.9707 15.6305 14.6849 16.1316 15.6622 16.6077C16.9527 17.2342 18.1304 17.5098 19.5337 17.5161C19.9722 17.5161 20.3293 17.5412 20.3293 17.5725C20.3293 17.6915 19.5587 18.6375 19.1327 19.0447C17.7733 20.3289 16.038 21.018 14.1524 21.018C10.1995 21.018 6.98573 17.8043 6.98573 13.8576C6.98573 11.9469 7.65604 10.2492 8.95281 8.87725C9.35374 8.45125 10.306 7.67445 10.425 7.67445C10.4563 7.67445 10.4939 8.14429 10.5127 8.72063Z" fill="#F5ACA4"/>
  <path d="M0.677318 13.0683C0.401676 13.1497 0.113506 13.4567 0.0320665 13.7574C-0.105754 14.2648 0.213739 14.8036 0.739963 14.9476C0.884048 14.9852 1.27872 15.004 1.62953 14.9915C2.13696 14.9727 2.29984 14.9476 2.47525 14.8349C3.09544 14.4527 3.09544 13.5506 2.47525 13.1685C2.28731 13.0495 2.14949 13.0307 1.56689 13.0182C1.19101 13.0119 0.79008 13.0307 0.677318 13.0683Z" fill="#F5ACA4"/>
  <path d="M25.7356 13.0683C25.46 13.1497 25.1718 13.4567 25.0904 13.7574C24.9525 14.2648 25.272 14.8036 25.7983 14.9476C25.9423 14.9852 26.337 15.004 26.6878 14.9915C27.1953 14.9727 27.3581 14.9476 27.5335 14.8349C28.1537 14.4527 28.1537 13.5506 27.5335 13.1685C27.3456 13.0495 27.2078 13.0307 26.6252 13.0182C26.2493 13.0119 25.8484 13.0307 25.7356 13.0683Z" fill="#F5ACA4"/>
  <path d="M5.07507 21.6382C4.71172 21.8073 3.94745 22.6217 3.84721 22.9475C3.63422 23.6679 4.33585 24.3696 5.06254 24.1566C5.43215 24.0438 6.31545 23.1605 6.42195 22.7909C6.52218 22.4589 6.45954 22.1394 6.25281 21.8888C5.93958 21.5254 5.51985 21.4315 5.07507 21.6382Z" fill="#F5ACA4"/>
  <path d="M22.1773 21.6131C21.7012 21.7823 21.4506 22.2772 21.5885 22.7846C21.6824 23.1605 22.5595 24.0438 22.9479 24.1566C23.6683 24.3696 24.3699 23.6679 24.1569 22.9475C24.0692 22.6656 23.33 21.8324 23.023 21.6758C22.7599 21.538 22.4467 21.5129 22.1773 21.6131Z" fill="#F5ACA4"/>
  <path d="M13.7076 25.0963C13.4257 25.1777 13.1375 25.4909 13.0561 25.7979C13.0185 25.942 12.9997 26.3366 13.0123 26.6875C13.0373 27.4016 13.1375 27.6397 13.4946 27.8652C13.9394 28.1408 14.5721 27.978 14.8478 27.5206C14.9543 27.3452 14.9731 27.2012 14.9731 26.5308C14.9731 25.8605 14.9543 25.7164 14.8478 25.541C14.6223 25.1652 14.1274 24.971 13.7076 25.0963Z" fill="#F5ACA4"/>
</svg>